<svg viewBox="0 0 1281.2222900390625 400" xmlns="http://www.w3.org/2000/svg"><g><g><g><g><g><line x1="72.34375" y1="376.6080515164366" x2="67.34375" y2="376.6080515164366" style="visibility: inherit;" fill="rgb(0, 0, 0)" stroke="rgb(204, 204, 204)" stroke-width="1px"></line><line x1="72.34375" y1="344.56001880801534" x2="67.34375" y2="344.56001880801534" style="visibility: inherit;" fill="rgb(0, 0, 0)" stroke="rgb(204, 204, 204)" stroke-width="1px"></line><line x1="72.34375" y1="312.511986099594" x2="67.34375" y2="312.511986099594" style="visibility: inherit;" fill="rgb(0, 0, 0)" stroke="rgb(204, 204, 204)" stroke-width="1px"></line><line x1="72.34375" y1="280.4639533911728" x2="67.34375" y2="280.4639533911728" style="visibility: inherit;" fill="rgb(0, 0, 0)" stroke="rgb(204, 204, 204)" stroke-width="1px"></line><line x1="72.34375" y1="248.4159206827515" x2="67.34375" y2="248.4159206827515" style="visibility: inherit;" fill="rgb(0, 0, 0)" stroke="rgb(204, 204, 204)" stroke-width="1px"></line><line x1="72.34375" y1="216.36788797433022" x2="67.34375" y2="216.36788797433022" style="visibility: inherit;" fill="rgb(0, 0, 0)" stroke="rgb(204, 204, 204)" stroke-width="1px"></line><line x1="72.34375" y1="184.31985526590896" x2="67.34375" y2="184.31985526590896" style="visibility: inherit;" fill="rgb(0, 0, 0)" stroke="rgb(204, 204, 204)" stroke-width="1px"></line><line x1="72.34375" y1="152.27182255748772" x2="67.34375" y2="152.27182255748772" style="visibility: inherit;" fill="rgb(0, 0, 0)" stroke="rgb(204, 204, 204)" stroke-width="1px"></line><line x1="72.34375" y1="120.22378984906642" x2="67.34375" y2="120.22378984906642" style="visibility: inherit;" fill="rgb(0, 0, 0)" stroke="rgb(204, 204, 204)" stroke-width="1px"></line><line x1="72.34375" y1="88.17575714064513" x2="67.34375" y2="88.17575714064513" style="visibility: inherit;" fill="rgb(0, 0, 0)" stroke="rgb(204, 204, 204)" stroke-width="1px"></line><line x1="72.34375" y1="56.12772443222388" x2="67.34375" y2="56.12772443222388" style="visibility: inherit;" fill="rgb(0, 0, 0)" stroke="rgb(204, 204, 204)" stroke-width="1px"></line><line x1="72.34375" y1="24.079691723802586" x2="67.34375" y2="24.079691723802586" style="visibility: inherit;" fill="rgb(0, 0, 0)" stroke="rgb(204, 204, 204)" stroke-width="1px"></line></g><g transform="translate(62.34375, 0)"><text x="0" y="376.6080515164366" dx="0em" dy="0.3em" style="text-anchor: end; visibility: hidden; font-family: Roboto, sans-serif; font-size: 12px; font-weight: 200;" fill="rgb(50, 49, 63)" stroke="none" stroke-width="1px">-2e-4</text><text x="0" y="344.56001880801534" dx="0em" dy="0.3em" style="text-anchor: end; visibility: inherit; font-family: Roboto, sans-serif; font-size: 12px; font-weight: 200;" fill="rgb(50, 49, 63)" stroke="none" stroke-width="1px">0</text><text x="0" y="312.511986099594" dx="0em" dy="0.3em" style="text-anchor: end; visibility: inherit; font-family: Roboto, sans-serif; font-size: 12px; font-weight: 200;" fill="rgb(50, 49, 63)" stroke="none" stroke-width="1px">2e-4</text><text x="0" y="280.4639533911728" dx="0em" dy="0.3em" style="text-anchor: end; visibility: inherit; font-family: Roboto, sans-serif; font-size: 12px; font-weight: 200;" fill="rgb(50, 49, 63)" stroke="none" stroke-width="1px">4e-4</text><text x="0" y="248.4159206827515" dx="0em" dy="0.3em" style="text-anchor: end; visibility: inherit; font-family: Roboto, sans-serif; font-size: 12px; font-weight: 200;" fill="rgb(50, 49, 63)" stroke="none" stroke-width="1px">6e-4</text><text x="0" y="216.36788797433022" dx="0em" dy="0.3em" style="text-anchor: end; visibility: inherit; font-family: Roboto, sans-serif; font-size: 12px; font-weight: 200;" fill="rgb(50, 49, 63)" stroke="none" stroke-width="1px">8e-4</text><text x="0" y="184.31985526590896" dx="0em" dy="0.3em" style="text-anchor: end; visibility: inherit; font-family: Roboto, sans-serif; font-size: 12px; font-weight: 200;" fill="rgb(50, 49, 63)" stroke="none" stroke-width="1px">1e-3</text><text x="0" y="152.27182255748772" dx="0em" dy="0.3em" style="text-anchor: end; visibility: inherit; font-family: Roboto, sans-serif; font-size: 12px; font-weight: 200;" fill="rgb(50, 49, 63)" stroke="none" stroke-width="1px">1.2e-3</text><text x="0" y="120.22378984906642" dx="0em" dy="0.3em" style="text-anchor: end; visibility: inherit; font-family: Roboto, sans-serif; font-size: 12px; font-weight: 200;" fill="rgb(50, 49, 63)" stroke="none" stroke-width="1px">1.4e-3</text><text x="0" y="88.17575714064513" dx="0em" dy="0.3em" style="text-anchor: end; visibility: inherit; font-family: Roboto, sans-serif; font-size: 12px; font-weight: 200;" fill="rgb(50, 49, 63)" stroke="none" stroke-width="1px">1.6e-3</text><text x="0" y="56.12772443222388" dx="0em" dy="0.3em" style="text-anchor: end; visibility: inherit; font-family: Roboto, sans-serif; font-size: 12px; font-weight: 200;" fill="rgb(50, 49, 63)" stroke="none" stroke-width="1px">1.8e-3</text><text x="0" y="24.079691723802586" dx="0em" dy="0.3em" style="text-anchor: end; visibility: inherit; font-family: Roboto, sans-serif; font-size: 12px; font-weight: 200;" fill="rgb(50, 49, 63)" stroke="none" stroke-width="1px">2e-3</text></g><line x1="72.34375" y1="0" x2="72.34375" y2="378" fill="rgb(0, 0, 0)" stroke="rgb(204, 204, 204)" stroke-width="1px"></line></g></g><g transform="translate(72, 0)" clip-path="url(#clip_0)"><clipPath id="clip_0"><rect width="1208" height="378"></rect></clipPath><g><g><g><line x1="89.99048683198964" y1="0" x2="89.99048683198964" y2="378" fill="rgb(0, 0, 0)" stroke="rgb(60, 60, 60)" stroke-width="1px" opacity="0.25"></line><line x1="192.84830050409406" y1="0" x2="192.84830050409406" y2="378" fill="rgb(0, 0, 0)" stroke="rgb(60, 60, 60)" stroke-width="1px" opacity="0.25"></line><line x1="295.70611417619847" y1="0" x2="295.70611417619847" y2="378" fill="rgb(0, 0, 0)" stroke="rgb(60, 60, 60)" stroke-width="1px" opacity="0.25"></line><line x1="398.5639278483029" y1="0" x2="398.5639278483029" y2="378" fill="rgb(0, 0, 0)" stroke="rgb(60, 60, 60)" stroke-width="1px" opacity="0.25"></line><line x1="501.42174152040735" y1="0" x2="501.42174152040735" y2="378" fill="rgb(0, 0, 0)" stroke="rgb(60, 60, 60)" stroke-width="1px" opacity="0.25"></line><line x1="604.2795551925118" y1="0" x2="604.2795551925118" y2="378" fill="rgb(0, 0, 0)" stroke="rgb(60, 60, 60)" stroke-width="1px" opacity="0.25"></line><line x1="707.1373688646162" y1="0" x2="707.1373688646162" y2="378" fill="rgb(0, 0, 0)" stroke="rgb(60, 60, 60)" stroke-width="1px" opacity="0.25"></line><line x1="809.9951825367206" y1="0" x2="809.9951825367206" y2="378" fill="rgb(0, 0, 0)" stroke="rgb(60, 60, 60)" stroke-width="1px" opacity="0.25"></line><line x1="912.8529962088251" y1="0" x2="912.8529962088251" y2="378" fill="rgb(0, 0, 0)" stroke="rgb(60, 60, 60)" stroke-width="1px" opacity="0.25"></line><line x1="1015.7108098809294" y1="0" x2="1015.7108098809294" y2="378" fill="rgb(0, 0, 0)" stroke="rgb(60, 60, 60)" stroke-width="1px" opacity="0.25"></line><line x1="1118.5686235530338" y1="0" x2="1118.5686235530338" y2="378" fill="rgb(0, 0, 0)" stroke="rgb(60, 60, 60)" stroke-width="1px" opacity="0.25"></line></g><g><line x1="0" y1="376.6080515164366" x2="1208.87625" y2="376.6080515164366" fill="rgb(0, 0, 0)" stroke="rgb(60, 60, 60)" stroke-width="1px" opacity="0.25"></line><line x1="0" y1="344.56001880801534" x2="1208.87625" y2="344.56001880801534" fill="rgb(0, 0, 0)" stroke="rgb(60, 60, 60)" stroke-width="1px" opacity="0.25"></line><line x1="0" y1="312.511986099594" x2="1208.87625" y2="312.511986099594" fill="rgb(0, 0, 0)" stroke="rgb(60, 60, 60)" stroke-width="1px" opacity="0.25"></line><line x1="0" y1="280.4639533911728" x2="1208.87625" y2="280.4639533911728" fill="rgb(0, 0, 0)" stroke="rgb(60, 60, 60)" stroke-width="1px" opacity="0.25"></line><line x1="0" y1="248.4159206827515" x2="1208.87625" y2="248.4159206827515" fill="rgb(0, 0, 0)" stroke="rgb(60, 60, 60)" stroke-width="1px" opacity="0.25"></line><line x1="0" y1="216.36788797433022" x2="1208.87625" y2="216.36788797433022" fill="rgb(0, 0, 0)" stroke="rgb(60, 60, 60)" stroke-width="1px" opacity="0.25"></line><line x1="0" y1="184.31985526590896" x2="1208.87625" y2="184.31985526590896" fill="rgb(0, 0, 0)" stroke="rgb(60, 60, 60)" stroke-width="1px" opacity="0.25"></line><line x1="0" y1="152.27182255748772" x2="1208.87625" y2="152.27182255748772" fill="rgb(0, 0, 0)" stroke="rgb(60, 60, 60)" stroke-width="1px" opacity="0.25"></line><line x1="0" y1="120.22378984906642" x2="1208.87625" y2="120.22378984906642" fill="rgb(0, 0, 0)" stroke="rgb(60, 60, 60)" stroke-width="1px" opacity="0.25"></line><line x1="0" y1="88.17575714064513" x2="1208.87625" y2="88.17575714064513" fill="rgb(0, 0, 0)" stroke="rgb(60, 60, 60)" stroke-width="1px" opacity="0.25"></line><line x1="0" y1="56.12772443222388" x2="1208.87625" y2="56.12772443222388" fill="rgb(0, 0, 0)" stroke="rgb(60, 60, 60)" stroke-width="1px" opacity="0.25"></line><line x1="0" y1="24.079691723802586" x2="1208.87625" y2="24.079691723802586" fill="rgb(0, 0, 0)" stroke="rgb(60, 60, 60)" stroke-width="1px" opacity="0.25"></line></g></g></g><g><g><line x1="0" y1="344.56001880801534" x2="1208.87625" y2="344.56001880801534" fill="rgb(0, 0, 0)" stroke="rgb(153, 153, 153)" stroke-width="1.5px"></line></g></g><g><g><line x1="89.99048683198964" y1="0" x2="89.99048683198964" y2="378" fill="rgb(0, 0, 0)" stroke="rgb(153, 153, 153)" stroke-width="1.5px"></line></g></g><g><g><g><g><g><path stroke="rgb(255, 112, 67)" stroke-width="2px" d="M115.70494025001574,-46.3967872279097L118.27638559181835,81.68341502007127L120.84783093362097,75.3477202170592L123.41927627542358,141.88070374133773L125.99072161722619,177.8512114748709L128.56216695902881,197.71803432686042L131.1336123008314,198.2734993289332L133.70505764263402,186.82072063477887L136.27650298443663,209.35521207148363L138.84794832623925,213.50209410468526L141.41939366804186,220.8862776595479L143.99083900984445,236.30442185935692L146.56228435164707,241.75363710749926L149.13372969344968,258.0917025413371L151.7051750352523,270.5019497022747L154.2766203770549,279.1806546168619L156.84806571885753,259.341136693968L159.41951106066014,249.24632835747158L161.99095640246276,191.76282719306528L164.56240174426532,229.11943709629767L167.13384708606793,235.21887893955926L169.70529242787055,251.04572499197747L172.27673776967316,268.4837253552478L174.84818311147578,281.926007524127L177.4196284532784,263.9815543636222L179.991073795081,285.2568517443816L182.56251913688362,291.64375789234435L185.13396447868624,289.8278386001925L187.70540982048882,257.4162189491271L190.27685516229144,281.6744289619911L192.84830050409406,283.7639286653549L195.41974584589667,289.9796866805827L197.9911911876993,286.8800566482357L200.5626365295019,287.05319707999763L203.13408187130452,255.61713727598095L205.70552721310713,274.70560633991266L208.2769725549097,263.8272899831811L210.8484178967123,285.417024712103L213.41986323851492,291.37910585995286L215.99130858031754,307.6810603352445L218.56275392212015,243.78199402121754L221.13419926392277,274.7544853298687L223.70564460572538,298.29210132172125L226.277089947528,303.93050198143936L228.8485352893306,301.93651403212243L231.4199806311332,276.5963169364178L233.99142597293582,275.77143033007L236.56287131473843,294.27542848227256L239.13431665654105,300.5797955452188L241.70576199834366,304.82779574893874L244.27720734014628,308.88693993376444L246.8486526819489,295.94888208427074L249.4200980237515,307.4121676870698L251.99154336555407,306.9155311680622L254.56298870735668,310.81174435562997L257.1344340491593,309.6231218436265L259.7058793909619,275.4762663809677L262.27732473276455,274.29048321061214L264.84877007456714,296.5355166570919L267.42021541636973,308.48118338582935L269.9916607581724,297.39423616240555L272.56310609997496,289.6285935447786L275.1345514417776,292.56372803323325L277.7059967835802,303.23984090604785L280.27744212538283,310.0227157276777L282.8488874671854,306.0732006808831L285.42033280898806,301.62007198324517L287.99177815079065,312.1415464380124L290.56322349259324,267.5084332931356L293.1346688343959,291.7705401644687L295.70611417619847,291.1605138124292L298.27755951800106,297.67646062997954L300.8490048598037,309.48208332975094L303.42045020160634,298.4057383819716L305.99189554340893,312.20738767463735L308.5633408852116,313.86961342597453L311.13478622701416,312.54743619345714L313.70623156881675,311.0324616097443L316.2776769106194,317.5916244820319L318.8491222524219,322.0413212292323L321.42056759422456,324.19428153390976L323.99201293602715,329.2349342688344L326.5634582778298,331.425183697397L329.1349036196324,326.8592468657027L331.70634896143497,321.0308492828457L334.2777943032376,320.216808330243L336.8492396450402,321.64020897049994L339.4206849868429,323.2463462064282L341.9921303286455,326.28451928410004L344.56357567044813,323.3241725906188L347.1350210122507,321.9478862150614L349.70646635405336,320.03549219692866L352.27791169585595,323.7561582427674L354.8493570376586,322.3224924423096L357.4208023794612,319.76589820650753L359.9922477212638,315.59874015052503L362.5636930630664,301.6183860302399L365.135138404869,307.87664828977927L367.7065837466716,316.00024279793615L370.27802908847417,316.9232862924009L372.8494744302768,321.74113933994664L375.4209197720794,310.5290900020629L377.99236511388204,314.1924536283939L380.56381045568463,313.81682262884027L383.1352557974872,316.2573905625687L385.70670113928986,322.63800832752685L388.27814648109245,326.30356655872504L390.8495918228951,330.14699581579066L393.4210371646977,327.84239576499465L395.9924825065003,328.4479454272706L398.5639278483029,318.42989960601926L401.13537319010555,315.29627144785394L403.70681853190814,318.56445060871783L406.2782638737107,323.65946877537266L408.84970921551337,316.81185621752434L411.42115455731596,320.8457703827101L413.9925998991186,319.905155193663L416.5640452409212,321.36802706073297L419.13549058272383,325.8119398966804L421.7069359245264,326.98021580577085L424.27838126632906,327.35157657725375L426.84982660813165,314.4068618686833L429.42127194993424,317.4555839970742L431.9927172917369,326.6434337782347L434.56416263353947,331.7263321615129L437.1356079753421,327.15922903201357L439.7070533171447,320.47223493212215L442.27849865894734,317.429598644605L444.84994400074993,317.692109471413L447.4213893425526,310.4175086655051L449.99283468435516,315.76293112587695L452.56428002615775,317.71767620108295L455.13572536796033,314.38273258810364L457.7071707097629,315.5293446419025L460.27861605156556,296.397566256434L462.85006139336815,308.003991291393L465.4215067351708,317.31448204177076L467.9929520769734,325.52937549714L470.56439741877597,327.19213140683195L473.1358427605786,330.40209237276014L475.7072881023812,332.90274207633865L478.27873344418384,329.0556749907676L480.85017878598643,328.30966138041083L483.4216241277891,310.25120802171756L485.99306946959166,316.2213974895368L488.5645148113943,318.78492674142285L491.1359601531969,325.1056400628405L493.7074054949995,323.3221179409334L496.2788508368021,326.80519176585466L498.8502961786047,330.15197814877064L501.42174152040735,322.5734240542585L503.99318686220994,316.0497700929686L506.5646322040126,320.91381803859906L509.13607754581517,326.9471928677864L511.7075228876178,326.4945939240145L514.2789682294205,328.4403849644842L516.850413571223,319.3786382006532L519.4218589130256,325.69516085788547L521.9933042548282,319.6432179547718L524.5647495966308,321.92740020063184L527.1361949384335,320.07251445437726L529.7076402802361,322.9510834815152L532.2790856220387,323.65895865029927L534.8505309638413,326.41514318554704L537.421976305644,324.3504232174785L539.9934216474466,323.05398735063454L542.5648669892491,317.81971594718254L545.1363123310517,305.57533363045843L547.7077576728543,308.4158543371938L550.2792030146569,313.52513946759694L552.8506483564595,324.5900672161305L555.4220936982622,316.37803756990417L557.9935390400648,321.3282870823488L560.5649843818674,322.35528802509566L563.13642972367,324.6075344638062L565.7078750654725,329.3274525841336L568.2793204072752,298.2295993000776L570.8507657490778,303.57438064392704L573.4222110908804,308.91404454545784L575.993656432683,317.4088198363066L578.5651017744857,318.48463501743464L581.1365471162883,319.53217330212703L583.7079924580909,325.317016829144L586.2794377998935,330.4143879133335L588.850883141696,326.13321980928276L591.4223284834987,328.9912127937317L593.9937738253013,325.09761425304873L596.5652191671039,325.0865907175557L599.1366645089065,318.2277999306257L601.7081098507092,321.7300114282662L604.2795551925118,325.80540257924855L606.8510005343143,325.16351519357517L609.422445876117,324.1857480061004L611.9938912179196,328.65417752784003L614.5653365597221,325.9531615773222L617.1367819015247,323.260413098299L619.7082272433274,327.1450975411428L622.27967258513,330.23497970941986L624.8511179269326,330.35505363417894L627.4225632687352,327.2394510270409L629.9940086105378,330.4417861524904L632.5654539523405,327.9784270685838L635.1368992941431,329.71418967805323L637.7083446359457,312.51287271280154L640.2797899777482,321.76539709668253L642.8512353195509,324.3207147438059L645.4226806613535,326.1430393631043L647.9941260031561,327.58145024964836L650.5655713449587,313.50765496232515L653.1370166867613,322.8974812955853L655.708462028564,325.202507853786L658.2799073703666,328.301944986313L660.8513527121692,332.0973264453234L663.4227980539717,286.59309678070065L665.9942433957744,290.3092074138717L668.565688737577,306.92709313967833L671.1371340793796,308.65658036494114L673.7085794211822,317.363161829947L676.2800247629848,316.2541077319866L678.8514701047875,320.28263228159017L681.4229154465901,320.9320690908163L683.9943607883927,318.12264533001866L686.5658061301953,322.2226722559101L689.137251471998,324.85739302572944L691.7086968138005,324.2916722985111L694.2801421556031,324.6202906678412L696.8515874974057,321.48334776025376L699.4230328392083,325.73123666860465L701.994478181011,330.9883529984985L704.5659235228136,328.2019304606372L707.1373688646162,329.5065494473118L709.7088142064188,301.81967164507455L712.2802595482215,310.00072889632196L714.851704890024,321.48388510618196L717.4231502318266,321.5087910170732L719.9945955736292,310.2355545403153L722.5660409154318,316.51326433199506L725.1374862572345,322.75672392609414L727.7089315990371,324.6804358921315L730.2803769408397,322.8288373815395L732.8518222826423,322.56654947496725L735.423267624445,319.0839908025642L737.9947129662476,299.2624164344016L740.5661583080501,312.70096419603516L743.1376036498527,316.32390671022796L745.7090489916554,325.6217821501093L748.280494333458,325.7341897344352L750.8519396752606,330.724265215049L753.4233850170632,323.30208448246884L755.9948303588658,321.7666242700709L758.5662757006685,323.89817128756516L761.1377210424711,322.7344210713415L763.7091663842737,319.14076863354046L766.2806117260761,315.16554552446115L768.8520570678787,306.64799442505733L771.4235024096814,304.7296698652635L773.994947751484,310.2479746836244L776.5663930932866,319.5889024024407L779.1378384350892,326.3834646674438L781.7092837768918,312.7198311025854L784.2807291186945,319.38605071267716L786.852174460497,323.99062188268175L789.4236198022996,315.15453313455254L791.9950651441022,311.71751130510745L794.5665104859049,311.8820695576887L797.1379558277075,321.22673421357814L799.7094011695101,328.3155568768478L802.2808465113127,329.9155483669486L804.8522918531153,320.89468529132955L807.423737194918,322.3908170739763L809.9951825367206,328.648396708792L812.5666278785231,326.1864725819475L815.1380732203257,331.33253753598143L817.7095185621284,331.2661769724613L820.280963903931,315.5900684398156L822.8524092457336,319.2208261667811L825.4238545875362,322.77328631038495L827.9952999293388,325.3251339342695L830.5667452711415,320.26917998904594L833.1381906129441,309.17309038317643L835.7096359547467,320.61439450872643L838.2810812965492,328.1906237773654L840.852526638352,333.0888366526158L843.4239719801545,328.81471861301145L845.9954173219571,333.77571621709217L848.5668626637597,323.3939685787797L851.1383080055624,328.1279494519108L853.709753347365,321.2671543857177L856.2811986891676,328.40870857787587L858.8526440309702,325.40422463938353L861.4240893727728,325.8213904366721L863.9955347145755,331.91076689824536L866.566980056378,328.07289227948445L869.1384253981806,330.3639200203723L871.7098707399832,333.6200922979989L874.2813160817859,328.2158513021668L876.8527614235885,332.19123059769146L879.4242067653911,334.15928866679633L881.9956521071937,334.043054384857L884.5670974489963,320.3553845014794L887.138542790799,327.7178626506892L889.7099881326016,331.8722185911205L892.2814334744041,327.28945803658354L894.8528788162067,327.3975822637803L897.4243241580094,330.40139337162867L899.995769499812,333.7480828547297L902.5672148416146,330.5603825376313L905.1386601834172,327.277832362218L907.7101055252198,329.7349756113627L910.2815508670225,324.8646368863258L912.8529962088251,326.52634269754134L915.4244415506276,328.51196038414446L917.9958868924302,330.95961131886753L920.5673322342329,329.0584001983463L923.1387775760355,331.35686821428294L925.7102229178381,331.96366576842405L928.2816682596407,309.9632792335202L930.8531136014433,316.63648032290536L933.424558943246,318.5992783166817L935.9960042850486,323.97033468239255L938.5674496268512,329.35418055965084L941.1388949686536,327.66422346792257L943.7103403104562,327.2483152004885L946.2817856522589,330.88757328993904L948.8532309940615,333.65219903079196L951.4246763358641,329.6080454225186L953.9961216776667,322.0150567205844L956.5675670194694,329.0186882075312L959.139012361272,332.6789688416933L961.7104577030746,331.1029020839697L964.2819030448771,324.3745081902875L966.8533483866797,322.43323514687415L969.4247937284824,325.6994883546359L971.996239070285,313.2936818445498L974.5676844120876,312.30025780587965L977.1391297538902,317.4291845133103L979.7105750956929,325.0052919682251L982.2820204374955,324.5910022335711L984.8534657792981,323.92088255993383L987.4249111211006,308.6118738215068L989.9963564629032,313.2227452469026L992.5678018047059,323.95236328055825L995.1392471465085,324.12557893503475L997.7106924883111,321.2974818160918L1000.2821378301137,320.26582022562525L1002.8535831719164,317.27625906360845L1005.425028513719,324.9366103383907L1007.9964738555216,326.5251791730317L1010.5679191973242,307.1089762907086L1013.1393645391267,312.2970498021136L1015.7108098809294,320.387029994262L1018.282255222732,326.21644509397925L1020.8537005645346,329.82921681506883L1023.4251459063372,333.1190200375575L1025.9965912481398,333.63533240083694L1028.5680365899425,328.1562753148236L1031.1394819317452,330.4689257875405L1033.7109272735477,331.7740943578266L1036.2823726153504,333.281139349066L1038.8538179571528,332.1357818103043L1041.4252632989555,331.9542640970625L1043.9967086407582,330.97101893085056L1046.5681539825607,329.8831525110843L1049.1395993243634,330.1960893963061L1051.711044666166,330.3969595151324L1054.2824900079686,322.6499290505443L1056.8539353497713,317.13135941646436L1059.4253806915738,316.71914469489207L1061.9968260333765,315.52939039462007L1064.568271375179,323.1120438494792L1067.1397167169816,326.9060101225695L1069.7111620587843,331.39522406044506L1072.2826074005868,327.6324755072266L1074.8540527423895,318.97390782072586L1077.4254980841922,322.57376478792L1079.9969434259947,319.6400251049685L1082.5683887677974,328.5788387215013L1085.1398341095999,331.18762041093737L1087.7112794514026,325.0970537182941L1090.2827247932053,324.2756591799564L1092.8541701350077,331.33974665083076L1095.4256154768104,329.1433969412634L1097.997060818613,329.23111997528036L1100.5685061604156,332.9442266314711L1103.1399515022183,331.44478510031183L1105.7113968440208,331.16961387216134L1108.2828421858235,334.03021799634513L1110.854287527626,334.45856922951003L1113.4257328694287,333.2200391140359L1115.9971782112314,332.5786575344253L1118.5686235530338,328.42812855469424" style="fill: none;" fill="none"></path></g></g></g></g><g opacity="0.2"><g><g><g><path stroke="rgb(255, 112, 67)" stroke-width="2px" d="M97.70482285739747,-213.31336310408827L100.27626819920009,244.56657856965788L102.8477135410027,172.14879636887858L105.4191588828053,-116.0376279257554L107.9906042246079,180.32317757658998L110.56204956641052,89.62657306259078L113.13349490821312,-8.218233553558175L115.70494025001574,-39.78007789091898L118.27638559181835,273.106711587431L120.84783093362097,65.86486515534132L123.41927627542358,241.54983398678823L125.99072161722619,231.7646910936109L128.56216695902881,227.50425698215022L131.1336123008314,199.10646177786936L133.70505764263402,169.64446045281716L136.27650298443663,243.15351632358005L138.84794832623925,219.72203811304405L141.41939366804186,231.96214802566632L143.99083900984445,259.43113081846815L146.56228435164707,249.92735239446344L149.13372969344968,282.59860715213296L151.7051750352523,289.11723223695583L154.2766203770549,292.1986749780306L156.84806571885753,229.58191057351596L159.41951106066014,234.1041313506356L161.99095640246276,105.53762839688464L164.56240174426532,285.15433130471587L167.13384708606793,244.36803968181033L169.70529242787055,274.7859909215922L172.27673776967316,294.64072381840634L174.84818311147578,302.0894298146025L177.4196284532784,237.06487539405975L179.991073795081,317.1697972669145L182.56251913688362,301.22411701547264L185.13396447868624,287.1039596788217L187.70540982048882,208.79878965305502L190.27685516229144,318.06174390021937L192.84830050409406,286.89817821621074L195.41974584589667,299.3033236959464L197.9911911876993,282.2306116019528L200.5626365295019,287.31290772756546L203.13408187130452,208.463047578125L205.70552721310713,303.338309932834L208.2769725549097,247.50981544910144L210.8484178967123,317.801626804274L213.41986323851492,300.3222275815267L215.99130858031754,332.1339920478527L218.56275392212015,147.93339455095173L221.13419926392277,321.2132222926201L223.70564460572538,333.59852530939725L226.277089947528,312.3881029710018L228.8485352893306,298.94553210815013L231.4199806311332,238.58602129288474L233.99142597293582,274.5341004205488L236.56287131473843,322.0314257105701L239.13431665654105,310.03634613963703L241.70576199834366,311.1997960545181L244.27720734014628,314.9756562110027L246.8486526819489,276.5417953100307L249.4200980237515,324.60709609126826L251.99154336555407,306.17057638955066L254.56298870735668,316.6560641369815L257.1344340491593,307.8401880756214L259.7058793909619,224.2559831869796L262.27732473276455,272.5118084550789L264.84877007456714,329.90306682681125L267.42021541636973,326.39968347893563L269.9916607581724,280.7638153272698L272.56310609997496,277.9801296183382L275.1345514417776,296.96642976591517L277.7059967835802,319.2540102152698L280.27744212538283,320.1970279601225L282.8488874671854,300.14892811069114L285.42033280898806,294.9403789367883L287.99177815079065,327.92375812016337L290.56322349259324,200.55876357582045L293.1346688343959,328.1637004714683L295.70611417619847,290.2454742843699L298.27755951800106,307.4503808563051L300.8490048598037,327.190517379408L303.42045020160634,281.7912209603026L305.99189554340893,332.90986161363605L308.5633408852116,316.3629520529802L311.13478622701416,310.56417034468114L313.70623156881675,308.759999734175L316.2776769106194,327.4303687904632L318.8491222524219,328.7158663500331L321.42056759422456,327.42372199092586L323.99201293602715,336.79591337122145L326.5634582778298,334.71055784024094L329.1349036196324,320.01034161816114L331.70634896143497,312.2882529085603L334.2777943032376,318.9957469013389L336.8492396450402,323.7753099308854L339.4206849868429,325.65555206032053L341.9921303286455,330.84177890060784L344.56357567044813,318.8836525503969L347.1350210122507,319.88345665172517L349.70646635405336,317.16690116972967L352.27791169585595,329.3371573115255L354.8493570376586,320.1719937416229L357.4208023794612,315.93100685280444L359.9922477212638,309.3480030665513L362.5636930630664,280.6478548498121L365.135138404869,317.2640416790884L367.7065837466716,328.1856345601714L370.27802908847417,318.3078515340982L372.8494744302768,328.9679189112652L375.4209197720794,293.7110159952373L377.99236511388204,319.68749906789026L380.56381045568463,313.25337612950995L383.1352557974872,319.9182424631612L385.70670113928986,332.2089349749641L388.27814648109245,331.8019039055223L390.8495918228951,335.91213970138915L393.4210371646977,324.38549568880063L395.9924825065003,329.3562699206846L398.5639278483029,303.4028308741422L401.13537319010555,310.59582921060604L403.70681853190814,323.46671935001365L406.2782638737107,331.301996025355L408.84970921551337,306.5404373807517L411.42115455731596,326.8966416304888L413.9925998991186,318.4942324100924L416.5640452409212,323.56233486133783L419.13549058272383,332.4778091506016L421.7069359245264,328.73262966940655L424.27838126632906,327.90861773447796L426.84982660813165,294.9897898058276L429.42127194993424,322.0286671896605L431.9927172917369,340.42520844997546L434.56416263353947,339.3506797364302L437.1356079753421,320.30857433776464L439.7070533171447,310.441743782285L442.27849865894734,312.8656442133293L444.84994400074993,318.08587571162514L447.4213893425526,299.50560745664325L449.99283468435516,323.78106481643465L452.56428002615775,320.6497938138921L455.13572536796033,309.3803171686347L457.7071707097629,317.24926272260086L460.27861605156556,267.6998986782312L462.85006139336815,325.4136288438316L465.4215067351708,331.28021816733735L467.9929520769734,337.8517156801939L470.56439741877597,329.6862652713698L473.1358427605786,335.21703382165254L475.7072881023812,336.65371663170635L478.27873344418384,323.2850743624111L480.85017878598643,327.1906409648756L483.4216241277891,283.1635279836777L485.99306946959166,325.1766816912657L488.5645148113943,322.6302206192519L491.1359601531969,334.586710044967L493.7074054949995,320.64683475807277L496.2788508368021,332.02980250323645L498.8502961786047,335.1721577231447L501.42174152040735,311.2055929124903L503.99318686220994,306.26428915103367L506.5646322040126,328.2098899570449L509.13607754581517,335.9972551115673L511.7075228876178,325.8156955083567L514.2789682294205,331.3590715251887L516.850413571223,305.7860180549067L519.4218589130256,335.16994484373373L521.9933042548282,310.56530360010134L524.5647495966308,325.3536735694219L527.1361949384335,317.2901858349954L529.7076402802361,327.268937022222L532.2790856220387,324.7207714034754L534.8505309638413,330.54941998841866L537.421976305644,321.2533432653757L539.9934216474466,321.1093335503685L542.5648669892491,309.9683088420046L545.1363123310517,287.2087601553722L547.7077576728543,312.676635397297L550.2792030146569,321.18906716320157L552.8506483564595,341.18745883893087L555.4220936982622,304.05999310056467L557.9935390400648,328.75366135101586L560.5649843818674,323.895789439216L563.13642972367,327.98590412187184L565.7078750654725,336.4073297646247L568.2793204072752,251.58281937399366L570.8507657490778,311.5915526597012L573.4222110908804,316.923540397754L575.993656432683,330.1509827725797L578.5651017744857,320.09835778912674L581.1365471162883,321.10348072916565L583.7079924580909,333.99428211966944L586.2794377998935,338.0604445396177L588.850883141696,319.7114676532067L591.4223284834987,333.27820227040513L593.9937738253013,319.2572164420243L596.5652191671039,325.070055414316L599.1366645089065,307.93961375023065L601.7081098507092,326.983328674727L604.2795551925118,331.91848930572195L606.8510005343143,324.2006841150652L609.422445876117,322.7190972248883L611.9938912179196,335.3568218104495L614.5653365597221,321.90163765154546L617.1367819015247,319.2212903797643L619.7082272433274,332.97212420540836L622.27967258513,334.86980296183543L624.8511179269326,330.5351645213176L627.4225632687352,322.56604711633383L629.9940086105378,335.24528884066467L632.5654539523405,324.28338844272395L635.1368992941431,332.31783359225733L637.7083446359457,286.710897264924L640.2797899777482,335.6441836725041L642.8512353195509,328.15369121449095L645.4226806613535,328.8765262920519L647.9941260031561,329.7390665794646L650.5655713449587,292.3969620313403L653.1370166867613,336.9822207954754L655.708462028564,328.66004769108713L658.2799073703666,332.95110068510354L660.8513527121692,337.790398633839L663.4227980539717,218.33675228376646L665.9942433957744,295.88337336362827L668.565688737577,331.8539217283883L671.1371340793796,311.2508112028354L673.7085794211822,330.4230340274558L676.2800247629848,314.5905265850461L678.8514701047875,326.32541910599554L681.4229154465901,321.9062243046554L683.9943607883927,313.9085096888223L686.5658061301953,328.3727126447472L689.137251471998,328.8094741804586L691.7086968138005,323.4430912076835L694.2801421556031,325.11321822183623L696.8515874974057,316.7779333988727L699.4230328392083,332.1030700311311L701.994478181011,338.8740274933392L704.5659235228136,324.0222966538452L707.1373688646162,331.4634779273236L709.7088142064188,260.2893549417188L712.2802595482215,322.2723147731931L714.851704890024,338.70861942097207L717.4231502318266,321.5461498834099L719.9945955736292,293.32569982517856L722.5660409154318,325.9298290195146L725.1374862572345,332.1219133172428L727.7089315990371,327.5660038411875L730.2803769408397,320.0514396156514L732.8518222826423,322.1731176151089L735.423267624445,313.8601527939596L737.9947129662476,269.5300548821576L740.5661583080501,332.8587858384856L743.1376036498527,321.75832048151716L745.7090489916554,339.5685953099313L748.280494333458,325.902801110924L750.8519396752606,338.20937843596965L753.4233850170632,312.1688133835987L755.9948303588658,319.46343395147386L758.5662757006685,327.09549181380663L761.1377210424711,320.98879574700595L763.7091663842737,313.7502899768388L766.2806117260761,309.2027108608422L768.8520570678787,293.8716677759516L771.4235024096814,301.85218302557263L773.994947751484,318.52543191116587L776.5663930932866,333.6002939806651L779.1378384350892,336.57530806494833L781.7092837768918,292.2243807552977L784.2807291186945,329.38538012781476L786.852174460497,330.8974786376887L789.4236198022996,301.9004000123587L791.9950651441022,306.56197856093985L794.5665104859049,312.1289069365605L797.1379558277075,335.2437311974123L799.7094011695101,338.94879087175235L802.2808465113127,332.31553560209977L804.8522918531153,307.363390677901L807.423737194918,324.6350147479463L809.9951825367206,338.0347661610156L812.5666278785231,322.49358639168076L815.1380732203257,339.05163496703227L817.7095185621284,331.1666361271812L820.280963903931,292.0759056408469L822.8524092457336,324.66696275722944L825.4238545875362,328.10197652579075L827.9952999293388,329.15290537009633L830.5667452711415,312.68524907121065L833.1381906129441,292.5289559743721L835.7096359547467,337.7763506970515L838.2810812965492,339.5549676803238L840.852526638352,340.4361559654913L843.4239719801545,322.40354155360507L845.9954173219571,341.2172126232132L848.5668626637597,307.821347121311L851.1383080055624,335.22892076160747L853.709753347365,310.975961786428L856.2811986891676,339.12103986611316L858.8526440309702,320.897498731645L861.4240893727728,326.44713913260506L863.9955347145755,341.04483159060516L866.566980056378,322.31608035134315L869.1384253981806,333.80046163170397L871.7098707399832,338.50435071443894L874.2813160817859,320.1094898084186L876.8527614235885,338.1542995409785L879.4242067653911,337.1113757704536L881.9956521071937,333.8687029619481L884.5670974489963,299.8238796764131L887.138542790799,338.76157987450387L889.7099881326016,338.10375250176736L892.2814334744041,320.41531720477815L894.8528788162067,327.55976860457537L897.4243241580094,334.90711003340124L899.995769499812,338.7681170793812L902.5672148416146,325.77883206198374L905.1386601834172,322.35400709909806L907.7101055252198,333.4206904850797L910.2815508670225,317.5591287987706L912.8529962088251,329.0189014143646L915.4244415506276,331.49038691404917L917.9958868924302,334.63108772095205L920.5673322342329,326.20658351756447L923.1387775760355,334.8045702381878L925.7102229178381,332.8738620996358L928.2816682596407,276.9626994311643L930.8531136014433,326.6462819569831L933.424558943246,321.5434753073463L935.9960042850486,332.0269192309587L938.5674496268512,337.4299493755384L941.1388949686536,325.1292878303301L943.7103403104562,326.6244527993374L946.2817856522589,336.34646042411487L948.8532309940615,337.7991376420713L951.4246763358641,323.5418150101086L953.9961216776667,310.6255736676832L956.5675670194694,339.5241354379513L959.139012361272,338.16938979293644L961.7104577030746,328.7388019473842L964.2819030448771,314.28191734976417L966.8533483866797,319.52132558175424L969.4247937284824,330.59886816627846L971.996239070285,294.68497207942056L974.5676844120876,310.81012174787446L977.1391297538902,325.12257457445634L979.7105750956929,336.3694531505973L982.2820204374955,323.96956763159005L984.8534657792981,322.91570304947794L987.4249111211006,285.6483607138663L989.9963564629032,320.13905238499626L992.5678018047059,340.0467903310416L995.1392471465085,324.3854024167496L997.7106924883111,317.05533613767733L1000.2821378301137,318.7183278399254L1002.8535831719164,312.7919173205833L1005.425028513719,336.42713725056404L1007.9964738555216,328.90803242499317L1010.5679191973242,277.98467196722396L1013.1393645391267,320.079160069221L1015.7108098809294,332.52200028248456L1018.282255222732,334.9605677435552L1020.8537005645346,335.2483743967032L1023.4251459063372,338.0537248712905L1025.9965912481398,334.40980094575605L1028.5680365899425,319.93768968580343L1031.1394819317452,333.93790149661595L1033.7109272735477,333.7318472132558L1036.2823726153504,335.54170683592514L1038.8538179571528,330.4177455021617L1041.4252632989555,331.6819875271998L1043.9967086407582,329.4961511815326L1046.5681539825607,328.25135288143485L1049.1395993243634,330.6654947241389L1051.711044666166,330.69826469337175L1054.2824900079686,311.02938335366224L1056.8539353497713,308.85350496534437L1059.4253806915738,316.10082261253365L1061.9968260333765,313.74475894421204L1064.568271375179,334.486024031768L1067.1397167169816,332.59695953220495L1069.7111620587843,338.1290449672583L1072.2826074005868,321.98835267739895L1074.8540527423895,305.9860562909748L1077.4254980841922,327.97355023871137L1079.9969434259947,315.23941558054116L1082.5683887677974,341.9870591463005L1085.1398341095999,335.10079294509137L1087.7112794514026,315.96120367932923L1090.2827247932053,323.0435673724499L1092.8541701350077,341.9358778571423L1095.4256154768104,325.8488723769123L1097.997060818613,329.3627045263059L1100.5685061604156,338.5138866157573L1103.1399515022183,329.19562280357286L1105.7113968440208,330.75685702993553L1108.2828421858235,338.3211241826209L1110.854287527626,335.1010960792573L1113.4257328694287,331.3622439408248L1115.9971782112314,331.6165851650093L1118.5686235530338,322.20233508509773" style="fill: none;" fill="none"></path></g></g></g></g></g></g><g transform="translate(72, 378)" clip-path="url(#clip_1)"><clipPath id="clip_1"><rect width="1208" height="22"></rect></clipPath><g><g><line x1="89.99048683198964" y1="0" x2="89.99048683198964" y2="5" style="visibility: inherit;" fill="rgb(0, 0, 0)" stroke="rgb(204, 204, 204)" stroke-width="1px"></line><line x1="192.84830050409406" y1="0" x2="192.84830050409406" y2="5" style="visibility: inherit;" fill="rgb(0, 0, 0)" stroke="rgb(204, 204, 204)" stroke-width="1px"></line><line x1="295.70611417619847" y1="0" x2="295.70611417619847" y2="5" style="visibility: inherit;" fill="rgb(0, 0, 0)" stroke="rgb(204, 204, 204)" stroke-width="1px"></line><line x1="398.5639278483029" y1="0" x2="398.5639278483029" y2="5" style="visibility: inherit;" fill="rgb(0, 0, 0)" stroke="rgb(204, 204, 204)" stroke-width="1px"></line><line x1="501.42174152040735" y1="0" x2="501.42174152040735" y2="5" style="visibility: inherit;" fill="rgb(0, 0, 0)" stroke="rgb(204, 204, 204)" stroke-width="1px"></line><line x1="604.2795551925118" y1="0" x2="604.2795551925118" y2="5" style="visibility: inherit;" fill="rgb(0, 0, 0)" stroke="rgb(204, 204, 204)" stroke-width="1px"></line><line x1="707.1373688646162" y1="0" x2="707.1373688646162" y2="5" style="visibility: inherit;" fill="rgb(0, 0, 0)" stroke="rgb(204, 204, 204)" stroke-width="1px"></line><line x1="809.9951825367206" y1="0" x2="809.9951825367206" y2="5" style="visibility: inherit;" fill="rgb(0, 0, 0)" stroke="rgb(204, 204, 204)" stroke-width="1px"></line><line x1="912.8529962088251" y1="0" x2="912.8529962088251" y2="5" style="visibility: inherit;" fill="rgb(0, 0, 0)" stroke="rgb(204, 204, 204)" stroke-width="1px"></line><line x1="1015.7108098809294" y1="0" x2="1015.7108098809294" y2="5" style="visibility: inherit;" fill="rgb(0, 0, 0)" stroke="rgb(204, 204, 204)" stroke-width="1px"></line><line x1="1118.5686235530338" y1="0" x2="1118.5686235530338" y2="5" style="visibility: inherit;" fill="rgb(0, 0, 0)" stroke="rgb(204, 204, 204)" stroke-width="1px"></line></g><g transform="translate(0, 8)"><text x="89.99048683198964" y="0" dx="0em" dy="0.95em" style="text-anchor: middle; visibility: inherit; font-family: Roboto, sans-serif; font-size: 12px; font-weight: 200;" fill="rgb(50, 49, 63)" stroke="none" stroke-width="1px">0</text><text x="192.84830050409406" y="0" dx="0em" dy="0.95em" style="text-anchor: middle; visibility: inherit; font-family: Roboto, sans-serif; font-size: 12px; font-weight: 200;" fill="rgb(50, 49, 63)" stroke="none" stroke-width="1px">20k</text><text x="295.70611417619847" y="0" dx="0em" dy="0.95em" style="text-anchor: middle; visibility: inherit; font-family: Roboto, sans-serif; font-size: 12px; font-weight: 200;" fill="rgb(50, 49, 63)" stroke="none" stroke-width="1px">40k</text><text x="398.5639278483029" y="0" dx="0em" dy="0.95em" style="text-anchor: middle; visibility: inherit; font-family: Roboto, sans-serif; font-size: 12px; font-weight: 200;" fill="rgb(50, 49, 63)" stroke="none" stroke-width="1px">60k</text><text x="501.42174152040735" y="0" dx="0em" dy="0.95em" style="text-anchor: middle; visibility: inherit; font-family: Roboto, sans-serif; font-size: 12px; font-weight: 200;" fill="rgb(50, 49, 63)" stroke="none" stroke-width="1px">80k</text><text x="604.2795551925118" y="0" dx="0em" dy="0.95em" style="text-anchor: middle; visibility: inherit; font-family: Roboto, sans-serif; font-size: 12px; font-weight: 200;" fill="rgb(50, 49, 63)" stroke="none" stroke-width="1px">100k</text><text x="707.1373688646162" y="0" dx="0em" dy="0.95em" style="text-anchor: middle; visibility: inherit; font-family: Roboto, sans-serif; font-size: 12px; font-weight: 200;" fill="rgb(50, 49, 63)" stroke="none" stroke-width="1px">120k</text><text x="809.9951825367206" y="0" dx="0em" dy="0.95em" style="text-anchor: middle; visibility: inherit; font-family: Roboto, sans-serif; font-size: 12px; font-weight: 200;" fill="rgb(50, 49, 63)" stroke="none" stroke-width="1px">140k</text><text x="912.8529962088251" y="0" dx="0em" dy="0.95em" style="text-anchor: middle; visibility: inherit; font-family: Roboto, sans-serif; font-size: 12px; font-weight: 200;" fill="rgb(50, 49, 63)" stroke="none" stroke-width="1px">160k</text><text x="1015.7108098809294" y="0" dx="0em" dy="0.95em" style="text-anchor: middle; visibility: inherit; font-family: Roboto, sans-serif; font-size: 12px; font-weight: 200;" fill="rgb(50, 49, 63)" stroke="none" stroke-width="1px">180k</text><text x="1118.5686235530338" y="0" dx="0em" dy="0.95em" style="text-anchor: middle; visibility: inherit; font-family: Roboto, sans-serif; font-size: 12px; font-weight: 200;" fill="rgb(50, 49, 63)" stroke="none" stroke-width="1px">200k</text></g><line x1="0" y1="0" x2="1208.87625" y2="0" fill="rgb(0, 0, 0)" stroke="rgb(204, 204, 204)" stroke-width="1px"></line></g></g></g></g></svg>