<svg viewBox="0 0 1281.2222900390625 400" xmlns="http://www.w3.org/2000/svg"><g><g><g><g><g><line x1="30.78125" y1="348.50758144727695" x2="25.78125" y2="348.50758144727695" style="visibility: inherit;" fill="rgb(0, 0, 0)" stroke="rgb(204, 204, 204)" stroke-width="1px"></line><line x1="30.78125" y1="316.91463419178643" x2="25.78125" y2="316.91463419178643" style="visibility: inherit;" fill="rgb(0, 0, 0)" stroke="rgb(204, 204, 204)" stroke-width="1px"></line><line x1="30.78125" y1="285.32168693629586" x2="25.78125" y2="285.32168693629586" style="visibility: inherit;" fill="rgb(0, 0, 0)" stroke="rgb(204, 204, 204)" stroke-width="1px"></line><line x1="30.78125" y1="253.72873968080538" x2="25.78125" y2="253.72873968080538" style="visibility: inherit;" fill="rgb(0, 0, 0)" stroke="rgb(204, 204, 204)" stroke-width="1px"></line><line x1="30.78125" y1="222.13579242531483" x2="25.78125" y2="222.13579242531483" style="visibility: inherit;" fill="rgb(0, 0, 0)" stroke="rgb(204, 204, 204)" stroke-width="1px"></line><line x1="30.78125" y1="190.54284516982432" x2="25.78125" y2="190.54284516982432" style="visibility: inherit;" fill="rgb(0, 0, 0)" stroke="rgb(204, 204, 204)" stroke-width="1px"></line><line x1="30.78125" y1="158.94989791433377" x2="25.78125" y2="158.94989791433377" style="visibility: inherit;" fill="rgb(0, 0, 0)" stroke="rgb(204, 204, 204)" stroke-width="1px"></line><line x1="30.78125" y1="127.35695065884325" x2="25.78125" y2="127.35695065884325" style="visibility: inherit;" fill="rgb(0, 0, 0)" stroke="rgb(204, 204, 204)" stroke-width="1px"></line><line x1="30.78125" y1="95.76400340335272" x2="25.78125" y2="95.76400340335272" style="visibility: inherit;" fill="rgb(0, 0, 0)" stroke="rgb(204, 204, 204)" stroke-width="1px"></line><line x1="30.78125" y1="64.17105614786219" x2="25.78125" y2="64.17105614786219" style="visibility: inherit;" fill="rgb(0, 0, 0)" stroke="rgb(204, 204, 204)" stroke-width="1px"></line><line x1="30.78125" y1="32.57810889237167" x2="25.78125" y2="32.57810889237167" style="visibility: inherit;" fill="rgb(0, 0, 0)" stroke="rgb(204, 204, 204)" stroke-width="1px"></line><line x1="30.78125" y1="0.9851616368811398" x2="25.78125" y2="0.9851616368811398" style="visibility: inherit;" fill="rgb(0, 0, 0)" stroke="rgb(204, 204, 204)" stroke-width="1px"></line></g><g transform="translate(20.78125, 0)"><text x="0" y="348.50758144727695" dx="0em" dy="0.3em" style="text-anchor: end; visibility: inherit; font-family: Roboto, sans-serif; font-size: 12px; font-weight: 200;" fill="rgb(50, 49, 63)" stroke="none" stroke-width="1px">22</text><text x="0" y="316.91463419178643" dx="0em" dy="0.3em" style="text-anchor: end; visibility: inherit; font-family: Roboto, sans-serif; font-size: 12px; font-weight: 200;" fill="rgb(50, 49, 63)" stroke="none" stroke-width="1px">24</text><text x="0" y="285.32168693629586" dx="0em" dy="0.3em" style="text-anchor: end; visibility: inherit; font-family: Roboto, sans-serif; font-size: 12px; font-weight: 200;" fill="rgb(50, 49, 63)" stroke="none" stroke-width="1px">26</text><text x="0" y="253.72873968080538" dx="0em" dy="0.3em" style="text-anchor: end; visibility: inherit; font-family: Roboto, sans-serif; font-size: 12px; font-weight: 200;" fill="rgb(50, 49, 63)" stroke="none" stroke-width="1px">28</text><text x="0" y="222.13579242531483" dx="0em" dy="0.3em" style="text-anchor: end; visibility: inherit; font-family: Roboto, sans-serif; font-size: 12px; font-weight: 200;" fill="rgb(50, 49, 63)" stroke="none" stroke-width="1px">30</text><text x="0" y="190.54284516982432" dx="0em" dy="0.3em" style="text-anchor: end; visibility: inherit; font-family: Roboto, sans-serif; font-size: 12px; font-weight: 200;" fill="rgb(50, 49, 63)" stroke="none" stroke-width="1px">32</text><text x="0" y="158.94989791433377" dx="0em" dy="0.3em" style="text-anchor: end; visibility: inherit; font-family: Roboto, sans-serif; font-size: 12px; font-weight: 200;" fill="rgb(50, 49, 63)" stroke="none" stroke-width="1px">34</text><text x="0" y="127.35695065884325" dx="0em" dy="0.3em" style="text-anchor: end; visibility: inherit; font-family: Roboto, sans-serif; font-size: 12px; font-weight: 200;" fill="rgb(50, 49, 63)" stroke="none" stroke-width="1px">36</text><text x="0" y="95.76400340335272" dx="0em" dy="0.3em" style="text-anchor: end; visibility: inherit; font-family: Roboto, sans-serif; font-size: 12px; font-weight: 200;" fill="rgb(50, 49, 63)" stroke="none" stroke-width="1px">38</text><text x="0" y="64.17105614786219" dx="0em" dy="0.3em" style="text-anchor: end; visibility: inherit; font-family: Roboto, sans-serif; font-size: 12px; font-weight: 200;" fill="rgb(50, 49, 63)" stroke="none" stroke-width="1px">40</text><text x="0" y="32.57810889237167" dx="0em" dy="0.3em" style="text-anchor: end; visibility: inherit; font-family: Roboto, sans-serif; font-size: 12px; font-weight: 200;" fill="rgb(50, 49, 63)" stroke="none" stroke-width="1px">42</text><text x="0" y="0.9851616368811398" dx="0em" dy="0.3em" style="text-anchor: end; visibility: hidden; font-family: Roboto, sans-serif; font-size: 12px; font-weight: 200;" fill="rgb(50, 49, 63)" stroke="none" stroke-width="1px">44</text></g><line x1="30.78125" y1="0" x2="30.78125" y2="378" fill="rgb(0, 0, 0)" stroke="rgb(204, 204, 204)" stroke-width="1px"></line></g></g><g transform="translate(30, 0)" clip-path="url(#clip_0)"><clipPath id="clip_0"><rect width="1250" height="378"></rect></clipPath><g><g><g><line x1="67.15674971237415" y1="0" x2="67.15674971237415" y2="378" fill="rgb(0, 0, 0)" stroke="rgb(60, 60, 60)" stroke-width="1px" opacity="0.25"></line><line x1="178.16378680813276" y1="0" x2="178.16378680813276" y2="378" fill="rgb(0, 0, 0)" stroke="rgb(60, 60, 60)" stroke-width="1px" opacity="0.25"></line><line x1="289.17082390389135" y1="0" x2="289.17082390389135" y2="378" fill="rgb(0, 0, 0)" stroke="rgb(60, 60, 60)" stroke-width="1px" opacity="0.25"></line><line x1="400.17786099964997" y1="0" x2="400.17786099964997" y2="378" fill="rgb(0, 0, 0)" stroke="rgb(60, 60, 60)" stroke-width="1px" opacity="0.25"></line><line x1="511.1848980954085" y1="0" x2="511.1848980954085" y2="378" fill="rgb(0, 0, 0)" stroke="rgb(60, 60, 60)" stroke-width="1px" opacity="0.25"></line><line x1="622.1919351911672" y1="0" x2="622.1919351911672" y2="378" fill="rgb(0, 0, 0)" stroke="rgb(60, 60, 60)" stroke-width="1px" opacity="0.25"></line><line x1="733.1989722869258" y1="0" x2="733.1989722869258" y2="378" fill="rgb(0, 0, 0)" stroke="rgb(60, 60, 60)" stroke-width="1px" opacity="0.25"></line><line x1="844.2060093826843" y1="0" x2="844.2060093826843" y2="378" fill="rgb(0, 0, 0)" stroke="rgb(60, 60, 60)" stroke-width="1px" opacity="0.25"></line><line x1="955.213046478443" y1="0" x2="955.213046478443" y2="378" fill="rgb(0, 0, 0)" stroke="rgb(60, 60, 60)" stroke-width="1px" opacity="0.25"></line><line x1="1066.2200835742017" y1="0" x2="1066.2200835742017" y2="378" fill="rgb(0, 0, 0)" stroke="rgb(60, 60, 60)" stroke-width="1px" opacity="0.25"></line><line x1="1177.2271206699602" y1="0" x2="1177.2271206699602" y2="378" fill="rgb(0, 0, 0)" stroke="rgb(60, 60, 60)" stroke-width="1px" opacity="0.25"></line></g><g><line x1="0" y1="348.50758144727695" x2="1250.43875" y2="348.50758144727695" fill="rgb(0, 0, 0)" stroke="rgb(60, 60, 60)" stroke-width="1px" opacity="0.25"></line><line x1="0" y1="316.91463419178643" x2="1250.43875" y2="316.91463419178643" fill="rgb(0, 0, 0)" stroke="rgb(60, 60, 60)" stroke-width="1px" opacity="0.25"></line><line x1="0" y1="285.32168693629586" x2="1250.43875" y2="285.32168693629586" fill="rgb(0, 0, 0)" stroke="rgb(60, 60, 60)" stroke-width="1px" opacity="0.25"></line><line x1="0" y1="253.72873968080538" x2="1250.43875" y2="253.72873968080538" fill="rgb(0, 0, 0)" stroke="rgb(60, 60, 60)" stroke-width="1px" opacity="0.25"></line><line x1="0" y1="222.13579242531483" x2="1250.43875" y2="222.13579242531483" fill="rgb(0, 0, 0)" stroke="rgb(60, 60, 60)" stroke-width="1px" opacity="0.25"></line><line x1="0" y1="190.54284516982432" x2="1250.43875" y2="190.54284516982432" fill="rgb(0, 0, 0)" stroke="rgb(60, 60, 60)" stroke-width="1px" opacity="0.25"></line><line x1="0" y1="158.94989791433377" x2="1250.43875" y2="158.94989791433377" fill="rgb(0, 0, 0)" stroke="rgb(60, 60, 60)" stroke-width="1px" opacity="0.25"></line><line x1="0" y1="127.35695065884325" x2="1250.43875" y2="127.35695065884325" fill="rgb(0, 0, 0)" stroke="rgb(60, 60, 60)" stroke-width="1px" opacity="0.25"></line><line x1="0" y1="95.76400340335272" x2="1250.43875" y2="95.76400340335272" fill="rgb(0, 0, 0)" stroke="rgb(60, 60, 60)" stroke-width="1px" opacity="0.25"></line><line x1="0" y1="64.17105614786219" x2="1250.43875" y2="64.17105614786219" fill="rgb(0, 0, 0)" stroke="rgb(60, 60, 60)" stroke-width="1px" opacity="0.25"></line><line x1="0" y1="32.57810889237167" x2="1250.43875" y2="32.57810889237167" fill="rgb(0, 0, 0)" stroke="rgb(60, 60, 60)" stroke-width="1px" opacity="0.25"></line><line x1="0" y1="0.9851616368811398" x2="1250.43875" y2="0.9851616368811398" fill="rgb(0, 0, 0)" stroke="rgb(60, 60, 60)" stroke-width="1px" opacity="0.25"></line></g></g></g><g><g><line x1="0" y1="696.0300012576728" x2="1250.43875" y2="696.0300012576728" fill="rgb(0, 0, 0)" stroke="rgb(153, 153, 153)" stroke-width="1.5px"></line></g></g><g><g><line x1="67.15674971237415" y1="0" x2="67.15674971237415" y2="378" fill="rgb(0, 0, 0)" stroke="rgb(153, 153, 153)" stroke-width="1.5px"></line></g></g><g><g><g><g><g><path stroke="rgb(255, 112, 67)" stroke-width="2px" d="M69.93192563976811,425.8080012949227L72.70710156716207,365.30506844859474L75.48227749455604,336.74978254787527L78.25745342195,289.9413983208231L81.03262934934396,277.8061212093756L83.80780527673794,293.5666238692449L86.5829812041319,278.54822677785864L89.35815713152587,285.1467074277432L92.13333305891982,303.572017497061L94.90850898631379,307.61620553720275L97.68368491370775,282.526745599142L100.45886084110172,269.3612404114402L103.2340367684957,249.55459906446885L106.00921269588966,251.0865250617054L108.78438862328363,246.43232686160027L111.55956455067758,256.81696321018865L114.33474047807155,278.47328552303287L117.10991640546551,259.1607987003162L119.88509233285949,247.0065340580057L122.66026826025345,240.62082447751243L125.4354441876474,231.68731161604924L128.21062011504137,245.6629268385169L130.98579604243534,243.6470552871717L133.7609719698293,227.82489109358733L136.53614789722326,216.29835460604838L139.31132382461723,232.34716841162222L142.0864997520112,242.26144621124268L144.86167567940518,257.2707371329919L147.63685160679913,240.929658324592L150.4120275341931,242.9117016114996L153.18720346158705,245.53131393170167L155.96237938898102,228.6558356719665L158.737555316375,242.09172692583928L161.51273124376894,233.85772443422022L164.28790717116294,220.67670788138912L167.0630830985569,203.67762945415453L169.83825902595083,204.19630052600792L172.61343495334484,240.173376567839L175.38861088073878,194.4265747292258L178.16378680813276,196.99967542841958L180.9389627355267,214.0630481472651L183.71413866292067,219.14871840203276L186.48931459031465,217.3903985197163L189.2644905177086,235.7402594160404L192.03966644510257,227.31203618624966L194.81484237249654,243.4423008686614L197.5900182998905,216.35187506490823L200.36519422728446,207.7173885933385L203.14037015467844,187.30882478682398L205.9155460820724,216.9953505451357L208.69072200946636,195.44749424472903L211.4658979368603,159.3065257969953L214.2410738642543,155.1118824738015L217.01624979164825,160.80164123775458L219.79142571904222,197.78591947930963L222.56660164643617,200.48106467730153L225.34177757383017,178.49746913099779L228.11695350122412,180.9993931469037L230.89212942861806,182.62991107262167L233.66730535601206,180.98077096022445L236.442481283406,200.12439099184985L239.21765721079998,193.46797463613643L241.99283313819393,192.57212433274938L244.76800906558793,192.28940025985122L247.54318499298188,178.74573068674775L250.31836092037582,208.04231886030547L253.0935368477698,212.57899758580174L255.86871277516377,184.9578725536244L258.6438887025577,152.15493311085964L261.41906462995166,180.0962738181537L264.19424055734567,180.15423930038324L266.9694164847396,185.39929268419945L269.7445924121336,176.83032154909162L272.51976833952756,188.72617661732158L275.29494426692156,194.91643392807524L278.0701201943155,183.9848883690476L280.84529612170945,168.66168525270987L283.6204720491034,201.57333421989952L286.3956479764974,190.89470913554263L289.17082390389135,187.7465932214048L291.9459998312853,196.6847654371586L294.72117575867924,191.63327902341166L297.49635168607324,197.9214051444124L300.2715276134672,178.7492858229618L303.0467035408612,182.2217875853893L305.82187946825513,186.77779012298453L308.59705539564914,189.91986170830495L311.3722313230431,188.852834946138L314.147407250437,174.7406150597358L316.92258317783103,174.079854308823L319.697759105225,177.28759509575812L322.4729350326189,166.13158026063735L325.24811096001287,174.41950545277325L328.0232868874068,184.88534109727817L330.79846281480087,170.42373950030012L333.5736387421948,181.79003682292804L336.34881466958876,181.97070939567863L339.1239905969827,182.55631414917116L341.89916652437665,184.2405285671135L344.67434245177066,159.15125075037645L347.4495183791646,168.47910338509186L350.22469430655855,149.13895445116447L352.99987023395255,164.51710090937218L355.77504616134655,163.12916633777178L358.5502220887405,175.9424367365239L361.32539801613444,200.65760966661472L364.1005739435284,189.52057294914474L366.87574987092233,171.52163438027998L369.6509257983163,175.0433692704626L372.42610172571034,157.21420587225035L375.2012776531043,178.6879222989015L377.97645358049823,163.10128381183847L380.7516295078922,174.6874016570164L383.5268054352862,165.76331025371425L386.3019813626801,156.25312175220716L389.07715729007407,162.63720669407158L391.852333217468,167.48309015581756L394.6275091448621,168.76999691005764L397.402685072256,156.37948152824228L400.17786099964997,168.85249885843527L402.9530369270439,192.77790116800256L405.72821285443786,186.9127235045506L408.5033887818318,168.3435806494983L411.2785647092258,181.14314320840037L414.0537406366198,167.8470939748485L416.82891656401375,150.30955602748668L419.6040924914077,143.2291585228693L422.3792684188017,146.15202637143466L425.15444434619565,150.46431012853452L427.9296202735896,151.92146699106323L430.70479620098354,171.98000659431713L433.47997212837754,161.92790682674251L436.25514805577154,128.2602178939554L439.0303239831655,114.5655023297434L441.80549991055943,122.38680836913203L444.5806758379534,157.5054715960008L447.3558517653473,156.97513164651468L450.13102769274127,151.1457815699262L452.9062036201353,170.20261741189893L455.6813795475293,167.43018484913176L458.4565554749232,163.1542427208086L461.23173140231717,167.7655927400728L464.00690732971117,171.86843598025723L466.7820832571051,181.64733962497385L469.55725918449906,176.8789375221562L472.332435111893,164.13509728817564L475.10761103928706,141.0399161786506L477.882786966681,118.26525753798543L480.65796289407496,125.05016600266872L483.4331388214689,131.0928019677446L486.20831474886285,153.63358569965177L488.9834906762568,146.5708417885445L491.7586666036508,155.63958408193145L494.5338425310448,172.57458624719447L497.30901845843874,162.23109662835532L500.0841943858327,144.71076897977687L502.8593703132267,150.49495273077665L505.63454624062064,147.54951946994137L508.4097221680146,128.16761022851705L511.1848980954085,151.71198774085215L513.9600740228025,160.87097809593422L516.7352499501965,164.95089392490547L519.5104258775905,154.12856183407771L522.2856018049844,146.99646788019746L525.0607777323784,147.95861528022002L527.8359536597724,172.61870471037489L530.6111295871663,161.05545355642755L533.3863055145603,173.4651701198094L536.1614814419543,180.16967263032546L538.9366573693483,195.4138095161884L541.7118332967422,175.39570030129534L544.4870092241362,170.7016227133651L547.26218515153,167.80732183654453L550.037361078924,169.56972674467406L552.812537006318,164.24709219489836L555.5877129337119,168.1862209314673L558.362888861106,173.7130422879491L561.1380647885,183.28470593675627L563.913240715894,162.037261063717L566.6884166432878,124.23548958812559L569.4635925706818,167.5406303741538L572.2387684980757,152.37417341511093L575.0139444254697,156.73887918896946L577.7891203528637,144.4545531612686L580.5642962802577,116.01064799087654L583.3394722076516,154.57529292381378L586.1146481350456,170.08136729071668L588.8898240624395,157.32825521279133L591.6649999898335,142.65238531121852L594.4401759172275,148.76276361691296L597.2153518446215,151.3150711785879L599.9905277720154,129.39114129459077L602.7657036994094,116.297958062171L605.5408796268034,144.94386718314047L608.3160555541973,142.2580238327495L611.0912314815913,162.65127120659915L613.8664074089852,165.11089789593976L616.6415833363792,175.4688519895834L619.4167592637732,175.5270467095899L622.1919351911672,166.05170835652058L624.9671111185611,168.16772554729735L627.7422870459551,166.83010783538705L630.5174629733491,143.80817825936086L633.292638900743,156.86688637878524L636.067814828137,175.45569758044107L638.8429907555309,157.81035648512935L641.6181666829249,143.99243841440637L644.3933426103188,146.22185555082154L647.1685185377129,147.1168931537976L649.9436944651069,133.77386363507114L652.7188703925008,138.10366586369523L655.4940463198948,132.40128801206234L658.2692222472887,159.66714342582233L661.0443981746827,136.49162832748L663.8195741020766,146.541564505384L666.5947500294706,147.70794489478507L669.3699259568647,143.87660326097497L672.1451018842586,174.84762644176138L674.9202778116526,151.76159376472134L677.6954537390465,147.7912546099155L680.4706296664405,131.74602700365898L683.2458055938343,107.9414252000718L686.0209815212284,158.7607270893219L688.7961574486224,179.115663178178L691.5713333760162,160.66293944804002L694.3465093034102,165.01407808220227L697.1216852308041,154.9193212317898L699.8968611581982,175.36594705413367L702.6720370855921,166.47380421726353L705.4472130129861,152.00878537773863L708.22238894038,173.04978250692764L710.997564867774,166.41584829351535L713.772740795168,154.62563850773694L716.5479167225619,156.62785650810036L719.3230926499559,140.56459323960593L722.0982685773498,165.69613536977445L724.8734445047439,142.99500856598075L727.6486204321378,118.9113862278663L730.4237963595318,143.16457380396338L733.1989722869258,159.38114677771142L735.9741482143197,188.00332207369766L738.7493241417137,189.84844858795555L741.5245000691076,142.2557285666809L744.2996759965016,151.8655154881675L747.0748519238955,177.03073281346292L749.8500278512895,173.21699909585095L752.6252037786836,156.41476047605087L755.4003797060775,156.19705398926882L758.1755556334715,141.34550310980055L760.9507315608654,154.70049950440173L763.7259074882594,170.06654900679735L766.5010834156533,194.14337486624908L769.2762593430473,181.42513257626865L772.0514352704413,182.03816470480714L774.8266111978352,155.41314262076946L777.6017871252293,144.52965754300064L780.3769630526232,130.98330106691617L783.1521389800172,154.24543471005177L785.9273149074111,152.10215143773203L788.7024908348051,151.417997809694L791.4776667621991,151.29718156679792L794.252842689593,177.3848534673406L797.028018616987,189.55501823024596L799.8031945443809,196.85850303957844L802.5783704717749,192.7855661249758L805.3535463991687,179.61020004359546L808.1287223265629,166.37665938013504L810.9038982539568,144.14530119436947L813.6790741813508,158.71841842760904L816.4542501087448,147.74735639237826L819.2294260361386,143.847246550053L822.0046019635327,156.72635120255111L824.7797778909265,169.49347142200335L827.5549538183205,164.9423289797263L830.3301297457144,146.85110589435325L833.1053056731085,125.84869964448544L835.8804816005025,91.70961640310273L838.6556575278964,135.09784186741672L841.4308334552904,149.57248321972241L844.2060093826843,141.10338136499985L846.9811853100783,141.00165636444794L849.7563612374722,110.24548149645321L852.5315371648662,132.24228017990765L855.3067130922602,152.3893760379377L858.0818890196541,150.81706799698463L860.8570649470482,157.70775645357506L863.6322408744421,175.5740694090165L866.4074168018361,178.89228515926638L869.18259272923,194.44107512654023L871.957768656624,173.75598865992885L874.732944584018,147.3726405823641L877.5081205114119,102.39655188194702L880.2832964388059,126.79328222910398L883.0584723661998,109.72641239699426L885.8336482935939,144.82012824240743L888.6088242209878,148.9279896266203L891.3840001483818,160.435329524222L894.1591760757758,122.07308424080502L896.9343520031697,128.9111107928028L899.7095279305637,143.18442514273437L902.4847038579576,110.03300636573206L905.2598797853516,128.49799173040546L908.0350557127455,123.05147468196124L910.8102316401395,126.02355237124728L913.5854075675334,144.66780395071325L916.3605834949275,131.2460974795942L919.1357594223215,127.17169469508279L921.9109353497154,140.63449919329264L924.6861112771094,171.78427467288927L927.4612872045033,139.60342561652155L930.2364631318973,117.61660691742043L933.0116390592912,136.4691626540484L935.7868149866852,138.75940463167422L938.5619909140793,134.01415173992328L941.3371668414732,105.27997928747052L944.1123427688672,131.10024448837004L946.887518696261,125.55758735406336L949.662694623655,133.7875271483363L952.437870551049,145.4752439895679L955.213046478443,145.7934868826952L957.988222405837,153.3851730706329L960.7633983332308,141.14546445873103L963.5385742606248,142.54063049482002L966.3137501880187,142.34074908557L969.0889261154128,125.37543434595L971.8641020428067,171.90714291226473L974.6392779702007,175.94087118927087L977.4144538975947,176.7550433502318L980.1896298249886,181.52206356539745L982.9648057523826,160.14427222985435L985.7399816797765,173.31606070546718L988.5151576071705,157.34445452240178L991.2903335345644,129.9585449395353L994.0655094619585,103.12833698421699L996.8406853893525,119.83113076828663L999.6158613167464,138.5346488294657L1002.3910372441404,104.41165353248518L1005.1662131715343,99.94468127804623L1007.9413890989283,123.9987086682183L1010.7165650263222,159.3321186924017L1013.4917409537162,165.2498911705677L1016.2669168811102,174.83824185078674L1019.0420928085041,186.06055467956958L1021.8172687358982,188.63854616639605L1024.592444663292,163.55482359804574L1027.367620590686,150.20171790757502L1030.1427965180799,158.36904358774513L1032.917972445474,151.31631759114157L1035.6931483728679,187.52012090624214L1038.4683243002619,163.89196988681007L1041.2435002276559,124.66326914074894L1044.01867615505,143.3679489594845L1046.793852082444,155.34912545691145L1049.5690280098377,165.49988709212292L1052.3442039372317,176.4539615458501L1055.1193798646257,139.9701087460599L1057.8945557920197,154.0669580685937L1060.6697317194137,184.41666713774254L1063.4449076468077,177.61864723959465L1066.2200835742017,167.78391809137733L1068.9952595015955,154.0285434447742L1071.7704354289895,136.4288467943412L1074.5456113563835,117.01544953379454L1077.3207872837775,120.49414479022677L1080.0959632111715,137.86534682934916L1082.8711391385652,117.21452724600815L1085.6463150659595,133.32939595600263L1088.4214909933532,170.58283935428236L1091.1966669207472,184.52249259148218L1093.9718428481413,165.72128388173834L1096.7470187755353,153.90570185993306L1099.5221947029293,141.83083169315182L1102.297370630323,129.51903930696673L1105.072546557717,123.47467377501629L1107.847722485111,138.0543242931267L1110.622898412505,146.58139880045104L1113.3980743398988,166.98036295604888L1116.173250267293,164.806917526197L1118.948426194687,118.2343932833653L1121.7236021220808,135.94352150315433L1124.4987780494748,132.52152340252238L1127.2739539768688,141.38448901945148L1130.0491299042628,163.86161449980162L1132.8243058316566,168.1756019109393L1135.5994817590506,176.95167766816795L1138.3746576864446,129.65111996624114L1141.1498336138386,129.5302418378748L1143.9250095412326,150.83060698947884L1146.7001854686266,154.58493084646304L1149.4753613960206,123.65140847557751L1152.2505373234144,135.94238460389394L1155.0257132508084,144.4900397061083L1157.8008891782024,158.87196868310372L1160.5760651055964,139.5626800681101L1163.3512410329904,139.19147995143808L1166.1264169603842,113.62975647421408L1168.9015928877784,123.35723506989177L1171.6767688151722,131.1901433106194L1174.4519447425662,143.94653330971468L1177.2271206699602,152.70298218664564" style="fill: none;" fill="none"></path></g></g></g></g><g opacity="0.2"><g><g><g><path stroke="rgb(255, 112, 67)" stroke-width="2px" d="M67.15674971237415,570.0245403313431L69.93192563976811,339.27807787307046L72.70710156716207,307.22225291611994L75.48227749455604,303.16876632862926L78.25745342195,228.8283718739839L81.03262934934396,261.01866426448356L83.80780527673794,316.1043948409004L86.5829812041319,256.65125964200547L89.35815713152587,294.8781846974415L92.13333305891982,330.93145559066124L94.90850898631379,313.6458071095435L97.68368491370775,245.0290914250832L100.45886084110172,249.6559702885933L103.2340367684957,219.88344031632948L106.00921269588966,253.3826133360568L108.78438862328363,239.45431206260602L111.55956455067758,272.3895233029981L114.33474047807155,310.9522704544097L117.10991640546551,230.1950105292285L119.88509233285949,228.77624804247145L122.66026826025345,231.0426103142622L125.4354441876474,218.28733628490053L128.21062011504137,266.6260737480752L130.98579604243534,240.62327184007427L133.7609719698293,204.09175726038214L136.53614789722326,199.0085990301527L139.31132382461723,256.42034805546706L142.0864997520112,257.1328476899216L144.86167567940518,279.78465968993726L147.63685160679913,216.41804914345812L150.4120275341931,245.88476588459397L153.18720346158705,249.46073189078945L155.96237938898102,203.342620296957L158.737555316375,262.245562844263L161.51273124376894,221.50672105066255L164.28790717116294,200.90518339202882L167.0630830985569,178.17901207630646L169.83825902595083,204.9743071289733L172.61343495334484,294.13899043020075L175.38861088073878,125.80637212418621L178.16378680813276,200.85932647205087L180.9389627355267,239.65810720500497L183.71413866292067,226.77722378051305L186.48931459031465,214.75291869700314L189.2644905177086,263.26505075575824L192.03966644510257,214.66970134287752L194.81484237249654,267.63769789077L197.5900182998905,175.71623636079914L200.36519422728446,194.76565888627454L203.14037015467844,156.6959790774648L205.9155460820724,261.52513918224327L208.69072200946636,163.12570979427568L211.4658979368603,105.09507312555256L214.2410738642543,148.81991748902175L217.01624979164825,169.33627938367528L219.79142571904222,253.2623368416073L222.56660164643617,204.52378247428794L225.34177757383017,145.52207581154968L228.11695350122412,184.75227917076205L230.89212942861806,185.07568796119824L233.66730535601206,178.50706079162876L236.442481283406,228.83982103928724L239.21765721079998,183.48335010256645L241.99283313819393,191.228348877669L244.76800906558793,191.86531415050405L247.54318499298188,158.4302263270929L250.31836092037582,251.98720112064203L253.0935368477698,219.38401567404603L255.86871277516377,143.52618500535849L258.6438887025577,102.9505239467126L261.41906462995166,222.0082848790948L264.19424055734567,180.24118752372735L266.9694164847396,193.26687275992379L269.7445924121336,163.97686484642986L272.51976833952756,206.5699592196666L275.29494426692156,204.20181989420584L278.0701201943155,167.58757003050616L280.84529612170945,145.6768805782034L283.6204720491034,250.940807670684L286.3956479764974,174.87677150900728L289.17082390389135,183.02441935019786L291.9459998312853,210.09202376078935L294.72117575867924,184.0560494027911L297.49635168607324,207.3535943259136L300.2715276134672,149.99110684078587L303.0467035408612,187.43054022903064L305.82187946825513,193.61179392937726L308.59705539564914,194.6329690862856L311.3722313230431,187.2522948028875L314.147407250437,153.5722852301326L316.92258317783103,173.08871318245363L319.697759105225,182.09920627616071L322.4729350326189,149.39755800795626L325.24811096001287,186.85139324097727L328.0232868874068,200.5840945640357L330.79846281480087,148.73133710483296L333.5736387421948,198.83948280686985L336.34881466958876,182.24171825480457L339.1239905969827,183.43472127940976L341.89916652437665,186.76685019402706L344.67434245177066,121.51733402527098L347.4495183791646,182.4708823371651L350.22469430655855,120.12873105027346L352.99987023395255,187.58432059668357L355.77504616134655,161.04726448037118L358.5502220887405,195.16234233465195L361.32539801613444,237.7303690617509L364.1005739435284,172.81501787293973L366.87574987092233,144.52322652698277L369.6509257983163,180.32597160573658L372.42610172571034,130.470460774932L375.2012776531043,210.8984969388782L377.97645358049823,139.72132608124392L380.7516295078922,192.06657842478336L383.5268054352862,152.377173148761L386.3019813626801,141.98783899994652L389.07715729007407,172.21333410686827L391.852333217468,174.75191534843646L394.6275091448621,170.70035704141787L397.402685072256,137.79370845551932L400.17786099964997,187.56202485372447L402.9530369270439,228.66600463235352L405.72821285443786,178.1149570093727L408.5033887818318,140.48986636691995L411.2785647092258,200.3424870467534L414.0537406366198,147.90302012452068L416.82891656401375,124.00324910644395L419.6040924914077,132.60856226594328L422.3792684188017,150.53632814428258L425.15444434619565,156.93273576418437L427.9296202735896,154.1072022848563L430.70479620098354,202.0678159991979L433.47997212837754,146.84975717538063L436.25514805577154,77.75868449477467L439.0303239831655,94.02342898342543L441.80549991055943,134.11876742821497L444.5806758379534,210.18346643630395L447.3558517653473,156.1796217222854L450.13102769274127,142.40175645504365L452.9062036201353,198.78787117485783L455.6813795475293,163.27153600498104L458.4565554749232,156.74032952832397L461.23173140231717,174.682617768969L464.00690732971117,178.02270084053387L466.7820832571051,196.3156950920488L469.55725918449906,169.72633436792972L472.332435111893,145.0193369372047L475.10761103928706,106.39714451436298L477.882786966681,84.10326957698777L480.65796289407496,135.22752869969366L483.4331388214689,140.1567559153583L486.20831474886285,187.44476129751263L488.9834906762568,135.9767259218836L491.7586666036508,169.2426975220119L494.5338425310448,197.977089495089L497.30901845843874,146.71586220009664L500.0841943858327,118.43027750690938L502.8593703132267,159.17122835727625L505.63454624062064,143.13136957868844L508.4097221680146,99.09474636638066L511.1848980954085,187.02855400935485L513.9600740228025,174.6094636285573L516.7352499501965,171.0707676683624L519.5104258775905,137.89506369783604L522.2856018049844,136.29832694937716L525.0607777323784,149.4018363802538L527.8359536597724,209.60883885560713L530.6111295871663,143.71057682550656L533.3863055145603,192.07974496488217L536.1614814419543,190.22642639609964L538.9366573693483,218.2800148449829L541.7118332967422,145.36853647895575L544.4870092241362,163.66050633146992L547.26218515153,163.4658705213136L550.037361078924,172.21333410686827L552.812537006318,156.26314037023482L555.5877129337119,174.09491403632055L558.362888861106,182.0032743226719L561.1380647885,197.6422014099671L563.913240715894,130.16609375415817L566.6884166432878,67.53283237473859L569.4635925706818,232.498341553196L572.2387684980757,129.6244879765467L575.0139444254697,163.28593784975732L577.7891203528637,126.0280641197172L580.5642962802577,73.3447902352886L583.3394722076516,212.42226032321963L586.1146481350456,193.34047884107113L588.8898240624395,138.19858709590332L591.6649999898335,120.63858045885937L594.4401759172275,157.9283310754545L597.2153518446215,155.14353252110035L599.9905277720154,96.50524646859512L602.7657036994094,96.65818321354143L605.5408796268034,187.91273086459438L608.3160555541973,138.22925880716323L611.0912314815913,193.24114226737373L613.8664074089852,168.80033792995073L616.6415833363792,191.00578313004905L619.4167592637732,175.61433878959966L622.1919351911672,151.83870082691678L624.9671111185611,171.34175133346238L627.7422870459551,164.8236812675217L630.5174629733491,109.27528389532154L633.292638900743,176.4549485579218L636.067814828137,203.3389143829246L638.8429907555309,131.34234484216162L641.6181666829249,123.2655613083221L644.3933426103188,149.56598125544446L647.1685185377129,148.45944955826167L649.9436944651069,113.75931935698158L652.7188703925008,144.59836920663133L655.4940463198948,123.84772123461318L658.2692222472887,200.56592654646226L661.0443981746827,101.72835567996636L663.8195741020766,161.61646877224007L666.5947500294706,149.45751547888673L669.3699259568647,138.12959081025966L672.1451018842586,221.3041612129411L674.9202778116526,117.13254474916127L677.6954537390465,141.83574587770673L680.4706296664405,107.67818559427415L683.2458055938343,72.23452249469106L686.0209815212284,234.9896799231969L688.7961574486224,209.64806731146217L691.5713333760162,132.9838538528329L694.3465093034102,171.54078603344576L697.1216852308041,139.77718595617114L699.8968611581982,206.03588578764945L702.6720370855921,153.13558996195832L705.4472130129861,130.3112571184512L708.22238894038,204.61127820071115L710.997564867774,156.4649469733969L713.772740795168,136.94032382906926L716.5479167225619,159.63118350864565L719.3230926499559,116.4696983368642L722.0982685773498,203.39344856502726L724.8734445047439,108.94331836029023L727.6486204321378,82.78595272069454L730.4237963595318,179.54435516810886L733.1989722869258,183.70600623833354L735.9741482143197,230.93658501767706L738.7493241417137,192.6161383593424L741.5245000691076,70.86664853476898L744.2996759965016,166.28019587039736L747.0748519238955,214.7785588014061L749.8500278512895,167.49639851943292L752.6252037786836,131.21140254635063L755.4003797060775,155.87049425909598L758.1755556334715,119.06817679059816L760.9507315608654,174.7329940963036L763.7259074882594,193.11562326039052L766.5010834156533,230.25861365542664L769.2762593430473,162.34776914129796L772.0514352704413,182.95771289761493L774.8266111978352,115.4756094947129L777.6017871252293,128.20442992634742L780.3769630526232,110.66376635278958L783.1521389800172,189.13863517475536L785.9273149074111,148.88722652925227L788.7024908348051,150.39176736763704L791.4776667621991,151.11595720245398L794.252842689593,216.5163613181547L797.028018616987,207.81026537460386L799.8031945443809,207.81373025357723L802.5783704717749,186.67616075307185L805.3535463991687,159.84715092152499L808.1287223265629,146.52634838494444L810.9038982539568,110.79826391572114L813.6790741813508,180.5780942774685L816.4542501087448,131.290763339532L819.2294260361386,137.99708178656502L822.0046019635327,176.0450081812985L824.7797778909265,188.6441517511818L827.5549538183205,158.1156153163108L830.3301297457144,119.71427126629351L833.1053056731085,94.34509026968374L835.8804816005025,40.50099154102882L838.6556575278964,200.18018006388775L841.4308334552904,171.28444524818107L844.2060093826843,128.39972858291605L846.9811853100783,140.8490688636202L849.7563612374722,64.1112191944612L852.5315371648662,165.23747820508936L855.3067130922602,182.61001982498274L858.0818890196541,148.45860593555508L860.8570649470482,168.0437891384608L863.6322408744421,202.37353884217873L866.4074168018361,183.8696087846414L869.18259272923,217.76426007745107L871.957768656624,142.72835896001186L874.732944584018,107.79761846601714L877.5081205114119,34.93241883132128L880.2832964388059,163.38837774983958L883.0584723661998,84.12610764882966L885.8336482935939,197.46070201052726L888.6088242209878,155.08978170293955L891.3840001483818,177.69633937062468L894.1591760757758,64.52971631567966L896.9343520031697,139.16815062079962L899.7095279305637,164.59439666763168L902.4847038579576,60.305878200228584L905.2598797853516,156.19546977741578L908.0350557127455,114.88169910929476L910.8102316401395,130.4816689051763L913.5854075675334,172.63418131991213L916.3605834949275,111.1135377729155L919.1357594223215,121.06009051831553L921.9109353497154,160.8287059406074L924.6861112771094,218.5089378922844L927.4612872045033,91.33215203196988L930.2364631318973,84.63637886876887L933.0116390592912,164.74799625899036L935.7868149866852,142.19476759811272L938.5619909140793,126.89627240229679L941.3371668414732,62.17872060879151L944.1123427688672,169.83064228971938L946.887518696261,117.2436016526034L949.662694623655,146.13243683974574L952.437870551049,163.0068192514155L955.213046478443,146.27085122238628L957.988222405837,164.7727023525396L960.7633983332308,122.78590154087804L963.5385742606248,144.63337954895357L966.3137501880187,142.04092697169503L969.0889261154128,99.92746223652003L971.8641020428067,241.70470576173688L974.6392779702007,181.99146360478005L977.4144538975947,177.97630159167306L980.1896298249886,188.6725938881458L982.9648057523826,128.07758522653964L985.7399816797765,193.07374341888635L988.5151576071705,133.38704524780377L991.2903335345644,88.87968056523556L994.0655094619585,62.88302505123953L996.8406853893525,144.88532144439122L999.6158613167464,166.58992592123434L1002.3910372441404,53.22716058701413L1005.1662131715343,93.24422289638788L1007.9413890989283,160.07974975347648L1010.7165650263222,212.3322337286767L1013.4917409537162,174.12654988781654L1016.2669168811102,189.22076787111547L1019.0420928085041,202.8940239227438L1021.8172687358982,192.50553339663585L1024.592444663292,125.92923974552016L1027.367620590686,130.17205937186884L1030.1427965180799,170.6200321080004L1032.917972445474,140.73722859623626L1035.6931483728679,241.825825878893L1038.4683243002619,128.44974335766207L1041.2435002276559,65.82021802165725L1044.01867615505,171.42496868758806L1046.793852082444,173.32089020305187L1049.5690280098377,180.72602954494022L1052.3442039372317,192.8850732264407L1055.1193798646257,85.24432954637476L1057.8945557920197,175.2122320523944L1060.6697317194137,229.9412307414659L1063.4449076468077,167.42161739237287L1066.2200835742017,153.03182436905144L1068.9952595015955,133.3954814748694L1071.7704354289895,110.02930181869179L1074.5456113563835,87.89535364297444L1077.3207872837775,125.71218767487527L1080.0959632111715,163.92214988803298L1082.8711391385652,86.23829787099659L1085.6463150659595,157.5016990209942L1088.4214909933532,226.46300445170186L1091.1966669207472,205.43197244728205L1093.9718428481413,137.51947081712262L1096.7470187755353,136.1823288272252L1099.5221947029293,123.71852644298001L1102.297370630323,111.0513507276891L1105.072546557717,114.40812547709086L1107.847722485111,159.92380007029243L1110.622898412505,159.37201056143752L1113.3980743398988,197.57880918944562L1116.173250267293,161.54674938141937L1118.948426194687,48.37560691911774L1121.7236021220808,162.50721383283778L1124.4987780494748,127.38852625157449L1127.2739539768688,154.67893744484488L1130.0491299042628,197.57730272032677L1132.8243058316566,174.64658302764596L1135.5994817590506,190.11579130401074L1138.3746576864446,58.70028341335089L1141.1498336138386,129.3489246453254L1143.9250095412326,182.78115471688488L1146.7001854686266,160.21641663193918L1149.4753613960206,77.25112491924938L1152.2505373234144,154.37884879636857L1155.0257132508084,157.31152235942974L1157.8008891782024,180.44486214859677L1160.5760651055964,110.59874714561973L1163.3512410329904,138.63467977643L1166.1264169603842,75.28717125837801L1168.9015928877784,137.94845296340833L1171.6767688151722,142.93950567171083L1174.4519447425662,163.08111830835753L1177.2271206699602,165.8376555020419" style="fill: none;" fill="none"></path></g></g></g></g></g></g><g transform="translate(30, 378)" clip-path="url(#clip_1)"><clipPath id="clip_1"><rect width="1250" height="22"></rect></clipPath><g><g><line x1="67.15674971237415" y1="0" x2="67.15674971237415" y2="5" style="visibility: inherit;" fill="rgb(0, 0, 0)" stroke="rgb(204, 204, 204)" stroke-width="1px"></line><line x1="178.16378680813276" y1="0" x2="178.16378680813276" y2="5" style="visibility: inherit;" fill="rgb(0, 0, 0)" stroke="rgb(204, 204, 204)" stroke-width="1px"></line><line x1="289.17082390389135" y1="0" x2="289.17082390389135" y2="5" style="visibility: inherit;" fill="rgb(0, 0, 0)" stroke="rgb(204, 204, 204)" stroke-width="1px"></line><line x1="400.17786099964997" y1="0" x2="400.17786099964997" y2="5" style="visibility: inherit;" fill="rgb(0, 0, 0)" stroke="rgb(204, 204, 204)" stroke-width="1px"></line><line x1="511.1848980954085" y1="0" x2="511.1848980954085" y2="5" style="visibility: inherit;" fill="rgb(0, 0, 0)" stroke="rgb(204, 204, 204)" stroke-width="1px"></line><line x1="622.1919351911672" y1="0" x2="622.1919351911672" y2="5" style="visibility: inherit;" fill="rgb(0, 0, 0)" stroke="rgb(204, 204, 204)" stroke-width="1px"></line><line x1="733.1989722869258" y1="0" x2="733.1989722869258" y2="5" style="visibility: inherit;" fill="rgb(0, 0, 0)" stroke="rgb(204, 204, 204)" stroke-width="1px"></line><line x1="844.2060093826843" y1="0" x2="844.2060093826843" y2="5" style="visibility: inherit;" fill="rgb(0, 0, 0)" stroke="rgb(204, 204, 204)" stroke-width="1px"></line><line x1="955.213046478443" y1="0" x2="955.213046478443" y2="5" style="visibility: inherit;" fill="rgb(0, 0, 0)" stroke="rgb(204, 204, 204)" stroke-width="1px"></line><line x1="1066.2200835742017" y1="0" x2="1066.2200835742017" y2="5" style="visibility: inherit;" fill="rgb(0, 0, 0)" stroke="rgb(204, 204, 204)" stroke-width="1px"></line><line x1="1177.2271206699602" y1="0" x2="1177.2271206699602" y2="5" style="visibility: inherit;" fill="rgb(0, 0, 0)" stroke="rgb(204, 204, 204)" stroke-width="1px"></line></g><g transform="translate(0, 8)"><text x="67.15674971237415" y="0" dx="0em" dy="0.95em" style="text-anchor: middle; visibility: inherit; font-family: Roboto, sans-serif; font-size: 12px; font-weight: 200;" fill="rgb(50, 49, 63)" stroke="none" stroke-width="1px">0</text><text x="178.16378680813276" y="0" dx="0em" dy="0.95em" style="text-anchor: middle; visibility: inherit; font-family: Roboto, sans-serif; font-size: 12px; font-weight: 200;" fill="rgb(50, 49, 63)" stroke="none" stroke-width="1px">20k</text><text x="289.17082390389135" y="0" dx="0em" dy="0.95em" style="text-anchor: middle; visibility: inherit; font-family: Roboto, sans-serif; font-size: 12px; font-weight: 200;" fill="rgb(50, 49, 63)" stroke="none" stroke-width="1px">40k</text><text x="400.17786099964997" y="0" dx="0em" dy="0.95em" style="text-anchor: middle; visibility: inherit; font-family: Roboto, sans-serif; font-size: 12px; font-weight: 200;" fill="rgb(50, 49, 63)" stroke="none" stroke-width="1px">60k</text><text x="511.1848980954085" y="0" dx="0em" dy="0.95em" style="text-anchor: middle; visibility: inherit; font-family: Roboto, sans-serif; font-size: 12px; font-weight: 200;" fill="rgb(50, 49, 63)" stroke="none" stroke-width="1px">80k</text><text x="622.1919351911672" y="0" dx="0em" dy="0.95em" style="text-anchor: middle; visibility: inherit; font-family: Roboto, sans-serif; font-size: 12px; font-weight: 200;" fill="rgb(50, 49, 63)" stroke="none" stroke-width="1px">100k</text><text x="733.1989722869258" y="0" dx="0em" dy="0.95em" style="text-anchor: middle; visibility: inherit; font-family: Roboto, sans-serif; font-size: 12px; font-weight: 200;" fill="rgb(50, 49, 63)" stroke="none" stroke-width="1px">120k</text><text x="844.2060093826843" y="0" dx="0em" dy="0.95em" style="text-anchor: middle; visibility: inherit; font-family: Roboto, sans-serif; font-size: 12px; font-weight: 200;" fill="rgb(50, 49, 63)" stroke="none" stroke-width="1px">140k</text><text x="955.213046478443" y="0" dx="0em" dy="0.95em" style="text-anchor: middle; visibility: inherit; font-family: Roboto, sans-serif; font-size: 12px; font-weight: 200;" fill="rgb(50, 49, 63)" stroke="none" stroke-width="1px">160k</text><text x="1066.2200835742017" y="0" dx="0em" dy="0.95em" style="text-anchor: middle; visibility: inherit; font-family: Roboto, sans-serif; font-size: 12px; font-weight: 200;" fill="rgb(50, 49, 63)" stroke="none" stroke-width="1px">180k</text><text x="1177.2271206699602" y="0" dx="0em" dy="0.95em" style="text-anchor: middle; visibility: inherit; font-family: Roboto, sans-serif; font-size: 12px; font-weight: 200;" fill="rgb(50, 49, 63)" stroke="none" stroke-width="1px">200k</text></g><line x1="0" y1="0" x2="1250.43875" y2="0" fill="rgb(0, 0, 0)" stroke="rgb(204, 204, 204)" stroke-width="1px"></line></g></g></g></g></svg>