<svg viewBox="0 0 1281.2222900390625 400" xmlns="http://www.w3.org/2000/svg"><g><g><g><g><g><line x1="72.34375" y1="348.14278027553945" x2="67.34375" y2="348.14278027553945" style="visibility: inherit;" fill="rgb(0, 0, 0)" stroke="rgb(204, 204, 204)" stroke-width="1px"></line><line x1="72.34375" y1="316.864663058852" x2="67.34375" y2="316.864663058852" style="visibility: inherit;" fill="rgb(0, 0, 0)" stroke="rgb(204, 204, 204)" stroke-width="1px"></line><line x1="72.34375" y1="285.5865458421646" x2="67.34375" y2="285.5865458421646" style="visibility: inherit;" fill="rgb(0, 0, 0)" stroke="rgb(204, 204, 204)" stroke-width="1px"></line><line x1="72.34375" y1="254.30842862547715" x2="67.34375" y2="254.30842862547715" style="visibility: inherit;" fill="rgb(0, 0, 0)" stroke="rgb(204, 204, 204)" stroke-width="1px"></line><line x1="72.34375" y1="223.0303114087897" x2="67.34375" y2="223.0303114087897" style="visibility: inherit;" fill="rgb(0, 0, 0)" stroke="rgb(204, 204, 204)" stroke-width="1px"></line><line x1="72.34375" y1="191.75219419210225" x2="67.34375" y2="191.75219419210225" style="visibility: inherit;" fill="rgb(0, 0, 0)" stroke="rgb(204, 204, 204)" stroke-width="1px"></line><line x1="72.34375" y1="160.4740769754148" x2="67.34375" y2="160.4740769754148" style="visibility: inherit;" fill="rgb(0, 0, 0)" stroke="rgb(204, 204, 204)" stroke-width="1px"></line><line x1="72.34375" y1="129.19595975872735" x2="67.34375" y2="129.19595975872735" style="visibility: inherit;" fill="rgb(0, 0, 0)" stroke="rgb(204, 204, 204)" stroke-width="1px"></line><line x1="72.34375" y1="97.91784254203986" x2="67.34375" y2="97.91784254203986" style="visibility: inherit;" fill="rgb(0, 0, 0)" stroke="rgb(204, 204, 204)" stroke-width="1px"></line><line x1="72.34375" y1="66.6397253253525" x2="67.34375" y2="66.6397253253525" style="visibility: inherit;" fill="rgb(0, 0, 0)" stroke="rgb(204, 204, 204)" stroke-width="1px"></line><line x1="72.34375" y1="35.361608108665045" x2="67.34375" y2="35.361608108665045" style="visibility: inherit;" fill="rgb(0, 0, 0)" stroke="rgb(204, 204, 204)" stroke-width="1px"></line><line x1="72.34375" y1="4.083490891977557" x2="67.34375" y2="4.083490891977557" style="visibility: inherit;" fill="rgb(0, 0, 0)" stroke="rgb(204, 204, 204)" stroke-width="1px"></line></g><g transform="translate(62.34375, 0)"><text x="0" y="348.14278027553945" dx="0em" dy="0.3em" style="text-anchor: end; visibility: inherit; font-family: Roboto, sans-serif; font-size: 12px; font-weight: 200;" fill="rgb(50, 49, 63)" stroke="none" stroke-width="1px">0</text><text x="0" y="316.864663058852" dx="0em" dy="0.3em" style="text-anchor: end; visibility: inherit; font-family: Roboto, sans-serif; font-size: 12px; font-weight: 200;" fill="rgb(50, 49, 63)" stroke="none" stroke-width="1px">5e-4</text><text x="0" y="285.5865458421646" dx="0em" dy="0.3em" style="text-anchor: end; visibility: inherit; font-family: Roboto, sans-serif; font-size: 12px; font-weight: 200;" fill="rgb(50, 49, 63)" stroke="none" stroke-width="1px">1e-3</text><text x="0" y="254.30842862547715" dx="0em" dy="0.3em" style="text-anchor: end; visibility: inherit; font-family: Roboto, sans-serif; font-size: 12px; font-weight: 200;" fill="rgb(50, 49, 63)" stroke="none" stroke-width="1px">1.5e-3</text><text x="0" y="223.0303114087897" dx="0em" dy="0.3em" style="text-anchor: end; visibility: inherit; font-family: Roboto, sans-serif; font-size: 12px; font-weight: 200;" fill="rgb(50, 49, 63)" stroke="none" stroke-width="1px">2e-3</text><text x="0" y="191.75219419210225" dx="0em" dy="0.3em" style="text-anchor: end; visibility: inherit; font-family: Roboto, sans-serif; font-size: 12px; font-weight: 200;" fill="rgb(50, 49, 63)" stroke="none" stroke-width="1px">2.5e-3</text><text x="0" y="160.4740769754148" dx="0em" dy="0.3em" style="text-anchor: end; visibility: inherit; font-family: Roboto, sans-serif; font-size: 12px; font-weight: 200;" fill="rgb(50, 49, 63)" stroke="none" stroke-width="1px">3e-3</text><text x="0" y="129.19595975872735" dx="0em" dy="0.3em" style="text-anchor: end; visibility: inherit; font-family: Roboto, sans-serif; font-size: 12px; font-weight: 200;" fill="rgb(50, 49, 63)" stroke="none" stroke-width="1px">3.5e-3</text><text x="0" y="97.91784254203986" dx="0em" dy="0.3em" style="text-anchor: end; visibility: inherit; font-family: Roboto, sans-serif; font-size: 12px; font-weight: 200;" fill="rgb(50, 49, 63)" stroke="none" stroke-width="1px">4e-3</text><text x="0" y="66.6397253253525" dx="0em" dy="0.3em" style="text-anchor: end; visibility: inherit; font-family: Roboto, sans-serif; font-size: 12px; font-weight: 200;" fill="rgb(50, 49, 63)" stroke="none" stroke-width="1px">4.5e-3</text><text x="0" y="35.361608108665045" dx="0em" dy="0.3em" style="text-anchor: end; visibility: inherit; font-family: Roboto, sans-serif; font-size: 12px; font-weight: 200;" fill="rgb(50, 49, 63)" stroke="none" stroke-width="1px">5e-3</text><text x="0" y="4.083490891977557" dx="0em" dy="0.3em" style="text-anchor: end; visibility: hidden; font-family: Roboto, sans-serif; font-size: 12px; font-weight: 200;" fill="rgb(50, 49, 63)" stroke="none" stroke-width="1px">5.5e-3</text></g><line x1="72.34375" y1="0" x2="72.34375" y2="378" fill="rgb(0, 0, 0)" stroke="rgb(204, 204, 204)" stroke-width="1px"></line></g></g><g transform="translate(72, 0)" clip-path="url(#clip_0)"><clipPath id="clip_0"><rect width="1208" height="378"></rect></clipPath><g><g><g><line x1="80.33697326507453" y1="0" x2="80.33697326507453" y2="378" fill="rgb(0, 0, 0)" stroke="rgb(60, 60, 60)" stroke-width="1px" opacity="0.25"></line><line x1="183.22259812706912" y1="0" x2="183.22259812706912" y2="378" fill="rgb(0, 0, 0)" stroke="rgb(60, 60, 60)" stroke-width="1px" opacity="0.25"></line><line x1="286.10822298906373" y1="0" x2="286.10822298906373" y2="378" fill="rgb(0, 0, 0)" stroke="rgb(60, 60, 60)" stroke-width="1px" opacity="0.25"></line><line x1="388.9938478510583" y1="0" x2="388.9938478510583" y2="378" fill="rgb(0, 0, 0)" stroke="rgb(60, 60, 60)" stroke-width="1px" opacity="0.25"></line><line x1="491.8794727130529" y1="0" x2="491.8794727130529" y2="378" fill="rgb(0, 0, 0)" stroke="rgb(60, 60, 60)" stroke-width="1px" opacity="0.25"></line><line x1="594.7650975750475" y1="0" x2="594.7650975750475" y2="378" fill="rgb(0, 0, 0)" stroke="rgb(60, 60, 60)" stroke-width="1px" opacity="0.25"></line><line x1="697.6507224370421" y1="0" x2="697.6507224370421" y2="378" fill="rgb(0, 0, 0)" stroke="rgb(60, 60, 60)" stroke-width="1px" opacity="0.25"></line><line x1="800.5363472990366" y1="0" x2="800.5363472990366" y2="378" fill="rgb(0, 0, 0)" stroke="rgb(60, 60, 60)" stroke-width="1px" opacity="0.25"></line><line x1="903.4219721610312" y1="0" x2="903.4219721610312" y2="378" fill="rgb(0, 0, 0)" stroke="rgb(60, 60, 60)" stroke-width="1px" opacity="0.25"></line><line x1="1006.3075970230258" y1="0" x2="1006.3075970230258" y2="378" fill="rgb(0, 0, 0)" stroke="rgb(60, 60, 60)" stroke-width="1px" opacity="0.25"></line><line x1="1109.1932218850204" y1="0" x2="1109.1932218850204" y2="378" fill="rgb(0, 0, 0)" stroke="rgb(60, 60, 60)" stroke-width="1px" opacity="0.25"></line></g><g><line x1="0" y1="348.14278027553945" x2="1208.87625" y2="348.14278027553945" fill="rgb(0, 0, 0)" stroke="rgb(60, 60, 60)" stroke-width="1px" opacity="0.25"></line><line x1="0" y1="316.864663058852" x2="1208.87625" y2="316.864663058852" fill="rgb(0, 0, 0)" stroke="rgb(60, 60, 60)" stroke-width="1px" opacity="0.25"></line><line x1="0" y1="285.5865458421646" x2="1208.87625" y2="285.5865458421646" fill="rgb(0, 0, 0)" stroke="rgb(60, 60, 60)" stroke-width="1px" opacity="0.25"></line><line x1="0" y1="254.30842862547715" x2="1208.87625" y2="254.30842862547715" fill="rgb(0, 0, 0)" stroke="rgb(60, 60, 60)" stroke-width="1px" opacity="0.25"></line><line x1="0" y1="223.0303114087897" x2="1208.87625" y2="223.0303114087897" fill="rgb(0, 0, 0)" stroke="rgb(60, 60, 60)" stroke-width="1px" opacity="0.25"></line><line x1="0" y1="191.75219419210225" x2="1208.87625" y2="191.75219419210225" fill="rgb(0, 0, 0)" stroke="rgb(60, 60, 60)" stroke-width="1px" opacity="0.25"></line><line x1="0" y1="160.4740769754148" x2="1208.87625" y2="160.4740769754148" fill="rgb(0, 0, 0)" stroke="rgb(60, 60, 60)" stroke-width="1px" opacity="0.25"></line><line x1="0" y1="129.19595975872735" x2="1208.87625" y2="129.19595975872735" fill="rgb(0, 0, 0)" stroke="rgb(60, 60, 60)" stroke-width="1px" opacity="0.25"></line><line x1="0" y1="97.91784254203986" x2="1208.87625" y2="97.91784254203986" fill="rgb(0, 0, 0)" stroke="rgb(60, 60, 60)" stroke-width="1px" opacity="0.25"></line><line x1="0" y1="66.6397253253525" x2="1208.87625" y2="66.6397253253525" fill="rgb(0, 0, 0)" stroke="rgb(60, 60, 60)" stroke-width="1px" opacity="0.25"></line><line x1="0" y1="35.361608108665045" x2="1208.87625" y2="35.361608108665045" fill="rgb(0, 0, 0)" stroke="rgb(60, 60, 60)" stroke-width="1px" opacity="0.25"></line><line x1="0" y1="4.083490891977557" x2="1208.87625" y2="4.083490891977557" fill="rgb(0, 0, 0)" stroke="rgb(60, 60, 60)" stroke-width="1px" opacity="0.25"></line></g></g></g><g><g><line x1="0" y1="348.14278027553945" x2="1208.87625" y2="348.14278027553945" fill="rgb(0, 0, 0)" stroke="rgb(153, 153, 153)" stroke-width="1.5px"></line></g></g><g><g><line x1="80.33697326507453" y1="0" x2="80.33697326507453" y2="378" fill="rgb(0, 0, 0)" stroke="rgb(153, 153, 153)" stroke-width="1.5px"></line></g></g><g><g><g><g><g><path stroke="rgb(255, 112, 67)" stroke-width="2px" d="M95.76981699437371,-22.647336950863103L98.34195761592359,86.1115306466313L100.91409823747344,119.00716469515058L103.48623885902332,88.27753444023354L106.05837948057318,97.27515914752749L108.63052010212304,162.8301981834825L111.2026607236729,199.6311825710939L113.77480134522278,234.84912268249252L116.34694196677263,240.71094571816352L118.91908258832251,251.47855499070405L121.49122320987236,238.08691240591403L124.06336383142224,190.78032647148868L126.63550445297209,225.5857616629312L129.20764507452196,247.04372083904158L131.77978569607183,258.99210546947194L134.3519263176217,270.99509284339234L136.92406693917155,253.99350357483925L139.49620756072142,258.891581632286L142.06834818227128,275.3566636112375L144.64048880382114,286.6094101604762L147.212629425371,269.97789724916794L149.78477004692087,259.56838857395076L152.35691066847076,237.01814213717523L154.9290512900206,258.4464582074713L157.50119191157046,258.95181945077957L160.07333253312035,257.3622811280242L162.6454731546702,274.6479417813456L165.21761377622005,259.14586530885254L167.78975439776994,269.95053624100234L170.3618950193198,282.8650221241353L172.93403564086967,295.79170805937696L175.5061762624195,297.24763538929506L178.0783168839694,246.13156776588474L180.65045750551926,280.7911580949246L183.22259812706912,289.3816719556925L185.79473874861898,280.58212113927414L188.36687937016885,280.83238058155547L190.9390199917187,285.28705550477446L193.5111606132686,264.85710932958807L196.08330123481844,275.7291336885756L198.6554418563683,256.1230918574001L201.22758247791816,280.211453233691L203.79972309946805,290.5935036234499L206.37186372101792,303.97354631357L208.94400434256775,277.2102683483883L211.51614496411764,294.9964535806835L214.0882855856675,311.7113723790509L216.66042620721737,317.68979557036954L219.23256682876723,318.28103263876744L221.8047074503171,290.83644651525935L224.37684807186696,294.40201986584214L226.94898869341685,307.70754230531384L229.5211293149667,309.37143729205627L232.09326993651655,310.3012211594057L234.6654105580664,312.19022400340333L237.2375511796163,298.9800492037224L239.80969180116614,304.4008693531482L242.381832422716,305.9509639439413L244.9539730442659,306.7322624423632L247.52611366581576,313.4100106472048L250.0982542873656,288.6392115170741L252.67039490891548,288.4019812411241L255.24253553046535,304.34237697676343L257.81467615201524,317.4587646974985L260.38681677356504,304.75633543042386L262.9589573951149,308.52415508610903L265.5310980166648,307.9439667657193L268.1032386382147,313.3045075607138L270.6753792597645,307.2968144485388L273.24751988131436,304.3688670206255L275.8196605028643,310.58017475670255L278.39180112441414,317.3959333097496L280.96394174596395,291.6160395832374L283.53608236751387,301.66192119160337L286.10822298906373,306.104966595679L288.6803636106136,301.92647503681866L291.2525042321634,306.0493281972397L293.8246448537133,302.714597792959L296.3967854752632,312.1437554318518L298.96892609681305,311.4554921771888L301.5410667183629,309.6199611220209L304.1132073399128,308.2710460863546L306.6853479614626,309.1710275077811L309.2574885830125,315.5491421481421L311.82962920456237,316.34503561236914L314.40176982611223,315.10438135351336L316.9739104476621,319.65293248724186L319.54605106921196,316.0878319594411L322.1181916907618,310.6331436260181L324.69033231231174,317.05394884413477L327.26247293386155,311.67174697373383L329.8346135554114,312.27137573923255L332.4067541769613,312.3857631947279L334.97889479851113,311.7459594889697L337.551035420061,320.5322046879993L340.12317604161086,317.54084134402837L342.6953166631608,324.12479962991756L345.26745728471064,318.61026524717215L347.83959790626045,320.15238495679006L350.4117385278103,314.4606955764989L352.9838791493602,296.5246482937821L355.55601977091004,304.97909129562754L358.1281603924599,314.17217464862364L360.7003010140098,314.1568651624271L363.2724416355597,321.17403611559683L365.84458225710955,310.71968531184064L368.41672287865936,318.1622418666169L370.9888635002092,314.01174389643273L373.5610041217591,318.61263206777727L376.13314474330895,322.64519196212774L378.70528536485887,320.7578738707524L381.27742598640873,319.16987134917684L383.8495666079586,318.93632490347255L386.42170722950846,323.300765954331L388.9938478510583,318.12075053662505L391.5659884726081,302.60817520857023L394.138129094158,307.64990434907435L396.7102697157079,316.2355816364767L399.2824103372578,310.78604550997625L401.85455095880764,317.2487009959072L404.4266915803575,323.620839258371L406.99883220190736,326.6442043118636L409.5709728234573,326.4317631488107L412.1431134450071,325.4431714636213L414.71525406655695,325.2403295456729L417.2873946881068,315.7250642827947L419.8595353096567,320.34131043771856L422.43167593120654,328.411563789976L425.0038165527564,332.4376065237745L427.5759571743063,331.7832422845071L430.1480977958562,317.30544796061054L432.720238417406,320.07299686733734L435.29237903895586,323.4743265394429L437.8645196605057,315.53736320307434L440.4366602820556,317.9701849798143L443.00880090360545,320.39331474946255L445.58094152515537,318.96379723814215L448.15308214670523,317.48096968243317L450.7252227682551,312.57151873917417L453.2973633898049,315.1439756300117L455.86950401135476,320.2125218727585L458.4416446329046,326.7539535658644L461.0137852544545,331.96359014568696L463.5859258760044,331.3858130907846L466.1580664975543,330.5139952870827L468.73020711910414,322.47449878753355L471.302347740654,325.61495326738554L473.8744883622038,323.0519339322643L476.44662898375367,315.49311174487025L479.01876960530353,320.2184225942742L481.59091022685345,325.8696780901564L484.1630508484033,324.7850904357411L486.7351914699532,326.21790743589304L489.30733209150304,330.82476427371313L491.8794727130529,322.7522405432022L494.4516133346027,320.3925088270224L497.02375395615263,319.60589490683014L499.5958945777025,323.6916927094119L502.16803519925236,326.3117802968647L504.7401758208022,326.3768263936908L507.3123164423521,314.23694219187524L509.88445706390195,319.8219437132229L512.4565976854518,315.00446120112167L515.0287383070016,312.54431525591406L517.6008789285515,303.1287906718392L520.1730195501013,312.9619181021311L522.7451601716513,316.3645867417534L525.3173007932012,318.43641760031085L527.889441414751,318.2326092536623L530.4615820363009,320.61763799525414L533.0337226578507,319.2052648472232L535.6058632794005,316.84003163608236L538.1780039009504,311.85165194165035L540.7501445225004,319.82002509127864L543.3222851440502,328.52120513300554L545.8944257656001,307.26728814035505L548.4665663871499,317.12089994094316L551.0387070086998,318.91807056550687L553.6108476302496,324.4431697529944L556.1829882517995,331.0627560149446L558.7551288733493,316.17581127365935L561.3272694948993,312.51732225316465L563.8994101164491,319.4060429316268L566.471550737999,325.2017264816017L569.0436913595488,324.56375454720205L571.6158319810987,324.5713806087824L574.1879726026486,329.99106102911946L576.7601132241984,333.23392345320684L579.3322538457483,324.0031664741514L581.9043944672982,326.2942665113418L584.476535088848,318.61219316288077L587.0486757103979,318.9246577258388L589.6208163319478,314.7168786610823L592.1929569534976,315.3866044791538L594.7650975750475,319.50831979287415L597.3372381965974,319.02834087894524L599.9093788181472,319.82199037452426L602.4815194396971,326.32123194411014L605.053660061247,322.19263969644624L607.6258006827968,313.5471785605591L610.1979413043466,320.72409885112654L612.7700819258965,325.770098465607L615.3422225474463,326.0310607015684L617.9143631689963,326.32664211312215L620.4865037905461,329.8978403540208L623.0586444120961,329.11458312360463L625.6307850336459,330.7539216393636L628.2029256551958,319.4376446687431L630.7750662767456,326.5936838867705L633.3472068982954,324.85686671662387L635.9193475198454,325.4968513572786L638.4914881413952,327.2011659725794L641.0636287629451,310.8568153172935L643.6357693844949,320.35612346246853L646.2079100060448,323.70851429079255L648.7800506275946,328.7642671119055L651.3521912491444,333.70133280379554L653.9243318706943,309.2990747134498L656.4964724922442,303.97836535491194L659.0686131137942,314.82150273225875L661.640753735344,316.18158155325364L664.2128943568939,321.4332506559604L666.7850349784437,312.3287101076093L669.3571755999936,317.5021952604547L671.9293162215434,323.19647936863L674.5014568430933,313.7933256717333L677.0735974646431,317.92585032721314L679.645738086193,322.78495321430364L682.2178787077428,322.8670248882896L684.7900193292927,327.61431874571247L687.3621599508425,316.78506022897056L689.9343005723923,324.5223826037299L692.5064411939422,330.68828427454116L695.078581815492,324.220641834592L697.6507224370421,319.49891257469034L700.2228630585919,302.50896802890026L702.7950036801418,304.4899412835664L705.3671443016916,319.19229771580933L707.9392849232415,319.68750567775345L710.5114255447913,308.5917309214189L713.0835661663411,313.12889287100484L715.6557067878911,320.48582958115657L718.2278474094409,322.0242392222583L720.7999880309908,326.9016141275954L723.3721286525406,322.8595732362596L725.9442692740905,316.58139713649564L728.5164098956403,301.03818557691994L731.0885505171904,309.41257435650203L733.6606911387402,310.7691078624796L736.23283176029,320.4327168304617L738.8049723818399,325.1532500163543L741.3771130033897,329.42124935300353L743.9492536249396,321.441608772394L746.5213942464894,323.5194998970449L749.0935348680393,324.57548903802484L751.6656754895891,325.1157666990086L754.237816111139,311.2720209854573L756.8099567326889,305.7134842258568L759.3820973542387,302.3773411630127L761.9542379757886,305.760647682228L764.5263785973384,312.6207248069099L767.0985192188884,318.5179805688929L769.6706598404382,325.4304223450004L772.2428004619882,320.8617349121201L774.814941083538,325.1178408401766L777.3870817050878,326.98794743693026L779.9592223266377,322.6692692839352L782.5313629481875,317.50151533197237L785.1035035697374,319.9167991120848L787.6756441912872,325.58444694298277L790.2477848128372,330.7231647470638L792.819925434387,335.9189167996795L795.3920660559368,322.63908912050783L797.9642066774868,320.91676129996955L800.5363472990366,325.42553598018685L803.1084879205865,326.86099933004596L805.6806285421363,332.87364405030536L808.2527691636863,328.06351540455046L810.8249097852361,322.03112987866507L813.397050406786,323.9267950416939L815.9691910283358,322.2395496404932L818.5413316498856,313.8411825369942L821.1134722714355,313.2371330291324L823.6856128929853,303.72164864056737L826.2577535145352,313.6261656395246L828.829894136085,322.7066396151958L831.4020347576351,331.24716120211525L833.9741753791849,327.3779769518975L836.5463160007347,332.3368925030462L839.1184566222846,321.19603275428074L841.6905972438344,322.5581407312568L844.2627378653843,319.70001888200443L846.8348784869341,328.5617586994217L849.4070191084841,328.92793286847666L851.9791597300339,325.7979578201979L854.5513003515838,332.3707195232771L857.1234409731336,329.1099524779252L859.6955815946834,331.4827909565327L862.2677222162333,331.56852033569766L864.8398628377831,326.037508516627L867.4120034593332,329.91939512488676L869.984144080883,331.4746113669738L872.5562847024329,327.9036641271013L875.1284253239827,312.2653294773422L877.7005659455325,322.8986078066139L880.2727065670824,329.62428292346385L882.8448471886322,326.19153022283206L885.4169878101821,327.1690273012223L887.989128431732,329.3152274757811L890.5612690532819,334.41562325620083L893.1334096748317,328.2327119968425L895.7055502963816,330.77289260693425L898.2776909179314,329.4568695006165L900.8498315394812,326.3627436066987L903.4219721610312,326.79408641618045L905.994112782581,324.489510352731L908.566253404131,328.07060002440744L911.1383940256808,328.0141126589774L913.7105346472307,328.2800569576539L916.2826752687805,332.01121482520193L918.8548158903304,305.18164342791704L921.4269565118802,308.42825035886614L923.99909713343,311.1685407749558L926.57123775498,310.5947206004497L929.1433783765298,319.2622033270659L931.7155189980797,314.43297843869885L934.2876596196295,321.05405222503566L936.8598002411795,328.3023970921264L939.4319408627293,333.7828429892921L942.0040814842791,331.41171159315013L944.5762221058291,326.96899430022864L947.1483627273789,333.3052198030618L949.7205033489288,335.41746711896803L952.2926439704786,330.3805413631068L954.8647845920285,315.79497600834804L957.4369252135783,316.30594069380504L960.0090658351282,313.55389834278293L962.581206456678,308.48692067868006L965.1533470782279,308.1029211494191L967.7254876997778,317.96294946516286L970.2976283213276,323.4862370265622L972.8697689428776,321.53996868755803L975.4419095644274,324.5421273298476L978.0140501859773,300.6413716010739L980.5861908075271,313.2556479124384L983.158331429077,324.64737090112186L985.7304720506269,322.09728081710864L988.3026126721767,320.2324216485227L990.8747532937266,317.71345054787565L993.4468939152764,313.54871808190893L996.0190345368263,323.98433534010525L998.5911751583761,321.0213090515096L1001.1633157799262,303.8321603812729L1003.735456401476,310.2854441421962L1006.3075970230258,316.2900695261165L1008.8797376445757,322.16746429175447L1011.4518782661255,327.6751435496819L1014.0240188876754,332.3261528545066L1016.5961595092252,332.5163364155849L1019.1683001307752,328.0564695432661L1021.740440752325,332.63933556003127L1024.3125813738748,329.08716458829815L1026.8847219954248,310.05776437285687L1029.4568626169746,305.6768453484057L1032.0290032385244,315.37427013923167L1034.6011438600742,321.3334229941727L1037.1732844816243,326.0964631938797L1039.745425103174,329.9592608721823L1042.3175657247239,332.0284218398215L1044.8897063462737,328.37010651776495L1047.4618469678235,326.25606308656256L1050.0339875893735,317.5174350581805L1052.6061282109233,319.42163117073125L1055.1782688324733,328.92245382926626L1057.7504094540232,326.1187731467305L1060.322550075573,328.6401128023785L1062.8946906971228,327.08080532275784L1065.4668313186728,318.01267511162337L1068.0389719402226,317.54199538270194L1070.6111125617724,314.0921526623374L1073.1832531833222,325.40194751552997L1075.755393804872,328.02774071393964L1078.327534426422,321.97453426421225L1080.8996750479719,322.2945821684541L1083.4718156695217,329.60601064971013L1086.0439562910715,327.70119815126554L1088.6160969126213,326.15127838597414L1091.1882375341713,321.3207335478474L1093.7603781557211,327.1264126548213L1096.3325187772712,328.1245628897857L1098.904659398821,333.1894514401798L1101.4768000203708,331.836114961406L1104.0489406419206,330.4706070734192L1106.6210812634706,326.95954023858604L1109.1932218850204,324.41912505967105" style="fill: none;" fill="none"></path></g></g></g></g><g opacity="0.2"><g><g><g><path stroke="rgb(255, 112, 67)" stroke-width="2px" d="M80.33697326507453,-9619.435816384377L82.9091138866244,3.123775227570783L85.48125450817426,131.91440984986758L88.05339512972414,144.32038873310657L90.62553575127399,279.1762787957721L93.19767637282386,237.88239739059418L95.76981699437371,102.02589125581663L98.34195761592359,244.68300368890692L100.91409823747344,167.5218352687591L103.48623885902332,42.647614865710146L106.05837948057318,110.6899884145984L108.63052010212304,260.8060091098919L111.2026607236729,254.71249755336743L113.77480134522278,287.60703723864015L116.34694196677263,249.49678991873594L118.91908258832251,267.6223747472152L121.49122320987236,218.00511542306504L124.06336383142224,119.83245870689461L126.63550445297209,277.78861219236023L129.20764507452196,279.2286982607434L131.77978569607183,276.91402713730776L134.3519263176217,288.9991789408607L136.92406693917155,228.49145533873175L139.49620756072142,266.2386406960518L142.06834818227128,300.054169552909L144.64048880382114,303.48848199651053L147.212629425371,245.0306704376887L149.78477004692087,243.9541415421729L152.35691066847076,203.1927932539759L154.9290512900206,290.5889204698109L157.50119191157046,259.70986114815867L160.07333253312035,254.97797396015613L162.6454731546702,300.5764306977669L165.21761377622005,235.8927517104949L167.78975439776994,286.1575421748773L170.3618950193198,302.23675061582094L172.93403564086967,315.18173676224256L175.5061762624195,299.43152637065674L178.0783168839694,169.45746661547508L180.65045750551926,332.7805434726563L183.22259812706912,302.26744272961946L185.79473874861898,267.3827949252331L188.36687937016885,281.2077697447968L190.9390199917187,291.9690678876736L193.5111606132686,234.21219007211747L196.08330123481844,292.03717022536176L198.6554418563683,226.7140291124711L201.22758247791816,316.3439952967752L203.79972309946805,306.1665792077386L206.37186372101792,324.0436103484799L208.94400434256775,237.06535140094016L211.51614496411764,321.6757314289971L214.0882855856675,336.78375057652886L216.66042620721737,326.65743035733186L219.23256682876723,319.16788824136336L221.8047074503171,249.6695673300231L224.37684807186696,299.7503798917143L226.94898869341685,327.66582596451684L229.5211293149667,311.8672797721696L232.09326993651655,311.69589696042976L234.6654105580664,315.0237282693996L237.2375511796163,279.16478700420157L239.80969180116614,312.5320995772868L242.381832422716,308.276105830131L244.9539730442659,307.90421018999604L247.52611366581576,323.42663295446704L250.0982542873656,251.4830128218782L252.67039490891548,288.046135827199L255.24253553046535,328.2529705802225L257.81467615201524,337.1333462786011L260.38681677356504,285.702691529812L262.9589573951149,314.17588456963676L265.5310980166648,307.0736842851348L268.1032386382147,321.34531875320545L270.6753792597645,298.28527478027627L273.24751988131436,299.9769458787556L275.8196605028643,319.8971363608181L278.39180112441414,327.6195711393202L280.96394174596395,252.94619899346907L283.53608236751387,316.7307436041522L286.10822298906373,312.76953470179257L288.6803636106136,295.6587376985281L291.2525042321634,312.2336079378712L293.8246448537133,297.7125021865379L296.3967854752632,326.28749189019095L298.96892609681305,310.42309729519417L301.5410667183629,306.8666645392692L304.1132073399128,306.24767353285506L306.6853479614626,310.52099963992083L309.2574885830125,325.1163141086837L311.82962920456237,317.5388758087097L314.40176982611223,313.2433999652296L316.9739104476621,326.4757591878346L319.54605106921196,310.74018116773993L322.1181916907618,302.45111112588364L324.69033231231174,326.68515667130964L327.26247293386155,303.59844416813246L329.8346135554114,313.17081888748066L332.4067541769613,312.5573443779707L334.97889479851113,310.7862539303325L337.551035420061,333.7115724865437L340.12317604161086,313.05379632807194L342.6953166631608,334.0007370587513L345.26745728471064,310.3384636730541L347.83959790626045,322.46556452121683L350.4117385278103,305.9231615060622L352.9838791493602,269.62057736970695L355.55601977091004,317.66075579839577L358.1281603924599,327.9617996781177L360.7003010140098,314.1339009331322L363.2724416355597,331.69979254535144L365.84458225710955,295.0381591062063L368.41672287865936,329.3260766987814L370.9888635002092,307.78599694115644L373.5610041217591,325.513964324794L376.13314474330895,328.6940318036535L378.70528536485887,317.92689673368943L381.27742598640873,316.7878675668135L383.8495666079586,318.5860052349161L386.42170722950846,329.84742753061875L388.9938478510583,310.35072741006604L391.5659884726081,279.33931221648805L394.138129094158,315.21249805983064L396.7102697157079,329.11409756758025L399.2824103372578,302.6117413202255L401.85455095880764,326.94268422480354L404.4266915803575,333.17904665206686L406.99883220190736,331.1792518921023L409.5709728234573,326.1131014042315L412.1431134450071,323.9602839358372L414.71525406655695,324.93606666875047L417.2873946881068,301.4521663884773L419.8595353096567,327.2656796701043L422.43167593120654,340.5169438183621L425.0038165527564,338.4766706244723L427.5759571743063,330.80169592560594L430.1480977958562,295.58875647476566L432.720238417406,324.22432022742754L435.29237903895586,328.57632104760125L437.8645196605057,303.63191819852153L440.4366602820556,321.6194176449241L443.00880090360545,324.0280094039349L445.58094152515537,316.8195209711616L448.15308214670523,315.25672834886973L450.7252227682551,305.2073423242856L453.2973633898049,319.0026609662681L455.86950401135476,327.8153412368786L458.4416446329046,336.56610110552316L461.0137852544545,339.7780450154208L463.5859258760044,330.51914750843116L466.1580664975543,329.20626858152986L468.73020711910414,310.41525403820975L471.302347740654,330.3256349871635L473.8744883622038,319.2074049295824L476.44662898375367,304.1548784637792L479.01876960530353,327.3063888683802L481.59091022685345,334.3465613339797L484.1630508484033,323.15820895411804L486.7351914699532,328.3671329361209L489.30733209150304,337.7350495304433L491.8794727130529,310.6434549474358L494.4516133346027,316.8529112527528L497.02375395615263,318.4259740265417L499.5958945777025,329.82038941328443L502.16803519925236,330.2419116780439L504.7401758208022,326.47439553892997L507.3123164423521,296.0271158891519L509.88445706390195,328.1994459952443L512.4565976854518,307.77823743296983L515.0287383070016,308.85409633810264L517.6008789285515,289.005503795727L520.1730195501013,327.7116092475689L522.7451601716513,321.46858970118683L525.3173007932012,321.54416388814707L527.889441414751,317.92689673368943L530.4615820363009,324.19518110764193L533.0337226578507,317.0867051251767L535.6058632794005,313.29218181937114L538.1780039009504,304.36908240000236L540.7501445225004,331.77258481572113L543.3222851440502,341.5729751955958L545.8944257656001,275.38641265137926L548.4665663871499,331.90131764182536L551.0387070086998,321.61382650235237L553.6108476302496,332.7308185342256L556.1829882517995,340.99213540787L558.7551288733493,293.8453941617313L561.3272694948993,307.02958872242266L563.8994101164491,329.7391239493201L566.471550737999,333.8952518065641L569.0436913595488,323.6067966456024L571.6158319810987,324.5828197011531L574.1879726026486,338.120581659625L576.7601132241984,338.0982170893378L579.3322538457483,310.15703100556823L581.9043944672982,329.73091656712745L584.476535088848,307.08908314018925L587.0486757103979,319.39335457027596L589.6208163319478,308.40521006394755L592.1929569534976,316.39119320626105L594.7650975750475,325.6908927634546L597.3372381965974,318.3083725080519L599.9093788181472,321.0124646178929L602.4815194396971,336.0700942984889L605.053660061247,315.99975132495035L607.6258006827968,300.57898685672836L610.1979413043466,331.4894792869778L612.7700819258965,333.3390978873277L615.3422225474463,326.4225040555105L617.9143631689963,326.77001423045283L620.4865037905461,335.25463771536874L623.0586444120961,327.93969727798043L625.6307850336459,333.21292941300214L628.2029256551958,302.4632292128123L630.7750662767456,337.32774271381163L633.3472068982954,322.25164096140395L635.9193475198454,326.4568283182607L638.4914881413952,329.75763789553065L641.0636287629451,286.34028933436474L643.6357693844949,334.605085680231L646.2079100060448,328.7371005332785L648.7800506275946,336.347896343575L651.3521912491444,341.1069313416307L653.9243318706943,272.6956875779311L656.4964724922442,295.99730131710515L659.0686131137942,331.086208798279L661.640753735344,318.22169978474597L664.2128943568939,329.3107543100206L666.7850349784437,298.67189928508253L669.3571755999936,325.26242298972284L671.9293162215434,331.73790553089293L674.5014568430933,299.6885951263883L677.0735974646431,324.12463731043283L679.645738086193,330.07360754493936L682.2178787077428,322.9901323992686L684.7900193292927,334.7352595318467L687.3621599508425,300.54117245385766L689.9343005723923,336.12836616586895L692.5064411939422,339.93713678075807L695.078581815492,314.51917817466824L697.6507224370421,312.4163186848379L700.2228630585919,277.024051210215L702.7950036801418,307.46140116556563L705.3671443016916,341.24583236417374L707.9392849232415,320.43031762066965L710.5114255447913,291.9480687869171L713.0835661663411,319.93463579538377L715.6557067878911,331.52123464638424L718.2278474094409,324.3318536839108L720.7999880309908,334.21767648560103L723.3721286525406,316.79651189925596L725.9442692740905,307.16413298684967L728.5164098956403,277.7233682375564L731.0885505171904,321.9741575258751L733.6606911387402,312.8039081214459L736.23283176029,334.9281302824349L738.8049723818399,332.23404979519324L741.3771130033897,335.8232483579774L743.9492536249396,309.4721479014796L746.5213942464894,326.6363365840213L749.0935348680393,326.1594727494948L751.6656754895891,325.92618319048415L754.237816111139,290.50640241513037L756.8099567326889,297.37567908645605L759.3820973542387,297.3731265687466L761.9542379757886,310.83560746105087L764.5263785973384,322.9108404939327L767.0985192188884,327.3638642118673L769.6706598404382,335.79908500916173L772.2428004619882,314.00870376279954L774.814941083538,331.5019997322615L777.3870817050878,329.79310733206063L779.9592223266377,316.1912520544427L782.5313629481875,309.7498844040282L785.1035035697374,323.5397247822534L787.6756441912872,334.08591868932973L790.2477848128372,338.4312414531853L792.819925434387,343.71254487860307L795.3920660559368,302.7193476017504L797.9642066774868,318.33326956916204L800.5363472990366,332.1886980005129L803.1084879205865,329.01419435483456L805.6806285421363,341.8926111306945L808.2527691636863,320.84832243591796L810.8249097852361,312.9825515898371L813.397050406786,326.77029278623706L815.9691910283358,319.7086815386922L818.5413316498856,301.24363188174567L821.1134722714355,312.3310587673397L823.6856128929853,289.4484220577198L826.2577535145352,328.4829411379604L828.829894136085,336.3273505787027L831.4020347576351,344.0579435824944L833.9741753791849,321.5742005765709L836.5463160007347,339.77526582976924L839.1184566222846,304.48474313113246L841.6905972438344,324.6013026967209L844.2627378653843,315.4128361081259L846.8348784869341,341.8543684255476L849.4070191084841,329.4771941220592L851.9791597300339,321.10299524777963L854.5513003515838,342.22986207789603L857.1234409731336,324.21880190989737L859.6955815946834,335.0420486744439L862.2677222162333,331.6971144044452L864.8398628377831,317.7409907880209L867.4120034593332,335.7422250372765L869.984144080883,333.80743573010443L872.5562847024329,322.54724326729246L875.1284253239827,288.8078275027037L877.7005659455325,338.8485253005214L880.2727065670824,339.7127955987388L882.8448471886322,321.04240117188436L885.4169878101821,328.6352729188076L887.989128431732,332.5345277376194L890.5612690532819,342.0662169268303L893.1334096748317,318.9583451078051L895.7055502963816,334.5831635220718L898.2776909179314,327.4828348411399L900.8498315394812,321.7215547658221L903.4219721610312,327.44110063040296L905.994112782581,321.0326462575569L908.566253404131,333.4422345319221L911.1383940256808,327.92938161083237L913.7105346472307,328.6789734056687L916.2826752687805,337.6079516265238L918.8548158903304,264.9372863319898L921.4269565118802,313.29816075528964L923.99909713343,315.27897639909025L926.57123775498,309.7339903386906L929.1433783765298,332.26342741699017L931.7155189980797,307.1891411061483L934.2876596196295,330.9856629045409L936.8598002411795,339.1749143927625L939.4319408627293,342.00351183504057L942.0040814842791,327.85501449893724L944.5762221058291,320.30491836084644L947.1483627273789,342.80955805731156L949.7205033489288,338.5858380928274L952.2926439704786,322.8251527293149L954.8647845920285,293.91662797620995L957.4369252135783,317.0723877219906L960.0090658351282,309.4258348162497L962.581206456678,300.8864541825258L965.1533470782279,307.52692185552775L967.7254876997778,332.7529919387784L970.2976283213276,331.7711683686613L972.8697689428776,318.6205661790517L975.4419095644274,329.04536529328186L978.0140501859773,264.7902380079135L980.5861908075271,332.1770623794851L983.158331429077,341.73495538414704L985.7304720506269,318.2721456910889L988.3026126721767,317.43513289564373L990.8747532937266,313.9349938969052L993.4468939152764,307.3016193829589L996.0190345368263,339.63776122739966L998.5911751583761,316.57676961861614L1001.1633157799262,278.0484373759178L1003.735456401476,319.9653697835812L1006.3075970230258,325.29700760199694L1008.8797376445757,330.9835564402115L1011.4518782661255,335.936662436573L1014.0240188876754,339.3026668117437L1016.5961595092252,332.8016117572023L1019.1683001307752,321.36666923478776L1021.740440752325,339.51363458517903L1024.3125813738748,323.7589081306986L1026.8847219954248,281.51366404969485L1029.4568626169746,299.105466811729L1032.0290032385244,329.92040732547065L1034.6011438600742,330.2721522765843L1037.1732844816243,333.2410234934402L1039.745425103174,335.7534573896362L1042.3175657247239,335.1321632912803L1044.8897063462737,322.8826335346801L1047.4618469678235,323.0849979397589L1050.0339875893735,304.4094930156075L1052.6061282109233,322.2779253395573L1055.1782688324733,343.1736878170688L1057.7504094540232,321.91325212292685L1060.322550075573,332.4221222858505L1062.8946906971228,324.7418441033268L1065.4668313186728,304.4104797949217L1068.0389719402226,316.8359757893198L1070.6111125617724,308.91738858179065L1073.1832531833222,342.36663979531875L1075.755393804872,331.9664305115543L1078.327534426422,312.8947245896211L1080.8996750479719,322.7746540248168L1083.4718156695217,340.5731533715942L1086.0439562910715,324.84397940359867L1088.6160969126213,323.826398738037L1091.1882375341713,314.07491629065714L1093.7603781557211,335.8349313152822L1096.3325187772712,329.6217882422323L1098.904659398821,340.786784265771L1101.4768000203708,329.8061102432452L1104.0489406419206,328.42234524143913L1106.6210812634706,321.6929399863362L1109.1932218850204,320.60850229129846" style="fill: none;" fill="none"></path></g></g></g></g></g></g><g transform="translate(72, 378)" clip-path="url(#clip_1)"><clipPath id="clip_1"><rect width="1208" height="22"></rect></clipPath><g><g><line x1="80.33697326507453" y1="0" x2="80.33697326507453" y2="5" style="visibility: inherit;" fill="rgb(0, 0, 0)" stroke="rgb(204, 204, 204)" stroke-width="1px"></line><line x1="183.22259812706912" y1="0" x2="183.22259812706912" y2="5" style="visibility: inherit;" fill="rgb(0, 0, 0)" stroke="rgb(204, 204, 204)" stroke-width="1px"></line><line x1="286.10822298906373" y1="0" x2="286.10822298906373" y2="5" style="visibility: inherit;" fill="rgb(0, 0, 0)" stroke="rgb(204, 204, 204)" stroke-width="1px"></line><line x1="388.9938478510583" y1="0" x2="388.9938478510583" y2="5" style="visibility: inherit;" fill="rgb(0, 0, 0)" stroke="rgb(204, 204, 204)" stroke-width="1px"></line><line x1="491.8794727130529" y1="0" x2="491.8794727130529" y2="5" style="visibility: inherit;" fill="rgb(0, 0, 0)" stroke="rgb(204, 204, 204)" stroke-width="1px"></line><line x1="594.7650975750475" y1="0" x2="594.7650975750475" y2="5" style="visibility: inherit;" fill="rgb(0, 0, 0)" stroke="rgb(204, 204, 204)" stroke-width="1px"></line><line x1="697.6507224370421" y1="0" x2="697.6507224370421" y2="5" style="visibility: inherit;" fill="rgb(0, 0, 0)" stroke="rgb(204, 204, 204)" stroke-width="1px"></line><line x1="800.5363472990366" y1="0" x2="800.5363472990366" y2="5" style="visibility: inherit;" fill="rgb(0, 0, 0)" stroke="rgb(204, 204, 204)" stroke-width="1px"></line><line x1="903.4219721610312" y1="0" x2="903.4219721610312" y2="5" style="visibility: inherit;" fill="rgb(0, 0, 0)" stroke="rgb(204, 204, 204)" stroke-width="1px"></line><line x1="1006.3075970230258" y1="0" x2="1006.3075970230258" y2="5" style="visibility: inherit;" fill="rgb(0, 0, 0)" stroke="rgb(204, 204, 204)" stroke-width="1px"></line><line x1="1109.1932218850204" y1="0" x2="1109.1932218850204" y2="5" style="visibility: inherit;" fill="rgb(0, 0, 0)" stroke="rgb(204, 204, 204)" stroke-width="1px"></line></g><g transform="translate(0, 8)"><text x="80.33697326507453" y="0" dx="0em" dy="0.95em" style="text-anchor: middle; visibility: inherit; font-family: Roboto, sans-serif; font-size: 12px; font-weight: 200;" fill="rgb(50, 49, 63)" stroke="none" stroke-width="1px">0</text><text x="183.22259812706912" y="0" dx="0em" dy="0.95em" style="text-anchor: middle; visibility: inherit; font-family: Roboto, sans-serif; font-size: 12px; font-weight: 200;" fill="rgb(50, 49, 63)" stroke="none" stroke-width="1px">20k</text><text x="286.10822298906373" y="0" dx="0em" dy="0.95em" style="text-anchor: middle; visibility: inherit; font-family: Roboto, sans-serif; font-size: 12px; font-weight: 200;" fill="rgb(50, 49, 63)" stroke="none" stroke-width="1px">40k</text><text x="388.9938478510583" y="0" dx="0em" dy="0.95em" style="text-anchor: middle; visibility: inherit; font-family: Roboto, sans-serif; font-size: 12px; font-weight: 200;" fill="rgb(50, 49, 63)" stroke="none" stroke-width="1px">60k</text><text x="491.8794727130529" y="0" dx="0em" dy="0.95em" style="text-anchor: middle; visibility: inherit; font-family: Roboto, sans-serif; font-size: 12px; font-weight: 200;" fill="rgb(50, 49, 63)" stroke="none" stroke-width="1px">80k</text><text x="594.7650975750475" y="0" dx="0em" dy="0.95em" style="text-anchor: middle; visibility: inherit; font-family: Roboto, sans-serif; font-size: 12px; font-weight: 200;" fill="rgb(50, 49, 63)" stroke="none" stroke-width="1px">100k</text><text x="697.6507224370421" y="0" dx="0em" dy="0.95em" style="text-anchor: middle; visibility: inherit; font-family: Roboto, sans-serif; font-size: 12px; font-weight: 200;" fill="rgb(50, 49, 63)" stroke="none" stroke-width="1px">120k</text><text x="800.5363472990366" y="0" dx="0em" dy="0.95em" style="text-anchor: middle; visibility: inherit; font-family: Roboto, sans-serif; font-size: 12px; font-weight: 200;" fill="rgb(50, 49, 63)" stroke="none" stroke-width="1px">140k</text><text x="903.4219721610312" y="0" dx="0em" dy="0.95em" style="text-anchor: middle; visibility: inherit; font-family: Roboto, sans-serif; font-size: 12px; font-weight: 200;" fill="rgb(50, 49, 63)" stroke="none" stroke-width="1px">160k</text><text x="1006.3075970230258" y="0" dx="0em" dy="0.95em" style="text-anchor: middle; visibility: inherit; font-family: Roboto, sans-serif; font-size: 12px; font-weight: 200;" fill="rgb(50, 49, 63)" stroke="none" stroke-width="1px">180k</text><text x="1109.1932218850204" y="0" dx="0em" dy="0.95em" style="text-anchor: middle; visibility: inherit; font-family: Roboto, sans-serif; font-size: 12px; font-weight: 200;" fill="rgb(50, 49, 63)" stroke="none" stroke-width="1px">200k</text></g><line x1="0" y1="0" x2="1208.87625" y2="0" fill="rgb(0, 0, 0)" stroke="rgb(204, 204, 204)" stroke-width="1px"></line></g></g></g></g></svg>