<svg viewBox="0 0 1112.5999755859375 400" xmlns="http://www.w3.org/2000/svg"><g><g><g><g><g><line x1="30.78125" y1="373.1684860970956" x2="25.78125" y2="373.1684860970956" style="visibility: inherit;" fill="rgb(0, 0, 0)" stroke="rgb(204, 204, 204)" stroke-width="1px"></line><line x1="30.78125" y1="334.6956575997814" x2="25.78125" y2="334.6956575997814" style="visibility: inherit;" fill="rgb(0, 0, 0)" stroke="rgb(204, 204, 204)" stroke-width="1px"></line><line x1="30.78125" y1="296.22282910246713" x2="25.78125" y2="296.22282910246713" style="visibility: inherit;" fill="rgb(0, 0, 0)" stroke="rgb(204, 204, 204)" stroke-width="1px"></line><line x1="30.78125" y1="257.75000060515293" x2="25.78125" y2="257.75000060515293" style="visibility: inherit;" fill="rgb(0, 0, 0)" stroke="rgb(204, 204, 204)" stroke-width="1px"></line><line x1="30.78125" y1="219.27717210783874" x2="25.78125" y2="219.27717210783874" style="visibility: inherit;" fill="rgb(0, 0, 0)" stroke="rgb(204, 204, 204)" stroke-width="1px"></line><line x1="30.78125" y1="180.8043436105245" x2="25.78125" y2="180.8043436105245" style="visibility: inherit;" fill="rgb(0, 0, 0)" stroke="rgb(204, 204, 204)" stroke-width="1px"></line><line x1="30.78125" y1="142.3315151132103" x2="25.78125" y2="142.3315151132103" style="visibility: inherit;" fill="rgb(0, 0, 0)" stroke="rgb(204, 204, 204)" stroke-width="1px"></line><line x1="30.78125" y1="103.85868661589608" x2="25.78125" y2="103.85868661589608" style="visibility: inherit;" fill="rgb(0, 0, 0)" stroke="rgb(204, 204, 204)" stroke-width="1px"></line><line x1="30.78125" y1="65.38585811858187" x2="25.78125" y2="65.38585811858187" style="visibility: inherit;" fill="rgb(0, 0, 0)" stroke="rgb(204, 204, 204)" stroke-width="1px"></line><line x1="30.78125" y1="26.913029621267647" x2="25.78125" y2="26.913029621267647" style="visibility: inherit;" fill="rgb(0, 0, 0)" stroke="rgb(204, 204, 204)" stroke-width="1px"></line></g><g transform="translate(20.78125, 0)"><text x="0" y="373.1684860970956" dx="0em" dy="0.3em" style="text-anchor: end; visibility: inherit; font-family: Roboto, sans-serif; font-size: 12px; font-weight: 200;" fill="rgb(50, 49, 63)" stroke="none" stroke-width="1px">28</text><text x="0" y="334.6956575997814" dx="0em" dy="0.3em" style="text-anchor: end; visibility: inherit; font-family: Roboto, sans-serif; font-size: 12px; font-weight: 200;" fill="rgb(50, 49, 63)" stroke="none" stroke-width="1px">30</text><text x="0" y="296.22282910246713" dx="0em" dy="0.3em" style="text-anchor: end; visibility: inherit; font-family: Roboto, sans-serif; font-size: 12px; font-weight: 200;" fill="rgb(50, 49, 63)" stroke="none" stroke-width="1px">32</text><text x="0" y="257.75000060515293" dx="0em" dy="0.3em" style="text-anchor: end; visibility: inherit; font-family: Roboto, sans-serif; font-size: 12px; font-weight: 200;" fill="rgb(50, 49, 63)" stroke="none" stroke-width="1px">34</text><text x="0" y="219.27717210783874" dx="0em" dy="0.3em" style="text-anchor: end; visibility: inherit; font-family: Roboto, sans-serif; font-size: 12px; font-weight: 200;" fill="rgb(50, 49, 63)" stroke="none" stroke-width="1px">36</text><text x="0" y="180.8043436105245" dx="0em" dy="0.3em" style="text-anchor: end; visibility: inherit; font-family: Roboto, sans-serif; font-size: 12px; font-weight: 200;" fill="rgb(50, 49, 63)" stroke="none" stroke-width="1px">38</text><text x="0" y="142.3315151132103" dx="0em" dy="0.3em" style="text-anchor: end; visibility: inherit; font-family: Roboto, sans-serif; font-size: 12px; font-weight: 200;" fill="rgb(50, 49, 63)" stroke="none" stroke-width="1px">40</text><text x="0" y="103.85868661589608" dx="0em" dy="0.3em" style="text-anchor: end; visibility: inherit; font-family: Roboto, sans-serif; font-size: 12px; font-weight: 200;" fill="rgb(50, 49, 63)" stroke="none" stroke-width="1px">42</text><text x="0" y="65.38585811858187" dx="0em" dy="0.3em" style="text-anchor: end; visibility: inherit; font-family: Roboto, sans-serif; font-size: 12px; font-weight: 200;" fill="rgb(50, 49, 63)" stroke="none" stroke-width="1px">44</text><text x="0" y="26.913029621267647" dx="0em" dy="0.3em" style="text-anchor: end; visibility: inherit; font-family: Roboto, sans-serif; font-size: 12px; font-weight: 200;" fill="rgb(50, 49, 63)" stroke="none" stroke-width="1px">46</text></g><line x1="30.78125" y1="0" x2="30.78125" y2="378" fill="rgb(0, 0, 0)" stroke="rgb(204, 204, 204)" stroke-width="1px"></line></g></g><g transform="translate(30, 0)" clip-path="url(#clip_0)"><clipPath id="clip_0"><rect width="1081" height="378"></rect></clipPath><g><g><g><line x1="38.88366551341727" y1="0" x2="38.88366551341727" y2="378" fill="rgb(0, 0, 0)" stroke="rgb(60, 60, 60)" stroke-width="1px" opacity="0.25"></line><line x1="142.43246832063306" y1="0" x2="142.43246832063306" y2="378" fill="rgb(0, 0, 0)" stroke="rgb(60, 60, 60)" stroke-width="1px" opacity="0.25"></line><line x1="245.98127112784888" y1="0" x2="245.98127112784888" y2="378" fill="rgb(0, 0, 0)" stroke="rgb(60, 60, 60)" stroke-width="1px" opacity="0.25"></line><line x1="349.5300739350647" y1="0" x2="349.5300739350647" y2="378" fill="rgb(0, 0, 0)" stroke="rgb(60, 60, 60)" stroke-width="1px" opacity="0.25"></line><line x1="453.0788767422805" y1="0" x2="453.0788767422805" y2="378" fill="rgb(0, 0, 0)" stroke="rgb(60, 60, 60)" stroke-width="1px" opacity="0.25"></line><line x1="556.6276795494963" y1="0" x2="556.6276795494963" y2="378" fill="rgb(0, 0, 0)" stroke="rgb(60, 60, 60)" stroke-width="1px" opacity="0.25"></line><line x1="660.1764823567121" y1="0" x2="660.1764823567121" y2="378" fill="rgb(0, 0, 0)" stroke="rgb(60, 60, 60)" stroke-width="1px" opacity="0.25"></line><line x1="763.7252851639279" y1="0" x2="763.7252851639279" y2="378" fill="rgb(0, 0, 0)" stroke="rgb(60, 60, 60)" stroke-width="1px" opacity="0.25"></line><line x1="867.2740879711436" y1="0" x2="867.2740879711436" y2="378" fill="rgb(0, 0, 0)" stroke="rgb(60, 60, 60)" stroke-width="1px" opacity="0.25"></line><line x1="970.8228907783595" y1="0" x2="970.8228907783595" y2="378" fill="rgb(0, 0, 0)" stroke="rgb(60, 60, 60)" stroke-width="1px" opacity="0.25"></line><line x1="1074.3716935855753" y1="0" x2="1074.3716935855753" y2="378" fill="rgb(0, 0, 0)" stroke="rgb(60, 60, 60)" stroke-width="1px" opacity="0.25"></line></g><g><line x1="0" y1="373.1684860970956" x2="1081.81875" y2="373.1684860970956" fill="rgb(0, 0, 0)" stroke="rgb(60, 60, 60)" stroke-width="1px" opacity="0.25"></line><line x1="0" y1="334.6956575997814" x2="1081.81875" y2="334.6956575997814" fill="rgb(0, 0, 0)" stroke="rgb(60, 60, 60)" stroke-width="1px" opacity="0.25"></line><line x1="0" y1="296.22282910246713" x2="1081.81875" y2="296.22282910246713" fill="rgb(0, 0, 0)" stroke="rgb(60, 60, 60)" stroke-width="1px" opacity="0.25"></line><line x1="0" y1="257.75000060515293" x2="1081.81875" y2="257.75000060515293" fill="rgb(0, 0, 0)" stroke="rgb(60, 60, 60)" stroke-width="1px" opacity="0.25"></line><line x1="0" y1="219.27717210783874" x2="1081.81875" y2="219.27717210783874" fill="rgb(0, 0, 0)" stroke="rgb(60, 60, 60)" stroke-width="1px" opacity="0.25"></line><line x1="0" y1="180.8043436105245" x2="1081.81875" y2="180.8043436105245" fill="rgb(0, 0, 0)" stroke="rgb(60, 60, 60)" stroke-width="1px" opacity="0.25"></line><line x1="0" y1="142.3315151132103" x2="1081.81875" y2="142.3315151132103" fill="rgb(0, 0, 0)" stroke="rgb(60, 60, 60)" stroke-width="1px" opacity="0.25"></line><line x1="0" y1="103.85868661589608" x2="1081.81875" y2="103.85868661589608" fill="rgb(0, 0, 0)" stroke="rgb(60, 60, 60)" stroke-width="1px" opacity="0.25"></line><line x1="0" y1="65.38585811858187" x2="1081.81875" y2="65.38585811858187" fill="rgb(0, 0, 0)" stroke="rgb(60, 60, 60)" stroke-width="1px" opacity="0.25"></line><line x1="0" y1="26.913029621267647" x2="1081.81875" y2="26.913029621267647" fill="rgb(0, 0, 0)" stroke="rgb(60, 60, 60)" stroke-width="1px" opacity="0.25"></line></g></g></g><g><g><line x1="0" y1="911.7880850594946" x2="1081.81875" y2="911.7880850594946" fill="rgb(0, 0, 0)" stroke="rgb(153, 153, 153)" stroke-width="1.5px"></line></g></g><g><g><line x1="38.88366551341727" y1="0" x2="38.88366551341727" y2="378" fill="rgb(0, 0, 0)" stroke="rgb(153, 153, 153)" stroke-width="1.5px"></line></g></g><g><g><g><g><g><path style="fill: none;" stroke="rgb(255, 112, 67)" stroke-width="2px" d="M49.23854579413885,393.329601479878L51.827265864319244,371.2943712617169L54.41598593449964,392.53289440396145L57.00470600468004,369.8401105797215L59.59342607486043,371.3136859390615L62.182146145040825,383.1094093553308L64.77086621522122,393.01491855651L67.35958628540162,342.5888488105669L69.948306355582,357.9461320111514L72.5370264257624,333.86188221681437L75.1257464959428,322.45734669902185L77.71446656612319,316.8573448941652L80.3031866363036,320.7579870178133L82.89190670648398,329.2622503172822L85.48062677666438,316.1452900374492L88.06934684684478,315.22260369482547L90.65806691702517,311.22049591787015L93.24678698720557,299.4738616093355L95.83550705738595,295.9627713076409L98.42422712756635,279.7042297666207L101.01294719774675,266.234475054746L103.60166726792714,256.2417703627771L106.19038733810754,276.5311474833315L108.77910740828794,287.3638962119871L111.36782747846833,319.6595452197714L113.95654754864873,292.51476895258185L116.54526761882913,293.69495859159247L119.13398768900952,282.3118918724144L121.7227077591899,264.2921977824741L124.31142782937032,248.08032551330237L126.9001478995507,269.38543775653517L129.4888679697311,236.4786597020146L132.0775880399115,232.06622315285574L134.66630811009188,238.84368259109922L137.2550281802723,271.6447282005212L139.84374825045268,236.72794084526467L142.43246832063306,241.76017761106166L145.02118839081348,236.68438123319666L147.60990846099386,244.33513755283823L150.19862853117425,246.08324793791854L152.78734860135467,276.071021072591L155.37606867153505,254.15022408231638L157.96478874171544,269.61158920814864L160.55350881189585,235.83448596691755L163.14222888207624,232.3680336273682L165.73094895225663,187.85563103592887L168.319669022437,253.42986463740826L170.90838909261743,221.56775130073052L173.4971091627978,177.18478460974907L176.0858292329782,186.53534140503282L178.6745493031586,203.81265347772108L181.263269373339,242.34857617427372L183.8519894435194,251.62446703165125L186.44070951369977,219.29239279062568L189.0294295838802,214.15755289753395L191.61814965406057,209.9310819827719L194.206869724241,203.38116537973602L196.79558979442137,227.2719558413761L199.38430986460176,200.62373328978583L201.97302993478215,206.50315913144274L204.56175000496253,199.37030241266706L207.15047007514295,204.26519209914466L209.73919014532336,246.85832732834191L212.32791021550375,255.28171832077246L214.91663028568414,207.1217187526033L217.50535035586452,185.38783147253142L220.0940704260449,214.33451897678154L222.68279049622532,233.12970575545182L225.2715105664057,233.18857991050115L227.86023063658612,212.11577319412837L230.4489507067665,198.20306582808257L233.0376707769469,209.9198292489184L235.62639084712728,220.65575010133145L238.21511091730767,190.57908236319497L240.80383098748808,244.65503231450708L243.3925510576685,204.49316235444144L245.98127112784888,220.42084972133313L248.56999119802927,217.24839550280345L251.15871126820966,189.97596240322954L253.74743133839004,216.54484705764287L256.33615140857046,176.2071913865068L258.92487147875084,181.54189837688418L261.51359154893123,190.9923851214578L264.1023116191116,198.39068458890614L266.69103168929206,178.19668674973326L269.27975175947245,163.47340990495454L271.86847182965283,157.25926636484397L274.4571918998332,127.07492821844352L277.0459119700136,116.91440400924485L279.634632040194,141.33731700975017L282.2233521103744,165.1304162488769L284.8120721805548,171.6202185413565L287.4007922507352,168.59749125358508L289.9895123209156,163.6152591195962L292.578232391096,149.91001956354233L295.16695246127637,162.63418502748937L297.75567253145675,168.94145508362618L300.3443926016372,176.21582208277056L302.9331126718176,160.94812233995708L305.52183274199797,167.53678831645982L308.11055281217835,176.84765919202383L310.69927288235874,189.35043815135666L313.2879929525391,216.7727544749396L315.87671302271957,204.79590045531876L318.46543309289996,180.53295012229805L321.05415316308034,181.74906308833536L323.64287323326073,165.06894823415084L326.2315933034411,194.56306849291383L328.8203133736215,188.36310387367988L331.4090334438019,192.33126261751954L333.9977535139823,186.71256162103776L336.5864735841627,160.26016823449126L339.1751936543431,145.47224812598705L341.7639137245235,123.60517143338122L344.3526337947039,138.79271085719054L346.94135386488426,138.4522816172196L349.5300739350647,171.52664501219803L352.1187940052451,184.95209016514946L354.7075140754255,177.08911879737718L357.29623414560587,156.854022477837L359.88495421578625,179.91778071210962L362.47367428596664,168.13825446106972L365.062394356147,174.07413870858878L367.6511144263274,170.41050775787022L370.23983449650785,149.74345185923497L372.82855456668824,146.3660992819812L375.4172746368686,146.0356716456745L378.005994707049,182.29196987386078L380.59471477722946,177.69697448493983L383.18343484740984,118.28246173789069L385.7721549175902,90.35347482911908L388.3608749877706,124.9923203166924L390.949595057951,157.18277781708068L393.5383151281314,174.034412059977L396.1270351983118,178.13131272864598L398.71575526849216,198.35739422108557L401.30447533867255,184.63055064322128L403.89319540885293,181.0850522634982L406.4819154790334,191.86220069576433L409.07063554921376,189.86764929007364L411.65935561939415,223.2477977508212L414.2480756895746,196.8303782734888L416.836795759755,168.75360851905901L419.42551582993536,129.08711159101708L422.01423590011575,131.89561008062614L424.60295597029614,118.04270220620744L427.1916760404765,104.15146981238186L429.7803961106569,128.895285092637L432.3691161808373,136.96386133761968L434.9578362510177,183.99887359266054L437.54655632119807,173.6920459781834L440.1352763913785,171.63270086258026L442.7239964615589,144.06663538915552L445.3127165317393,156.75081245248137L447.9014366019197,142.7643226139612L450.4901566721001,124.7240766319409L453.0788767422805,156.26518444054707L455.6675968124609,179.80634198490299L458.2563168826413,165.48966812346572L460.84503695282166,135.28508561928587L463.43375702300204,143.3435373698788L466.02247709318243,136.46249444227712L468.6111971633628,168.33947794525116L471.1999172335432,140.07700693185674L473.7886373037236,166.1123642142082L476.37735737390403,162.65358348097502L478.9660774440845,172.29237434828124L481.55479751426486,162.85112594615907L484.14351758444525,161.78029773869162L486.73223765462564,149.51370673168452L489.320957724806,159.16055512990934L491.9096777949864,165.15451282168516L494.4983978651668,181.74060373137266L497.0871179353472,208.5872871929155L499.67583800552757,205.0758043432679L502.26455807570795,192.589862944729L504.85327814588834,120.40881060919986L507.4419982160687,160.16267896758717L510.03071828624917,152.5731959547494L512.6194383564296,156.97499390964106L515.20815842661,152.24555790673554L517.7968784967903,125.69866938474527L520.3855985669708,191.10790514954755L522.9743186371511,195.70653238544796L525.5630387073315,192.57044752191408L528.151758777512,168.92487320819828L530.7404788476923,172.42357640713934L533.3291989178728,173.12066168062367L535.9179189880531,146.88772034260592L538.5066390582335,114.91127247242787L541.095359128414,140.53982663609722L543.6840791985943,129.53058433444784L546.2727992687747,149.91674909731867L548.8615193389551,153.4260772608716L551.4502394091355,176.60804602969574L554.0389594793158,165.9880399947114L556.6276795494963,148.60220884491096L559.2163996196766,154.09569967548273L561.8051196898571,159.73916740425418L564.3938397600375,134.245090046833L566.9825598302178,149.05670219662017L569.5712799003983,161.67985335561602L572.1599999705786,143.10911593657508L574.748720040759,125.99022343453848L577.3374401109394,128.0736522732466L579.9261601811198,144.35932020328588L582.5148802513002,125.41972107104871L585.1036003214806,140.0501878100723L587.6923203916609,131.96681266059656L590.2810404618414,179.01184054759156L592.8697605320218,144.7486306079601L595.4584806022023,144.5696919229946L598.0472006723827,142.95663666228174L600.635920742563,140.0985064513901L603.2246408127435,180.43340371116142L605.8133608829238,140.16772763792522L608.4020809531042,140.77356160256033L610.9908010232846,130.62592431828853L613.579521093465,106.51456298339929L616.1682411636453,189.81297056130362L618.7569612338258,207.9504602170589L621.3456813040061,173.94990512297616L623.9344013741866,185.75533201732435L626.523121444367,164.1988559849184L629.1118415145473,176.37407379381963L631.7005615847278,167.075615927619L634.2892816549081,168.74826666418298L636.8780017250886,179.8556709768637L639.4667217952689,165.18482383170794L642.0554418654493,155.46825125000166L644.6441619356297,159.4362104552354L647.2328820058101,159.0636685202573L649.8216020759904,170.7603448437447L652.4103221461709,150.97405581529287L654.9990422163512,112.89419431124055L657.5877622865316,132.96239002434692L660.1764823567121,129.96845998880335L662.7652024268924,190.3841849298632L665.353922497073,182.18894967945405L667.9426425672533,132.58137034464454L670.5313626374337,148.5786836469882L673.1200827076141,184.92119395153432L675.7088027777945,172.92108551027226L678.2975228479748,152.21992596327075L680.8862429181552,150.2285626513714L683.4749629883356,161.26980774192188L686.063683058516,164.86875864936667L688.6524031286964,177.58062444306262L691.2411231988767,215.07023998107212L693.8298432690572,175.4686316378981L696.4185633392375,174.00151895649117L699.0072834094179,122.3569423683132L701.5960034795984,135.43099543668927L704.1847235497787,107.26259731825118L706.7734436199592,144.8090407912923L709.3621636901395,158.81037565218017L711.9508837603199,155.0954878422705L714.5396038305003,162.88680263399183L717.1283239006807,176.51082720216866L719.717043970861,189.2859138377894L722.3057640410415,208.98752037077742L724.8944841112218,215.08367269722413L727.4832041814022,202.20135292384845L730.0719242515826,165.55957408740906L732.660644321763,132.9913382378394L735.2493643919436,176.27949730510923L737.8380844621239,160.8803064646533L740.4268045323043,148.1330581219223L743.0155246024847,178.53324811169915L745.6042446726651,192.90641312188225L748.1929647428454,196.236482392576L750.7816848130259,156.55159534798238L753.3704048832062,115.79837677913412L755.9591249533867,117.42200746392271L758.547845023567,155.52731439758304L761.1365650937474,157.53013128372962L763.7252851639279,121.42848213457869L766.3140052341082,140.48211365070483L768.9027253042887,105.53855475347032L771.491445374469,114.26311565301194L774.0801654446494,165.13722536912962L776.6688855148298,163.24245096109075L779.2576055850102,155.7711539228566L781.8463256551905,149.08339114978588L784.435045725371,169.36442616625996L787.0237657955513,197.9083031067746L789.6124858657317,146.95326201190306L792.2012059359121,106.21909817139037L794.7899260060925,75.30715028966213L797.378646076273,112.9454218021641L799.9673661464533,72.32600916927471L802.5560862166337,128.05572862489115L805.1448062868141,115.69624164904104L807.7335263569946,151.0777553497576L810.322246427175,111.47220796733916L812.9109664973554,136.84204414433958L815.4996865675357,143.13258579258496L818.0884066377162,92.11861727128866L820.6771267078965,123.1639476788616L823.2658467780769,117.5211700135858L825.8545668482573,94.92735556426406L828.4432869184377,128.00986125751456L831.0320069886181,103.0985099883781L833.6207270587985,93.19233482579372L836.2094471289789,99.32557323555669L838.7981671991593,150.83704699221062L841.3868872693397,113.4664016389637L843.97560733952,94.63507983903877L846.5643274097005,127.41387537532249L849.1530474798808,135.3572016179932L851.7417675500612,121.21015893247015L854.3304876202416,95.65255091934641L856.919207690422,119.62967795536295L859.5079277606023,139.61355230084615L862.0966478307828,128.55006059237868L864.6853679009632,151.49904769645L867.2740879711436,146.80948375498076L869.862808041324,138.2080021681076L872.4515281115043,123.86279384101984L875.0402481816849,135.78590924037644L877.6289682518652,121.82049334386902L880.2176883220457,119.47569427551477L882.806408392226,176.72123949431025L885.3951284624064,166.69067320866225L887.9838485325868,169.04816923975045L890.5725686027672,150.1503976728322L893.1612886729475,119.96277267531177L895.750008743128,135.35201455989312L898.3387288133084,141.90982072809726L900.9274488834888,119.74578352876122L903.5161689536692,99.9433010723055L906.1048890238495,125.96464508797226L908.69360909403,157.5856258291963L911.2823291642103,112.80374871339376L913.8710492343907,93.89603116390522L916.4597693045711,112.84458502954683L919.0484893747515,145.90384871355025L921.6372094449318,159.39009284410344L924.2259295151123,147.9614402290277L926.8146495852927,183.65228169379668L929.403369655473,192.01598785303094L931.9920897256535,178.5954498225084L934.5808097958338,141.66349735340782L937.1695298660143,150.30965161831165L939.7582499361946,157.16538456562463L942.346970006375,194.73922492605251L944.9356900765554,187.8565352140124L947.5244101467359,127.30457761222786L950.1131302169163,141.01253067913103L952.7018502870967,159.59428117409539L955.290570357277,168.65919091121114L957.8792904274575,180.99789711690656L960.4680104976379,142.86876665555496L963.0567305678182,141.86889376955608L965.6454506379987,189.64807049333416L968.234170708179,184.88370650601027L970.8228907783595,158.30491273372107L973.4116108485398,134.79321948423095L976.0003309187202,119.66899477021309L978.5890509889006,98.61455559694322L981.177771059081,100.84332534834884L983.7664911292613,131.7934114171135L986.3552111994418,122.2692166107887L988.9439312696221,117.19672561942066L991.5326513398026,108.04146623142448L994.121371409983,117.58301129984048L996.7100914801633,120.17858679015148L999.2988115503438,126.97493146419912L1001.8875316205241,133.7059932631023L1004.4762516907045,132.3911270990821L1007.0649717608849,131.52330804535316L1009.6536918310653,160.5207792161204L1012.2424119012456,180.02033883559278L1014.8311319714262,184.13901478839756L1017.4198520416065,189.2681717447524L1020.008572111787,154.9836217602585L1022.5972921819673,140.15613669443331L1025.1860122521477,110.51774482361873L1027.7747323223282,134.6921716676181L1030.3634523925084,167.10445712119048L1032.9521724626888,158.34812670171155L1035.5408925328693,172.13214409820768L1038.1296126030497,99.09101580419473L1040.71833267323,98.77313992040595L1043.3070527434104,135.55421787547206L1045.8957728135908,148.11411276822196L1048.4844928837713,85.3383960923725L1051.0732129539517,113.31631978480446L1053.6619330241322,123.15229909831824L1056.2506530943124,98.25337474001475L1058.8393731644928,114.47994058124283L1061.4280932346733,120.63505867507472L1064.0168133048537,97.79179312203125L1066.6055333750342,97.9925496233134L1069.1942534452144,109.2438885785635L1071.7829735153948,115.34438867156368L1074.3716935855753,137.2698601307545" fill="none"></path></g></g></g></g><g opacity="0.2"><g><g><g><path stroke="rgb(255, 112, 67)" stroke-width="2px" d="M46.64982572395846,438.9116747772809L49.23854579413885,295.2995481420919L51.827265864319244,340.81171518712154L54.41598593449964,422.9043223137416L57.00470600468004,336.75381391325493L59.59342607486043,373.4869233668101L62.182146145040825,400.62468390770084L64.77086621522122,407.7833401188696L67.35958628540162,267.2241606363948L69.948306355582,380.9319126178282L72.5370264257624,297.7826910778841L75.1257464959428,305.36394902572437L77.71446656612319,308.46129174202366L80.3031866363036,326.6072995822644L82.89190670648398,342.016486034955L85.48062677666438,296.47184785457597L88.06934684684478,313.8386585180765L90.65806691702517,305.217553737539L93.24678698720557,281.854296674539L95.83550705738595,290.69620517545235L98.42422712756635,255.31661005301476L101.01294719774675,246.02993872418574L103.60166726792714,241.2527559391446L106.19038733810754,306.9651612492077L108.77910740828794,303.61300267414964L111.36782747846833,368.10298898259055L113.95654754864873,251.79761955430274L116.54526761882913,295.4652426587449L119.13398768900952,265.2372940584963L121.7227077591899,237.2626587987533L124.31142782937032,223.76251827076794L126.9001478995507,301.34310520575934L129.4888679697311,187.11849346877017L132.0775880399115,225.44756839738506L134.66630811009188,249.00987168554937L137.2550281802723,320.8462964319593L139.84374825045268,184.35275992906725L142.43246832063306,249.30853274966694L145.02118839081348,229.07068667250556L147.60990846099386,255.81127202677803L150.19862853117425,248.7054135147819L152.78734860135467,321.0526807668071L155.37606867153505,221.26902860032206L157.96478874171544,292.80363689545044L160.55350881189585,185.16883110696682L163.14222888207624,227.1683551181607L165.73094895225663,121.08702714966937L168.319669022437,351.79121503883215L170.90838909261743,173.7745812959461L173.4971091627978,110.61033457347072L176.0858292329782,200.56117659793392L178.6745493031586,229.72862158672623L181.263269373339,300.15246021906654L183.8519894435194,265.5383033177125L186.44070951369977,170.7942814290982L189.0294295838802,206.45529305789728L191.61814965406057,203.5913756106294L194.206869724241,193.55629047518244L196.79558979442137,263.10814153383507L199.38430986460176,160.651399462401L201.97302993478215,215.32229789392815L204.56175000496253,188.67101733450366L207.15047007514295,211.607526628861L209.73919014532336,310.7480301721376L212.32791021550375,267.9168048094183L214.91663028568414,134.88171940034957L217.50535035586452,152.78700055242373L220.0940704260449,257.7545502331567L222.68279049622532,261.32248592345746L225.2715105664057,233.2768911430753L227.86023063658612,180.50656311956897L230.4489507067665,177.334004779014L233.0376707769469,227.4949743801723L235.62639084712728,236.7596313799509L238.21511091730767,145.46408075599032L240.80383098748808,325.7689572414754L243.3925510576685,144.250357414343L245.98127112784888,244.3123807716708L248.56999119802927,212.48971417500874L251.15871126820966,149.0673127538686L253.74743133839004,256.3981740392626L256.33615140857046,115.7007078798027L258.92487147875084,189.54395886245018L261.51359154893123,205.1681152383183L264.1023116191116,209.4881337900788L266.69103168929206,147.905689990974L269.27975175947245,141.38849463778652L271.86847182965283,147.93805105467817L274.4571918998332,81.79842099884291L277.0459119700136,101.6736176954468L279.634632040194,177.97168651050825L282.2233521103744,200.82006510756702L284.8120721805548,181.35492198007586L287.4007922507352,164.06340032192784L289.9895123209156,156.14191091861312L292.578232391096,129.3521602294614L295.16695246127637,181.7204332234099L297.75567253145675,178.4023601678316L300.3443926016372,187.12737258148715L302.9331126718176,138.04657272573687L305.52183274199797,177.41978728121384L308.11055281217835,190.8139655053698L310.69927288235874,208.1046065903558L313.2879929525391,257.90622896031414L315.87671302271957,186.8306194258873L318.46543309289996,144.13852462276682L321.05415316308034,183.57323253739136L323.64287323326073,140.0487759528739L326.2315933034411,238.8042488810584L328.8203133736215,179.06315694482882L331.4090334438019,198.28350073327908L333.9977535139823,178.28451012631493L336.5864735841627,120.5815781546714L339.1751936543431,123.29036796323054L341.7639137245235,90.80455639447253L344.3526337947039,161.5740199929047L346.94135386488426,137.94163775726315L349.5300739350647,221.13819010466565L352.1187940052451,205.09025789457664L354.7075140754255,165.29466174571866L357.29623414560587,126.50137799852695L359.88495421578625,214.51341806351837L362.47367428596664,150.4689650845098L365.062394356147,182.97796507986757L367.6511144263274,164.91506133179232L370.23983449650785,118.74286801128228L372.82855456668824,141.3000704161006L375.4172746368686,145.5400301912143L378.005994707049,236.6764172161402L380.59471477722946,170.80448140155826L383.18343484740984,29.160692617317046L385.7721549175902,48.459994465961536L388.3608749877706,176.95058854805228L390.949595057951,205.46846406766312L393.5383151281314,199.31186342432176L396.1270351983118,184.27666373164956L398.71575526849216,228.69651645974503L401.30447533867255,164.04028527642487L403.89319540885293,175.76680469391354L406.4819154790334,208.02792334416347L409.07063554921376,186.87582218153756L411.65935561939415,273.31802044194245L414.2480756895746,157.20424905749027L416.836795759755,126.63845388741431L419.42551582993536,69.58736619895414L422.01423590011575,136.1083578150398L424.60295597029614,97.26334039457956L427.1916760404765,83.31462122164314L429.7803961106569,166.0110080130198L432.3691161808373,149.06672570509392L434.9578362510177,254.5513919752216L437.54655632119807,158.23180455646772L440.1352763913785,168.54368318917548L442.7239964615589,102.71753717901841L445.3127165317393,175.7770780474704L447.9014366019197,121.78458785618082L450.4901566721001,97.66370765891013L453.0788767422805,203.5768461534561L455.6675968124609,215.11807830143695L458.2563168826413,144.01465733130968L460.84503695282166,89.97821186301604L463.43375702300204,155.43121499576827L466.02247709318243,126.14093005087449L468.6111971633628,216.15495319971242L471.1999172335432,97.683300411765L473.7886373037236,205.16540013773545L476.37735737390403,157.46541238112522L478.9660774440845,186.75056064924058L481.55479751426486,148.68925334297583L484.14351758444525,160.1740554274907L486.73223765462564,131.11382022117402L489.320957724806,173.63082772724675L491.9096777949864,174.14544935934907L494.4983978651668,206.619740095904L497.0871179353472,248.8573123852299L499.67583800552757,199.80858006879637L502.26455807570795,173.8609508469206L504.85327814588834,12.137232105906433L507.4419982160687,219.79348150516822L510.03071828624917,141.18897143549273L512.6194383564296,163.5776908419784L515.20815842661,145.1514039023773L517.7968784967903,85.87833660175993L520.3855985669708,289.22175879675115L522.9743186371511,202.60447323929841L525.5630387073315,187.86632022661342L528.151758777512,133.45651173762442L530.7404788476923,177.67163120555085L533.3291989178728,174.16628959085014L535.9179189880531,107.5383083355794L538.5066390582335,66.94660066716085L541.095359128414,178.98265788160106L543.6840791985943,113.01672088197373L546.2727992687747,180.49599624162474L548.8615193389551,158.69006950620093L551.4502394091355,211.38099918293202L554.0389594793158,150.058030942235L556.6276795494963,122.52346212021024L559.2163996196766,162.33593592134022L561.8051196898571,168.20436899741142L564.3938397600375,96.00397401070101L566.9825598302178,171.2741204213009L569.5712799003983,180.61458009410975L572.1599999705786,115.25300980801372L574.748720040759,100.31188468148372L577.3374401109394,131.1987955313087L579.9261601811198,168.78782209834478L582.5148802513002,97.01032237269321L585.1036003214806,161.99588791860785L587.6923203916609,119.84174993638312L590.2810404618414,249.57938237808412L592.8697605320218,93.35381569851286L595.4584806022023,144.30128389554636L598.0472006723827,140.53705377121256L600.635920742563,135.81131113505256L603.2246408127435,240.93574960081835L605.8133608829238,79.76921352807067L608.4020809531042,141.682312549513L610.9908010232846,115.40446839188068L613.579521093465,70.34752098106567L616.1682411636453,314.76058192816026L618.7569612338258,235.1566947006919L621.3456813040061,122.94907248185197L623.9344013741866,203.46347235884633L626.523121444367,131.86414193630966L629.1118415145473,194.63690050717142L631.7005615847278,153.12792912831813L634.2892816549081,171.25724276902884L636.8780017250886,196.5167774458849L639.4667217952689,143.1785531139742L642.0554418654493,140.89339237744224L644.6441619356297,165.38814926308618L647.2328820058101,158.50485561778993L649.8216020759904,188.30535932897592L652.4103221461709,121.29462227261497L654.9990422163512,55.77440205516211L657.5877622865316,163.06468359400645L660.1764823567121,125.47756493548808L662.7652024268924,281.00777234145295L665.353922497073,169.8960968038405L667.9426425672533,58.170001342430425L670.5313626374337,172.5746536005037L673.1200827076141,239.4349594083534L675.7088027777945,154.92092284837918L678.2975228479748,121.16818664276865L680.8862429181552,147.24151768352243L683.4749629883356,177.8316753777475L686.063683058516,170.267185010534L688.6524031286964,196.64842313360646L691.2411231988767,271.30466328808654L693.8298432690572,116.06621912313675L696.4185633392375,171.80084993438095L699.0072834094179,44.89007748604624L701.5960034795984,155.04207503925343L704.1847235497787,65.0100001405941L706.7734436199592,201.1287060008541L709.3621636901395,179.81237794351196L711.9508837603199,149.52315612740628L714.5396038305003,174.57377482157366L717.1283239006807,196.94686405443355L719.717043970861,208.44854379122046L722.3057640410415,238.5399301702595L724.8944841112218,224.22790118689414L727.4832041814022,182.87787326378495L730.0719242515826,110.59690583274994L732.660644321763,84.1389844634851L735.2493643919436,241.21173590601393L737.8380844621239,137.78152020396965L740.4268045323043,129.01218560782587L743.0155246024847,224.1335330963646L745.6042446726651,214.46616063715678L748.1929647428454,201.23158629861646L750.7816848130259,97.02426478109183L753.3704048832062,54.668548925861955L755.9591249533867,119.85745349110577L758.547845023567,212.6852747980734L761.1365650937474,160.53435661294952L763.7252851639279,67.27600841085217L766.3140052341082,169.0625609248942L768.9027253042887,53.123216407618266L771.491445374469,127.34995700232435L774.0801654446494,241.4483899433061L776.6688855148298,160.40028934903236L779.2576055850102,144.56420836550538L781.8463256551905,139.05174699017974L784.435045725371,199.78597869097126L787.0237657955513,240.72411851754677L789.6124858657317,70.52070036959577L792.2012059359121,45.117852410621396L794.7899260060925,28.939228467069675L797.378646076273,169.40282907091708L799.9673661464533,11.396890219940323L802.5560862166337,211.65030780831566L805.1448062868141,97.15701118526593L807.7335263569946,204.15002590083262L810.322246427175,52.06388689371135L812.9109664973554,174.89679840984041L815.4996865675357,152.5683982649529L818.0884066377162,15.597664489344282L820.6771267078965,169.7319432902211L823.2658467780769,109.05700351567206L825.8545668482573,61.03663389028116L828.4432869184377,177.6336197973904L831.0320069886181,65.7314830846737L833.6207270587985,78.33307208191717L836.2094471289789,108.5254308502009L838.7981671991593,228.1042576271915L841.3868872693397,57.41043360909358L843.97560733952,66.38809713915133L846.5643274097005,176.582068679748L849.1530474798808,147.27219098199933L851.7417675500612,99.98959490418538L854.3304876202416,57.3161388996609L856.919207690422,155.59536850938767L859.5079277606023,169.5893638190711L862.0966478307828,111.95482302967757L864.6853679009632,185.92252835255687L867.2740879711436,139.77513784277699L869.862808041324,125.30577978779782L872.4515281115043,102.3449813503882L875.0402481816849,153.6705823394113L877.6289682518652,100.87236949910779L880.2176883220457,115.95849567298329L882.806408392226,262.58955732250365L885.3951284624064,151.64482378019036L887.9838485325868,172.58441328638273L890.5725686027672,121.80374032245471L893.1612886729475,74.68133517903107L895.750008743128,158.43587738676524L898.3387288133084,151.74652998040332L900.9274488834888,86.49972772975688L903.5161689536692,70.23957738762171L906.1048890238495,164.9966611114726L908.69360909403,205.01709694103238L911.2823291642103,45.63093303969018L913.8710492343907,65.5344548396723L916.4597693045711,141.26741582800912L919.0484893747515,195.4927442395555L921.6372094449318,179.61945903993328L924.2259295151123,130.818461306414L926.8146495852927,237.18854389095017L929.403369655473,204.56154709188206L931.9920897256535,158.46464277672447L934.5808097958338,86.2655686497571L937.1695298660143,163.2788830156672L939.7582499361946,167.4489839865942L942.346970006375,251.0999854666945L944.9356900765554,177.5325006459521L947.5244101467359,36.47664120955112L950.1131302169163,161.5744602794857L952.7018502870967,187.46690691654172L955.290570357277,182.25655551688487L957.8792904274575,199.5059564254497L960.4680104976379,85.67507096352759L963.0567305678182,140.3690844405577L965.6454506379987,261.3168355790012L968.234170708179,177.73716052502428L970.8228907783595,118.43672207528758L973.4116108485398,99.52567960999589L976.0003309187202,96.98265769918652L978.5890509889006,67.03289683703856L981.177771059081,104.18647997545706L983.7664911292613,178.21854052026046L986.3552111994418,107.98292440130136L988.9439312696221,109.58798913236853L991.5326513398026,94.30857714943019L994.121371409983,131.89532890246443L996.7100914801633,124.07195002561781L999.2988115503438,137.16944847527074L1001.8875316205241,143.80258596145717L1004.4762516907045,130.4188278530518L1007.0649717608849,130.2215794647599L1009.6536918310653,204.01698597227113L1012.2424119012456,209.26967826480166L1014.8311319714262,190.31702871760461L1017.4198520416065,196.96190717928465L1020.008572111787,103.5567967835178L1022.5972921819673,117.9149090956954L1025.1860122521477,66.0601570173967L1027.7747323223282,170.95381193361703L1030.3634523925084,215.7228853015492L1032.9521724626888,145.2136310724932L1035.5408925328693,192.80817019295185L1038.1296126030497,-10.470676636824708L1040.71833267323,98.29632609472277L1043.3070527434104,190.7258348080712L1045.8957728135908,166.95395510734676L1048.4844928837713,-8.82517892140154L1051.0732129539517,155.2832053234525L1053.6619330241322,137.9062680685888L1056.2506530943124,60.90498820255959L1058.8393731644928,138.81978934308495L1061.4280932346733,129.86773581582256L1064.0168133048537,63.52689479246634L1066.6055333750342,98.29368437523674L1069.1942534452144,126.12089701143859L1071.7829735153948,124.49513881106402L1074.3716935855753,170.15806731954066" style="fill: none;" fill="none"></path></g></g></g></g></g></g><g transform="translate(30, 378)" clip-path="url(#clip_1)"><clipPath id="clip_1"><rect width="1081" height="22"></rect></clipPath><g><g><line x1="38.88366551341727" y1="0" x2="38.88366551341727" y2="5" style="visibility: inherit;" fill="rgb(0, 0, 0)" stroke="rgb(204, 204, 204)" stroke-width="1px"></line><line x1="142.43246832063306" y1="0" x2="142.43246832063306" y2="5" style="visibility: inherit;" fill="rgb(0, 0, 0)" stroke="rgb(204, 204, 204)" stroke-width="1px"></line><line x1="245.98127112784888" y1="0" x2="245.98127112784888" y2="5" style="visibility: inherit;" fill="rgb(0, 0, 0)" stroke="rgb(204, 204, 204)" stroke-width="1px"></line><line x1="349.5300739350647" y1="0" x2="349.5300739350647" y2="5" style="visibility: inherit;" fill="rgb(0, 0, 0)" stroke="rgb(204, 204, 204)" stroke-width="1px"></line><line x1="453.0788767422805" y1="0" x2="453.0788767422805" y2="5" style="visibility: inherit;" fill="rgb(0, 0, 0)" stroke="rgb(204, 204, 204)" stroke-width="1px"></line><line x1="556.6276795494963" y1="0" x2="556.6276795494963" y2="5" style="visibility: inherit;" fill="rgb(0, 0, 0)" stroke="rgb(204, 204, 204)" stroke-width="1px"></line><line x1="660.1764823567121" y1="0" x2="660.1764823567121" y2="5" style="visibility: inherit;" fill="rgb(0, 0, 0)" stroke="rgb(204, 204, 204)" stroke-width="1px"></line><line x1="763.7252851639279" y1="0" x2="763.7252851639279" y2="5" style="visibility: inherit;" fill="rgb(0, 0, 0)" stroke="rgb(204, 204, 204)" stroke-width="1px"></line><line x1="867.2740879711436" y1="0" x2="867.2740879711436" y2="5" style="visibility: inherit;" fill="rgb(0, 0, 0)" stroke="rgb(204, 204, 204)" stroke-width="1px"></line><line x1="970.8228907783595" y1="0" x2="970.8228907783595" y2="5" style="visibility: inherit;" fill="rgb(0, 0, 0)" stroke="rgb(204, 204, 204)" stroke-width="1px"></line><line x1="1074.3716935855753" y1="0" x2="1074.3716935855753" y2="5" style="visibility: inherit;" fill="rgb(0, 0, 0)" stroke="rgb(204, 204, 204)" stroke-width="1px"></line></g><g transform="translate(0, 8)"><text x="38.88366551341727" y="0" dx="0em" dy="0.95em" style="text-anchor: middle; visibility: inherit; font-family: Roboto, sans-serif; font-size: 12px; font-weight: 200;" fill="rgb(50, 49, 63)" stroke="none" stroke-width="1px">0</text><text x="142.43246832063306" y="0" dx="0em" dy="0.95em" style="text-anchor: middle; visibility: inherit; font-family: Roboto, sans-serif; font-size: 12px; font-weight: 200;" fill="rgb(50, 49, 63)" stroke="none" stroke-width="1px">20k</text><text x="245.98127112784888" y="0" dx="0em" dy="0.95em" style="text-anchor: middle; visibility: inherit; font-family: Roboto, sans-serif; font-size: 12px; font-weight: 200;" fill="rgb(50, 49, 63)" stroke="none" stroke-width="1px">40k</text><text x="349.5300739350647" y="0" dx="0em" dy="0.95em" style="text-anchor: middle; visibility: inherit; font-family: Roboto, sans-serif; font-size: 12px; font-weight: 200;" fill="rgb(50, 49, 63)" stroke="none" stroke-width="1px">60k</text><text x="453.0788767422805" y="0" dx="0em" dy="0.95em" style="text-anchor: middle; visibility: inherit; font-family: Roboto, sans-serif; font-size: 12px; font-weight: 200;" fill="rgb(50, 49, 63)" stroke="none" stroke-width="1px">80k</text><text x="556.6276795494963" y="0" dx="0em" dy="0.95em" style="text-anchor: middle; visibility: inherit; font-family: Roboto, sans-serif; font-size: 12px; font-weight: 200;" fill="rgb(50, 49, 63)" stroke="none" stroke-width="1px">100k</text><text x="660.1764823567121" y="0" dx="0em" dy="0.95em" style="text-anchor: middle; visibility: inherit; font-family: Roboto, sans-serif; font-size: 12px; font-weight: 200;" fill="rgb(50, 49, 63)" stroke="none" stroke-width="1px">120k</text><text x="763.7252851639279" y="0" dx="0em" dy="0.95em" style="text-anchor: middle; visibility: inherit; font-family: Roboto, sans-serif; font-size: 12px; font-weight: 200;" fill="rgb(50, 49, 63)" stroke="none" stroke-width="1px">140k</text><text x="867.2740879711436" y="0" dx="0em" dy="0.95em" style="text-anchor: middle; visibility: inherit; font-family: Roboto, sans-serif; font-size: 12px; font-weight: 200;" fill="rgb(50, 49, 63)" stroke="none" stroke-width="1px">160k</text><text x="970.8228907783595" y="0" dx="0em" dy="0.95em" style="text-anchor: middle; visibility: inherit; font-family: Roboto, sans-serif; font-size: 12px; font-weight: 200;" fill="rgb(50, 49, 63)" stroke="none" stroke-width="1px">180k</text><text x="1074.3716935855753" y="0" dx="0em" dy="0.95em" style="text-anchor: middle; visibility: hidden; font-family: Roboto, sans-serif; font-size: 12px; font-weight: 200;" fill="rgb(50, 49, 63)" stroke="none" stroke-width="1px">200k</text></g><line x1="0" y1="0" x2="1081.81875" y2="0" fill="rgb(0, 0, 0)" stroke="rgb(204, 204, 204)" stroke-width="1px"></line></g></g></g></g></svg>