<svg viewBox="0 0 1281.2222900390625 400" xmlns="http://www.w3.org/2000/svg"><g><g><g><g><g><line x1="51.5625" y1="349.24787839928183" x2="46.5625" y2="349.24787839928183" style="visibility: inherit;" fill="rgb(0, 0, 0)" stroke="rgb(204, 204, 204)" stroke-width="1px"></line><line x1="51.5625" y1="306.63870305764004" x2="46.5625" y2="306.63870305764004" style="visibility: inherit;" fill="rgb(0, 0, 0)" stroke="rgb(204, 204, 204)" stroke-width="1px"></line><line x1="51.5625" y1="264.0295277159983" x2="46.5625" y2="264.0295277159983" style="visibility: inherit;" fill="rgb(0, 0, 0)" stroke="rgb(204, 204, 204)" stroke-width="1px"></line><line x1="51.5625" y1="221.4203523743566" x2="46.5625" y2="221.4203523743566" style="visibility: inherit;" fill="rgb(0, 0, 0)" stroke="rgb(204, 204, 204)" stroke-width="1px"></line><line x1="51.5625" y1="178.81117703271485" x2="46.5625" y2="178.81117703271485" style="visibility: inherit;" fill="rgb(0, 0, 0)" stroke="rgb(204, 204, 204)" stroke-width="1px"></line><line x1="51.5625" y1="136.20200169107312" x2="46.5625" y2="136.20200169107312" style="visibility: inherit;" fill="rgb(0, 0, 0)" stroke="rgb(204, 204, 204)" stroke-width="1px"></line><line x1="51.5625" y1="93.5928263494314" x2="46.5625" y2="93.5928263494314" style="visibility: inherit;" fill="rgb(0, 0, 0)" stroke="rgb(204, 204, 204)" stroke-width="1px"></line><line x1="51.5625" y1="50.98365100778964" x2="46.5625" y2="50.98365100778964" style="visibility: inherit;" fill="rgb(0, 0, 0)" stroke="rgb(204, 204, 204)" stroke-width="1px"></line><line x1="51.5625" y1="8.374475666147916" x2="46.5625" y2="8.374475666147916" style="visibility: inherit;" fill="rgb(0, 0, 0)" stroke="rgb(204, 204, 204)" stroke-width="1px"></line></g><g transform="translate(41.5625, 0)"><text x="0" y="349.24787839928183" dx="0em" dy="0.3em" style="text-anchor: end; visibility: inherit; font-family: Roboto, sans-serif; font-size: 12px; font-weight: 200;" fill="rgb(50, 49, 63)" stroke="none" stroke-width="1px">0</text><text x="0" y="306.63870305764004" dx="0em" dy="0.3em" style="text-anchor: end; visibility: inherit; font-family: Roboto, sans-serif; font-size: 12px; font-weight: 200;" fill="rgb(50, 49, 63)" stroke="none" stroke-width="1px">1e-3</text><text x="0" y="264.0295277159983" dx="0em" dy="0.3em" style="text-anchor: end; visibility: inherit; font-family: Roboto, sans-serif; font-size: 12px; font-weight: 200;" fill="rgb(50, 49, 63)" stroke="none" stroke-width="1px">2e-3</text><text x="0" y="221.4203523743566" dx="0em" dy="0.3em" style="text-anchor: end; visibility: inherit; font-family: Roboto, sans-serif; font-size: 12px; font-weight: 200;" fill="rgb(50, 49, 63)" stroke="none" stroke-width="1px">3e-3</text><text x="0" y="178.81117703271485" dx="0em" dy="0.3em" style="text-anchor: end; visibility: inherit; font-family: Roboto, sans-serif; font-size: 12px; font-weight: 200;" fill="rgb(50, 49, 63)" stroke="none" stroke-width="1px">4e-3</text><text x="0" y="136.20200169107312" dx="0em" dy="0.3em" style="text-anchor: end; visibility: inherit; font-family: Roboto, sans-serif; font-size: 12px; font-weight: 200;" fill="rgb(50, 49, 63)" stroke="none" stroke-width="1px">5e-3</text><text x="0" y="93.5928263494314" dx="0em" dy="0.3em" style="text-anchor: end; visibility: inherit; font-family: Roboto, sans-serif; font-size: 12px; font-weight: 200;" fill="rgb(50, 49, 63)" stroke="none" stroke-width="1px">6e-3</text><text x="0" y="50.98365100778964" dx="0em" dy="0.3em" style="text-anchor: end; visibility: inherit; font-family: Roboto, sans-serif; font-size: 12px; font-weight: 200;" fill="rgb(50, 49, 63)" stroke="none" stroke-width="1px">7e-3</text><text x="0" y="8.374475666147916" dx="0em" dy="0.3em" style="text-anchor: end; visibility: inherit; font-family: Roboto, sans-serif; font-size: 12px; font-weight: 200;" fill="rgb(50, 49, 63)" stroke="none" stroke-width="1px">8e-3</text></g><line x1="51.5625" y1="0" x2="51.5625" y2="378" fill="rgb(0, 0, 0)" stroke="rgb(204, 204, 204)" stroke-width="1px"></line></g></g><g transform="translate(51, 0)" clip-path="url(#clip_0)"><clipPath id="clip_0"><rect width="1229" height="378"></rect></clipPath><g><g><g><line x1="44.06562131916718" y1="0" x2="44.06562131916718" y2="378" fill="rgb(0, 0, 0)" stroke="rgb(60, 60, 60)" stroke-width="1px" opacity="0.25"></line><line x1="157.15750241504742" y1="0" x2="157.15750241504742" y2="378" fill="rgb(0, 0, 0)" stroke="rgb(60, 60, 60)" stroke-width="1px" opacity="0.25"></line><line x1="270.2493835109276" y1="0" x2="270.2493835109276" y2="378" fill="rgb(0, 0, 0)" stroke="rgb(60, 60, 60)" stroke-width="1px" opacity="0.25"></line><line x1="383.34126460680784" y1="0" x2="383.34126460680784" y2="378" fill="rgb(0, 0, 0)" stroke="rgb(60, 60, 60)" stroke-width="1px" opacity="0.25"></line><line x1="496.4331457026881" y1="0" x2="496.4331457026881" y2="378" fill="rgb(0, 0, 0)" stroke="rgb(60, 60, 60)" stroke-width="1px" opacity="0.25"></line><line x1="609.5250267985682" y1="0" x2="609.5250267985682" y2="378" fill="rgb(0, 0, 0)" stroke="rgb(60, 60, 60)" stroke-width="1px" opacity="0.25"></line><line x1="722.6169078944484" y1="0" x2="722.6169078944484" y2="378" fill="rgb(0, 0, 0)" stroke="rgb(60, 60, 60)" stroke-width="1px" opacity="0.25"></line><line x1="835.7087889903288" y1="0" x2="835.7087889903288" y2="378" fill="rgb(0, 0, 0)" stroke="rgb(60, 60, 60)" stroke-width="1px" opacity="0.25"></line><line x1="948.8006700862089" y1="0" x2="948.8006700862089" y2="378" fill="rgb(0, 0, 0)" stroke="rgb(60, 60, 60)" stroke-width="1px" opacity="0.25"></line><line x1="1061.8925511820892" y1="0" x2="1061.8925511820892" y2="378" fill="rgb(0, 0, 0)" stroke="rgb(60, 60, 60)" stroke-width="1px" opacity="0.25"></line><line x1="1174.9844322779695" y1="0" x2="1174.9844322779695" y2="378" fill="rgb(0, 0, 0)" stroke="rgb(60, 60, 60)" stroke-width="1px" opacity="0.25"></line></g><g><line x1="0" y1="349.24787839928183" x2="1229.6575" y2="349.24787839928183" fill="rgb(0, 0, 0)" stroke="rgb(60, 60, 60)" stroke-width="1px" opacity="0.25"></line><line x1="0" y1="306.63870305764004" x2="1229.6575" y2="306.63870305764004" fill="rgb(0, 0, 0)" stroke="rgb(60, 60, 60)" stroke-width="1px" opacity="0.25"></line><line x1="0" y1="264.0295277159983" x2="1229.6575" y2="264.0295277159983" fill="rgb(0, 0, 0)" stroke="rgb(60, 60, 60)" stroke-width="1px" opacity="0.25"></line><line x1="0" y1="221.4203523743566" x2="1229.6575" y2="221.4203523743566" fill="rgb(0, 0, 0)" stroke="rgb(60, 60, 60)" stroke-width="1px" opacity="0.25"></line><line x1="0" y1="178.81117703271485" x2="1229.6575" y2="178.81117703271485" fill="rgb(0, 0, 0)" stroke="rgb(60, 60, 60)" stroke-width="1px" opacity="0.25"></line><line x1="0" y1="136.20200169107312" x2="1229.6575" y2="136.20200169107312" fill="rgb(0, 0, 0)" stroke="rgb(60, 60, 60)" stroke-width="1px" opacity="0.25"></line><line x1="0" y1="93.5928263494314" x2="1229.6575" y2="93.5928263494314" fill="rgb(0, 0, 0)" stroke="rgb(60, 60, 60)" stroke-width="1px" opacity="0.25"></line><line x1="0" y1="50.98365100778964" x2="1229.6575" y2="50.98365100778964" fill="rgb(0, 0, 0)" stroke="rgb(60, 60, 60)" stroke-width="1px" opacity="0.25"></line><line x1="0" y1="8.374475666147916" x2="1229.6575" y2="8.374475666147916" fill="rgb(0, 0, 0)" stroke="rgb(60, 60, 60)" stroke-width="1px" opacity="0.25"></line></g></g></g><g><g><line x1="0" y1="349.24787839928183" x2="1229.6575" y2="349.24787839928183" fill="rgb(0, 0, 0)" stroke="rgb(153, 153, 153)" stroke-width="1.5px"></line></g></g><g><g><line x1="44.06562131916718" y1="0" x2="44.06562131916718" y2="378" fill="rgb(0, 0, 0)" stroke="rgb(153, 153, 153)" stroke-width="1.5px"></line></g></g><g><g><g><g><g><path style="fill: none;" stroke="rgb(255, 112, 67)" stroke-width="2px" d="M61.02940348354921,-114.89128624058257L63.85670051094622,27.499237017360798L66.68399753834322,80.40548455853136L69.51129456574023,67.1061201838847L72.33859159313724,74.41479637742027L75.16588862053423,153.12413720478162L77.99318564793124,176.50582463581785L80.82048267532825,218.185627527688L83.64777970272526,231.7431654823464L86.47507673012227,244.36010280002304L89.30237375751926,235.38630008115996L92.12967078491627,200.11879341446223L94.95696781231328,229.8180643690076L97.78426483971027,245.53649850591734L100.61156186710728,255.63846376070703L103.43885889450429,267.91391701207226L106.26615592190129,257.7825482671959L109.0934529492983,265.4632217466324L111.9207499766953,279.97813404863365L114.7480470040923,289.9505007685302L117.57534403148932,273.34672091896937L120.40264105888633,263.57216008720076L123.22993808628334,232.92708244017706L126.05723511368033,257.45606694154634L128.88453214107736,259.42217821685676L131.71182916847434,262.54797906089306L134.53912619587135,278.9587360857149L137.36642322326836,271.97416110415674L140.19372025066536,274.5620133664554L143.02101727806237,289.01578314062203L145.84831430545938,299.5189180828201L148.67561133285636,300.0277314344586L151.50290836025337,256.59232910513697L154.3302053876504,286.65060861490014L157.15750241504742,293.0575142304429L159.9847994424444,288.71666137609054L162.8120964698414,288.0629048284283L165.63939349723842,291.1431733463084L168.46669052463542,268.8685380782949L171.29398755203243,281.3496239277512L174.12128457942944,265.10264911429334L176.94858160682645,287.25093675263577L179.77587863422343,295.90787079212953L182.60317566162044,309.3562958954641L185.43047268901745,274.1356319231435L188.25776971641446,294.4862462903536L191.08506674381147,312.130190228601L193.91236377120848,317.70159406314247L196.73966079860546,317.5740875482353L199.56695782600247,292.14248084660625L202.39425485339947,294.35177085172563L205.22155188079648,308.33497941021045L208.0488489081935,311.14469798410653L210.8761459355905,312.907583374046L213.7034429629875,315.2736078007372L216.5307399903845,302.83537402725034L219.3580370177815,309.5758596209945L222.1853340451785,310.49962169055703L225.01263107257552,312.0678253036513L227.83992809997252,316.30020186478384L230.66722512736953,290.3480412174336L233.49452215476657,289.8711467362758L236.32181918216358,306.6438279516914L239.14911620956056,318.754295363403L241.97641323695757,307.15412949156644L244.80371026435458,307.6555704503963L247.6310072917516,308.0408603675344L250.4583043191486,314.53097300794144L253.2856013465456,312.2425519757107L256.1128983739426,309.19801846218434L258.9401954013396,312.24462769880984L261.7674924287366,319.6848189313307L264.5947894561336,290.2569476543688L267.4220864835306,303.55103140145934L270.2493835109276,306.41513037241947L273.07668053832464,305.30166120766205L275.9039775657216,311.2490879869327L278.73127459311866,306.03239774586046L281.55857162051564,316.1248891703034L284.3858686479126,316.09808874543666L287.21316567530965,314.4962694179412L290.04046270270663,313.17463399232196L292.86775973010367,315.5317765285982L295.69505675750065,321.05933811816027L298.5223537848977,322.17393814768303L301.34965081229467,322.6692373223328L304.17694783969165,326.3498154772307L307.0042448670887,322.7073839972084L309.8315418944857,317.4421918143696L312.6588389218827,321.59916035680646L315.48613594927974,318.3116539915846L318.3134329766767,319.14716680422237L321.14073000407376,320.0329550382939L323.96802703147074,318.8099820729459L326.7953240588677,324.4286258970653L329.62262108626476,321.8825858165651L332.44991811366174,327.35649921753947L335.2772151410588,323.21913946597175L338.10451216845576,323.58970988628823L340.9318091958528,318.60482503108346L343.7591062232498,302.6704842447444L346.58640325064675,310.0932148737697L349.4137002780438,318.5150665418418L352.24099730544077,318.75008280819395L355.0682943328378,324.8108234291754L357.8955913602348,314.70863420499603L360.72288838763177,320.7521304485748L363.5501854150288,317.82520211010007L366.3774824424258,321.60799039450114L369.2047794698228,326.0513624430876L372.0320764972198,325.7405476229172L374.85937352461684,325.6809040866592L377.6866705520138,324.9090162864088L380.5139675794108,328.04280594995384L383.34126460680784,321.8506410640531L386.1685616342048,310.45124117157866L388.99585866160186,314.7543693628284L391.82315568899884,321.9571731163464L394.6504527163959,316.4244730182101L397.47774974379286,321.8990583750019L400.30504677118984,325.98922090176353L403.1323437985869,328.43752719651627L405.95964082598385,329.4744997530807L408.7869378533809,329.1117902452568L411.6142348807779,329.07237542518607L414.4415319081749,319.1490997394187L417.2688289355719,323.1040617982961L420.09612596296887,331.04411006322175L422.9234229903659,335.13796897212677L425.7507200177629,333.4778286583621L428.5780170451599,321.8383859708077L431.4053140725569,322.91439504173735L434.2326110999539,325.3009596649434L437.0599081273509,317.960448173854L439.8872051547479,321.03891706597454L442.71450218214494,323.2091758320092L445.5417992095419,321.3486933016041L448.36909623693896,320.6435829761437L451.19639326433594,312.21229195231905L454.0236902917329,317.0507239716855L456.85098731912996,322.97881907496173L459.67828434652694,329.6188176956998L462.505581373924,333.60941861241156L465.332878401321,334.0694298968985L468.16017542871805,334.14054896226105L470.98747245611503,327.64160810719585L473.81476948351207,329.5823070916237L476.64206651090905,323.0346565266363L479.469363538306,319.47360908593953L482.29666056570306,323.37384197179125L485.12395759310004,328.9038330250793L487.9512546204971,327.69083067257066L490.77855164789406,329.5929490965126L493.6058486752911,333.62077343209376L496.4331457026881,326.10710411562934L499.26044273008506,322.7651170944323L502.0877397574821,323.52271790352273L504.9150367848791,327.9100176589424L507.7423338122761,329.57429826815985L510.5696308396731,330.136005172554L513.3969278670701,319.4575247027209L516.224224894467,324.94127408869844L519.0515219218642,320.05066196461144L521.8788189492611,318.98235565980946L524.7061159766581,312.07589245497377L527.5334130040551,319.5390049744117L530.3607100314522,322.0449078120595L533.1880070588492,324.18899480153334L536.0153040862461,323.5011479753819L538.8426011136431,324.7809388149157L541.6698981410401,322.42708759291276L544.4971951684372,317.560166277022L547.3244921958342,314.9177292109663L550.1517892232312,321.70385906640496L552.9790862506281,330.5727833174639L555.8063832780251,313.9123741137077L558.6336803054222,321.940315060945L561.4609773328192,323.4375168551611L564.2882743602162,327.799740262343L567.1155713876132,333.56362986271523L569.9428684150101,315.1544506201492L572.7701654424072,314.08375157771184L575.5974624698042,320.1957533521194L578.4247594972012,326.4022206812748L581.2520565245982,326.25374477758965L584.0793535519953,326.5374878942069L586.9066505793922,331.767253726058L589.7339476067892,335.3315100610162L592.5612446341862,327.90573042844755L595.3885416615832,330.2262405850025L598.2158386889803,323.9583794591518L601.0431357163773,324.168278873099L603.8704327437742,319.4784085291884L606.6977297711712,320.86584847879334L609.5250267985682,324.75696917008685L612.3523238259653,324.2593558915475L615.1796208533623,324.539940809087L618.0069178807594,330.1549872320355L620.8342149081562,326.62464023673425L623.6615119355533,320.0198997298227L626.4888089629503,325.94131303731155L629.3161059903474,330.1999395183261L632.1434030177443,330.40961819888554L634.9707000451414,329.78248479171356L637.7979970725384,333.06647635568703L640.6252940999353,331.87794534207694L643.4525911273323,333.4561081898306L646.2798881547294,321.1742348975941L649.1071851821263,328.50877925211523L651.9344822095234,328.0052546225564L654.7617792369203,328.92574081954467L657.5890762643174,330.46909279615767L660.4163732917143,315.59406394781485L663.2436703191114,324.5611967348157L666.0709673465084,327.45754941636983L668.8982643739054,331.725359847618L671.7255614013023,336.0973858631159L674.5528584286994,307.37623000777864L677.3801554560964,304.740259444294L680.2074524834934,316.54472081248866L683.0347495108904,317.9310015635679L685.8620465382875,323.8232428614174L688.6893435656843,317.3269234808455L691.5166405930814,321.9219779846571L694.3439376204784,325.9732392724886L697.1712346478755,318.82138343385606L699.9985316752724,322.72641703834057L702.8258287026695,326.73671071713767L705.6531257300664,326.64218349730425L708.4804227574634,329.963108820698L711.3077197848604,321.75279498450794L714.1350168122575,328.1524959553674L716.9623138396544,333.7502113825801L719.7896108670515,328.6039467822958L722.6169078944484,325.7347256484699L725.4442049218455,306.8001296669004L728.2715019492424,310.3248485461412L731.0987989766395,323.3925882043524L733.9260960040365,323.7365136301992L736.7533930314336,313.1811576643961L739.5806900588304,317.94086752950903L742.4079870862275,324.61211423176593L745.2352841136246,326.1715080380934L748.0625811410215,329.00129879130765L750.8898781684186,326.17838269726076L753.7171751958156,320.97606266063445L756.5444722232127,305.11833499783927L759.3717692506095,314.3958360331598L762.1990662780066,316.2831874007499L765.0263633054036,325.33778087838976L767.8536603328006,328.582986327344L770.6809573601976,332.81696765083916L773.5082543875947,325.40814513999885L776.3355514149916,326.41517513135153L779.1628484423886,327.70124135378666L781.9901454697856,327.7597925069268L784.8174424971827,317.3747655611046L787.6447395245796,312.531612726969L790.4720365519767,307.9943654833698L793.2993335793736,309.7887520921466L796.1266306067707,315.92874581877953L798.9539276341676,322.42939616289607L801.7812246615647,328.94442531714725L804.6085216889617,322.199264771294L807.4358187163587,326.87084591689035L810.2631157437556,329.3690320171432L813.0904127711527,324.0778445859019L815.9177097985496,319.6439792453271L818.7450068259467,321.3328687285877L821.5723038533437,327.67811960498926L824.3996008807408,333.0632509510023L827.2268979081376,337.02770497475893L830.0541949355347,325.58364236196866L832.8814919629317,324.80834042895196L835.7087889903288,329.54336101745037L838.5360860177257,329.866457987289L841.3633830451228,335.3302553828158L844.1906800725197,332.0362677358234L847.0179770999167,323.75899958264745L849.8452741273137,326.01564930791807L852.6725711547108,325.81103721269886L855.4998681821077,320.76918227396305L858.3271652095048,319.0133234714072L861.1544622369017,309.58146305952664L863.9817592642988,319.37010250570586L866.8090562916957,327.5697028573779L869.6363533190928,334.68941708834166L872.4636503464898,330.91746071541905L875.2909473738869,335.6143167853162L878.1182444012837,325.26530654311796L880.9455414286808,327.45188903568965L883.7728384560778,323.6807836412147L886.6001354834748,331.6158135462165L889.4274325108718,331.06631007528864L892.2547295382689,329.0453054965467L895.0820265656657,335.1414520878647L897.9093235930628,331.8999111522034L900.7366206204598,334.1253350825518L903.5639176478569,335.0495709636701L906.3912146752538,329.84517867295875L909.2185117026509,333.54634953007803L912.0458087300478,335.1289829696059L914.8731057574448,332.6657816856593L917.7004027848418,318.3743182497554L920.5276998122389,327.57474824010404L923.3549968396359,333.2605111545935L926.1822938670329,329.70375292610896L929.0095908944298,330.39831053511665L931.8368879218269,332.65889853460044L934.664184949224,337.02286321437145L937.4914819766209,331.9638368044072L940.318779004018,332.8211826960775L943.146076031415,332.5781694176431L945.973373058812,329.17559188458523L948.8006700862089,329.9112551793632L951.627967113606,328.8695221242638L954.4552641410029,331.95957431959926L957.2825611684,331.4155514212933L960.109858195797,332.2078766371986L962.937155223194,334.91064740559153L965.7644522505909,310.7860325204824L968.591749277988,314.77186558360296L971.419046305385,317.1602939660306L974.2463433327821,318.19765308894915L977.073640360179,325.5329789827119L979.900937387576,321.7942575659803L982.728234414973,326.1935019800271L985.55553144237,332.0983041317941L988.382828469767,336.5663586960768L991.2101254971641,333.875926929732L994.037422524561,328.83080303070994L996.864719551958,335.00894464748364L999.692016579355,337.4209668498674L1002.5193136067521,333.57105619601595L1005.346610634149,321.84719708108395L1008.1739076615461,321.6790319641537L1011.0012046889431,320.67304660207634L1013.82850171634,313.9229492260346L1016.655798743737,313.39723512814305L1019.4830957711341,321.47705918974714L1022.3103927985311,327.2537067923649L1025.1376898259282,325.81787419244944L1027.964986853325,327.6845562403709L1030.7922838807222,307.33414745850877L1033.6195809081191,317.1522283551415L1036.446877935516,327.76461175499975L1039.274174962913,326.07371831375065L1042.10147199031,324.05148494025616L1044.928769017707,322.0614010169921L1047.7560660451043,318.42971127975386L1050.583363072501,327.574715165832L1053.4106600998982,325.97891148001554L1056.2379571272952,309.10787237675146L1059.0652541546922,314.88297431884587L1061.8925511820892,321.1241202888721L1064.7198482094861,326.6775022671901L1067.5471452368831,331.389635295045L1070.37444226428,335.43238110342025L1073.201739291677,335.69921307326064L1076.0290363190743,331.20452004073206L1078.856333346471,334.9410186929638L1081.6836303738683,332.8685693727324L1084.5109274012652,320.30773488815834L1087.3382244286622,317.01918207841965L1090.1655214560592,323.5761602436211L1092.9928184834562,327.37368870500796L1095.8201155108532,330.32868441883244L1098.6474125382501,333.0429792693618L1101.4747095656471,334.50576802279403L1104.3020065930443,329.9539661911906L1107.129303620441,327.0465869227526L1109.9566006478383,320.9847991670233L1112.7838976752353,321.96544647905773L1115.6111947026322,330.4530689098807L1118.4384917300292,329.5522335312219L1121.2657887574262,332.4633225229877L1124.0930857848234,330.4006791963761L1126.9203828122202,321.92168361273025L1129.7476798396174,322.558319478949L1132.5749768670144,319.4284091608501L1135.4022738944113,329.5087982522369L1138.2295709218083,331.9910114194604L1141.0568679492053,326.2484352716321L1143.8841649766023,326.24801496358725L1146.7114620039995,333.10647606175166L1149.5387590313962,331.2250166239933L1152.3660560587934,330.1926398215123L1155.1933530861904,327.88973770120356L1158.0206501135874,331.44546869607876L1160.8479471409844,332.0521722088963L1163.6752441683814,336.2626979610161L1166.5025411957783,335.45479649209057L1169.3298382231753,334.19536778114434L1172.1571352505723,331.63331181328056L1174.9844322779695,328.7992891087417" fill="none"></path></g></g></g></g><g opacity="0.2"><g><g><g><path style="fill: none;" stroke="rgb(255, 112, 67)" stroke-width="2px" d="M46.89291834656418,-59.06581312170588L49.72021537396119,75.64092102822538L52.54751240135819,62.074413441413604L55.3748094287552,275.6833756318015L58.20210645615221,228.30022296547617L61.02940348354921,59.13262182967673L63.85670051094622,235.10598687646555L66.68399753834322,158.43192317223543L69.51129456574023,47.35811404865615L72.33859159313724,85.31152151256678L75.16588862053423,270.75981568884566L77.99318564793124,211.5020105160936L80.82048267532825,280.6236767926605L83.64777970272526,252.0635360373987L86.47507673012227,263.276610334821L89.30237375751926,221.9293934154289L92.12967078491627,147.22648783053785L94.95696781231328,274.3624464158188L97.78426483971027,269.1127129841411L100.61156186710728,270.7908576271086L103.43885889450429,286.32669296010204L106.26615592190129,242.58569517608376L109.0934529492983,276.98414098088756L111.9207499766953,301.75039933585117L114.7480470040923,304.90900832078637L117.57534403148932,248.44109362915003L120.40264105888633,248.91033384580112L123.22993808628334,186.95949419808923L126.05723511368033,294.2495301368034L128.88453214107736,262.3713444778386L131.71182916847434,267.2366797050177L134.53912619587135,303.57486966383306L137.36642322326836,261.49729913211013L140.19372025066536,278.443791648686L143.02101727806237,310.696437429166L145.84831430545938,315.2736203336165L148.67561133285636,300.790951457193L151.50290836025337,191.43922585308073L154.3302053876504,331.7380277790939L157.15750241504742,302.66787264091045L159.9847994424444,282.2053820997844L162.8120964698414,287.08227000740686L165.63939349723842,295.7635761217945L168.46669052463542,235.4565851820629L171.29398755203243,300.0712526999899L174.12128457942944,240.73218689562643L176.94858160682645,320.4733682089062L179.77587863422343,308.89327185107857L182.60317566162044,329.52893355019427L185.43047268901745,221.30463596508952L188.25776971641446,325.0121678410207L191.08506674381147,338.59610613589507L193.91236377120848,326.0586998149401L196.73966079860546,317.3828277758748L199.56695782600247,253.99507079418666L202.39425485339947,297.6657058594033L205.22155188079648,329.3097922479329L208.0488489081935,315.35927584495005L210.8761459355905,315.55191145895503L213.7034429629875,318.8226444407738L216.5307399903845,284.17802336702067L219.3580370177815,319.68658801161047L222.1853340451785,311.8852647949009L225.01263107257552,314.4201307232927L227.83992809997252,322.64876670648266L230.66722512736953,251.41980024640836L233.49452215476657,289.15580501453917L236.32181918216358,331.80284977481466L239.14911620956056,336.9199964809705L241.97641323695757,289.7538806838116L244.80371026435458,308.40773188864097L247.6310072917516,308.6187952432415L250.4583043191486,324.2661419685522L253.2856013465456,308.8099204273646L256.1128983739426,304.63121819189473L258.9401954013396,316.8145415537481L261.7674924287366,330.8451057801121L264.5947894561336,246.11514073892587L267.4220864835306,323.4921570220952L270.2493835109276,310.7112788288597L273.07668053832464,303.6314574605259L275.9039775657216,320.17022815583863L278.73127459311866,298.2073623842521L281.55857162051564,331.2636263069678L284.3858686479126,316.0578881081366L287.21316567530965,312.093540426698L290.04046270270663,311.192180853893L292.86775973010367,319.06749033301253L295.69505675750065,329.35068050250334L298.5223537848977,323.8458381919672L301.34965081229467,323.41218608430745L304.17694783969165,331.8706827095776L307.0042448670887,317.24373677717495L309.8315418944857,309.5444035401115L312.6588389218827,327.8346131704617L315.48613594927974,313.3803944437517L318.3134329766767,320.40043602317905L321.14073000407376,321.36163738940127L323.96802703147074,316.9755226249239L326.7953240588677,332.85659163324436L329.62262108626476,318.0635256958148L332.44991811366174,335.56736931900105L335.2772151410588,317.0130998386202L338.10451216845576,324.145565516763L340.9318091958528,311.1274977482763L343.7591062232498,278.7689730652358L346.58640325064675,321.2273108173076L349.4137002780438,331.14784404394993L352.24099730544077,319.1026072077222L355.0682943328378,333.9019343606475L357.8955913602348,299.5553503687271L360.72288838763177,329.81737481394293L363.5501854150288,313.4348096023879L366.3774824424258,327.28217282110285L369.2047794698228,332.71642051596723L372.0320764972198,325.2743253926615L374.85937352461684,325.59143878227223L377.6866705520138,323.7511845860333L380.5139675794108,332.74349044527145L383.34126460680784,312.562393735202L386.1685616342048,293.35214133286695L388.99585866160186,321.209061649703L391.82315568899884,332.76137874662345L394.6504527163959,308.1254228710057L397.47774974379286,330.11093641018954L400.30504677118984,332.124464691906L403.1323437985869,332.10998663864535L405.95964082598385,331.0299585879274L408.7869378533809,328.567725983521L411.6142348807779,329.01325319508L414.4415319081749,304.2641862107676L417.2688289355719,329.0365048866121L420.09612596296887,342.9541824606103L422.9234229903659,341.2787573354844L425.7507200177629,330.98761818771516L428.5780170451599,304.379221939476L431.4053140725569,324.52840864813186L434.2326110999539,328.88080659975236L437.0599081273509,306.94968093721997L439.8872051547479,325.65662040415543L442.71450218214494,326.46456398106113L445.5417992095419,318.5579695059964L448.36909623693896,319.5859174879531L451.19639326433594,299.56535541658207L454.0236902917329,324.3083720007353L456.85098731912996,331.870961729876L459.67828434652694,339.578815626807L462.505581373924,339.59531998747906L465.332878401321,334.759446823629L468.16017542871805,334.2472275603049L470.98747245611503,317.893196824598L473.81476948351207,332.4933555682655L476.64206651090905,313.21318067915513L479.469363538306,314.1320379248944L482.29666056570306,329.22419130056886L485.12395759310004,337.1988196050113L487.9512546204971,325.8713271438078L490.77855164789406,332.4461267324255L493.6058486752911,339.6625099354655L496.4331457026881,314.8366001409328L499.26044273008506,317.7521365626367L502.0877397574821,324.6591191171584L504.9150367848791,334.49096729207184L507.7423338122761,332.070719181986L510.5696308396731,330.9785655291453L513.3969278670701,303.43980399797124L516.224224894467,333.16689816766467L519.0515219218642,312.7147437784811L521.8788189492611,317.3798962026064L524.7061159766581,301.7161976477202L527.5334130040551,330.73367375356855L530.3607100314522,325.8037620685313L533.1880070588492,327.4051252857441L536.0153040862461,322.46937773615474L538.8426011136431,326.70062507421653L541.6698981410401,318.89631075990826L544.4971951684372,310.2597843031859L547.3244921958342,310.9540736118828L550.1517892232312,331.8830538495629L552.9790862506281,343.87616969405235L555.8063832780251,288.9217603080734L558.6336803054222,333.982226481801L561.4609773328192,325.6833195464853L564.2882743602162,334.3430753731159L567.1155713876132,342.2094642632735L569.9428684150101,287.54068175630016L572.7701654424072,312.47770301405575L575.5974624698042,329.3637560137308L578.4247594972012,335.7119216750079L581.2520565245982,326.03103092206203L584.0793535519953,326.9631025691328L586.9066505793922,339.6119024738346L589.7339476067892,340.6778945634536L592.5612446341862,316.7670609795945L595.3885416615832,333.7070058198349L598.2158386889803,314.5565877703757L601.0431357163773,324.48312799401975L603.8704327437742,312.4436030133225L606.6977297711712,322.9470084032008L609.5250267985682,330.59365020702705L612.3523238259653,323.51293597373854L615.1796208533623,324.96081818539614L618.0069178807594,338.57755686645845L620.8342149081562,321.3291197437823L623.6615119355533,310.1127889694554L626.4888089629503,334.82343299854483L629.3161059903474,336.58787923984795L632.1434030177443,330.72413621972464L634.9707000451414,328.8417846809556L637.7979970725384,337.9924637016473L640.6252940999353,330.0951488216618L643.4525911273323,335.8233524614612L646.2798881547294,302.7514249592393L649.1071851821263,339.510595783897L651.9344822095234,327.2499676782182L654.7617792369203,330.3064701150271L657.5890762643174,332.7841207610772L660.4163732917143,293.2815206753006L663.2436703191114,338.01189591531704L666.0709673465084,331.8020784387009L668.8982643739054,338.1270754944904L671.7255614013023,342.65542488636265L674.5528584286994,264.29449622477284L677.3801554560964,300.786303599067L680.2074524834934,334.25141286478066L683.0347495108904,320.0104226901867L685.8620465382875,332.6616048081916L688.6893435656843,307.58244440998766L691.5166405930814,328.8145597403745L694.3439376204784,332.0501312042358L697.1712346478755,308.0935996759072L699.9985316752724,328.58396744506746L702.8258287026695,332.7521512353333L705.6531257300664,326.50039266755414L708.4804227574634,334.9444968057885L711.3077197848604,309.4373242302229L714.1350168122575,337.75204741165663L716.9623138396544,342.1467845233992L719.7896108670515,320.88454988186936L722.6169078944484,321.430893947731L725.4442049218455,278.3982356945461L728.2715019492424,315.6119268650024L731.0987989766395,342.99419769166934L733.9260960040365,324.25240176896943L736.7533930314336,297.3481237156913L739.5806900588304,325.08043232717847L742.4079870862275,334.6189842851513L745.2352841136246,328.51059874758454L748.0625811410215,333.24598492112915L750.8898781684186,321.94400855619034L753.7171751958156,313.17258260569497L756.5444722232127,281.3317435036465L759.3717692506095,328.3120875861407L762.1990662780066,319.114214452135L765.0263633054036,338.91967109484955L767.8536603328006,333.4507945007752L770.6809573601976,339.16793963608194L773.5082543875947,314.2949113737384L776.3355514149916,327.9257201183806L779.1628484423886,329.6303406874393L781.9901454697856,327.84761923663706L784.8174424971827,301.7972251423712L787.6447395245796,305.2668834757656L790.4720365519767,301.18849461797106L793.2993335793736,312.48033200531165L796.1266306067707,325.138736408729L798.9539276341676,332.18037167907084L801.7812246615647,338.716969048524L804.6085216889617,312.08152395251426L807.4358187163587,333.8782176352848L810.2631157437556,333.1163111675224L813.0904127711527,316.1410634390401L815.9177097985496,312.993181234465L818.7450068259467,323.8662029534786L821.5723038533437,337.1959959195916L824.3996008807408,341.1409479700218L827.2268979081376,342.9743860103938L830.0541949355347,308.41754844278324L832.8814919629317,323.64538752942696L835.7087889903288,336.6458919001979L838.5360860177257,330.35110344204696L841.3633830451228,343.5259514761059L844.1906800725197,327.09528626533483L847.0179770999167,311.3430973528835L849.8452741273137,329.400623895824L852.6725711547108,325.50411906987006L855.4998681821077,313.2063998658593L858.3271652095048,316.37953526757354L861.1544622369017,295.4336724417058L863.9817592642988,334.0530616749746L866.8090562916957,339.86910338488593L869.6363533190928,345.36898843478747L872.4636503464898,325.2595261560352L875.2909473738869,342.6596008901618L878.1182444012837,309.74179117982055L880.9455414286808,330.7317627745472L883.7728384560778,318.02412554950234L886.6001354834748,343.5183584037192L889.4274325108718,330.24205486889684L892.2547295382689,326.0137986284338L895.0820265656657,344.28567197484176L897.9093235930628,327.0375997487114L900.7366206204598,337.46347097807455L903.5639176478569,336.4359247853475L906.3912146752538,322.0385902368918L909.2185117026509,339.09810581575704L912.0458087300478,337.50293312889767L914.8731057574448,328.97097975973935L917.7004027848418,296.9371230958996L920.5276998122389,341.375393225627L923.3549968396359,341.78915552632765L926.1822938670329,324.3686155833821L929.0095908944298,331.4401469486283L931.8368879218269,336.0497805338261L934.664184949224,343.56881023402804L937.4914819766209,324.3752971894608L940.318779004018,334.10720153358295L943.146076031415,332.21364949999156L945.973373058812,324.0717255849984L948.8006700862089,331.01475012153014L951.627967113606,327.3069225416147L954.4552641410029,336.5946526126025L957.2825611684,330.5995170738344L960.109858195797,333.3963644610565L962.937155223194,338.964803558181L965.7644522505909,274.5991101928187L968.591749277988,320.7506151782837L971.419046305385,320.74293653967214L974.2463433327821,319.7536917733269L977.073640360179,336.535967823356L979.900937387576,316.18617544088295L982.728234414973,332.7923686010974L985.55553144237,340.95550735944454L988.382828469767,343.26844054250085L991.2101254971641,329.84027928021476L994.037422524561,321.2631171821768L996.864719551958,344.2761570726443L999.692016579355,341.039000153443L1002.5193136067521,327.79619021523877L1005.346610634149,304.2614084086859L1008.1739076615461,321.4267842887583L1011.0012046889431,319.1640685589602L1013.82850171634,303.79780316197196L1016.655798743737,312.6086639813057L1019.4830957711341,333.59679528215327L1022.3103927985311,335.91867819629164L1025.1376898259282,323.6641252925763L1027.964986853325,330.484579312253L1030.7922838807222,276.80853428571555L1033.6195809081191,331.87934970009053L1036.446877935516,343.68318685478715L1039.274174962913,323.537378151877L1042.10147199031,321.0181348800144L1044.928769017707,319.07627513209593L1047.7560660451043,312.9821766738967L1050.583363072501,341.2922209949491L1053.4106600998982,323.58520595129085L1056.2379571272952,283.8013137218553L1059.0652541546922,323.5456272319875L1061.8925511820892,330.4858392439115L1064.7198482094861,335.007575234667L1067.5471452368831,338.45783483682743L1070.37444226428,341.49649981598316L1073.201739291677,336.0994610280212L1076.0290363190743,324.4624804919393L1078.856333346471,340.54576667131124L1081.6836303738683,329.75989539238543L1084.5109274012652,301.46648316129716L1087.3382244286622,312.08635286381167L1090.1655214560592,333.4116274914233L1092.9928184834562,333.0699813970883L1095.8201155108532,334.7611779895692L1098.6474125382501,337.1144215451558L1101.4747095656471,336.69995115294233L1104.3020065930443,323.1262634437855L1107.129303620441,322.68551802009574L1109.9566006478383,311.89211753342926L1112.7838976752353,323.4364174471094L1115.6111947026322,343.1845025561152L1118.4384917300292,328.2009804632335L1121.2657887574262,336.8299560106365L1124.0930857848234,327.3067142064586L1126.9203828122202,309.2031902372616L1129.7476798396174,323.513273278277L1132.5749768670144,314.7335436837017L1135.4022738944113,344.6293818893171L1138.2295709218083,335.71433117029574L1141.0568679492053,317.63457104988964L1143.8841649766023,326.24738450151995L1146.7114620039995,343.3941677089983L1149.5387590313962,328.40282746735585L1152.3660560587934,328.64407461779064L1155.1933530861904,324.4353845207405L1158.0206501135874,336.77906518839154L1160.8479471409844,332.96222747812266L1163.6752441683814,342.5784865891958L1166.5025411957783,334.2429442887021L1169.3298382231753,332.3062247147251L1172.1571352505723,327.7902278614848L1174.9844322779695,324.5482550519335" fill="none"></path></g></g></g></g></g></g><g transform="translate(51, 378)" clip-path="url(#clip_1)"><clipPath id="clip_1"><rect width="1229" height="22"></rect></clipPath><g><g><line x1="44.06562131916718" y1="0" x2="44.06562131916718" y2="5" style="visibility: inherit;" fill="rgb(0, 0, 0)" stroke="rgb(204, 204, 204)" stroke-width="1px"></line><line x1="157.15750241504742" y1="0" x2="157.15750241504742" y2="5" style="visibility: inherit;" fill="rgb(0, 0, 0)" stroke="rgb(204, 204, 204)" stroke-width="1px"></line><line x1="270.2493835109276" y1="0" x2="270.2493835109276" y2="5" style="visibility: inherit;" fill="rgb(0, 0, 0)" stroke="rgb(204, 204, 204)" stroke-width="1px"></line><line x1="383.34126460680784" y1="0" x2="383.34126460680784" y2="5" style="visibility: inherit;" fill="rgb(0, 0, 0)" stroke="rgb(204, 204, 204)" stroke-width="1px"></line><line x1="496.4331457026881" y1="0" x2="496.4331457026881" y2="5" style="visibility: inherit;" fill="rgb(0, 0, 0)" stroke="rgb(204, 204, 204)" stroke-width="1px"></line><line x1="609.5250267985682" y1="0" x2="609.5250267985682" y2="5" style="visibility: inherit;" fill="rgb(0, 0, 0)" stroke="rgb(204, 204, 204)" stroke-width="1px"></line><line x1="722.6169078944484" y1="0" x2="722.6169078944484" y2="5" style="visibility: inherit;" fill="rgb(0, 0, 0)" stroke="rgb(204, 204, 204)" stroke-width="1px"></line><line x1="835.7087889903288" y1="0" x2="835.7087889903288" y2="5" style="visibility: inherit;" fill="rgb(0, 0, 0)" stroke="rgb(204, 204, 204)" stroke-width="1px"></line><line x1="948.8006700862089" y1="0" x2="948.8006700862089" y2="5" style="visibility: inherit;" fill="rgb(0, 0, 0)" stroke="rgb(204, 204, 204)" stroke-width="1px"></line><line x1="1061.8925511820892" y1="0" x2="1061.8925511820892" y2="5" style="visibility: inherit;" fill="rgb(0, 0, 0)" stroke="rgb(204, 204, 204)" stroke-width="1px"></line><line x1="1174.9844322779695" y1="0" x2="1174.9844322779695" y2="5" style="visibility: inherit;" fill="rgb(0, 0, 0)" stroke="rgb(204, 204, 204)" stroke-width="1px"></line></g><g transform="translate(0, 8)"><text x="44.06562131916718" y="0" dx="0em" dy="0.95em" style="text-anchor: middle; visibility: inherit; font-family: Roboto, sans-serif; font-size: 12px; font-weight: 200;" fill="rgb(50, 49, 63)" stroke="none" stroke-width="1px">0</text><text x="157.15750241504742" y="0" dx="0em" dy="0.95em" style="text-anchor: middle; visibility: inherit; font-family: Roboto, sans-serif; font-size: 12px; font-weight: 200;" fill="rgb(50, 49, 63)" stroke="none" stroke-width="1px">20k</text><text x="270.2493835109276" y="0" dx="0em" dy="0.95em" style="text-anchor: middle; visibility: inherit; font-family: Roboto, sans-serif; font-size: 12px; font-weight: 200;" fill="rgb(50, 49, 63)" stroke="none" stroke-width="1px">40k</text><text x="383.34126460680784" y="0" dx="0em" dy="0.95em" style="text-anchor: middle; visibility: inherit; font-family: Roboto, sans-serif; font-size: 12px; font-weight: 200;" fill="rgb(50, 49, 63)" stroke="none" stroke-width="1px">60k</text><text x="496.4331457026881" y="0" dx="0em" dy="0.95em" style="text-anchor: middle; visibility: inherit; font-family: Roboto, sans-serif; font-size: 12px; font-weight: 200;" fill="rgb(50, 49, 63)" stroke="none" stroke-width="1px">80k</text><text x="609.5250267985682" y="0" dx="0em" dy="0.95em" style="text-anchor: middle; visibility: inherit; font-family: Roboto, sans-serif; font-size: 12px; font-weight: 200;" fill="rgb(50, 49, 63)" stroke="none" stroke-width="1px">100k</text><text x="722.6169078944484" y="0" dx="0em" dy="0.95em" style="text-anchor: middle; visibility: inherit; font-family: Roboto, sans-serif; font-size: 12px; font-weight: 200;" fill="rgb(50, 49, 63)" stroke="none" stroke-width="1px">120k</text><text x="835.7087889903288" y="0" dx="0em" dy="0.95em" style="text-anchor: middle; visibility: inherit; font-family: Roboto, sans-serif; font-size: 12px; font-weight: 200;" fill="rgb(50, 49, 63)" stroke="none" stroke-width="1px">140k</text><text x="948.8006700862089" y="0" dx="0em" dy="0.95em" style="text-anchor: middle; visibility: inherit; font-family: Roboto, sans-serif; font-size: 12px; font-weight: 200;" fill="rgb(50, 49, 63)" stroke="none" stroke-width="1px">160k</text><text x="1061.8925511820892" y="0" dx="0em" dy="0.95em" style="text-anchor: middle; visibility: inherit; font-family: Roboto, sans-serif; font-size: 12px; font-weight: 200;" fill="rgb(50, 49, 63)" stroke="none" stroke-width="1px">180k</text><text x="1174.9844322779695" y="0" dx="0em" dy="0.95em" style="text-anchor: middle; visibility: inherit; font-family: Roboto, sans-serif; font-size: 12px; font-weight: 200;" fill="rgb(50, 49, 63)" stroke="none" stroke-width="1px">200k</text></g><line x1="0" y1="0" x2="1229.6575" y2="0" fill="rgb(0, 0, 0)" stroke="rgb(204, 204, 204)" stroke-width="1px"></line></g></g></g></g></svg>