<svg viewBox="0 0 887 400" xmlns="http://www.w3.org/2000/svg"><g><g><g><g><g><line x1="70" y1="377" x2="65" y2="377" style="visibility: inherit;" fill="rgb(0, 0, 0)" stroke="rgb(204, 204, 204)" stroke-width="1px"></line><line x1="70" y1="345.5833333333333" x2="65" y2="345.5833333333333" style="visibility: inherit;" fill="rgb(0, 0, 0)" stroke="rgb(204, 204, 204)" stroke-width="1px"></line><line x1="70" y1="314.1666666666667" x2="65" y2="314.1666666666667" style="visibility: inherit;" fill="rgb(0, 0, 0)" stroke="rgb(204, 204, 204)" stroke-width="1px"></line><line x1="70" y1="282.75" x2="65" y2="282.75" style="visibility: inherit;" fill="rgb(0, 0, 0)" stroke="rgb(204, 204, 204)" stroke-width="1px"></line><line x1="70" y1="251.33333333333331" x2="65" y2="251.33333333333331" style="visibility: inherit;" fill="rgb(0, 0, 0)" stroke="rgb(204, 204, 204)" stroke-width="1px"></line><line x1="70" y1="219.91666666666669" x2="65" y2="219.91666666666669" style="visibility: inherit;" fill="rgb(0, 0, 0)" stroke="rgb(204, 204, 204)" stroke-width="1px"></line><line x1="70" y1="188.5" x2="65" y2="188.5" style="visibility: inherit;" fill="rgb(0, 0, 0)" stroke="rgb(204, 204, 204)" stroke-width="1px"></line><line x1="70" y1="157.08333333333331" x2="65" y2="157.08333333333331" style="visibility: inherit;" fill="rgb(0, 0, 0)" stroke="rgb(204, 204, 204)" stroke-width="1px"></line><line x1="70" y1="125.66666666666669" x2="65" y2="125.66666666666669" style="visibility: inherit;" fill="rgb(0, 0, 0)" stroke="rgb(204, 204, 204)" stroke-width="1px"></line><line x1="70" y1="94.25" x2="65" y2="94.25" style="visibility: inherit;" fill="rgb(0, 0, 0)" stroke="rgb(204, 204, 204)" stroke-width="1px"></line><line x1="70" y1="62.83333333333332" x2="65" y2="62.83333333333332" style="visibility: inherit;" fill="rgb(0, 0, 0)" stroke="rgb(204, 204, 204)" stroke-width="1px"></line><line x1="70" y1="31.416666666666682" x2="65" y2="31.416666666666682" style="visibility: inherit;" fill="rgb(0, 0, 0)" stroke="rgb(204, 204, 204)" stroke-width="1px"></line><line x1="70" y1="0" x2="65" y2="0" style="visibility: inherit;" fill="rgb(0, 0, 0)" stroke="rgb(204, 204, 204)" stroke-width="1px"></line></g><g transform="translate(60, 0)"><text x="0" y="377" dx="0em" dy="0.3em" style="text-anchor: end; visibility: hidden; font-family: Roboto, sans-serif; font-size: 12px; font-weight: 200;" fill="rgb(33, 33, 33)" stroke="none" stroke-width="1px">2e-4</text><text x="0" y="345.5833333333333" dx="0em" dy="0.3em" style="text-anchor: end; visibility: inherit; font-family: Roboto, sans-serif; font-size: 12px; font-weight: 200;" fill="rgb(33, 33, 33)" stroke="none" stroke-width="1px">4e-4</text><text x="0" y="314.1666666666667" dx="0em" dy="0.3em" style="text-anchor: end; visibility: inherit; font-family: Roboto, sans-serif; font-size: 12px; font-weight: 200;" fill="rgb(33, 33, 33)" stroke="none" stroke-width="1px">6e-4</text><text x="0" y="282.75" dx="0em" dy="0.3em" style="text-anchor: end; visibility: inherit; font-family: Roboto, sans-serif; font-size: 12px; font-weight: 200;" fill="rgb(33, 33, 33)" stroke="none" stroke-width="1px">8e-4</text><text x="0" y="251.33333333333331" dx="0em" dy="0.3em" style="text-anchor: end; visibility: inherit; font-family: Roboto, sans-serif; font-size: 12px; font-weight: 200;" fill="rgb(33, 33, 33)" stroke="none" stroke-width="1px">1e-3</text><text x="0" y="219.91666666666669" dx="0em" dy="0.3em" style="text-anchor: end; visibility: inherit; font-family: Roboto, sans-serif; font-size: 12px; font-weight: 200;" fill="rgb(33, 33, 33)" stroke="none" stroke-width="1px">1.2e-3</text><text x="0" y="188.5" dx="0em" dy="0.3em" style="text-anchor: end; visibility: inherit; font-family: Roboto, sans-serif; font-size: 12px; font-weight: 200;" fill="rgb(33, 33, 33)" stroke="none" stroke-width="1px">1.4e-3</text><text x="0" y="157.08333333333331" dx="0em" dy="0.3em" style="text-anchor: end; visibility: inherit; font-family: Roboto, sans-serif; font-size: 12px; font-weight: 200;" fill="rgb(33, 33, 33)" stroke="none" stroke-width="1px">1.6e-3</text><text x="0" y="125.66666666666669" dx="0em" dy="0.3em" style="text-anchor: end; visibility: inherit; font-family: Roboto, sans-serif; font-size: 12px; font-weight: 200;" fill="rgb(33, 33, 33)" stroke="none" stroke-width="1px">1.8e-3</text><text x="0" y="94.25" dx="0em" dy="0.3em" style="text-anchor: end; visibility: inherit; font-family: Roboto, sans-serif; font-size: 12px; font-weight: 200;" fill="rgb(33, 33, 33)" stroke="none" stroke-width="1px">2e-3</text><text x="0" y="62.83333333333332" dx="0em" dy="0.3em" style="text-anchor: end; visibility: inherit; font-family: Roboto, sans-serif; font-size: 12px; font-weight: 200;" fill="rgb(33, 33, 33)" stroke="none" stroke-width="1px">2.2e-3</text><text x="0" y="31.416666666666682" dx="0em" dy="0.3em" style="text-anchor: end; visibility: inherit; font-family: Roboto, sans-serif; font-size: 12px; font-weight: 200;" fill="rgb(33, 33, 33)" stroke="none" stroke-width="1px">2.4e-3</text><text x="0" y="0" dx="0em" dy="0.3em" style="text-anchor: end; visibility: hidden; font-family: Roboto, sans-serif; font-size: 12px; font-weight: 200;" fill="rgb(33, 33, 33)" stroke="none" stroke-width="1px">2.6e-3</text></g><line x1="70" y1="0" x2="70" y2="377" fill="rgb(0, 0, 0)" stroke="rgb(204, 204, 204)" stroke-width="1px"></line></g></g><g transform="translate(70, 0)" clip-path="url(#clip_0)"><clipPath id="clip_0"><rect width="817" height="377"></rect></clipPath><g><g><g><line x1="0" y1="0" x2="0" y2="377" fill="rgb(0, 0, 0)" stroke="rgb(66, 66, 66)" stroke-width="1px" opacity="0.25"></line><line x1="68.08333333333333" y1="0" x2="68.08333333333333" y2="377" fill="rgb(0, 0, 0)" stroke="rgb(66, 66, 66)" stroke-width="1px" opacity="0.25"></line><line x1="136.16666666666666" y1="0" x2="136.16666666666666" y2="377" fill="rgb(0, 0, 0)" stroke="rgb(66, 66, 66)" stroke-width="1px" opacity="0.25"></line><line x1="204.25" y1="0" x2="204.25" y2="377" fill="rgb(0, 0, 0)" stroke="rgb(66, 66, 66)" stroke-width="1px" opacity="0.25"></line><line x1="272.3333333333333" y1="0" x2="272.3333333333333" y2="377" fill="rgb(0, 0, 0)" stroke="rgb(66, 66, 66)" stroke-width="1px" opacity="0.25"></line><line x1="340.4166666666667" y1="0" x2="340.4166666666667" y2="377" fill="rgb(0, 0, 0)" stroke="rgb(66, 66, 66)" stroke-width="1px" opacity="0.25"></line><line x1="408.5" y1="0" x2="408.5" y2="377" fill="rgb(0, 0, 0)" stroke="rgb(66, 66, 66)" stroke-width="1px" opacity="0.25"></line><line x1="476.58333333333337" y1="0" x2="476.58333333333337" y2="377" fill="rgb(0, 0, 0)" stroke="rgb(66, 66, 66)" stroke-width="1px" opacity="0.25"></line><line x1="544.6666666666666" y1="0" x2="544.6666666666666" y2="377" fill="rgb(0, 0, 0)" stroke="rgb(66, 66, 66)" stroke-width="1px" opacity="0.25"></line><line x1="612.75" y1="0" x2="612.75" y2="377" fill="rgb(0, 0, 0)" stroke="rgb(66, 66, 66)" stroke-width="1px" opacity="0.25"></line><line x1="680.8333333333334" y1="0" x2="680.8333333333334" y2="377" fill="rgb(0, 0, 0)" stroke="rgb(66, 66, 66)" stroke-width="1px" opacity="0.25"></line><line x1="748.9166666666666" y1="0" x2="748.9166666666666" y2="377" fill="rgb(0, 0, 0)" stroke="rgb(66, 66, 66)" stroke-width="1px" opacity="0.25"></line><line x1="817" y1="0" x2="817" y2="377" fill="rgb(0, 0, 0)" stroke="rgb(66, 66, 66)" stroke-width="1px" opacity="0.25"></line></g><g><line x1="0" y1="377" x2="817" y2="377" fill="rgb(0, 0, 0)" stroke="rgb(66, 66, 66)" stroke-width="1px" opacity="0.25"></line><line x1="0" y1="345.5833333333333" x2="817" y2="345.5833333333333" fill="rgb(0, 0, 0)" stroke="rgb(66, 66, 66)" stroke-width="1px" opacity="0.25"></line><line x1="0" y1="314.1666666666667" x2="817" y2="314.1666666666667" fill="rgb(0, 0, 0)" stroke="rgb(66, 66, 66)" stroke-width="1px" opacity="0.25"></line><line x1="0" y1="282.75" x2="817" y2="282.75" fill="rgb(0, 0, 0)" stroke="rgb(66, 66, 66)" stroke-width="1px" opacity="0.25"></line><line x1="0" y1="251.33333333333331" x2="817" y2="251.33333333333331" fill="rgb(0, 0, 0)" stroke="rgb(66, 66, 66)" stroke-width="1px" opacity="0.25"></line><line x1="0" y1="219.91666666666669" x2="817" y2="219.91666666666669" fill="rgb(0, 0, 0)" stroke="rgb(66, 66, 66)" stroke-width="1px" opacity="0.25"></line><line x1="0" y1="188.5" x2="817" y2="188.5" fill="rgb(0, 0, 0)" stroke="rgb(66, 66, 66)" stroke-width="1px" opacity="0.25"></line><line x1="0" y1="157.08333333333331" x2="817" y2="157.08333333333331" fill="rgb(0, 0, 0)" stroke="rgb(66, 66, 66)" stroke-width="1px" opacity="0.25"></line><line x1="0" y1="125.66666666666669" x2="817" y2="125.66666666666669" fill="rgb(0, 0, 0)" stroke="rgb(66, 66, 66)" stroke-width="1px" opacity="0.25"></line><line x1="0" y1="94.25" x2="817" y2="94.25" fill="rgb(0, 0, 0)" stroke="rgb(66, 66, 66)" stroke-width="1px" opacity="0.25"></line><line x1="0" y1="62.83333333333332" x2="817" y2="62.83333333333332" fill="rgb(0, 0, 0)" stroke="rgb(66, 66, 66)" stroke-width="1px" opacity="0.25"></line><line x1="0" y1="31.416666666666682" x2="817" y2="31.416666666666682" fill="rgb(0, 0, 0)" stroke="rgb(66, 66, 66)" stroke-width="1px" opacity="0.25"></line><line x1="0" y1="0" x2="817" y2="0" fill="rgb(0, 0, 0)" stroke="rgb(66, 66, 66)" stroke-width="1px" opacity="0.25"></line></g></g></g><g><g><line x1="0" y1="408.41666666666663" x2="817" y2="408.41666666666663" fill="rgb(0, 0, 0)" stroke="rgb(153, 153, 153)" stroke-width="1.5px"></line></g></g><g><g><line x1="68.08333333333333" y1="0" x2="68.08333333333333" y2="377" fill="rgb(0, 0, 0)" stroke="rgb(153, 153, 153)" stroke-width="1.5px"></line></g></g><g><g><g><g><g><path stroke="rgb(255, 112, 67)" stroke-width="2px" d="M91.91250000000001,-24.777166336941495L93.61458333333333,21.736537681673237L95.31666666666666,-11.346356611686168L98.72083333333333,-31.874259802428732L100.42291666666667,26.073447685662323L102.125,63.31543518521998L103.82708333333333,108.57022125983961L105.52916666666668,71.21983461391473L107.23125,99.5354681064904L108.93333333333334,153.04626218212874L110.63541666666666,189.81047066594866L112.3375,128.59884045275155L114.03958333333334,92.56386476940153L115.74166666666666,-20.412528424220504L117.44375,70.01622589600561L119.14583333333334,77.26450775909488L120.84791666666666,88.78811064463349L122.55,149.2881413378611L124.25208333333332,123.53875024491674L125.95416666666667,133.07914750153324L127.65625,186.3645330353802L129.35833333333332,225.08547597646256L131.06041666666667,226.96127142847564L132.76250000000002,66.83196294368553L134.46458333333334,177.6450613385793L136.16666666666666,201.26481183532132L137.86875,185.26178829863272L139.57083333333333,182.8516440780072L141.27291666666667,194.20738711857857L142.975,112.08953506842947L144.67708333333334,158.1024079563038L146.37916666666666,98.20617809929232L148.08124999999998,179.85823594740927L149.78333333333333,211.77295958303642L151.48541666666668,261.3520332538408L153.1875,131.50724619506838L154.88958333333332,206.53198710007314L156.59166666666667,271.5782947261614L158.29375000000002,292.1178775427428L159.99583333333334,291.64781098494774L161.69791666666666,197.89144229949116L163.4,206.03622885125054L165.10208333333333,257.5868395694855L166.80416666666667,267.94517097997016L168.50625,274.4442386365484L170.20833333333334,283.16684358519456L171.91041666666666,237.3119495100896L173.61249999999998,262.16147867513445L175.31458333333333,265.5670274549526L177.01666666666668,271.3483796851959L178.71875,286.9514936345717L180.42083333333332,191.2760465272009L182.12291666666667,189.51792344343102L183.82500000000002,251.3522268095413L185.52708333333334,295.9987747420757L187.22916666666666,253.23350862844498L188.93125,255.0821249570006L190.63333333333333,256.50253790793204L192.33541666666667,280.42904010117235L194.0375,271.9925284594743L195.73958333333334,260.7685263774066L197.44166666666666,272.00018083718095L199.14374999999998,299.42925051691327L200.84583333333333,190.9402202546504L202.54791666666668,239.9502978227232L204.25,250.5091084485486L205.95208333333332,246.40418394434116L207.65416666666667,268.33001601579014L209.35625,249.0981232259232L211.05833333333337,286.30518442525624L212.76041666666669,286.20638176035936L214.4625,280.3011015632362L216.16458333333333,275.42874962393915L217.86666666666667,284.11861052294137L219.56875,304.496564161606L221.27083333333331,308.60565772108066L222.97291666666663,310.431631697986L224.675,324.0004811424902L226.37708333333333,310.57226354070536L228.07916666666668,291.1615630967419L229.78125,306.48667722936904L231.48333333333332,294.36692945056336L233.18541666666667,297.447137800045L234.8875,300.7126919282288L236.58958333333337,296.20406981965516L238.29166666666669,316.9178079671021L239.99375,307.5315558409226L241.69583333333333,327.71172962998725L243.39791666666667,312.45890542570663L245.1,313.8250533596039L246.80208333333331,295.447736195872L248.50416666666663,236.70406549306819L250.20625,264.06876476954557L251.90833333333333,295.11683181736674L253.61041666666668,295.9832447016845L255.3125,318.3268205061679L257.01458333333335,281.08400731923183L258.71666666666664,303.3640098613381L260.41875,292.57357197679914L262.12083333333334,306.51923011835186L263.8229166666667,322.9002017526464L265.52500000000003,321.7543493016121L267.2270833333333,321.534466954393L268.9291666666667,318.688819094502L270.63124999999997,330.2418736271982L272.3333333333333,307.4137880557718L274.03541666666666,265.3886674390972L275.7375,281.2526149251108L277.43958333333336,307.8065299886277L279.14166666666665,287.40963268234384L280.84375,307.59228370920533L282.54583333333335,322.6711102395771L284.24791666666664,331.6970561941069L285.95,335.5199676786467L287.65208333333334,334.18279984885794L289.3541666666667,334.0374928517194L291.05625000000003,297.45426377470477L292.7583333333333,312.03465915748427L294.4604166666667,341.30650584969544L296.16249999999997,356.3989594926246L297.8645833333333,350.27867267185763L299.56666666666666,307.36860832906103L301.26875,311.3354321458401L302.97083333333336,320.13376075048296L304.67291666666665,293.07217121849635L306.375,304.42127974406486L308.07708333333335,312.4221734114773L309.77916666666664,305.56330334086005L311.48125,302.9638378641645L313.18333333333334,271.88097161043896L314.8854166666667,289.7183745551056L316.58750000000003,311.57293831216504L318.2895833333333,336.052011382958L319.9916666666667,350.76379326969885L321.69374999999997,352.45967462292333L323.3958333333333,352.72186274933335L325.09791666666666,328.7628143879319L326.8,335.9174110921918L328.50208333333336,311.7787891169166L330.20416666666665,298.6506025782745L331.90625,313.0292329454087L333.60833333333335,333.41614306486L335.31041666666664,328.94427869890006L337.0125,335.956643994211L338.71458333333334,350.8056540405488L340.4166666666667,323.10569945726587L342.11875000000003,310.78510284779986L343.8208333333333,313.57808016955653L345.5229166666667,329.75233523053896L347.22499999999997,335.8878856982903L348.9270833333333,337.95867895329036L350.62916666666666,298.5913057599172L352.33125,318.8077409715163L354.03333333333336,300.7779704272082L355.73541666666665,296.8395436908589L357.4375,271.37812011105655L359.13958333333335,298.8916915940824L360.84166666666664,308.12997343340453L362.54375,316.0343820158918L364.24583333333334,313.49856029654904L365.9479166666667,318.2166476435006L367.65000000000003,309.53892053054204L369.3520833333333,291.5964887129514L371.0541666666667,281.8548586736128L372.75624999999997,306.8726603460936L374.4583333333333,339.5689088246613L376.16041666666666,278.1485083724207L377.8625,307.7443809440912L379.56458333333336,313.26397728977L381.26666666666665,329.34578568081747L382.96875,350.5949880916171L384.67083333333335,282.72755775139734L386.37291666666664,278.78030992896646L388.075,301.31286551975484L389.77708333333334,324.19367859513403L391.4791666666667,323.64630611764454L393.18125000000003,324.692355805564L394.8833333333333,343.9724531750402L396.5854166666667,357.1124696494383L398.28749999999997,329.7365298916302L399.9895833333333,338.29134156077953L401.69166666666666,315.18419361377784L403.39375,315.95801050516735L405.09583333333336,298.6682962448998L406.79791666666665,303.7832436790218L408.5,318.12828095537884L410.20208333333335,316.2937757842004L411.90416666666664,317.32818242964146L413.60625,338.02865836859195L415.30833333333334,325.0136523423364L417.01041666666663,300.66456212154026L418.7125,322.49449271575367L420.41458333333327,338.19437983385984L422.11666666666673,338.9673829677417L423.81875,336.65538783398495L425.52083333333337,348.7621779178417L427.22291666666666,344.38052978945234L428.925,350.198597815418L430.62708333333336,304.9201435657606L432.32916666666665,331.9597346034072L434.03125,330.1034365973475L435.73333333333335,333.4969085186154L437.43541666666664,339.1866425031177L439.1375,284.34823983063933L440.83958333333334,317.4065446987957L442.54166666666663,328.08426211715687L444.24375,343.81800686109847L445.94583333333327,359.9359536279132L447.64791666666673,254.05230620295637L449.35,244.33451562473672L451.05208333333337,287.85293918146766L452.75416666666666,292.96361310485014L454.45625,314.68599793040124L456.15833333333336,290.7366139182475L457.86041666666665,307.6767793290917L459.5625,322.6121922347465L461.26458333333335,296.24610216977555L462.96666666666664,310.64243090537605L464.66875,325.4268122894343L466.37083333333334,325.078327469836L468.07291666666663,337.3212778524017L469.775,307.05306790089156L471.47708333333327,330.6462576957834L473.17916666666673,351.28284104450296L474.88125,332.3105799963537L476.58333333333337,321.73288596313097L478.28541666666666,251.92844998762172L479.9875,264.92270735530593L481.68958333333336,313.0983429592624L483.39166666666665,314.3662612392321L485.09375,275.45279984661454L486.79583333333335,292.9999850553552L488.49791666666664,317.5942575583336L490.2,323.34313148309775L491.90208333333334,333.7754611535649L493.60416666666663,323.3684756576536L495.30625,304.1895601806999L497.00833333333327,245.72833204400678L498.71041666666673,279.9308430277702L500.4125,286.8887679726948L502.11458333333337,320.26950613628696L503.81666666666666,332.23330701217543L505.51875,347.8423370915657L507.22083333333336,320.5289115970231L508.92291666666665,324.2414365764429L510.625,328.98265880118004L512.3270833333333,329.19851395988763L514.0291666666667,290.91298892152884L515.7312499999999,273.0581821826316L517.4333333333333,256.33112948876055L519.1354166666666,262.94632979562675L520.8375,285.58208074579056L522.5395833333333,309.5474313234711L524.2416666666667,333.56579093986704L525.94375,308.6990270582481L527.6458333333334,325.9213162108441L529.3479166666667,335.13114946314835L531.0500000000001,315.62461472440805L532.7520833333333,299.27869059740556L534.4541666666667,305.5049643409133L536.15625,328.89741797348364L537.8583333333333,348.7502871146246L539.5604166666667,363.3656756525441L541.2624999999999,321.17590108688586L542.9645833333333,318.31766665729305L544.6666666666666,335.7738321775016L546.36875,336.96496410167555L548.0708333333333,357.1078441425513L549.7729166666667,344.9642024175094L551.475,314.44915813492213L553.1770833333334,322.76854141725545L554.8791666666667,322.0142167982118L556.5812500000001,303.4268732598884L558.2833333333333,296.9537098776676L559.9854166666667,262.1821363573287L561.6875,298.26901437538913L563.3895833333333,328.49772790749637L565.0916666666667,354.7453244594901L566.7937499999999,340.8395993311388L568.4958333333333,358.15506722580346L570.1979166666666,320.0023216607758L571.9,328.0633945115755L573.6020833333333,314.16080660731006L575.3041666666667,343.41415257289617L577.00625,341.38834859524366L578.7083333333334,333.937696632016L580.4104166666667,356.41180037551214L582.1125000000001,344.4615091242167L583.8145833333333,352.6657751363135L585.5166666666667,356.0730706736773L587.21875,336.8865156079125L588.9208333333333,350.5312822763792L590.6229166666667,356.3658316224416L592.3249999999999,347.2849736792666L594.0270833333333,294.5979480158233L595.7291666666666,328.51632825660477L597.43125,349.47750819003073L599.1333333333333,336.36513429611284L600.8354166666667,338.92569604226657L602.5375,347.2595981984344L604.2395833333334,363.3478259792107L605.9416666666667,344.69717795500657L607.6437500000001,347.8578763117192L609.3458333333333,346.9619815774359L611.0479166666667,334.4180114927698L612.75,337.13011379534043L614.4520833333333,333.28965221807533L616.1541666666667,344.681463843749L617.8562499999999,342.67586458982396L619.5583333333333,345.5968571929551L621.2604166666666,355.5609139514097L622.9625,266.6229119565116L624.6645833333333,281.3171166353167L626.3666666666667,290.122316189907L628.06875,293.9466527931205L629.7708333333334,320.9891250597092L631.4729166666667,307.2059241919149L633.1750000000001,323.4242145288125L634.8770833333333,345.1929063008616L636.5791666666667,361.66487269883174L638.28125,351.74630500596436L639.9833333333333,333.14691009198816L641.6854166666667,355.9232973650777L643.3874999999999,364.81547808874825L645.0895833333333,350.6223660725325L646.7916666666666,307.4010914400686L648.49375,306.78113254844527L650.1958333333333,303.0724587078318L651.8979166666667,278.1874946677752L653.6,276.2493927867838L655.3020833333334,306.0365380710356L657.0041666666667,327.3327742369676L658.7062500000001,322.03942206352247L660.4083333333333,328.9211473259784L662.1104166666667,253.89716433359428L663.8125,290.09258144302026L665.5145833333333,329.2162806391389L667.2166666666667,322.9826190877665L668.9187499999999,315.527437039782L670.6208333333333,308.19077741722674L672.3229166666666,294.80216041199924L674.025,328.5162063247236L675.7270833333333,322.6331034412776L677.4291666666667,260.43619308362173L679.13125,281.72673100486196L680.8333333333334,304.7353906405134L682.5354166666667,325.2085339349556L684.2375000000001,342.580321987426L685.9395833333333,357.48434165706544L687.6416666666667,358.4680465733505L689.34375,341.8978745810828L691.0458333333333,355.67288098714306L692.7479166666667,348.0325724203592L694.4499999999999,301.7256975638331L696.1520833333333,289.602091954137L697.8541666666666,313.77510113643683L699.55625,327.7751005346855L701.2583333333333,338.66901183410516L702.9604166666667,348.67555336775365L704.6625,354.0682823166071L706.3645833333334,337.2875725598929L708.0666666666667,326.5692044363932L709.7687500000001,304.22176825640753L711.4708333333333,307.8370306350765L713.1729166666667,339.12756871327883L714.875,335.8065416591355L716.5770833333333,346.5385860789123L718.2791666666667,338.9344283681842L719.9812499999999,307.6756940951454L721.6833333333333,310.02272107192545L723.3854166666666,298.4839681657908L725.0875,335.64641280537296L726.7895833333333,344.79736011249685L728.4916666666667,323.62673204967723L730.19375,323.625182538611L731.8958333333334,348.9096411604556L733.5979166666667,341.97343745210316L735.3000000000001,338.16746871204987L737.0020833333333,329.6775709729365L738.7041666666667,342.7861578590521L740.40625,345.0228359776564L742.1083333333333,360.5453945563114L743.8104166666667,357.5669784117562L745.5124999999999,352.9239582541287L747.2145833333333,343.4786618269695L748.9166666666666,333.0307306102337" style="fill: none;" fill="none"></path></g></g></g></g><g opacity="0.2"><g><g><g><path stroke="rgb(255, 112, 67)" stroke-width="2px" d="M73.18958333333333,-650.2793714230261L74.89166666666667,137.2131707747467L76.59375,-37.46994630014524L85.10416666666667,-564.6132592869303L86.80624999999999,119.06193453267525L88.50833333333334,-99.39837332163006L90.21041666666666,155.42612532728043L91.91250000000001,50.136077483495065L93.61458333333333,91.47428864178556L95.31666666666666,-60.956698479596525L97.01875,-336.3570394829538L98.72083333333333,132.34342235365568L100.42291666666667,112.98971226780363L102.125,119.17637399545248L103.82708333333333,176.4509112437566L105.52916666666668,15.194992063256574L107.23125,142.0085829196808L108.93333333333334,233.31207296376425L110.63541666666666,244.95662660912296L112.3375,36.781551756740846L114.03958333333334,38.51145656655229L115.74166666666666,-189.8770141474282L117.44375,205.65930739774683L119.14583333333334,88.13692815011986L120.84791666666666,106.07351268013008L122.55,240.03818015521392L124.25208333333332,84.91466544987634L125.95416666666667,147.38974297644262L127.65625,266.29260996213026L129.35833333333332,283.16688978900976L131.06041666666667,229.7749645890823L132.76250000000002,-173.36199889161318L134.46458333333334,343.8647085605965L136.16666666666666,236.6944375330737L137.86875,161.25725301285274L139.57083333333333,179.23642774880864L141.27291666666667,211.2410016745174L142.975,-11.087242985454726L144.67708333333334,227.12171728094108L146.37916666666666,8.361833319378382L148.08124999999998,302.3363227150015L149.78333333333333,259.6450450354023L151.48541666666668,335.7206437590454L153.1875,-63.259934391516005L154.88958333333332,319.06909845703433L156.59166666666667,369.1477561650099L158.29375000000002,322.92725176756113L159.99583333333334,290.9427111482558L161.69791666666666,57.25688927139465L163.4,218.25340867888497L165.10208333333333,334.9127556468205L166.80416666666667,283.48266809569515L168.50625,284.1928401214148L170.20833333333334,296.2507510081632L171.91041666666666,168.52960839743417L173.61249999999998,299.4357724227011L175.31458333333333,270.6753506246799L177.01666666666668,280.02040803056053L178.71875,310.3561645586354L180.42083333333332,47.762875866144896L182.12291666666667,186.88073881777626L183.82500000000002,344.1036818587066L185.52708333333334,362.96859664087725L187.22916666666666,189.08560945799888L188.93125,257.85504944983404L190.63333333333333,258.6331573343292L192.33541666666667,316.3187933910327L194.0375,259.33776099692716L195.73958333333334,243.93252325430512L197.44166666666666,288.8476625268425L199.14374999999998,340.5728550365117L200.84583333333333,28.206674861256033L202.54791666666668,313.4654141748324L204.25,266.3473243872868L205.95208333333332,240.24679718802992L207.65416666666667,301.21876412296353L209.35625,220.25028404112288L211.05833333333337,342.11577622425585L212.76041666666669,286.0581777630141L214.4625,271.44318126755144L216.16458333333333,268.1202217149936L217.86666666666667,297.15340187144466L219.56875,335.0634946196029L221.27083333333331,314.76929806029267L222.97291666666663,313.170592663344L224.675,344.3537553092465L226.37708333333333,290.4299371380281L228.07916666666668,262.0455124307967L229.78125,329.4743484283099L231.48333333333332,276.18730778235476L233.18541666666667,302.06745032426744L234.8875,305.61102312050446L236.58958333333337,289.4411366567947L238.29166666666669,347.9884151882725L239.99375,293.45217765165336L241.69583333333333,357.9819903135843L243.39791666666667,289.5796691192857L245.1,315.8742752604497L246.80208333333331,267.88176045027404L248.50416666666663,148.58855943886255L250.20625,305.1158136842617L251.90833333333333,341.6889323890985L253.61041666666668,297.28286402816104L255.3125,351.8421842128931L257.01458333333335,225.2197875388277L258.71666666666664,336.78401367449743L260.41875,276.38791514999076L262.12083333333334,327.4377173306808L263.8229166666667,347.4716592040883L265.52500000000003,320.03557062506053L267.2270833333333,321.20464343356434L268.9291666666667,314.4203473046655L270.63124999999997,347.5714554262425L272.3333333333333,273.1716596986322L274.03541666666666,202.35098651408532L275.7375,305.04853615413106L277.43958333333336,347.63740258390317L279.14166666666665,256.81428672291804L280.84375,337.8662602494975L282.54583333333335,345.2893500351347L284.24791666666664,345.2359751259016L285.95,341.25433490545646L287.65208333333334,332.1770481041749L289.3541666666667,333.8195323560115L291.05625000000003,242.5794201591828L292.7583333333333,333.9052522316536L294.4604166666667,385.21427588801214L296.16249999999997,379.0376399570183L297.8645833333333,341.0982424407072L299.56666666666666,243.00351181486621L301.26875,317.2856678710086L302.97083333333336,333.3312536574473L304.67291666666665,252.4797869205164L306.375,321.44494253241766L308.07708333333335,324.4235139125958L309.77916666666664,295.2749982349342L311.48125,299.0646396491211L313.18333333333334,225.25667222985066L314.8854166666667,316.4744789721056L316.58750000000003,344.3547839477542L318.2895833333333,372.7706209891476L319.9916666666667,372.83146609981003L321.69374999999997,355.0034966527601L323.3958333333333,353.1151449389484L325.09791666666666,292.8242418458297L326.8,346.6493061485817L328.50208333333336,275.57085615400376L330.20416666666665,278.9583227703115L331.90625,334.5971784961099L333.60833333333335,363.996508244037L335.31041666666664,322.2364821499601L337.0125,346.47519193717744L338.71458333333334,373.0791691100555L340.4166666666667,281.5557675823414L342.11875000000003,292.304207933601L343.8208333333333,317.7675461521915L345.5229166666667,354.01371782201267L347.22499999999997,345.0912113999172L348.9270833333333,341.06486883579055L350.62916666666666,239.54024596985738L352.33125,349.13239378891495L354.03333333333336,273.73331461074605L355.73541666666665,290.93190358633484L357.4375,233.18598474135308L359.13958333333335,340.16204881862114L360.84166666666664,321.9873961923877L362.54375,327.89099488962285L364.24583333333334,309.69482771753485L365.9479166666667,325.293778663928L367.65000000000003,296.52232986110414L369.3520833333333,264.68284098656534L371.0541666666667,267.2424136146049L372.75624999999997,344.3993628548148L374.4583333333333,388.61328154251294L376.16041666666666,186.01790769405972L377.8625,352.13818980159704L379.56458333333336,321.54337180828827L381.26666666666665,353.4684982673886L382.96875,382.46879170781665L384.67083333333335,180.92641224106774L386.37291666666664,272.85943819532014L388.075,335.1116989059374L389.77708333333334,358.5148982082028L391.4791666666667,322.82524740141037L393.18125000000003,326.261430337443L394.8833333333333,372.8925992292546L396.5854166666667,376.82249436103547L398.28749999999997,288.672620254918L399.9895833333333,351.12355906450347L401.69166666666666,280.5234716932755L403.39375,317.1187358422515L405.09583333333336,272.73372485449846L406.79791666666665,311.4556648302047L408.5,339.6458368699144L410.20208333333335,313.54201802743285L411.90416666666664,318.879792397803L413.60625,369.0793722770177L415.30833333333334,305.49114330295316L417.01041666666663,264.14092679034604L418.7125,355.23938860707375L420.41458333333327,361.74421051101916L422.11666666666673,340.12688766856445L423.81875,333.1873951333497L425.52083333333337,366.92236304362694L427.22291666666666,337.8080575968682L428.925,358.92569985436666L430.62708333333336,237.0024621912744L432.32916666666665,372.519121159877L434.03125,327.31898958825815L435.73333333333335,338.5871164005172L437.43541666666664,347.7212434798712L439.1375,202.09063582192175L440.83958333333334,366.9940020010302L442.54166666666663,344.10083824469865L444.24375,367.4186239770109L445.94583333333327,384.11287377813517L447.64791666666673,95.2268350655213L449.35,229.7578297574073L451.05208333333337,353.13057451656397L452.75416666666666,300.62962398992386L454.45625,347.2695751687279L456.15833333333336,254.81253790001693L457.86041666666665,333.0870274453579L459.5625,345.01531159322866L461.26458333333335,256.69696707231924L462.96666666666664,332.2369240087767L464.66875,347.60338436552166L466.37083333333334,324.55560024043854L468.07291666666663,355.68570342625026L469.775,261.65075297362637L471.47708333333327,366.03604238812113L473.17916666666673,382.23771606758237L474.88125,303.8521884241296L476.58333333333337,305.866344913297L478.28541666666666,147.2217960243579L479.9875,284.41409340683214L481.68958333333336,385.36179636519716L483.39166666666665,316.26813865918666L485.09375,217.08260775768815L486.79583333333335,319.32076286846615L488.49791666666664,354.4856663128012L490.2,331.96644237024395L491.90208333333334,349.42395565926563L493.60416666666663,307.7579974137867L495.30625,275.4211869652693L497.00833333333327,158.0364898389671L498.71041666666673,331.2346095034154L500.4125,297.3256553900816L502.11458333333337,370.3406133816752L503.81666666666666,350.17900832600816L505.51875,371.2558822106512L507.22083333333336,279.55877335520927L508.92291666666665,329.81022404557245L510.625,336.0944921382858L512.3270833333333,329.52229669794906L514.0291666666667,233.48470136399067L515.7312499999999,246.27597207428573L517.4333333333333,231.24055044795386L519.1354166666666,272.86913025592605L520.8375,319.5357071710362L522.5395833333333,345.4954571899919L524.2416666666667,369.5933303644609L525.94375,271.3988812358196L527.6458333333334,351.75474993973813L529.3479166666667,348.9458993416047L531.0500000000001,286.3648126162976L532.7520833333333,274.7598044069018L534.4541666666667,314.84437495617505L536.15625,363.986098422339L537.8583333333333,378.52959082633606L539.5604166666667,385.2887584594233L541.2624999999999,257.89123923839844L542.9645833333333,314.0303150129039L544.6666666666666,361.9580804578145L546.36875,338.7516619879364L548.0708333333333,387.3221642038649L549.7729166666667,326.7487398299466L551.475,268.67659171104117L553.1770833333334,335.2476163407555L554.8791666666667,320.8827298696463L556.5812500000001,275.5458579524032L558.2833333333333,287.24396480433643L559.9854166666667,210.02477607682033L561.6875,352.39933140247985L563.3895833333333,373.8407982056572L565.0916666666667,394.1167192874806L566.7937499999999,319.98101163861185L568.4958333333333,384.1282690678005L570.1979166666666,262.77320331323426L571.9,340.15500378777506L573.6020833333333,293.306924750912L575.3041666666667,387.2941715212752L577.00625,338.349642628765L578.7083333333334,322.7617186871745L580.4104166666667,390.1229559907564L582.1125000000001,326.5360722472736L583.8145833333333,364.97217415445874L585.5166666666667,361.1840139797229L587.21875,308.1066830092653L588.9208333333333,370.9984322790794L590.6229166666667,365.1176556415351L592.3249999999999,333.6636867645041L594.0270833333333,215.56740952065832L595.7291666666666,379.3938986177769L597.43125,380.91927809016977L599.1333333333333,316.6965734552359L600.8354166666667,342.7665386614972L602.5375,359.7604514326861L604.2395833333334,387.48016765037517L605.9416666666667,316.72120591870043L607.6437500000001,352.59892384678824L609.3458333333333,345.61813947601087L611.0479166666667,315.6020563657706L612.75,341.1982672491965L614.4520833333333,327.52895985217765L616.1541666666667,361.7691812822595L617.8562499999999,339.6674657089364L619.5583333333333,349.9783460976517L621.2604166666666,370.50699908909155L622.9625,133.21590896416456L624.6645833333333,303.35842365352437L626.3666666666667,303.3301155217923L628.06875,299.6831576979408L629.7708333333334,361.55283345959225L631.4729166666667,286.5311228902234L633.1750000000001,347.75165003415896L634.8770833333333,377.8459439589351L636.5791666666667,386.37282229578705L638.28125,336.86845346666325L639.9833333333333,305.2478177210238L641.6854166666667,390.0878782747119L643.3874999999999,378.15374917425413L645.0895833333333,329.33269804820884L646.7916666666666,242.56917949137278L648.49375,305.8511942110102L650.1958333333333,297.5094479469117L651.8979166666667,240.86004860769026L653.6,273.34223996529664L655.3020833333334,350.7172559974133L657.0041666666667,359.2771284858657L658.7062500000001,314.09939380335464L660.4083333333333,339.24373521966237L662.1104166666667,141.3611898450181L663.8125,344.38570710715913L665.5145833333333,387.90182943331695L667.2166666666667,313.6321267607078L668.9187499999999,304.3446639678053L670.6208333333333,297.1857879833939L672.3229166666666,274.71923490415793L674.025,379.0872751938101L675.7270833333333,313.8084491161086L677.4291666666667,167.14082754713792L679.13125,313.6625378867223L680.8333333333334,339.24838009399053L682.5354166666667,355.91824887661886L684.2375000000001,368.63800406613154L685.9395833333333,379.8403711615247L687.6416666666667,359.94360394777806L689.34375,317.0426165926813L691.0458333333333,376.33539059623337L692.7479166666667,336.57210957018344L694.4499999999999,232.26538527904387L696.1520833333333,271.41668353959295L697.8541666666666,350.03461490988656L699.55625,348.7750996320586L701.2583333333333,355.00987878323457L702.9604166666667,363.6853656682263L704.6625,362.15737573988736L706.3645833333334,312.1165079248215L708.0666666666667,310.4916522511436L709.7687500000001,270.7006139864291L711.4708333333333,313.2599242030798L713.1729166666667,386.06337583058246L714.875,330.8250010779205L716.5770833333333,362.63665270857746L718.2791666666667,327.5281918020919L719.9812499999999,260.78759268558736L721.6833333333333,313.54326153709553L723.3854166666666,281.1758388065888L725.0875,391.39007976474625L726.7895833333333,358.52378107318265L728.4916666666667,291.8707899554477L730.19375,323.6228582720117L731.8958333333334,386.8363290932224L733.5979166666667,331.5691318895745L735.3000000000001,332.4585156019699L737.0020833333333,316.9427243642664L738.7041666666667,362.4490381882254L740.40625,348.37785315556295L742.1083333333333,383.8292324242939L743.8104166666667,353.0993541949235L745.5124999999999,345.95942801768734L747.2145833333333,329.3107171862308L748.9166666666666,317.35883378513" style="fill: none;" fill="none"></path></g></g></g></g></g><g><g opacity="0.367876"><span fill="rgb(0, 0, 0)" stroke="none" stroke-width="1px">Alt + Scroll to Zoom</span></g></g></g><g transform="translate(70, 377)" clip-path="url(#clip_1)"><clipPath id="clip_1"><rect width="817" height="23"></rect></clipPath><g><g><line x1="0" y1="0" x2="0" y2="5" style="visibility: inherit;" fill="rgb(0, 0, 0)" stroke="rgb(204, 204, 204)" stroke-width="1px"></line><line x1="68.08333333333333" y1="0" x2="68.08333333333333" y2="5" style="visibility: inherit;" fill="rgb(0, 0, 0)" stroke="rgb(204, 204, 204)" stroke-width="1px"></line><line x1="136.16666666666666" y1="0" x2="136.16666666666666" y2="5" style="visibility: inherit;" fill="rgb(0, 0, 0)" stroke="rgb(204, 204, 204)" stroke-width="1px"></line><line x1="204.25" y1="0" x2="204.25" y2="5" style="visibility: inherit;" fill="rgb(0, 0, 0)" stroke="rgb(204, 204, 204)" stroke-width="1px"></line><line x1="272.3333333333333" y1="0" x2="272.3333333333333" y2="5" style="visibility: inherit;" fill="rgb(0, 0, 0)" stroke="rgb(204, 204, 204)" stroke-width="1px"></line><line x1="340.4166666666667" y1="0" x2="340.4166666666667" y2="5" style="visibility: inherit;" fill="rgb(0, 0, 0)" stroke="rgb(204, 204, 204)" stroke-width="1px"></line><line x1="408.5" y1="0" x2="408.5" y2="5" style="visibility: inherit;" fill="rgb(0, 0, 0)" stroke="rgb(204, 204, 204)" stroke-width="1px"></line><line x1="476.58333333333337" y1="0" x2="476.58333333333337" y2="5" style="visibility: inherit;" fill="rgb(0, 0, 0)" stroke="rgb(204, 204, 204)" stroke-width="1px"></line><line x1="544.6666666666666" y1="0" x2="544.6666666666666" y2="5" style="visibility: inherit;" fill="rgb(0, 0, 0)" stroke="rgb(204, 204, 204)" stroke-width="1px"></line><line x1="612.75" y1="0" x2="612.75" y2="5" style="visibility: inherit;" fill="rgb(0, 0, 0)" stroke="rgb(204, 204, 204)" stroke-width="1px"></line><line x1="680.8333333333334" y1="0" x2="680.8333333333334" y2="5" style="visibility: inherit;" fill="rgb(0, 0, 0)" stroke="rgb(204, 204, 204)" stroke-width="1px"></line><line x1="748.9166666666666" y1="0" x2="748.9166666666666" y2="5" style="visibility: inherit;" fill="rgb(0, 0, 0)" stroke="rgb(204, 204, 204)" stroke-width="1px"></line><line x1="817" y1="0" x2="817" y2="5" style="visibility: inherit;" fill="rgb(0, 0, 0)" stroke="rgb(204, 204, 204)" stroke-width="1px"></line></g><g transform="translate(0, 8)"><text x="0" y="0" dx="0em" dy="0.95em" style="text-anchor: middle; visibility: hidden; font-family: Roboto, sans-serif; font-size: 12px; font-weight: 200;" fill="rgb(33, 33, 33)" stroke="none" stroke-width="1px">-20k</text><text x="68.08333333333333" y="0" dx="0em" dy="0.95em" style="text-anchor: middle; visibility: inherit; font-family: Roboto, sans-serif; font-size: 12px; font-weight: 200;" fill="rgb(33, 33, 33)" stroke="none" stroke-width="1px">0</text><text x="136.16666666666666" y="0" dx="0em" dy="0.95em" style="text-anchor: middle; visibility: inherit; font-family: Roboto, sans-serif; font-size: 12px; font-weight: 200;" fill="rgb(33, 33, 33)" stroke="none" stroke-width="1px">20k</text><text x="204.25" y="0" dx="0em" dy="0.95em" style="text-anchor: middle; visibility: inherit; font-family: Roboto, sans-serif; font-size: 12px; font-weight: 200;" fill="rgb(33, 33, 33)" stroke="none" stroke-width="1px">40k</text><text x="272.3333333333333" y="0" dx="0em" dy="0.95em" style="text-anchor: middle; visibility: inherit; font-family: Roboto, sans-serif; font-size: 12px; font-weight: 200;" fill="rgb(33, 33, 33)" stroke="none" stroke-width="1px">60k</text><text x="340.4166666666667" y="0" dx="0em" dy="0.95em" style="text-anchor: middle; visibility: inherit; font-family: Roboto, sans-serif; font-size: 12px; font-weight: 200;" fill="rgb(33, 33, 33)" stroke="none" stroke-width="1px">80k</text><text x="408.5" y="0" dx="0em" dy="0.95em" style="text-anchor: middle; visibility: inherit; font-family: Roboto, sans-serif; font-size: 12px; font-weight: 200;" fill="rgb(33, 33, 33)" stroke="none" stroke-width="1px">100k</text><text x="476.58333333333337" y="0" dx="0em" dy="0.95em" style="text-anchor: middle; visibility: inherit; font-family: Roboto, sans-serif; font-size: 12px; font-weight: 200;" fill="rgb(33, 33, 33)" stroke="none" stroke-width="1px">120k</text><text x="544.6666666666666" y="0" dx="0em" dy="0.95em" style="text-anchor: middle; visibility: inherit; font-family: Roboto, sans-serif; font-size: 12px; font-weight: 200;" fill="rgb(33, 33, 33)" stroke="none" stroke-width="1px">140k</text><text x="612.75" y="0" dx="0em" dy="0.95em" style="text-anchor: middle; visibility: inherit; font-family: Roboto, sans-serif; font-size: 12px; font-weight: 200;" fill="rgb(33, 33, 33)" stroke="none" stroke-width="1px">160k</text><text x="680.8333333333334" y="0" dx="0em" dy="0.95em" style="text-anchor: middle; visibility: inherit; font-family: Roboto, sans-serif; font-size: 12px; font-weight: 200;" fill="rgb(33, 33, 33)" stroke="none" stroke-width="1px">180k</text><text x="748.9166666666666" y="0" dx="0em" dy="0.95em" style="text-anchor: middle; visibility: inherit; font-family: Roboto, sans-serif; font-size: 12px; font-weight: 200;" fill="rgb(33, 33, 33)" stroke="none" stroke-width="1px">200k</text><text x="817" y="0" dx="0em" dy="0.95em" style="text-anchor: middle; visibility: hidden; font-family: Roboto, sans-serif; font-size: 12px; font-weight: 200;" fill="rgb(33, 33, 33)" stroke="none" stroke-width="1px">220k</text></g><line x1="0" y1="0" x2="817" y2="0" fill="rgb(0, 0, 0)" stroke="rgb(204, 204, 204)" stroke-width="1px"></line></g></g></g></g></svg>