<svg viewBox="0 0 887 400" xmlns="http://www.w3.org/2000/svg"><g><g><g><g><g><line x1="30" y1="377" x2="25" y2="377" style="visibility: inherit;" fill="rgb(0, 0, 0)" stroke="rgb(204, 204, 204)" stroke-width="1px"></line><line x1="30" y1="335.1111111111111" x2="25" y2="335.1111111111111" style="visibility: inherit;" fill="rgb(0, 0, 0)" stroke="rgb(204, 204, 204)" stroke-width="1px"></line><line x1="30" y1="293.22222222222223" x2="25" y2="293.22222222222223" style="visibility: inherit;" fill="rgb(0, 0, 0)" stroke="rgb(204, 204, 204)" stroke-width="1px"></line><line x1="30" y1="251.33333333333337" x2="25" y2="251.33333333333337" style="visibility: inherit;" fill="rgb(0, 0, 0)" stroke="rgb(204, 204, 204)" stroke-width="1px"></line><line x1="30" y1="209.44444444444446" x2="25" y2="209.44444444444446" style="visibility: inherit;" fill="rgb(0, 0, 0)" stroke="rgb(204, 204, 204)" stroke-width="1px"></line><line x1="30" y1="167.55555555555554" x2="25" y2="167.55555555555554" style="visibility: inherit;" fill="rgb(0, 0, 0)" stroke="rgb(204, 204, 204)" stroke-width="1px"></line><line x1="30" y1="125.66666666666669" x2="25" y2="125.66666666666669" style="visibility: inherit;" fill="rgb(0, 0, 0)" stroke="rgb(204, 204, 204)" stroke-width="1px"></line><line x1="30" y1="83.77777777777777" x2="25" y2="83.77777777777777" style="visibility: inherit;" fill="rgb(0, 0, 0)" stroke="rgb(204, 204, 204)" stroke-width="1px"></line><line x1="30" y1="41.88888888888891" x2="25" y2="41.88888888888891" style="visibility: inherit;" fill="rgb(0, 0, 0)" stroke="rgb(204, 204, 204)" stroke-width="1px"></line><line x1="30" y1="0" x2="25" y2="0" style="visibility: inherit;" fill="rgb(0, 0, 0)" stroke="rgb(204, 204, 204)" stroke-width="1px"></line></g><g transform="translate(20, 0)"><text x="0" y="377" dx="0em" dy="0.3em" style="text-anchor: end; visibility: hidden; font-family: Roboto, sans-serif; font-size: 12px; font-weight: 200;" fill="rgb(33, 33, 33)" stroke="none" stroke-width="1px">28</text><text x="0" y="335.1111111111111" dx="0em" dy="0.3em" style="text-anchor: end; visibility: inherit; font-family: Roboto, sans-serif; font-size: 12px; font-weight: 200;" fill="rgb(33, 33, 33)" stroke="none" stroke-width="1px">29</text><text x="0" y="293.22222222222223" dx="0em" dy="0.3em" style="text-anchor: end; visibility: inherit; font-family: Roboto, sans-serif; font-size: 12px; font-weight: 200;" fill="rgb(33, 33, 33)" stroke="none" stroke-width="1px">30</text><text x="0" y="251.33333333333337" dx="0em" dy="0.3em" style="text-anchor: end; visibility: inherit; font-family: Roboto, sans-serif; font-size: 12px; font-weight: 200;" fill="rgb(33, 33, 33)" stroke="none" stroke-width="1px">31</text><text x="0" y="209.44444444444446" dx="0em" dy="0.3em" style="text-anchor: end; visibility: inherit; font-family: Roboto, sans-serif; font-size: 12px; font-weight: 200;" fill="rgb(33, 33, 33)" stroke="none" stroke-width="1px">32</text><text x="0" y="167.55555555555554" dx="0em" dy="0.3em" style="text-anchor: end; visibility: inherit; font-family: Roboto, sans-serif; font-size: 12px; font-weight: 200;" fill="rgb(33, 33, 33)" stroke="none" stroke-width="1px">33</text><text x="0" y="125.66666666666669" dx="0em" dy="0.3em" style="text-anchor: end; visibility: inherit; font-family: Roboto, sans-serif; font-size: 12px; font-weight: 200;" fill="rgb(33, 33, 33)" stroke="none" stroke-width="1px">34</text><text x="0" y="83.77777777777777" dx="0em" dy="0.3em" style="text-anchor: end; visibility: inherit; font-family: Roboto, sans-serif; font-size: 12px; font-weight: 200;" fill="rgb(33, 33, 33)" stroke="none" stroke-width="1px">35</text><text x="0" y="41.88888888888891" dx="0em" dy="0.3em" style="text-anchor: end; visibility: inherit; font-family: Roboto, sans-serif; font-size: 12px; font-weight: 200;" fill="rgb(33, 33, 33)" stroke="none" stroke-width="1px">36</text><text x="0" y="0" dx="0em" dy="0.3em" style="text-anchor: end; visibility: hidden; font-family: Roboto, sans-serif; font-size: 12px; font-weight: 200;" fill="rgb(33, 33, 33)" stroke="none" stroke-width="1px">37</text></g><line x1="30" y1="0" x2="30" y2="377" fill="rgb(0, 0, 0)" stroke="rgb(204, 204, 204)" stroke-width="1px"></line></g></g><g transform="translate(30, 0)" clip-path="url(#clip_0)"><clipPath id="clip_0"><rect width="857" height="377"></rect></clipPath><g><g><g><line x1="0" y1="0" x2="0" y2="377" fill="rgb(0, 0, 0)" stroke="rgb(66, 66, 66)" stroke-width="1px" opacity="0.25"></line><line x1="71.41666666666666" y1="0" x2="71.41666666666666" y2="377" fill="rgb(0, 0, 0)" stroke="rgb(66, 66, 66)" stroke-width="1px" opacity="0.25"></line><line x1="142.83333333333331" y1="0" x2="142.83333333333331" y2="377" fill="rgb(0, 0, 0)" stroke="rgb(66, 66, 66)" stroke-width="1px" opacity="0.25"></line><line x1="214.25" y1="0" x2="214.25" y2="377" fill="rgb(0, 0, 0)" stroke="rgb(66, 66, 66)" stroke-width="1px" opacity="0.25"></line><line x1="285.66666666666663" y1="0" x2="285.66666666666663" y2="377" fill="rgb(0, 0, 0)" stroke="rgb(66, 66, 66)" stroke-width="1px" opacity="0.25"></line><line x1="357.08333333333337" y1="0" x2="357.08333333333337" y2="377" fill="rgb(0, 0, 0)" stroke="rgb(66, 66, 66)" stroke-width="1px" opacity="0.25"></line><line x1="428.5" y1="0" x2="428.5" y2="377" fill="rgb(0, 0, 0)" stroke="rgb(66, 66, 66)" stroke-width="1px" opacity="0.25"></line><line x1="499.9166666666667" y1="0" x2="499.9166666666667" y2="377" fill="rgb(0, 0, 0)" stroke="rgb(66, 66, 66)" stroke-width="1px" opacity="0.25"></line><line x1="571.3333333333333" y1="0" x2="571.3333333333333" y2="377" fill="rgb(0, 0, 0)" stroke="rgb(66, 66, 66)" stroke-width="1px" opacity="0.25"></line><line x1="642.75" y1="0" x2="642.75" y2="377" fill="rgb(0, 0, 0)" stroke="rgb(66, 66, 66)" stroke-width="1px" opacity="0.25"></line><line x1="714.1666666666667" y1="0" x2="714.1666666666667" y2="377" fill="rgb(0, 0, 0)" stroke="rgb(66, 66, 66)" stroke-width="1px" opacity="0.25"></line><line x1="785.5833333333333" y1="0" x2="785.5833333333333" y2="377" fill="rgb(0, 0, 0)" stroke="rgb(66, 66, 66)" stroke-width="1px" opacity="0.25"></line><line x1="857" y1="0" x2="857" y2="377" fill="rgb(0, 0, 0)" stroke="rgb(66, 66, 66)" stroke-width="1px" opacity="0.25"></line></g><g><line x1="0" y1="377" x2="857" y2="377" fill="rgb(0, 0, 0)" stroke="rgb(66, 66, 66)" stroke-width="1px" opacity="0.25"></line><line x1="0" y1="335.1111111111111" x2="857" y2="335.1111111111111" fill="rgb(0, 0, 0)" stroke="rgb(66, 66, 66)" stroke-width="1px" opacity="0.25"></line><line x1="0" y1="293.22222222222223" x2="857" y2="293.22222222222223" fill="rgb(0, 0, 0)" stroke="rgb(66, 66, 66)" stroke-width="1px" opacity="0.25"></line><line x1="0" y1="251.33333333333337" x2="857" y2="251.33333333333337" fill="rgb(0, 0, 0)" stroke="rgb(66, 66, 66)" stroke-width="1px" opacity="0.25"></line><line x1="0" y1="209.44444444444446" x2="857" y2="209.44444444444446" fill="rgb(0, 0, 0)" stroke="rgb(66, 66, 66)" stroke-width="1px" opacity="0.25"></line><line x1="0" y1="167.55555555555554" x2="857" y2="167.55555555555554" fill="rgb(0, 0, 0)" stroke="rgb(66, 66, 66)" stroke-width="1px" opacity="0.25"></line><line x1="0" y1="125.66666666666669" x2="857" y2="125.66666666666669" fill="rgb(0, 0, 0)" stroke="rgb(66, 66, 66)" stroke-width="1px" opacity="0.25"></line><line x1="0" y1="83.77777777777777" x2="857" y2="83.77777777777777" fill="rgb(0, 0, 0)" stroke="rgb(66, 66, 66)" stroke-width="1px" opacity="0.25"></line><line x1="0" y1="41.88888888888891" x2="857" y2="41.88888888888891" fill="rgb(0, 0, 0)" stroke="rgb(66, 66, 66)" stroke-width="1px" opacity="0.25"></line><line x1="0" y1="0" x2="857" y2="0" fill="rgb(0, 0, 0)" stroke="rgb(66, 66, 66)" stroke-width="1px" opacity="0.25"></line></g></g></g><g><g><line x1="0" y1="1549.8888888888887" x2="857" y2="1549.8888888888887" fill="rgb(0, 0, 0)" stroke="rgb(153, 153, 153)" stroke-width="1.5px"></line></g></g><g><g><line x1="71.41666666666666" y1="0" x2="71.41666666666666" y2="377" fill="rgb(0, 0, 0)" stroke="rgb(153, 153, 153)" stroke-width="1.5px"></line></g></g><g><g><g><g><g><path stroke="rgb(255, 112, 67)" stroke-width="2px" d="M92.84166666666667,418.454067635126L94.62708333333333,365.9310667301588L96.41250000000001,369.9934087057458L98.19791666666666,357.65146480956884L99.98333333333333,385.189312079069L103.55416666666667,391.40466537458803L105.33958333333332,359.1741401873938L107.125,342.24059632199766L108.91041666666666,318.5508199541879L110.69583333333334,355.6111795637885L112.48125,350.2655168913136L114.26666666666667,308.3085020850025L116.05208333333333,277.74257847581265L117.8375,320.300619855337L119.62291666666667,346.59117627626125L121.40833333333333,386.39262402583114L123.19375,343.0595580099229L124.97916666666667,348.3155153188005L126.76458333333333,355.2621701228304L128.54999999999998,310.51199040377594L130.33541666666665,346.1411168227338L132.12083333333334,324.30629320257765L133.90625,289.35304029084176L135.69166666666666,244.2750992115595L137.47708333333335,245.65050459701126L139.26250000000002,341.0540596168083L141.04791666666665,219.74326934815707L142.83333333333331,226.56658522412164L144.61875,271.8150210923644L146.40416666666667,285.30113712355956L148.18958333333333,280.6384467081424L149.975,329.29837564713085L151.76041666666669,306.94851993101986L153.54583333333335,349.7225517151224L155.33124999999998,277.884503351408L157.11666666666665,254.98768138065367L158.90208333333334,200.86851011376183L160.6875,279.5908634878013L162.47291666666666,222.45053080139044L164.25833333333335,126.61236797339681L166.04375000000002,115.48906588493799L167.82916666666665,130.5770961810916L169.61458333333331,228.6515372497077L171.4,235.79848918332223L173.18541666666667,177.50266867817112L174.97083333333333,184.13723912601142L176.75625,188.46102593003428L178.54166666666669,184.087857047007L180.32708333333335,234.85266641733256L182.11249999999998,217.20126575073579L183.89791666666665,214.82566125165658L185.68333333333334,214.07593713253138L187.46875,178.16100553038646L189.25416666666666,255.8493273511639L191.03958333333335,267.8796345915795L192.82500000000002,194.63428472901455L194.61041666666665,107.64786497938987L196.39583333333331,181.7423587174517L198.18125,181.8960708497745L199.96666666666667,195.80483704586186L201.75208333333333,173.08174781535357L203.5375,204.6270257637292L205.32291666666669,221.04227177334164L207.10833333333335,192.05413757979272L208.89374999999998,151.42026144463114L210.67916666666665,238.69495573559377L212.46458333333334,210.37751285650384L214.25,202.0293789093777L216.03541666666666,225.73151089393932L217.82083333333333,212.33604313982508L219.60625,229.0108164220895L221.39166666666668,178.17043299561482L223.17708333333334,187.37876923069126L224.9625,199.46031911152141L226.74791666666667,207.7924247839701L228.53333333333333,204.96289671744157L230.31875,167.54029058851617L232.10416666666666,165.78809359003472L233.88958333333332,174.29434002039463L235.675,144.71096104077407L237.46041666666667,166.68877619586183L239.24583333333334,194.44194673083618L241.03125,156.09285460262944L242.81666666666666,186.2338580218587L244.60208333333333,186.71296326417854L246.3875,188.26586253967048L248.17291666666668,192.73204102233743L249.95833333333334,126.20061156951127L251.74375,150.93609315834078L253.52916666666667,99.6501309316255L255.31458333333333,140.4297051255445L257.09999999999997,136.74919779049605L258.88541666666663,170.72726610403942L260.6708333333333,236.26664895211013L262.45625,206.73359590474055L264.2416666666667,159.0042383533913L266.02708333333334,168.34313037368833L267.8125,121.0639804716631L269.59791666666666,178.00770997896137L271.3833333333333,136.67525926103136L273.16875,167.3991799605087L274.9541666666667,143.73438729623794L276.73958333333337,118.51538976299675L278.52500000000003,135.44462543223366L280.3104166666667,148.29487787978303L282.0958333333333,151.70748092708848L283.88124999999997,118.85046901822135L285.66666666666663,151.9262585498762L287.4520833333333,215.3713376596294L289.2375,199.81813374540877L291.0229166666667,150.57671568290056L292.80833333333334,184.51843372017873L294.59375,149.2601386012479L296.37916666666666,102.75431737977007L298.1645833333333,83.9786088672608L299.95,91.72943284422814L301.7354166666667,103.16469234678209L303.52083333333337,107.0287624770254L305.30625000000003,160.21974399066414L307.0916666666667,133.56371301901868L308.8770833333333,44.28416151366819L310.66249999999997,7.9686880635286155L312.44791666666663,28.709128453622768L314.2333333333333,121.83635523243841L316.01875,120.43000646492976L317.8041666666667,104.97180969221726L319.58958333333334,155.5064858465263L321.375,148.15458425693922L323.16041666666666,136.81569502573464L324.9458333333333,149.04401465812748L326.73125,159.92388244803402L328.5166666666667,185.85545539791102L330.30208333333337,173.2106670375748L332.08750000000003,139.41671275645336L333.8729166666667,78.17320371995272L335.6583333333333,17.77965211071507L337.44374999999997,35.77178652603191L339.22916666666663,51.795572119069845L341.0145833333333,111.56893720454728L342.8,92.84004226793228L344.5854166666667,116.88841833222197L346.37083333333334,161.79644279078283L348.15625,134.3677078985907L349.94166666666666,87.90752472965988L351.7270833333333,103.24595001167839L353.5125,95.43528735998018L355.2979166666667,44.038585678249255L357.08333333333337,106.4732680519148L358.86875000000003,130.76096278427386L360.6541666666667,141.58003195523224L362.4395833333333,112.88150865474739L364.22499999999997,93.96871215221249L366.01041666666663,96.52012245327415L367.7958333333333,161.91343557320147L369.58125,131.2501524761909L371.3666666666667,164.15808183537814L373.15208333333334,181.93699675883315L374.9375,222.3612060644686L376.72291666666666,169.27743734310826L378.5083333333333,156.82974179090172L380.29375,149.15467134814142L382.0791666666667,153.82819438332075L383.86458333333337,139.71369943299806L385.65000000000003,150.15943117374212L387.4354166666667,164.81538611445566L389.2208333333333,190.19740266544528L391.00624999999997,133.85369720093814L392.79166666666663,33.611437918273225L394.5770833333333,148.44746230269473L396.3625,108.22924364409502L398.1479166666667,119.80351518737926L399.93333333333334,87.22809486410952L401.71875,11.80090704189221L403.50416666666666,114.06614450589701L405.2895833333333,155.18495630938668L407.075,121.36641506981165L408.8604166666667,82.44912896267687L410.64583333333337,98.65255283740441L412.43125000000003,105.42072973439788L414.2166666666667,47.28312987758533L416.0020833333333,12.562792253536768L417.78749999999997,88.52565159588315L419.57291666666663,81.40336618403803L421.3583333333333,135.48192152859215L423.14375,142.00432846104624L424.9291666666667,169.47142006450198L426.71458333333334,169.6257400866612L428.5,144.49915773607864L430.28541666666666,150.1103853480275L432.0708333333333,146.56330762483196L433.85625,85.51404607799164L435.64166666666665,120.1429630336223L437.4270833333333,169.43653736878466L439.2125,122.64484512363639L440.99791666666664,86.00266482564642L442.78333333333336,91.91460497855832L444.56875,94.2880543689709L446.3541666666667,58.9051775242687L448.13958333333335,70.38689228794449L449.925,55.26539885475441L451.7104166666667,127.56864923852545L453.49583333333334,66.11211154696733L455.28125,92.76240513890082L457.06666666666666,95.85539789697981L458.8520833333333,85.69549463147148L460.6375,167.8240620173268L462.42291666666665,106.60481267833232L464.2083333333333,96.07631754542169L465.99375,53.52778600386985L467.77916666666664,-9.596955852647785L469.56458333333336,125.16502586653108L471.35,179.14198783030275L473.1354166666667,130.2092885301588L474.92083333333335,141.74758290406524L476.70625,114.97843441990226L478.4916666666667,169.19853805876105L480.27708333333334,145.61846619870067L482.0625,107.26031226994748L483.84791666666666,163.05656221955303L485.6333333333333,145.46477941343764L487.41875,114.19965028830794L489.20416666666665,119.50910664705142L490.9895833333333,76.91274836458724L492.775,143.55625378898893L494.56041666666664,83.35769297434823L496.34583333333336,19.493047994895498L498.13125,83.8073439268745L499.9166666666667,126.81024694585989L501.70208333333335,202.7101692314265L503.4875,207.60305237503752L505.2729166666667,81.39727962651986L507.05833333333334,106.8803909896164L508.84375,173.613195870354L510.62916666666666,163.49998505422207L512.4145833333333,118.94402128562574L514.1999999999999,118.36670997867783L515.9854166666667,78.98355527729989L517.7708333333333,114.39816573202658L519.55625,155.14566137158923L521.3416666666666,218.99228353492182L523.1270833333334,185.26620955780209L524.9125,186.89184039939477L526.6979166666667,116.2879437307393L528.4833333333333,87.42725571326997L530.2687500000001,51.50519901579828L532.0541666666667,113.19143066843056L533.8395833333334,107.50789920645127L535.625,105.69366927240581L537.4104166666666,105.37329028821551L539.1958333333333,174.5522485395199L540.9812499999999,206.82493746531904L542.7666666666667,226.1922260696862L544.5520833333333,215.3916634955443L546.3375,180.45339443250447L548.1229166666666,145.36085874880388L549.9083333333334,86.40802441133746L551.69375,125.05283229274427L553.4791666666667,95.95990880761276L555.2645833333333,85.6176468769072L557.0500000000001,119.77029363151516L558.8354166666667,153.62598148354232L560.6208333333334,141.55731954198077L562.40625,93.5832430774564L564.1916666666666,37.88932793333363L565.9770833333333,-52.64026103486752L567.7624999999999,62.4160862481386L569.5479166666667,100.79975703452757L571.3333333333333,78.34149989807113L573.11875,78.07174682876233L574.9041666666666,-3.487088519767492L576.6895833333334,54.84374389741688L578.475,108.26955776694412L580.2604166666667,104.1001311987948L582.0458333333333,122.37277165818735L583.8312500000001,169.75043428600935L585.6166666666667,178.549636826217L587.4020833333334,219.78172131827796L589.1875,164.92927076025924L590.9729166666666,94.96624216400043L592.7583333333333,-24.3007807568297L594.5437499999999,40.394160079159406L596.3291666666667,-4.863549389787341L598.1145833333333,88.19752223855056L599.9,99.0906970792957L601.6854166666666,129.6057154141897L603.4708333333334,27.877198779763635L605.25625,46.010191066903204L607.0416666666667,83.85998545584287L608.8270833333333,-4.050527382906981L610.6125000000001,44.91468716454819L612.3979166666667,30.471682171775907L614.1833333333334,38.35300018170051L615.96875,87.79359060923743L617.7541666666666,52.202079217701815L619.5395833333333,41.397629468284016L621.3249999999999,77.0981240880343L623.1104166666667,159.70070455807212L624.8958333333333,74.36393622361282L626.68125,16.0595686026572L628.4666666666666,66.052537358426L630.2520833333334,72.12577205562644L632.0375,59.54237048028354L633.8229166666667,-16.654544447669846L635.6083333333333,51.81530810109201L637.3937500000001,37.11736004511702L639.1791666666667,58.94141025585705L640.9645833333334,89.93474988750924L642.75,90.7786623646885L644.5354166666666,110.91019973814893L646.3208333333333,78.45309531353834L648.1062499999999,82.15277895461608L649.8916666666667,81.62273596272179L651.6770833333333,36.63432900303455L653.4625,160.02652500056203L655.2479166666666,170.72311460564316L657.0333333333334,172.88212604013304L658.81875,185.52324992827917L660.6041666666667,128.83389336381435L662.3895833333333,163.76267537714827L664.1750000000001,121.40937219406231L665.9604166666667,48.78776368373339L667.7458333333334,-22.360242282110267L669.53125,21.93201492939915L671.3166666666666,71.52976746322759L673.1020833333333,-18.957159697573267L674.8874999999999,-30.802620200054417L676.6729166666667,32.983545270917865L678.4583333333333,126.68023488960151L680.24375,142.37290906798418L682.0291666666666,167.79917607772614L683.8145833333334,197.55836323805278L685.6,204.39464844277734L687.3854166666667,137.877950327331L689.1708333333333,102.46835361789397L690.9562500000001,124.12636451312993L692.7416666666667,105.42403495543654L694.5270833333334,201.4288224896464L696.3125,138.77199058987068L698.0979166666666,34.745818323106434L699.8833333333333,84.34665159092309L701.6687499999999,116.11818382564755L703.4541666666667,143.03584508949655L705.2395833333333,172.08372112094523L707.025,75.33630190677924L708.8104166666666,112.71814856892648L710.5958333333334,193.19912305520134L712.38125,175.17221990652564L714.1666666666667,149.09260959284114L715.9520833333333,112.61628115555278L717.7375000000001,65.9456282717822L719.5229166666667,14.465427059369237L721.3083333333334,23.690187123479497L723.09375,69.75492088818257L724.8791666666666,14.993338817631818L726.6645833333333,57.7265437568878L728.4499999999999,156.5147535822848L730.2354166666667,193.4797496543892L732.0208333333333,143.6229422948036L733.80625,112.29053139521977L735.5916666666666,80.27054347363361L737.3770833333334,47.622288208474814L739.1625,31.59391617188369L740.9479166666667,70.25604893544352L742.7333333333333,92.86803721852522L744.5187500000001,146.9617522525832L746.3041666666667,141.19823716291046L748.0895833333334,17.6978066708474L749.875,64.65864880556839L751.6604166666666,55.584237541804576L753.4458333333333,79.0869376192127L755.2312499999999,138.6914945586968L757.0166666666667,150.13127178947144L758.8020833333333,173.40355843636743L760.5875,47.972538029485435L762.3729166666666,47.651994938188096L764.1583333333334,104.13603372777835L765.94375,114.09170222722702L767.7291666666667,32.06257901455875L769.5145833333333,64.65563399049525L771.3000000000001,87.32219763469433L773.0854166666667,125.46001491735093L774.8708333333334,74.25588769390014L776.65625,73.2715439214073L778.4416666666666,5.487289044087952L780.2270833333333,31.282493699619046L782.0124999999999,52.05370066041807L783.7979166666667,85.88093424987508L785.5833333333333,109.1011745839421" style="fill: none;" fill="none"></path></g></g></g></g><g opacity="0.2"><g><g><g><path stroke="rgb(255, 112, 67)" stroke-width="2px" d="M76.77291666666667,508.10443708631726L78.55833333333332,310.96951972113715L80.34375,396.33132976955835L89.27083333333334,535.8873212602404L91.05624999999999,353.93038283454047L92.84166666666667,366.1998816596137L94.62708333333333,287.2494633992513L96.41250000000001,376.0821465386285L98.19791666666666,339.14725346035425L99.98333333333333,426.4844298892551L101.76875,528.7446348402235L103.55416666666667,314.59355481465656L105.33958333333332,310.8312984042698L107.125,316.8412091996935L108.91041666666666,283.0169349246555L110.69583333333334,411.20098728603784L112.48125,342.24708620707196L114.26666666666667,245.3732780880398L116.05208333333333,231.8938234117296L117.8375,384.1375730302599L121.40833333333333,446.09475898742676L123.19375,278.0599829355875L124.97916666666667,356.19944953918457L126.76458333333333,365.6821509467231L128.54999999999998,243.38672616746692L130.33541666666665,399.58480389912927L132.12083333333334,291.55405871073407L133.90625,236.9231618245443L135.69166666666666,176.65818829006616L137.47708333333335,247.71361266242133L139.26250000000002,484.15939161512586L141.04791666666665,37.77708435058594L142.83333333333331,236.80155902438696L144.61875,339.6876748402913L146.40416666666667,305.53031116061743L148.18958333333333,273.64441108703613L149.975,402.28826904296875L151.76041666666669,273.423736360338L153.54583333333335,413.8835993872749L155.33124999999998,170.1274308098687L157.11666666666665,220.64244842529297L158.90208333333334,119.68975321451825L160.6875,397.67439354790577L162.47291666666666,136.7400317721897L164.25833333333335,-17.144876268174922L166.04375000000002,98.80411275227863L167.82916666666665,153.2091416252984L169.61458333333331,375.76319885253906L171.4,246.51891708374023L173.18541666666667,90.05893792046442L174.97083333333333,194.08909479777014L176.75625,194.94670613606775L178.54166666666669,177.52810372246637L180.32708333333335,310.99988047281903L182.11249999999998,190.72416475084094L183.89791666666665,211.2622545030382L185.68333333333334,212.95135095384387L187.46875,124.28860812717016L189.25416666666666,372.38181008232965L191.03958333333335,285.9250954522027L192.82500000000002,84.76625993516711L194.61041666666665,-22.83176464504664L196.39583333333331,292.88409932454425L198.18125,182.12663904825848L199.96666666666667,216.66798633999292L201.75208333333333,138.99711396959094L203.5375,251.94494268629285L205.32291666666669,245.66514078776038L207.10833333333335,148.57193628946942L208.89374999999998,90.4694472418891L210.67916666666665,369.6069971720378L212.46458333333334,167.9013485378689L214.25,189.5071779886881L216.03541666666666,261.2847088707818L217.82083333333333,192.24284150865344L219.60625,254.0229763454861L221.39166666666668,101.90985785590277L223.17708333333334,201.1912735833062L224.9625,217.58264393276636L226.74791666666667,220.2905832926432L228.53333333333333,200.71860461764868L230.31875,111.40638139512805L232.10416666666666,163.15979809231226L233.88958333333332,187.05370966593426L235.675,100.33589257134332L237.46041666666667,199.6554989284939L239.24583333333334,236.0717025332981L241.03125,98.56921641031903L242.81666666666666,231.44536315070258L244.60208333333333,187.43162112765845L246.3875,190.59521145290796L248.17291666666668,199.4313087463379L249.95833333333334,26.403467390272343L251.74375,188.03931554158527L253.52916666666667,22.721187591552734L255.31458333333333,201.5990664164225L257.09999999999997,131.22843678792316L258.88541666666663,221.69436857435437L260.6708333333333,334.57572322421606L262.45625,162.43401633368597L264.2416666666667,87.41020202636719L266.02708333333334,182.3514684041341L267.8125,50.145255618625235L269.59791666666666,263.4233042399088L271.3833333333333,74.67658318413629L273.16875,213.48506100972497L274.9541666666667,108.23719829983179L276.73958333333337,80.68689346313477L278.52500000000003,160.83847893608942L280.3104166666667,167.57025655110675L282.0958333333333,156.82638549804688L283.88124999999997,69.56495115492078L285.66666666666663,201.53994284735785L287.4520833333333,310.53895632425946L289.2375,176.4883278740777L291.0229166666667,76.71458858913843L292.80833333333334,235.43101077609595L294.59375,96.37269592285156L296.37916666666666,32.99558554755316L298.1645833333333,55.81504609849719L299.95,103.35566880967883L301.7354166666667,120.31758160061304L303.52083333333337,112.82486767239038L305.30625000000003,240.00621626112195L307.0916666666667,93.57966656155054L308.8770833333333,-89.63516574435766L310.66249999999997,-46.504522111680785L312.44791666666663,59.8197890387641L314.2333333333333,261.52719540066187L316.01875,118.32048331366644L317.8041666666667,81.78451453314887L319.58958333333334,231.30850007798938L321.375,137.1267318725586L323.16041666666666,119.80736117892798L324.9458333333333,167.38649410671655L326.73125,176.24368413289386L328.5166666666667,224.7528148227268L330.30208333333337,154.2434844970703L332.08750000000003,88.72578133477106L333.8729166666667,-13.692059834798204L335.6583333333333,-72.81067530314125L337.44374999999997,62.75998814900715L339.22916666666663,75.83125050862628L341.0145833333333,201.22898483276367L342.8,64.74669986301001L344.5854166666667,152.96098242865668L346.37083333333334,229.15847947862414L348.15625,93.22460556030273L349.94166666666666,18.2172499762641L351.7270833333333,126.25358793470593L353.5125,83.71929338243274L355.2979166666667,-33.0564668443468L357.08333333333337,200.1252916124132L358.86875000000003,167.1925048828125L360.6541666666667,157.80863571166992L362.4395833333333,69.8337237040202L364.22499999999997,65.5995173984104L366.01041666666663,100.34723790486652L367.7958333333333,260.0034052530924L369.58125,85.25522783067493L371.3666666666667,213.51997587415906L373.15208333333334,208.60536914401587L374.9375,282.9975200229221L376.72291666666666,89.65178426106769L378.5083333333333,138.15819846259222L380.29375,137.64206568400067L382.0791666666667,160.83847893608942L383.86458333333337,118.5419570075141L385.65000000000003,165.82802878485785L387.4354166666667,186.79931852552625L389.2208333333333,228.2704274919298L391.00624999999997,49.3381390041775L392.79166666666663,-116.75195100572375L394.5770833333333,320.7014988793267L396.3625,47.90191565619574L398.1479166666667,137.16492250230579L399.93333333333334,38.36496437920465L401.71875,-101.33987469143335L403.50416666666666,267.4640007019043L405.2895833333333,216.86317401462134L407.075,70.63860321044922L408.8604166666667,24.073199801974845L410.64583333333337,122.95768864949542L412.43125000000003,115.57299507988824L414.2166666666667,-39.92326990763343L416.0020833333333,-39.51771418253578L417.78749999999997,202.4699406094021L419.57291666666663,70.71993806627063L421.3583333333333,216.5997545454237L423.14375,151.78793885972766L424.9291666666667,210.6720574696859L426.71458333333334,169.85722011990015L428.5,106.80928421020508L430.28541666666666,158.5272267659505L432.0708333333333,141.24269104003906L433.85625,-6.059846242268908L435.64166666666665,172.08633846706812L437.4270833333333,243.37689887152777L439.2125,52.457306755913635L440.99791666666664,31.03939437866211L442.78333333333336,100.78251520792645L444.56875,97.84822845458984L446.3541666666667,5.830862257215703L448.13958333333335,87.60946443345813L449.925,32.583158704969605L451.7104166666667,236.02352481418188L453.49583333333334,-26.07269499037L455.28125,132.7378455268012L457.06666666666666,100.49488703409833L458.8520833333333,70.45563973320856L460.6375,291.01691309611004L462.42291666666665,14.775938669840508L464.2083333333333,80.28357484605579L465.99375,-10.295011308458125L467.77916666666664,-104.28406863742407L469.56458333333336,327.30799844529895L471.35,260.1074307759603L473.1354166666667,56.810239579942504L474.92083333333335,159.0550244649251L476.70625,74.82471169365778L478.4916666666667,250.5286935170492L480.27708333333334,110.24835840861004L482.0625,49.723081376817504L483.84791666666666,246.75093714396155L485.6333333333333,119.07710520426434L487.41875,67.30195660061304L489.20416666666665,127.47329118516711L490.9895833333333,13.01821094089086L492.775,243.52151192559137L494.56041666666664,-6.94014824761281L496.34583333333336,-76.30391947428383L498.13125,180.27878782484265L499.9166666666667,191.31460147433813L501.70208333333335,316.5600526597765L503.4875,214.9423770904541L505.2729166666667,-107.91137949625649L507.05833333333334,145.10505803426105L508.84375,273.7124031914605L510.62916666666666,148.33016883002387L512.4145833333333,52.11007563273113L514.1999999999999,117.50074301825629L515.9854166666667,19.90882322523328L517.7708333333333,167.52008141411676L519.55625,216.26690483093262L521.3416666666666,314.7622167799208L523.1270833333334,134.67709859212238L524.9125,189.33028666178382L526.6979166666667,10.382098727756095L528.4833333333333,44.13622368706598L530.2687500000001,-2.377886030409062L532.0541666666667,205.72077814737952L533.8395833333334,98.982602013482L535.625,102.97232437133789L537.4104166666666,104.89272181193036L539.1958333333333,278.3206859164768L540.9812499999999,255.23397085401746L542.7666666666667,255.24315897623694L544.5520833333333,199.1908196343316L546.3375,128.04599083794488L548.1229166666666,92.72205522325305L549.9083333333334,-2.021227094862187L551.69375,183.0200441148546L553.4791666666667,52.32052357991535L555.2645833333333,70.10425398084851L557.0500000000001,170.99926376342773L558.8354166666667,204.40951326158313L560.6208333333334,123.45432662963867L562.40625,21.622128380669494L564.1916666666666,-45.651544782850465L565.9770833333333,-188.43464448716907L567.7624999999999,235.00060717264807L569.5479166666667,158.37526321411133L571.3333333333333,44.654114193386484L573.11875,77.66711722479926L574.9041666666666,-125.82534154256187L576.6895833333334,142.33999252319336L578.475,188.4082785712348L580.2604166666667,97.84599134657117L582.0458333333333,149.7817323472765L583.8312500000001,240.81692822774255L585.6166666666667,191.74844063652887L587.4020833333334,281.6298480563694L589.1875,82.65059492323132L590.9729166666666,-9.978300730387343L592.7583333333333,-203.20131513807507L594.5437499999999,137.43657133314343L596.3291666666667,-72.7501135932075L598.1145833333333,227.78912968105737L599.9,115.43045934041339L601.6854166666666,175.378242916531L603.4708333333334,-124.715576171875L605.25625,73.20967949761285L607.0416666666667,140.63467703925238L608.8270833333333,-135.91629664103186L610.6125000000001,118.36250898573132L612.3979166666667,8.807174682617188L614.1833333333334,50.17497719658746L615.96875,161.95447625054254L617.7541666666666,-1.1851878696017981L619.5395833333333,25.190954844156916L621.3249999999999,130.6488660176595L623.1104166666667,283.60457526312933L624.8958333333333,-53.64121627807617L626.68125,-71.39698282877602L628.4666666666666,141.04199049207898L630.2520833333334,81.23562410142688L632.0375,40.66726811726887L633.8229166666667,-130.9499168395996L635.6083333333333,154.52008692423504L637.3937500000001,15.070437961154532L639.1791666666667,91.67748557196722L640.9645833333334,136.42475933498804L642.75,92.04453108045789L644.5354166666666,141.10750579833984L646.3208333333333,29.767438676622188L648.1062499999999,87.70230441623266L649.8916666666667,80.82767147488062L651.6770833333333,-30.84828143649633L653.4625,345.1148189968533L655.2479166666666,186.76799901326496L657.0333333333334,176.12064319186743L658.81875,204.48493576049805L660.6041666666667,43.79985851711695L662.3895833333333,216.155848397149L664.1750000000001,57.879417419433594L665.9604166666667,-60.14464908176L667.7458333333334,-129.0822512308756L669.53125,88.37040074666339L671.3166666666666,145.92639626397028L673.1020833333333,-154.6875504387749L674.8874999999999,-48.57081095377601L676.6729166666667,128.66279347737628L678.4583333333333,267.22526931762695L680.24375,165.91192033555774L682.0291666666666,205.93857659233942L683.8145833333334,242.19714397854273L685.6,214.64907624986438L687.3854166666667,38.102903154161254L689.1708333333333,49.353958553738046L690.9562500000001,156.61338085598413L692.7416666666667,77.37054061889648L694.5270833333334,345.43600379096137L696.3125,44.786742740207266L698.0979166666666,-121.29344007703992L699.8833333333333,158.74790149264868L701.6687499999999,163.77548217773438L703.4541666666667,183.4123369852702L705.2395833333333,215.65553516811792L707.025,-69.78482691446938L708.8104166666666,168.79091856214734L710.5958333333334,313.9205847846137L712.38125,148.1318651835124L714.1666666666667,109.97319412231445L715.9520833333333,57.90178849962024L717.7375000000001,-4.06035105387367L719.5229166666667,-62.754874759250235L721.3083333333334,37.527327219645194L723.09375,138.8520215352376L724.8791666666666,-67.14903428819446L726.6645833333333,121.82635116577148L728.4499999999999,304.6970683203803L730.2354166666667,248.92724376254614L732.0208333333333,68.83773125542535L733.80625,65.29191504584418L735.5916666666666,32.240561591254334L737.3770833333334,-1.3500946892632006L739.1625,7.551358116997617L740.9479166666667,128.24924808078345L742.7333333333333,126.78601964314777L744.5187500000001,228.10232480367029L746.3041666666667,132.55296452840167L748.0895833333334,-167.5528390672472L749.875,135.09991200764972L751.6604166666666,41.972620646158866L753.4458333333333,114.34098773532446L755.2312499999999,228.0983299679226L757.0166666666667,167.29093763563367L758.8020833333333,208.31198840671118L760.5875,-140.17399258083765L762.3729166666666,47.17118030124242L764.1583333333334,188.86209191216363L765.94375,129.02520497639972L767.7291666666667,-90.98110580444336L769.5145833333333,113.54521645439996L771.3000000000001,121.32204310099286L773.0854166666667,182.6667408413357L774.8708333333334,-2.5503031412760135L776.65625,71.79502826266821L778.4416666666666,-96.18909327189125L780.2270833333333,69.97530068291559L782.0124999999999,83.21051110161676L783.7979166666667,136.6217846340603L785.5833333333333,143.9315350850423" style="fill: none;" fill="none"></path></g></g></g></g></g></g><g transform="translate(30, 377)" clip-path="url(#clip_1)"><clipPath id="clip_1"><rect width="857" height="23"></rect></clipPath><g><g><line x1="0" y1="0" x2="0" y2="5" style="visibility: inherit;" fill="rgb(0, 0, 0)" stroke="rgb(204, 204, 204)" stroke-width="1px"></line><line x1="71.41666666666666" y1="0" x2="71.41666666666666" y2="5" style="visibility: inherit;" fill="rgb(0, 0, 0)" stroke="rgb(204, 204, 204)" stroke-width="1px"></line><line x1="142.83333333333331" y1="0" x2="142.83333333333331" y2="5" style="visibility: inherit;" fill="rgb(0, 0, 0)" stroke="rgb(204, 204, 204)" stroke-width="1px"></line><line x1="214.25" y1="0" x2="214.25" y2="5" style="visibility: inherit;" fill="rgb(0, 0, 0)" stroke="rgb(204, 204, 204)" stroke-width="1px"></line><line x1="285.66666666666663" y1="0" x2="285.66666666666663" y2="5" style="visibility: inherit;" fill="rgb(0, 0, 0)" stroke="rgb(204, 204, 204)" stroke-width="1px"></line><line x1="357.08333333333337" y1="0" x2="357.08333333333337" y2="5" style="visibility: inherit;" fill="rgb(0, 0, 0)" stroke="rgb(204, 204, 204)" stroke-width="1px"></line><line x1="428.5" y1="0" x2="428.5" y2="5" style="visibility: inherit;" fill="rgb(0, 0, 0)" stroke="rgb(204, 204, 204)" stroke-width="1px"></line><line x1="499.9166666666667" y1="0" x2="499.9166666666667" y2="5" style="visibility: inherit;" fill="rgb(0, 0, 0)" stroke="rgb(204, 204, 204)" stroke-width="1px"></line><line x1="571.3333333333333" y1="0" x2="571.3333333333333" y2="5" style="visibility: inherit;" fill="rgb(0, 0, 0)" stroke="rgb(204, 204, 204)" stroke-width="1px"></line><line x1="642.75" y1="0" x2="642.75" y2="5" style="visibility: inherit;" fill="rgb(0, 0, 0)" stroke="rgb(204, 204, 204)" stroke-width="1px"></line><line x1="714.1666666666667" y1="0" x2="714.1666666666667" y2="5" style="visibility: inherit;" fill="rgb(0, 0, 0)" stroke="rgb(204, 204, 204)" stroke-width="1px"></line><line x1="785.5833333333333" y1="0" x2="785.5833333333333" y2="5" style="visibility: inherit;" fill="rgb(0, 0, 0)" stroke="rgb(204, 204, 204)" stroke-width="1px"></line><line x1="857" y1="0" x2="857" y2="5" style="visibility: inherit;" fill="rgb(0, 0, 0)" stroke="rgb(204, 204, 204)" stroke-width="1px"></line></g><g transform="translate(0, 8)"><text x="0" y="0" dx="0em" dy="0.95em" style="text-anchor: middle; visibility: hidden; font-family: Roboto, sans-serif; font-size: 12px; font-weight: 200;" fill="rgb(33, 33, 33)" stroke="none" stroke-width="1px">-20k</text><text x="71.41666666666666" y="0" dx="0em" dy="0.95em" style="text-anchor: middle; visibility: inherit; font-family: Roboto, sans-serif; font-size: 12px; font-weight: 200;" fill="rgb(33, 33, 33)" stroke="none" stroke-width="1px">0</text><text x="142.83333333333331" y="0" dx="0em" dy="0.95em" style="text-anchor: middle; visibility: inherit; font-family: Roboto, sans-serif; font-size: 12px; font-weight: 200;" fill="rgb(33, 33, 33)" stroke="none" stroke-width="1px">20k</text><text x="214.25" y="0" dx="0em" dy="0.95em" style="text-anchor: middle; visibility: inherit; font-family: Roboto, sans-serif; font-size: 12px; font-weight: 200;" fill="rgb(33, 33, 33)" stroke="none" stroke-width="1px">40k</text><text x="285.66666666666663" y="0" dx="0em" dy="0.95em" style="text-anchor: middle; visibility: inherit; font-family: Roboto, sans-serif; font-size: 12px; font-weight: 200;" fill="rgb(33, 33, 33)" stroke="none" stroke-width="1px">60k</text><text x="357.08333333333337" y="0" dx="0em" dy="0.95em" style="text-anchor: middle; visibility: inherit; font-family: Roboto, sans-serif; font-size: 12px; font-weight: 200;" fill="rgb(33, 33, 33)" stroke="none" stroke-width="1px">80k</text><text x="428.5" y="0" dx="0em" dy="0.95em" style="text-anchor: middle; visibility: inherit; font-family: Roboto, sans-serif; font-size: 12px; font-weight: 200;" fill="rgb(33, 33, 33)" stroke="none" stroke-width="1px">100k</text><text x="499.9166666666667" y="0" dx="0em" dy="0.95em" style="text-anchor: middle; visibility: inherit; font-family: Roboto, sans-serif; font-size: 12px; font-weight: 200;" fill="rgb(33, 33, 33)" stroke="none" stroke-width="1px">120k</text><text x="571.3333333333333" y="0" dx="0em" dy="0.95em" style="text-anchor: middle; visibility: inherit; font-family: Roboto, sans-serif; font-size: 12px; font-weight: 200;" fill="rgb(33, 33, 33)" stroke="none" stroke-width="1px">140k</text><text x="642.75" y="0" dx="0em" dy="0.95em" style="text-anchor: middle; visibility: inherit; font-family: Roboto, sans-serif; font-size: 12px; font-weight: 200;" fill="rgb(33, 33, 33)" stroke="none" stroke-width="1px">160k</text><text x="714.1666666666667" y="0" dx="0em" dy="0.95em" style="text-anchor: middle; visibility: inherit; font-family: Roboto, sans-serif; font-size: 12px; font-weight: 200;" fill="rgb(33, 33, 33)" stroke="none" stroke-width="1px">180k</text><text x="785.5833333333333" y="0" dx="0em" dy="0.95em" style="text-anchor: middle; visibility: inherit; font-family: Roboto, sans-serif; font-size: 12px; font-weight: 200;" fill="rgb(33, 33, 33)" stroke="none" stroke-width="1px">200k</text><text x="857" y="0" dx="0em" dy="0.95em" style="text-anchor: middle; visibility: hidden; font-family: Roboto, sans-serif; font-size: 12px; font-weight: 200;" fill="rgb(33, 33, 33)" stroke="none" stroke-width="1px">220k</text></g><line x1="0" y1="0" x2="857" y2="0" fill="rgb(0, 0, 0)" stroke="rgb(204, 204, 204)" stroke-width="1px"></line></g></g></g></g></svg>