<svg viewBox="0 0 887 400" xmlns="http://www.w3.org/2000/svg"><g><g><g><g><g><line x1="50" y1="377" x2="45" y2="377" style="visibility: inherit;" fill="rgb(0, 0, 0)" stroke="rgb(204, 204, 204)" stroke-width="1px"></line><line x1="50" y1="335.1111111111111" x2="45" y2="335.1111111111111" style="visibility: inherit;" fill="rgb(0, 0, 0)" stroke="rgb(204, 204, 204)" stroke-width="1px"></line><line x1="50" y1="293.22222222222223" x2="45" y2="293.22222222222223" style="visibility: inherit;" fill="rgb(0, 0, 0)" stroke="rgb(204, 204, 204)" stroke-width="1px"></line><line x1="50" y1="251.33333333333337" x2="45" y2="251.33333333333337" style="visibility: inherit;" fill="rgb(0, 0, 0)" stroke="rgb(204, 204, 204)" stroke-width="1px"></line><line x1="50" y1="209.44444444444446" x2="45" y2="209.44444444444446" style="visibility: inherit;" fill="rgb(0, 0, 0)" stroke="rgb(204, 204, 204)" stroke-width="1px"></line><line x1="50" y1="167.55555555555554" x2="45" y2="167.55555555555554" style="visibility: inherit;" fill="rgb(0, 0, 0)" stroke="rgb(204, 204, 204)" stroke-width="1px"></line><line x1="50" y1="125.66666666666669" x2="45" y2="125.66666666666669" style="visibility: inherit;" fill="rgb(0, 0, 0)" stroke="rgb(204, 204, 204)" stroke-width="1px"></line><line x1="50" y1="83.77777777777777" x2="45" y2="83.77777777777777" style="visibility: inherit;" fill="rgb(0, 0, 0)" stroke="rgb(204, 204, 204)" stroke-width="1px"></line><line x1="50" y1="41.888888888888864" x2="45" y2="41.888888888888864" style="visibility: inherit;" fill="rgb(0, 0, 0)" stroke="rgb(204, 204, 204)" stroke-width="1px"></line><line x1="50" y1="0" x2="45" y2="0" style="visibility: inherit;" fill="rgb(0, 0, 0)" stroke="rgb(204, 204, 204)" stroke-width="1px"></line></g><g transform="translate(40, 0)"><text x="0" y="377" dx="0em" dy="0.3em" style="text-anchor: end; visibility: hidden; font-family: Roboto, sans-serif; font-size: 12px; font-weight: 200;" fill="rgb(33, 33, 33)" stroke="none" stroke-width="1px">0</text><text x="0" y="335.1111111111111" dx="0em" dy="0.3em" style="text-anchor: end; visibility: inherit; font-family: Roboto, sans-serif; font-size: 12px; font-weight: 200;" fill="rgb(33, 33, 33)" stroke="none" stroke-width="1px">1e-4</text><text x="0" y="293.22222222222223" dx="0em" dy="0.3em" style="text-anchor: end; visibility: inherit; font-family: Roboto, sans-serif; font-size: 12px; font-weight: 200;" fill="rgb(33, 33, 33)" stroke="none" stroke-width="1px">2e-4</text><text x="0" y="251.33333333333337" dx="0em" dy="0.3em" style="text-anchor: end; visibility: inherit; font-family: Roboto, sans-serif; font-size: 12px; font-weight: 200;" fill="rgb(33, 33, 33)" stroke="none" stroke-width="1px">3e-4</text><text x="0" y="209.44444444444446" dx="0em" dy="0.3em" style="text-anchor: end; visibility: inherit; font-family: Roboto, sans-serif; font-size: 12px; font-weight: 200;" fill="rgb(33, 33, 33)" stroke="none" stroke-width="1px">4e-4</text><text x="0" y="167.55555555555554" dx="0em" dy="0.3em" style="text-anchor: end; visibility: inherit; font-family: Roboto, sans-serif; font-size: 12px; font-weight: 200;" fill="rgb(33, 33, 33)" stroke="none" stroke-width="1px">5e-4</text><text x="0" y="125.66666666666669" dx="0em" dy="0.3em" style="text-anchor: end; visibility: inherit; font-family: Roboto, sans-serif; font-size: 12px; font-weight: 200;" fill="rgb(33, 33, 33)" stroke="none" stroke-width="1px">6e-4</text><text x="0" y="83.77777777777777" dx="0em" dy="0.3em" style="text-anchor: end; visibility: inherit; font-family: Roboto, sans-serif; font-size: 12px; font-weight: 200;" fill="rgb(33, 33, 33)" stroke="none" stroke-width="1px">7e-4</text><text x="0" y="41.888888888888864" dx="0em" dy="0.3em" style="text-anchor: end; visibility: inherit; font-family: Roboto, sans-serif; font-size: 12px; font-weight: 200;" fill="rgb(33, 33, 33)" stroke="none" stroke-width="1px">8e-4</text><text x="0" y="0" dx="0em" dy="0.3em" style="text-anchor: end; visibility: hidden; font-family: Roboto, sans-serif; font-size: 12px; font-weight: 200;" fill="rgb(33, 33, 33)" stroke="none" stroke-width="1px">9e-4</text></g><line x1="50" y1="0" x2="50" y2="377" fill="rgb(0, 0, 0)" stroke="rgb(204, 204, 204)" stroke-width="1px"></line></g></g><g transform="translate(50, 0)" clip-path="url(#clip_0)"><clipPath id="clip_0"><rect width="837" height="377"></rect></clipPath><g><g><g><line x1="0" y1="0" x2="0" y2="377" fill="rgb(0, 0, 0)" stroke="rgb(66, 66, 66)" stroke-width="1px" opacity="0.25"></line><line x1="69.75" y1="0" x2="69.75" y2="377" fill="rgb(0, 0, 0)" stroke="rgb(66, 66, 66)" stroke-width="1px" opacity="0.25"></line><line x1="139.5" y1="0" x2="139.5" y2="377" fill="rgb(0, 0, 0)" stroke="rgb(66, 66, 66)" stroke-width="1px" opacity="0.25"></line><line x1="209.25" y1="0" x2="209.25" y2="377" fill="rgb(0, 0, 0)" stroke="rgb(66, 66, 66)" stroke-width="1px" opacity="0.25"></line><line x1="279" y1="0" x2="279" y2="377" fill="rgb(0, 0, 0)" stroke="rgb(66, 66, 66)" stroke-width="1px" opacity="0.25"></line><line x1="348.75" y1="0" x2="348.75" y2="377" fill="rgb(0, 0, 0)" stroke="rgb(66, 66, 66)" stroke-width="1px" opacity="0.25"></line><line x1="418.5" y1="0" x2="418.5" y2="377" fill="rgb(0, 0, 0)" stroke="rgb(66, 66, 66)" stroke-width="1px" opacity="0.25"></line><line x1="488.25000000000006" y1="0" x2="488.25000000000006" y2="377" fill="rgb(0, 0, 0)" stroke="rgb(66, 66, 66)" stroke-width="1px" opacity="0.25"></line><line x1="558" y1="0" x2="558" y2="377" fill="rgb(0, 0, 0)" stroke="rgb(66, 66, 66)" stroke-width="1px" opacity="0.25"></line><line x1="627.75" y1="0" x2="627.75" y2="377" fill="rgb(0, 0, 0)" stroke="rgb(66, 66, 66)" stroke-width="1px" opacity="0.25"></line><line x1="697.5" y1="0" x2="697.5" y2="377" fill="rgb(0, 0, 0)" stroke="rgb(66, 66, 66)" stroke-width="1px" opacity="0.25"></line><line x1="767.25" y1="0" x2="767.25" y2="377" fill="rgb(0, 0, 0)" stroke="rgb(66, 66, 66)" stroke-width="1px" opacity="0.25"></line><line x1="837" y1="0" x2="837" y2="377" fill="rgb(0, 0, 0)" stroke="rgb(66, 66, 66)" stroke-width="1px" opacity="0.25"></line></g><g><line x1="0" y1="377" x2="837" y2="377" fill="rgb(0, 0, 0)" stroke="rgb(66, 66, 66)" stroke-width="1px" opacity="0.25"></line><line x1="0" y1="335.1111111111111" x2="837" y2="335.1111111111111" fill="rgb(0, 0, 0)" stroke="rgb(66, 66, 66)" stroke-width="1px" opacity="0.25"></line><line x1="0" y1="293.22222222222223" x2="837" y2="293.22222222222223" fill="rgb(0, 0, 0)" stroke="rgb(66, 66, 66)" stroke-width="1px" opacity="0.25"></line><line x1="0" y1="251.33333333333337" x2="837" y2="251.33333333333337" fill="rgb(0, 0, 0)" stroke="rgb(66, 66, 66)" stroke-width="1px" opacity="0.25"></line><line x1="0" y1="209.44444444444446" x2="837" y2="209.44444444444446" fill="rgb(0, 0, 0)" stroke="rgb(66, 66, 66)" stroke-width="1px" opacity="0.25"></line><line x1="0" y1="167.55555555555554" x2="837" y2="167.55555555555554" fill="rgb(0, 0, 0)" stroke="rgb(66, 66, 66)" stroke-width="1px" opacity="0.25"></line><line x1="0" y1="125.66666666666669" x2="837" y2="125.66666666666669" fill="rgb(0, 0, 0)" stroke="rgb(66, 66, 66)" stroke-width="1px" opacity="0.25"></line><line x1="0" y1="83.77777777777777" x2="837" y2="83.77777777777777" fill="rgb(0, 0, 0)" stroke="rgb(66, 66, 66)" stroke-width="1px" opacity="0.25"></line><line x1="0" y1="41.888888888888864" x2="837" y2="41.888888888888864" fill="rgb(0, 0, 0)" stroke="rgb(66, 66, 66)" stroke-width="1px" opacity="0.25"></line><line x1="0" y1="0" x2="837" y2="0" fill="rgb(0, 0, 0)" stroke="rgb(66, 66, 66)" stroke-width="1px" opacity="0.25"></line></g></g></g><g><g><line x1="0" y1="377" x2="837" y2="377" fill="rgb(0, 0, 0)" stroke="rgb(153, 153, 153)" stroke-width="1.5px"></line></g></g><g><g><line x1="69.75" y1="0" x2="69.75" y2="377" fill="rgb(0, 0, 0)" stroke="rgb(153, 153, 153)" stroke-width="1.5px"></line></g></g><g><g><g><g><g><path stroke="rgb(255, 112, 67)" stroke-width="2px" d="M99.39375,-35.351297485649084L101.1375,23.55683060744935L102.88125,34.39732632864015L104.625,53.7005545348147L106.36874999999999,94.00561382720352L108.11250000000001,108.2505800713308L109.85625,150.96043461023942L111.6,183.40245494502042L113.34374999999999,206.08973245588422L115.0875,154.22662001823085L116.83125,127.8374616814689L118.575,-22.431980135931692L120.31875,75.22311749449963L122.06250000000001,91.16786168402272L123.80625,132.54132143945344L125.55,178.1265507299549L127.29374999999999,213.26644648008048L129.0375,166.35728288485384L130.78125,221.97371189745388L132.525,238.66992563449696L134.26875,233.92287347362256L136.01250000000002,149.19463154845477L137.75625,212.6087869892772L139.5,218.0710143717755L141.24375,234.31982435203244L142.9875,226.2169832695265L144.73125,226.66959515832693L146.475,144.49159514094055L148.21875,194.39136695862965L149.9625,165.95401547991804L151.70624999999998,222.3924251276188L153.45,237.9780903708519L155.19375,280.59354610881246L156.9375,113.55297215004508L158.68125,194.5191430750545L160.425,256.04957085279216L162.16875000000002,270.78909267585294L163.9125,265.57654559599604L165.65625,199.3339334380527L167.4,197.1775712230232L169.14375,245.54945911080236L170.8875,262.0299048103685L172.63125,273.13473674514387L174.375,283.74587417683176L176.11875,249.92408719687472L177.86249999999998,279.89062531708043L179.60625,278.59235205630637L181.35,288.777566405427L183.09375,285.67035063407894L184.8375,196.40597379110324L186.58125,193.30618043272435L188.32500000000002,251.45762722180285L190.06875,282.6851731280634L191.8125,253.70243309004917L193.55625,233.4020206609819L195.3,241.07484872998927L197.04375,268.98361367436945L198.7875,286.7149416679181L200.53125,276.39038923966854L202.275,264.749324409236L204.01874999999998,292.2538441651222L205.7625,175.57700884726086L207.50625,239.0013511892831L209.25,237.40666197310776L210.99375,254.4402050133053L212.73749999999998,285.30165738600715L214.48125,256.3466330926991L216.22500000000002,292.4259618280304L217.96875000000003,296.7712388339237L219.7125,293.31489343586225L221.45625,289.3545503730593L223.2,306.5010658712902L224.94375,318.1331591313394L226.68749999999997,323.76128088254586L228.43124999999998,336.93821091514974L230.175,342.6638113466484L231.91875000000002,330.7278511985379L233.6625,315.491652398453L235.40625,313.36364215053413L237.15,317.0845988661349L238.89374999999998,321.28325310667594L240.6375,329.2254376166392L242.38125000000002,321.4867015235972L244.12500000000003,317.88890770021106L245.86875,312.8896579012501L247.6125,322.61596890478614L249.35625,318.86817770864224L251.1,312.18490370852885L252.84374999999997,301.29140379372L254.58749999999998,264.7449171060637L256.33125,281.1048387781661L258.075,302.3409845863394L259.81875,304.753941832797L261.5625,317.34844414298755L263.30625,288.0386707035751L265.05,297.61518563659007L266.79375,296.6332367384047L268.5375,303.0132027058552L270.28125,319.69297778163207L272.02500000000003,329.27522970076876L273.76875,339.322459904651L275.5125,333.2979318882555L277.25624999999997,334.8809184478715L279,308.69242743451036L280.74375,300.5007107740373L282.4875,309.04416147405084L284.23125,322.36320990436485L285.975,304.46264894328607L287.71875,315.0078317811943L289.4625,312.548939811152L291.20625,316.37307951145084L292.95,327.99005286582434L294.69375,331.0440799377948L296.4375,332.01486589747395L298.18125000000003,298.1756770112752L299.925,306.14543812898046L301.66875,330.1636873683294L303.41249999999997,343.45105308889083L305.15625,331.512044084733L306.9,314.0313609239596L308.64375,306.07750899571835L310.3875,306.7637468660013L312.13125,287.74698239611075L313.875,301.7206206249464L315.61875,306.83058166413946L317.3625,298.11259989435104L319.10625,301.10999479576225L320.85,251.0970067083436L322.59375,281.4377301536778L324.33750000000003,305.7765790366621L326.08125,327.25139231564384L327.825,331.598055225291L329.56874999999997,339.98931589722025L331.3125,346.5263435229881L333.05625,336.46960355634167L334.8,334.51942573930376L336.54375,287.31225061377967L338.2875,302.9191120731653L340.03125,309.62051511856674L341.775,326.14369209035084L343.51875,321.4813303987509L345.2625,330.586544049234L347.00625,339.33548437916437L348.75,319.52414598646266L350.49375000000003,302.47045545760665L352.2375,315.18571731461327L353.98125,330.9577536292439L355.72499999999997,329.77460038926944L357.46875,334.8611544025404L359.2125,311.17255505649564L360.95625,327.6847770802471L362.7,311.86420137521714L364.44375,317.83535456077055L366.1875,312.9864389575345L367.93125,320.5113974617794L369.675,322.36187637024665L371.41875,329.56690569636373L373.1625,324.1694558050719L374.90625,320.7804017266586L376.65000000000003,307.09732699765203L378.39375,275.08889920772674L380.1375,282.51439439200755L381.88124999999997,295.8707385443192L383.625,324.7959167753133L385.36875,303.3285898705547L387.1125,316.26919397475507L388.85625,318.9539096807649L390.6,324.84157846092984L392.34375,337.18006597471066L394.0875,255.8861823375731L395.83125,269.8581446033932L397.575,283.81672920109673L399.31875,306.02319045454766L401.0625,308.8355130078388L402.80625000000003,311.57391603017516L404.55,326.6962587928338L406.29375,340.02145805942973L408.03749999999997,328.82992086544084L409.78125,336.3010908845195L411.525,326.1227115666683L413.26875,326.09389459324376L415.0125,308.16411226932905L416.75625,317.31935431646446L418.5,327.972963457184L420.24375,326.29498530343704L421.9875,323.73897311710596L423.73125,335.420036316645L425.47499999999997,328.3592249359434L427.21874999999994,321.3200258144394L428.9625,331.4751025066768L430.70624999999995,339.5524613888467L432.45000000000005,339.86635044022455L434.19375,331.7217549438499L435.93750000000006,340.0930806645511L437.68125000000003,333.6535356292589L439.425,338.1910476660864L441.16875,293.22453994590114L442.9125,317.4118571135027L444.65625,324.0917939427009L446.4,328.85559047222824L448.14375,332.6157859482633L449.8875,295.8250317450739L451.63124999999997,320.37127428910003L453.37499999999994,326.3969172520165L455.11875,334.49925406899087L456.86249999999995,344.4208810015333L458.60625000000005,225.46683238718614L460.35,235.1812349421247L462.09375000000006,278.6225765726611L463.83750000000003,283.14368392879226L465.58125,305.9038344134025L467.325,303.0046209544109L469.06875,313.5357146274501L470.8125,315.2334279685175L472.55625,307.8892242959513L474.3,318.6072345964705L476.04375,325.4947416446777L477.78749999999997,324.01587316621624L479.53124999999994,324.87492485809105L481.275,316.6745430061225L483.01874999999995,327.7790840001473L484.76250000000005,341.5218783752303L486.50625,334.2378029283592L488.25000000000006,337.64824875961204L489.99375000000003,265.27110420974367L491.7375,286.6574651953958L493.48125,316.6759476991399L495.225,316.74105502996974L496.96875,287.27133035204946L498.7125,303.68209043413475L500.45625,320.003315989472L502.2,325.03215239467136L503.94374999999997,320.1918300583402L505.68749999999994,319.5061749309092L507.43125,310.4023079569471L509.17499999999995,258.5861023342766L510.91875000000005,293.7162358520932L512.6625,303.18708467508355L514.40625,327.49295547517016L516.15,327.7868037031057L517.8937500000001,340.83151813262344L519.6375,321.42896030019824L521.38125,317.41506510634133L523.125,322.9872097050205L524.86875,319.9450133901743L526.6125,310.55073268396563L528.3562499999999,300.1589759955116L530.1,277.89297577924214L531.84375,272.87822276340927L533.5875,287.30379824221876L535.33125,311.72221336882467L537.075,329.4840938784237L538.81875,293.7655564303233L540.5625,311.1919323390504L542.30625,323.2288877351064L544.0500000000001,300.1301881581127L545.79375,291.1453604882084L547.5375,291.5755374304775L549.28125,316.003721402695L551.025,334.5348373433446L552.76875,338.7174257949838L554.5124999999999,315.1357017937353L556.25625,319.0467872932178L558,335.40492449440035L559.74375,328.96913062583224L561.4875,342.42162208050354L563.23125,342.2481468287034L564.975,301.2687347999823L566.71875,310.76001361831493L568.4625,320.0466122430428L570.2062500000001,326.7174779745412L571.95,313.50054856326057L573.69375,284.4939091336092L575.4375,314.40298477763247L577.18125,334.2082457693545L578.925,347.01281925143115L580.6687499999999,335.8397118543001L582.4125,348.80841288541046L584.15625,321.6691574278059L585.9,334.0444068292836L587.64375,316.1093850554396L589.3875,334.7783481566089L591.13125,326.9242314928496L592.875,328.01475782186674L594.61875,343.93318977818643L596.3625000000001,333.9004801303011L598.10625,339.88952834131305L599.85,348.4015914674058L601.59375,334.2741938412978L603.3375,344.6663588216877L605.08125,349.8111217800675L606.8249999999999,349.50727006064784L608.56875,313.72589851069114L610.3125,332.97238592819053L612.05625,343.8324194270888L613.8,331.8524798520185L615.54375,332.13513082036025L617.2875,339.98748861621385L619.03125,348.73617563726737L620.775,340.40310723279566L622.5187500000001,331.8220888082882L624.2625,338.2453848329742L626.00625,325.5136780501917L627.75,329.8575958641383L629.49375,335.0482619750147L631.2375,341.4467438397974L632.9812499999999,336.47672760782416L634.725,342.48522567759386L636.46875,344.07147439087544L638.2125,286.5595668452347L639.95625,304.00419326019806L641.7,309.1352056889908L643.44375,323.1758543220096L645.1875,337.24993642241367L646.93125,332.8321660409078L648.6750000000001,331.7449270605296L650.41875,341.25842694577693L652.1625,348.4855226949347L653.90625,337.9135726044041L655.65,318.0645002470652L657.39375,336.37291523431935L659.1374999999999,345.94137081981796L660.88125,341.8213247691655L662.625,324.2324170956488L664.36875,319.15767372164026L666.1125,327.69608972662365L667.85625,295.26567783794013L669.6,292.6687365807959L671.34375,306.0764264019788L673.0875,325.8813689565847L674.8312500000001,324.7983610340317L676.575,323.04657996174933L678.31875,283.026815137028L680.0625,295.080240230332L681.80625,323.1288747110323L683.55,323.5816832419146L685.2937499999999,316.18866495213615L687.0375,313.49176569924487L688.78125,305.6766591383138L690.525,325.7018261317869L692.26875,329.85455425785017L694.0125,279.09804308092293L695.75625,292.6603504365021L697.5,313.8086239960937L699.24375,329.04748271924416L700.9875000000001,338.4917437497114L702.73125,347.0917225943988L704.475,348.44143110313286L706.21875,334.1184543650577L707.9625,340.1640272444826L709.70625,343.5759097596685L711.4499999999999,347.51552382352935L713.19375,344.5214083896273L714.9375,344.04689718386754L716.68125,341.4765648397442L718.425,338.632738761673L720.16875,339.4507969890567L721.9125,339.9758979314556L723.65625,319.7241401213923L725.4,305.2978723794208L727.1437500000001,304.22028881431373L728.8875,301.11011439939085L730.63125,320.9321690598682L732.375,330.85009651005515L734.11875,342.58549291039054L735.8625,332.7491726908859L737.6062499999999,310.1145365460316L739.35,319.52503670912375L741.09375,311.8558548453777L742.8375,335.2230907558078L744.58125,342.04278963207855L746.325,326.12124625500496L748.06875,323.9740127656104L749.8125,342.4404676560594L751.55625,336.6989202866924L753.3000000000001,336.9282398495103L755.04375,346.6347896130406L756.7875,342.7150519950985L758.53125,341.9957181685085L760.275,349.4737140507048L762.01875,350.59348058206797L763.7624999999999,347.35579976311374L765.50625,345.67914385302225L767.25,334.8291145333517" style="fill: none;" fill="none"></path></g></g></g></g><g opacity="0.2"><g><g><g><path stroke="rgb(255, 112, 67)" stroke-width="2px" d="M74.98125,-1081.354484445105L76.725,115.60397947848669L78.46875,-73.70563960406514L87.1875,-627.7156249897348L88.93124999999999,190.21164552355185L90.675,-351.5458319044362L92.41875,107.71781187576966L94.16250000000001,82.13815978645448L95.90625,71.00082397947295L97.65,-3.2347522772228006L99.39375,-80.25230347468619L101.1375,111.91004868669228L102.88125,50.65707904617818L104.625,82.65433820916547L106.36874999999999,154.46187651064247L108.11250000000001,129.61774819551243L109.85625,215.0247104796581L111.6,232.06525486319634L113.34374999999999,240.12055197130474L115.0875,76.4320840652411L116.83125,88.25376468989998L118.575,-247.8360044426388L120.31875,221.70570996765878L122.06250000000001,115.08497268085677L123.80625,194.6015028406659L125.55,246.5043892237461L127.29374999999999,265.97628758827017L129.0375,95.99353950801822L130.78125,305.3983539822253L132.525,263.7142459817438L134.26875,226.80229527637778L136.01250000000002,22.102269132621586L137.75625,307.7300199385887L139.5,226.26435543457046L141.24375,258.69303930286935L142.9875,214.06272165161658L144.73125,227.34851299133152L146.475,21.224595136216124L148.21875,269.241024677383L149.9625,123.29798826451105L151.70624999999998,307.0500395960019L153.45,261.3565882351767L155.19375,344.51672971489216L156.9375,-137.0078887860808L158.68125,315.9683994619797L160.425,348.34521251913003L162.16875000000002,292.8983754104055L163.9125,257.7577249762188L165.65625,99.97001520120023L167.4,193.94302790048016L169.14375,318.1072909424547L170.8875,286.7505733597144L172.63125,289.79198464730547L174.375,299.66258032436275L176.11875,199.1914067269406L177.86249999999998,324.8404324973882L179.60625,276.64494216514544L181.35,304.0553879291078L183.09375,281.00952697705685L184.8375,62.50940852663996L186.58125,188.65649039515603L188.32500000000002,338.6847974054205L190.06875,329.5264919874543L191.8125,210.22832303302778L193.55625,202.95140201738104L195.3,252.58409083350045L197.04375,310.84676109093965L198.7875,313.311933658241L200.53125,260.90356059729436L202.275,247.2877271635872L204.01874999999998,333.5106237989514L205.7625,0.5617558704689145L207.50625,334.1378647023165L209.25,235.01462814884468L210.99375,279.99051957360155L212.73749999999998,331.59383594506005L214.48125,212.9140966527371L216.22500000000002,346.5449549310272L217.96875000000003,303.2891543427637L219.7125,288.13037533877L221.45625,283.4140357788549L223.2,332.2208391186367L224.94375,335.58129902141326L226.68749999999997,332.20346350935546L228.43124999999998,356.7036059640555L230.175,351.2522119938965L231.91875000000002,312.823910976372L233.6625,292.63735419832585L235.40625,310.17162677865576L237.15,322.666033939536L238.89374999999998,327.5812344674875L240.6375,341.1387143815842L242.38125000000002,309.87859738403415L244.12500000000003,312.4922169651319L245.86875,305.39078320280856L247.6125,337.2054354100902L249.35625,313.2464909144263L251.1,302.1599927083589L252.84374999999997,284.95115392150666L254.58749999999998,209.9251870745793L256.33125,305.6447212863196L258.075,334.1952032985994L259.81875,308.3733777024835L261.5625,336.24019760827326L263.30625,244.07401054445654L265.05,311.9799580361125L266.79375,295.1603133911267L268.5375,312.58315165703084L270.28125,344.71264039529746L272.02500000000003,343.64860757947383L273.76875,354.39330521047424L275.5125,324.2611398636622L277.25624999999997,337.2553982872956L279,269.4096909144686L280.74375,288.21313578332774L282.4875,321.8593375240711L284.23125,342.34178254983595L285.975,277.6118075016679L287.71875,330.8256060380566L289.4625,308.8606018560887L291.20625,322.109289061899L292.95,345.41551289738464L294.69375,335.6251205457504L296.4375,333.4710448369927L298.18125000000003,247.41689368197694L299.925,318.1000798055385L301.66875,366.1910612273528L303.41249999999997,363.38210166973295L305.15625,313.60353057849636L306.9,287.8103361827994L308.64375,294.1467311033565L310.3875,307.79310367142574L312.13125,259.22183569127486L313.875,322.6810779681998L315.61875,314.4955232229291L317.3625,285.0356272396683L319.10625,305.60608714787907L320.85,176.07752457721574L322.59375,326.94881532167915L324.33750000000003,342.2848523611384L326.08125,359.46361223411645L327.825,338.1180495897618L329.56874999999997,352.5762069051141L331.3125,356.33188496163996L333.05625,321.384493606372L334.8,331.59415901374695L336.54375,216.50148792549345L338.2875,326.32940426224377L340.03125,319.67261968666895L341.775,350.9284575480269L343.51875,314.48778786135114L345.2625,344.24436452495866L347.00625,352.4588948740598L348.75,289.8071383974101L350.49375000000003,276.88991966432275L352.2375,334.2586101001232L353.98125,354.6158081011898L355.72499999999997,327.99987052930777L357.46875,342.4909854224469L359.2125,275.6396560374285L360.95625,352.45311011587427L362.7,288.1333378176722L364.44375,326.79208433910065L366.1875,305.7130655526804L367.93125,331.79883521814673L369.675,325.13759473294743L371.41875,340.37444968553933L373.1625,316.0732809681342L374.90625,315.6968206090387L376.65000000000003,286.5727149041421L378.39375,227.07625752283877L380.1375,293.6526371684288L381.88124999999997,315.9052547727867L383.625,368.1836841218044L385.36875,271.1275995134169L387.1125,335.68010013105555L388.85625,322.9809832397797L390.6,333.6730816311772L392.34375,355.68779724538194L394.0875,133.94535688186687L395.83125,290.81608800212337L397.575,304.7546060976521L399.31875,339.332882334724L401.0625,313.0539968377755L402.80625000000003,315.68152056367967L404.55,349.37977293682184L406.29375,360.0092569593237L408.03749999999997,312.0426150744574L409.78125,347.5078459131376L411.525,310.85514258989133L413.26875,326.05066913310696L415.0125,281.2694387834571L416.75625,331.05221738716745L418.5,343.9533771682634L420.24375,323.7780180728166L421.9875,319.9049548376093L423.73125,352.9416311159536L425.47499999999997,317.76800786489105L427.21874999999994,310.7612271321834L428.9625,346.707717545033L430.70624999999995,351.66849971210144L432.45000000000005,340.3371840172913L434.19375,319.50486169928786L435.93750000000006,352.65006924560294L437.68125000000003,323.9942180763206L439.425,344.99731572132765L441.16875,225.7747783656232L442.9125,353.69283286490503L444.65625,334.1116991864983L446.4,336.00128526651923L448.14375,338.25607916231576L449.8875,240.63890044028972L451.63124999999997,357.1906381051392L453.37499999999994,335.43538169639135L455.11875,346.65275929445244L456.86249999999995,359.3033214003469L458.60625000000005,47.03575946566543L460.35,249.7528387745325L462.09375000000006,343.78458901846574L463.83750000000003,289.9253449629889L465.58125,340.0440601403178L467.325,298.6558007659235L469.06875,329.33235513700896L470.8125,317.77999798011865L472.55625,296.87291878710187L474.3,334.6842500472493L476.04375,335.82600221698846L477.78749999999997,321.797570448524L479.53124999999994,326.16350239590327L481.275,304.3739702281697L483.01874999999995,344.43589549118445L484.76250000000005,362.1360699378549L486.50625,323.3116897580524L488.25000000000006,342.76391750649134L489.99375000000003,156.70538738494116L491.7375,318.7370066738739L493.48125,361.703671454756L495.225,316.83871602621446L496.96875,243.06674333516924L498.7125,328.2982305572627L500.45625,344.4851543224779L502.2,332.57540700247046L503.94374999999997,312.93134655384347L505.68749999999994,318.4776922397626L507.43125,296.7465074960039L509.17499999999995,180.8617939002708L510.91875000000005,346.41143612881814L512.6625,317.3933579095691L514.40625,363.9517616753001L516.15,328.227576045009L517.8937500000001,360.39858977690005L519.6375,292.32512355156035L521.38125,311.394222315556L523.125,331.3454266030393L524.86875,315.38171891790506L526.6125,296.4593116246526L528.3562499999999,284.5713409628305L530.1,244.49397545483794L531.84375,265.35609323966L533.5875,308.94216146043294L535.33125,348.34983605873356L537.075,356.1269146428224L538.81875,240.1877502581725L540.5625,337.3314962021411L542.30625,341.2843208291904L544.0500000000001,265.482138792622L545.79375,277.668118983352L547.5375,292.22080284388113L549.28125,352.64599736102133L551.025,362.3315112543189L552.76875,344.99130847244265L554.5124999999999,279.7631157918626L556.25625,324.9134155424415L558,359.9421302961742L559.74375,319.3154398229801L561.4875,362.6003592625105L563.23125,341.9879339510032L564.975,239.79961675690072L566.71875,324.9969318458138L568.4625,333.97651018013454L570.2062500000001,336.7237765717889L571.95,293.67515444633966L573.69375,240.98394998913216L575.4375,359.2665982436673L577.18125,363.91613725693765L578.925,366.21967947454607L580.6687499999999,319.08005075860353L582.4125,368.2614644320759L584.15625,280.960274241399L585.9,352.6072809315002L587.64375,289.20685239467355L589.3875,362.7817928083629L591.13125,315.14305649721064L592.875,329.65054731539243L594.61875,367.810837712666L596.3625000000001,318.8514156584731L598.10625,348.87310065783095L599.85,361.1696861565449L601.59375,313.08309740213576L603.3375,360.2546062922726L605.08125,357.52826621763717L606.8249999999999,349.0514924815183L608.56875,260.053841185756L610.3125,361.84211705443965L612.05625,360.12246967543615L613.8,313.8825704894132L615.54375,332.5591072728728L617.2875,351.7660253099942L619.03125,361.85920616884766L620.775,327.90350462608814L622.5187500000001,318.95056117152694L624.2625,347.8803288700033L626.00625,306.4161178760179L627.75,336.37347258505827L629.49375,342.83426114132936L631.2375,351.0444666369715L632.9812499999999,329.0217032598642L634.725,351.49797278224855L636.46875,346.4508474607978L638.2125,200.29170552677374L639.95625,330.17113288264306L641.7,316.8317243321799L643.44375,344.2368272715378L645.1875,358.3610595730198L646.93125,326.20551046864904L648.6750000000001,330.1140685899623L650.41875,355.5286767736478L652.1625,359.3261663186713L653.90625,322.0556474686083L655.65,288.2908917110568L657.39375,363.8355377152006L659.1374999999999,360.29405419806585L660.88125,335.6412556931868L662.625,297.8490555853738L664.36875,311.5455586606274L666.1125,340.5037137340987L667.85625,246.62006000491476L669.6,288.7733246950795L671.34375,326.18796113375316L673.0875,355.58878278849363L674.8312500000001,323.17384915020216L676.575,320.41890835332583L678.31875,222.99716789994596L680.0625,313.16037787028796L681.80625,365.2018264320828L683.55,324.2608960382382L685.2937499999999,305.09913751746836L687.0375,309.44641681990794L688.78125,293.95399929691723L690.525,355.7395766219965L692.26875,336.08364644694507L694.0125,202.9632763155322L695.75625,313.0038114698707L697.5,345.5310343354811L699.24375,351.90577080396986L700.9875000000001,352.65813529541225L702.73125,359.99169086142984L704.475,350.4659938662339L706.21875,312.63398925794496L707.9625,349.23238656362L709.70625,348.69373353244737L711.4499999999999,353.4249449193206L713.19375,340.03023523877425L714.9375,343.3351303752279L716.68125,337.6210663235591L718.425,334.36699964456625L720.16875,340.67788433013226L721.9125,340.76354934505395L723.65625,289.3465034062974L725.4,283.6584707664636L727.1437500000001,302.60391346665307L728.8875,296.44485277700653L730.63125,350.66525105058423L732.375,345.7269876853356L734.11875,360.1885875108936L735.8625,317.99469236162906L737.6062499999999,276.16258232875003L739.35,333.64078695376196L741.09375,300.3520820497587L742.8375,370.273944621453L744.58125,352.2723379464846L746.325,302.23893118939463L748.06875,320.75316253151846L749.8125,370.140149991733L751.55625,328.0865992326419L753.3000000000001,337.2722191937371L755.04375,361.1946142583361L756.7875,336.8354455681854L758.53125,340.9167174286235L760.275,360.6907078739993L762.01875,352.27313037911273L763.7624999999999,342.4992785346824L765.50625,343.164159987885L767.25,318.5540705538458" style="fill: none;" fill="none"></path></g></g></g></g></g><g><g opacity="0.519816"><span fill="rgb(0, 0, 0)" stroke="none" stroke-width="1px">Alt + Scroll to Zoom</span></g></g></g><g transform="translate(50, 377)" clip-path="url(#clip_1)"><clipPath id="clip_1"><rect width="837" height="23"></rect></clipPath><g><g><line x1="0" y1="0" x2="0" y2="5" style="visibility: inherit;" fill="rgb(0, 0, 0)" stroke="rgb(204, 204, 204)" stroke-width="1px"></line><line x1="69.75" y1="0" x2="69.75" y2="5" style="visibility: inherit;" fill="rgb(0, 0, 0)" stroke="rgb(204, 204, 204)" stroke-width="1px"></line><line x1="139.5" y1="0" x2="139.5" y2="5" style="visibility: inherit;" fill="rgb(0, 0, 0)" stroke="rgb(204, 204, 204)" stroke-width="1px"></line><line x1="209.25" y1="0" x2="209.25" y2="5" style="visibility: inherit;" fill="rgb(0, 0, 0)" stroke="rgb(204, 204, 204)" stroke-width="1px"></line><line x1="279" y1="0" x2="279" y2="5" style="visibility: inherit;" fill="rgb(0, 0, 0)" stroke="rgb(204, 204, 204)" stroke-width="1px"></line><line x1="348.75" y1="0" x2="348.75" y2="5" style="visibility: inherit;" fill="rgb(0, 0, 0)" stroke="rgb(204, 204, 204)" stroke-width="1px"></line><line x1="418.5" y1="0" x2="418.5" y2="5" style="visibility: inherit;" fill="rgb(0, 0, 0)" stroke="rgb(204, 204, 204)" stroke-width="1px"></line><line x1="488.25000000000006" y1="0" x2="488.25000000000006" y2="5" style="visibility: inherit;" fill="rgb(0, 0, 0)" stroke="rgb(204, 204, 204)" stroke-width="1px"></line><line x1="558" y1="0" x2="558" y2="5" style="visibility: inherit;" fill="rgb(0, 0, 0)" stroke="rgb(204, 204, 204)" stroke-width="1px"></line><line x1="627.75" y1="0" x2="627.75" y2="5" style="visibility: inherit;" fill="rgb(0, 0, 0)" stroke="rgb(204, 204, 204)" stroke-width="1px"></line><line x1="697.5" y1="0" x2="697.5" y2="5" style="visibility: inherit;" fill="rgb(0, 0, 0)" stroke="rgb(204, 204, 204)" stroke-width="1px"></line><line x1="767.25" y1="0" x2="767.25" y2="5" style="visibility: inherit;" fill="rgb(0, 0, 0)" stroke="rgb(204, 204, 204)" stroke-width="1px"></line><line x1="837" y1="0" x2="837" y2="5" style="visibility: inherit;" fill="rgb(0, 0, 0)" stroke="rgb(204, 204, 204)" stroke-width="1px"></line></g><g transform="translate(0, 8)"><text x="0" y="0" dx="0em" dy="0.95em" style="text-anchor: middle; visibility: hidden; font-family: Roboto, sans-serif; font-size: 12px; font-weight: 200;" fill="rgb(33, 33, 33)" stroke="none" stroke-width="1px">-20k</text><text x="69.75" y="0" dx="0em" dy="0.95em" style="text-anchor: middle; visibility: inherit; font-family: Roboto, sans-serif; font-size: 12px; font-weight: 200;" fill="rgb(33, 33, 33)" stroke="none" stroke-width="1px">0</text><text x="139.5" y="0" dx="0em" dy="0.95em" style="text-anchor: middle; visibility: inherit; font-family: Roboto, sans-serif; font-size: 12px; font-weight: 200;" fill="rgb(33, 33, 33)" stroke="none" stroke-width="1px">20k</text><text x="209.25" y="0" dx="0em" dy="0.95em" style="text-anchor: middle; visibility: inherit; font-family: Roboto, sans-serif; font-size: 12px; font-weight: 200;" fill="rgb(33, 33, 33)" stroke="none" stroke-width="1px">40k</text><text x="279" y="0" dx="0em" dy="0.95em" style="text-anchor: middle; visibility: inherit; font-family: Roboto, sans-serif; font-size: 12px; font-weight: 200;" fill="rgb(33, 33, 33)" stroke="none" stroke-width="1px">60k</text><text x="348.75" y="0" dx="0em" dy="0.95em" style="text-anchor: middle; visibility: inherit; font-family: Roboto, sans-serif; font-size: 12px; font-weight: 200;" fill="rgb(33, 33, 33)" stroke="none" stroke-width="1px">80k</text><text x="418.5" y="0" dx="0em" dy="0.95em" style="text-anchor: middle; visibility: inherit; font-family: Roboto, sans-serif; font-size: 12px; font-weight: 200;" fill="rgb(33, 33, 33)" stroke="none" stroke-width="1px">100k</text><text x="488.25000000000006" y="0" dx="0em" dy="0.95em" style="text-anchor: middle; visibility: inherit; font-family: Roboto, sans-serif; font-size: 12px; font-weight: 200;" fill="rgb(33, 33, 33)" stroke="none" stroke-width="1px">120k</text><text x="558" y="0" dx="0em" dy="0.95em" style="text-anchor: middle; visibility: inherit; font-family: Roboto, sans-serif; font-size: 12px; font-weight: 200;" fill="rgb(33, 33, 33)" stroke="none" stroke-width="1px">140k</text><text x="627.75" y="0" dx="0em" dy="0.95em" style="text-anchor: middle; visibility: inherit; font-family: Roboto, sans-serif; font-size: 12px; font-weight: 200;" fill="rgb(33, 33, 33)" stroke="none" stroke-width="1px">160k</text><text x="697.5" y="0" dx="0em" dy="0.95em" style="text-anchor: middle; visibility: inherit; font-family: Roboto, sans-serif; font-size: 12px; font-weight: 200;" fill="rgb(33, 33, 33)" stroke="none" stroke-width="1px">180k</text><text x="767.25" y="0" dx="0em" dy="0.95em" style="text-anchor: middle; visibility: inherit; font-family: Roboto, sans-serif; font-size: 12px; font-weight: 200;" fill="rgb(33, 33, 33)" stroke="none" stroke-width="1px">200k</text><text x="837" y="0" dx="0em" dy="0.95em" style="text-anchor: middle; visibility: hidden; font-family: Roboto, sans-serif; font-size: 12px; font-weight: 200;" fill="rgb(33, 33, 33)" stroke="none" stroke-width="1px">220k</text></g><line x1="0" y1="0" x2="837" y2="0" fill="rgb(0, 0, 0)" stroke="rgb(204, 204, 204)" stroke-width="1px"></line></g></g></g></g></svg>