<svg viewBox="0 0 887 400" xmlns="http://www.w3.org/2000/svg"><g><g><g><g><g><line x1="30" y1="377" x2="25" y2="377" style="visibility: inherit;" fill="rgb(0, 0, 0)" stroke="rgb(204, 204, 204)" stroke-width="1px"></line><line x1="30" y1="348" x2="25" y2="348" style="visibility: inherit;" fill="rgb(0, 0, 0)" stroke="rgb(204, 204, 204)" stroke-width="1px"></line><line x1="30" y1="319" x2="25" y2="319" style="visibility: inherit;" fill="rgb(0, 0, 0)" stroke="rgb(204, 204, 204)" stroke-width="1px"></line><line x1="30" y1="290" x2="25" y2="290" style="visibility: inherit;" fill="rgb(0, 0, 0)" stroke="rgb(204, 204, 204)" stroke-width="1px"></line><line x1="30" y1="261" x2="25" y2="261" style="visibility: inherit;" fill="rgb(0, 0, 0)" stroke="rgb(204, 204, 204)" stroke-width="1px"></line><line x1="30" y1="232" x2="25" y2="232" style="visibility: inherit;" fill="rgb(0, 0, 0)" stroke="rgb(204, 204, 204)" stroke-width="1px"></line><line x1="30" y1="203" x2="25" y2="203" style="visibility: inherit;" fill="rgb(0, 0, 0)" stroke="rgb(204, 204, 204)" stroke-width="1px"></line><line x1="30" y1="174" x2="25" y2="174" style="visibility: inherit;" fill="rgb(0, 0, 0)" stroke="rgb(204, 204, 204)" stroke-width="1px"></line><line x1="30" y1="145" x2="25" y2="145" style="visibility: inherit;" fill="rgb(0, 0, 0)" stroke="rgb(204, 204, 204)" stroke-width="1px"></line><line x1="30" y1="116" x2="25" y2="116" style="visibility: inherit;" fill="rgb(0, 0, 0)" stroke="rgb(204, 204, 204)" stroke-width="1px"></line><line x1="30" y1="86.99999999999999" x2="25" y2="86.99999999999999" style="visibility: inherit;" fill="rgb(0, 0, 0)" stroke="rgb(204, 204, 204)" stroke-width="1px"></line><line x1="30" y1="58" x2="25" y2="58" style="visibility: inherit;" fill="rgb(0, 0, 0)" stroke="rgb(204, 204, 204)" stroke-width="1px"></line><line x1="30" y1="28.999999999999982" x2="25" y2="28.999999999999982" style="visibility: inherit;" fill="rgb(0, 0, 0)" stroke="rgb(204, 204, 204)" stroke-width="1px"></line><line x1="30" y1="0" x2="25" y2="0" style="visibility: inherit;" fill="rgb(0, 0, 0)" stroke="rgb(204, 204, 204)" stroke-width="1px"></line></g><g transform="translate(20, 0)"><text x="0" y="377" dx="0em" dy="0.3em" style="text-anchor: end; visibility: hidden; font-family: Roboto, sans-serif; font-size: 12px; font-weight: 200;" fill="rgb(33, 33, 33)" stroke="none" stroke-width="1px">30</text><text x="0" y="348" dx="0em" dy="0.3em" style="text-anchor: end; visibility: inherit; font-family: Roboto, sans-serif; font-size: 12px; font-weight: 200;" fill="rgb(33, 33, 33)" stroke="none" stroke-width="1px">31</text><text x="0" y="319" dx="0em" dy="0.3em" style="text-anchor: end; visibility: inherit; font-family: Roboto, sans-serif; font-size: 12px; font-weight: 200;" fill="rgb(33, 33, 33)" stroke="none" stroke-width="1px">32</text><text x="0" y="290" dx="0em" dy="0.3em" style="text-anchor: end; visibility: inherit; font-family: Roboto, sans-serif; font-size: 12px; font-weight: 200;" fill="rgb(33, 33, 33)" stroke="none" stroke-width="1px">33</text><text x="0" y="261" dx="0em" dy="0.3em" style="text-anchor: end; visibility: inherit; font-family: Roboto, sans-serif; font-size: 12px; font-weight: 200;" fill="rgb(33, 33, 33)" stroke="none" stroke-width="1px">34</text><text x="0" y="232" dx="0em" dy="0.3em" style="text-anchor: end; visibility: inherit; font-family: Roboto, sans-serif; font-size: 12px; font-weight: 200;" fill="rgb(33, 33, 33)" stroke="none" stroke-width="1px">35</text><text x="0" y="203" dx="0em" dy="0.3em" style="text-anchor: end; visibility: inherit; font-family: Roboto, sans-serif; font-size: 12px; font-weight: 200;" fill="rgb(33, 33, 33)" stroke="none" stroke-width="1px">36</text><text x="0" y="174" dx="0em" dy="0.3em" style="text-anchor: end; visibility: inherit; font-family: Roboto, sans-serif; font-size: 12px; font-weight: 200;" fill="rgb(33, 33, 33)" stroke="none" stroke-width="1px">37</text><text x="0" y="145" dx="0em" dy="0.3em" style="text-anchor: end; visibility: inherit; font-family: Roboto, sans-serif; font-size: 12px; font-weight: 200;" fill="rgb(33, 33, 33)" stroke="none" stroke-width="1px">38</text><text x="0" y="116" dx="0em" dy="0.3em" style="text-anchor: end; visibility: inherit; font-family: Roboto, sans-serif; font-size: 12px; font-weight: 200;" fill="rgb(33, 33, 33)" stroke="none" stroke-width="1px">39</text><text x="0" y="86.99999999999999" dx="0em" dy="0.3em" style="text-anchor: end; visibility: inherit; font-family: Roboto, sans-serif; font-size: 12px; font-weight: 200;" fill="rgb(33, 33, 33)" stroke="none" stroke-width="1px">40</text><text x="0" y="58" dx="0em" dy="0.3em" style="text-anchor: end; visibility: inherit; font-family: Roboto, sans-serif; font-size: 12px; font-weight: 200;" fill="rgb(33, 33, 33)" stroke="none" stroke-width="1px">41</text><text x="0" y="28.999999999999982" dx="0em" dy="0.3em" style="text-anchor: end; visibility: inherit; font-family: Roboto, sans-serif; font-size: 12px; font-weight: 200;" fill="rgb(33, 33, 33)" stroke="none" stroke-width="1px">42</text><text x="0" y="0" dx="0em" dy="0.3em" style="text-anchor: end; visibility: hidden; font-family: Roboto, sans-serif; font-size: 12px; font-weight: 200;" fill="rgb(33, 33, 33)" stroke="none" stroke-width="1px">43</text></g><line x1="30" y1="0" x2="30" y2="377" fill="rgb(0, 0, 0)" stroke="rgb(204, 204, 204)" stroke-width="1px"></line></g></g><g transform="translate(30, 0)" clip-path="url(#clip_0)"><clipPath id="clip_0"><rect width="857" height="377"></rect></clipPath><g><g><g><line x1="0" y1="0" x2="0" y2="377" fill="rgb(0, 0, 0)" stroke="rgb(66, 66, 66)" stroke-width="1px" opacity="0.25"></line><line x1="71.41666666666666" y1="0" x2="71.41666666666666" y2="377" fill="rgb(0, 0, 0)" stroke="rgb(66, 66, 66)" stroke-width="1px" opacity="0.25"></line><line x1="142.83333333333331" y1="0" x2="142.83333333333331" y2="377" fill="rgb(0, 0, 0)" stroke="rgb(66, 66, 66)" stroke-width="1px" opacity="0.25"></line><line x1="214.25" y1="0" x2="214.25" y2="377" fill="rgb(0, 0, 0)" stroke="rgb(66, 66, 66)" stroke-width="1px" opacity="0.25"></line><line x1="285.66666666666663" y1="0" x2="285.66666666666663" y2="377" fill="rgb(0, 0, 0)" stroke="rgb(66, 66, 66)" stroke-width="1px" opacity="0.25"></line><line x1="357.08333333333337" y1="0" x2="357.08333333333337" y2="377" fill="rgb(0, 0, 0)" stroke="rgb(66, 66, 66)" stroke-width="1px" opacity="0.25"></line><line x1="428.5" y1="0" x2="428.5" y2="377" fill="rgb(0, 0, 0)" stroke="rgb(66, 66, 66)" stroke-width="1px" opacity="0.25"></line><line x1="499.9166666666667" y1="0" x2="499.9166666666667" y2="377" fill="rgb(0, 0, 0)" stroke="rgb(66, 66, 66)" stroke-width="1px" opacity="0.25"></line><line x1="571.3333333333333" y1="0" x2="571.3333333333333" y2="377" fill="rgb(0, 0, 0)" stroke="rgb(66, 66, 66)" stroke-width="1px" opacity="0.25"></line><line x1="642.75" y1="0" x2="642.75" y2="377" fill="rgb(0, 0, 0)" stroke="rgb(66, 66, 66)" stroke-width="1px" opacity="0.25"></line><line x1="714.1666666666667" y1="0" x2="714.1666666666667" y2="377" fill="rgb(0, 0, 0)" stroke="rgb(66, 66, 66)" stroke-width="1px" opacity="0.25"></line><line x1="785.5833333333333" y1="0" x2="785.5833333333333" y2="377" fill="rgb(0, 0, 0)" stroke="rgb(66, 66, 66)" stroke-width="1px" opacity="0.25"></line><line x1="857" y1="0" x2="857" y2="377" fill="rgb(0, 0, 0)" stroke="rgb(66, 66, 66)" stroke-width="1px" opacity="0.25"></line></g><g><line x1="0" y1="377" x2="857" y2="377" fill="rgb(0, 0, 0)" stroke="rgb(66, 66, 66)" stroke-width="1px" opacity="0.25"></line><line x1="0" y1="348" x2="857" y2="348" fill="rgb(0, 0, 0)" stroke="rgb(66, 66, 66)" stroke-width="1px" opacity="0.25"></line><line x1="0" y1="319" x2="857" y2="319" fill="rgb(0, 0, 0)" stroke="rgb(66, 66, 66)" stroke-width="1px" opacity="0.25"></line><line x1="0" y1="290" x2="857" y2="290" fill="rgb(0, 0, 0)" stroke="rgb(66, 66, 66)" stroke-width="1px" opacity="0.25"></line><line x1="0" y1="261" x2="857" y2="261" fill="rgb(0, 0, 0)" stroke="rgb(66, 66, 66)" stroke-width="1px" opacity="0.25"></line><line x1="0" y1="232" x2="857" y2="232" fill="rgb(0, 0, 0)" stroke="rgb(66, 66, 66)" stroke-width="1px" opacity="0.25"></line><line x1="0" y1="203" x2="857" y2="203" fill="rgb(0, 0, 0)" stroke="rgb(66, 66, 66)" stroke-width="1px" opacity="0.25"></line><line x1="0" y1="174" x2="857" y2="174" fill="rgb(0, 0, 0)" stroke="rgb(66, 66, 66)" stroke-width="1px" opacity="0.25"></line><line x1="0" y1="145" x2="857" y2="145" fill="rgb(0, 0, 0)" stroke="rgb(66, 66, 66)" stroke-width="1px" opacity="0.25"></line><line x1="0" y1="116" x2="857" y2="116" fill="rgb(0, 0, 0)" stroke="rgb(66, 66, 66)" stroke-width="1px" opacity="0.25"></line><line x1="0" y1="86.99999999999999" x2="857" y2="86.99999999999999" fill="rgb(0, 0, 0)" stroke="rgb(66, 66, 66)" stroke-width="1px" opacity="0.25"></line><line x1="0" y1="58" x2="857" y2="58" fill="rgb(0, 0, 0)" stroke="rgb(66, 66, 66)" stroke-width="1px" opacity="0.25"></line><line x1="0" y1="28.999999999999982" x2="857" y2="28.999999999999982" fill="rgb(0, 0, 0)" stroke="rgb(66, 66, 66)" stroke-width="1px" opacity="0.25"></line><line x1="0" y1="0" x2="857" y2="0" fill="rgb(0, 0, 0)" stroke="rgb(66, 66, 66)" stroke-width="1px" opacity="0.25"></line></g></g></g><g><g><line x1="0" y1="1247" x2="857" y2="1247" fill="rgb(0, 0, 0)" stroke="rgb(153, 153, 153)" stroke-width="1.5px"></line></g></g><g><g><line x1="71.41666666666666" y1="0" x2="71.41666666666666" y2="377" fill="rgb(0, 0, 0)" stroke="rgb(153, 153, 153)" stroke-width="1.5px"></line></g></g><g><g><g><g><g><path stroke="rgb(255, 112, 67)" stroke-width="2px" d="M92.84166666666667,412.0514263840414L94.62708333333333,375.7430356929577L96.41250000000001,358.55004297920016L98.19791666666666,350.1077184252786L99.98333333333333,355.9881605972751L101.76875,368.8088262627492L103.55416666666667,349.0342548068599L105.33958333333332,347.64325211840645L107.125,341.6098446428003L108.91041666666666,323.90111834152054L110.69583333333334,318.6079479287317L112.48125,294.09726217436867L114.26666666666667,273.79083283701766L116.05208333333333,258.7262562313581L117.8375,289.31365827470677L119.62291666666667,305.6446495431519L121.40833333333333,354.3321964590812L123.19375,313.40988622117135L124.97916666666667,315.18908992768837L126.76458333333333,298.0284626616578L128.54999999999998,270.86273822604744L130.33541666666665,246.4224090810873L132.12083333333334,278.54109019635194L133.90625,228.93223112077266L135.69166666666666,222.28022943940212L137.47708333333335,232.49763904435395L139.26250000000002,281.9471003824847L141.04791666666665,229.30803677045375L142.83333333333331,236.89442289843498L144.61875,229.24236815188254L146.40416666666667,240.77632299406918L148.18958333333333,243.41169986379265L149.975,288.61999126696884L151.76041666666669,255.57313001202664L153.54583333333335,278.88202650662345L155.33124999999998,227.9611021943347L157.11666666666665,222.7352260748313L158.90208333333334,155.63022103253994L160.6875,254.48714674964216L162.47291666666666,206.45317977327818L164.25833333333335,139.5433067896313L166.04375000000002,153.63980853668411L167.82916666666665,179.68634941646053L169.61458333333331,237.7814675478473L171.4,251.76540610244191L173.18541666666667,203.02294605403674L174.97083333333333,195.28187981503862L176.75625,188.9102320149994L178.54166666666669,179.03585631105028L180.32708333333335,215.05259593995117L182.11249999999998,174.87886896533755L183.89791666666665,183.74244131328456L185.68333333333334,172.98924988318547L187.46875,180.36857739573165L189.25416666666666,244.5801765888063L191.03958333333335,257.2789226036744L192.82500000000002,184.67495549091558L194.61041666666665,151.90987136583834L196.39583333333331,195.54866634977645L198.18125,223.88349058135012L199.96666666666667,223.97224675359516L201.75208333333333,192.20377957071187L203.5375,171.22957365063021L205.32291666666669,188.89326787201864L207.10833333333335,205.07828555231285L208.89374999999998,159.73598042562594L210.67916666666665,241.25858273169388L212.46458333333334,180.71225565708264L214.25,204.72415972969873L216.03541666666666,199.9415026737569L217.82083333333333,158.82674242456667L219.60625,198.88086295962293L221.39166666666668,138.06952882313706L223.17708333333334,146.11190619769084L224.9625,160.35905808629016L226.74791666666667,171.51241971505527L228.53333333333333,141.06880741985344L230.31875,118.87262142700966L232.10416666666666,109.50444291235813L233.88958333333332,63.99981845737582L235.675,48.68224428487474L237.46041666666667,85.50118922229198L239.24583333333334,121.37065371892204L241.03125,131.15440364492747L242.81666666666666,126.59746854193698L244.60208333333333,119.08646727018161L246.3875,98.42503099687463L248.17291666666668,117.6074416938279L249.95833333333334,127.1160137833865L251.74375,138.08254009376228L253.52916666666667,115.06560529405033L255.31458333333333,124.99839790543415L257.09999999999997,139.0350708477527L258.88541666666663,157.8837286658782L260.6708333333333,199.22444648907765L262.45625,181.16865074256776L264.2416666666667,144.59085871946655L266.02708333333334,146.4242189059963L267.8125,121.27798715414477L269.59791666666666,165.74206847656882L271.3833333333333,156.39526550000386L273.16875,162.37749285713124L274.9541666666667,153.906978197189L276.73958333333337,114.02847494321583L278.52500000000003,91.73483551524598L280.3104166666667,58.76896069635457L282.0958333333333,81.66504920833997L283.88124999999997,81.1518325645548L285.66666666666663,131.01333617203372L287.4520833333333,151.25296630282955L289.2375,139.39908507954934L291.0229166666667,108.89351446325685L292.80833333333334,143.663455479712L294.59375,125.9051426847999L296.37916666666666,134.85382932425873L298.1645833333333,129.3306951165279L299.95,98.17392060995572L301.7354166666667,93.08236750269218L303.52083333333337,92.58422885122478L305.30625000000003,147.24268208612548L307.0916666666667,140.31546246212454L308.8770833333333,50.74466993332936L310.66249999999997,8.640117084509434L312.44791666666663,60.86016735763927L314.2333333333333,109.38913203079449L316.01875,134.79393911837894L317.8041666666667,140.97025232600777L319.58958333333334,171.46223257236238L321.375,150.76822699458924L323.16041666666666,145.42318442673405L324.9458333333333,161.67035505301308L326.73125,158.66345418171025L328.5166666666667,208.9859463493583L330.30208333333337,169.16016827348207L332.08750000000003,126.83282429172596L333.8729166666667,67.03330053206685L335.6583333333333,71.26727341006043L337.44374999999997,50.383218660293984L339.22916666666663,29.44138749500469L341.0145833333333,66.74411106145588L342.8,78.90795345327965L344.5854166666667,149.8159375382765L346.37083333333334,134.27780257423538L348.15625,131.1732214615335L349.94166666666666,89.61579353365843L351.7270833333333,108.73791941853474L353.5125,87.65248218090608L355.2979166666667,60.45577458686414L357.08333333333337,108.00580728141553L358.86875000000003,143.49545519404455L360.6541666666667,121.91224656613377L362.4395833333333,76.37710257835218L364.22499999999997,88.52568171302696L366.01041666666663,78.15211404490606L367.7958333333333,126.20849865155293L369.58125,83.60119934962319L371.3666666666667,122.85099670938331L373.15208333333334,117.6366859772901L374.9375,132.16771715278028L376.72291666666666,117.93449259635572L378.5083333333333,116.32015753291094L380.29375,97.82756662668008L382.0791666666667,112.37074499309782L383.86458333333337,121.40698068726485L385.65000000000003,146.4114659392143L387.4354166666667,186.8843841411652L389.2208333333333,181.59062193977735L391.00624999999997,162.76734771220626L392.79166666666663,53.95026305847592L394.5770833333333,113.88150427063233L396.3625,102.43992245984035L398.1479166666667,109.07588584895112L399.93333333333334,101.94598927304256L401.71875,61.92502917173564L403.50416666666666,160.53321116759207L405.2895833333333,167.46590600963734L407.075,162.738077846505L408.8604166666667,127.09101565321558L410.64583333333337,132.3655117967146L412.43125000000003,133.41640790810686L414.2166666666667,93.86874122923909L416.0020833333333,45.66240837279731L417.78749999999997,84.29892665209643L419.57291666666663,67.70186117924617L421.3583333333333,98.43517615578999L423.14375,103.72569004406L424.9291666666667,138.67384023493204L426.71458333333334,122.66357080355682L428.5,96.45343117842322L430.28541666666666,104.73518431740558L432.0708333333333,113.24303624962299L433.85625,74.80924948414892L435.64166666666665,97.13860602593859L437.4270833333333,116.16873185286785L439.2125,88.17227793008007L440.99791666666664,62.36456365746201L442.78333333333336,65.50545236684057L444.56875,90.05703271160823L446.3541666666667,61.50449855762887L448.13958333333335,83.56076798223349L449.925,71.3746153913908L451.7104166666667,142.29769861715866L453.49583333333334,90.6439405203929L455.28125,90.37418016916928L457.06666666666666,87.94240666107184L458.8520833333333,83.633611110901L460.6375,144.4407867837281L462.42291666666665,83.73796602775656L464.2083333333333,84.65129554682973L465.99375,69.35314915426977L467.77916666666664,33.00388625769845L469.56458333333336,158.5810228556932L471.35,185.92433087650178L473.1354166666667,134.66654005422146L474.92083333333335,152.4638995574354L476.70625,119.96627308407051L478.4916666666667,138.3211136429228L480.27708333333334,124.30315402559735L482.0625,126.824771138503L483.84791666666666,143.56982148437126L485.6333333333333,121.45267627685325L487.41875,106.80438469677605L489.20416666666665,112.78631123798743L490.9895833333333,112.22468286095662L492.775,129.85809462868332L494.56041666666664,100.02912679674137L496.34583333333336,42.621547122966625L498.13125,72.87550548325267L499.9166666666667,68.36198389297888L501.70208333333335,159.44216134408813L503.4875,147.0873732224684L505.2729166666667,72.30109641883254L507.05833333333334,96.41796559055733L508.84375,151.20638848519386L510.62916666666666,133.11553536162413L512.4145833333333,101.90734764519704L514.1999999999999,98.9052530085049L515.9854166666667,115.55056452482958L517.7708333333333,120.97618985015158L519.55625,140.14005808733708L521.3416666666666,196.65780804576156L523.1270833333334,136.9561075569493L524.9125,134.74435087450158L526.6979166666667,56.8871836448181L528.4833333333333,76.59707001355102L530.2687500000001,34.131591007153936L532.0541666666667,90.73501234355015L533.8395833333334,111.84282930554416L535.625,106.242422436842L537.4104166666666,117.98827725360918L539.1958333333333,138.5272772652516L540.9812499999999,157.78645455495183L542.7666666666667,187.48775865826397L544.5520833333333,196.67805863734125L546.3375,177.25722122976805L548.1229166666666,122.0176338242866L549.9083333333334,72.91914657875152L551.69375,138.17853415086418L553.4791666666667,114.96336896463953L555.2645833333333,95.74615950134226L557.0500000000001,141.5761930152584L558.8354166666667,163.24456529645985L560.6208333333334,168.26483610170413L562.40625,108.43758818446007L564.1916666666666,46.99976909719931L565.9770833333333,49.44748566486247L567.7624999999999,106.89342578612461L569.5479166666667,109.91278734423334L571.3333333333333,55.48747648368848L573.11875,84.21192100984196L574.9041666666666,31.532497759713934L576.6895833333334,44.68527471784003L578.475,121.38091885902439L580.2604166666667,118.52443754588346L582.0458333333333,107.26102788397539L583.8312500000001,97.17884115665481L585.6166666666667,127.75366699868027L587.4020833333334,170.78520190819245L589.1875,93.96754906239589L590.9729166666666,32.55845607317967L592.7583333333333,-14.043081873670232L594.5437499999999,42.698775509586916L596.3291666666667,-18.537323439364886L598.1145833333333,65.47843143686946L599.9,46.84579451885995L601.6854166666666,100.18545980457759L603.4708333333334,40.47782098772712L605.25625,78.72430703355415L607.0416666666667,88.20766008683181L608.8270833333333,11.301170759130235L610.6125000000001,58.10379052920856L612.3979166666667,49.596978907368936L614.1833333333334,15.535505154480123L615.96875,65.40928374454346L617.7541666666666,27.853990046530587L619.5395833333333,12.91986167928553L621.3249999999999,22.16607106030586L623.1104166666667,99.82257812202332L624.8958333333333,43.484182554366214L626.68125,15.094882701565053L628.4666666666666,64.51080077572428L630.2520833333334,76.48582159092284L632.0375,55.158341709436584L633.8229166666667,16.628778829372873L635.6083333333333,52.775675805924536L637.3937500000001,82.90251485855464L639.1791666666667,66.22366528720306L640.9645833333334,100.82058222896244L642.75,93.75079507712353L644.5354166666666,80.78356725623512L646.3208333333333,59.157341281475425L648.1062499999999,77.13212296956883L649.8916666666667,56.078455910647605L651.6770833333333,52.54353655908393L653.4625,138.84448588808695L655.2479166666666,123.72283075404356L657.0333333333334,127.27689150662533L658.81875,98.78741481120183L660.6041666666667,53.27783523926019L662.3895833333333,76.47800180273573L664.1750000000001,86.36427147959076L665.9604166666667,52.95071163043039L667.7458333333334,23.097331275133385L669.53125,62.326002830021274L671.3166666666666,109.9964485608057L673.1020833333333,42.485195186287974L674.8874999999999,13.980724350542399L676.6729166666667,42.54675827975912L678.4583333333333,92.38549820516008L680.24375,112.71678628881867L682.0291666666666,95.4874356648928L683.8145833333334,149.2934303320412L685.6,161.9021980307678L687.3854166666667,141.66996566904672L689.1708333333333,85.99292483599824L690.9562500000001,99.02749928636467L692.7416666666667,109.36291070463125L694.5270833333334,166.007634423267L696.3125,155.63158413296415L698.0979166666666,64.3460281164972L699.8833333333333,85.01155516335541L701.6687499999999,113.02461193102116L703.4541666666667,126.69048432169862L705.2395833333333,145.29179303442538L707.025,87.80993757602631L708.8104166666666,86.30257173751033L710.5958333333334,158.332426526393L712.38125,151.14987400665618L714.1666666666667,111.08081490692322L715.9520833333333,75.6355861121226L717.7375000000001,52.8349481638555L719.5229166666667,21.0941711077859L721.3083333333334,24.454169595823956L723.09375,71.11320305143978L724.8791666666666,56.75493202373504L726.6645833333333,49.107860337287924L728.4499999999999,35.30578065549776L730.2354166666667,49.6902082004276L732.0208333333333,53.60318742025664L733.80625,63.84906760352109L735.5916666666666,73.99653010068683L737.3770833333334,72.01429379283397L739.1625,70.70600669562214L740.9479166666667,114.42136097538116L742.7333333333333,143.8180677448965L744.5187500000001,150.02720844478955L746.3041666666667,157.75970733005735L748.0895833333334,106.07377788924526L749.875,83.72049201430892L751.6604166666666,39.03891294540189L753.4458333333333,75.48325072134276L755.2312499999999,124.34663378241497L757.0166666666667,111.14596244718327L758.8020833333333,131.92616084233345L760.5875,21.81246225247038L762.3729166666666,21.333246089275228L764.1583333333334,76.78283492163156L765.94375,95.71759829184612L767.7291666666667,1.079597671396678L769.5145833333333,43.25792553399032L771.3000000000001,58.08622962459345L773.0854166666667,20.54967020883812L774.8708333333334,45.012150758115354L776.65625,54.291345020298856L778.4416666666666,19.853809392550243L780.2270833333333,20.156461355744927L782.0124999999999,37.118501447236056L783.7979166666667,46.31535593425957L785.5833333333333,79.36926421973547" style="fill: none;" fill="none"></path></g></g></g></g><g opacity="0.2"><g><g><g><path stroke="rgb(255, 112, 67)" stroke-width="2px" d="M76.77291666666667,534.1116352081299L78.55833333333332,317.6081008911133L80.34375,386.220308303833L89.27083333333334,487.18388175964355L91.05624999999999,275.28284072875977L92.84166666666667,446.7038116455078L94.62708333333333,321.3515815734863L96.41250000000001,332.78076362609863L98.19791666666666,337.45018577575684L99.98333333333333,364.80633544921875L101.76875,388.0365695953369L103.55416666666667,319.37541007995605L105.33958333333332,345.55687522888184L107.125,332.5600643157959L108.91041666666666,297.3386116027832L110.69583333333334,310.66829681396484L112.48125,257.3315238952637L114.26666666666667,243.3313331604004L116.05208333333333,236.12945556640628L117.8375,335.1946830749512L119.62291666666667,330.14111137390137L121.40833333333333,427.3634719848632L123.19375,252.0264434814453L124.97916666666667,317.85789489746094L126.76458333333333,272.28752517700195L128.54999999999998,230.11415481567386L130.33541666666665,209.7619171142578L132.12083333333334,326.7191104888916L133.90625,154.5189437866211L135.69166666666666,212.30222702026367L137.47708333333335,247.8237533569336L139.26250000000002,356.1212921142578L141.04791666666665,150.3494415283203L142.83333333333331,248.2740020751953L144.61875,217.76428604125977L146.40416666666667,258.07725524902344L148.18958333333333,247.36476516723633L149.975,356.43242835998535L151.76041666666669,206.00283813476562L153.54583333333335,313.8453712463379L155.33124999999998,151.57971572875974L157.11666666666665,214.89641189575195L158.90208333333334,54.972713470458984L160.6875,402.7725353240967L162.47291666666666,134.40222930908203L164.25833333333335,39.17849731445312L166.04375000000002,174.7845611572266L167.82916666666665,218.75616073608398L169.61458333333331,324.92414474487305L171.4,272.7413139343262L173.18541666666667,129.9092559814453L174.97083333333333,183.67028045654297L176.75625,179.3527603149414L178.54166666666669,164.22429275512698L180.32708333333335,269.0777053833008L182.11249999999998,114.61827850341795L183.89791666666665,197.03779983520508L185.68333333333334,156.8594627380371L187.46875,191.43756866455078L189.25416666666666,340.89757537841797L191.03958333333335,276.32704162597656L192.82500000000002,75.76900482177736L194.61041666666665,102.76224517822264L196.39583333333331,261.0068588256836L198.18125,266.38572692871094L199.96666666666667,224.10538101196286L201.75208333333333,144.55107879638672L203.5375,139.76826477050778L205.32291666666669,215.38880920410153L207.10833333333335,229.35581207275393L208.89374999999998,91.72252273559572L210.67916666666665,363.5424861907959L212.46458333333334,89.89276504516603L214.25,240.74201583862308L216.03541666666666,192.76751708984375L217.82083333333333,97.15460205078125L219.60625,258.96204376220703L221.39166666666668,46.85252761840821L223.17708333333334,158.1754722595215L224.9625,181.72978591918945L226.74791666666667,188.2424621582031L228.53333333333333,95.40338897705078L230.31875,85.57834243774415L232.10416666666666,95.45217514038085L233.88958333333332,-4.257118225097695L235.675,25.70588302612306L237.46041666666667,140.729606628418L239.24583333333334,175.1748504638672L241.03125,145.83002853393552L242.81666666666666,119.76206588745116L244.60208333333333,107.81996536254881L246.3875,67.43287658691405L248.17291666666668,146.38105773925778L249.95833333333334,141.3788719177246L251.74375,154.53232955932617L253.52916666666667,80.54020309448242L255.31458333333333,139.89758682250977L257.09999999999997,160.09008026123047L258.88541666666663,186.1567153930664L260.6708333333333,261.23552322387695L262.45625,154.0849571228027L264.2416666666667,89.72417068481445L266.02708333333334,149.17425918579102L267.8125,83.55863952636719L269.59791666666666,232.4381904602051L271.3833333333333,142.37506103515625L273.16875,171.35083389282227L274.9541666666667,141.2012062072754L276.73958333333337,54.21072006225586L278.52500000000003,58.29437637329102L280.3104166666667,9.320148468017585L282.0958333333333,116.00918197631837L283.88124999999997,80.38200759887695L285.66666666666663,205.80559158325195L287.4520833333333,181.6124114990234L289.2375,121.6182632446289L291.0229166666667,63.13515853881837L292.80833333333334,195.81836700439456L294.59375,99.26767349243164L296.37916666666666,148.27685928344727L298.1645833333333,121.04599380493165L299.95,51.43875885009766L301.7354166666667,85.44503784179689L303.52083333333337,91.83702087402344L305.30625000000003,229.23036193847656L307.0916666666667,129.92463302612308L308.8770833333333,-83.61151885986327L310.66249999999997,-54.51671218872073L312.44791666666663,139.19024276733398L314.2333333333333,182.18257904052737L316.01875,172.90114974975586L317.8041666666667,150.23472213745117L319.58958333333334,217.20020294189453L321.375,119.7272186279297L323.16041666666666,137.40562057495114L324.9458333333333,186.04111099243167L326.73125,154.15310287475586L328.5166666666667,284.4696846008301L330.30208333333337,109.42150115966798L332.08750000000003,63.34180831909181L333.8729166666667,-22.66598510742186L335.6583333333333,77.6182327270508L337.44374999999997,19.05713653564455L339.22916666666663,-1.9713592529297133L341.0145833333333,122.69819641113283L342.8,97.15371704101564L344.5854166666667,256.1779136657715L346.37083333333334,110.97060012817384L348.15625,126.51634979248047L349.94166666666666,27.27965164184571L351.7270833333333,137.4211082458496L353.5125,56.02432632446291L355.2979166666667,19.660713195800763L357.08333333333337,179.3308563232422L358.86875000000003,196.72992706298828L360.6541666666667,89.53743362426758L362.4395833333333,8.074386596679679L364.22499999999997,106.74855041503905L366.01041666666663,62.59176254272462L367.7958333333333,198.29307556152344L369.58125,19.690250396728505L371.3666666666667,181.72569274902344L373.15208333333334,109.81521987915039L374.9375,153.96426391601562L376.72291666666666,96.58465576171876L378.5083333333333,113.89865493774415L380.29375,70.08868026733397L382.0791666666667,134.1855125427246L383.86458333333337,134.96133422851562L385.65000000000003,183.9181938171387L387.4354166666667,247.5937614440918L389.2208333333333,173.6499786376953L391.00624999999997,134.53243637084964L392.79166666666663,-109.27536392211917L394.5770833333333,203.7783660888672L396.3625,85.27754974365236L398.1479166666667,119.02983093261717L399.93333333333334,91.25114440917967L401.71875,1.893589019775397L403.50416666666666,308.44548416137695L405.2895833333333,177.86494827270508L407.075,155.64633560180664L408.8604166666667,73.62042236328126L410.64583333333337,140.2772560119629L412.43125000000003,134.9927520751953L414.2166666666667,34.5472412109375L416.0020833333333,-26.647090911865195L417.78749999999997,142.25370407104492L419.57291666666663,42.8062629699707L421.3583333333333,144.53514862060547L423.14375,111.66146087646483L424.9291666666667,191.09606552124023L426.71458333333334,98.64816665649415L428.5,57.13822174072264L430.28541666666666,117.15781402587889L432.0708333333333,126.0048141479492L433.85625,17.158569335937518L435.64166666666665,130.63264083862305L437.4270833333333,144.71392059326172L439.2125,46.17759704589845L440.99791666666664,23.65299224853514L442.78333333333336,70.2167854309082L444.56875,126.88440322875978L446.3541666666667,18.675697326660156L448.13958333333335,116.64517211914062L449.925,53.095386505126946L451.7104166666667,248.68232345581055L453.49583333333334,13.16330337524414L455.28125,89.96953964233397L457.06666666666666,84.29474639892578L458.8520833333333,77.17041778564453L460.6375,235.65155029296875L462.42291666666665,-7.316265106201166L464.2083333333333,86.02128982543947L465.99375,46.40592956542969L467.77916666666664,-21.520008087158228L469.56458333333336,346.94672775268555L471.35,226.93929290771484L473.1354166666667,57.77985382080077L474.92083333333335,179.15993881225586L476.70625,71.21983337402344L478.4916666666667,165.85337448120117L480.27708333333334,103.27621459960938L482.0625,130.60719680786133L483.84791666666666,168.68739700317383L485.6333333333333,88.27695846557617L487.41875,84.83194732666017L489.20416666666665,121.75920104980469L490.9895833333333,111.38224029541014L492.775,156.30821228027344L494.56041666666664,55.28567504882812L496.34583333333336,-43.489822387695305L498.13125,118.25644302368164L499.9166666666667,61.59170150756835L501.70208333333335,296.06242752075195L503.4875,128.55519104003906L505.2729166666667,-39.878318786621115L507.05833333333334,132.59326934814453L508.84375,233.3890228271484L510.62916666666666,105.97925567626953L512.4145833333333,55.09506607055662L514.1999999999999,94.40211105346678L515.9854166666667,140.5185317993164L517.7708333333333,129.11462783813477L519.55625,168.88586044311523L521.3416666666666,281.43443298339844L523.1270833333334,47.403556823730476L524.9125,131.42671585083008L526.6979166666667,-59.89856719970703L528.4833333333333,106.16189956665039L530.2687500000001,-29.56662750244139L532.0541666666667,175.64014434814453L533.8395833333334,143.50455474853513L535.625,97.84181213378908L537.4104166666666,135.60705947875977L539.1958333333333,169.33577728271484L540.9812499999999,186.67522048950195L542.7666666666667,232.03971481323242L544.5520833333333,210.46350860595703L546.3375,148.12596511840823L548.1229166666666,39.15825271606447L549.9083333333334,-0.7285842895507684L551.69375,236.06761550903323L553.4791666666667,80.14062118530273L555.2645833333333,66.9203453063965L557.0500000000001,210.32124328613278L558.8354166666667,195.7471237182617L560.6208333333334,175.7952423095703L562.40625,18.696716308593736L564.1916666666666,-45.15695953369137L565.9770833333333,53.1190605163574L567.7624999999999,193.06233596801758L569.5479166666667,114.4418296813965L571.3333333333333,-26.150489807128874L573.11875,127.29858779907228L574.9041666666666,-47.48663711547855L576.6895833333334,64.41444015502931L578.475,236.42438507080078L580.2604166666667,114.23971557617188L582.0458333333333,90.3659133911133L583.8312500000001,82.05556106567383L585.6166666666667,173.61590576171875L587.4020833333334,235.33250427246094L589.1875,-21.258930206298803L592.7583333333333,-83.94538879394534L594.5437499999999,127.81156158447264L596.3291666666667,-110.39147186279293L598.1145833333333,191.5020637512207L599.9,18.896839141845685L601.6854166666666,180.1949577331543L603.4708333333334,-49.08363723754881L605.25625,136.0940361022949L607.0416666666667,102.43268966674803L608.8270833333333,-104.05856323242188L610.6125000000001,128.30772018432614L612.3979166666667,36.836761474609375L614.1833333333334,-35.55670547485354L615.96875,140.21995162963867L617.7541666666666,-28.478950500488267L619.5395833333333,-9.481330871582056L621.3249999999999,36.035385131835916L623.1104166666667,216.3073387145996L624.8958333333333,-41.02341079711913L626.68125,-27.48906707763671L628.4666666666666,138.6346778869629L630.2520833333334,94.44835281372069L632.0375,23.16712188720705L633.8229166666667,-41.16556549072269L635.6083333333333,106.99602127075195L637.3937500000001,128.0927734375L639.1791666666667,41.20539093017578L640.9645833333334,152.71595764160156L642.75,83.14611434936523L644.5354166666666,61.33272552490236L646.3208333333333,26.718002319335934L648.1062499999999,104.09429550170898L649.8916666666667,24.497955322265614L651.6770833333333,47.24115753173827L653.4625,268.2959098815918L655.2479166666666,101.0403480529785L657.0333333333334,132.60798263549802L658.81875,56.053199768066406L660.6041666666667,-14.986534118652369L662.3895833333333,111.2782516479492L664.1750000000001,101.19367599487306L665.9604166666667,2.8303718566894727L667.7458333333334,-21.682739257812482L669.53125,121.1690101623535L671.3166666666666,181.50211715698245L673.1020833333333,-58.781684875488295L674.8874999999999,-28.77598190307621L676.6729166666667,85.39580917358398L678.4583333333333,167.14360809326172L680.24375,143.21371841430664L682.0291666666666,69.6434097290039L683.8145833333334,230.00242233276367L685.6,180.81534957885742L687.3854166666667,111.32161712646483L689.1708333333333,2.4773635864257684L690.9562500000001,118.57936096191408L692.7416666666667,124.86602783203124L694.5270833333334,250.9747200012207L696.3125,140.06750869750977L698.0979166666666,-72.5823059082031L699.8833333333333,116.00984573364259L701.6687499999999,155.0441970825195L703.4541666666667,147.18929290771482L705.2395833333333,173.1937561035156L707.025,1.5871543884277215L708.8104166666666,84.04152297973631L710.5958333333334,266.3772087097168L712.38125,140.37604522705078L714.1666666666667,50.977226257324205L715.9520833333333,22.467742919921857L717.7375000000001,18.633991241455078L719.5229166666667,-26.516994476318374L721.3083333333334,29.49416732788087L723.09375,141.10175323486328L724.8791666666666,35.21752548217775L726.6645833333333,37.63725280761717L728.4499999999999,14.602661132812504L730.2354166666667,71.26684951782227L732.0208333333333,59.47265625L733.80625,79.21788787841798L735.5916666666666,89.21772384643555L737.3770833333334,69.0409393310547L739.1625,68.74357604980469L740.9479166666667,179.99439239501953L742.7333333333333,187.9131278991699L744.5187500000001,159.3409194946289L746.3041666666667,169.358455657959L748.0895833333334,28.544883728027333L749.875,50.19056320190428L751.6604166666666,-27.983455657959002L753.4458333333333,130.1497573852539L755.2312499999999,197.64170837402344L757.0166666666667,91.34495544433594L758.8020833333333,163.0964584350586L760.5875,-143.3580856323242L762.3729166666666,20.61442184448244L764.1583333333334,159.95721817016602L765.94375,124.11974334716797L767.7291666666667,-140.87740325927734L769.5145833333333,106.52541732788085L771.3000000000001,80.32868576049803L773.0854166666667,-35.75516891479494L774.8708333333334,81.70587158203126L776.65625,68.21013641357423L778.4416666666666,-31.80249404907225L780.2270833333333,20.610439300537102L782.0124999999999,62.56156158447266L783.7979166666667,60.110637664794915L785.5833333333333,128.95012664794922" style="fill: none;" fill="none"></path></g></g></g></g></g><g><g opacity="0.0244081"><span fill="rgb(0, 0, 0)" stroke="none" stroke-width="1px">Alt + Scroll to Zoom</span></g></g></g><g transform="translate(30, 377)" clip-path="url(#clip_1)"><clipPath id="clip_1"><rect width="857" height="23"></rect></clipPath><g><g><line x1="0" y1="0" x2="0" y2="5" style="visibility: inherit;" fill="rgb(0, 0, 0)" stroke="rgb(204, 204, 204)" stroke-width="1px"></line><line x1="71.41666666666666" y1="0" x2="71.41666666666666" y2="5" style="visibility: inherit;" fill="rgb(0, 0, 0)" stroke="rgb(204, 204, 204)" stroke-width="1px"></line><line x1="142.83333333333331" y1="0" x2="142.83333333333331" y2="5" style="visibility: inherit;" fill="rgb(0, 0, 0)" stroke="rgb(204, 204, 204)" stroke-width="1px"></line><line x1="214.25" y1="0" x2="214.25" y2="5" style="visibility: inherit;" fill="rgb(0, 0, 0)" stroke="rgb(204, 204, 204)" stroke-width="1px"></line><line x1="285.66666666666663" y1="0" x2="285.66666666666663" y2="5" style="visibility: inherit;" fill="rgb(0, 0, 0)" stroke="rgb(204, 204, 204)" stroke-width="1px"></line><line x1="357.08333333333337" y1="0" x2="357.08333333333337" y2="5" style="visibility: inherit;" fill="rgb(0, 0, 0)" stroke="rgb(204, 204, 204)" stroke-width="1px"></line><line x1="428.5" y1="0" x2="428.5" y2="5" style="visibility: inherit;" fill="rgb(0, 0, 0)" stroke="rgb(204, 204, 204)" stroke-width="1px"></line><line x1="499.9166666666667" y1="0" x2="499.9166666666667" y2="5" style="visibility: inherit;" fill="rgb(0, 0, 0)" stroke="rgb(204, 204, 204)" stroke-width="1px"></line><line x1="571.3333333333333" y1="0" x2="571.3333333333333" y2="5" style="visibility: inherit;" fill="rgb(0, 0, 0)" stroke="rgb(204, 204, 204)" stroke-width="1px"></line><line x1="642.75" y1="0" x2="642.75" y2="5" style="visibility: inherit;" fill="rgb(0, 0, 0)" stroke="rgb(204, 204, 204)" stroke-width="1px"></line><line x1="714.1666666666667" y1="0" x2="714.1666666666667" y2="5" style="visibility: inherit;" fill="rgb(0, 0, 0)" stroke="rgb(204, 204, 204)" stroke-width="1px"></line><line x1="785.5833333333333" y1="0" x2="785.5833333333333" y2="5" style="visibility: inherit;" fill="rgb(0, 0, 0)" stroke="rgb(204, 204, 204)" stroke-width="1px"></line><line x1="857" y1="0" x2="857" y2="5" style="visibility: inherit;" fill="rgb(0, 0, 0)" stroke="rgb(204, 204, 204)" stroke-width="1px"></line></g><g transform="translate(0, 8)"><text x="0" y="0" dx="0em" dy="0.95em" style="text-anchor: middle; visibility: hidden; font-family: Roboto, sans-serif; font-size: 12px; font-weight: 200;" fill="rgb(33, 33, 33)" stroke="none" stroke-width="1px">-20k</text><text x="71.41666666666666" y="0" dx="0em" dy="0.95em" style="text-anchor: middle; visibility: inherit; font-family: Roboto, sans-serif; font-size: 12px; font-weight: 200;" fill="rgb(33, 33, 33)" stroke="none" stroke-width="1px">0</text><text x="142.83333333333331" y="0" dx="0em" dy="0.95em" style="text-anchor: middle; visibility: inherit; font-family: Roboto, sans-serif; font-size: 12px; font-weight: 200;" fill="rgb(33, 33, 33)" stroke="none" stroke-width="1px">20k</text><text x="214.25" y="0" dx="0em" dy="0.95em" style="text-anchor: middle; visibility: inherit; font-family: Roboto, sans-serif; font-size: 12px; font-weight: 200;" fill="rgb(33, 33, 33)" stroke="none" stroke-width="1px">40k</text><text x="285.66666666666663" y="0" dx="0em" dy="0.95em" style="text-anchor: middle; visibility: inherit; font-family: Roboto, sans-serif; font-size: 12px; font-weight: 200;" fill="rgb(33, 33, 33)" stroke="none" stroke-width="1px">60k</text><text x="357.08333333333337" y="0" dx="0em" dy="0.95em" style="text-anchor: middle; visibility: inherit; font-family: Roboto, sans-serif; font-size: 12px; font-weight: 200;" fill="rgb(33, 33, 33)" stroke="none" stroke-width="1px">80k</text><text x="428.5" y="0" dx="0em" dy="0.95em" style="text-anchor: middle; visibility: inherit; font-family: Roboto, sans-serif; font-size: 12px; font-weight: 200;" fill="rgb(33, 33, 33)" stroke="none" stroke-width="1px">100k</text><text x="499.9166666666667" y="0" dx="0em" dy="0.95em" style="text-anchor: middle; visibility: inherit; font-family: Roboto, sans-serif; font-size: 12px; font-weight: 200;" fill="rgb(33, 33, 33)" stroke="none" stroke-width="1px">120k</text><text x="571.3333333333333" y="0" dx="0em" dy="0.95em" style="text-anchor: middle; visibility: inherit; font-family: Roboto, sans-serif; font-size: 12px; font-weight: 200;" fill="rgb(33, 33, 33)" stroke="none" stroke-width="1px">140k</text><text x="642.75" y="0" dx="0em" dy="0.95em" style="text-anchor: middle; visibility: inherit; font-family: Roboto, sans-serif; font-size: 12px; font-weight: 200;" fill="rgb(33, 33, 33)" stroke="none" stroke-width="1px">160k</text><text x="714.1666666666667" y="0" dx="0em" dy="0.95em" style="text-anchor: middle; visibility: inherit; font-family: Roboto, sans-serif; font-size: 12px; font-weight: 200;" fill="rgb(33, 33, 33)" stroke="none" stroke-width="1px">180k</text><text x="785.5833333333333" y="0" dx="0em" dy="0.95em" style="text-anchor: middle; visibility: inherit; font-family: Roboto, sans-serif; font-size: 12px; font-weight: 200;" fill="rgb(33, 33, 33)" stroke="none" stroke-width="1px">200k</text><text x="857" y="0" dx="0em" dy="0.95em" style="text-anchor: middle; visibility: hidden; font-family: Roboto, sans-serif; font-size: 12px; font-weight: 200;" fill="rgb(33, 33, 33)" stroke="none" stroke-width="1px">220k</text></g><line x1="0" y1="0" x2="857" y2="0" fill="rgb(0, 0, 0)" stroke="rgb(204, 204, 204)" stroke-width="1px"></line></g></g></g></g></svg>