<svg viewBox="0 0 887 400" xmlns="http://www.w3.org/2000/svg"><g><g><g><g><g><line x1="70" y1="377" x2="65" y2="377" style="visibility: inherit;" fill="rgb(0, 0, 0)" stroke="rgb(204, 204, 204)" stroke-width="1px"></line><line x1="70" y1="335.1111111111111" x2="65" y2="335.1111111111111" style="visibility: inherit;" fill="rgb(0, 0, 0)" stroke="rgb(204, 204, 204)" stroke-width="1px"></line><line x1="70" y1="293.22222222222223" x2="65" y2="293.22222222222223" style="visibility: inherit;" fill="rgb(0, 0, 0)" stroke="rgb(204, 204, 204)" stroke-width="1px"></line><line x1="70" y1="251.33333333333337" x2="65" y2="251.33333333333337" style="visibility: inherit;" fill="rgb(0, 0, 0)" stroke="rgb(204, 204, 204)" stroke-width="1px"></line><line x1="70" y1="209.44444444444446" x2="65" y2="209.44444444444446" style="visibility: inherit;" fill="rgb(0, 0, 0)" stroke="rgb(204, 204, 204)" stroke-width="1px"></line><line x1="70" y1="167.55555555555554" x2="65" y2="167.55555555555554" style="visibility: inherit;" fill="rgb(0, 0, 0)" stroke="rgb(204, 204, 204)" stroke-width="1px"></line><line x1="70" y1="125.66666666666669" x2="65" y2="125.66666666666669" style="visibility: inherit;" fill="rgb(0, 0, 0)" stroke="rgb(204, 204, 204)" stroke-width="1px"></line><line x1="70" y1="83.77777777777777" x2="65" y2="83.77777777777777" style="visibility: inherit;" fill="rgb(0, 0, 0)" stroke="rgb(204, 204, 204)" stroke-width="1px"></line><line x1="70" y1="41.888888888888864" x2="65" y2="41.888888888888864" style="visibility: inherit;" fill="rgb(0, 0, 0)" stroke="rgb(204, 204, 204)" stroke-width="1px"></line><line x1="70" y1="0" x2="65" y2="0" style="visibility: inherit;" fill="rgb(0, 0, 0)" stroke="rgb(204, 204, 204)" stroke-width="1px"></line></g><g transform="translate(60, 0)"><text x="0" y="377" dx="0em" dy="0.3em" style="text-anchor: end; visibility: hidden; font-family: Roboto, sans-serif; font-size: 12px; font-weight: 200;" fill="rgb(33, 33, 33)" stroke="none" stroke-width="1px">0</text><text x="0" y="335.1111111111111" dx="0em" dy="0.3em" style="text-anchor: end; visibility: inherit; font-family: Roboto, sans-serif; font-size: 12px; font-weight: 200;" fill="rgb(33, 33, 33)" stroke="none" stroke-width="1px">2e-4</text><text x="0" y="293.22222222222223" dx="0em" dy="0.3em" style="text-anchor: end; visibility: inherit; font-family: Roboto, sans-serif; font-size: 12px; font-weight: 200;" fill="rgb(33, 33, 33)" stroke="none" stroke-width="1px">4e-4</text><text x="0" y="251.33333333333337" dx="0em" dy="0.3em" style="text-anchor: end; visibility: inherit; font-family: Roboto, sans-serif; font-size: 12px; font-weight: 200;" fill="rgb(33, 33, 33)" stroke="none" stroke-width="1px">6e-4</text><text x="0" y="209.44444444444446" dx="0em" dy="0.3em" style="text-anchor: end; visibility: inherit; font-family: Roboto, sans-serif; font-size: 12px; font-weight: 200;" fill="rgb(33, 33, 33)" stroke="none" stroke-width="1px">8e-4</text><text x="0" y="167.55555555555554" dx="0em" dy="0.3em" style="text-anchor: end; visibility: inherit; font-family: Roboto, sans-serif; font-size: 12px; font-weight: 200;" fill="rgb(33, 33, 33)" stroke="none" stroke-width="1px">1e-3</text><text x="0" y="125.66666666666669" dx="0em" dy="0.3em" style="text-anchor: end; visibility: inherit; font-family: Roboto, sans-serif; font-size: 12px; font-weight: 200;" fill="rgb(33, 33, 33)" stroke="none" stroke-width="1px">1.2e-3</text><text x="0" y="83.77777777777777" dx="0em" dy="0.3em" style="text-anchor: end; visibility: inherit; font-family: Roboto, sans-serif; font-size: 12px; font-weight: 200;" fill="rgb(33, 33, 33)" stroke="none" stroke-width="1px">1.4e-3</text><text x="0" y="41.888888888888864" dx="0em" dy="0.3em" style="text-anchor: end; visibility: inherit; font-family: Roboto, sans-serif; font-size: 12px; font-weight: 200;" fill="rgb(33, 33, 33)" stroke="none" stroke-width="1px">1.6e-3</text><text x="0" y="0" dx="0em" dy="0.3em" style="text-anchor: end; visibility: hidden; font-family: Roboto, sans-serif; font-size: 12px; font-weight: 200;" fill="rgb(33, 33, 33)" stroke="none" stroke-width="1px">1.8e-3</text></g><line x1="70" y1="0" x2="70" y2="377" fill="rgb(0, 0, 0)" stroke="rgb(204, 204, 204)" stroke-width="1px"></line></g></g><g transform="translate(70, 0)" clip-path="url(#clip_0)"><clipPath id="clip_0"><rect width="817" height="377"></rect></clipPath><g><g><g><line x1="0" y1="0" x2="0" y2="377" fill="rgb(0, 0, 0)" stroke="rgb(66, 66, 66)" stroke-width="1px" opacity="0.25"></line><line x1="68.08333333333333" y1="0" x2="68.08333333333333" y2="377" fill="rgb(0, 0, 0)" stroke="rgb(66, 66, 66)" stroke-width="1px" opacity="0.25"></line><line x1="136.16666666666666" y1="0" x2="136.16666666666666" y2="377" fill="rgb(0, 0, 0)" stroke="rgb(66, 66, 66)" stroke-width="1px" opacity="0.25"></line><line x1="204.25" y1="0" x2="204.25" y2="377" fill="rgb(0, 0, 0)" stroke="rgb(66, 66, 66)" stroke-width="1px" opacity="0.25"></line><line x1="272.3333333333333" y1="0" x2="272.3333333333333" y2="377" fill="rgb(0, 0, 0)" stroke="rgb(66, 66, 66)" stroke-width="1px" opacity="0.25"></line><line x1="340.4166666666667" y1="0" x2="340.4166666666667" y2="377" fill="rgb(0, 0, 0)" stroke="rgb(66, 66, 66)" stroke-width="1px" opacity="0.25"></line><line x1="408.5" y1="0" x2="408.5" y2="377" fill="rgb(0, 0, 0)" stroke="rgb(66, 66, 66)" stroke-width="1px" opacity="0.25"></line><line x1="476.58333333333337" y1="0" x2="476.58333333333337" y2="377" fill="rgb(0, 0, 0)" stroke="rgb(66, 66, 66)" stroke-width="1px" opacity="0.25"></line><line x1="544.6666666666666" y1="0" x2="544.6666666666666" y2="377" fill="rgb(0, 0, 0)" stroke="rgb(66, 66, 66)" stroke-width="1px" opacity="0.25"></line><line x1="612.75" y1="0" x2="612.75" y2="377" fill="rgb(0, 0, 0)" stroke="rgb(66, 66, 66)" stroke-width="1px" opacity="0.25"></line><line x1="680.8333333333334" y1="0" x2="680.8333333333334" y2="377" fill="rgb(0, 0, 0)" stroke="rgb(66, 66, 66)" stroke-width="1px" opacity="0.25"></line><line x1="748.9166666666666" y1="0" x2="748.9166666666666" y2="377" fill="rgb(0, 0, 0)" stroke="rgb(66, 66, 66)" stroke-width="1px" opacity="0.25"></line><line x1="817" y1="0" x2="817" y2="377" fill="rgb(0, 0, 0)" stroke="rgb(66, 66, 66)" stroke-width="1px" opacity="0.25"></line></g><g><line x1="0" y1="377" x2="817" y2="377" fill="rgb(0, 0, 0)" stroke="rgb(66, 66, 66)" stroke-width="1px" opacity="0.25"></line><line x1="0" y1="335.1111111111111" x2="817" y2="335.1111111111111" fill="rgb(0, 0, 0)" stroke="rgb(66, 66, 66)" stroke-width="1px" opacity="0.25"></line><line x1="0" y1="293.22222222222223" x2="817" y2="293.22222222222223" fill="rgb(0, 0, 0)" stroke="rgb(66, 66, 66)" stroke-width="1px" opacity="0.25"></line><line x1="0" y1="251.33333333333337" x2="817" y2="251.33333333333337" fill="rgb(0, 0, 0)" stroke="rgb(66, 66, 66)" stroke-width="1px" opacity="0.25"></line><line x1="0" y1="209.44444444444446" x2="817" y2="209.44444444444446" fill="rgb(0, 0, 0)" stroke="rgb(66, 66, 66)" stroke-width="1px" opacity="0.25"></line><line x1="0" y1="167.55555555555554" x2="817" y2="167.55555555555554" fill="rgb(0, 0, 0)" stroke="rgb(66, 66, 66)" stroke-width="1px" opacity="0.25"></line><line x1="0" y1="125.66666666666669" x2="817" y2="125.66666666666669" fill="rgb(0, 0, 0)" stroke="rgb(66, 66, 66)" stroke-width="1px" opacity="0.25"></line><line x1="0" y1="83.77777777777777" x2="817" y2="83.77777777777777" fill="rgb(0, 0, 0)" stroke="rgb(66, 66, 66)" stroke-width="1px" opacity="0.25"></line><line x1="0" y1="41.888888888888864" x2="817" y2="41.888888888888864" fill="rgb(0, 0, 0)" stroke="rgb(66, 66, 66)" stroke-width="1px" opacity="0.25"></line><line x1="0" y1="0" x2="817" y2="0" fill="rgb(0, 0, 0)" stroke="rgb(66, 66, 66)" stroke-width="1px" opacity="0.25"></line></g></g></g><g><g><line x1="0" y1="377" x2="817" y2="377" fill="rgb(0, 0, 0)" stroke="rgb(153, 153, 153)" stroke-width="1.5px"></line></g></g><g><g><line x1="68.08333333333333" y1="0" x2="68.08333333333333" y2="377" fill="rgb(0, 0, 0)" stroke="rgb(153, 153, 153)" stroke-width="1.5px"></line></g></g><g><g><g><g><g><path stroke="rgb(255, 112, 67)" stroke-width="2px" d="M90.21041666666666,-2.318342745309494L91.91250000000001,17.30761908340864L93.61458333333333,53.3586372194826L95.31666666666666,8.52209667679473L97.01875,-149.8650201205191L98.72083333333333,-33.33298932696558L100.42291666666667,38.51037495575158L102.125,78.51474548087195L103.82708333333333,118.70193137809729L105.52916666666668,61.778933194483315L107.23125,78.17818175667173L108.93333333333334,133.30490060491954L110.63541666666666,170.9802062051882L112.3375,115.29626017596358L114.03958333333334,80.44419816857882L115.74166666666666,4.943748376224378L117.44375,76.68786461619861L119.14583333333334,78.37986391582366L120.84791666666666,73.05793279339953L122.55,130.93202999862606L124.25208333333332,79.02954859248248L125.95416666666667,115.2046528212917L127.65625,158.44362565235613L129.35833333333332,201.72344546149176L131.06041666666667,206.59803379834148L132.76250000000002,35.45639647725008L134.46458333333334,151.50012428297674L136.16666666666666,180.26201219643661L137.86875,150.80024793266372L139.57083333333333,151.6381412350716L141.27291666666667,166.55283235938944L142.975,98.15135702364053L144.67708333333334,134.55196717033672L146.37916666666666,68.90900486162299L148.08124999999998,149.55921521607743L149.78333333333333,184.3193441748175L151.48541666666668,229.11704712574905L153.1875,139.5109521345336L154.88958333333332,199.06085501002698L156.59166666666667,255.0240521776345L158.29375000000002,275.04040283079144L159.99583333333334,277.01992286500075L161.69791666666666,185.13274094442247L163.4,197.07063228815568L165.10208333333333,241.61883408803013L166.80416666666667,247.18971865723034L168.50625,250.30272677407632L170.20833333333334,256.6272946576569L171.91041666666666,212.39832616243942L173.61249999999998,230.5477668203317L175.31458333333333,235.737636436777L177.01666666666668,238.35350088944853L178.71875,260.7112606806411L180.42083333333332,177.77618139960313L182.12291666666667,176.98191103148065L183.82500000000002,230.35192857355895L185.52708333333334,274.2668886757871L187.22916666666666,231.73790231598957L188.93125,244.35293424206102L190.63333333333333,242.41040650621082L192.33541666666667,260.35802593853384L194.0375,240.24367670269012L195.73958333333334,230.44061985381663L197.44166666666666,251.23669093833297L199.14374999999998,274.0565229908966L200.84583333333333,187.7428954477167L202.54791666666668,221.37749816121243L204.25,236.2532525081141L205.95208333333332,222.26325053487523L207.65416666666667,236.06696966106523L209.35625,224.90196327564354L211.05833333333337,256.4717132956887L212.76041666666669,254.1673400176271L214.4625,248.02180095837323L216.16458333333333,243.50550034010647L217.86666666666667,246.51872692780566L219.56875,267.8732839844032L221.27083333333331,270.5380138224745L222.97291666666663,266.38418096556813L224.675,281.6131789041437L226.37708333333333,269.6768706177317L228.07916666666668,251.41403593850987L229.78125,272.91152526112404L231.48333333333332,254.89138241134046L233.18541666666667,256.8989986753365L234.8875,257.2819791613683L236.58958333333337,255.13985323387624L238.29166666666669,284.5570689779496L239.99375,274.5416893857405L241.69583333333333,296.58543127532187L243.39791666666667,278.1222261187838L245.1,283.28539504628276L246.80208333333331,264.2290574805194L248.50416666666663,204.17740167539174L250.20625,232.4837109289427L251.90833333333333,263.26306094960944L253.61041666666668,263.2118032794473L255.3125,286.7059839182074L257.01458333333335,251.703786040519L258.71666666666664,276.62219964039247L260.41875,262.725922963783L262.12083333333334,278.1301504676712L263.8229166666667,291.631558831065L265.52500000000003,285.31263166547524L267.2270833333333,279.99584255691707L268.9291666666667,279.21390601589L270.63124999999997,293.82648523341226L272.3333333333333,276.4832825742019L274.03541666666666,224.54564996386023L275.7375,241.42585652419766L277.43958333333336,270.1715511128713L279.14166666666665,251.9259665307233L280.84375,273.5635746787689L282.54583333333335,294.8981222325599L284.24791666666664,305.0206467054147L285.95,304.30937273287225L287.65208333333334,300.9994702401412L289.3541666666667,300.32033548723365L291.05625000000003,268.4622886470325L292.7583333333333,283.91793619510486L294.4604166666667,310.9379405991373L296.16249999999997,324.4175288660447L297.8645833333333,322.2266528358763L299.56666666666666,273.7535691150367L301.26875,283.01959589066644L302.97083333333336,294.40758319519773L304.67291666666665,267.83384691425016L306.375,275.97917423577115L308.07708333333335,284.09205176137243L309.77916666666664,279.3058861026805L311.48125,274.3412331560082L313.18333333333334,257.9039070501141L314.8854166666667,266.5167465095063L316.58750000000003,283.48673937382586L318.2895833333333,305.3880980352559L319.9916666666667,322.8304752675443L321.69374999999997,320.8960206864323L323.3958333333333,317.9770886693909L325.09791666666666,291.06006124258045L326.8,301.57461266648687L328.50208333333336,292.9933710747066L330.20416666666665,267.68568866650133L331.90625,283.5064955716034L333.60833333333335,302.42745650331153L335.31041666666664,298.7961500350128L337.0125,303.5933627078279L338.71458333333334,319.01757389592234L340.4166666666667,291.98996804151034L342.11875000000003,284.08935345353376L343.8208333333333,281.4556924443756L345.5229166666667,295.1353465767781L347.22499999999997,303.90765830750246L348.9270833333333,304.1254390568782L350.62916666666666,263.47990907413674L352.33125,282.17904516273654L354.03333333333336,266.04963843761647L355.73541666666665,257.81282710436653L357.4375,226.28872189683756L359.13958333333335,259.21100263261866L360.84166666666664,270.6034729324934L362.54375,277.5401670459408L364.24583333333334,276.85779659440067L365.9479166666667,284.84310811916583L367.65000000000003,280.11434348016485L369.3520833333333,272.195309344302L371.0541666666667,255.49372199266872L372.75624999999997,282.17262142718334L374.4583333333333,311.3050306324004L376.16041666666666,240.14481970993717L377.8625,273.1356841383807L379.56458333333336,279.1527886914769L381.26666666666665,297.6513658565753L382.96875,319.81439372493054L384.67083333333335,269.97143404144066L386.37291666666664,257.722451868134L388.075,280.78656831475485L389.77708333333334,300.19108862029094L391.4791666666667,298.05509564402234L393.18125000000003,298.080628450552L394.8833333333333,316.22625318301374L396.5854166666667,327.08367650740064L398.28749999999997,296.17819146994964L399.9895833333333,303.8490204257281L401.69166666666666,278.12868097077705L403.39375,279.17484315413276L405.09583333333336,265.086783721759L406.79791666666665,267.32909183327865L408.5,281.12900133645905L410.20208333333335,279.52198457972077L411.90416666666664,282.17920138937706L413.60625,303.9393033549441L415.30833333333334,290.11636919846813L417.01041666666663,261.17051238701896L418.7125,285.1995495676521L420.41458333333327,302.09405409617096L422.11666666666673,302.9677814077169L423.81875,303.9574171345431L425.52083333333337,315.91414116598406L427.22291666666666,313.29171868535474L428.925,318.78038576705393L430.62708333333336,280.8923740483279L432.32916666666665,304.8514993380493L434.03125,299.03646410458487L435.73333333333335,301.17919581996114L437.43541666666664,306.88540929322266L439.1375,252.1629108275032L440.83958333333334,283.9675316633648L442.54166666666663,295.1916668907941L444.24375,312.1188261173332L445.94583333333327,328.6486091260106L447.64791666666673,246.94744160503757L449.35,229.13318175159017L451.05208333333337,265.43707543387285L452.75416666666666,269.99075350679647L454.45625,287.57385977247094L456.15833333333336,257.09095979705364L457.86041666666665,274.4122984852595L459.5625,293.477323455965L461.26458333333335,261.9946371991733L462.96666666666664,275.8307374449733L464.66875,292.0994932916663L466.37083333333334,292.37427735305243L468.07291666666663,308.26868553776205L469.775,272.01125965002046L471.47708333333327,297.91657829567816L473.17916666666673,318.5606253940941L474.88125,296.9063204320014L476.58333333333337,281.0975050418992L478.28541666666666,224.21349453891992L479.9875,230.84598843087164L481.68958333333336,280.07092824490314L483.39166666666665,281.72893335683676L485.09375,244.57918480545482L486.79583333333335,259.7700506319072L488.49791666666664,284.4018005450476L490.2,289.55254779713306L491.90208333333334,305.8824801635639L493.60416666666663,292.34932848690414L495.30625,271.329375523784L497.00833333333327,219.28916978785557L498.71041666666673,247.32744960742195L500.4125,251.86925761590015L502.11458333333337,284.223973815818L503.81666666666666,300.0287846321378L505.51875,314.3184674759126L507.22083333333336,287.60184357087064L508.92291666666665,294.55882805308187L510.625,298.0943838769777L512.3270833333333,299.903286787702L514.0291666666667,253.5530603671364L515.7312499999999,234.94253091177922L517.4333333333333,223.7727948061198L519.1354166666666,235.10043881667823L520.8375,258.0686538193779L522.5395833333333,277.8132479114473L524.2416666666667,300.9567849332186L525.94375,285.66036867851153L527.6458333333334,299.91023121695946L529.3479166666667,306.17153260053476L531.0500000000001,291.7121720798539L532.7520833333333,274.4100220176216L534.4541666666667,282.49663039620117L536.15625,301.47247448274794L537.8583333333333,318.67740865727535L539.5604166666667,336.0732991226802L541.2624999999999,291.6111259152383L542.9645833333333,285.84460245372696L544.6666666666666,300.94042490175264L546.36875,305.74649781446607L548.0708333333333,325.87742552268327L549.7729166666667,309.7726402675951L551.475,289.5756183945891L553.1770833333334,295.9224923795652L554.8791666666667,290.27342831909516L556.5812500000001,262.1548667054441L558.2833333333333,260.13244935988286L559.9854166666667,228.27366886526434L561.6875,261.43496891996193L563.3895833333333,291.8372916357299L565.0916666666667,320.4318004842962L566.7937499999999,307.477389895482L568.4958333333333,324.08032838858185L570.1979166666666,286.7796308346263L571.9,291.3401027219638L573.6020833333333,281.7708287991744L575.3041666666667,311.4408079736233L577.00625,312.66679521697813L578.7083333333334,302.18732996383966L580.4104166666667,324.1935845895609L582.1125000000001,313.276214826778L583.8145833333333,321.2207121484261L585.5166666666667,321.5077425676069L587.21875,302.98936932865007L588.9208333333333,315.98630866535564L590.6229166666667,321.1933260756158L592.3249999999999,309.23744242037293L594.0270833333333,256.87875519402627L595.7291666666666,292.4800200794533L597.43125,314.99824390033797L599.1333333333333,303.50504919622375L600.8354166666667,306.77780585083906L602.5375,313.96349577125454L604.2395833333334,331.0401240298579L605.9416666666667,310.3391271508849L607.6437500000001,318.84390243808417L609.3458333333333,314.43772724426987L611.0479166666667,304.07828849667425L612.75,305.5224667774692L614.4520833333333,297.806518756282L616.1541666666667,309.7963602738182L617.8562499999999,309.6072350015286L619.5583333333333,310.4976427505564L621.2604166666666,322.98992739303105L622.9625,233.1618754508752L624.6645833333333,244.03183575365395L626.3666666666667,253.20659841341097L628.06875,251.2853918582364L629.7708333333334,280.3049791280133L631.4729166666667,264.13625776869685L633.1750000000001,286.3042660154518L634.8770833333333,310.57243972476334L636.5791666666667,328.9215132685395L638.28125,320.9827314274002L639.9833333333333,306.108075629013L641.6854166666667,327.32238372054337L643.3874999999999,334.3943961205293L645.0895833333333,317.53027176586005L646.7916666666666,268.6963600014116L648.49375,270.4071201781652L650.1958333333333,261.1930108808526L651.8979166666667,244.22826977258305L653.6,242.94260146467613L655.3020833333334,275.9549490188897L657.0041666666667,294.4474606811168L658.7062500000001,287.931162270657L660.4083333333333,297.9826855866601L662.1104166666667,217.96059744855702L663.8125,260.1944390157998L665.5145833333333,298.3350514462192L667.2166666666667,289.79709826269965L668.9187499999999,283.55336578632097L670.6208333333333,275.11960202919266L672.3229166666666,261.17566685638167L674.025,296.1151429753547L675.7270833333333,286.1946386401688L677.4291666666667,228.64367307581676L679.13125,250.249903763958L680.8333333333334,270.3539819429544L682.5354166666667,290.0320794598501L684.2375000000001,308.47233298219686L685.9395833333333,324.04437098573817L687.6416666666667,324.6811243110191L689.34375,309.749050028897L691.0458333333333,325.09293758125597L692.7479166666667,313.19991872413976L694.4499999999999,249.48760943418486L696.1520833333333,234.8198603354199L697.8541666666666,267.28779524636L699.55625,287.23962691218617L701.2583333333333,303.18675540433776L702.9604166666667,316.11978312030493L704.6625,323.04753817555655L706.3645833333334,310.79913756175705L708.0666666666667,303.72111159056163L709.7687500000001,274.46332283154635L711.4708333333333,280.83875927715303L713.1729166666667,312.6484508531603L714.875,303.26145132749775L716.5770833333333,311.7031452404421L718.2791666666667,306.4824299632934L719.9812499999999,276.12143538898374L721.6833333333333,274.5455532210728L723.3854166666666,262.9951394448566L725.0875,300.8614483949325L726.7895833333333,309.65286307403466L728.4916666666667,289.38613069389174L730.19375,290.45768265200917L731.8958333333334,314.9370665251371L733.5979166666667,308.55956635874736L735.3000000000001,303.37028207532944L737.0020833333333,287.19714139399605L738.7041666666667,306.63512781048877L740.40625,309.97703327087686L742.1083333333333,326.9347798203456L743.8104166666667,322.403675774352L745.5124999999999,317.8318206495284L747.2145833333333,306.0764224979316L748.9166666666666,297.57086185117026" style="fill: none;" fill="none"></path></g></g></g></g><g opacity="0.2"><g><g><g><path stroke="rgb(255, 112, 67)" stroke-width="2px" d="M73.18958333333333,-305.417475230371L74.89166666666667,146.09334907152999L76.59375,7.8373602288257835L78.29583333333333,-447.02362539950354L79.99791666666667,30.606461037674705L81.7,-227.73674326203763L85.10416666666667,-418.0153733448435L86.80624999999999,84.58787382187114L88.50833333333334,64.18619596782241L90.21041666666666,174.32036008499563L91.91250000000001,46.72349224508634L93.61458333333333,107.40973845248419L95.31666666666666,-58.71374081592592L97.01875,-387.4054808446931L98.72083333333333,141.44730438136804L100.42291666666667,146.26885461176022L102.125,138.5191073337984L103.82708333333333,178.98138784746533L105.52916666666668,-23.604440235636282L107.23125,102.77686033522087L108.93333333333334,215.99458706016753L110.63541666666666,227.49300393762275L112.3375,31.7704836120829L114.03958333333334,28.166158663626337L115.74166666666666,-108.30685676572226L117.44375,184.30399932427747L119.14583333333334,80.91786230417587L120.84791666666666,65.07503716864932L122.55,217.74316889746115L124.25208333333332,1.1758302009353756L125.95416666666667,169.46730760981637L127.65625,223.30208378398999L129.35833333333332,266.6431745055856L131.06041666666667,213.90991625836534L132.76250000000002,-221.2560585511642L134.46458333333334,325.56571560376324L136.16666666666666,223.40484400895525L137.86875,106.60760157244898L139.57083333333333,152.8949811880787L141.27291666666667,188.92486903940636L142.975,-4.450855962207794L144.67708333333334,189.15288238470544L146.37916666666666,-29.55543859530655L148.08124999999998,270.5345307432322L149.78333333333333,236.4595376117569L151.48541666666668,296.31360155124116L153.1875,5.101809648796916L154.88958333333332,288.38570932283375L156.59166666666667,338.96884792880155L158.29375000000002,305.0649288104744L159.99583333333334,279.9892029163117L161.69791666666666,47.301968063641766L163.4,214.97746930374865L165.10208333333333,308.4411367878266L166.80416666666667,255.54604551102966L168.50625,254.97223894934484L170.20833333333334,266.1141464830273L171.91041666666666,146.05487341961515L173.61249999999998,257.7719278071696L175.31458333333333,243.52244086144492L177.01666666666668,242.27729756845577L178.71875,294.2479003674299L180.42083333333332,53.37356247804644L182.12291666666667,175.79050547929688L183.82500000000002,310.4069548866763L185.52708333333334,340.1393288291292L187.22916666666666,167.94442277629344L188.93125,263.27548213116825L190.63333333333333,239.49661490243545L192.33541666666667,287.2794550870183L194.0375,210.0721528489246L195.73958333333334,215.73603458050638L197.44166666666666,282.4307975651076L199.14374999999998,308.2862710697421L200.84583333333333,58.2724541329468L202.54791666666668,271.82940223145613L204.25,258.56688402846663L205.95208333333332,201.2782475750169L207.65416666666667,256.77254835035035L209.35625,208.15445369751092L211.05833333333337,303.8263383257565L212.76041666666669,250.71078010053475L214.4625,238.80349236949246L216.16458333333333,236.73104941270623L217.86666666666667,251.03856680935456L219.56875,299.90511956929953L221.27083333333331,274.5351085795814L222.97291666666663,260.15343168020866L224.675,304.456675812007L226.37708333333333,251.77240818811373L228.07916666666668,224.01978391967714L229.78125,305.15775924504527L231.48333333333332,227.86116813666496L233.18541666666667,259.9104230713306L234.8875,257.8564498904161L236.58958333333337,251.9266643426381L238.29166666666669,328.68289259405964L239.99375,259.51861999742687L241.69583333333333,329.65104410969394L243.39791666666667,250.42741838397666L245.1,291.03014843753124L246.80208333333331,235.64455113187432L248.50416666666663,114.09991796770028L250.20625,274.9431748092692L251.90833333333333,309.4320859806095L253.61041666666668,263.1349167742042L255.3125,321.9472548763475L257.01458333333335,199.20048922398644L258.71666666666664,313.9998200402026L260.41875,241.88150794886883L262.12083333333334,301.2364917235035L263.8229166666667,311.8836713761557L265.52500000000003,275.83424091709054L267.2270833333333,272.0206588940798L268.9291666666667,278.0410012043495L270.63124999999997,315.74535405969556L272.3333333333333,250.46847858538644L274.03541666666666,146.63920104834767L275.7375,266.74616636470375L277.43958333333336,313.2900929958818L279.14166666666665,224.55758965750124L280.84375,306.01998690083724L282.54583333333335,326.8999435632464L284.24791666666664,320.204433414697L285.95,303.2424617740584L287.65208333333334,296.0346165010447L289.3541666666667,299.30163335787233L291.05625000000003,220.67521838673076L292.7583333333333,307.1014075172134L294.4604166666667,351.46794720518585L296.16249999999997,344.6369112664058L297.8645833333333,318.9403387906237L299.56666666666666,201.04394353377734L301.26875,296.918636054111L302.97083333333336,311.48956415199467L304.67291666666665,227.97324249282894L306.375,288.19716521805253L308.07708333333335,296.2613680497743L309.77916666666664,272.1266376146426L311.48125,266.89425373599965L313.18333333333334,233.24791789127306L314.8854166666667,279.4360056985946L316.58750000000003,308.9417286703052L318.2895833333333,338.2401360274008L319.9916666666667,348.99404111597687L321.69374999999997,317.9943388147642L323.3958333333333,313.598690643829L325.09791666666666,250.68452010236473L326.8,317.34643980234654L328.50208333333336,280.1215086870361L330.20416666666665,229.72416505419335L331.90625,307.23770592925655L333.60833333333335,330.8088979008737L335.31041666666664,293.3491903325646L337.0125,310.78918171705055L338.71458333333334,342.15389067806404L340.4166666666667,251.44855925989236L342.11875000000003,272.23843157156887L343.8208333333333,277.50520093063824L345.5229166666667,315.65482777538193L347.22499999999997,317.066125903589L348.9270833333333,304.4521101809417L350.62916666666666,202.51161410002453L352.33125,310.22774929563616L354.03333333333336,241.85552834993644L355.73541666666665,245.45761010449172L357.4375,179.00256408554395L359.13958333333335,308.59442373629037L360.84166666666664,287.6921783823054L362.54375,287.9452082161119L364.24583333333334,275.83424091709054L365.9479166666667,296.8210754063135L367.65000000000003,273.02119652166346L369.3520833333333,260.31675814050766L371.0541666666667,230.44134096521884L372.75624999999997,322.1909705789553L374.4583333333333,355.0036444402261L376.16041666666666,133.40450332624215L377.8625,322.62198078104603L379.56458333333336,288.1784455211212L381.26666666666665,325.39923160422285L382.96875,353.0589355274634L384.67083333333335,195.2069945162059L386.37291666666664,239.34897860817404L388.075,315.38274298468605L389.77708333333334,329.2978690785951L391.4791666666667,294.8511061796194L393.18125000000003,298.11892766034646L394.8833333333333,343.44469028170636L396.5854166666667,343.369811493981L398.28749999999997,249.8199639137731L399.9895833333333,315.3552638593958L401.69166666666666,239.5481717883506L403.39375,280.74408642916626L405.09583333333336,243.95469457319837L406.79791666666665,270.6925540005581L408.5,301.82886559122966L410.20208333333335,277.1114594446133L411.90416666666664,286.16502660386163L413.60625,336.57945630329453L415.30833333333334,269.3819679637543L417.01041666666663,217.75172716984525L418.7125,321.2431053386018L420.41458333333327,327.4358108889493L422.11666666666673,304.2783723750359L423.81875,305.44187072478235L425.52083333333337,333.8492272131455L427.22291666666666,309.3580849644107L428.925,327.01338638960283L430.62708333333336,224.06035647023884L432.32916666666665,340.7901872726313L434.03125,290.31391125438836L435.73333333333335,304.3932933930256L437.43541666666664,315.4447295031148L439.1375,170.07916312892405L440.83958333333334,331.67446291715737L442.54166666666663,312.02786973193804L444.24375,337.50956495714166L445.94583333333327,353.44328363902684L447.64791666666673,124.39569032357798L449.35,202.411791971419L451.05208333333337,319.8929159572969L452.75416666666666,276.8212706161818L454.45625,313.94851917098276L456.15833333333336,211.3666098339276L457.86041666666665,300.39430651756834L459.5625,322.0748609120233L461.26458333333335,214.7706078139858L462.96666666666664,296.5848878136733L464.66875,316.5026270617058L466.37083333333334,292.78645344513154L468.07291666666663,332.1102978148265L469.775,217.625120818408L471.47708333333327,336.77455626416486L473.17916666666673,349.5266960417179L474.88125,264.4248629888623L476.58333333333337,257.3842819567459L478.28541666666666,138.88747878445105L479.9875,240.7947292687992L481.68958333333336,353.9083379659504L483.39166666666665,284.2159410247372L485.09375,188.85456197838198L486.79583333333335,282.5563493715858L488.49791666666664,321.34942541475823L490.2,297.2786686752612L491.90208333333334,330.3773787132102L493.60416666666663,272.0496009719144L495.30625,239.79944607910386L497.00833333333327,141.22886118396286L498.71041666666673,289.38486933677143L500.4125,258.6819696286176L502.11458333333337,332.7560481156947L503.81666666666666,323.73600085661747L505.51875,335.7529917415749L507.22083333333336,247.52690771330765L508.92291666666665,304.9943047763987L510.625,303.3977176128214L512.3270833333333,302.6166411537884L514.0291666666667,184.02772073628796L515.7312499999999,207.02673672874357L517.4333333333333,207.0181906476306L519.1354166666666,252.09190483251587L520.8375,292.5209763234274L522.5395833333333,307.43013904955137L524.2416666666667,335.67209046587556L525.94375,262.715744296451L527.6458333333334,321.28502502463135L529.3479166666667,315.5634846758977L531.0500000000001,270.0231312988326L532.7520833333333,248.45679692427314L534.4541666666667,294.6265429640706L536.15625,329.93624061256804L537.8583333333333,344.48480991906644L539.5604166666667,362.1671348207876L541.2624999999999,224.91786610407547L542.9645833333333,277.1948172614599L544.6666666666666,323.58415857379117L546.36875,312.9556071835363L548.0708333333333,356.07381708500907L549.7729166666667,285.61546238496277L551.475,259.2800855850801L553.1770833333334,305.44280335702933L554.8791666666667,281.7998322283901L556.5812500000001,219.9770242849675L558.2833333333333,257.098823341541L559.9854166666667,180.48549812333658L561.6875,311.1769190020083L563.3895833333333,337.44077570938197L565.0916666666667,363.32356375714556L566.7937499999999,288.0457740122607L568.4958333333333,348.9847361282316L570.1979166666666,230.82858450369287L571.9,298.18081055297L573.6020833333333,267.41691791499034L575.3041666666667,355.94577673529665L577.00625,314.5057760820103L578.7083333333334,286.4681320841321L580.4104166666667,357.2029665281427L582.1125000000001,296.9001601826037L583.8145833333333,333.1374581308984L585.5166666666667,321.9382881963781L587.21875,275.2118094702148L588.9208333333333,335.48171767041396L590.6229166666667,329.00385219100605L592.3249999999999,291.3036169375086L594.0270833333333,178.34072435450634L595.7291666666666,345.8819174075939L597.43125,348.77557963166487L599.1333333333333,286.2652571400524L600.8354166666667,311.68694083276205L602.5375,324.7420306518777L604.2395833333334,356.655066417763L605.9416666666667,279.2876318324254L607.6437500000001,331.6010653688831L609.3458333333333,307.8284644535484L611.0479166666667,288.53913037528076L612.75,307.68873419866173L614.4520833333333,286.2325967245011L616.1541666666667,327.7811225501225L617.8562499999999,309.32354709309425L619.5583333333333,311.83325437409803L621.2604166666666,341.7283543567432L622.9625,98.41979753764139L624.6645833333333,260.336776207822L626.3666666666667,266.9687424030466L628.06875,248.40358202547452L629.7708333333334,323.83436003267866L631.4729166666667,239.8831757297222L633.1750000000001,319.55627838558416L634.8770833333333,346.9747002887307L636.5791666666667,356.4451235842037L638.28125,309.07455866569137L639.9833333333333,283.7960919314323L641.6854166666667,359.1438458578389L643.3874999999999,345.00241472050806L645.0895833333333,292.2340852338562L646.7916666666666,195.44549235473903L648.49375,272.97326044329543L650.1958333333333,247.37184693488393L651.8979166666667,218.78115811017858L653.6,241.01409900281578L655.3020833333334,325.47347035021005L657.0041666666667,322.18622817445754L658.7062500000001,278.1567146549674L660.4083333333333,313.05997056066474L662.1104166666667,97.92746524140239L663.8125,323.54520136666383L665.5145833333333,355.54597009184846L667.2166666666667,276.9901684874203L668.9187499999999,274.1877670717529L670.6208333333333,262.4689563935002L672.3229166666666,240.25976409716532L674.025,348.5243571538142L675.7270833333333,271.31388213739007L677.4291666666667,142.3172247292888L679.13125,282.6592497961699L680.8333333333334,300.510099211449L682.5354166666667,319.54922573519355L684.2375000000001,336.13271326571703L685.9395833333333,347.4024279910502L687.6416666666667,325.6362542989405L689.34375,287.35093860571374L691.0458333333333,348.1087689097945L692.7479166666667,295.3603904384654L694.4499999999999,153.91914549925258L696.1520833333333,212.81823668727236L697.8541666666666,315.9896976127703L699.55625,317.1673744109252L701.2583333333333,327.10744814256515L702.9604166666667,335.51932469425566L704.6625,333.43917075843393L706.3645833333334,292.4265366410578L708.0666666666667,293.1040726337685L709.7687500000001,230.57663969302342L711.4708333333333,290.40191394556314L713.1729166666667,360.3629882171711L714.875,289.18095203900396L716.5770833333333,324.36568610985864L718.2791666666667,298.65135704757023L719.9812499999999,230.57994352751928L721.6833333333333,272.18172996920634L723.3854166666666,245.66951878053237L725.0875,357.66091182004635L726.7895833333333,322.8399850926879L728.4916666666667,258.98603212367743L730.19375,292.06501058918525L731.8958333333334,351.65614233482887L733.5979166666667,298.99331610916283L735.3000000000001,295.58635565020245L737.0020833333333,262.937430371996L738.7041666666667,335.7921074352279L740.40625,314.9898914614589L742.1083333333333,352.37139964454883L743.8104166666667,315.6070197053616L745.5124999999999,310.97403796229304L747.2145833333333,288.44332527053643L748.9166666666666,284.8125208810282" style="fill: none;" fill="none"></path></g></g></g></g></g></g><g transform="translate(70, 377)" clip-path="url(#clip_1)"><clipPath id="clip_1"><rect width="817" height="23"></rect></clipPath><g><g><line x1="0" y1="0" x2="0" y2="5" style="visibility: inherit;" fill="rgb(0, 0, 0)" stroke="rgb(204, 204, 204)" stroke-width="1px"></line><line x1="68.08333333333333" y1="0" x2="68.08333333333333" y2="5" style="visibility: inherit;" fill="rgb(0, 0, 0)" stroke="rgb(204, 204, 204)" stroke-width="1px"></line><line x1="136.16666666666666" y1="0" x2="136.16666666666666" y2="5" style="visibility: inherit;" fill="rgb(0, 0, 0)" stroke="rgb(204, 204, 204)" stroke-width="1px"></line><line x1="204.25" y1="0" x2="204.25" y2="5" style="visibility: inherit;" fill="rgb(0, 0, 0)" stroke="rgb(204, 204, 204)" stroke-width="1px"></line><line x1="272.3333333333333" y1="0" x2="272.3333333333333" y2="5" style="visibility: inherit;" fill="rgb(0, 0, 0)" stroke="rgb(204, 204, 204)" stroke-width="1px"></line><line x1="340.4166666666667" y1="0" x2="340.4166666666667" y2="5" style="visibility: inherit;" fill="rgb(0, 0, 0)" stroke="rgb(204, 204, 204)" stroke-width="1px"></line><line x1="408.5" y1="0" x2="408.5" y2="5" style="visibility: inherit;" fill="rgb(0, 0, 0)" stroke="rgb(204, 204, 204)" stroke-width="1px"></line><line x1="476.58333333333337" y1="0" x2="476.58333333333337" y2="5" style="visibility: inherit;" fill="rgb(0, 0, 0)" stroke="rgb(204, 204, 204)" stroke-width="1px"></line><line x1="544.6666666666666" y1="0" x2="544.6666666666666" y2="5" style="visibility: inherit;" fill="rgb(0, 0, 0)" stroke="rgb(204, 204, 204)" stroke-width="1px"></line><line x1="612.75" y1="0" x2="612.75" y2="5" style="visibility: inherit;" fill="rgb(0, 0, 0)" stroke="rgb(204, 204, 204)" stroke-width="1px"></line><line x1="680.8333333333334" y1="0" x2="680.8333333333334" y2="5" style="visibility: inherit;" fill="rgb(0, 0, 0)" stroke="rgb(204, 204, 204)" stroke-width="1px"></line><line x1="748.9166666666666" y1="0" x2="748.9166666666666" y2="5" style="visibility: inherit;" fill="rgb(0, 0, 0)" stroke="rgb(204, 204, 204)" stroke-width="1px"></line><line x1="817" y1="0" x2="817" y2="5" style="visibility: inherit;" fill="rgb(0, 0, 0)" stroke="rgb(204, 204, 204)" stroke-width="1px"></line></g><g transform="translate(0, 8)"><text x="0" y="0" dx="0em" dy="0.95em" style="text-anchor: middle; visibility: hidden; font-family: Roboto, sans-serif; font-size: 12px; font-weight: 200;" fill="rgb(33, 33, 33)" stroke="none" stroke-width="1px">-20k</text><text x="68.08333333333333" y="0" dx="0em" dy="0.95em" style="text-anchor: middle; visibility: inherit; font-family: Roboto, sans-serif; font-size: 12px; font-weight: 200;" fill="rgb(33, 33, 33)" stroke="none" stroke-width="1px">0</text><text x="136.16666666666666" y="0" dx="0em" dy="0.95em" style="text-anchor: middle; visibility: inherit; font-family: Roboto, sans-serif; font-size: 12px; font-weight: 200;" fill="rgb(33, 33, 33)" stroke="none" stroke-width="1px">20k</text><text x="204.25" y="0" dx="0em" dy="0.95em" style="text-anchor: middle; visibility: inherit; font-family: Roboto, sans-serif; font-size: 12px; font-weight: 200;" fill="rgb(33, 33, 33)" stroke="none" stroke-width="1px">40k</text><text x="272.3333333333333" y="0" dx="0em" dy="0.95em" style="text-anchor: middle; visibility: inherit; font-family: Roboto, sans-serif; font-size: 12px; font-weight: 200;" fill="rgb(33, 33, 33)" stroke="none" stroke-width="1px">60k</text><text x="340.4166666666667" y="0" dx="0em" dy="0.95em" style="text-anchor: middle; visibility: inherit; font-family: Roboto, sans-serif; font-size: 12px; font-weight: 200;" fill="rgb(33, 33, 33)" stroke="none" stroke-width="1px">80k</text><text x="408.5" y="0" dx="0em" dy="0.95em" style="text-anchor: middle; visibility: inherit; font-family: Roboto, sans-serif; font-size: 12px; font-weight: 200;" fill="rgb(33, 33, 33)" stroke="none" stroke-width="1px">100k</text><text x="476.58333333333337" y="0" dx="0em" dy="0.95em" style="text-anchor: middle; visibility: inherit; font-family: Roboto, sans-serif; font-size: 12px; font-weight: 200;" fill="rgb(33, 33, 33)" stroke="none" stroke-width="1px">120k</text><text x="544.6666666666666" y="0" dx="0em" dy="0.95em" style="text-anchor: middle; visibility: inherit; font-family: Roboto, sans-serif; font-size: 12px; font-weight: 200;" fill="rgb(33, 33, 33)" stroke="none" stroke-width="1px">140k</text><text x="612.75" y="0" dx="0em" dy="0.95em" style="text-anchor: middle; visibility: inherit; font-family: Roboto, sans-serif; font-size: 12px; font-weight: 200;" fill="rgb(33, 33, 33)" stroke="none" stroke-width="1px">160k</text><text x="680.8333333333334" y="0" dx="0em" dy="0.95em" style="text-anchor: middle; visibility: inherit; font-family: Roboto, sans-serif; font-size: 12px; font-weight: 200;" fill="rgb(33, 33, 33)" stroke="none" stroke-width="1px">180k</text><text x="748.9166666666666" y="0" dx="0em" dy="0.95em" style="text-anchor: middle; visibility: inherit; font-family: Roboto, sans-serif; font-size: 12px; font-weight: 200;" fill="rgb(33, 33, 33)" stroke="none" stroke-width="1px">200k</text><text x="817" y="0" dx="0em" dy="0.95em" style="text-anchor: middle; visibility: hidden; font-family: Roboto, sans-serif; font-size: 12px; font-weight: 200;" fill="rgb(33, 33, 33)" stroke="none" stroke-width="1px">220k</text></g><line x1="0" y1="0" x2="817" y2="0" fill="rgb(0, 0, 0)" stroke="rgb(204, 204, 204)" stroke-width="1px"></line></g></g></g></g></svg>