<svg viewBox="0 0 887 400" xmlns="http://www.w3.org/2000/svg"><g><g><g><g><g><line x1="60" y1="377" x2="55" y2="377" style="visibility: inherit;" fill="rgb(0, 0, 0)" stroke="rgb(204, 204, 204)" stroke-width="1px"></line><line x1="60" y1="329.875" x2="55" y2="329.875" style="visibility: inherit;" fill="rgb(0, 0, 0)" stroke="rgb(204, 204, 204)" stroke-width="1px"></line><line x1="60" y1="282.75" x2="55" y2="282.75" style="visibility: inherit;" fill="rgb(0, 0, 0)" stroke="rgb(204, 204, 204)" stroke-width="1px"></line><line x1="60" y1="235.625" x2="55" y2="235.625" style="visibility: inherit;" fill="rgb(0, 0, 0)" stroke="rgb(204, 204, 204)" stroke-width="1px"></line><line x1="60" y1="188.5" x2="55" y2="188.5" style="visibility: inherit;" fill="rgb(0, 0, 0)" stroke="rgb(204, 204, 204)" stroke-width="1px"></line><line x1="60" y1="141.375" x2="55" y2="141.375" style="visibility: inherit;" fill="rgb(0, 0, 0)" stroke="rgb(204, 204, 204)" stroke-width="1px"></line><line x1="60" y1="94.25" x2="55" y2="94.25" style="visibility: inherit;" fill="rgb(0, 0, 0)" stroke="rgb(204, 204, 204)" stroke-width="1px"></line><line x1="60" y1="47.125" x2="55" y2="47.125" style="visibility: inherit;" fill="rgb(0, 0, 0)" stroke="rgb(204, 204, 204)" stroke-width="1px"></line><line x1="60" y1="0" x2="55" y2="0" style="visibility: inherit;" fill="rgb(0, 0, 0)" stroke="rgb(204, 204, 204)" stroke-width="1px"></line></g><g transform="translate(50, 0)"><text x="0" y="377" dx="0em" dy="0.3em" style="text-anchor: end; visibility: hidden; font-family: Roboto, sans-serif; font-size: 12px; font-weight: 200;" fill="rgb(33, 33, 33)" stroke="none" stroke-width="1px">0</text><text x="0" y="329.875" dx="0em" dy="0.3em" style="text-anchor: end; visibility: inherit; font-family: Roboto, sans-serif; font-size: 12px; font-weight: 200;" fill="rgb(33, 33, 33)" stroke="none" stroke-width="1px">2e-3</text><text x="0" y="282.75" dx="0em" dy="0.3em" style="text-anchor: end; visibility: inherit; font-family: Roboto, sans-serif; font-size: 12px; font-weight: 200;" fill="rgb(33, 33, 33)" stroke="none" stroke-width="1px">4e-3</text><text x="0" y="235.625" dx="0em" dy="0.3em" style="text-anchor: end; visibility: inherit; font-family: Roboto, sans-serif; font-size: 12px; font-weight: 200;" fill="rgb(33, 33, 33)" stroke="none" stroke-width="1px">6e-3</text><text x="0" y="188.5" dx="0em" dy="0.3em" style="text-anchor: end; visibility: inherit; font-family: Roboto, sans-serif; font-size: 12px; font-weight: 200;" fill="rgb(33, 33, 33)" stroke="none" stroke-width="1px">8e-3</text><text x="0" y="141.375" dx="0em" dy="0.3em" style="text-anchor: end; visibility: inherit; font-family: Roboto, sans-serif; font-size: 12px; font-weight: 200;" fill="rgb(33, 33, 33)" stroke="none" stroke-width="1px">0.01</text><text x="0" y="94.25" dx="0em" dy="0.3em" style="text-anchor: end; visibility: inherit; font-family: Roboto, sans-serif; font-size: 12px; font-weight: 200;" fill="rgb(33, 33, 33)" stroke="none" stroke-width="1px">0.012</text><text x="0" y="47.125" dx="0em" dy="0.3em" style="text-anchor: end; visibility: inherit; font-family: Roboto, sans-serif; font-size: 12px; font-weight: 200;" fill="rgb(33, 33, 33)" stroke="none" stroke-width="1px">0.014</text><text x="0" y="0" dx="0em" dy="0.3em" style="text-anchor: end; visibility: hidden; font-family: Roboto, sans-serif; font-size: 12px; font-weight: 200;" fill="rgb(33, 33, 33)" stroke="none" stroke-width="1px">0.016</text></g><line x1="60" y1="0" x2="60" y2="377" fill="rgb(0, 0, 0)" stroke="rgb(204, 204, 204)" stroke-width="1px"></line></g></g><g transform="translate(60, 0)" clip-path="url(#clip_0)"><clipPath id="clip_0"><rect width="827" height="377"></rect></clipPath><g><g><g><line x1="0" y1="0" x2="0" y2="377" fill="rgb(0, 0, 0)" stroke="rgb(66, 66, 66)" stroke-width="1px" opacity="0.25"></line><line x1="68.91666666666666" y1="0" x2="68.91666666666666" y2="377" fill="rgb(0, 0, 0)" stroke="rgb(66, 66, 66)" stroke-width="1px" opacity="0.25"></line><line x1="137.83333333333331" y1="0" x2="137.83333333333331" y2="377" fill="rgb(0, 0, 0)" stroke="rgb(66, 66, 66)" stroke-width="1px" opacity="0.25"></line><line x1="206.75" y1="0" x2="206.75" y2="377" fill="rgb(0, 0, 0)" stroke="rgb(66, 66, 66)" stroke-width="1px" opacity="0.25"></line><line x1="275.66666666666663" y1="0" x2="275.66666666666663" y2="377" fill="rgb(0, 0, 0)" stroke="rgb(66, 66, 66)" stroke-width="1px" opacity="0.25"></line><line x1="344.58333333333337" y1="0" x2="344.58333333333337" y2="377" fill="rgb(0, 0, 0)" stroke="rgb(66, 66, 66)" stroke-width="1px" opacity="0.25"></line><line x1="413.5" y1="0" x2="413.5" y2="377" fill="rgb(0, 0, 0)" stroke="rgb(66, 66, 66)" stroke-width="1px" opacity="0.25"></line><line x1="482.4166666666667" y1="0" x2="482.4166666666667" y2="377" fill="rgb(0, 0, 0)" stroke="rgb(66, 66, 66)" stroke-width="1px" opacity="0.25"></line><line x1="551.3333333333333" y1="0" x2="551.3333333333333" y2="377" fill="rgb(0, 0, 0)" stroke="rgb(66, 66, 66)" stroke-width="1px" opacity="0.25"></line><line x1="620.25" y1="0" x2="620.25" y2="377" fill="rgb(0, 0, 0)" stroke="rgb(66, 66, 66)" stroke-width="1px" opacity="0.25"></line><line x1="689.1666666666667" y1="0" x2="689.1666666666667" y2="377" fill="rgb(0, 0, 0)" stroke="rgb(66, 66, 66)" stroke-width="1px" opacity="0.25"></line><line x1="758.0833333333333" y1="0" x2="758.0833333333333" y2="377" fill="rgb(0, 0, 0)" stroke="rgb(66, 66, 66)" stroke-width="1px" opacity="0.25"></line><line x1="827" y1="0" x2="827" y2="377" fill="rgb(0, 0, 0)" stroke="rgb(66, 66, 66)" stroke-width="1px" opacity="0.25"></line></g><g><line x1="0" y1="377" x2="827" y2="377" fill="rgb(0, 0, 0)" stroke="rgb(66, 66, 66)" stroke-width="1px" opacity="0.25"></line><line x1="0" y1="329.875" x2="827" y2="329.875" fill="rgb(0, 0, 0)" stroke="rgb(66, 66, 66)" stroke-width="1px" opacity="0.25"></line><line x1="0" y1="282.75" x2="827" y2="282.75" fill="rgb(0, 0, 0)" stroke="rgb(66, 66, 66)" stroke-width="1px" opacity="0.25"></line><line x1="0" y1="235.625" x2="827" y2="235.625" fill="rgb(0, 0, 0)" stroke="rgb(66, 66, 66)" stroke-width="1px" opacity="0.25"></line><line x1="0" y1="188.5" x2="827" y2="188.5" fill="rgb(0, 0, 0)" stroke="rgb(66, 66, 66)" stroke-width="1px" opacity="0.25"></line><line x1="0" y1="141.375" x2="827" y2="141.375" fill="rgb(0, 0, 0)" stroke="rgb(66, 66, 66)" stroke-width="1px" opacity="0.25"></line><line x1="0" y1="94.25" x2="827" y2="94.25" fill="rgb(0, 0, 0)" stroke="rgb(66, 66, 66)" stroke-width="1px" opacity="0.25"></line><line x1="0" y1="47.125" x2="827" y2="47.125" fill="rgb(0, 0, 0)" stroke="rgb(66, 66, 66)" stroke-width="1px" opacity="0.25"></line><line x1="0" y1="0" x2="827" y2="0" fill="rgb(0, 0, 0)" stroke="rgb(66, 66, 66)" stroke-width="1px" opacity="0.25"></line></g></g></g><g><g><line x1="0" y1="377" x2="827" y2="377" fill="rgb(0, 0, 0)" stroke="rgb(153, 153, 153)" stroke-width="1.5px"></line></g></g><g><g><line x1="68.91666666666666" y1="0" x2="68.91666666666666" y2="377" fill="rgb(0, 0, 0)" stroke="rgb(153, 153, 153)" stroke-width="1.5px"></line></g></g><g><g><g><g><g><path stroke="rgb(255, 112, 67)" stroke-width="2px" d="M91.31458333333333,-40.007747999969965L93.03750000000001,25.06991685860759L94.76041666666666,41.739774380586404L96.48333333333333,148.15211741202594L98.20625,196.600229028502L99.92916666666667,166.71534873623224L101.65208333333332,-244.17114873985156L108.54375,-9.295135811289843L110.26666666666667,75.59486395018976L111.98958333333333,126.54912195786756L113.7125,187.52826359829888L115.43541666666667,164.55823760275675L117.15833333333333,210.2543895310032L118.88125,138.71869136089006L120.60416666666667,197.04460323756103L122.32708333333333,164.75880771316133L124.05,243.69842140361692L125.77291666666666,217.43168332933917L127.49583333333334,174.93103316684042L129.21875,244.17668206934658L130.94166666666666,260.9722655192967L132.66458333333335,225.93386834930882L134.38750000000002,205.31470158857505L136.11041666666665,203.25307142956208L137.83333333333331,208.84611697797186L139.55625,197.12252290983602L141.27916666666667,222.28441163656714L143.00208333333333,112.3323698501993L144.725,77.33076757156365L146.44791666666669,157.18477590122635L148.17083333333335,182.76827080310912L149.89374999999998,209.7590006764275L151.61666666666665,228.07628514850484L153.33958333333334,238.57126352627844L155.0625,230.55122640288693L156.78541666666666,228.88854303365434L158.50833333333335,262.8389981790062L160.23125000000002,233.19177814107564L161.95416666666665,260.1709438543947L163.67708333333331,224.0695934442775L165.4,198.3871851720586L167.12291666666667,189.20029767148364L168.84583333333333,213.72964550328925L170.56875,-51.83650431918793L172.29166666666669,77.05378416294495L174.01458333333335,167.9386451653069L175.73749999999998,183.82622988860257L177.46041666666665,248.9713014738907L179.18333333333334,207.53446147324274L180.90625,232.97558717409382L182.62916666666666,286.5349238725096L184.35208333333335,263.75153900668187L186.07500000000002,232.09308602819686L187.79791666666665,154.32736589761728L189.52083333333331,231.54328799437621L191.24375,267.78665281908894L192.96666666666667,275.2257836306877L194.68958333333333,206.89222197110433L196.4125,201.54180558966456L198.13541666666669,216.59825772685923L199.85833333333335,178.6414905500747L201.58124999999998,160.23625713064297L203.30416666666665,201.9215724530013L205.02708333333334,255.76375225205464L206.75,242.92494025819298L208.47291666666666,273.36415703450695L210.19583333333333,236.7111799199808L211.91875,191.19990059387257L213.64166666666668,220.79319316341548L215.36458333333334,241.0158778602649L217.0875,290.97307658541615L218.81041666666667,280.44024091384364L220.53333333333333,279.45365547463103L222.25625,291.63957135018774L223.97916666666666,283.6425550370265L225.70208333333332,260.6669082584664L227.425,297.0188938654091L229.14791666666667,272.191548360143L230.87083333333334,258.8972891470068L232.59375,232.60979635698484L234.31666666666666,244.87612772180742L236.03958333333333,279.8564910582661L237.7625,281.33556538679204L239.48541666666668,281.3411041534424L241.20833333333334,281.73643578834344L242.93125,287.4068671589073L244.65416666666667,282.99930962798976L246.37708333333333,177.44039542099378L248.1,248.03171015642255L249.82291666666666,272.5155238661616L251.54583333333332,300.51092915674275L253.26875,323.45800532565215L254.99166666666667,339.4086384639125L256.71458333333334,342.8801701628219L258.4375,292.91762344412064L260.16041666666666,242.37822718115632L261.8833333333333,155.57230022738565L263.60625,203.48459486171345L265.3291666666667,219.93151346438592L267.05208333333337,228.88851583711636L268.77500000000003,285.4839324938449L270.4979166666667,284.50878225116094L272.2208333333333,277.6857253636496L273.94374999999997,270.7384842188441L275.66666666666663,276.4243099093271L277.3895833333333,288.9749276544333L279.1125,268.3174936847422L280.8354166666667,306.6977914447064L282.55833333333334,311.1644263246715L284.28125,303.7250094308144L286.00416666666666,303.9506781209222L287.7270833333333,296.66397685944804L289.45,304.08761445884085L291.1729166666667,307.4423399040072L292.89583333333337,302.2884449602235L294.61875000000003,313.5084097330723L296.3416666666667,187.97458427294816L298.0645833333333,79.01397612777188L299.78749999999997,177.91648266120416L301.51041666666663,217.80906461792387L303.2333333333333,279.02283731207143L304.95625,286.1128296103061L306.6791666666667,277.8375668852057L308.40208333333334,289.4098991144222L310.125,208.78784892565142L311.84791666666666,227.17082434089784L313.5708333333333,283.6704499040812L315.29375,268.4949120494027L317.0166666666667,266.96574949276373L318.73958333333337,197.0140010982121L320.46250000000003,235.7677942210244L322.1854166666667,283.39802973977396L323.9083333333333,302.80210298991267L325.63124999999997,309.5236807625786L327.35416666666663,326.18146387731923L329.0770833333333,333.13949960819326L330.8,296.35363174150626L332.5229166666667,326.62868078357906L334.24583333333334,321.29520700021124L335.96875,307.0309596644422L337.69166666666666,312.9454329686157L339.4145833333333,276.6340137940037L341.1375,275.78740271522554L342.8604166666667,294.13830684456167L344.58333333333337,272.7286059585687L346.30625000000003,160.64033908821497L348.0291666666667,211.0927552900138L349.7520833333333,258.366777729868L351.47499999999997,279.2328586500163L353.19791666666663,306.86117374199586L354.9208333333333,308.25507659284114L356.64375,284.778500979798L358.3666666666667,215.28041035031944L360.08958333333334,203.39783085306385L361.8125,250.25617828163075L363.53541666666666,298.3524705496919L365.2583333333333,287.83044397175263L366.98125,308.36374398563123L368.7041666666667,289.620722783972L370.42708333333337,283.9661215775239L372.15000000000003,178.9849252778233L373.8729166666667,210.6006319783518L375.5958333333333,272.01880558834455L377.31874999999997,283.9021246417316L379.04166666666663,263.62601527885806L380.7645833333333,299.5089409052849L382.4875,327.66690296263016L384.2104166666667,305.75043144879425L385.93333333333334,306.7131397018853L387.65625,332.3292506641932L389.37916666666666,342.1540125639149L391.1020833333333,336.4017955740245L392.825,292.0971549629391L394.5479166666667,301.91236729828654L396.27083333333337,325.29408447019483L397.99375000000003,306.2891083224325L399.7166666666667,323.71168751416485L401.4395833333333,322.0113690850757L403.16249999999997,311.1305735849662L404.88541666666663,309.0781056582208L406.6083333333333,318.1861491702298L408.33125,324.1443684580942L410.0541666666667,326.7888567265713L411.77708333333334,326.05127871258L413.5,325.2998462984122L415.22291666666666,323.95223131964553L416.9458333333333,337.66417312342963L418.66875,316.6407459286059L420.39166666666665,329.22421081595695L422.1145833333333,339.5061813621704L423.8375,306.6545264169155L425.56041666666664,310.47156941853746L427.28333333333336,300.5403123402612L429.00625,274.2459047505232L430.7291666666667,182.4738422446086L432.45208333333335,237.78920457731797L434.175,258.81028127336424L435.8979166666667,255.55266448049719L437.62083333333334,301.4857920482319L439.34375,290.7252460881806L441.06666666666666,289.42330263763955L442.7895833333333,287.0011339206676L444.5125,295.61196382257856L446.23541666666665,308.94977076477045L447.9583333333333,285.18401178569343L449.68125,314.8279802323736L451.40416666666664,311.6861924273119L453.12708333333336,310.20253782995053L454.85,309.20429139661235L456.5729166666667,313.8145861880813L458.29583333333335,296.8126592338433L460.01875,326.0150978202151L461.7416666666667,312.84117294611383L463.46458333333334,293.06196272939053L465.1875,306.23971601281823L466.91041666666666,234.44765390447088L468.6333333333333,240.70776278920883L470.35625,257.50199182205523L472.07916666666665,256.4102339453883L473.8020833333333,248.10264416269288L475.525,276.53190080303114L477.24791666666664,262.5083835531587L478.97083333333336,267.4690886188262L480.69375,261.0207339450881L482.4166666666667,280.61264708755596L484.13958333333335,265.76281869500536L485.8625,227.11097647191383L487.5854166666667,284.83567098453864L489.30833333333334,277.68617260839926L491.03125,293.4040685951457L492.75416666666666,301.85674268042084L494.4770833333333,210.45712425152234L496.2,259.8553618728412L497.92291666666665,263.252383248708L499.6458333333333,301.605255501672L501.36875,283.7253158552673L503.09166666666664,251.53888849871836L504.81458333333336,284.3701894048861L506.5375,319.01032473210057L508.2604166666667,321.7407498097111L509.98333333333335,323.9546496178341L511.70625,293.2582612112727L513.4291666666667,298.75231362468213L515.1520833333334,301.8248804170189L516.875,291.7278618069655L518.5979166666666,323.6902065011363L520.3208333333333,308.8245957418159L522.0437499999999,297.9559752237313L523.7666666666667,299.83869942418005L525.4895833333333,296.46621525707104L527.2125,307.37821991220346L528.9354166666666,302.3715750435753L530.6583333333334,329.7690886405994L532.38125,331.2398136861529L534.1041666666667,313.79674373564677L535.8270833333333,295.3639489478286L537.5500000000001,286.9017867431516L539.2729166666667,305.37064478785766L540.9958333333334,283.19874398879915L542.71875,287.34592309498726L544.4416666666666,295.4576014275525L546.1645833333333,303.3739077109761L547.8874999999999,289.5860609444368L549.6104166666667,219.36725632219836L551.3333333333333,222.26403337369086L553.05625,242.722622616457L554.7791666666666,294.193271453395L556.5020833333334,318.63437675501905L558.225,296.6976613768585L559.9479166666667,302.3457558848368L561.6708333333333,307.7265570703112L563.3937500000001,311.5967216839545L565.1166666666667,325.9508045281608L566.8395833333334,284.36700622988945L568.5625,199.76473046189224L570.2854166666666,230.48402550016743L572.0083333333333,287.1872345049754L573.7312499999999,306.0645967642384L575.4541666666667,303.7535156999479L577.1770833333333,314.6592475468245L578.9,296.81299943368595L580.6229166666666,284.2869336819296L582.3458333333334,318.3967684649001L584.06875,199.17840172119858L585.7916666666667,246.97177246889535L587.5145833333333,274.75469091679787L589.2375000000001,311.2234126503908L590.9604166666667,285.1486428842332L592.6833333333334,284.40412385359843L594.40625,276.8612440829266L596.1291666666666,200.66681845496078L597.8520833333333,214.14937459180496L599.5749999999999,273.7514158283461L601.2979166666667,306.8437224802133L603.0208333333333,322.1598585969884L604.74375,309.52452369770725L606.4666666666666,274.6762500008982L608.1895833333334,200.9075289549927L609.9125,241.8008739398606L611.6354166666667,287.84134960240965L613.3583333333333,298.108099156318L615.0812500000001,291.54460702935853L616.8041666666667,281.79750317860396L618.5270833333334,311.88597850786425L620.25,281.93242335695345L621.9729166666666,240.0311763484229L623.6958333333333,284.26234564078766L625.4187499999999,302.1792516039355L627.1416666666667,241.9840447925951L628.8645833333333,242.7462719519616L630.5875,223.6930030846405L632.3104166666666,283.1986263441992L634.0333333333334,290.45263266052956L635.75625,283.7429054256635L637.4791666666667,298.10111813176127L639.2020833333333,273.1675280381386L640.9250000000001,269.31625292370586L642.6479166666667,277.9181343887347L644.3708333333334,287.58169136959344L646.09375,227.49787388678212L647.8166666666666,284.6045716821407L649.5395833333333,229.0411035849082L651.2624999999999,261.92778806759924L652.9854166666667,279.8934064479951L654.7083333333333,313.79595504355495L656.43125,258.1399634374056L658.1541666666666,290.22272167247155L659.8770833333334,244.93149086377244L661.6,283.5498198078841L663.3229166666667,288.88308763940194L665.0458333333333,271.75624951581466L666.7687500000001,210.67623606166427L668.4916666666667,243.5241515618596L670.2145833333334,274.2482576364187L671.9375,279.83637040756656L673.6604166666666,269.52661673210196L675.3833333333333,303.73409852533194L677.1062499999999,318.4845680969547L678.8291666666667,318.17746656971593L680.5520833333333,293.60357768168626L682.275,319.09566955510826L683.9979166666666,236.15683868002324L685.7208333333334,260.26361649303436L687.44375,250.613282665741L689.1666666666667,242.42704698870344L690.8895833333333,263.6118458703165L692.6125000000001,295.90180093015573L694.3354166666667,274.7703287937475L696.0583333333334,265.6689745339071L697.78125,277.3646782671084L699.5041666666666,287.6151480934293L701.2270833333333,276.23063806073867L702.9499999999999,264.7172535563007L704.6729166666667,287.2168665608742L706.3958333333333,321.5842823986006L708.11875,286.2243158446091L709.8416666666666,319.33586635300134L711.5645833333334,316.4214949164028L713.2875,319.56262562010164L715.0104166666667,285.98885642693773L716.7333333333333,304.61041212519217L718.4562500000001,328.5850024860281L720.1791666666667,317.9946781641202L721.9020833333334,310.4562907821883L723.625,329.0603057955692L725.3479166666666,299.6867105641955L727.0708333333333,304.65002209255994L728.7937499999999,312.06157593516014L730.5166666666667,310.4403902892117L732.2395833333333,294.16451574689336L733.9625,303.2851363538649L735.6854166666666,278.70902815797604L737.4083333333334,289.9983432166907L739.13125,319.05521139100244L740.8541666666667,311.3766817230343L742.5770833333333,182.28456999158018L744.3000000000001,257.00414911930704L746.0229166666667,299.3508444846465L747.7458333333334,282.92591547167933L749.46875,270.4526533772782L751.1916666666666,243.7789032840869L752.9145833333333,252.29469610441947L754.6374999999999,257.3614945449969L756.3604166666667,287.3927803312117L758.0833333333333,272.8456093380786" style="fill: none;" fill="none"></path></g></g></g></g><g opacity="0.2"><g><g><g><path stroke="rgb(255, 112, 67)" stroke-width="2px" d="M82.7,-129.1930645024404L84.42291666666667,212.20943386247382L86.14583333333334,-1640.7655345760286L87.86874999999999,206.58382906508632L89.59166666666667,95.43292634002864L91.31458333333333,148.94102277280763L93.03750000000001,122.60991779435426L94.76041666666666,66.73280378850177L96.48333333333333,307.725601821905L98.20625,269.26009548292495L99.92916666666667,121.89258095854893L101.65208333333332,-860.4633383005857L103.375,360.70336789957946L105.09791666666666,-922.5641815941781L106.82083333333334,311.8267917812336L108.54375,122.98593317205086L110.26666666666667,202.92926023062319L111.98958333333333,202.98029167274944L113.7125,278.99682003003545L115.43541666666667,130.10323387384415L117.15833333333333,278.79857533075847L118.88125,31.415183642413467L120.60416666666667,284.5334517110605L122.32708333333333,116.33012085035443L124.05,362.10783251549583L125.77291666666666,178.0315780993551L127.49583333333334,111.18005974963307L129.21875,348.0451536375331L130.94166666666666,286.16564043436665L132.66458333333335,173.3762729195878L134.38750000000002,174.38595156231895L136.11041666666665,200.1606261979323L137.83333333333331,217.23568528937176L139.55625,179.5371318217367L141.27916666666667,260.0272447085008L143.00208333333333,-52.595692781731486L144.725,24.82836416270584L146.44791666666669,276.9657883832697L148.17083333333335,221.14351315353997L149.89374999999998,250.24509548489004L151.61666666666665,255.55221185600385L153.33958333333334,254.3137310927268L155.0625,218.5211707178969L156.78541666666666,226.39451797981746L158.50833333333335,313.7646808968857L160.23125000000002,188.72094808425754L161.95416666666665,300.63969242433086L163.67708333333331,169.9175678291358L165.4,159.86357276374474L167.12291666666667,175.4199664206244L168.84583333333333,250.52366725099273L170.56875,-450.18572905287147L172.29166666666669,270.3892168861348L174.01458333333335,304.2659366688458L175.73749999999998,207.65760697354563L177.46041666666665,346.6889088518219L179.18333333333334,145.37920147227123L180.90625,271.1372757253703L182.62916666666666,366.87392892013304L184.35208333333335,229.57646170794033L186.07500000000002,184.60540656046942L187.79791666666665,37.678785701747984L189.52083333333331,347.36717113951454L191.24375,322.151700056158L192.96666666666667,286.3844798480859L194.68958333333333,104.39187948172912L196.4125,193.516181017505L198.13541666666669,239.18293593265116L199.85833333333335,121.70633978489786L201.58124999999998,132.62840700149536L203.30416666666665,264.44954543653876L205.02708333333334,336.52702195063466L206.75,223.66672226740047L208.47291666666666,319.02298219897784L210.19583333333333,181.73171424819157L211.91875,122.93298160471022L213.64166666666668,265.1831320177298L215.36458333333334,271.349904905539L217.0875,365.90887467314315L218.81041666666667,264.6409874064848L220.53333333333333,277.9737773158122L222.25625,309.91844516352285L223.97916666666666,271.6470305672847L225.70208333333332,226.20343809062615L227.425,351.54687227582326L229.14791666666667,234.95053010224365L230.87083333333334,238.95590032730252L232.59375,193.17855717195198L234.31666666666666,263.2756247690413L236.03958333333333,332.327036062954L237.7625,283.55417687958106L239.48541666666668,281.3494123034179L241.20833333333334,282.3294332406949L242.93125,295.9125142147532L244.65416666666667,276.38797333161347L246.37708333333333,19.10202411049977L248.1,353.9186822595657L249.82291666666666,309.24124443077017L251.54583333333332,342.50403709261445L253.26875,357.87861957901623L254.99166666666667,363.33458817130304L256.71458333333334,348.08746771118604L258.4375,217.97380336606875L260.16041666666666,166.56913278670982L261.8833333333333,25.363409796729684L263.60625,275.3530368132051L265.3291666666667,244.60189136839472L267.05208333333337,242.32401939621195L268.77500000000003,370.3770574789378L270.4979166666667,283.0460568871349L272.2208333333333,267.4511400323827L273.94374999999997,260.3176225016359L275.66666666666663,284.95304844505154L277.3895833333333,307.8008542720927L279.1125,237.3313427302055L280.8354166666667,364.2682380846527L282.55833333333334,317.86437864461914L284.28125,292.5658840900287L286.00416666666666,304.28918115608394L287.7270833333333,285.7339249672368L289.45,315.22307085793L291.1729166666667,312.47442807175685L292.89583333333337,294.557602544548L294.61875000000003,330.3383568923455L296.3416666666667,-0.32615391723811626L298.0645833333333,-84.42693608999252L299.78749999999997,326.2702424613526L301.51041666666663,277.64793755300343L303.2333333333333,370.8434963532927L304.95625,296.74781805765815L306.6791666666667,265.4246727975551L308.40208333333334,306.7683974582469L310.125,87.85477364249527L311.84791666666666,254.74528746376745L313.5708333333333,368.4198882488563L315.29375,245.73160526738502L317.0166666666667,264.67200565780513L318.73958333333337,92.08637850638479L320.46250000000003,293.89848390524276L322.1854166666667,354.8433830178983L323.9083333333333,331.90821286512073L325.63124999999997,319.6060474215774L327.35416666666663,351.1681385494303L329.0770833333333,343.5765532045043L330.8,241.17482994147576L332.5229166666667,372.0412543466882L334.24583333333334,313.29499632515945L335.96875,285.6345886607887L337.69166666666666,321.81714292487595L339.4145833333333,222.1668850320857L341.1375,274.5174860970583L342.8604166666667,321.6646630385658L344.58333333333337,240.6140546295792L346.30625000000003,-7.492061217315495L348.0291666666667,286.77137959271204L349.7520833333333,329.2778113896493L351.47499999999997,310.5319800302386L353.19791666666663,348.30364637996536L354.9208333333333,310.345930869109L356.64375,249.56363756023347L358.3666666666667,111.03327440610155L360.08958333333334,185.57396160718054L361.8125,320.543699424481L363.53541666666666,370.49690895178355L365.2583333333333,272.04740410484374L366.98125,339.1636940064491L368.7041666666667,261.5061909814831L370.42708333333337,275.48421976785176L372.15000000000003,21.51313082827255L373.8729166666667,258.0241920291446L375.5958333333333,364.14606600333354L377.31874999999997,301.7271032218123L379.04166666666663,233.2118512345478L380.7645833333333,353.333329344925L382.4875,369.9038460486481L384.2104166666667,272.8757241780404L385.93333333333334,308.157202081522L387.65625,370.75341710765497L389.37916666666666,356.8911554134975L391.1020833333333,327.7734700891888L392.825,225.64019404631108L394.5479166666667,316.63518580130767L396.27083333333337,360.3666602280573L397.99375000000003,277.781644100789L399.7166666666667,349.8455563017633L401.4395833333333,319.4608914414421L403.16249999999997,294.809380334802L404.88541666666663,305.99940376810264L406.6083333333333,331.8482144382433L408.33125,333.0816973898909L410.0541666666667,330.7555891292868L411.77708333333334,324.944911691593L413.5,324.1726976771606L415.22291666666666,321.9308088514954L416.9458333333333,358.2320858291059L418.66875,285.1056051363703L420.39166666666665,348.0994081469835L422.1145833333333,354.92913718149066L423.8375,257.37704399903305L425.56041666666664,316.1971339209704L427.28333333333336,285.6434267228469L429.00625,234.80429336591624L430.7291666666667,44.81574848573655L432.45208333333335,320.7622480763821L434.175,290.34189631743357L435.8979166666667,250.6662392911967L437.62083333333334,370.3854833998339L439.34375,274.5844271481037L441.06666666666666,287.47038746182807L442.7895833333333,283.3678808452096L444.5125,308.52820867544506L446.23541666666665,328.9564811780583L447.9583333333333,249.53537331707776L449.68125,359.29393290239386L451.40416666666664,306.97351071971934L453.12708333333336,307.97705593390856L454.85,307.7069217466051L456.5729166666667,320.73002837528475L458.29583333333335,271.30976880248636L460.01875,369.81875569977274L461.7416666666667,293.0802856349619L463.46458333333334,263.39314740430564L465.1875,326.00634593795985L466.91041666666666,126.75956074194983L468.6333333333333,250.09792611631565L470.35625,282.6933353713248L472.07916666666665,254.77259713038802L473.8020833333333,235.64125948864967L475.525,319.17578576353844L477.24791666666664,241.47310767835006L478.97083333333336,274.91014621732756L480.69375,251.34820193448104L482.4166666666667,310.0005168012576L484.13958333333335,243.4880761061795L485.8625,169.13321313727647L487.5854166666667,371.42271275347593L489.30833333333334,266.96192504419014L491.03125,316.9809125752654L492.75416666666666,314.53575380833354L494.4770833333333,73.35769660817459L496.2,333.9527183048194L497.92291666666665,268.3479153125081L499.6458333333333,359.1345638811181L501.36875,256.90540638566017L503.09166666666664,203.259247463895L504.81458333333336,333.61714076413773L506.5375,370.97052772292227L508.2604166666667,325.83638742612675L509.98333333333335,327.27549933001865L511.70625,247.21367860143073L513.4291666666667,306.99339224479627L515.1520833333334,306.43373060552403L516.875,276.58233389188536L518.5979166666666,371.63372354239254L520.3208333333333,286.5261796028353L522.0437499999999,281.6530444466043L523.7666666666667,302.66278572485317L525.4895833333333,291.40748900640756L527.2125,323.74622689490207L528.9354166666666,294.8616077406332L530.6583333333334,370.8653590361355L532.38125,333.44590125448303L534.1041666666667,287.6321388098877L535.8270833333333,267.71475676610135L537.5500000000001,274.2085434361361L539.2729166666667,333.07393185491674L540.9958333333334,249.94089279021136L542.71875,293.5666917542694L544.4416666666666,307.6251189264003L546.1645833333333,315.2483671361115L547.8874999999999,268.90429079462774L549.6104166666667,114.0390493888408L551.3333333333333,226.60919895092957L553.05625,273.4105064806063L554.7791666666666,371.39924470880214L556.5020833333334,355.29603470745496L558.225,263.7925883096177L559.9479166666667,310.81789764680434L561.6708333333333,315.7977588485228L563.3937500000001,317.4019686044194L565.1166666666667,347.48192879447015L566.8395833333334,221.99130878248252L568.5625,72.86131680989638L570.2854166666666,276.5629680575803L572.0083333333333,372.2420480121873L573.7312499999999,334.38064015313284L575.4541666666667,300.28689410351217L577.1770833333333,331.0178453171393L578.9,270.0436272639781L580.6229166666666,265.49783505429514L582.3458333333334,369.5615206393559L584.06875,20.350851605646312L585.7916666666667,318.66182859044056L587.5145833333333,316.4290685886517L589.2375000000001,365.92649525078014L590.9604166666667,246.0364882349968L592.6833333333334,283.2873453076463L594.40625,265.54692442691885L596.1291666666666,86.37518001301214L597.8520833333333,234.37320879707113L599.5749999999999,363.1544776831579L601.2979166666667,356.482182458014L603.0208333333333,345.1340627721511L604.74375,290.5715213487856L606.4666666666666,222.40383945568465L608.1895833333334,90.25444738613442L609.9125,303.1408914171625L611.6354166666667,356.9020630962332L613.3583333333333,313.50822348718066L615.0812500000001,281.6993688389193L616.8041666666667,267.17684740247205L618.5270833333334,357.0186915017548L620.25,237.0020906305872L621.9729166666666,177.17930583562702L623.6958333333333,350.6090995793347L625.4187499999999,329.05461054865737L627.1416666666667,151.69123457558453L628.8645833333333,243.88961269101128L630.5875,195.11309978365898L632.3104166666666,372.4570612335374L634.0333333333334,301.333642135025L635.75625,273.67831457336433L637.4791666666667,319.638437190908L639.2020833333333,235.76714289770462L640.9250000000001,263.5393402520567L642.6479166666667,290.82095658627804L644.3708333333334,302.07702684088144L646.09375,137.3721476625651L647.8166666666666,370.26461837517854L649.5395833333333,145.69590143905953L651.2624999999999,311.2578147916356L652.9854166666667,306.841834018589L654.7083333333333,364.6497779368947L656.43125,174.6559760281816L658.1541666666666,338.34685902507044L659.8770833333334,176.99464465072379L661.6,341.4773132240516L663.3229166666667,296.8829893866787L665.0458333333333,246.0659923304338L666.7687500000001,119.05621588043869L668.4916666666667,292.7960248121526L670.2145833333334,320.33441674825735L671.9375,288.2185395642882L673.6604166666666,254.06198621890508L675.3833333333333,355.04532121517695L677.1062499999999,340.6102724543889L678.8291666666667,317.7168142788578L680.5520833333333,256.7427443496417L682.275,357.3338073652412L683.9979166666666,111.74859236739576L685.7208333333334,296.4237832125509L687.44375,236.13778192480095L689.1666666666667,230.14769347314723L690.8895833333333,295.38904419273604L692.6125000000001,344.33673351991456L694.3354166666667,243.07312058913521L696.0583333333334,252.01694314414635L697.78125,294.90823386691045L699.5041666666666,302.9908528329106L701.2270833333333,259.1538730117027L702.9499999999999,247.44717679964378L704.6729166666667,320.9662860677345L706.3958333333333,373.13540615519014L708.11875,233.1843660136219L709.8416666666666,369.0031921155896L711.5645833333334,312.04993776150513L713.2875,324.27432167564984L715.0104166666667,235.62820263719186L716.7333333333333,332.5427456725738L718.4562500000001,364.54688802728197L720.1791666666667,302.1091916812584L721.9020833333334,299.1487097092904L723.625,356.96632831564057L725.3479166666666,255.62631771713495L727.0708333333333,312.0949893851066L728.7937499999999,323.17890669906046L730.5166666666667,308.00861182028893L732.2395833333333,269.75070393341593L733.9625,316.9660672643222L735.6854166666666,241.84486586414278L737.4083333333334,306.93231580476277L739.13125,362.64051365246996L740.8541666666667,299.8588872210821L742.5770833333333,-11.353597605600953L744.3000000000001,369.0835178108973L746.0229166666667,362.8708875326556L747.7458333333334,258.2885219522286L749.46875,251.74276023567654L751.1916666666666,203.76827814429998L752.9145833333333,265.0683853349183L754.6374999999999,264.9616922058631L756.3604166666667,332.439709010534L758.0833333333333,251.02485284837894" style="fill: none;" fill="none"></path></g></g></g></g></g><g><g opacity="0.0841142"><span fill="rgb(0, 0, 0)" stroke="none" stroke-width="1px">Alt + Scroll to Zoom</span></g></g></g><g transform="translate(60, 377)" clip-path="url(#clip_1)"><clipPath id="clip_1"><rect width="827" height="23"></rect></clipPath><g><g><line x1="0" y1="0" x2="0" y2="5" style="visibility: inherit;" fill="rgb(0, 0, 0)" stroke="rgb(204, 204, 204)" stroke-width="1px"></line><line x1="68.91666666666666" y1="0" x2="68.91666666666666" y2="5" style="visibility: inherit;" fill="rgb(0, 0, 0)" stroke="rgb(204, 204, 204)" stroke-width="1px"></line><line x1="137.83333333333331" y1="0" x2="137.83333333333331" y2="5" style="visibility: inherit;" fill="rgb(0, 0, 0)" stroke="rgb(204, 204, 204)" stroke-width="1px"></line><line x1="206.75" y1="0" x2="206.75" y2="5" style="visibility: inherit;" fill="rgb(0, 0, 0)" stroke="rgb(204, 204, 204)" stroke-width="1px"></line><line x1="275.66666666666663" y1="0" x2="275.66666666666663" y2="5" style="visibility: inherit;" fill="rgb(0, 0, 0)" stroke="rgb(204, 204, 204)" stroke-width="1px"></line><line x1="344.58333333333337" y1="0" x2="344.58333333333337" y2="5" style="visibility: inherit;" fill="rgb(0, 0, 0)" stroke="rgb(204, 204, 204)" stroke-width="1px"></line><line x1="413.5" y1="0" x2="413.5" y2="5" style="visibility: inherit;" fill="rgb(0, 0, 0)" stroke="rgb(204, 204, 204)" stroke-width="1px"></line><line x1="482.4166666666667" y1="0" x2="482.4166666666667" y2="5" style="visibility: inherit;" fill="rgb(0, 0, 0)" stroke="rgb(204, 204, 204)" stroke-width="1px"></line><line x1="551.3333333333333" y1="0" x2="551.3333333333333" y2="5" style="visibility: inherit;" fill="rgb(0, 0, 0)" stroke="rgb(204, 204, 204)" stroke-width="1px"></line><line x1="620.25" y1="0" x2="620.25" y2="5" style="visibility: inherit;" fill="rgb(0, 0, 0)" stroke="rgb(204, 204, 204)" stroke-width="1px"></line><line x1="689.1666666666667" y1="0" x2="689.1666666666667" y2="5" style="visibility: inherit;" fill="rgb(0, 0, 0)" stroke="rgb(204, 204, 204)" stroke-width="1px"></line><line x1="758.0833333333333" y1="0" x2="758.0833333333333" y2="5" style="visibility: inherit;" fill="rgb(0, 0, 0)" stroke="rgb(204, 204, 204)" stroke-width="1px"></line><line x1="827" y1="0" x2="827" y2="5" style="visibility: inherit;" fill="rgb(0, 0, 0)" stroke="rgb(204, 204, 204)" stroke-width="1px"></line></g><g transform="translate(0, 8)"><text x="0" y="0" dx="0em" dy="0.95em" style="text-anchor: middle; visibility: hidden; font-family: Roboto, sans-serif; font-size: 12px; font-weight: 200;" fill="rgb(33, 33, 33)" stroke="none" stroke-width="1px">-20k</text><text x="68.91666666666666" y="0" dx="0em" dy="0.95em" style="text-anchor: middle; visibility: inherit; font-family: Roboto, sans-serif; font-size: 12px; font-weight: 200;" fill="rgb(33, 33, 33)" stroke="none" stroke-width="1px">0</text><text x="137.83333333333331" y="0" dx="0em" dy="0.95em" style="text-anchor: middle; visibility: inherit; font-family: Roboto, sans-serif; font-size: 12px; font-weight: 200;" fill="rgb(33, 33, 33)" stroke="none" stroke-width="1px">20k</text><text x="206.75" y="0" dx="0em" dy="0.95em" style="text-anchor: middle; visibility: inherit; font-family: Roboto, sans-serif; font-size: 12px; font-weight: 200;" fill="rgb(33, 33, 33)" stroke="none" stroke-width="1px">40k</text><text x="275.66666666666663" y="0" dx="0em" dy="0.95em" style="text-anchor: middle; visibility: inherit; font-family: Roboto, sans-serif; font-size: 12px; font-weight: 200;" fill="rgb(33, 33, 33)" stroke="none" stroke-width="1px">60k</text><text x="344.58333333333337" y="0" dx="0em" dy="0.95em" style="text-anchor: middle; visibility: inherit; font-family: Roboto, sans-serif; font-size: 12px; font-weight: 200;" fill="rgb(33, 33, 33)" stroke="none" stroke-width="1px">80k</text><text x="413.5" y="0" dx="0em" dy="0.95em" style="text-anchor: middle; visibility: inherit; font-family: Roboto, sans-serif; font-size: 12px; font-weight: 200;" fill="rgb(33, 33, 33)" stroke="none" stroke-width="1px">100k</text><text x="482.4166666666667" y="0" dx="0em" dy="0.95em" style="text-anchor: middle; visibility: inherit; font-family: Roboto, sans-serif; font-size: 12px; font-weight: 200;" fill="rgb(33, 33, 33)" stroke="none" stroke-width="1px">120k</text><text x="551.3333333333333" y="0" dx="0em" dy="0.95em" style="text-anchor: middle; visibility: inherit; font-family: Roboto, sans-serif; font-size: 12px; font-weight: 200;" fill="rgb(33, 33, 33)" stroke="none" stroke-width="1px">140k</text><text x="620.25" y="0" dx="0em" dy="0.95em" style="text-anchor: middle; visibility: inherit; font-family: Roboto, sans-serif; font-size: 12px; font-weight: 200;" fill="rgb(33, 33, 33)" stroke="none" stroke-width="1px">160k</text><text x="689.1666666666667" y="0" dx="0em" dy="0.95em" style="text-anchor: middle; visibility: inherit; font-family: Roboto, sans-serif; font-size: 12px; font-weight: 200;" fill="rgb(33, 33, 33)" stroke="none" stroke-width="1px">180k</text><text x="758.0833333333333" y="0" dx="0em" dy="0.95em" style="text-anchor: middle; visibility: inherit; font-family: Roboto, sans-serif; font-size: 12px; font-weight: 200;" fill="rgb(33, 33, 33)" stroke="none" stroke-width="1px">200k</text><text x="827" y="0" dx="0em" dy="0.95em" style="text-anchor: middle; visibility: hidden; font-family: Roboto, sans-serif; font-size: 12px; font-weight: 200;" fill="rgb(33, 33, 33)" stroke="none" stroke-width="1px">220k</text></g><line x1="0" y1="0" x2="827" y2="0" fill="rgb(0, 0, 0)" stroke="rgb(204, 204, 204)" stroke-width="1px"></line></g></g></g></g></svg>