<svg viewBox="0 0 1112.5999755859375 400" xmlns="http://www.w3.org/2000/svg"><g><g><g><g><g><line x1="61.953125" y1="359.3434661694726" x2="56.953125" y2="359.3434661694726" style="visibility: inherit;" fill="rgb(0, 0, 0)" stroke="rgb(204, 204, 204)" stroke-width="1px"></line><line x1="61.953125" y1="315.2434661694724" x2="56.953125" y2="315.2434661694724" style="visibility: inherit;" fill="rgb(0, 0, 0)" stroke="rgb(204, 204, 204)" stroke-width="1px"></line><line x1="61.953125" y1="271.1434661694723" x2="56.953125" y2="271.1434661694723" style="visibility: inherit;" fill="rgb(0, 0, 0)" stroke="rgb(204, 204, 204)" stroke-width="1px"></line><line x1="61.953125" y1="227.0434661694721" x2="56.953125" y2="227.0434661694721" style="visibility: inherit;" fill="rgb(0, 0, 0)" stroke="rgb(204, 204, 204)" stroke-width="1px"></line><line x1="61.953125" y1="182.94346616947195" x2="56.953125" y2="182.94346616947195" style="visibility: inherit;" fill="rgb(0, 0, 0)" stroke="rgb(204, 204, 204)" stroke-width="1px"></line><line x1="61.953125" y1="138.8434661694718" x2="56.953125" y2="138.8434661694718" style="visibility: inherit;" fill="rgb(0, 0, 0)" stroke="rgb(204, 204, 204)" stroke-width="1px"></line><line x1="61.953125" y1="94.74346616947162" x2="56.953125" y2="94.74346616947162" style="visibility: inherit;" fill="rgb(0, 0, 0)" stroke="rgb(204, 204, 204)" stroke-width="1px"></line><line x1="61.953125" y1="50.64346616947144" x2="56.953125" y2="50.64346616947144" style="visibility: inherit;" fill="rgb(0, 0, 0)" stroke="rgb(204, 204, 204)" stroke-width="1px"></line><line x1="61.953125" y1="6.5434661694712615" x2="56.953125" y2="6.5434661694712615" style="visibility: inherit;" fill="rgb(0, 0, 0)" stroke="rgb(204, 204, 204)" stroke-width="1px"></line></g><g transform="translate(51.953125, 0)"><text x="0" y="359.3434661694726" dx="0em" dy="0.3em" style="text-anchor: end; visibility: inherit; font-family: Roboto, sans-serif; font-size: 12px; font-weight: 200;" fill="rgb(50, 49, 63)" stroke="none" stroke-width="1px">0</text><text x="0" y="315.2434661694724" dx="0em" dy="0.3em" style="text-anchor: end; visibility: inherit; font-family: Roboto, sans-serif; font-size: 12px; font-weight: 200;" fill="rgb(50, 49, 63)" stroke="none" stroke-width="1px">2e-3</text><text x="0" y="271.1434661694723" dx="0em" dy="0.3em" style="text-anchor: end; visibility: inherit; font-family: Roboto, sans-serif; font-size: 12px; font-weight: 200;" fill="rgb(50, 49, 63)" stroke="none" stroke-width="1px">4e-3</text><text x="0" y="227.0434661694721" dx="0em" dy="0.3em" style="text-anchor: end; visibility: inherit; font-family: Roboto, sans-serif; font-size: 12px; font-weight: 200;" fill="rgb(50, 49, 63)" stroke="none" stroke-width="1px">6e-3</text><text x="0" y="182.94346616947195" dx="0em" dy="0.3em" style="text-anchor: end; visibility: inherit; font-family: Roboto, sans-serif; font-size: 12px; font-weight: 200;" fill="rgb(50, 49, 63)" stroke="none" stroke-width="1px">8e-3</text><text x="0" y="138.8434661694718" dx="0em" dy="0.3em" style="text-anchor: end; visibility: inherit; font-family: Roboto, sans-serif; font-size: 12px; font-weight: 200;" fill="rgb(50, 49, 63)" stroke="none" stroke-width="1px">0.01</text><text x="0" y="94.74346616947162" dx="0em" dy="0.3em" style="text-anchor: end; visibility: inherit; font-family: Roboto, sans-serif; font-size: 12px; font-weight: 200;" fill="rgb(50, 49, 63)" stroke="none" stroke-width="1px">0.012</text><text x="0" y="50.64346616947144" dx="0em" dy="0.3em" style="text-anchor: end; visibility: inherit; font-family: Roboto, sans-serif; font-size: 12px; font-weight: 200;" fill="rgb(50, 49, 63)" stroke="none" stroke-width="1px">0.014</text><text x="0" y="6.5434661694712615" dx="0em" dy="0.3em" style="text-anchor: end; visibility: inherit; font-family: Roboto, sans-serif; font-size: 12px; font-weight: 200;" fill="rgb(50, 49, 63)" stroke="none" stroke-width="1px">0.016</text></g><line x1="61.953125" y1="0" x2="61.953125" y2="378" fill="rgb(0, 0, 0)" stroke="rgb(204, 204, 204)" stroke-width="1px"></line></g></g><g transform="translate(61, 0)" clip-path="url(#clip_0)"><clipPath id="clip_0"><rect width="1050" height="378"></rect></clipPath><g><g><g><line x1="52.96233751596221" y1="0" x2="52.96233751596221" y2="378" fill="rgb(0, 0, 0)" stroke="rgb(60, 60, 60)" stroke-width="1px" opacity="0.25"></line><line x1="147.40611369214827" y1="0" x2="147.40611369214827" y2="378" fill="rgb(0, 0, 0)" stroke="rgb(60, 60, 60)" stroke-width="1px" opacity="0.25"></line><line x1="241.8498898683343" y1="0" x2="241.8498898683343" y2="378" fill="rgb(0, 0, 0)" stroke="rgb(60, 60, 60)" stroke-width="1px" opacity="0.25"></line><line x1="336.2936660445203" y1="0" x2="336.2936660445203" y2="378" fill="rgb(0, 0, 0)" stroke="rgb(60, 60, 60)" stroke-width="1px" opacity="0.25"></line><line x1="430.7374422207064" y1="0" x2="430.7374422207064" y2="378" fill="rgb(0, 0, 0)" stroke="rgb(60, 60, 60)" stroke-width="1px" opacity="0.25"></line><line x1="525.1812183968924" y1="0" x2="525.1812183968924" y2="378" fill="rgb(0, 0, 0)" stroke="rgb(60, 60, 60)" stroke-width="1px" opacity="0.25"></line><line x1="619.6249945730784" y1="0" x2="619.6249945730784" y2="378" fill="rgb(0, 0, 0)" stroke="rgb(60, 60, 60)" stroke-width="1px" opacity="0.25"></line><line x1="714.0687707492644" y1="0" x2="714.0687707492644" y2="378" fill="rgb(0, 0, 0)" stroke="rgb(60, 60, 60)" stroke-width="1px" opacity="0.25"></line><line x1="808.5125469254505" y1="0" x2="808.5125469254505" y2="378" fill="rgb(0, 0, 0)" stroke="rgb(60, 60, 60)" stroke-width="1px" opacity="0.25"></line><line x1="902.9563231016365" y1="0" x2="902.9563231016365" y2="378" fill="rgb(0, 0, 0)" stroke="rgb(60, 60, 60)" stroke-width="1px" opacity="0.25"></line><line x1="997.4000992778225" y1="0" x2="997.4000992778225" y2="378" fill="rgb(0, 0, 0)" stroke="rgb(60, 60, 60)" stroke-width="1px" opacity="0.25"></line></g><g><line x1="0" y1="359.3434661694726" x2="1050.646875" y2="359.3434661694726" fill="rgb(0, 0, 0)" stroke="rgb(60, 60, 60)" stroke-width="1px" opacity="0.25"></line><line x1="0" y1="315.2434661694724" x2="1050.646875" y2="315.2434661694724" fill="rgb(0, 0, 0)" stroke="rgb(60, 60, 60)" stroke-width="1px" opacity="0.25"></line><line x1="0" y1="271.1434661694723" x2="1050.646875" y2="271.1434661694723" fill="rgb(0, 0, 0)" stroke="rgb(60, 60, 60)" stroke-width="1px" opacity="0.25"></line><line x1="0" y1="227.0434661694721" x2="1050.646875" y2="227.0434661694721" fill="rgb(0, 0, 0)" stroke="rgb(60, 60, 60)" stroke-width="1px" opacity="0.25"></line><line x1="0" y1="182.94346616947195" x2="1050.646875" y2="182.94346616947195" fill="rgb(0, 0, 0)" stroke="rgb(60, 60, 60)" stroke-width="1px" opacity="0.25"></line><line x1="0" y1="138.8434661694718" x2="1050.646875" y2="138.8434661694718" fill="rgb(0, 0, 0)" stroke="rgb(60, 60, 60)" stroke-width="1px" opacity="0.25"></line><line x1="0" y1="94.74346616947162" x2="1050.646875" y2="94.74346616947162" fill="rgb(0, 0, 0)" stroke="rgb(60, 60, 60)" stroke-width="1px" opacity="0.25"></line><line x1="0" y1="50.64346616947144" x2="1050.646875" y2="50.64346616947144" fill="rgb(0, 0, 0)" stroke="rgb(60, 60, 60)" stroke-width="1px" opacity="0.25"></line><line x1="0" y1="6.5434661694712615" x2="1050.646875" y2="6.5434661694712615" fill="rgb(0, 0, 0)" stroke="rgb(60, 60, 60)" stroke-width="1px" opacity="0.25"></line></g></g></g><g><g><line x1="0" y1="359.3434661694726" x2="1050.646875" y2="359.3434661694726" fill="rgb(0, 0, 0)" stroke="rgb(153, 153, 153)" stroke-width="1.5px"></line></g></g><g><g><line x1="52.96233751596221" y1="0" x2="52.96233751596221" y2="378" fill="rgb(0, 0, 0)" stroke="rgb(153, 153, 153)" stroke-width="1.5px"></line></g></g><g><g><g><g><g><path stroke="rgb(255, 112, 67)" stroke-width="2px" d="M67.12890394239011,-100.02739414004257L69.48999834679476,15.495097395856703L71.85109275119942,56.67037930023895L74.21218715560407,143.8454190800757L76.57328156000872,-96.32677891770263L78.93437596441336,51.84827609753812L81.29547036881802,125.06857123932004L83.65656477322267,175.0790372529226L86.01765917762734,199.85312625267255L88.37875358203199,215.95037059702938L90.73984798643664,261.2815950219348L93.10094239084128,279.7008152618466L95.46203679524594,263.5451276753269L97.82313119965059,71.24399289494502L100.18422560405524,182.84964672452756L102.5453200084599,74.778930972414L104.90641441286454,177.02858498231535L107.26750881726919,209.01377725466253L109.62860322167384,239.68193294133988L111.9896976260785,258.18607127200863L114.35079203048315,277.7841834164642L116.7118864348878,272.7128033218194L119.07298083929244,292.57593935259393L121.4340752436971,254.03541970224165L123.79516964810175,279.20622098483346L126.1562640525064,267.03217154184233L128.51735845691104,301.50318990582156L130.87845286131568,292.7283628897231L133.23954726572035,282.0330201917747L135.60064167012501,308.0710818675868L137.96173607452965,315.84566168884976L140.3228304789343,303.39919169792523L142.68392488333896,295.797218015459L145.0450192877436,291.5139634771231L147.40611369214827,294.90827160428944L149.7672080965529,289.9881337484536L152.12830250095755,300.0428161795123L154.4893969053622,237.616348699588L156.85049130976685,218.77171349689604L159.21158571417152,262.174920804967L161.57268011857616,277.1507402247068L163.9337745229808,293.8297649425593L166.29486892738547,304.01855588053627L168.6559633317901,308.1278126133234L171.01705773619477,304.53878175209644L173.3781521405994,301.11748114809984L175.73924654500408,313.3649662515963L178.10034094940872,309.628125836444L180.46143535381336,314.7127281630552L182.82252975821802,297.8592316780228L185.18362416262266,293.3368077112686L187.54471856702733,288.9355128331639L189.90581297143197,298.2477833317887L192.2669073758366,166.05265439496193L194.62800178024128,233.1554183424186L196.98909618464592,271.14889940973404L199.35019058905058,281.556601002437L201.71128499345522,307.3109758956591L204.07237939785986,297.941236024696L206.43347380226453,306.1912754283283L208.79456820666917,326.04092185537706L211.15566261107384,319.1142340348075L213.51675701547848,308.6149296658624L215.87785141988311,272.54607815178986L218.23894582428778,302.658131054059L220.60004022869242,316.8923474555058L222.9611346330971,321.72603974261006L225.32222903750173,294.0479519570549L227.6833234419064,290.403942749478L230.04441784631103,296.0984161157965L232.40551225071567,274.29805375181917L234.76660665512034,263.9384707584917L237.12770105952498,288.71759311995726L239.48879546392965,309.4140671821538L241.8498898683343,306.4976128548116L244.21098427273893,320.1426972192148L246.5720786771436,303.8151309866274L248.93317308154823,281.92546390513394L251.2942674859529,299.7032236566241L253.65536189035754,315.62969575478957L256.0164562947622,330.7633309589274L258.3775506991669,326.2900234252301L260.7386451035715,327.1567597298718L263.09973950797615,329.89295992645066L265.4608339123808,330.17130609846515L267.8219283167855,318.407804266078L270.18302272119007,330.34505980090506L272.54411712559477,316.891277249832L274.9052115299994,316.94391086396877L277.2663059344041,307.0197616768809L279.6274003388087,310.44181882134103L281.9884947432134,321.3823119296499L284.349589147618,321.16366606021694L286.71068355202266,322.7665756169997L289.0717779564273,325.86869495497587L291.432872360832,331.0110602911468L293.7939667652366,329.79173225595673L296.1550611696413,284.24774401122227L298.5161555740459,310.561056939921L300.8772499784506,320.50166232338165L303.2383443828552,330.7073617440654L305.5994387872599,339.1455664378564L307.9605331916645,345.4161965872184L310.32162759606916,346.8094280140131L312.6827220004738,327.01789505557576L315.04381640487844,310.6163936001112L317.4049108092831,273.7422127742392L319.7660052136878,291.032099600808L322.12709961809236,296.77396242382883L324.48819402249705,301.44900408584465L326.8492884269017,323.62163221095705L329.21038283130633,321.057047179478L331.571477235711,317.8836656183421L333.93257164011567,319.1549748321283L336.2936660445203,322.93289261811486L338.65476044892495,327.70818744324066L341.0158548533296,319.12495926296356L343.3769492577343,334.2800217583946L345.73804366213886,334.46570384938985L348.09913806654356,331.871638105185L350.4602324709482,330.33130785932224L352.8213268753529,327.15216559173655L355.1824212797575,330.6046340174316L357.5435156841622,332.30740238172405L359.9046100885668,329.3273527246427L362.26570449297145,336.50943493703966L364.6267988973761,284.27035460287726L366.9878933017808,234.1824298530524L369.34898770618537,276.8750609973612L371.71008211059006,297.84324567268357L374.0711765149947,321.6604499117806L376.4322709193994,326.24046872004703L378.793365323804,321.47133904096074L381.1544597282087,325.45124746417144L383.5155541326133,294.87317601970346L385.87664853701796,300.81520659733405L388.2377429414226,323.2873761275112L390.5988373458273,316.91467922135575L392.959931750232,323.2035206650614L395.32102615463657,293.1806209815586L397.68212055904127,305.7141672642264L400.0432149634459,323.70222129647215L402.40430936785054,333.1141967333873L404.7654037722552,335.1764256538804L407.1264981766599,340.92913041783544L409.48759258106446,343.81513207234906L411.84868698546916,333.0628233552125L414.2097813898738,342.82445265689853L416.5708757942785,341.40253999036605L418.9319701986831,334.50566264093834L421.29306460308777,337.99601283121166L423.6541590074924,321.46586000098307L426.01525341189705,322.31974302150974L428.3763478163017,331.08162950518823L430.7374422207064,323.28178450706645L433.09853662511097,273.6001267381682L435.45963102951566,297.66417929781585L437.8207254339203,314.81002029183935L440.181819838325,323.95908319055906L442.5429142427296,333.9849787238109L444.9040086471343,335.68784768834735L447.2651030515389,324.09381218797415L449.62619745594355,295.74925168455934L451.9872918603482,292.85363301929544L454.3483862647529,311.0563949905947L456.70948066915753,329.33069978332486L459.07057507356217,328.36391999492685L461.4316694779668,335.24349169000277L463.7927638823715,329.4777946371847L466.1538582867761,331.2022430441841L468.5149526911808,285.9736997060558L470.8760470955854,301.1655022049898L473.23714149999006,322.6748734716036L475.5982359043947,324.6497472125459L477.9593303087994,322.6833887820126L480.32042471320403,333.2821504149785L482.6815191176087,342.7511168398832L485.0426135220133,336.62860241917207L487.403707926418,338.6030484153389L489.7648023308226,346.16098982146076L492.1258967352273,348.29361418719975L494.4869911396319,344.0826726135485L496.8480855440366,332.53612583245757L499.2091799484412,336.2026668340048L501.5702743528459,342.7718116685719L503.93136875725054,330.57389328628295L506.2924631616552,337.2724247496236L508.6535575660598,336.81773911393697L511.0146519704645,335.7194146248229L513.3757463748691,336.07087003048366L515.7368407792737,338.36557706426436L518.0979351836785,341.66940729868986L520.4590295880831,344.18985069650523L522.8201239924878,342.029421260961L525.1812183968924,341.2203136722202L527.542312801297,341.48039327550106L529.9034072057017,345.91584803659094L532.2645016101064,339.17278255401766L534.625596014511,343.60313998112963L536.9866904189156,346.4040893583521L539.3477848233202,332.3410413806646L541.708879227725,334.35711043206715L544.0699736321296,332.0890568816429L546.4310680365343,320.2986010935508L548.7921624409389,283.17046729905445L551.1532568453435,305.95998662574044L553.5143512497482,312.7224614743512L555.8754456541528,315.58901655856556L558.2365400585575,331.97290487131613L560.5976344629622,325.6352865928597L562.9587288673669,324.66789797777744L565.3198232717714,322.30135808397034L567.680917676176,327.7313714283261L570.0420120805808,333.1194066585508L572.4031064849854,323.92778679926573L574.76420088939,335.6030574971277L577.1252952937947,336.0236131526365L579.4863896981994,338.54181204486275L581.847484102604,337.2522476241983L584.2085785070086,337.71810934430033L586.5696729114132,332.9690391249256L588.930767315818,342.62630982395535L591.2918617202226,339.0978547738627L593.6529561246273,329.8732163594489L596.0140505290319,335.86455970903995L598.3751449334366,306.721723245719L600.7362393378412,314.13069378341135L603.0973337422458,318.56742135095226L605.4584281466505,316.13404040590433L607.8195225510552,314.4011031484901L610.1806169554599,324.16801975600407L612.5417113598645,316.25835890610193L614.902805764269,317.5235624063456L617.2639001686738,317.3476516288864L619.6249945730784,326.3139493022458L621.9860889774831,316.52281143253555L624.3471833818877,302.7394342646225L626.7082777862925,324.6472139734715L629.069372190697,321.49904238614516L631.4304665951016,329.7405446234516L633.7915609995063,334.59422398485214L636.152655403911,296.9094880854081L638.5137498083157,317.9715843768848L640.8748442127203,317.02454178717016L643.235938617125,331.03962345568823L645.5970330215296,325.7474448520383L647.9581274259342,308.7339934307866L650.3192218303388,322.59187678245155L652.6803162347436,336.31550001608014L655.0414106391482,338.6172835647216L657.4025050435529,341.06839007213L659.7635994479575,327.30360623615985L662.1246938523622,328.1863484485L664.4857882567668,330.4789722104667L666.8468826611714,322.1160977723671L669.2079770655761,336.24147709913433L671.5690714699808,330.5929510158895L673.9301658743855,327.84623402228857L676.2912602787901,331.891547936751L678.6523546831946,330.6775671606799L681.0134490875994,337.07782547740385L683.374543492004,335.48240256286545L685.7356378964087,344.25383851325614L688.0967323008133,345.98830120319195L690.457826705218,337.16695138054223L692.8189211096227,330.8756451971217L695.1800155140272,327.2247839440566L697.5411099184319,333.9289029373089L699.9022043228366,326.56407363587215L702.2632987272412,327.58827771303027L704.6243931316459,330.1273316261184L706.9854875360505,333.421166564017L709.3465819404552,329.8101043779496L711.7076763448598,296.19845215413955L714.0687707492644,302.96380182923207L716.4298651536691,311.4413991218183L718.7909595580738,329.7742914218415L721.1520539624785,338.01482434854756L723.5131483668831,332.8274161614907L725.8742427712876,334.55291772893105L728.2353371756924,334.68800400801683L730.596431580097,336.29398378041486L732.9575259845017,342.0030840250497L735.3186203889063,330.43529455151963L737.6797147933111,294.2227914411128L740.0408091977157,309.5151249664164L742.4019036021202,328.6894392032779L744.7629980065249,336.062552922606L747.1240924109296,335.26125421733224L749.4851868153343,341.07056133549133L751.8462812197389,333.89622527180353L754.2073756241435,325.1607432756139L756.5684700285483,337.50007668859445L758.9295644329528,287.0794574908607L761.2906588373575,307.25420790902996L763.6517532417621,319.91442411049917L766.0128476461668,334.57292740946343L768.3739420505715,325.25543774991365L770.7350364549761,324.90425174843807L773.0961308593807,323.2275926196487L775.4572252637854,287.6609946441341L777.81831966819,294.27781072689663L780.1794140725947,318.66782235458174L782.5405084769993,333.0783363762187L784.9016028814041,338.4394500839605L787.2626972858087,332.6342410300317L789.6237916902132,323.1338121658021L791.9848860946179,288.7503288551286L794.3459804990226,308.4082443876844L796.7070749034273,325.42697419617207L799.0681693078319,331.11755801992115L801.4292637122365,330.7993020973711L803.7903581166413,324.4052107120786L806.1514525210458,334.99763055538915L808.5125469254505,327.6197743009307L810.8736413298551,313.20862644326536L813.2347357342599,327.9676082546381L815.5958301386645,335.5804105702026L817.9569245430691,309.97790070204763L820.3180189474738,313.3731988888431L822.6791133518784,304.517451108889L825.040207756283,325.64250561825844L827.4013021606877,329.8994478425981L829.7623965650923,326.22300684291787L832.1234909694971,332.4187290464846L834.4845853739017,328.12805015854275L836.8456797783064,322.2434048797888L839.2067741827109,322.96918109708804L841.5678685871156,325.5340738963344L843.9289629915203,302.20907699379796L846.2900573959249,324.3015949615317L848.6511518003296,300.4393852529853L851.0122462047343,314.80877545588106L853.3733406091388,324.9204346567292L855.7344350135435,336.67467763462827L858.0955294179481,321.6699729000472L860.4566238223529,330.4805114220856L862.8177182267575,305.8784131066859L865.1788126311621,321.7817506971823L867.5399070355668,323.04242020893855L869.9010014399714,321.9910962722532L872.2620958443761,295.50532029643074L874.6231902487807,310.1517508719051L876.9842846531853,323.28496624060205L879.3453790575901,321.74782424158803L881.7064734619947,315.25276288803025L884.0675678663994,329.4706580102924L886.4286622708039,336.6681410509978L888.7897566752087,339.09611519383196L891.1508510796133,328.62056298334176L893.5119454840179,338.02511230881873L895.8730398884227,305.11531012308046L898.2341342928273,315.71534527563114L900.595228697232,314.78847330766195L902.9563231016365,307.6121904841095L905.3174175060412,315.9139870199771L907.6785119104459,329.30235141807447L910.0396063148505,322.2621910165958L912.4007007192552,321.86234138762046L914.7617951236599,326.5644600163114L917.1228895280644,329.51118150382325L919.4839839324691,329.9579077555824L921.8450783368737,324.39911142730926L924.2061727412785,332.2044727813264L926.5672671456831,342.48643951085353L928.9283615500877,325.313823918166L931.2894559544924,337.8386180657666L933.650550358897,338.31926073824246L936.0116447633017,337.5752040879465L938.3727391677063,323.74320001588666L940.7338335721109,331.57473141537946L943.0949279765157,340.8409666044964L945.4560223809203,336.39643038708505L947.817116785325,333.87792274911635L950.1782111897295,341.2014235486249L952.5393055941342,332.69014859005335L954.9003999985389,336.5931422854919L957.2614944029435,337.0590678290707L959.6225888073482,337.79556834821807L961.9836832117529,330.87902627076585L964.3447776161576,334.7825980758819L966.7058720205621,327.5701559533276L969.0669664249667,327.15841750864956L971.4280608293715,337.88739317431464L973.7891552337761,337.35767545418156L976.1502496381808,275.3877489012296L978.5113440425854,307.91114804909944L980.8724384469901,326.49803117784546L983.2335328513947,325.25868351850835L985.5946272557993,320.99024238131733L987.955721660204,309.7536692836762L990.3168160646087,315.38515532279854L992.6779104690133,317.85441668351336L995.039004873418,329.37509766863076L997.4000992778225,318.26361944289215" style="fill: none;" fill="none"></path></g></g></g></g><g opacity="0.2"><g><g><g><path stroke="rgb(255, 112, 67)" stroke-width="2px" d="M60.04562072917617,-157.56898354060044L62.40671513358082,83.92199101605517L64.76780953798547,-219.13798087528957L67.12890394239011,106.76056408071032L69.48999834679476,183.92799907111666L71.85109275119942,117.39592222244558L74.21218715560407,273.2901934252972L76.57328156000872,-454.4067317552041L78.93437596441336,273.3044965144167L81.29547036881802,234.65993698434093L83.65656477322267,249.99676056419625L86.01765917762734,236.98513874066182L88.37875358203199,240.0848840896891L90.73984798643664,329.25924900434137L93.10094239084128,307.32496898369084L95.46203679524594,239.3140574519442L97.82313119965059,-217.19013219020374L100.18422560405524,350.25200674960325L102.5453200084599,-87.32358654282059L104.90641441286454,330.40104725611553L107.26750881726919,256.9911867680879L109.62860322167384,285.6839484952311L111.9896976260785,285.94219985631435L114.35079203048315,307.18130148695L116.7118864348878,265.10574096561544L119.07298083929244,322.370625102L121.4340752436971,196.22466152747273L123.79516964810175,316.9624145618096L126.1562640525064,248.771099799584L128.51735845691104,353.2097133366431L130.87845286131568,279.56612299409835L133.23954726572035,265.9900066045033L135.60064167012501,347.1281737098859L137.96173607452965,327.50753130045877L140.3228304789343,284.72948682707874L142.68392488333896,284.39425753410114L145.0450192877436,285.0890816839333L147.40611369214827,299.99973378823285L149.7672080965529,282.60792697061925L152.12830250095755,315.12483981884236L154.4893969053622,143.97664750673897L156.85049130976685,190.50476069775513L159.21158571417152,327.279731760306L161.57268011857616,299.6144693529155L163.9337745229808,318.8483020184018L166.29486892738547,319.3017422871586L168.6559633317901,314.29169771242107L171.01705773619477,299.1552354602996L173.3781521405994,295.98553024212976L175.73924654500408,331.7361939067875L178.10034094940872,304.0228652137253L180.46143535381336,322.339631652964L182.82252975821802,272.5789869504901L185.18362416262266,286.55317176113977L187.54471856702733,282.3335705160084L189.90581297143197,312.2161890797239L192.2669073758366,-32.240039010261896L194.62800178024128,333.80956426359876L196.98909618464592,328.13912101070554L199.35019058905058,297.1681533914912L201.71128499345522,345.94253823549184L204.07237939785986,283.8866262182514L206.43347380226453,318.56633453377674L208.79456820666917,355.8153914959501L211.15566261107384,308.7242023039531L213.51675701547848,292.8659731124449L215.87785141988311,218.442800880681L218.23894582428778,347.8262104074627L220.60004022869242,338.24367205767584L222.9611346330971,328.97657817326643L225.32222903750173,252.5308202787222L227.6833234419064,284.9379289381127L230.04441784631103,304.6401261652741L232.40551225071567,241.5975102058531L234.76660665512034,248.39909626850056L237.12770105952498,325.8862766621557L239.48879546392965,340.4587782754486L241.8498898683343,302.1229313637983L244.21098427273893,340.61032376581966L246.5720786771436,279.3237816377464L248.93317308154823,249.09096328289374L251.2942674859529,326.3698632838592L253.65536189035754,339.51940390203777L256.0164562947622,353.46378376513417L258.3775506991669,319.58006212468416L260.7386451035715,328.45686418683425L263.09973950797615,333.997260221319L265.4608339123808,330.5888253564869L267.8219283167855,300.76255151749734L270.18302272119007,348.2509431031456L272.54411712559477,296.7106034232225L274.9052115299994,317.0228612851739L277.2663059344041,292.13353789624904L279.6274003388087,315.5749045380313L281.9884947432134,337.79305159211316L284.349589147618,320.8356972560675L286.71068355202266,325.1709399521739L289.0717779564273,330.5218739619401L291.432872360832,338.7246082954032L293.7939667652366,327.9627402031717L296.1550611696413,215.93176164412054L298.5161555740459,350.03102633296913L300.8772499784506,335.4125703985726L303.2383443828552,346.0159108750911L305.5994387872599,351.80287347854284L307.9605331916645,354.8221418112615L310.32162759606916,348.8992751542053L312.6827220004738,297.33059561791976L315.04381640487844,286.0141414169143L317.4049108092831,218.43094153543117L319.7660052136878,316.96692984066124L322.12709961809236,305.38675665835996L324.48819402249705,308.4615665788684L326.8492884269017,356.8805743986257L329.21038283130633,317.2101696322594L331.571477235711,313.1235932766382L333.93257164011567,321.06193865280756L336.2936660445203,328.5997692970947L338.65476044892495,334.87112968092947L341.0158548533296,306.2501169925477L343.3769492577343,357.01261550154123L345.73804366213886,334.74422698588273L348.09913806654356,327.9805394888778L350.4602324709482,328.02081249052816L352.8213268753529,322.38345219035784L355.1824212797575,335.78333665597415L357.5435156841622,334.8615549281628L359.9046100885668,324.8572782390208L362.26570449297145,347.28255825563497L364.6267988973761,205.9117341016337L366.9878933017808,159.05054272831512L369.34898770618537,340.9140077138243L371.71008211059006,329.2955226856672L374.0711765149947,357.38625627042603L376.4322709193994,333.11049693244667L378.793365323804,314.3176445223313L381.1544597282087,331.4211100989875L383.5155541326133,249.00606885300144L385.87664853701796,309.72825246378L388.2377429414226,356.99563042277697L390.5988373458273,307.35563386212254L392.959931750232,332.6367828306199L395.32102615463657,248.14627145630433L397.68212055904127,324.51448668822803L400.0432149634459,350.6843023448408L402.40430936785054,347.23215988875995L404.7654037722552,338.26976903462014L407.1264981766599,349.5581875637679L409.48759258106446,348.14413455411955L411.84868698546916,316.9343602795076L414.2097813898738,357.4668966094276L416.5708757942785,339.26967099056736L418.9319701986831,324.16034661679686L421.29306460308777,343.23153811662155L423.6541590074924,296.67063075564016L426.01525341189705,323.6005675522998L428.3763478163017,344.22445923070586L430.7374422207064,311.5820170098837L433.09853662511097,199.07764008482096L435.45963102951566,333.7602581372873L437.8207254339203,340.5287817828746L440.181819838325,337.6826775386387L442.5429142427296,349.0238220236886L444.9040086471343,338.2421511351519L447.2651030515389,306.70275893741433L449.62619745594355,253.23241092943715L451.9872918603482,288.51020502139954L454.3483862647529,338.36053794754366L456.70948066915753,356.74215697242L459.07057507356217,326.9137503123299L461.4316694779668,345.5628492326166L463.7927638823715,320.8292490579576L466.1538582867761,333.7889156546832L468.5149526911808,218.13088469886335L470.8760470955854,323.9532059533909L473.23714149999006,354.9389303715241L475.5982359043947,327.61205782395945L477.9593303087994,319.7338511362128L480.32042471320403,349.1802928644272L482.6815191176087,356.95456647724023L485.0426135220133,327.44483078810543L487.403707926418,341.5647174095891L489.7648023308226,357.49790193064365L492.1258967352273,351.4925507358082L494.4869911396319,337.7662602530715L496.8480855440366,315.21630566082115L499.2091799484412,341.7024783363256L501.5702743528459,352.6255289204226L503.93136875725054,312.27701571284945L506.2924631616552,347.32022194463457L508.6535575660598,336.1357106604071L511.0146519704645,334.0719278911517L513.3757463748691,336.59805313897476L515.7368407792737,341.8076376149354L518.0979351836785,346.6251526503281L520.4590295880831,347.9705157932283L522.8201239924878,338.7887771076446L525.1812183968924,340.00665228910907L527.542312801297,341.8705126804223L529.9034072057017,352.5690301782259L532.2645016101064,329.05818433015764L534.625596014511,350.2486761217977L536.9866904189156,350.60551342418586L539.3477848233202,311.24646941413323L541.708879227725,337.3812140091711L544.0699736321296,328.6869765560065L546.4310680365343,302.61291741141264L548.7921624409389,227.47826660730993L551.1532568453435,340.1442656157694L553.5143512497482,322.8661737472672L555.8754456541528,319.88884918488714L558.2365400585575,356.54873734044196L560.5976344629622,316.1288591751751L562.9587288673669,323.216815055154L565.3198232717714,318.75154824325966L567.680917676176,335.8763914448598L570.0420120805808,341.2014595038879L572.4031064849854,310.1403570103381L574.76420088939,353.1159635439206L577.1252952937947,336.6544466358998L579.4863896981994,342.3191103832021L581.847484102604,335.31790099320165L584.2085785070086,338.41690192445344L586.5696729114132,325.8454337958634L588.930767315818,357.11221587250003L591.2918617202226,333.8051721987237L593.6529561246273,316.03625873782823L596.0140505290319,344.85157473342656L598.3751449334366,263.0074685507374L600.7362393378412,325.24414958994987L603.0973337422458,325.2225127022636L605.4584281466505,312.48396898833255L607.8195225510552,311.80169726236875L610.1806169554599,338.818394667275L612.5417113598645,304.3938676312487L614.902805764269,319.42136765671114L617.2639001686738,317.0837854626976L619.6249945730784,339.7633958122849L621.9860889774831,301.8361046279702L624.3471833818877,282.06436851275294L626.7082777862925,357.5088835367449L629.069372190697,316.7767850051556L631.4304665951016,342.10279797941143L633.7915609995063,341.87474302695296L636.152655403911,240.38238423624202L638.5137498083157,349.56472881409974L640.8748442127203,315.60397790259833L643.235938617125,352.0622459584654L645.5970330215296,317.8091769465633L647.9581274259342,283.213816298909L650.3192218303388,343.378701809949L652.6803162347436,356.90093486652296L655.0414106391482,342.0699588876839L657.4025050435529,344.74504983324255L659.7635994479575,306.6564304822046L662.1246938523622,329.5104617670101L664.4857882567668,333.91790785341686L666.8468826611714,309.5717861152176L669.2079770655761,357.4295460892852L671.5690714699808,322.1201618910224L673.9301658743855,323.72615853188717L676.2912602787901,337.9595188084447L678.6523546831946,328.8565959965733L681.0134490875994,346.67821295248973L683.374543492004,333.0892681910579L685.7356378964087,357.410992438842L688.0967323008133,348.58999523809575L690.457826705218,323.9349266465676L692.8189211096227,321.4386859219909L695.1800155140272,321.7484920644589L697.5411099184319,343.9850814271874L699.9022043228366,315.516829683717L702.2632987272412,329.12458382876747L704.6243931316459,333.9359124957507L706.9854875360505,338.3619189708649L709.3465819404552,324.3935110988483L711.7076763448598,245.78097381842448L714.0687707492644,313.1118263418708L716.4298651536691,324.1577950606976L718.7909595580738,357.27362987187627L721.1520539624785,350.3756237386067L723.5131483668831,325.04630388090544L725.8742427712876,337.14117008009157L728.2353371756924,334.8906334266455L730.596431580097,338.70295343901194L732.9575259845017,350.566734392002L735.3186203889063,313.08361034122447L737.6797147933111,239.9040367755027L740.0408091977157,332.45362525437184L742.4019036021202,357.4509105585701L744.7629980065249,347.1222235015983L747.1240924109296,334.0593061594215L749.4851868153343,349.7845220127299L751.8462812197389,323.13472117627197L754.2073756241435,312.0575202813294L756.5684700285483,356.00907680806523L758.9295644329528,211.44852869426015L761.2906588373575,337.5163335362838L763.6517532417621,338.90474841270293L766.0128476461668,356.5606823579099L768.3739420505715,311.279203260589L770.7350364549761,324.3774727462248L773.0961308593807,320.7126039264646L775.4572252637854,234.31109768086236L777.81831966819,304.2030348510403L780.1794140725947,355.2528397961094L782.5405084769993,354.69410740867426L784.9016028814041,346.4811206455731L787.2626972858087,323.92642744913854L789.6237916902132,308.88316886945773L791.9848860946179,237.17510388911822L794.3459804990226,337.89511768651823L796.7070749034273,350.95506890890357L799.0681693078319,339.6534337555447L801.4292637122365,330.321918213546L803.7903581166413,314.81407363413985L806.1514525210458,350.886260320355L808.5125469254505,316.55298991924303L810.8736413298551,291.59190465676744L813.2347357342599,350.10608097169717L815.5958301386645,346.9996140435494L817.9569245430691,271.5741358998152L820.3180189474738,318.4661461690363L822.6791133518784,291.2338294389579L825.040207756283,357.33008738231257L827.4013021606877,336.28486117910757L829.7623965650923,320.70834534339764L832.1234909694971,341.7123123518347L834.4845853739017,321.69203182662994L836.8456797783064,313.41643696165795L839.2067741827109,324.05784542303684L841.5678685871156,329.38141309520387L843.9289629915203,267.22158163999336L846.2900573959249,357.4403719131322L848.6511518003296,264.64607069016563L851.0122462047343,336.3628607602247L853.3733406091388,340.08792345800134L855.7344350135435,354.30604210147686L858.0955294179481,299.1629157981757L860.4566238223529,343.69631920514325L862.8177182267575,268.9752656335863L865.1788126311621,345.6367570829268L867.5399070355668,324.93342447657295L869.9010014399714,320.41411036722513L872.2620958443761,255.77665633269714L874.6231902487807,332.12139673511655L876.9842846531853,342.9847892936475L879.3453790575901,319.44211124306696L881.7064734619947,305.5101708576936L884.0675678663994,350.7975006936856L886.4286622708039,347.46436561205593L888.7897566752087,342.7380764080833L891.1508510796133,312.9072346676063L893.5119454840179,352.1319362970342L895.8730398884227,255.75060684447308L898.2341342928273,331.61539800445706L900.595228697232,313.3981653557081L902.9563231016365,296.84776624878083L905.3174175060412,328.3666818237786L907.6785119104459,349.3848980152205L910.0396063148505,311.7019504143778L912.4007007192552,321.26256694415736L914.7617951236599,333.61763795934775L917.1228895280644,333.931263735091L919.4839839324691,330.6279971332212L921.8450783368737,316.06091693489964L924.2061727412785,343.9125148123519L926.5672671456831,357.9093896051443L928.9283615500877,299.5549005291346L931.2894559544924,356.62580928716744L933.650550358897,339.04022474695626L936.0116447633017,336.45911911250255L938.3727391677063,302.99519390779693L940.7338335721109,343.32202851461875L943.0949279765157,354.7403193881717L945.4560223809203,329.729626060968L947.817116785325,330.10016129216336L950.1782111897295,352.18667474788776L952.5393055941342,319.923236152196L954.9003999985389,342.44763282864983L957.2614944029435,337.7579561444388L959.6225888073482,338.90031912693917L961.9836832117529,320.5042131545876L964.3447776161576,340.637955783556L966.7058720205621,316.75149276949617L969.0669664249667,326.54080984163255L971.4280608293715,353.9808566728123L973.7891552337761,336.5630988739819L976.1502496381808,182.43285907180152L978.5113440425854,356.69624677090434L980.8724384469901,354.3783558709645L983.2335328513947,323.3996620295026L985.5946272557993,314.58758067553083L987.955721660204,292.8988096372146L990.3168160646087,323.8323843814821L992.6779104690133,321.55830872458563L995.039004873418,346.65611914630676L997.4000992778225,301.5964021042842" style="fill: none;" fill="none"></path></g></g></g></g></g></g><g transform="translate(61, 378)" clip-path="url(#clip_1)"><clipPath id="clip_1"><rect width="1050" height="22"></rect></clipPath><g><g><line x1="52.96233751596221" y1="0" x2="52.96233751596221" y2="5" style="visibility: inherit;" fill="rgb(0, 0, 0)" stroke="rgb(204, 204, 204)" stroke-width="1px"></line><line x1="147.40611369214827" y1="0" x2="147.40611369214827" y2="5" style="visibility: inherit;" fill="rgb(0, 0, 0)" stroke="rgb(204, 204, 204)" stroke-width="1px"></line><line x1="241.8498898683343" y1="0" x2="241.8498898683343" y2="5" style="visibility: inherit;" fill="rgb(0, 0, 0)" stroke="rgb(204, 204, 204)" stroke-width="1px"></line><line x1="336.2936660445203" y1="0" x2="336.2936660445203" y2="5" style="visibility: inherit;" fill="rgb(0, 0, 0)" stroke="rgb(204, 204, 204)" stroke-width="1px"></line><line x1="430.7374422207064" y1="0" x2="430.7374422207064" y2="5" style="visibility: inherit;" fill="rgb(0, 0, 0)" stroke="rgb(204, 204, 204)" stroke-width="1px"></line><line x1="525.1812183968924" y1="0" x2="525.1812183968924" y2="5" style="visibility: inherit;" fill="rgb(0, 0, 0)" stroke="rgb(204, 204, 204)" stroke-width="1px"></line><line x1="619.6249945730784" y1="0" x2="619.6249945730784" y2="5" style="visibility: inherit;" fill="rgb(0, 0, 0)" stroke="rgb(204, 204, 204)" stroke-width="1px"></line><line x1="714.0687707492644" y1="0" x2="714.0687707492644" y2="5" style="visibility: inherit;" fill="rgb(0, 0, 0)" stroke="rgb(204, 204, 204)" stroke-width="1px"></line><line x1="808.5125469254505" y1="0" x2="808.5125469254505" y2="5" style="visibility: inherit;" fill="rgb(0, 0, 0)" stroke="rgb(204, 204, 204)" stroke-width="1px"></line><line x1="902.9563231016365" y1="0" x2="902.9563231016365" y2="5" style="visibility: inherit;" fill="rgb(0, 0, 0)" stroke="rgb(204, 204, 204)" stroke-width="1px"></line><line x1="997.4000992778225" y1="0" x2="997.4000992778225" y2="5" style="visibility: inherit;" fill="rgb(0, 0, 0)" stroke="rgb(204, 204, 204)" stroke-width="1px"></line></g><g transform="translate(0, 8)"><text x="52.96233751596221" y="0" dx="0em" dy="0.95em" style="text-anchor: middle; visibility: inherit; font-family: Roboto, sans-serif; font-size: 12px; font-weight: 200;" fill="rgb(50, 49, 63)" stroke="none" stroke-width="1px">0</text><text x="147.40611369214827" y="0" dx="0em" dy="0.95em" style="text-anchor: middle; visibility: inherit; font-family: Roboto, sans-serif; font-size: 12px; font-weight: 200;" fill="rgb(50, 49, 63)" stroke="none" stroke-width="1px">20k</text><text x="241.8498898683343" y="0" dx="0em" dy="0.95em" style="text-anchor: middle; visibility: inherit; font-family: Roboto, sans-serif; font-size: 12px; font-weight: 200;" fill="rgb(50, 49, 63)" stroke="none" stroke-width="1px">40k</text><text x="336.2936660445203" y="0" dx="0em" dy="0.95em" style="text-anchor: middle; visibility: inherit; font-family: Roboto, sans-serif; font-size: 12px; font-weight: 200;" fill="rgb(50, 49, 63)" stroke="none" stroke-width="1px">60k</text><text x="430.7374422207064" y="0" dx="0em" dy="0.95em" style="text-anchor: middle; visibility: inherit; font-family: Roboto, sans-serif; font-size: 12px; font-weight: 200;" fill="rgb(50, 49, 63)" stroke="none" stroke-width="1px">80k</text><text x="525.1812183968924" y="0" dx="0em" dy="0.95em" style="text-anchor: middle; visibility: inherit; font-family: Roboto, sans-serif; font-size: 12px; font-weight: 200;" fill="rgb(50, 49, 63)" stroke="none" stroke-width="1px">100k</text><text x="619.6249945730784" y="0" dx="0em" dy="0.95em" style="text-anchor: middle; visibility: inherit; font-family: Roboto, sans-serif; font-size: 12px; font-weight: 200;" fill="rgb(50, 49, 63)" stroke="none" stroke-width="1px">120k</text><text x="714.0687707492644" y="0" dx="0em" dy="0.95em" style="text-anchor: middle; visibility: inherit; font-family: Roboto, sans-serif; font-size: 12px; font-weight: 200;" fill="rgb(50, 49, 63)" stroke="none" stroke-width="1px">140k</text><text x="808.5125469254505" y="0" dx="0em" dy="0.95em" style="text-anchor: middle; visibility: inherit; font-family: Roboto, sans-serif; font-size: 12px; font-weight: 200;" fill="rgb(50, 49, 63)" stroke="none" stroke-width="1px">160k</text><text x="902.9563231016365" y="0" dx="0em" dy="0.95em" style="text-anchor: middle; visibility: inherit; font-family: Roboto, sans-serif; font-size: 12px; font-weight: 200;" fill="rgb(50, 49, 63)" stroke="none" stroke-width="1px">180k</text><text x="997.4000992778225" y="0" dx="0em" dy="0.95em" style="text-anchor: middle; visibility: inherit; font-family: Roboto, sans-serif; font-size: 12px; font-weight: 200;" fill="rgb(50, 49, 63)" stroke="none" stroke-width="1px">200k</text></g><line x1="0" y1="0" x2="1050.646875" y2="0" fill="rgb(0, 0, 0)" stroke="rgb(204, 204, 204)" stroke-width="1px"></line></g></g></g></g></svg>