<svg viewBox="0 0 887 400" xmlns="http://www.w3.org/2000/svg"><g><g><g><g><g><line x1="30" y1="377" x2="25" y2="377" style="visibility: inherit;" fill="rgb(0, 0, 0)" stroke="rgb(204, 204, 204)" stroke-width="1px"></line><line x1="30" y1="339.3" x2="25" y2="339.3" style="visibility: inherit;" fill="rgb(0, 0, 0)" stroke="rgb(204, 204, 204)" stroke-width="1px"></line><line x1="30" y1="301.6" x2="25" y2="301.6" style="visibility: inherit;" fill="rgb(0, 0, 0)" stroke="rgb(204, 204, 204)" stroke-width="1px"></line><line x1="30" y1="263.9" x2="25" y2="263.9" style="visibility: inherit;" fill="rgb(0, 0, 0)" stroke="rgb(204, 204, 204)" stroke-width="1px"></line><line x1="30" y1="226.2" x2="25" y2="226.2" style="visibility: inherit;" fill="rgb(0, 0, 0)" stroke="rgb(204, 204, 204)" stroke-width="1px"></line><line x1="30" y1="188.5" x2="25" y2="188.5" style="visibility: inherit;" fill="rgb(0, 0, 0)" stroke="rgb(204, 204, 204)" stroke-width="1px"></line><line x1="30" y1="150.8" x2="25" y2="150.8" style="visibility: inherit;" fill="rgb(0, 0, 0)" stroke="rgb(204, 204, 204)" stroke-width="1px"></line><line x1="30" y1="113.10000000000002" x2="25" y2="113.10000000000002" style="visibility: inherit;" fill="rgb(0, 0, 0)" stroke="rgb(204, 204, 204)" stroke-width="1px"></line><line x1="30" y1="75.39999999999998" x2="25" y2="75.39999999999998" style="visibility: inherit;" fill="rgb(0, 0, 0)" stroke="rgb(204, 204, 204)" stroke-width="1px"></line><line x1="30" y1="37.69999999999999" x2="25" y2="37.69999999999999" style="visibility: inherit;" fill="rgb(0, 0, 0)" stroke="rgb(204, 204, 204)" stroke-width="1px"></line><line x1="30" y1="0" x2="25" y2="0" style="visibility: inherit;" fill="rgb(0, 0, 0)" stroke="rgb(204, 204, 204)" stroke-width="1px"></line></g><g transform="translate(20, 0)"><text x="0" y="377" dx="0em" dy="0.3em" style="text-anchor: end; visibility: hidden; font-family: Roboto, sans-serif; font-size: 12px; font-weight: 200;" fill="rgb(33, 33, 33)" stroke="none" stroke-width="1px">22</text><text x="0" y="339.3" dx="0em" dy="0.3em" style="text-anchor: end; visibility: inherit; font-family: Roboto, sans-serif; font-size: 12px; font-weight: 200;" fill="rgb(33, 33, 33)" stroke="none" stroke-width="1px">23</text><text x="0" y="301.6" dx="0em" dy="0.3em" style="text-anchor: end; visibility: inherit; font-family: Roboto, sans-serif; font-size: 12px; font-weight: 200;" fill="rgb(33, 33, 33)" stroke="none" stroke-width="1px">24</text><text x="0" y="263.9" dx="0em" dy="0.3em" style="text-anchor: end; visibility: inherit; font-family: Roboto, sans-serif; font-size: 12px; font-weight: 200;" fill="rgb(33, 33, 33)" stroke="none" stroke-width="1px">25</text><text x="0" y="226.2" dx="0em" dy="0.3em" style="text-anchor: end; visibility: inherit; font-family: Roboto, sans-serif; font-size: 12px; font-weight: 200;" fill="rgb(33, 33, 33)" stroke="none" stroke-width="1px">26</text><text x="0" y="188.5" dx="0em" dy="0.3em" style="text-anchor: end; visibility: inherit; font-family: Roboto, sans-serif; font-size: 12px; font-weight: 200;" fill="rgb(33, 33, 33)" stroke="none" stroke-width="1px">27</text><text x="0" y="150.8" dx="0em" dy="0.3em" style="text-anchor: end; visibility: inherit; font-family: Roboto, sans-serif; font-size: 12px; font-weight: 200;" fill="rgb(33, 33, 33)" stroke="none" stroke-width="1px">28</text><text x="0" y="113.10000000000002" dx="0em" dy="0.3em" style="text-anchor: end; visibility: inherit; font-family: Roboto, sans-serif; font-size: 12px; font-weight: 200;" fill="rgb(33, 33, 33)" stroke="none" stroke-width="1px">29</text><text x="0" y="75.39999999999998" dx="0em" dy="0.3em" style="text-anchor: end; visibility: inherit; font-family: Roboto, sans-serif; font-size: 12px; font-weight: 200;" fill="rgb(33, 33, 33)" stroke="none" stroke-width="1px">30</text><text x="0" y="37.69999999999999" dx="0em" dy="0.3em" style="text-anchor: end; visibility: inherit; font-family: Roboto, sans-serif; font-size: 12px; font-weight: 200;" fill="rgb(33, 33, 33)" stroke="none" stroke-width="1px">31</text><text x="0" y="0" dx="0em" dy="0.3em" style="text-anchor: end; visibility: hidden; font-family: Roboto, sans-serif; font-size: 12px; font-weight: 200;" fill="rgb(33, 33, 33)" stroke="none" stroke-width="1px">32</text></g><line x1="30" y1="0" x2="30" y2="377" fill="rgb(0, 0, 0)" stroke="rgb(204, 204, 204)" stroke-width="1px"></line></g></g><g transform="translate(30, 0)" clip-path="url(#clip_0)"><clipPath id="clip_0"><rect width="857" height="377"></rect></clipPath><g><g><g><line x1="0" y1="0" x2="0" y2="377" fill="rgb(0, 0, 0)" stroke="rgb(66, 66, 66)" stroke-width="1px" opacity="0.25"></line><line x1="71.41666666666666" y1="0" x2="71.41666666666666" y2="377" fill="rgb(0, 0, 0)" stroke="rgb(66, 66, 66)" stroke-width="1px" opacity="0.25"></line><line x1="142.83333333333331" y1="0" x2="142.83333333333331" y2="377" fill="rgb(0, 0, 0)" stroke="rgb(66, 66, 66)" stroke-width="1px" opacity="0.25"></line><line x1="214.25" y1="0" x2="214.25" y2="377" fill="rgb(0, 0, 0)" stroke="rgb(66, 66, 66)" stroke-width="1px" opacity="0.25"></line><line x1="285.66666666666663" y1="0" x2="285.66666666666663" y2="377" fill="rgb(0, 0, 0)" stroke="rgb(66, 66, 66)" stroke-width="1px" opacity="0.25"></line><line x1="357.08333333333337" y1="0" x2="357.08333333333337" y2="377" fill="rgb(0, 0, 0)" stroke="rgb(66, 66, 66)" stroke-width="1px" opacity="0.25"></line><line x1="428.5" y1="0" x2="428.5" y2="377" fill="rgb(0, 0, 0)" stroke="rgb(66, 66, 66)" stroke-width="1px" opacity="0.25"></line><line x1="499.9166666666667" y1="0" x2="499.9166666666667" y2="377" fill="rgb(0, 0, 0)" stroke="rgb(66, 66, 66)" stroke-width="1px" opacity="0.25"></line><line x1="571.3333333333333" y1="0" x2="571.3333333333333" y2="377" fill="rgb(0, 0, 0)" stroke="rgb(66, 66, 66)" stroke-width="1px" opacity="0.25"></line><line x1="642.75" y1="0" x2="642.75" y2="377" fill="rgb(0, 0, 0)" stroke="rgb(66, 66, 66)" stroke-width="1px" opacity="0.25"></line><line x1="714.1666666666667" y1="0" x2="714.1666666666667" y2="377" fill="rgb(0, 0, 0)" stroke="rgb(66, 66, 66)" stroke-width="1px" opacity="0.25"></line><line x1="785.5833333333333" y1="0" x2="785.5833333333333" y2="377" fill="rgb(0, 0, 0)" stroke="rgb(66, 66, 66)" stroke-width="1px" opacity="0.25"></line><line x1="857" y1="0" x2="857" y2="377" fill="rgb(0, 0, 0)" stroke="rgb(66, 66, 66)" stroke-width="1px" opacity="0.25"></line></g><g><line x1="0" y1="377" x2="857" y2="377" fill="rgb(0, 0, 0)" stroke="rgb(66, 66, 66)" stroke-width="1px" opacity="0.25"></line><line x1="0" y1="339.3" x2="857" y2="339.3" fill="rgb(0, 0, 0)" stroke="rgb(66, 66, 66)" stroke-width="1px" opacity="0.25"></line><line x1="0" y1="301.6" x2="857" y2="301.6" fill="rgb(0, 0, 0)" stroke="rgb(66, 66, 66)" stroke-width="1px" opacity="0.25"></line><line x1="0" y1="263.9" x2="857" y2="263.9" fill="rgb(0, 0, 0)" stroke="rgb(66, 66, 66)" stroke-width="1px" opacity="0.25"></line><line x1="0" y1="226.2" x2="857" y2="226.2" fill="rgb(0, 0, 0)" stroke="rgb(66, 66, 66)" stroke-width="1px" opacity="0.25"></line><line x1="0" y1="188.5" x2="857" y2="188.5" fill="rgb(0, 0, 0)" stroke="rgb(66, 66, 66)" stroke-width="1px" opacity="0.25"></line><line x1="0" y1="150.8" x2="857" y2="150.8" fill="rgb(0, 0, 0)" stroke="rgb(66, 66, 66)" stroke-width="1px" opacity="0.25"></line><line x1="0" y1="113.10000000000002" x2="857" y2="113.10000000000002" fill="rgb(0, 0, 0)" stroke="rgb(66, 66, 66)" stroke-width="1px" opacity="0.25"></line><line x1="0" y1="75.39999999999998" x2="857" y2="75.39999999999998" fill="rgb(0, 0, 0)" stroke="rgb(66, 66, 66)" stroke-width="1px" opacity="0.25"></line><line x1="0" y1="37.69999999999999" x2="857" y2="37.69999999999999" fill="rgb(0, 0, 0)" stroke="rgb(66, 66, 66)" stroke-width="1px" opacity="0.25"></line><line x1="0" y1="0" x2="857" y2="0" fill="rgb(0, 0, 0)" stroke="rgb(66, 66, 66)" stroke-width="1px" opacity="0.25"></line></g></g></g><g><g><line x1="0" y1="1206.4" x2="857" y2="1206.4" fill="rgb(0, 0, 0)" stroke="rgb(153, 153, 153)" stroke-width="1.5px"></line></g></g><g><g><line x1="71.41666666666666" y1="0" x2="71.41666666666666" y2="377" fill="rgb(0, 0, 0)" stroke="rgb(153, 153, 153)" stroke-width="1.5px"></line></g></g><g><g><g><g><g><path stroke="rgb(255, 112, 67)" stroke-width="2px" d="M92.84166666666667,404.17842415619634L94.62708333333333,374.27217301602957L96.41250000000001,363.28405311685805L98.19791666666666,382.32093215892314L99.98333333333333,289.31432843872443L101.76875,255.78023437187957L103.55416666666667,293.87293345750123L105.33958333333332,420.79601105694746L107.125,199.1056943218497L108.91041666666666,382.2781040746108L110.69583333333334,284.01333975989894L112.48125,319.40914363591315L114.26666666666667,313.36197495545963L116.05208333333333,309.88799752875036L117.8375,254.35657919053358L119.62291666666667,302.3147771360707L121.40833333333333,271.32008906860034L123.19375,322.86292489758256L124.97916666666667,269.3472463598945L126.76458333333333,309.63857799707455L128.54999999999998,147.90578754320336L130.33541666666665,221.99200080214405L132.12083333333334,291.2413607293492L133.90625,179.15133643014704L135.69166666666666,195.2924659289274L137.47708333333335,256.03525769123115L139.26250000000002,291.7538085792045L141.04791666666665,298.2175454711044L142.83333333333331,301.324368837889L144.61875,315.0404406300127L146.40416666666667,290.2325076264598L148.18958333333333,344.1854535293147L149.975,366.7633091682755L151.76041666666669,317.44669918197155L153.54583333333335,309.8579011769898L155.33124999999998,298.91996722267186L157.11666666666665,288.46021901144076L158.90208333333334,278.6651818523419L160.6875,288.08862655224675L162.47291666666666,285.40144756830324L164.25833333333335,224.9031967269114L166.04375000000002,276.53097092316386L167.82916666666665,225.30988870620973L169.61458333333331,268.80636260606656L171.4,307.84564518510876L173.18541666666667,321.08703356492464L174.97083333333333,299.6081659549929L176.75625,396.800433172854L178.54166666666669,347.74065838698726L180.32708333333335,272.45643116500366L182.11249999999998,290.17651410976896L183.89791666666665,178.8791267733558L185.68333333333334,259.14104898576664L187.46875,249.31037783506338L189.25416666666666,93.93529484678982L191.03958333333335,176.67086471324976L192.82500000000002,243.50857473615307L194.61041666666665,312.5398645377367L196.39583333333331,197.54698398448275L198.18125,169.3473428412512L199.96666666666667,190.94913927103488L201.75208333333333,269.55001525512586L203.5375,289.1115821053461L205.32291666666669,283.15705973684055L207.10833333333335,311.63886680829097L208.89374999999998,326.8530755628799L210.67916666666665,303.65190644917817L212.46458333333334,202.56767287646485L214.25,241.04234399077154L216.03541666666666,206.0148942332081L217.82083333333333,254.5367635357745L219.60625,297.80990640332504L221.39166666666668,286.04082993513475L223.17708333333334,285.39731778529955L224.9625,97.30943620340635L226.74791666666667,159.7319377382791L228.53333333333333,193.47624325515L230.31875,180.90007998324134L232.10416666666666,214.20086166487158L233.88958333333332,245.12423083559284L235.675,141.23988594398267L237.46041666666667,190.83722296348435L239.24583333333334,234.45211244935518L241.03125,272.92313323804575L242.81666666666666,262.3095586537649L244.60208333333333,181.98461702819642L246.3875,191.56566714379773L248.17291666666668,205.36150073488696L249.95833333333334,218.68673152613732L251.74375,221.5457799892908L253.52916666666667,231.60553249247585L255.31458333333333,310.6926123269064L257.09999999999997,178.27942924306768L258.88541666666663,175.27261833075278L260.6708333333333,125.41515432669866L262.45625,55.89741153522805L264.2416666666667,-0.5523372280331884L266.02708333333334,11.283886206881267L267.8125,126.67708122058868L269.59791666666666,219.05334635808572L271.3833333333333,302.00198652884075L273.16875,268.48086827838836L274.9541666666667,266.84960182335624L276.73958333333337,270.5730736245313L278.52500000000003,76.21784441885949L280.3104166666667,123.7484106613254L282.0958333333333,165.7961469216976L283.88124999999997,206.13918900751068L285.66666666666663,214.17248740352983L287.4520833333333,198.1328371534216L289.2375,231.45314139422584L291.0229166666667,114.4607091468383L292.80833333333334,120.59702126752191L294.59375,152.98582605702197L296.37916666666666,155.35421566595133L298.1645833333333,174.92556513565478L299.95,163.95860606442503L301.7354166666667,160.46048155552518L303.52083333333337,169.6637833638572L305.30625000000003,155.5364457537879L307.0916666666667,267.7841744285911L308.8770833333333,344.8228897584731L310.66249999999997,255.09641909678305L312.44791666666663,251.89606732415865L314.2333333333333,66.21363877706365L316.01875,122.00672475488567L317.8041666666667,168.25111004824385L319.58958333333334,166.4121634502109L321.375,259.90371919744604L323.16041666666666,256.69349113150474L324.9458333333333,95.36324510004545L326.73125,163.82718587533486L328.5166666666667,211.54225406060135L330.30208333333337,284.9817510569664L332.08750000000003,244.7958494165285L333.8729166666667,137.60115589015152L335.6583333333333,133.07205507583893L337.44374999999997,135.68287774459995L339.22916666666663,83.61203804812719L341.0145833333333,74.19352325917417L342.8,162.8128647489616L344.5854166666667,-8.15743572215616L346.37083333333334,63.51582878887437L348.15625,122.30266446387633L349.94166666666666,134.7829367978327L351.7270833333333,197.22346950667804L353.5125,214.22894094167765L355.2979166666667,191.99927092181818L357.08333333333337,229.65279558531734L358.86875000000003,312.2119330884951L360.6541666666667,281.78287152301897L362.4395833333333,209.62797036559363L364.22499999999997,195.8205703663288L366.01041666666663,128.80038634821528L367.7958333333333,148.4985208409115L369.58125,191.6681534133603L371.3666666666667,267.5000842477232L373.15208333333334,294.8990031090587L374.9375,231.18104195637758L376.72291666666666,48.03441863085784L378.5083333333333,130.56903138176187L380.29375,107.23269095430129L382.0791666666667,169.747027826365L383.86458333333337,207.14152785304546L385.65000000000003,295.99465082742785L387.4354166666667,288.7529705349089L389.2208333333333,133.86144906899221L391.00624999999997,147.33400384080943L392.79166666666663,214.17968498881194L394.5770833333333,118.7366217232676L396.3625,-6.39611931223074L398.1479166666667,97.6672601295804L399.93333333333334,137.83009644945227L401.71875,1.0634295737729054L403.50416666666666,-14.941955073118963L405.2895833333333,28.066781759595376L407.075,144.3671818639849L408.8604166666667,153.8726946011791L410.64583333333337,62.67956417892028L412.43125000000003,115.61592202480821L414.2166666666667,66.85292174515837L416.0020833333333,91.81352131186556L417.78749999999997,140.98447020899425L419.57291666666663,159.54563505203242L421.3583333333333,133.36677777499398L423.14375,126.71023039180301L424.9291666666667,130.37788239096562L426.71458333333334,124.40281532630297L428.5,125.18233128562542L430.28541666666666,133.74835590943667L432.0708333333333,63.59505465283979L433.85625,129.0181113592088L435.64166666666665,94.10011768527639L437.4270833333333,46.315424920247864L439.2125,127.57868595190455L440.99791666666664,136.8498388294435L442.78333333333336,171.93480136895508L444.56875,214.65174500289163L446.3541666666667,296.09374223794106L448.13958333333335,235.06723151830172L449.925,217.36066277877887L451.7104166666667,243.9613009265446L453.49583333333334,54.00522263356342L455.28125,119.5351416367786L457.06666666666666,152.35514114966975L458.8520833333333,171.18103490037322L460.6375,172.86357737638122L462.42291666666665,146.6977628961656L464.2083333333333,193.90770436855883L465.99375,96.92091946561763L467.77916666666664,131.81309153532766L469.56458333333336,159.60084839043486L471.35,166.25337104903136L473.1354166666667,153.75055938784155L474.92083333333335,193.62129014625478L476.70625,42.091261636580995L478.4916666666667,112.84279950819368L480.27708333333334,166.62762413240645L482.0625,156.99422912727107L483.84791666666666,244.38889419633338L485.6333333333333,264.89870707749236L487.41875,247.91817909573865L489.20416666666665,252.2052678852996L490.9895833333333,269.65523226438285L492.775,219.51441880809267L494.56041666666664,239.25702485052946L496.34583333333336,234.30254323368192L498.13125,251.19917974880292L499.9166666666667,224.80102030045367L501.70208333333335,238.24983466867553L503.4875,282.5430155015227L505.2729166666667,76.95130093909728L507.05833333333334,142.33373802195453L508.84375,152.78194592291385L510.62916666666666,162.428402020301L512.4145833333333,259.5030151806865L514.1999999999999,207.11960207716191L515.9854166666667,217.7007553869222L517.7708333333333,105.20229130588376L519.55625,169.7278236055517L521.3416666666666,221.48129934216402L523.1270833333334,170.3044303926519L524.9125,5.931283876460291L526.6979166666667,55.192111848092885L528.4833333333333,87.53112358468579L530.2687500000001,157.1706895316709L532.0541666666667,155.98171570569696L533.8395833333334,163.7464594618704L535.625,173.95166855431938L537.4104166666666,6.2087977634509715L539.1958333333333,84.06589656273363L540.9812499999999,138.78286328554054L542.7666666666667,164.6220392146104L544.5520833333333,182.04086078157388L546.3375,173.58373643964737L548.1229166666666,188.72520669227947L549.9083333333334,28.384755210436094L551.69375,67.36529457828809L553.4791666666667,121.82752795852066L555.2645833333333,173.41524114034672L557.0500000000001,198.22007569922266L558.8354166666667,159.24621160300515L560.6208333333334,205.94767500562628L562.40625,204.48079761507006L564.1916666666666,191.05266199494537L565.9770833333333,178.34647253266056L567.7624999999999,209.17415869659837L569.5479166666667,273.11792020575194L571.3333333333333,289.3436245141982L573.11875,271.2127954970932L574.9041666666666,65.89028929776771L576.6895833333334,26.16067153398284L578.475,123.03092493882238L580.2604166666667,142.542129792395L582.0458333333333,141.73452477790295L583.8312500000001,145.70644393168328L585.6166666666667,107.30279862524526L587.4020833333334,192.76414064670465L589.1875,277.6989934212259L590.9729166666666,269.6631672624523L592.7583333333333,50.93392178081116L594.5437499999999,75.57119970239772L596.3291666666667,124.37517602871408L598.1145833333333,132.12022303361027L599.9,179.09720195065933L601.6854166666666,199.88573648411622L603.4708333333334,31.878103267422816L605.25625,188.8943005438278L607.0416666666667,169.4369599649685L608.8270833333333,164.3691734307633L610.6125000000001,58.848740386583046L612.3979166666667,145.19784690834135L614.1833333333334,174.3804365080418L615.96875,206.25911723624608L617.7541666666666,278.1328169909176L619.5395833333333,280.0588742308055L621.3249999999999,138.52766523672548L623.1104166666667,86.05664804645428L624.8958333333333,64.59799464147122L626.68125,116.30835717916975L628.4666666666666,195.05436100244805L630.2520833333334,271.06754190969633L632.0375,243.29342095880608L633.8229166666667,127.04091463583053L635.6083333333333,144.9392646628459L637.3937500000001,182.8589645289088L639.1791666666667,203.48935408965968L640.9645833333334,102.03033929095398L642.75,182.18434516087612L644.5354166666666,250.01037119564677L646.3208333333333,156.91067950449744L648.1062499999999,149.76052315069649L649.8916666666667,232.62878413577926L651.6770833333333,257.08931409108664L653.4625,284.7897809290172L655.2479166666666,51.205131374793154L657.0333333333334,111.48717168986607L658.81875,160.45245560181033L660.6041666666667,158.62371022326886L662.3895833333333,220.65408788933243L664.1750000000001,228.3844727683894L665.9604166666667,214.43315100722504L667.7458333333334,198.07219109566796L669.53125,266.2613538267124L671.3166666666666,84.36250733386927L673.1020833333333,192.68508428008244L674.8874999999999,182.34311668438244L676.6729166666667,188.28950740076618L678.4583333333333,63.33650244461021L680.24375,183.94150305978383L682.0291666666666,135.8305799364563L683.8145833333334,208.54141131636607L685.6,147.35597349880396L687.3854166666667,158.4955117421047L689.1708333333333,212.5398884509024L690.9562500000001,277.7058776506196L692.7416666666667,252.43560895731508L694.5270833333334,214.93250459558047L696.3125,203.13584621743132L698.0979166666666,218.91175042149894L699.8833333333333,121.65841026876848L701.6687499999999,103.52450455054333L703.4541666666667,129.40655079856336L705.2395833333333,179.70588291749243L707.025,93.57437249341541L708.8104166666666,209.48639366816832L710.5958333333334,206.35327457065196L712.38125,243.01293222591167L714.1666666666667,256.0798278932863L715.9520833333333,231.09940468580083L717.7375000000001,164.39025522297948L719.5229166666667,211.27389053002787L721.3083333333334,240.40041570839767L723.09375,229.43948244200647L724.8791666666666,212.8410652586609L726.6645833333333,243.53423052482555L728.4499999999999,258.98387785346955L730.2354166666667,219.4595599579314L732.0208333333333,10.362340894192414L733.80625,116.3717468827068L735.5916666666666,-0.3397030300439319L737.3770833333334,69.73817471822856L739.1625,83.9355623016402L740.9479166666667,161.51780504761007L742.7333333333333,136.80134548889308L744.5187500000001,37.5671834835214L746.3041666666667,92.46942088418015L748.0895833333334,130.30619484313019L749.875,66.22655351476473L751.6604166666666,149.33359888742334L753.4458333333333,164.77250163286902L755.2312499999999,146.4700768311618L757.0166666666667,163.46650204657317L758.8020833333333,195.44353373526815L760.5875,182.15998346137584L762.3729166666666,226.96346795158138L764.1583333333334,192.28056009528976L765.94375,79.7404094214316L767.7291666666667,130.84415860146726L769.5145833333333,248.50383494359522L771.3000000000001,78.87448831356916L773.0854166666667,13.155789026959946L774.8708333333334,118.35534780582434L776.65625,179.09090437746437L778.4416666666666,233.72756783399805L780.2270833333333,245.33216501375335L782.0124999999999,250.2052758759278L783.7979166666667,198.25518052494635L785.5833333333333,214.8266830677754" style="fill: none;" fill="none"></path></g></g></g></g><g opacity="0.2"><g><g><g><path stroke="rgb(255, 112, 67)" stroke-width="2px" d="M85.7,460.54922523498533L87.48541666666667,260.1737770080566L89.27083333333334,711.6987401962281L91.05624999999999,272.3871883392334L92.84166666666667,376.62694625854493L94.62708333333333,329.4713857650757L96.41250000000001,346.814789390564L98.19791666666666,410.86282444000244L99.98333333333333,149.84378013610842L101.76875,205.4876075744629L103.55416666666667,351.00617904663085L105.33958333333332,611.169026184082L108.91041666666666,657.0306913375855L110.69583333333334,136.61813335418702L112.48125,372.50243015289306L114.26666666666667,304.2912649154663L116.05208333333333,304.67704620361326L117.8375,171.0595937728882L119.62291666666667,374.2520004272461L121.40833333333333,224.82808551788332L123.19375,400.17715015411375L124.97916666666667,189.07374629974368L126.76458333333333,370.07556743621825L128.54999999999998,-94.69337882995603L130.33541666666665,333.1213153839111L132.12083333333334,395.115397644043L133.90625,11.01630287170411L135.69166666666666,219.50415992736816L137.47708333333335,347.149444770813L139.26250000000002,345.3316347122192L141.04791666666665,307.9131507873535L142.83333333333331,305.98460388183594L144.61875,335.6145483016968L146.40416666666667,253.02060813903807L148.18958333333333,425.11487236022947L149.975,400.6300926208496L151.76041666666669,243.4717842102051L153.54583333333335,298.474704170227L155.33124999999998,282.5130662918091L157.11666666666665,272.7705966949463L158.90208333333334,263.9726261138916L160.6875,302.22379360198977L162.47291666666666,281.3706790924072L164.25833333333335,134.1558204650879L166.04375000000002,353.97263221740724L167.82916666666665,148.4782653808594L169.61458333333331,334.0510734558105L171.4,366.4045690536499L173.18541666666667,340.94911613464353L174.97083333333333,267.3898645401001L176.75625,542.5888339996338L178.54166666666669,274.1509962081909L180.32708333333335,159.53009033203125L182.11249999999998,316.7566385269165L183.89791666666665,11.933045768737776L185.68333333333334,379.53393230438235L187.46875,234.5643711090088L189.25416666666666,-139.12732963562007L191.03958333333335,300.77421951293945L192.82500000000002,343.7651397705078L194.61041666666665,416.0867992401123L196.39583333333331,25.057663154602043L198.18125,127.04788112640381L199.96666666666667,223.35183391571047L201.75208333333333,387.4513292312622L203.5375,318.4539323806763L205.32291666666669,274.225276184082L207.10833333333335,354.3615774154663L208.89374999999998,349.6743886947632L210.67916666666665,268.8501527786255L212.46458333333334,50.94132251739501L214.25,298.75435066223145L216.03541666666666,153.4737195968628L217.82083333333333,327.31956748962403L219.60625,362.7196207046509L221.39166666666668,268.38721523284914L223.17708333333334,284.4320495605469L224.9625,-184.82238616943357L226.74791666666667,253.3656900405884L228.53333333333333,244.09270153045657L230.31875,162.03583507537843L232.10416666666666,264.1520341873169L233.88958333333332,291.5092845916748L235.675,-14.586631393432635L237.46041666666667,265.2332284927368L239.24583333333334,299.87444667816163L241.03125,330.62966442108154L242.81666666666666,246.38919677734373L244.60208333333333,61.49720458984376L246.3875,205.93724231719972L248.17291666666668,226.055251121521L249.95833333333334,238.6745777130127L251.74375,225.83435268402098L253.52916666666667,246.6951612472534L255.31458333333333,429.3232320785522L257.09999999999997,-20.34034538269043L258.88541666666663,170.76240196228025L260.6708333333333,50.62895832061769L262.45625,-48.37920265197751L264.2416666666667,-85.22696037292484L266.02708333333334,29.03822135925293L267.8125,299.7668737411499L269.59791666666666,357.6177440643311L271.3833333333333,426.42494678497314L273.16875,218.19919090270997L274.9541666666667,264.4027021408081L276.73958333333337,276.15828132629395L278.52500000000003,-215.3149993896484L280.3104166666667,195.0442600250244L282.0958333333333,228.86775131225585L283.88124999999997,266.6537521362305L285.66666666666663,226.2224349975586L287.4520833333333,174.07336177825925L289.2375,281.4335977554321L291.0229166666667,-61.02793922424315L292.80833333333334,129.8014894485474L294.59375,201.569033241272L296.37916666666666,158.90680007934571L298.1645833333333,204.28258934020994L299.95,147.50816745758056L301.7354166666667,155.2132947921753L303.52083333333337,183.46873607635496L305.30625000000003,134.34543933868406L307.0916666666667,436.1557674407959L308.8770833333333,460.3809627532959L310.66249999999997,120.50671310424804L312.44791666666663,247.0955396652222L314.2333333333333,-212.31000404357906L316.01875,205.69635372161866L317.8041666666667,237.61768798828126L319.58958333333334,163.65374355316163L321.375,400.14105281829836L323.16041666666666,251.87814903259277L324.9458333333333,-146.63212394714355L326.73125,266.52309703826904L328.5166666666667,283.114856338501L330.30208333333337,395.1409965515137L332.08750000000003,184.5169969558716L333.8729166666667,-23.190884399414028L335.6583333333333,126.27840385437014L337.44374999999997,139.5991117477417L339.22916666666663,5.50577850341796L341.0145833333333,60.06575107574463L342.8,295.74187698364256L344.5854166666667,-264.612886428833L346.37083333333334,171.0257255554199L348.15625,210.48291797637938L349.94166666666666,153.5033452987671L351.7270833333333,290.8842685699463L353.5125,239.73714809417726L355.2979166666667,158.65476589202882L357.08333333333337,286.1330825805664L358.86875000000003,436.05063934326176L360.6541666666667,236.1392791748047L362.4395833333333,101.39561862945556L364.22499999999997,175.10947036743164L366.01041666666663,28.270110321044914L367.7958333333333,178.04572257995608L369.58125,256.4226022720337L371.3666666666667,381.24798049926756L373.15208333333334,335.997381401062L374.9375,135.60410022735596L376.72291666666666,-226.68551635742188L378.5083333333333,254.3709505081177L380.29375,72.22818031311033L382.0791666666667,263.5185331344604L383.86458333333337,263.23327789306643L385.65000000000003,429.27433528900144L387.4354166666667,277.8904500961304L389.2208333333333,-98.47583312988284L391.00624999999997,167.54283599853517L392.79166666666663,314.44820671081544L394.5770833333333,-24.427973175048812L396.3625,-194.09523086547847L398.1479166666667,253.76232929229735L399.93333333333334,198.07435092926028L401.71875,-204.0865707397461L403.50416666666666,-38.950032043457L405.2895833333333,92.57988700866701L407.075,318.81778202056887L408.8604166666667,168.1309637069702L410.64583333333337,-74.1101314544678L412.43125000000003,195.02045879364016L414.2166666666667,-6.29157867431639L416.0020833333333,129.25442066192625L417.78749999999997,214.7408935546875L419.57291666666663,187.38738231658937L421.3583333333333,94.09849185943602L423.14375,116.72540931701661L424.9291666666667,135.87936038970946L426.71458333333334,115.4402147293091L428.5,126.35160522460939L430.28541666666666,146.59739284515382L432.0708333333333,-41.634897232055664L433.85625,227.15269641876222L435.64166666666665,41.72312717437745L437.4270833333333,-25.361614227294922L439.2125,249.47357749938965L440.99791666666664,150.75656814575194L442.78333333333336,224.56224517822267L444.56875,278.7271604537964L446.3541666666667,418.2567380905151L448.13958333333335,143.5274654388428L449.925,190.80080966949464L451.7104166666667,283.86225814819335L453.49583333333334,-230.92889480590816L455.28125,217.83002014160155L457.06666666666666,201.58514041900634L458.8520833333333,199.4198755264282L460.6375,175.38739109039307L462.42291666666665,107.4490411758423L464.2083333333333,264.7226165771484L465.99375,-48.55925788879393L467.77916666666664,184.1513496398926L469.56458333333336,201.28248367309573L471.35,176.23215503692626L473.1354166666667,134.99634189605712L474.92083333333335,253.4273862838745L476.70625,-185.2037811279297L478.4916666666667,218.97010631561278L480.27708333333334,247.3048610687256L482.0625,142.5441366195679L483.84791666666666,375.4808917999268L485.6333333333333,295.66342639923096L487.41875,222.4473871231079L489.20416666666665,258.63590106964114L490.9895833333333,295.83017883300784L492.775,144.30319862365724L494.56041666666664,268.87093391418455L496.34583333333336,226.87082080841066L498.13125,276.54413452148435L499.9166666666667,185.2037811279297L501.70208333333335,258.4230562210083L503.4875,348.9827867507935L505.2729166666667,-231.43627090454106L507.05833333333334,240.40739364624022L508.84375,168.45425777435304L510.62916666666666,176.89808616638186L512.4145833333333,405.11493492126465L514.1999999999999,128.544482421875L515.9854166666667,233.57248535156248L517.7708333333333,-63.54540481567381L519.55625,266.5161220550537L521.3416666666666,299.11151294708253L523.1270833333334,93.53912696838381L524.9125,-240.6284358978271L526.6979166666667,129.083353805542L528.4833333333333,136.0396411895752L530.2687500000001,261.6300384521484L532.0541666666667,154.19825496673582L533.8395833333334,175.39357509613035L535.625,189.25948219299318L537.4104166666666,-245.40550842285154L539.1958333333333,200.8515447616577L540.9812499999999,220.858313369751L542.7666666666667,203.38080310821533L544.5520833333333,208.16909313201904L546.3375,160.89804992675784L548.1229166666666,211.43741207122804L549.9083333333334,-212.12592201232906L551.69375,125.8361036300659L553.4791666666667,203.52087802886962L555.2645833333333,250.79681091308595L557.0500000000001,235.4273275375366L558.8354166666667,100.78541545867921L560.6208333333334,275.9998701095581L562.40625,202.28048152923583L564.1916666666666,170.9104585647583L565.9770833333333,159.2871883392334L567.7624999999999,255.41568794250486L569.5479166666667,369.03356246948243L571.3333333333333,313.6821809768677L573.11875,244.01655197143555L574.9041666666666,-242.09347000122068L576.6895833333334,-33.43375511169437L578.475,268.3363050460815L580.2604166666667,171.8089370727539L582.0458333333333,140.52311725616454L583.8312500000001,151.66432266235353L585.6166666666667,49.69733066558837L587.4020833333334,320.95615367889405L589.1875,405.1012725830078L590.9729166666666,257.609428024292L592.7583333333333,-277.1599464416504L594.5437499999999,112.52711658477784L596.3291666666667,197.58114051818848L598.1145833333333,143.7377935409546L599.9,249.56267032623293L601.6854166666666,231.06853828430178L603.4708333333334,-220.1333465576172L605.25625,424.4185964584351L607.0416666666667,140.25094909667968L608.8270833333333,156.76749362945554L610.6125000000001,-99.43190917968752L612.3979166666667,274.721506690979L614.1833333333334,218.15432090759276L615.96875,254.07713832855222L617.7541666666666,385.9433666229248L619.5395833333333,282.9479600906372L621.3249999999999,-73.76914825439451L623.1104166666667,7.350122261047372L624.8958333333333,32.410014533996566L626.68125,193.8739009857178L628.4666666666666,313.1733667373657L630.2520833333334,385.08731327056887L632.0375,201.6322395324707L633.8229166666667,-47.33784484863281L635.6083333333333,171.78678970336915L637.3937500000001,239.7385143280029L639.1791666666667,234.43493843078613L640.9645833333334,-50.15818290710446L642.75,302.41535396575927L644.5354166666666,351.74941024780276L646.3208333333333,17.26114196777343L648.1062499999999,139.03528861999513L649.8916666666667,356.9311756134033L651.6770833333333,293.7801090240479L653.4625,326.34048118591306L655.2479166666666,-299.17184295654295L657.0333333333334,201.9102321624756L658.81875,233.90038146972654L660.6041666666667,155.88059215545655L662.3895833333333,313.69965438842775L664.1750000000001,239.9800500869751L665.9604166666667,193.50616836547852L667.7458333333334,173.53075122833252L669.53125,368.54509792327883L671.3166666666666,-188.48576240539546L673.1020833333333,355.1689496994019L674.8874999999999,166.8301652908325L676.6729166666667,197.20909347534177L678.4583333333333,-124.09300498962399L680.24375,364.84900398254393L682.0291666666666,63.66419525146483L683.8145833333334,317.60765838623047L685.6,55.57781677246095L687.3854166666667,175.20481910705564L689.1708333333333,293.60645351409914L690.9562500000001,375.4548614501953L692.7416666666667,214.5302059173584L694.5270833333334,158.6778480529785L696.3125,185.44085865020753L698.0979166666666,242.57560672760007L699.8833333333333,-24.221599960327133L701.6687499999999,76.32364597320554L703.4541666666667,168.22962017059325L705.2395833333333,255.15488109588625L707.025,-35.622893142700164L708.8104166666666,383.35442543029785L710.5958333333334,201.65359592437744L712.38125,298.00241870880126L714.1666666666667,275.6801713943481L715.9520833333333,193.62876987457275L717.7375000000001,64.32653102874758L719.5229166666667,281.5993434906006L721.3083333333334,284.09020347595214L723.09375,212.9980825424194L724.8791666666666,187.94343948364258L726.6645833333333,289.57397842407227L728.4499999999999,282.15834884643556L730.2354166666667,160.17308311462403L732.0208333333333,-303.283487701416L733.80625,275.3858558654785L735.5916666666666,-175.4068778991699L737.3770833333334,174.85499134063718L739.1625,105.23164367675781L740.9479166666667,277.89116916656496L742.7333333333333,99.72665615081786L744.5187500000001,-111.28405952453613L746.3041666666667,174.82277698516845L748.0895833333334,187.06135578155516L749.875,-29.892908477783187L751.6604166666666,273.99416694641116L753.4458333333333,187.9308557510376L755.2312499999999,119.01643962860106L757.0166666666667,188.96113986968993L758.8020833333333,243.40908126831056L760.5875,162.23465805053712L762.3729166666666,294.16869468688964L764.1583333333334,140.25619831085203L765.94375,-89.06981658935547L767.7291666666667,207.499782371521L769.5145833333333,424.9933494567871L773.0854166666667,-85.42225990295412L774.8708333333334,276.1546859741211L776.65625,270.19423923492434L778.4416666666666,315.6825630187988L780.2270833333333,262.7390607833862L782.0124999999999,257.51494216918945L783.7979166666667,120.3300374984741L785.5833333333333,239.68393688201905" style="fill: none;" fill="none"></path></g></g></g></g></g></g><g transform="translate(30, 377)" clip-path="url(#clip_1)"><clipPath id="clip_1"><rect width="857" height="23"></rect></clipPath><g><g><line x1="0" y1="0" x2="0" y2="5" style="visibility: inherit;" fill="rgb(0, 0, 0)" stroke="rgb(204, 204, 204)" stroke-width="1px"></line><line x1="71.41666666666666" y1="0" x2="71.41666666666666" y2="5" style="visibility: inherit;" fill="rgb(0, 0, 0)" stroke="rgb(204, 204, 204)" stroke-width="1px"></line><line x1="142.83333333333331" y1="0" x2="142.83333333333331" y2="5" style="visibility: inherit;" fill="rgb(0, 0, 0)" stroke="rgb(204, 204, 204)" stroke-width="1px"></line><line x1="214.25" y1="0" x2="214.25" y2="5" style="visibility: inherit;" fill="rgb(0, 0, 0)" stroke="rgb(204, 204, 204)" stroke-width="1px"></line><line x1="285.66666666666663" y1="0" x2="285.66666666666663" y2="5" style="visibility: inherit;" fill="rgb(0, 0, 0)" stroke="rgb(204, 204, 204)" stroke-width="1px"></line><line x1="357.08333333333337" y1="0" x2="357.08333333333337" y2="5" style="visibility: inherit;" fill="rgb(0, 0, 0)" stroke="rgb(204, 204, 204)" stroke-width="1px"></line><line x1="428.5" y1="0" x2="428.5" y2="5" style="visibility: inherit;" fill="rgb(0, 0, 0)" stroke="rgb(204, 204, 204)" stroke-width="1px"></line><line x1="499.9166666666667" y1="0" x2="499.9166666666667" y2="5" style="visibility: inherit;" fill="rgb(0, 0, 0)" stroke="rgb(204, 204, 204)" stroke-width="1px"></line><line x1="571.3333333333333" y1="0" x2="571.3333333333333" y2="5" style="visibility: inherit;" fill="rgb(0, 0, 0)" stroke="rgb(204, 204, 204)" stroke-width="1px"></line><line x1="642.75" y1="0" x2="642.75" y2="5" style="visibility: inherit;" fill="rgb(0, 0, 0)" stroke="rgb(204, 204, 204)" stroke-width="1px"></line><line x1="714.1666666666667" y1="0" x2="714.1666666666667" y2="5" style="visibility: inherit;" fill="rgb(0, 0, 0)" stroke="rgb(204, 204, 204)" stroke-width="1px"></line><line x1="785.5833333333333" y1="0" x2="785.5833333333333" y2="5" style="visibility: inherit;" fill="rgb(0, 0, 0)" stroke="rgb(204, 204, 204)" stroke-width="1px"></line><line x1="857" y1="0" x2="857" y2="5" style="visibility: inherit;" fill="rgb(0, 0, 0)" stroke="rgb(204, 204, 204)" stroke-width="1px"></line></g><g transform="translate(0, 8)"><text x="0" y="0" dx="0em" dy="0.95em" style="text-anchor: middle; visibility: hidden; font-family: Roboto, sans-serif; font-size: 12px; font-weight: 200;" fill="rgb(33, 33, 33)" stroke="none" stroke-width="1px">-20k</text><text x="71.41666666666666" y="0" dx="0em" dy="0.95em" style="text-anchor: middle; visibility: inherit; font-family: Roboto, sans-serif; font-size: 12px; font-weight: 200;" fill="rgb(33, 33, 33)" stroke="none" stroke-width="1px">0</text><text x="142.83333333333331" y="0" dx="0em" dy="0.95em" style="text-anchor: middle; visibility: inherit; font-family: Roboto, sans-serif; font-size: 12px; font-weight: 200;" fill="rgb(33, 33, 33)" stroke="none" stroke-width="1px">20k</text><text x="214.25" y="0" dx="0em" dy="0.95em" style="text-anchor: middle; visibility: inherit; font-family: Roboto, sans-serif; font-size: 12px; font-weight: 200;" fill="rgb(33, 33, 33)" stroke="none" stroke-width="1px">40k</text><text x="285.66666666666663" y="0" dx="0em" dy="0.95em" style="text-anchor: middle; visibility: inherit; font-family: Roboto, sans-serif; font-size: 12px; font-weight: 200;" fill="rgb(33, 33, 33)" stroke="none" stroke-width="1px">60k</text><text x="357.08333333333337" y="0" dx="0em" dy="0.95em" style="text-anchor: middle; visibility: inherit; font-family: Roboto, sans-serif; font-size: 12px; font-weight: 200;" fill="rgb(33, 33, 33)" stroke="none" stroke-width="1px">80k</text><text x="428.5" y="0" dx="0em" dy="0.95em" style="text-anchor: middle; visibility: inherit; font-family: Roboto, sans-serif; font-size: 12px; font-weight: 200;" fill="rgb(33, 33, 33)" stroke="none" stroke-width="1px">100k</text><text x="499.9166666666667" y="0" dx="0em" dy="0.95em" style="text-anchor: middle; visibility: inherit; font-family: Roboto, sans-serif; font-size: 12px; font-weight: 200;" fill="rgb(33, 33, 33)" stroke="none" stroke-width="1px">120k</text><text x="571.3333333333333" y="0" dx="0em" dy="0.95em" style="text-anchor: middle; visibility: inherit; font-family: Roboto, sans-serif; font-size: 12px; font-weight: 200;" fill="rgb(33, 33, 33)" stroke="none" stroke-width="1px">140k</text><text x="642.75" y="0" dx="0em" dy="0.95em" style="text-anchor: middle; visibility: inherit; font-family: Roboto, sans-serif; font-size: 12px; font-weight: 200;" fill="rgb(33, 33, 33)" stroke="none" stroke-width="1px">160k</text><text x="714.1666666666667" y="0" dx="0em" dy="0.95em" style="text-anchor: middle; visibility: inherit; font-family: Roboto, sans-serif; font-size: 12px; font-weight: 200;" fill="rgb(33, 33, 33)" stroke="none" stroke-width="1px">180k</text><text x="785.5833333333333" y="0" dx="0em" dy="0.95em" style="text-anchor: middle; visibility: inherit; font-family: Roboto, sans-serif; font-size: 12px; font-weight: 200;" fill="rgb(33, 33, 33)" stroke="none" stroke-width="1px">200k</text><text x="857" y="0" dx="0em" dy="0.95em" style="text-anchor: middle; visibility: hidden; font-family: Roboto, sans-serif; font-size: 12px; font-weight: 200;" fill="rgb(33, 33, 33)" stroke="none" stroke-width="1px">220k</text></g><line x1="0" y1="0" x2="857" y2="0" fill="rgb(0, 0, 0)" stroke="rgb(204, 204, 204)" stroke-width="1px"></line></g></g></g></g></svg>