<svg viewBox="0 0 1112.5999755859375 400" xmlns="http://www.w3.org/2000/svg"><g><g><g><g><g><line x1="30.78125" y1="356.56582585942397" x2="25.78125" y2="356.56582585942397" style="visibility: inherit;" fill="rgb(0, 0, 0)" stroke="rgb(204, 204, 204)" stroke-width="1px"></line><line x1="30.78125" y1="327.72570469593705" x2="25.78125" y2="327.72570469593705" style="visibility: inherit;" fill="rgb(0, 0, 0)" stroke="rgb(204, 204, 204)" stroke-width="1px"></line><line x1="30.78125" y1="298.8855835324501" x2="25.78125" y2="298.8855835324501" style="visibility: inherit;" fill="rgb(0, 0, 0)" stroke="rgb(204, 204, 204)" stroke-width="1px"></line><line x1="30.78125" y1="270.0454623689632" x2="25.78125" y2="270.0454623689632" style="visibility: inherit;" fill="rgb(0, 0, 0)" stroke="rgb(204, 204, 204)" stroke-width="1px"></line><line x1="30.78125" y1="241.20534120547623" x2="25.78125" y2="241.20534120547623" style="visibility: inherit;" fill="rgb(0, 0, 0)" stroke="rgb(204, 204, 204)" stroke-width="1px"></line><line x1="30.78125" y1="212.36522004198935" x2="25.78125" y2="212.36522004198935" style="visibility: inherit;" fill="rgb(0, 0, 0)" stroke="rgb(204, 204, 204)" stroke-width="1px"></line><line x1="30.78125" y1="183.52509887850238" x2="25.78125" y2="183.52509887850238" style="visibility: inherit;" fill="rgb(0, 0, 0)" stroke="rgb(204, 204, 204)" stroke-width="1px"></line><line x1="30.78125" y1="154.68497771501546" x2="25.78125" y2="154.68497771501546" style="visibility: inherit;" fill="rgb(0, 0, 0)" stroke="rgb(204, 204, 204)" stroke-width="1px"></line><line x1="30.78125" y1="125.84485655152854" x2="25.78125" y2="125.84485655152854" style="visibility: inherit;" fill="rgb(0, 0, 0)" stroke="rgb(204, 204, 204)" stroke-width="1px"></line><line x1="30.78125" y1="97.00473538804164" x2="25.78125" y2="97.00473538804164" style="visibility: inherit;" fill="rgb(0, 0, 0)" stroke="rgb(204, 204, 204)" stroke-width="1px"></line><line x1="30.78125" y1="68.16461422455471" x2="25.78125" y2="68.16461422455471" style="visibility: inherit;" fill="rgb(0, 0, 0)" stroke="rgb(204, 204, 204)" stroke-width="1px"></line><line x1="30.78125" y1="39.32449306106778" x2="25.78125" y2="39.32449306106778" style="visibility: inherit;" fill="rgb(0, 0, 0)" stroke="rgb(204, 204, 204)" stroke-width="1px"></line><line x1="30.78125" y1="10.48437189758084" x2="25.78125" y2="10.48437189758084" style="visibility: inherit;" fill="rgb(0, 0, 0)" stroke="rgb(204, 204, 204)" stroke-width="1px"></line></g><g transform="translate(20.78125, 0)"><text x="0" y="356.56582585942397" dx="0em" dy="0.3em" style="text-anchor: end; visibility: inherit; font-family: Roboto, sans-serif; font-size: 12px; font-weight: 200;" fill="rgb(50, 49, 63)" stroke="none" stroke-width="1px">14</text><text x="0" y="327.72570469593705" dx="0em" dy="0.3em" style="text-anchor: end; visibility: inherit; font-family: Roboto, sans-serif; font-size: 12px; font-weight: 200;" fill="rgb(50, 49, 63)" stroke="none" stroke-width="1px">16</text><text x="0" y="298.8855835324501" dx="0em" dy="0.3em" style="text-anchor: end; visibility: inherit; font-family: Roboto, sans-serif; font-size: 12px; font-weight: 200;" fill="rgb(50, 49, 63)" stroke="none" stroke-width="1px">18</text><text x="0" y="270.0454623689632" dx="0em" dy="0.3em" style="text-anchor: end; visibility: inherit; font-family: Roboto, sans-serif; font-size: 12px; font-weight: 200;" fill="rgb(50, 49, 63)" stroke="none" stroke-width="1px">20</text><text x="0" y="241.20534120547623" dx="0em" dy="0.3em" style="text-anchor: end; visibility: inherit; font-family: Roboto, sans-serif; font-size: 12px; font-weight: 200;" fill="rgb(50, 49, 63)" stroke="none" stroke-width="1px">22</text><text x="0" y="212.36522004198935" dx="0em" dy="0.3em" style="text-anchor: end; visibility: inherit; font-family: Roboto, sans-serif; font-size: 12px; font-weight: 200;" fill="rgb(50, 49, 63)" stroke="none" stroke-width="1px">24</text><text x="0" y="183.52509887850238" dx="0em" dy="0.3em" style="text-anchor: end; visibility: inherit; font-family: Roboto, sans-serif; font-size: 12px; font-weight: 200;" fill="rgb(50, 49, 63)" stroke="none" stroke-width="1px">26</text><text x="0" y="154.68497771501546" dx="0em" dy="0.3em" style="text-anchor: end; visibility: inherit; font-family: Roboto, sans-serif; font-size: 12px; font-weight: 200;" fill="rgb(50, 49, 63)" stroke="none" stroke-width="1px">28</text><text x="0" y="125.84485655152854" dx="0em" dy="0.3em" style="text-anchor: end; visibility: inherit; font-family: Roboto, sans-serif; font-size: 12px; font-weight: 200;" fill="rgb(50, 49, 63)" stroke="none" stroke-width="1px">30</text><text x="0" y="97.00473538804164" dx="0em" dy="0.3em" style="text-anchor: end; visibility: inherit; font-family: Roboto, sans-serif; font-size: 12px; font-weight: 200;" fill="rgb(50, 49, 63)" stroke="none" stroke-width="1px">32</text><text x="0" y="68.16461422455471" dx="0em" dy="0.3em" style="text-anchor: end; visibility: inherit; font-family: Roboto, sans-serif; font-size: 12px; font-weight: 200;" fill="rgb(50, 49, 63)" stroke="none" stroke-width="1px">34</text><text x="0" y="39.32449306106778" dx="0em" dy="0.3em" style="text-anchor: end; visibility: inherit; font-family: Roboto, sans-serif; font-size: 12px; font-weight: 200;" fill="rgb(50, 49, 63)" stroke="none" stroke-width="1px">36</text><text x="0" y="10.48437189758084" dx="0em" dy="0.3em" style="text-anchor: end; visibility: inherit; font-family: Roboto, sans-serif; font-size: 12px; font-weight: 200;" fill="rgb(50, 49, 63)" stroke="none" stroke-width="1px">38</text></g><line x1="30.78125" y1="0" x2="30.78125" y2="378" fill="rgb(0, 0, 0)" stroke="rgb(204, 204, 204)" stroke-width="1px"></line></g></g><g transform="translate(30, 0)" clip-path="url(#clip_0)"><clipPath id="clip_0"><rect width="1081" height="378"></rect></clipPath><g><g><g><line x1="32.29795594156878" y1="0" x2="32.29795594156878" y2="378" fill="rgb(0, 0, 0)" stroke="rgb(60, 60, 60)" stroke-width="1px" opacity="0.25"></line><line x1="135.6920400756521" y1="0" x2="135.6920400756521" y2="378" fill="rgb(0, 0, 0)" stroke="rgb(60, 60, 60)" stroke-width="1px" opacity="0.25"></line><line x1="239.0861242097354" y1="0" x2="239.0861242097354" y2="378" fill="rgb(0, 0, 0)" stroke="rgb(60, 60, 60)" stroke-width="1px" opacity="0.25"></line><line x1="342.48020834381873" y1="0" x2="342.48020834381873" y2="378" fill="rgb(0, 0, 0)" stroke="rgb(60, 60, 60)" stroke-width="1px" opacity="0.25"></line><line x1="445.8742924779021" y1="0" x2="445.8742924779021" y2="378" fill="rgb(0, 0, 0)" stroke="rgb(60, 60, 60)" stroke-width="1px" opacity="0.25"></line><line x1="549.2683766119853" y1="0" x2="549.2683766119853" y2="378" fill="rgb(0, 0, 0)" stroke="rgb(60, 60, 60)" stroke-width="1px" opacity="0.25"></line><line x1="652.6624607460687" y1="0" x2="652.6624607460687" y2="378" fill="rgb(0, 0, 0)" stroke="rgb(60, 60, 60)" stroke-width="1px" opacity="0.25"></line><line x1="756.056544880152" y1="0" x2="756.056544880152" y2="378" fill="rgb(0, 0, 0)" stroke="rgb(60, 60, 60)" stroke-width="1px" opacity="0.25"></line><line x1="859.4506290142353" y1="0" x2="859.4506290142353" y2="378" fill="rgb(0, 0, 0)" stroke="rgb(60, 60, 60)" stroke-width="1px" opacity="0.25"></line><line x1="962.8447131483186" y1="0" x2="962.8447131483186" y2="378" fill="rgb(0, 0, 0)" stroke="rgb(60, 60, 60)" stroke-width="1px" opacity="0.25"></line><line x1="1066.238797282402" y1="0" x2="1066.238797282402" y2="378" fill="rgb(0, 0, 0)" stroke="rgb(60, 60, 60)" stroke-width="1px" opacity="0.25"></line></g><g><line x1="0" y1="356.56582585942397" x2="1081.81875" y2="356.56582585942397" fill="rgb(0, 0, 0)" stroke="rgb(60, 60, 60)" stroke-width="1px" opacity="0.25"></line><line x1="0" y1="327.72570469593705" x2="1081.81875" y2="327.72570469593705" fill="rgb(0, 0, 0)" stroke="rgb(60, 60, 60)" stroke-width="1px" opacity="0.25"></line><line x1="0" y1="298.8855835324501" x2="1081.81875" y2="298.8855835324501" fill="rgb(0, 0, 0)" stroke="rgb(60, 60, 60)" stroke-width="1px" opacity="0.25"></line><line x1="0" y1="270.0454623689632" x2="1081.81875" y2="270.0454623689632" fill="rgb(0, 0, 0)" stroke="rgb(60, 60, 60)" stroke-width="1px" opacity="0.25"></line><line x1="0" y1="241.20534120547623" x2="1081.81875" y2="241.20534120547623" fill="rgb(0, 0, 0)" stroke="rgb(60, 60, 60)" stroke-width="1px" opacity="0.25"></line><line x1="0" y1="212.36522004198935" x2="1081.81875" y2="212.36522004198935" fill="rgb(0, 0, 0)" stroke="rgb(60, 60, 60)" stroke-width="1px" opacity="0.25"></line><line x1="0" y1="183.52509887850238" x2="1081.81875" y2="183.52509887850238" fill="rgb(0, 0, 0)" stroke="rgb(60, 60, 60)" stroke-width="1px" opacity="0.25"></line><line x1="0" y1="154.68497771501546" x2="1081.81875" y2="154.68497771501546" fill="rgb(0, 0, 0)" stroke="rgb(60, 60, 60)" stroke-width="1px" opacity="0.25"></line><line x1="0" y1="125.84485655152854" x2="1081.81875" y2="125.84485655152854" fill="rgb(0, 0, 0)" stroke="rgb(60, 60, 60)" stroke-width="1px" opacity="0.25"></line><line x1="0" y1="97.00473538804164" x2="1081.81875" y2="97.00473538804164" fill="rgb(0, 0, 0)" stroke="rgb(60, 60, 60)" stroke-width="1px" opacity="0.25"></line><line x1="0" y1="68.16461422455471" x2="1081.81875" y2="68.16461422455471" fill="rgb(0, 0, 0)" stroke="rgb(60, 60, 60)" stroke-width="1px" opacity="0.25"></line><line x1="0" y1="39.32449306106778" x2="1081.81875" y2="39.32449306106778" fill="rgb(0, 0, 0)" stroke="rgb(60, 60, 60)" stroke-width="1px" opacity="0.25"></line><line x1="0" y1="10.48437189758084" x2="1081.81875" y2="10.48437189758084" fill="rgb(0, 0, 0)" stroke="rgb(60, 60, 60)" stroke-width="1px" opacity="0.25"></line></g></g></g><g><g><line x1="0" y1="558.4466740038325" x2="1081.81875" y2="558.4466740038325" fill="rgb(0, 0, 0)" stroke="rgb(153, 153, 153)" stroke-width="1.5px"></line></g></g><g><g><line x1="32.29795594156878" y1="0" x2="32.29795594156878" y2="378" fill="rgb(0, 0, 0)" stroke="rgb(153, 153, 153)" stroke-width="1.5px"></line></g></g><g><g><g><g><g><path stroke="rgb(255, 112, 67)" stroke-width="2px" d="M34.88280804492087,393.7842751164137L37.46766014827295,362.87250307271626L40.05251225162503,342.99340046125906L42.637364354977116,316.96169122436777L45.22221645832919,322.40577193862924L47.807068561681284,309.4415575263661L50.39192066503337,291.0607042562756L52.976772768385445,283.82853902180204L55.56162487173753,248.6926291571826L58.14647697508961,297.0815019741596L60.731329078441696,258.64181289123434L63.31618118179378,251.60095189111735L65.90103328514587,240.16196108968396L68.48588538849795,235.95906043648733L71.07073749185002,243.24057102200194L73.65558959520212,207.66601239740055L76.24044169855419,194.83938990409055L78.82529380190627,209.40965591302393L81.41014590525836,257.95709538796666L83.99499800861044,173.1616630880726L86.57985011196251,243.2241894949361L89.1647022153146,205.63841086180906L91.7495543186667,219.17712800323173L94.33440642201877,216.86411636609213L96.91925852537086,215.5353374548785L99.50411062872294,194.2948489501775L102.08896273207502,212.6386187052409L104.67381483542711,200.78330624780946L107.25866693877919,220.4981819827904L109.84351904213126,200.02870382399544L112.42837114548335,215.4399357371852L115.01322324883543,153.57795599184718L117.59807535218752,181.91556032781241L120.18292745553961,208.40309256646648L122.76777955889169,165.52922145231284L125.35263166224377,171.70312238680035L127.93748376559586,194.93693504241435L130.52233586894795,208.59910129431518L133.1071879723,211.07144817934568L135.6920400756521,212.2597925073512L138.27689217900416,217.50612105339806L140.86174428235626,208.01721132344937L143.44659638570835,228.65394205243337L146.0314484890604,237.2898583951302L148.6163005924125,218.42650285962048L151.2011526957646,215.52382575154485L153.78600479911665,211.3401209701026L156.37085690246877,207.33931983281516L158.95570900582086,203.59276733322275L161.54056110917293,207.19718758418662L164.12541321252502,206.16935512417461L166.7102653158771,183.02907814214853L169.29511741922917,202.77644237584965L171.87996952258126,183.18463578086445L174.46482162593335,199.82181850574932L177.04967372928542,214.7541479449427L179.6345258326375,219.81891247076072L182.2193779359896,211.6033535274593L184.80423003934166,248.77890740964912L187.38908214269375,230.01379004787486L189.97393424604584,201.2179513902955L192.5587863493979,207.99579408464655L195.14363845275,165.42510262626865L197.7284905561021,196.12488460797013L200.31334265945415,192.36470228562692L202.89819476280624,132.93451370248837L205.48304686615836,164.5804534833749L208.06789896951042,190.1455417506234L210.65275107286251,216.54966326188932L213.2376031762146,172.56546421554683L215.82245527956667,161.77924316332337L218.40730738291876,170.04182176257987L220.99215948627085,200.10626190763816L223.5770115896229,207.58846294355328L226.161863692975,205.3108880552457L228.7467157963271,216.20503615731053L231.33156789967916,222.0243945643255L233.91642000303125,213.15006394928955L236.50127210638334,174.48585249099693L239.0861242097354,189.2022208817385L241.6709763130875,175.8043973398807L244.25582841643958,194.36376855692168L246.84068051979165,210.9155282840442L249.42553262314374,206.41391566700239L252.01038472649583,206.16777550292517L254.59523682984792,134.2251058185037L257.1800889332,158.10139902266386L259.7649410365521,171.0084263394315L262.34979313990414,166.1981070750596L264.9346452432562,178.9354887532697L267.5194973466083,190.76352209102618L270.1043494499604,151.02828212201422L272.68920155331244,169.9990143372493L275.2740536566646,186.68149042882231L277.8589057600166,201.39646258835626L280.4437578633687,197.33682363625596L283.02860996672086,166.6129370456537L285.6134620700729,170.27764057625555L288.198314173425,175.554477609655L290.7831662767771,180.6513114365925L293.3680183801292,181.74488310886875L295.9528704834812,185.59268789754972L298.53772258683335,215.84309857250116L301.1225746901854,165.1957213340279L303.7074267935375,164.04563126735871L306.29227889688957,144.9754017875032L308.87713100024166,118.38521445171892L311.4619831035937,96.79346917345829L314.04683520694584,101.32076516790175L316.6316873102979,145.4580824840449L319.21653941364997,180.79153976780898L321.80139151700206,212.5189778695471L324.38624362035415,199.69731856081208L326.9710957237062,199.07336733782722L329.55594782705833,200.49757659372528L332.1407999304104,126.15767793260001L334.72565203376246,144.337880709813L337.3105041371146,160.42092856656996L339.89535624046664,175.8519394665501L342.48020834381873,178.92463574086892L345.0650604471708,172.78955010913052L347.6499125505229,185.53439906813634L350.23476465387495,140.78538154524924L352.8196167572271,143.13249010038834L355.40446886057913,155.52104519945604L357.9893209639312,156.42694232523678L360.5741730672833,163.91288516395286L363.1590251706354,159.71807842112437L365.74387727398744,158.38006337229632L368.3287293773396,161.90028007331003L370.9135814806916,156.49664441824524L373.4984335840437,199.43083666370322L376.0832856873958,228.89775820737927L378.6681377907479,194.57783399709817L381.2529898941,193.35371552377893L383.8378419974521,122.33111953931314L386.42269410080416,143.67169460145146L389.0075462041562,161.3599396278629L391.59239830750835,160.6565517936394L394.1772504108604,196.41660213201015L396.7621025142125,195.1887060261192L399.34695461756456,133.48069749982693L401.93180672091665,159.66781085909935L404.5166588242687,177.91858470242988L407.10151092762084,206.00882331729332L409.68636303097287,190.63791784813952L412.27121513432496,149.63648615870235L414.85606723767705,147.9041278530469L417.44091934102914,148.90275440614303L420.0257714443812,128.98591984472688L422.6106235477333,125.3833852599324L425.19547565108536,159.27983812457296L427.78032775443745,93.88455721018565L430.3651798577896,121.29922077359107L432.95003196114163,143.78489005323368L435.5348840644937,148.55853151562908L438.1197361678458,172.44172155323875L440.7045882711979,178.94622893556772L443.28944037454994,170.44349184276825L445.8742924779021,184.8457758418088L448.4591445812541,216.42423113019905L451.0439966846062,204.785267967871L453.6288487879583,177.18638080713401L456.2137008913104,171.90511968072119L458.79855299466243,146.2702360271193L461.3834050980146,153.8046735001169L463.9682572013666,170.3168410594357L466.5531093047187,199.32217359689167L469.1379614080708,209.8021223994045L471.7228135114229,185.4303224002841L474.3076656147749,115.37765917228027L476.89251771812707,146.9467338661469L479.47736982147916,138.02070090274717L482.0622219248312,161.93212066196938L484.64707402818334,176.23532903885905L487.2319261315354,210.2212021467555L489.81677823488747,207.4512958196536L492.40163033823956,148.20606708923086L494.98648244159165,153.35925159852692L497.5713345449437,178.92738878107608L500.15618664829583,142.42089662202238L502.74103875164786,94.55825188749982L505.32589085499995,134.36197167243014L507.91074295835205,149.72405477235586L510.49559506170414,97.41149185695997L513.0804471650562,91.28951264628925L515.6652992684083,107.74013839355717L518.2501513717604,152.22445709876408L520.8350034751124,155.86026796165203L523.4198555784645,120.97935376197552L526.0047076818166,141.2272446668708L528.5895597851687,122.5756420626235L531.1744118885207,132.1229459859274L533.7592639918729,150.93058688668097L536.344116095225,158.0301391812257L538.928968198577,148.01685780468168L541.5138203019292,145.4707618754812L544.0986724052813,146.87362033756813L546.6835245086332,144.58818720620434L549.2683766119853,144.88634814407874L551.8532287153375,148.16280952392125L554.4380808186895,121.32952426849883L557.0229329220416,146.35351474989616L559.6077850253937,132.99755761008075L562.1926371287458,114.7201527148099L564.7774892320979,145.8029417637893L567.36234133545,149.34911115786667L569.947193438802,162.7689330498549L572.5320455421542,179.10794936466354L575.1168976455062,210.25910411340618L577.7017497488582,186.9167703821166L580.2866018522104,180.1440968033706L582.8714539555625,190.3187072437902L585.4563060589145,117.66146170386463L588.0411581622666,142.72632647689133L590.6260102656188,155.27981139117992L593.2108623689708,162.48062116281415L595.7957144723229,163.12418520619323L598.380566575675,153.11589263390226L600.965418679027,171.1734580474957L603.5502707823791,134.0765001183463L606.1351228857312,147.42258062428357L608.7199749890832,158.05125800575314L611.3048270924354,160.59581449801792L613.8896791957875,155.81355185620131L616.4745312991395,171.0639060465117L619.0593834024916,113.10443148251144L621.6442355058438,140.16653923742317L624.2290876091957,160.7389644220278L626.8139397125478,157.05423923417854L629.3987918159,190.48225952110317L631.983643919252,198.32715989952587L634.5684960226041,191.83219326273866L637.1533481259562,193.47198318488134L639.7382002293083,200.14650688503116L642.3230523326604,180.96789766334408L644.9079044360125,188.51934528067653L647.4927565393644,186.6242809553164L650.0776086427167,193.0871595276173L652.6624607460687,182.9899961723993L655.2473128494207,188.13410009660038L657.8321649527728,205.07601922041405L660.417017056125,126.43822136644361L663.001869159477,151.4466750459352L665.5867212628291,155.44306207252626L668.1715733661812,159.13278306253824L670.7564254695333,196.2633348588796L673.3412775728854,176.22694253974646L675.9261296762375,180.2741805172388L678.5109817795897,137.24408323868002L681.0958338829416,161.92477514399715L683.6806859862937,181.72021958531653L686.2655380896458,162.14532434298468L688.8503901929979,99.27342166990039L691.43524229635,118.11544086506711L694.0200943997021,130.4849503715759L696.6049465030541,157.12173445226145L699.1897986064063,156.6669579376553L701.7746507097584,159.6369334115475L704.3595028131103,163.54037461479612L706.9443549164624,99.3795693373455L709.5292070198146,129.15951844621662L712.1140591231666,150.08848330011892L714.6989112265187,159.97183826774534L717.2837633298708,166.63444999873187L719.8686154332229,163.39964242955637L722.453467536575,169.19117872503702L725.0383196399271,107.8617616408917L727.623171743279,122.77162209695166L730.2080238466312,143.60315272719052L732.7928759499833,163.33519382415437L735.3777280533353,172.8229184145818L737.9625801566875,157.91561121638307L740.5474322600396,175.77868632306402L743.1322843633916,175.21761309129187L745.7171364667437,170.08141868434052L748.3019885700959,165.22136505544773L750.8868406734479,177.01280012385513L753.4716927768,201.47096762482465L756.056544880152,207.67721799907534L758.6413969835041,200.7422669957892L761.2262490868562,122.20743998810562L763.8111011902083,107.01106080923856L766.3959532935603,144.06344602585995L768.9808053969125,151.526383851094L771.5656575002646,151.21747899074668L774.1505096036166,152.73671811072808L776.7353617069688,138.04751673463727L779.3202138103209,170.73605066955884L781.9050659136728,203.22320511279645L784.4899180170249,200.14954198192444L787.0747701203771,116.48670455899867L789.6596222237291,125.9103395775273L792.2444743270812,144.57761531374626L794.8293264304333,147.54005687923836L797.4141785337854,165.50851528589973L799.9990306371375,173.46002529592928L802.5838827404896,109.19794972086153L805.1687348438415,169.25585627366638L807.7535869471938,161.81352126287683L810.3384390505458,159.87511837591174L812.9232911538978,119.51408290883256L815.5081432572499,152.54218230467276L818.0929953606021,163.70437620281172L820.6778474639541,175.89781141147915L823.2626995673062,203.38914044851907L825.8475516706584,204.1258476655771L828.4324037740104,149.99087132865327L831.0172558773625,129.9209708864938L833.6021079807145,121.71314377502186L836.1869600840666,141.49209763437275L838.7718121874187,171.61204844874615L841.3566642907708,200.68670822841577L843.9415163941228,190.06324651179753L846.526368497475,145.597246937346L849.1112206008271,152.44327589498025L851.6960727041791,166.94737057164224L854.2809248075312,174.83839092418856L856.8657769108834,136.03082752998847L859.4506290142353,166.68933205289827L862.0354811175874,192.63244622903358L864.6203332209395,157.02228192325077L867.2051853242916,154.2873830428596L869.7900374276437,185.9840765099318L872.3748895309958,195.3401063194035L874.9597416343478,205.93539570787917L877.5445937377,116.59044086604295L880.1294458410521,139.6480184080709L882.714297944404,158.37699348532567L885.2991500477563,157.67750756630303L887.8840021511083,181.403815360814L890.4688542544603,184.36064873684043L893.0537063578124,179.02433825961535L895.6385584611646,172.76635329674718L898.2234105645166,198.84836543467887L900.8082626678687,129.27297057589763L903.3931147712208,170.70581200653322L905.9779668745729,166.75006136291464L908.562818977925,169.02452593514192L911.147671081277,121.23062934790958L913.732523184629,167.36143612064194L916.3173752879812,148.95924975241957L918.9022273913333,176.77077743006495L921.4870794946853,153.3676548823264L924.0719315980374,157.6284722913727L926.6567837013896,178.30017484424877L929.2416358047416,203.2258382959507L931.8264879080937,193.56008748761155L934.4113400114459,179.2153384982306L936.9961921147979,174.70317593921092L939.5810442181499,180.73738003349305L942.165896321502,143.5384660605679L944.7507484248541,136.60233823456184L947.3356005282062,146.50209088379086L949.9204526315583,165.74133269748296L952.5053047349103,132.79646271572543L955.0901568382625,177.13222843170067L957.6750089416146,175.93382611880932L960.2598610449666,189.9559609807409L962.8447131483186,194.95398292076385L965.4295652516709,185.3990965544633L968.0144173550228,159.883182055512L970.5992694583749,177.81593700033972L973.1841215617271,188.9566865390073L975.7689736650791,184.7641846362538L978.3538257684312,178.4153734599966L980.9386778717833,190.15535496088674L983.5235299751354,196.06476743955034L986.1083820784875,180.94691442878784L988.6932341818396,100.96827871597078L991.2780862851915,141.51634387748322L993.8629383885437,96.8748006858391L996.4477904918958,123.67923682828207L999.0326425952478,129.10966624619422L1001.6174946985999,158.78448429564816L1004.2023468019521,149.33056269875397L1006.7871989053041,111.37399431954962L1009.3720510086562,132.3738242768642L1011.9569031120083,146.8462002107049L1014.5417552153604,122.33605936159552L1017.1266073187124,154.1240866571775L1019.7114594220645,160.02938938675237L1022.2963115254165,153.02880385801436L1024.8811636287687,159.52985110680228L1027.466015732121,171.7609050637071L1030.050867835473,166.68001382524125L1032.6357199388249,183.81712153404675L1035.220572042177,170.55108353832392L1037.805424145529,127.50504134745995L1040.3902762488813,147.05196864534688L1042.9751283522332,192.05620368199976L1045.5599804555852,127.1738308743993L1048.1448325589374,102.03675859147388L1050.7296846622896,142.27506126425658L1053.3145367656416,165.5061064957939L1055.8993888689936,186.40435575381895L1058.4842409723458,190.84305586943705L1061.0690930756978,192.7069962899704L1063.65394517905,172.83634583404196L1066.238797282402,179.17486229553032" style="fill: none;" fill="none"></path></g></g></g></g><g opacity="0.2"><g><g><g><path stroke="rgb(255, 112, 67)" stroke-width="2px" d="M32.29795594156878,433.8538388562725L34.88280804492087,369.7425368724985L37.46766014827295,333.1972019107666L40.05251225162503,319.61557579018546L42.637364354977116,282.9746916446824L45.22221645832919,329.93689543551005L47.807068561681284,290.90252348939924L50.39192066503337,264.26124373229214L52.976772768385445,273.16250007672875L55.56162487173753,196.51989788770186L58.14647697508961,369.22592768459623L60.731329078441696,201.191466357339L63.31618118179378,241.0626500237248L65.90103328514587,223.02588506134032L68.48588538849795,229.6596498086393L71.07073749185002,254.15770141486027L73.65558959520212,154.31922842146682L76.24044169855419,175.60271284218703L78.82529380190627,231.2628352930472L81.41014590525836,330.7738171721164L83.99499800861044,45.97316502126362L86.57985011196251,348.315673667956L89.1647022153146,149.26048497775204L91.7495543186667,239.4850433363541L94.33440642201877,213.39461535027965L96.91925852537086,213.54217475469295L99.50411062872294,162.43417054171465L102.08896273207502,240.15424517582858L104.67381483542711,183.0003484820808L107.25866693877919,250.0704846891496L109.84351904213126,169.32449337370468L112.42837114548335,238.5567805406505L115.01322324883543,60.78499375891826L117.59807535218752,224.42196480199567L120.18292745553961,248.13438978609884L122.76777955889169,101.21841588663071L125.35263166224377,180.9639736930112L127.93748376559586,229.78765381015648L130.52233586894795,229.09235059607093L133.1071879723,214.7799684986291L135.6920400756521,214.04230899697663L138.27689217900416,225.3756138661566L140.86174428235626,193.7838467353759L143.44659638570835,259.6090381369713L146.0314484890604,250.24373290693146L148.6163005924125,190.13146955929702L151.2011526957646,211.16981008970293L153.78600479911665,205.06456379817408L156.37085690246877,201.33811812701876L158.95570900582086,197.97293858390984L161.54056110917293,212.60381796058869L164.12541321252502,204.6276064341639L166.7102653158771,148.31866266921048L169.29511741922917,232.39748872634956L171.87996952258126,153.7969258884176L174.46482162593335,224.7775925930608L177.04967372928542,237.15264210372433L179.6345258326375,227.41605925948588L182.2193779359896,199.28001511250903L184.80423003934166,304.5422382329293L187.38908214269375,201.86611400521497L189.97393424604584,158.02419340392748L192.5587863493979,218.16255812617297L195.14363845275,101.56906543870254L197.7284905561021,242.17455758052213L200.31334265945415,186.72442880211224L202.89819476280624,43.78923082778075L205.48304686615836,212.0493631547046L208.06789896951042,228.49317415149602L210.65275107286251,256.1558455287883L213.2376031762146,106.5891656460332L215.82245527956667,145.59991158498818L218.40730738291876,182.43568966146464L220.99215948627085,245.20292212522554L223.5770115896229,218.8117644974259L226.161863692975,201.8945257227842L228.7467157963271,232.5462583104077L231.33156789967916,230.7534321748479L233.91642000303125,199.83856802673563L236.50127210638334,116.48953530355804L239.0861242097354,211.27677346785086L241.6709763130875,155.70766202709387L244.25582841643958,222.20282538248318L246.84068051979165,235.74316787472802L249.42553262314374,199.66149674143966L252.01038472649583,205.79856525680938L254.59523682984792,26.311101291871378L257.1800889332,193.91583882890424L259.7649410365521,190.36896731458293L262.34979313990414,158.98262817850178L264.9346452432562,198.04156127058482L267.5194973466083,208.50557209766092L270.1043494499604,91.42542216849628L272.68920155331244,198.45511266010186L275.2740536566646,211.70520456618195L277.8589057600166,223.46892082765717L280.4437578633687,191.2473652081055L283.02860996672086,120.52710715975037L285.6134620700729,175.77469587215842L288.198314173425,183.46973315975418L290.7831662767771,188.29656217699866L293.3680183801292,183.38524061728305L295.9528704834812,191.36439508057126L298.53772258683335,261.21871458492836L301.1225746901854,89.22465547631796L303.7074267935375,162.32049616735486L306.29227889688957,116.37005756771993L308.87713100024166,78.4999334480427L311.4619831035937,64.40585125606746L314.04683520694584,108.11170915956696L316.6316873102979,211.6640584582598L319.21653941364997,233.79172569345494L321.80139151700206,260.1101350221542L324.38624362035415,180.46482959770967L326.9710957237062,198.13744050334995L329.55594782705833,202.63389047757246L332.1407999304104,14.647829940911969L334.72565203376246,171.60818487563247L337.3105041371146,184.54550035170544L339.89535624046664,198.99845581652033L342.48020834381873,183.5336801523471L345.0650604471708,163.58692166152295L347.6499125505229,204.6516725066451L350.23476465387495,73.66185526091844L352.8196167572271,146.653152933097L355.40446886057913,174.1038778480576L357.9893209639312,157.785788013908L360.5741730672833,175.141799422027L363.1590251706354,153.4258683068817L365.74387727398744,156.3730407990542L368.3287293773396,167.18060512483052L370.9135814806916,148.39119093564813L373.4984335840437,263.8321250318902L376.0832856873958,273.09814052289323L378.6681377907479,143.09794768167652L381.2529898941,191.51753781380017L383.8378419974521,15.797225562614281L386.42269410080416,175.68255719465893L389.0075462041562,187.89230716748008L391.59239830750835,159.60147004230421L394.1772504108604,250.05667763956606L396.7621025142125,193.3468618672829L399.34695461756456,40.918684710388405L401.93180672091665,198.94848089800794L404.5166588242687,205.29474546742574L407.10151092762084,248.14418123958836L409.68636303097287,167.5815596444088L412.27121513432496,88.13433862454664L414.85606723767705,145.30559039456378L417.44091934102914,150.40069423578723L420.0257714443812,99.11066800260258L422.6106235477333,119.97958338274081L425.19547565108536,210.1245174215336L427.78032775443745,-4.208364161395396L430.3651798577896,162.42121611869908L432.95003196114163,177.5133939726976L435.5348840644937,155.71899370922216L438.1197361678458,208.2665066096533L440.7045882711979,188.70299000906124L443.28944037454994,157.689386203569L445.8742924779021,206.4492018403698L448.4591445812541,263.7919140627844L451.0439966846062,187.32682322437893L453.6288487879583,135.78805006602852L456.2137008913104,163.983227991102L458.79855299466243,107.81791054671639L461.3834050980146,165.1063297096134L463.9682572013666,195.0850923984139L466.5531093047187,242.8301724030758L469.1379614080708,225.5220456031737L471.7228135114229,148.87262240160356L474.3076656147749,10.298664330274464L476.89251771812707,194.3003459069468L479.47736982147916,124.63165145764752L482.0622219248312,197.79925030080267L484.64707402818334,197.69014160419363L487.2319261315354,261.20001180860015L489.81677823488747,203.2964363290007L492.40163033823956,59.33822399359679L494.98648244159165,161.08902836247097L497.5713345449437,217.27959455489972L500.15618664829583,87.66115838344196L502.74103875164786,22.76428478571577L505.32589085499995,194.06755134982575L507.91074295835205,172.76717942224445L510.49559506170414,18.94264748386624L513.0804471650562,82.10654383028302L515.6652992684083,132.4160770144592L518.2501513717604,218.95093515657433L520.8350034751124,161.31398425598383L523.4198555784645,68.65798246246078L526.0047076818166,171.5990810242139L528.5895597851687,94.59823815625253L531.1744118885207,146.4439018708833L533.7592639918729,179.1420482378113L536.344116095225,168.67946762304274L538.928968198577,132.99693573986556L541.5138203019292,141.6516179816804L544.0986724052813,148.97790803069847L546.6835245086332,141.16003750915866L549.2683766119853,145.33358955089045L551.8532287153375,153.0775015936852L554.4380808186895,81.0795963853651L557.0229329220416,183.88950047199208L559.6077850253937,112.96362190035752L562.1926371287458,87.3040453719037L564.7774892320979,192.42712533725836L567.36234133545,154.66836524898272L569.947193438802,182.89866588783735L572.5320455421542,203.61647383687648L575.1168976455062,256.9858362365201L577.7017497488582,151.9032697851823L580.2866018522104,169.9850864352516L582.8714539555625,205.5806229044196L585.4563060589145,8.675593393976355L588.0411581622666,180.32362363643134L590.6260102656188,174.11003876261282L593.2108623689708,173.28183582026537L595.7957144723229,164.08953127126182L598.380566575675,138.10345377546588L600.965418679027,198.25980616788584L603.5502707823791,78.43106322462218L606.1351228857312,167.44170138318944L608.7199749890832,173.9942740779575L611.3048270924354,164.41264923641518L613.8896791957875,148.64015789347653L616.4745312991395,193.9394373319772L619.0593834024916,26.165219636511043L621.6442355058438,180.75970086979078L624.2290876091957,191.59760219893482L626.8139397125478,151.5271514524046L629.3987918159,240.62428995149006L631.983643919252,210.09451046715992L634.5684960226041,182.08974330755768L637.1533481259562,195.93166806809555L639.7382002293083,210.1582924352558L642.3230523326604,152.1999838308134L644.9079044360125,199.84651670667515L647.4927565393644,183.78168446727628L650.0776086427167,202.78147738606862L652.6624607460687,167.84425113957215L655.2473128494207,195.850255982902L657.8321649527728,230.4888979061345L660.417017056125,8.481524585487934L663.001869159477,188.95935556517247L665.5867212628291,161.437642612413L668.1715733661812,164.66736454755622L670.7564254695333,251.95916255339165L673.3412775728854,146.1723540610468L675.9261296762375,186.3450374834771L678.5109817795897,72.69893732084192L681.0958338829416,198.94581300197288L683.6806859862937,211.41338624729556L686.2655380896458,132.78298147948695L688.8503901929979,4.965567660273949L691.43524229635,146.37846965781725L694.0200943997021,149.03921463133915L696.6049465030541,197.0769105732897L699.1897986064063,155.984793165746L701.7746507097584,164.0918966223857L704.3595028131103,169.39553641966918L706.9443549164624,3.1383614211695807L709.5292070198146,173.8294421095234L712.1140591231666,181.4819305809724L714.6989112265187,174.79687071918494L717.2837633298708,176.62836759521167L719.8686154332229,158.54743107579313L722.453467536575,177.87848316825819L725.0383196399271,15.867636014673586L727.623171743279,145.13641278104163L730.2080238466312,174.85044867254885L732.7928759499833,192.93325546960023L735.3777280533353,187.05450530022304L737.9625801566875,135.55465041908508L740.5474322600396,202.5732989830855L743.1322843633916,174.37600324363368L745.7171364667437,162.3771270739135L748.3019885700959,157.9312846121086L750.8868406734479,194.6999527264661L753.4716927768,238.15821887627894L756.056544880152,216.98659356045138L758.6413969835041,190.33984049085996L761.2262490868562,4.405199476580159L763.8111011902083,84.216492040938L766.3959532935603,199.64202385079201L768.9808053969125,162.72079058894508L771.5656575002646,150.7541217002255L774.1505096036166,155.01557679070012L776.7353617069688,116.01371467050109L779.3202138103209,219.76885157194124L781.9050659136728,251.95393677765287L784.4899180170249,195.53904728561648L787.0747701203771,-9.007551575390039L789.6596222237291,140.04579210532032L792.2444743270812,172.57852891807468L794.8293264304333,151.9837192274766L797.4141785337854,192.46120289589174L799.9990306371375,185.3872903109737L802.5838827404896,12.804836358259971L805.1687348438415,259.3427161028736L807.7535869471938,150.65001874669252L810.3384390505458,156.96751404546418L812.9232911538978,58.972529708213834L815.5081432572499,202.0843313984331L818.0929953606021,180.44766705002021L820.6778474639541,194.18796422448025L823.2626995673062,244.62613400407886L825.8475516706584,205.23090849116414L828.4324037740104,68.7884068232675L831.0172558773625,99.81612022325447L833.6021079807145,109.40140310781395L836.1869600840666,171.16052842339928L838.7718121874187,216.79197467030625L841.3566642907708,244.2986978979203L843.9415163941228,174.12805393687017L846.526368497475,78.89824757566873L849.1112206008271,162.71231933143173L851.6960727041791,188.70351258663513L854.2809248075312,186.67492145300804L856.8657769108834,77.81948243868838L859.4506290142353,212.67708883726286L862.0354811175874,231.54711749323658L864.6203332209395,103.6070354645766L867.2051853242916,150.18503472227283L869.7900374276437,233.52911671054005L872.3748895309958,209.37415103361107L874.9597416343478,221.82832979059282L877.5445937377,-17.42699139671148L880.1294458410521,174.23438472111283L882.714297944404,186.47045610120776L885.2991500477563,156.62827868776915L887.8840021511083,216.99327705258045L890.4688542544603,188.79589880088008L893.0537063578124,171.0198725437777L895.6385584611646,163.379375852445L898.2234105645166,237.97138364157632L900.8082626678687,24.909878287725782L903.3931147712208,232.85507415248645L905.9779668745729,160.8164353974867L908.562818977925,172.43622279348293L911.147671081277,49.53978446706094L913.732523184629,236.55764627974042L916.3173752879812,121.35597020008585L918.9022273913333,218.48806894653302L921.4870794946853,118.26297106071867L924.0719315980374,164.01969840494206L926.6567837013896,209.30772867356293L929.2416358047416,240.61433347350356L931.8264879080937,179.06146127510283L934.4113400114459,157.69821501415922L936.9961921147979,167.93493210068138L939.5810442181499,189.78868617491617L942.165896321502,87.74009510118027L944.7507484248541,126.19814649555263L947.3356005282062,161.35171985763438L949.9204526315583,194.60019541802114L952.5053047349103,83.37915774308908L955.0901568382625,243.63587700566367L957.6750089416146,174.1362226494724L960.2598610449666,210.98916327363833L962.8447131483186,202.45101583079816L965.4295652516709,171.0667670050125L968.0144173550228,121.60931030708514L970.5992694583749,204.71506941758133L973.1841215617271,205.66781084700867L975.7689736650791,178.4754317821234L978.3538257684312,168.89215669561088L980.9386778717833,207.7653272122219L983.5235299751354,204.92888615754578L986.1083820784875,158.27013491264398L988.6932341818396,-18.999674853254607L991.2780862851915,202.33844161975176L993.8629383885437,29.912485898372967L996.4477904918958,163.8858910419466L999.0326425952478,137.25531037306254L1001.6174946985999,203.29671136982907L1004.2023468019521,135.1496803034128L1006.7871989053041,54.43914175074305L1009.3720510086562,163.8735692128362L1011.9569031120083,168.55476411146583L1014.5417552153604,85.57084808793164L1017.1266073187124,201.80612760055038L1019.7114594220645,168.88734348111464L1022.2963115254165,142.52792556490746L1024.8811636287687,169.28142197998403L1027.466015732121,190.1074859990643L1030.050867835473,159.0586769675424L1032.6357199388249,209.52278309725497L1035.220572042177,150.65202654473956L1037.805424145529,62.93597806116405L1040.3902762488813,176.37235959217733L1042.9751283522332,259.562556236979L1045.5599804555852,29.8502716629987L1048.1448325589374,64.33115016708581L1050.7296846622896,202.6325152734307L1053.3145367656416,200.35267434309984L1055.8993888689936,217.75172964085667L1058.4842409723458,197.5011060428641L1061.0690930756978,195.50290692077044L1063.65394517905,143.03037015014928L1066.238797282402,188.68263698776286" style="fill: none;" fill="none"></path></g></g></g></g></g></g><g transform="translate(30, 378)" clip-path="url(#clip_1)"><clipPath id="clip_1"><rect width="1081" height="22"></rect></clipPath><g><g><line x1="32.29795594156878" y1="0" x2="32.29795594156878" y2="5" style="visibility: inherit;" fill="rgb(0, 0, 0)" stroke="rgb(204, 204, 204)" stroke-width="1px"></line><line x1="135.6920400756521" y1="0" x2="135.6920400756521" y2="5" style="visibility: inherit;" fill="rgb(0, 0, 0)" stroke="rgb(204, 204, 204)" stroke-width="1px"></line><line x1="239.0861242097354" y1="0" x2="239.0861242097354" y2="5" style="visibility: inherit;" fill="rgb(0, 0, 0)" stroke="rgb(204, 204, 204)" stroke-width="1px"></line><line x1="342.48020834381873" y1="0" x2="342.48020834381873" y2="5" style="visibility: inherit;" fill="rgb(0, 0, 0)" stroke="rgb(204, 204, 204)" stroke-width="1px"></line><line x1="445.8742924779021" y1="0" x2="445.8742924779021" y2="5" style="visibility: inherit;" fill="rgb(0, 0, 0)" stroke="rgb(204, 204, 204)" stroke-width="1px"></line><line x1="549.2683766119853" y1="0" x2="549.2683766119853" y2="5" style="visibility: inherit;" fill="rgb(0, 0, 0)" stroke="rgb(204, 204, 204)" stroke-width="1px"></line><line x1="652.6624607460687" y1="0" x2="652.6624607460687" y2="5" style="visibility: inherit;" fill="rgb(0, 0, 0)" stroke="rgb(204, 204, 204)" stroke-width="1px"></line><line x1="756.056544880152" y1="0" x2="756.056544880152" y2="5" style="visibility: inherit;" fill="rgb(0, 0, 0)" stroke="rgb(204, 204, 204)" stroke-width="1px"></line><line x1="859.4506290142353" y1="0" x2="859.4506290142353" y2="5" style="visibility: inherit;" fill="rgb(0, 0, 0)" stroke="rgb(204, 204, 204)" stroke-width="1px"></line><line x1="962.8447131483186" y1="0" x2="962.8447131483186" y2="5" style="visibility: inherit;" fill="rgb(0, 0, 0)" stroke="rgb(204, 204, 204)" stroke-width="1px"></line><line x1="1066.238797282402" y1="0" x2="1066.238797282402" y2="5" style="visibility: inherit;" fill="rgb(0, 0, 0)" stroke="rgb(204, 204, 204)" stroke-width="1px"></line></g><g transform="translate(0, 8)"><text x="32.29795594156878" y="0" dx="0em" dy="0.95em" style="text-anchor: middle; visibility: inherit; font-family: Roboto, sans-serif; font-size: 12px; font-weight: 200;" fill="rgb(50, 49, 63)" stroke="none" stroke-width="1px">0</text><text x="135.6920400756521" y="0" dx="0em" dy="0.95em" style="text-anchor: middle; visibility: inherit; font-family: Roboto, sans-serif; font-size: 12px; font-weight: 200;" fill="rgb(50, 49, 63)" stroke="none" stroke-width="1px">20k</text><text x="239.0861242097354" y="0" dx="0em" dy="0.95em" style="text-anchor: middle; visibility: inherit; font-family: Roboto, sans-serif; font-size: 12px; font-weight: 200;" fill="rgb(50, 49, 63)" stroke="none" stroke-width="1px">40k</text><text x="342.48020834381873" y="0" dx="0em" dy="0.95em" style="text-anchor: middle; visibility: inherit; font-family: Roboto, sans-serif; font-size: 12px; font-weight: 200;" fill="rgb(50, 49, 63)" stroke="none" stroke-width="1px">60k</text><text x="445.8742924779021" y="0" dx="0em" dy="0.95em" style="text-anchor: middle; visibility: inherit; font-family: Roboto, sans-serif; font-size: 12px; font-weight: 200;" fill="rgb(50, 49, 63)" stroke="none" stroke-width="1px">80k</text><text x="549.2683766119853" y="0" dx="0em" dy="0.95em" style="text-anchor: middle; visibility: inherit; font-family: Roboto, sans-serif; font-size: 12px; font-weight: 200;" fill="rgb(50, 49, 63)" stroke="none" stroke-width="1px">100k</text><text x="652.6624607460687" y="0" dx="0em" dy="0.95em" style="text-anchor: middle; visibility: inherit; font-family: Roboto, sans-serif; font-size: 12px; font-weight: 200;" fill="rgb(50, 49, 63)" stroke="none" stroke-width="1px">120k</text><text x="756.056544880152" y="0" dx="0em" dy="0.95em" style="text-anchor: middle; visibility: inherit; font-family: Roboto, sans-serif; font-size: 12px; font-weight: 200;" fill="rgb(50, 49, 63)" stroke="none" stroke-width="1px">140k</text><text x="859.4506290142353" y="0" dx="0em" dy="0.95em" style="text-anchor: middle; visibility: inherit; font-family: Roboto, sans-serif; font-size: 12px; font-weight: 200;" fill="rgb(50, 49, 63)" stroke="none" stroke-width="1px">160k</text><text x="962.8447131483186" y="0" dx="0em" dy="0.95em" style="text-anchor: middle; visibility: inherit; font-family: Roboto, sans-serif; font-size: 12px; font-weight: 200;" fill="rgb(50, 49, 63)" stroke="none" stroke-width="1px">180k</text><text x="1066.238797282402" y="0" dx="0em" dy="0.95em" style="text-anchor: middle; visibility: inherit; font-family: Roboto, sans-serif; font-size: 12px; font-weight: 200;" fill="rgb(50, 49, 63)" stroke="none" stroke-width="1px">200k</text></g><line x1="0" y1="0" x2="1081.81875" y2="0" fill="rgb(0, 0, 0)" stroke="rgb(204, 204, 204)" stroke-width="1px"></line></g></g></g></g></svg>