<svg viewBox="0 0 887 400" xmlns="http://www.w3.org/2000/svg"><g><g><g><g><g><line x1="70" y1="377" x2="65" y2="377" style="visibility: inherit;" fill="rgb(0, 0, 0)" stroke="rgb(204, 204, 204)" stroke-width="1px"></line><line x1="70" y1="350.07142857142856" x2="65" y2="350.07142857142856" style="visibility: inherit;" fill="rgb(0, 0, 0)" stroke="rgb(204, 204, 204)" stroke-width="1px"></line><line x1="70" y1="323.1428571428571" x2="65" y2="323.1428571428571" style="visibility: inherit;" fill="rgb(0, 0, 0)" stroke="rgb(204, 204, 204)" stroke-width="1px"></line><line x1="70" y1="296.2142857142857" x2="65" y2="296.2142857142857" style="visibility: inherit;" fill="rgb(0, 0, 0)" stroke="rgb(204, 204, 204)" stroke-width="1px"></line><line x1="70" y1="269.2857142857143" x2="65" y2="269.2857142857143" style="visibility: inherit;" fill="rgb(0, 0, 0)" stroke="rgb(204, 204, 204)" stroke-width="1px"></line><line x1="70" y1="242.35714285714283" x2="65" y2="242.35714285714283" style="visibility: inherit;" fill="rgb(0, 0, 0)" stroke="rgb(204, 204, 204)" stroke-width="1px"></line><line x1="70" y1="215.42857142857142" x2="65" y2="215.42857142857142" style="visibility: inherit;" fill="rgb(0, 0, 0)" stroke="rgb(204, 204, 204)" stroke-width="1px"></line><line x1="70" y1="188.49999999999997" x2="65" y2="188.49999999999997" style="visibility: inherit;" fill="rgb(0, 0, 0)" stroke="rgb(204, 204, 204)" stroke-width="1px"></line><line x1="70" y1="161.57142857142856" x2="65" y2="161.57142857142856" style="visibility: inherit;" fill="rgb(0, 0, 0)" stroke="rgb(204, 204, 204)" stroke-width="1px"></line><line x1="70" y1="134.64285714285708" x2="65" y2="134.64285714285708" style="visibility: inherit;" fill="rgb(0, 0, 0)" stroke="rgb(204, 204, 204)" stroke-width="1px"></line><line x1="70" y1="107.71428571428571" x2="65" y2="107.71428571428571" style="visibility: inherit;" fill="rgb(0, 0, 0)" stroke="rgb(204, 204, 204)" stroke-width="1px"></line><line x1="70" y1="80.78571428571429" x2="65" y2="80.78571428571429" style="visibility: inherit;" fill="rgb(0, 0, 0)" stroke="rgb(204, 204, 204)" stroke-width="1px"></line><line x1="70" y1="53.85714285714283" x2="65" y2="53.85714285714283" style="visibility: inherit;" fill="rgb(0, 0, 0)" stroke="rgb(204, 204, 204)" stroke-width="1px"></line><line x1="70" y1="26.928571428571374" x2="65" y2="26.928571428571374" style="visibility: inherit;" fill="rgb(0, 0, 0)" stroke="rgb(204, 204, 204)" stroke-width="1px"></line><line x1="70" y1="0" x2="65" y2="0" style="visibility: inherit;" fill="rgb(0, 0, 0)" stroke="rgb(204, 204, 204)" stroke-width="1px"></line></g><g transform="translate(60, 0)"><text x="0" y="377" dx="0em" dy="0.3em" style="text-anchor: end; visibility: hidden; font-family: Roboto, sans-serif; font-size: 12px; font-weight: 200;" fill="rgb(33, 33, 33)" stroke="none" stroke-width="1px">5e-4</text><text x="0" y="350.07142857142856" dx="0em" dy="0.3em" style="text-anchor: end; visibility: inherit; font-family: Roboto, sans-serif; font-size: 12px; font-weight: 200;" fill="rgb(33, 33, 33)" stroke="none" stroke-width="1px">1e-3</text><text x="0" y="323.1428571428571" dx="0em" dy="0.3em" style="text-anchor: end; visibility: inherit; font-family: Roboto, sans-serif; font-size: 12px; font-weight: 200;" fill="rgb(33, 33, 33)" stroke="none" stroke-width="1px">1.5e-3</text><text x="0" y="296.2142857142857" dx="0em" dy="0.3em" style="text-anchor: end; visibility: inherit; font-family: Roboto, sans-serif; font-size: 12px; font-weight: 200;" fill="rgb(33, 33, 33)" stroke="none" stroke-width="1px">2e-3</text><text x="0" y="269.2857142857143" dx="0em" dy="0.3em" style="text-anchor: end; visibility: inherit; font-family: Roboto, sans-serif; font-size: 12px; font-weight: 200;" fill="rgb(33, 33, 33)" stroke="none" stroke-width="1px">2.5e-3</text><text x="0" y="242.35714285714283" dx="0em" dy="0.3em" style="text-anchor: end; visibility: inherit; font-family: Roboto, sans-serif; font-size: 12px; font-weight: 200;" fill="rgb(33, 33, 33)" stroke="none" stroke-width="1px">3e-3</text><text x="0" y="215.42857142857142" dx="0em" dy="0.3em" style="text-anchor: end; visibility: inherit; font-family: Roboto, sans-serif; font-size: 12px; font-weight: 200;" fill="rgb(33, 33, 33)" stroke="none" stroke-width="1px">3.5e-3</text><text x="0" y="188.49999999999997" dx="0em" dy="0.3em" style="text-anchor: end; visibility: inherit; font-family: Roboto, sans-serif; font-size: 12px; font-weight: 200;" fill="rgb(33, 33, 33)" stroke="none" stroke-width="1px">4e-3</text><text x="0" y="161.57142857142856" dx="0em" dy="0.3em" style="text-anchor: end; visibility: inherit; font-family: Roboto, sans-serif; font-size: 12px; font-weight: 200;" fill="rgb(33, 33, 33)" stroke="none" stroke-width="1px">4.5e-3</text><text x="0" y="134.64285714285708" dx="0em" dy="0.3em" style="text-anchor: end; visibility: inherit; font-family: Roboto, sans-serif; font-size: 12px; font-weight: 200;" fill="rgb(33, 33, 33)" stroke="none" stroke-width="1px">5e-3</text><text x="0" y="107.71428571428571" dx="0em" dy="0.3em" style="text-anchor: end; visibility: inherit; font-family: Roboto, sans-serif; font-size: 12px; font-weight: 200;" fill="rgb(33, 33, 33)" stroke="none" stroke-width="1px">5.5e-3</text><text x="0" y="80.78571428571429" dx="0em" dy="0.3em" style="text-anchor: end; visibility: inherit; font-family: Roboto, sans-serif; font-size: 12px; font-weight: 200;" fill="rgb(33, 33, 33)" stroke="none" stroke-width="1px">6e-3</text><text x="0" y="53.85714285714283" dx="0em" dy="0.3em" style="text-anchor: end; visibility: inherit; font-family: Roboto, sans-serif; font-size: 12px; font-weight: 200;" fill="rgb(33, 33, 33)" stroke="none" stroke-width="1px">6.5e-3</text><text x="0" y="26.928571428571374" dx="0em" dy="0.3em" style="text-anchor: end; visibility: inherit; font-family: Roboto, sans-serif; font-size: 12px; font-weight: 200;" fill="rgb(33, 33, 33)" stroke="none" stroke-width="1px">7e-3</text><text x="0" y="0" dx="0em" dy="0.3em" style="text-anchor: end; visibility: hidden; font-family: Roboto, sans-serif; font-size: 12px; font-weight: 200;" fill="rgb(33, 33, 33)" stroke="none" stroke-width="1px">7.5e-3</text></g><line x1="70" y1="0" x2="70" y2="377" fill="rgb(0, 0, 0)" stroke="rgb(204, 204, 204)" stroke-width="1px"></line></g></g><g transform="translate(70, 0)" clip-path="url(#clip_0)"><clipPath id="clip_0"><rect width="817" height="377"></rect></clipPath><g><g><g><line x1="0" y1="0" x2="0" y2="377" fill="rgb(0, 0, 0)" stroke="rgb(66, 66, 66)" stroke-width="1px" opacity="0.25"></line><line x1="68.08333333333333" y1="0" x2="68.08333333333333" y2="377" fill="rgb(0, 0, 0)" stroke="rgb(66, 66, 66)" stroke-width="1px" opacity="0.25"></line><line x1="136.16666666666666" y1="0" x2="136.16666666666666" y2="377" fill="rgb(0, 0, 0)" stroke="rgb(66, 66, 66)" stroke-width="1px" opacity="0.25"></line><line x1="204.25" y1="0" x2="204.25" y2="377" fill="rgb(0, 0, 0)" stroke="rgb(66, 66, 66)" stroke-width="1px" opacity="0.25"></line><line x1="272.3333333333333" y1="0" x2="272.3333333333333" y2="377" fill="rgb(0, 0, 0)" stroke="rgb(66, 66, 66)" stroke-width="1px" opacity="0.25"></line><line x1="340.4166666666667" y1="0" x2="340.4166666666667" y2="377" fill="rgb(0, 0, 0)" stroke="rgb(66, 66, 66)" stroke-width="1px" opacity="0.25"></line><line x1="408.5" y1="0" x2="408.5" y2="377" fill="rgb(0, 0, 0)" stroke="rgb(66, 66, 66)" stroke-width="1px" opacity="0.25"></line><line x1="476.58333333333337" y1="0" x2="476.58333333333337" y2="377" fill="rgb(0, 0, 0)" stroke="rgb(66, 66, 66)" stroke-width="1px" opacity="0.25"></line><line x1="544.6666666666666" y1="0" x2="544.6666666666666" y2="377" fill="rgb(0, 0, 0)" stroke="rgb(66, 66, 66)" stroke-width="1px" opacity="0.25"></line><line x1="612.75" y1="0" x2="612.75" y2="377" fill="rgb(0, 0, 0)" stroke="rgb(66, 66, 66)" stroke-width="1px" opacity="0.25"></line><line x1="680.8333333333334" y1="0" x2="680.8333333333334" y2="377" fill="rgb(0, 0, 0)" stroke="rgb(66, 66, 66)" stroke-width="1px" opacity="0.25"></line><line x1="748.9166666666666" y1="0" x2="748.9166666666666" y2="377" fill="rgb(0, 0, 0)" stroke="rgb(66, 66, 66)" stroke-width="1px" opacity="0.25"></line><line x1="817" y1="0" x2="817" y2="377" fill="rgb(0, 0, 0)" stroke="rgb(66, 66, 66)" stroke-width="1px" opacity="0.25"></line></g><g><line x1="0" y1="377" x2="817" y2="377" fill="rgb(0, 0, 0)" stroke="rgb(66, 66, 66)" stroke-width="1px" opacity="0.25"></line><line x1="0" y1="350.07142857142856" x2="817" y2="350.07142857142856" fill="rgb(0, 0, 0)" stroke="rgb(66, 66, 66)" stroke-width="1px" opacity="0.25"></line><line x1="0" y1="323.1428571428571" x2="817" y2="323.1428571428571" fill="rgb(0, 0, 0)" stroke="rgb(66, 66, 66)" stroke-width="1px" opacity="0.25"></line><line x1="0" y1="296.2142857142857" x2="817" y2="296.2142857142857" fill="rgb(0, 0, 0)" stroke="rgb(66, 66, 66)" stroke-width="1px" opacity="0.25"></line><line x1="0" y1="269.2857142857143" x2="817" y2="269.2857142857143" fill="rgb(0, 0, 0)" stroke="rgb(66, 66, 66)" stroke-width="1px" opacity="0.25"></line><line x1="0" y1="242.35714285714283" x2="817" y2="242.35714285714283" fill="rgb(0, 0, 0)" stroke="rgb(66, 66, 66)" stroke-width="1px" opacity="0.25"></line><line x1="0" y1="215.42857142857142" x2="817" y2="215.42857142857142" fill="rgb(0, 0, 0)" stroke="rgb(66, 66, 66)" stroke-width="1px" opacity="0.25"></line><line x1="0" y1="188.49999999999997" x2="817" y2="188.49999999999997" fill="rgb(0, 0, 0)" stroke="rgb(66, 66, 66)" stroke-width="1px" opacity="0.25"></line><line x1="0" y1="161.57142857142856" x2="817" y2="161.57142857142856" fill="rgb(0, 0, 0)" stroke="rgb(66, 66, 66)" stroke-width="1px" opacity="0.25"></line><line x1="0" y1="134.64285714285708" x2="817" y2="134.64285714285708" fill="rgb(0, 0, 0)" stroke="rgb(66, 66, 66)" stroke-width="1px" opacity="0.25"></line><line x1="0" y1="107.71428571428571" x2="817" y2="107.71428571428571" fill="rgb(0, 0, 0)" stroke="rgb(66, 66, 66)" stroke-width="1px" opacity="0.25"></line><line x1="0" y1="80.78571428571429" x2="817" y2="80.78571428571429" fill="rgb(0, 0, 0)" stroke="rgb(66, 66, 66)" stroke-width="1px" opacity="0.25"></line><line x1="0" y1="53.85714285714283" x2="817" y2="53.85714285714283" fill="rgb(0, 0, 0)" stroke="rgb(66, 66, 66)" stroke-width="1px" opacity="0.25"></line><line x1="0" y1="26.928571428571374" x2="817" y2="26.928571428571374" fill="rgb(0, 0, 0)" stroke="rgb(66, 66, 66)" stroke-width="1px" opacity="0.25"></line><line x1="0" y1="0" x2="817" y2="0" fill="rgb(0, 0, 0)" stroke="rgb(66, 66, 66)" stroke-width="1px" opacity="0.25"></line></g></g></g><g><g><line x1="0" y1="403.92857142857144" x2="817" y2="403.92857142857144" fill="rgb(0, 0, 0)" stroke="rgb(153, 153, 153)" stroke-width="1.5px"></line></g></g><g><g><line x1="68.08333333333333" y1="0" x2="68.08333333333333" y2="377" fill="rgb(0, 0, 0)" stroke="rgb(153, 153, 153)" stroke-width="1.5px"></line></g></g><g><g><g><g><g><path stroke="rgb(255, 112, 67)" stroke-width="2px" d="M90.21041666666666,-46.13744542623318L91.91250000000001,14.37328701889606L93.61458333333333,53.69081936630454L95.31666666666666,164.41237173552543L97.01875,209.40133208827405L98.72083333333333,169.9410520745526L100.42291666666667,-299.7546253611694L105.52916666666668,-41.375673518354596L107.23125,36.74818450998905L108.93333333333334,111.65517961123508L110.63541666666666,156.8515524694281L112.3375,204.71995725374765L114.03958333333334,192.33310726553216L115.74166666666666,240.8488331068146L117.44375,146.71358264887644L119.14583333333334,208.19328516612345L120.84791666666666,178.4581595424912L122.55,262.65364981278674L124.25208333333332,241.22112771969248L125.95416666666667,215.09774451835435L127.65625,278.6957312483908L129.35833333333332,297.6851487580515L131.06041666666667,267.2846357254727L132.76250000000002,248.71680884960784L134.46458333333334,238.25495617093833L136.16666666666666,246.5455565204148L137.86875,234.52811582297335L139.57083333333333,259.08668580359597L141.27291666666667,106.60998842794737L142.975,60.581951684087L144.67708333333334,166.59432068403956L146.37916666666666,203.17277174488757L148.08124999999998,243.91130312571278L149.78333333333333,268.7974332430909L151.48541666666668,278.83429614079574L153.1875,270.0680853556804L154.88958333333332,261.7115558596861L156.59166666666667,291.6260481435742L158.29375000000002,282.498812403293L159.99583333333334,294.91795770379457L161.69791666666666,253.75327889033693L163.4,242.70725468906488L165.10208333333333,231.95708838491555L166.80416666666667,254.70231661932777L168.50625,-68.18439286679786L170.20833333333334,95.7141624178868L171.91041666666666,188.5132706937395L173.61249999999998,213.9340902625701L175.31458333333333,276.8391717963874L177.01666666666668,253.95357457349735L178.71875,274.10430249814505L180.42083333333332,322.58707997140283L182.12291666666667,305.6686393600992L183.82500000000002,280.02407993611297L185.52708333333334,191.92588090271278L187.22916666666666,265.47459450268315L188.93125,300.2416795907649L190.63333333333333,312.04797691657177L192.33541666666667,244.4442250853166L194.0375,235.54372964471747L195.73958333333334,249.45248545360667L197.44166666666666,196.20508272461777L199.14374999999998,170.90179287373064L200.84583333333333,231.42481930892663L202.54791666666668,281.9759739668344L204.25,274.8525319104171L205.95208333333332,308.1806615209126L207.65416666666667,268.3005677749754L209.35625,214.83503820113017L211.05833333333337,258.2572307914233L212.76041666666669,297.1576517892099L214.4625,334.1215680312569L216.16458333333333,323.1955107575032L217.86666666666667,325.31251488351495L219.56875,331.9956860795644L221.27083333333331,332.6755468301278L222.97291666666663,303.94318407787694L224.675,333.09994038905137L226.37708333333333,300.23906561254006L228.07916666666668,300.36762325769433L229.78125,276.1278808311823L231.48333333333332,284.48625817787155L233.18541666666667,311.2084214550495L234.8875,310.67437874188965L236.58958333333337,314.5894866324443L238.29166666666669,322.16641562769536L239.99375,334.72664712582576L241.69583333333333,331.74843741240403L243.39791666666667,220.5072092409441L245.1,284.77749737906777L246.80208333333331,309.0574340785472L248.50416666666663,333.98486317862995L250.20625,354.5951849768753L251.90833333333333,369.9112041949478L253.61041666666668,373.31417308319925L255.3125,324.97333780408775L257.01458333333335,284.9126572163966L258.71666666666664,194.84744068673223L260.41875,237.07800326280238L262.12083333333334,251.10250785806528L263.8229166666667,262.5213009036109L265.52500000000003,316.6779630556507L267.2270833333333,310.41396203933976L268.9291666666667,302.66297500630935L270.63124999999997,305.768148790549L272.3333333333333,314.9957160423594L274.03541666666666,326.659377519991L275.7375,305.69483573855604L277.43958333333336,342.7110881569396L279.14166666666665,343.1646168145697L280.84375,336.82860913355114L282.54583333333335,333.0663512605984L284.24791666666664,325.30129369739905L285.95,333.73395062313296L287.65208333333334,337.89296373190047L289.3541666666667,330.61419003109285L291.05625000000003,348.1564316512653L292.7583333333333,220.5624356293726L294.4604166666667,98.22263886433277L296.16249999999997,202.49942500883768L297.8645833333333,253.71423305934965L299.56666666666666,311.8877737016531L301.26875,323.07447334996175L302.97083333333336,311.4258702465246L304.67291666666665,321.14679979333664L306.375,246.4598355266415L308.07708333333335,260.97325002464436L309.77916666666664,315.8615423011378L311.48125,300.29622494693876L313.18333333333334,315.6567252661939L314.8854166666667,242.3257684752608L316.58750000000003,272.93896542094103L318.2895833333333,316.87480196228614L319.9916666666667,339.86355958921837L321.69374999999997,344.9005553976143L323.3958333333333,358.9515414423894L325.09791666666666,366.0006028207609L326.8,339.7380800714219L328.50208333333336,363.5808675462235L330.20416666666665,360.1078447066852L331.90625,343.2622161952875L333.60833333333335,351.78739936168216L335.31041666666664,311.4124876869419L337.0125,313.4980976560937L338.71458333333334,334.89901248827226L340.4166666666667,315.847884763673L342.11875000000003,194.50039542856086L343.8208333333333,253.27686329371878L345.5229166666667,295.15559380714177L347.22499999999997,317.5021873466126L348.9270833333333,341.99044530602896L350.62916666666666,346.14970413097376L352.33125,317.8312630319088L354.03333333333336,248.59965104753994L355.73541666666665,241.5271001126226L357.4375,285.9873609689867L359.13958333333335,330.62236522463445L360.84166666666664,328.26100480852796L362.54375,345.06436424515647L364.24583333333334,330.9816445243116L365.9479166666667,335.1936111549483L367.65000000000003,224.72285742333636L369.3520833333333,261.8288473300297L371.0541666666667,314.36550406804935L372.75624999999997,319.1891347796481L374.4583333333333,314.38630272061977L376.16041666666666,340.2737865925219L377.8625,363.4017447537727L379.56458333333336,348.4474983228813L381.26666666666665,353.2700842675194L382.96875,371.7303622727539L384.67083333333335,376.9392990131724L386.37291666666664,366.6540708093076L388.075,338.45162094554814L389.77708333333334,347.4071503111672L391.4791666666667,363.4522918896045L393.18125000000003,333.658866362407L394.8833333333333,350.0200348864072L396.5854166666667,348.9094648530165L398.28749999999997,346.22680639887966L399.9895833333333,347.0852365118315L401.69166666666666,352.69006030020415L403.39375,360.7596683233879L405.09583333333336,366.91585336372736L406.79791666666665,361.6390027177916L408.5,359.66275677703834L410.20208333333335,360.2980014186766L411.90416666666664,371.1316032646818L413.60625,354.66166036264013L415.30833333333334,365.4828119662762L417.01041666666663,372.3241330884846L418.7125,337.9751270140551L420.41458333333327,342.8993773048149L422.11666666666673,337.3596546711256L423.81875,308.5614568602367L425.52083333333337,217.87595999904414L427.22291666666666,273.5393794105154L428.925,290.05672970482203L430.62708333333336,297.0582928194889L432.32916666666665,337.07595329183704L434.03125,321.5963155142014L435.73333333333335,319.2334680384254L437.43541666666664,313.4531924312646L439.1375,326.7160044223376L440.83958333333334,339.87628483564964L442.54166666666663,317.4257458855333L444.24375,345.9426040202526L445.94583333333327,346.96981154941903L447.64791666666673,353.1205143830393L449.35,349.9707522412155L451.05208333333337,351.10861986984185L452.75416666666666,339.50901201299524L454.45625,363.0969035162943L456.15833333333336,354.47864919893163L457.86041666666665,331.94746240117337L459.5625,346.5813233846254L461.26458333333335,275.3999217217036L462.96666666666664,293.49633826015526L464.66875,304.3330489369477L466.37083333333334,298.3895140080002L468.07291666666663,294.15681335335057L469.775,318.01251507691876L471.47708333333327,298.69316204541184L473.17916666666673,301.7834226193793L474.88125,301.3537604029742L476.58333333333337,323.25394973149037L478.28541666666666,299.33908755539227L479.9875,265.6731776603278L481.68958333333336,319.1829473411572L483.39166666666665,311.493535689573L485.09375,331.6234115785561L486.79583333333335,343.4785273495182L488.49791666666664,251.4335293962278L490.2,302.8777166452506L491.90208333333334,300.5645643529125L493.60416666666663,334.7964126783501L495.30625,321.87026215307617L497.00833333333327,280.31489327836374L498.71041666666673,314.1627845875809L500.4125,347.6827454497639L502.11458333333337,353.304853631415L503.81666666666666,359.29168326078303L505.51875,325.6711875940469L507.22083333333336,327.82728616257435L508.92291666666665,333.4270215578543L510.625,313.000693970141L512.3270833333333,347.5019444151765L514.0291666666667,333.7054148824051L515.7312499999999,326.9965564011122L517.4333333333333,336.87723891327505L519.1354166666666,333.91208988458175L520.8375,349.5447260064147L522.5395833333333,345.64790424560505L524.2416666666667,367.07214365796176L525.94375,371.3085701827808L527.6458333333334,349.76241609700855L529.3479166666667,334.3958956490038L531.0500000000001,325.4786640817506L532.7520833333333,341.85348015208507L534.4541666666667,323.86487861893534L536.15625,326.36649790684345L537.8583333333333,332.56813914580835L539.5604166666667,340.6133336491305L541.2624999999999,331.7933113352501L542.9645833333333,249.6968235582735L544.6666666666666,266.2211956185901L546.36875,286.927733871295L548.0708333333333,331.7058381609531L549.7729166666667,351.8333465080097L551.475,339.1630978101125L553.1770833333334,343.37763678597906L554.8791666666667,343.7075851320454L556.5812500000001,347.6301920267267L558.2833333333333,361.57467399774924L559.9854166666667,333.32033884050384L561.6875,244.87127066672147L563.3895833333333,282.22280768673727L565.0916666666667,329.0560857385464L566.7937499999999,347.0649219691049L568.4958333333333,345.10774923254365L570.1979166666666,359.29698657330147L571.9,341.7736649276243L573.6020833333333,320.43724307752063L575.3041666666667,350.5760749317069L577.00625,227.42367170821777L578.7083333333334,276.70051594307216L580.4104166666667,307.62310426800815L582.1125000000001,343.4265104468842L583.8145833333333,320.66853440768597L585.5166666666667,319.8107623146747L587.21875,315.715521034768L588.9208333333333,228.84407667604472L590.6229166666667,245.0056553168056L592.3249999999999,304.57827846962226L594.0270833333333,339.77597063779285L595.7291666666666,352.8704952106379L597.43125,338.69126739508147L599.1333333333333,315.48646220029985L600.8354166666667,231.50477636859344L602.5375,279.5192509767796L604.2395833333334,321.0875123165905L605.9416666666667,334.986767914604L607.6437500000001,334.20942756603665L609.3458333333333,318.5918541792193L611.0479166666667,344.4638482247526L612.75,326.4434283482977L614.4520833333333,291.24418803511463L616.1541666666667,327.29301306192053L617.8562499999999,345.8872888828976L619.5583333333333,283.35313779579434L621.2604166666666,291.6461563667168L622.9625,270.01598524237164L624.6645833333333,321.61394798958406L626.3666666666667,332.0115328200087L628.06875,323.0318227009324L629.7708333333334,338.16487920073575L631.4729166666667,327.68489254214114L633.1750000000001,313.311641683118L634.8770833333333,315.0843506816396L636.5791666666667,321.3491034209714L638.28125,264.37777959683024L639.9833333333333,318.3387726245955L641.6854166666667,260.05530608671427L643.3874999999999,295.15255329430545L645.0895833333333,319.8502890812813L646.7916666666666,348.5600370739469L648.49375,311.91103360820654L650.1958333333333,333.4307810834801L651.8979166666667,273.3401360241625L653.6,312.1840509682319L655.3020833333334,315.263237271647L657.0041666666667,312.6953777048807L658.7062500000001,248.00384843448856L660.4083333333333,283.7777669764633L662.1104166666667,315.8556561504104L663.8125,312.1011855729677L665.5145833333333,296.2369929568921L667.2166666666667,330.9642133073476L668.9187499999999,348.54407146313594L670.6208333333333,354.4744002732978L672.3229166666666,328.887855515573L674.025,351.85847485930356L675.7270833333333,271.47625636870896L677.4291666666667,297.36685081322844L679.13125,295.10296528083853L680.8333333333334,277.5748886726153L682.5354166666667,297.85203343466316L684.2375000000001,330.5531243195526L685.9395833333333,313.35752683748296L687.6416666666667,312.3808937948933L689.34375,323.86582235347106L691.0458333333333,331.0631919731145L692.7479166666667,332.15432120481654L694.4499999999999,318.57695667123085L696.1520833333333,337.64155809957174L697.8541666666666,362.7552701632694L699.55625,320.81114267092613L701.2583333333333,351.4029625196168L702.9604166666667,352.57693263638646L704.6625,350.75957366546595L706.3645833333334,316.9748925176427L708.0666666666667,336.1034143032519L709.7687500000001,358.7362012569095L711.4708333333333,347.88041794648467L713.1729166666667,341.72896100113854L714.875,359.61661763485876L716.5770833333333,338.8278216557109L718.2791666666667,348.36088691765025L719.9812499999999,349.4989104351701L721.6833333333333,351.29781354964086L723.3854166666666,334.4041539241179L725.0875,343.9386312194127L726.7895833333333,326.32223549409383L728.4916666666667,325.3165640095223L730.19375,351.52209576174596L731.8958333333334,350.2282598013302L733.5979166666667,198.8666640095399L735.3000000000001,278.3050927672134L737.0020833333333,323.7035698617209L738.7041666666667,320.676462200107L740.40625,310.2507912657306L742.1083333333333,282.80545237482886L743.8104166666667,296.5603615860314L745.5124999999999,302.59153445930303L747.2145833333333,330.7308070954497L748.9166666666666,303.5910125304776" style="fill: none;" fill="none"></path></g></g></g></g><g opacity="0.2"><g><g><g><path stroke="rgb(255, 112, 67)" stroke-width="2px" d="M81.7,-187.02850060271368L83.40208333333334,193.74338306087463L85.10416666666667,-1583.6569460162098L86.80624999999999,193.77831836763232L88.50833333333334,99.3889504192131L90.21041666666666,136.8491544335016L91.91250000000001,105.06825759208627L93.61458333333333,112.63938811740704L95.31666666666666,330.4478466391031L97.01875,276.87334992523705L98.72083333333333,110.75664343046289L100.42291666666667,-1004.2552094693697L103.82708333333333,-687.0560665535075L105.52916666666668,333.23668979374423L107.23125,153.93304610092724L108.93333333333334,224.01513985624268L110.63541666666666,224.6459190148328L112.3375,276.5224419480988L114.03958333333334,173.75285129994154L115.74166666666666,313.6223771788978L117.44375,5.510758989091401L119.14583333333334,300.41281855465576L120.84791666666666,133.85547702333756L122.55,388.9468751669795L124.25208333333332,209.0723461152187L125.95416666666667,175.91267083904572L127.65625,374.09270970350394L129.35833333333332,326.1692747287452L131.06041666666667,221.6838664588119L132.76250000000002,220.86506863922946L134.46458333333334,222.5621771878962L136.16666666666666,258.9814570280058L137.86875,216.50195479126913L139.57083333333333,295.92454075680246L141.27291666666667,-122.1050575694868L142.975,-8.460103419742438L144.67708333333334,325.61287416743914L146.37916666666666,258.0404483327376L148.08124999999998,305.01910019466385L149.78333333333333,306.12662841831997L151.48541666666668,293.8895904871502L153.1875,256.91876917811373L154.88958333333332,249.1767616157553L156.59166666666667,336.497786569276L158.29375000000002,268.8079587928951L159.99583333333334,313.54667565452735L161.69791666666666,192.00626067018933L163.4,226.1382183871631L165.10208333333333,215.83183892869525L166.80416666666667,288.8201589709414L168.50625,-552.5144570959467L170.20833333333334,341.56199534490173L171.91041666666666,327.7119331075145L173.61249999999998,252.06531961581535L175.31458333333333,371.1967940971122L177.01666666666668,219.62517873916244L178.71875,304.33039438511645L180.42083333333332,395.3112461812894L182.12291666666667,280.2909784431436L183.82500000000002,241.55724080013377L185.52708333333334,59.77858235261269L187.22916666666666,375.79766490263864L188.93125,352.3923072228873L190.63333333333333,329.7574229052822L192.33541666666667,143.0385973384338L194.0375,222.19298648381871L195.73958333333334,270.31561916694045L197.44166666666666,116.33397863113456L199.14374999999998,132.9468580974L200.84583333333333,322.20935896172057L202.54791666666668,357.802705953696L204.25,264.16736882579113L205.95208333333332,358.17285593665605L207.65416666666667,208.48042715606942L209.35625,134.63674384036236L211.05833333333337,323.39051967686305L212.76041666666669,355.5082832858898L214.4625,389.5674423943274L216.16458333333333,306.8064248468727L217.86666666666667,328.48802107253243L219.56875,342.0204428736387L221.27083333333331,333.69533795597295L222.97291666666663,260.84463994950056L224.675,376.835074855813L226.37708333333333,250.9477534477732L228.07916666666668,300.5604597254257L229.78125,239.7682671914143L231.48333333333332,297.0238241979054L233.18541666666667,351.29166637081653L234.8875,309.8733146721497L236.58958333333337,320.4621484682762L238.29166666666669,333.531809120572L239.99375,353.5669943730214L241.69583333333333,327.28112284227143L243.39791666666667,53.6453669837543L245.1,381.18292958625324L246.80208333333331,345.47733912776624L248.50416666666663,371.37600682875404L250.20625,385.51066767424345L253.61041666666668,378.4186264155765L255.3125,252.46208488542055L257.01458333333335,224.82163633485987L258.71666666666664,59.74961589223571L260.41875,300.4238471269075L262.12083333333334,272.1392647509596L263.8229166666667,279.6494904719293L265.52500000000003,397.9129562837105L267.2270833333333,301.01796051487327L268.9291666666667,291.03649445676376L270.63124999999997,310.4259094669084L272.3333333333333,328.837066920075L274.03541666666666,344.15486973643834L275.7375,274.2480230664036L277.43958333333336,398.23546678451487L279.14166666666665,343.8449098010148L280.84375,327.32459761202335L282.54583333333335,327.4229644511693L284.24791666666664,313.6537073525999L285.95,346.38293601173376L287.65208333333334,344.13148339505176L289.3541666666667,319.6960294798815L291.05625000000003,374.469794081524L292.7583333333333,29.17144159653354L294.4604166666667,-85.28705628322706L296.16249999999997,358.9146042255951L297.8645833333333,330.5364451351176L299.56666666666666,399.1480846651081L301.26875,339.85452282242477L302.97083333333336,293.9529655913689L304.67291666666665,335.7281941135547L306.375,134.42938912659883L308.07708333333335,282.7433717716485L309.77916666666664,398.19398071587784L311.48125,276.94824891564036L313.18333333333334,338.6974757450766L314.8854166666667,132.32933328886116L316.58750000000003,318.8587608394612L318.2895833333333,382.77855677430387L319.9916666666667,374.3466960296168L321.69374999999997,352.45604911020826L323.3958333333333,380.02802050955194L325.09791666666666,376.57419488831823L326.8,300.34429594741334L328.50208333333336,399.34504875842583L330.20416666666665,354.8983104473778L331.90625,317.99377342819105L333.60833333333335,364.57517411127424L335.31041666666664,250.85012017483157L337.0125,316.62651260982136L338.71458333333334,367.00038473654007L340.4166666666667,287.27119317677403L342.11875000000003,12.479161425892784L343.8208333333333,341.44156509145563L345.5229166666667,357.97368957727616L347.22499999999997,351.02207765581886L348.9270833333333,378.7228322451535L350.62916666666666,352.38859236839096L352.33125,275.3536013833114L354.03333333333336,144.75223307098662L355.73541666666665,230.9182737102466L357.4375,352.67775225353296L359.13958333333335,397.57487160810604L360.84166666666664,324.7189641843683L362.54375,370.2694034000992L364.24583333333334,309.8575649430443L365.9479166666667,341.51156110090335L367.65000000000003,59.01672682591848L369.3520833333333,317.48783219006975L371.0541666666667,393.17048917507884L372.75624999999997,326.4245808470462L374.4583333333333,307.18205463207727L376.16041666666666,379.10501240037513L377.8625,398.0936819956488L379.56458333333336,326.0161286765443L381.26666666666665,360.50396318447645L382.96875,399.42077928060564L384.67083333333335,384.7527041238001L386.37291666666664,351.22622850351036L388.075,296.14794614990905L389.77708333333334,360.8404443595957L391.4791666666667,387.52000425726044L393.18125000000003,288.9687280716108L394.8833333333333,374.5617876724074L396.5854166666667,347.24360980293045L398.28749999999997,342.20281871767446L399.9895833333333,348.3728816812592L401.69166666666666,361.09729598276317L403.39375,372.8640803581636L405.09583333333336,376.1501309242366L406.79791666666665,353.723726748888L408.5,356.69838786590844L410.20208333333335,361.25086838113407L411.90416666666664,387.3820060336896L413.60625,329.9567460095776L415.30833333333334,381.7145393717302L417.01041666666663,382.5861147717972L418.7125,286.4516179024109L420.41458333333327,350.2857527409547L422.11666666666673,329.0500707205917L423.81875,265.3641601439033L425.52083333333337,81.84771470725536L427.22291666666666,357.0345085277222L428.925,314.83275514628207L430.62708333333336,307.5606374914891L432.32916666666665,397.10244400035924L434.03125,298.37685884774794L435.73333333333335,315.6891968247614L437.43541666666664,304.7827790205234L439.1375,346.61022240894715L440.83958333333334,359.6167054556177L442.54166666666663,283.74993746035864L444.24375,388.7178912223317L445.94583333333327,348.5106228431687L447.64791666666673,362.3465686334696L449.35,345.24610902847985L451.05208333333337,352.8154213127813L452.75416666666666,322.1096002277253L454.45625,398.4787407712429L456.15833333333336,341.55126772288764L457.86041666666665,298.150682204536L459.5625,368.5321148598034L461.26458333333335,168.62781922732077L462.96666666666664,320.6409630678328L464.66875,320.5881149521364L466.37083333333334,289.47421161457896L468.07291666666663,287.80776237137616L469.775,353.796067662271L471.47708333333327,269.71413249815146L473.17916666666673,306.41881348033036L474.88125,300.7092670783667L476.58333333333337,356.1042337242647L478.28541666666666,263.4667942912451L479.9875,215.17431281773105L481.68958333333336,399.4476018624014L483.39166666666665,299.9594182121966L485.09375,361.81822541203087L486.79583333333335,361.2612010059612L488.49791666666664,113.36603246629238L490.2,380.04399751878475L491.90208333333334,297.09483591440534L493.60416666666663,386.14418516650665L495.30625,302.4810363651652L497.00833333333327,217.98183996629498L498.71041666666673,364.93462155140674L500.4125,397.96268674303843L502.11458333333337,361.7380159038917L503.81666666666666,368.27192770483504L505.51875,275.24044409394264L507.22083333333336,331.0614340153656L508.92291666666665,341.82662465077425L510.625,282.36120258857096L512.3270833333333,399.2538200827299L514.0291666666667,313.01062058324794L515.7312499999999,316.93326867917284L517.4333333333333,351.69826268151934L519.1354166666666,329.4643663415419L520.8375,372.9936801891641L522.5395833333333,339.80267160439064L524.2416666666667,399.2085027764967L525.94375,377.6632099700094L527.6458333333334,317.4431849683502L529.3479166666667,311.34611497699683L531.0500000000001,312.1028167308707L532.7520833333333,366.4157042575867L534.4541666666667,296.8819763192109L536.15625,330.1189268387056L537.8583333333333,341.87060100425566L539.5604166666667,352.68112540411363L541.2624999999999,318.56327786442955L542.9645833333333,126.55209189280868L544.6666666666666,291.00775370906507L546.36875,317.98754125035236L548.0708333333333,398.8729945954401L549.7729166666667,382.02460902859457L551.475,320.15772476326674L553.1770833333334,349.6994452497789L554.8791666666667,344.2025076511449L556.5812500000001,353.5141023687486L558.2833333333333,382.4913969542831L559.9854166666667,290.9388361046357L561.6875,112.19766840604797L563.3895833333333,338.25011321676095L565.0916666666667,399.3060028162602L566.7937499999999,374.07817631494254L568.4958333333333,342.17199012770186L570.1979166666666,380.5808425844381L571.9,315.48868245910853L573.6020833333333,288.4326103023652L575.3041666666667,395.7843227129862L577.00625,42.69506687298417L578.7083333333334,350.6157822953537L580.4104166666667,354.0069867554121L582.1125000000001,397.1316197151983L583.8145833333333,286.53157034888864L585.5166666666667,318.52410417515785L587.21875,309.5726591149079L588.9208333333333,98.53691013795986L590.6229166666667,269.24802327794686L592.3249999999999,393.93721319884725L594.0270833333333,392.5725088900487L595.7291666666666,372.5122820699055L597.43125,317.4224256717467L599.1333333333333,280.67925440812746L600.8354166666667,105.53224762103386L602.5375,351.5409628890588L604.2395833333334,383.43990432630693L605.9416666666667,355.83565131162425L607.6437500000001,333.0434170431856L609.3458333333333,295.1654940989933L611.0479166666667,383.27183929305255L612.75,299.4127985336153L614.4520833333333,238.44532756534002L616.1541666666667,381.3662506021293L617.8562499999999,373.7787026143633L619.5583333333333,189.5519111651395L621.2604166666666,304.08568422310054L622.9625,237.5707285558539L624.6645833333333,399.0108921104028L626.3666666666667,347.6079100656456L628.06875,309.56225752231796L629.7708333333334,360.86446395044084L631.4729166666667,311.96491255424917L633.1750000000001,291.75176539458334L634.8770833333333,317.74341417942196L636.5791666666667,330.74623252996906L638.28125,178.92079386061855L639.9833333333333,399.2802621662434L641.6854166666667,172.63010627989254L643.3874999999999,347.7984241056921L645.0895833333333,356.8968927617451L646.7916666666666,391.6246590629453L648.49375,256.937528409596L650.1958333333333,365.7104022963904L651.8979166666667,183.20416843518615L653.6,370.449923384336L655.3020833333334,319.8820167267695L657.0041666666667,308.84358835473125L658.7062500000001,150.96655452890056L660.4083333333333,337.4386447894254L662.1104166666667,363.97248991133114L663.8125,306.4694797068036L665.5145833333333,272.44070403277874L667.2166666666667,383.05504383303094L668.9187499999999,374.91385869681835L670.6208333333333,363.3698934885407L672.3229166666666,290.5080383789859L674.025,386.31440387489937L675.7270833333333,150.9029286328171L677.4291666666667,336.20274248000766L679.13125,291.7071369822536L680.8333333333334,251.28277376028043L682.5354166666667,328.26775057773506L684.2375000000001,379.6047606468866L685.9395833333333,287.5641306143786L687.6416666666667,310.91594423100884L689.34375,341.09321519133766L691.0458333333333,341.85924640257974L692.7479166666667,333.79101505236963L694.4499999999999,298.21090987085233L696.1520833333333,366.238460242083L697.8541666666666,400.42583825881593L699.55625,257.8949514324112L701.2583333333333,397.29069229265275L702.9604166666667,354.337887811541L704.6625,348.03353520908524L706.3645833333334,266.2978707959077L708.0666666666667,364.79619698166584L709.7687500000001,392.68538168739593L711.4708333333333,331.5967429808474L713.1729166666667,332.50177558311924L714.875,386.4481025854392L716.5770833333333,307.6446276869891L718.2791666666667,362.66048481055935L719.9812499999999,351.20594571144983L721.6833333333333,353.99616822134703L723.3854166666666,309.06366448583344L725.0875,358.24034716235474L726.7895833333333,299.8976419061156L728.4916666666667,323.808056782665L730.19375,390.83039339008144L731.8958333333334,348.2875058607065L733.5979166666667,-28.1757296781455L737.0020833333333,391.80128550348206L738.7041666666667,316.13580070768614L740.40625,294.61228486416593L742.1083333333333,241.63744403847627L743.8104166666667,317.1927254028352L745.5124999999999,311.6382937692106L747.2145833333333,372.9397160496696L748.9166666666666,262.8813206830195" style="fill: none;" fill="none"></path></g></g></g></g></g></g><g transform="translate(70, 377)" clip-path="url(#clip_1)"><clipPath id="clip_1"><rect width="817" height="23"></rect></clipPath><g><g><line x1="0" y1="0" x2="0" y2="5" style="visibility: inherit;" fill="rgb(0, 0, 0)" stroke="rgb(204, 204, 204)" stroke-width="1px"></line><line x1="68.08333333333333" y1="0" x2="68.08333333333333" y2="5" style="visibility: inherit;" fill="rgb(0, 0, 0)" stroke="rgb(204, 204, 204)" stroke-width="1px"></line><line x1="136.16666666666666" y1="0" x2="136.16666666666666" y2="5" style="visibility: inherit;" fill="rgb(0, 0, 0)" stroke="rgb(204, 204, 204)" stroke-width="1px"></line><line x1="204.25" y1="0" x2="204.25" y2="5" style="visibility: inherit;" fill="rgb(0, 0, 0)" stroke="rgb(204, 204, 204)" stroke-width="1px"></line><line x1="272.3333333333333" y1="0" x2="272.3333333333333" y2="5" style="visibility: inherit;" fill="rgb(0, 0, 0)" stroke="rgb(204, 204, 204)" stroke-width="1px"></line><line x1="340.4166666666667" y1="0" x2="340.4166666666667" y2="5" style="visibility: inherit;" fill="rgb(0, 0, 0)" stroke="rgb(204, 204, 204)" stroke-width="1px"></line><line x1="408.5" y1="0" x2="408.5" y2="5" style="visibility: inherit;" fill="rgb(0, 0, 0)" stroke="rgb(204, 204, 204)" stroke-width="1px"></line><line x1="476.58333333333337" y1="0" x2="476.58333333333337" y2="5" style="visibility: inherit;" fill="rgb(0, 0, 0)" stroke="rgb(204, 204, 204)" stroke-width="1px"></line><line x1="544.6666666666666" y1="0" x2="544.6666666666666" y2="5" style="visibility: inherit;" fill="rgb(0, 0, 0)" stroke="rgb(204, 204, 204)" stroke-width="1px"></line><line x1="612.75" y1="0" x2="612.75" y2="5" style="visibility: inherit;" fill="rgb(0, 0, 0)" stroke="rgb(204, 204, 204)" stroke-width="1px"></line><line x1="680.8333333333334" y1="0" x2="680.8333333333334" y2="5" style="visibility: inherit;" fill="rgb(0, 0, 0)" stroke="rgb(204, 204, 204)" stroke-width="1px"></line><line x1="748.9166666666666" y1="0" x2="748.9166666666666" y2="5" style="visibility: inherit;" fill="rgb(0, 0, 0)" stroke="rgb(204, 204, 204)" stroke-width="1px"></line><line x1="817" y1="0" x2="817" y2="5" style="visibility: inherit;" fill="rgb(0, 0, 0)" stroke="rgb(204, 204, 204)" stroke-width="1px"></line></g><g transform="translate(0, 8)"><text x="0" y="0" dx="0em" dy="0.95em" style="text-anchor: middle; visibility: hidden; font-family: Roboto, sans-serif; font-size: 12px; font-weight: 200;" fill="rgb(33, 33, 33)" stroke="none" stroke-width="1px">-20k</text><text x="68.08333333333333" y="0" dx="0em" dy="0.95em" style="text-anchor: middle; visibility: inherit; font-family: Roboto, sans-serif; font-size: 12px; font-weight: 200;" fill="rgb(33, 33, 33)" stroke="none" stroke-width="1px">0</text><text x="136.16666666666666" y="0" dx="0em" dy="0.95em" style="text-anchor: middle; visibility: inherit; font-family: Roboto, sans-serif; font-size: 12px; font-weight: 200;" fill="rgb(33, 33, 33)" stroke="none" stroke-width="1px">20k</text><text x="204.25" y="0" dx="0em" dy="0.95em" style="text-anchor: middle; visibility: inherit; font-family: Roboto, sans-serif; font-size: 12px; font-weight: 200;" fill="rgb(33, 33, 33)" stroke="none" stroke-width="1px">40k</text><text x="272.3333333333333" y="0" dx="0em" dy="0.95em" style="text-anchor: middle; visibility: inherit; font-family: Roboto, sans-serif; font-size: 12px; font-weight: 200;" fill="rgb(33, 33, 33)" stroke="none" stroke-width="1px">60k</text><text x="340.4166666666667" y="0" dx="0em" dy="0.95em" style="text-anchor: middle; visibility: inherit; font-family: Roboto, sans-serif; font-size: 12px; font-weight: 200;" fill="rgb(33, 33, 33)" stroke="none" stroke-width="1px">80k</text><text x="408.5" y="0" dx="0em" dy="0.95em" style="text-anchor: middle; visibility: inherit; font-family: Roboto, sans-serif; font-size: 12px; font-weight: 200;" fill="rgb(33, 33, 33)" stroke="none" stroke-width="1px">100k</text><text x="476.58333333333337" y="0" dx="0em" dy="0.95em" style="text-anchor: middle; visibility: inherit; font-family: Roboto, sans-serif; font-size: 12px; font-weight: 200;" fill="rgb(33, 33, 33)" stroke="none" stroke-width="1px">120k</text><text x="544.6666666666666" y="0" dx="0em" dy="0.95em" style="text-anchor: middle; visibility: inherit; font-family: Roboto, sans-serif; font-size: 12px; font-weight: 200;" fill="rgb(33, 33, 33)" stroke="none" stroke-width="1px">140k</text><text x="612.75" y="0" dx="0em" dy="0.95em" style="text-anchor: middle; visibility: inherit; font-family: Roboto, sans-serif; font-size: 12px; font-weight: 200;" fill="rgb(33, 33, 33)" stroke="none" stroke-width="1px">160k</text><text x="680.8333333333334" y="0" dx="0em" dy="0.95em" style="text-anchor: middle; visibility: inherit; font-family: Roboto, sans-serif; font-size: 12px; font-weight: 200;" fill="rgb(33, 33, 33)" stroke="none" stroke-width="1px">180k</text><text x="748.9166666666666" y="0" dx="0em" dy="0.95em" style="text-anchor: middle; visibility: inherit; font-family: Roboto, sans-serif; font-size: 12px; font-weight: 200;" fill="rgb(33, 33, 33)" stroke="none" stroke-width="1px">200k</text><text x="817" y="0" dx="0em" dy="0.95em" style="text-anchor: middle; visibility: hidden; font-family: Roboto, sans-serif; font-size: 12px; font-weight: 200;" fill="rgb(33, 33, 33)" stroke="none" stroke-width="1px">220k</text></g><line x1="0" y1="0" x2="817" y2="0" fill="rgb(0, 0, 0)" stroke="rgb(204, 204, 204)" stroke-width="1px"></line></g></g></g></g></svg>