<svg viewBox="0 0 1112.5999755859375 400" xmlns="http://www.w3.org/2000/svg"><g><g><g><g><g><line x1="61.953125" y1="360.6294797687864" x2="56.953125" y2="360.6294797687864" style="visibility: inherit;" fill="rgb(0, 0, 0)" stroke="rgb(204, 204, 204)" stroke-width="1px"></line><line x1="61.953125" y1="309.00953757225454" x2="56.953125" y2="309.00953757225454" style="visibility: inherit;" fill="rgb(0, 0, 0)" stroke="rgb(204, 204, 204)" stroke-width="1px"></line><line x1="61.953125" y1="257.3895953757227" x2="56.953125" y2="257.3895953757227" style="visibility: inherit;" fill="rgb(0, 0, 0)" stroke="rgb(204, 204, 204)" stroke-width="1px"></line><line x1="61.953125" y1="205.76965317919078" x2="56.953125" y2="205.76965317919078" style="visibility: inherit;" fill="rgb(0, 0, 0)" stroke="rgb(204, 204, 204)" stroke-width="1px"></line><line x1="61.953125" y1="154.1497109826589" x2="56.953125" y2="154.1497109826589" style="visibility: inherit;" fill="rgb(0, 0, 0)" stroke="rgb(204, 204, 204)" stroke-width="1px"></line><line x1="61.953125" y1="102.52976878612702" x2="56.953125" y2="102.52976878612702" style="visibility: inherit;" fill="rgb(0, 0, 0)" stroke="rgb(204, 204, 204)" stroke-width="1px"></line><line x1="61.953125" y1="50.90982658959519" x2="56.953125" y2="50.90982658959519" style="visibility: inherit;" fill="rgb(0, 0, 0)" stroke="rgb(204, 204, 204)" stroke-width="1px"></line></g><g transform="translate(51.953125, 0)"><text x="0" y="360.6294797687864" dx="0em" dy="0.3em" style="text-anchor: end; visibility: inherit; font-family: Roboto, sans-serif; font-size: 12px; font-weight: 200;" fill="rgb(50, 49, 63)" stroke="none" stroke-width="1px">0</text><text x="0" y="309.00953757225454" dx="0em" dy="0.3em" style="text-anchor: end; visibility: inherit; font-family: Roboto, sans-serif; font-size: 12px; font-weight: 200;" fill="rgb(50, 49, 63)" stroke="none" stroke-width="1px">5e-3</text><text x="0" y="257.3895953757227" dx="0em" dy="0.3em" style="text-anchor: end; visibility: inherit; font-family: Roboto, sans-serif; font-size: 12px; font-weight: 200;" fill="rgb(50, 49, 63)" stroke="none" stroke-width="1px">0.01</text><text x="0" y="205.76965317919078" dx="0em" dy="0.3em" style="text-anchor: end; visibility: inherit; font-family: Roboto, sans-serif; font-size: 12px; font-weight: 200;" fill="rgb(50, 49, 63)" stroke="none" stroke-width="1px">0.015</text><text x="0" y="154.1497109826589" dx="0em" dy="0.3em" style="text-anchor: end; visibility: inherit; font-family: Roboto, sans-serif; font-size: 12px; font-weight: 200;" fill="rgb(50, 49, 63)" stroke="none" stroke-width="1px">0.02</text><text x="0" y="102.52976878612702" dx="0em" dy="0.3em" style="text-anchor: end; visibility: inherit; font-family: Roboto, sans-serif; font-size: 12px; font-weight: 200;" fill="rgb(50, 49, 63)" stroke="none" stroke-width="1px">0.025</text><text x="0" y="50.90982658959519" dx="0em" dy="0.3em" style="text-anchor: end; visibility: inherit; font-family: Roboto, sans-serif; font-size: 12px; font-weight: 200;" fill="rgb(50, 49, 63)" stroke="none" stroke-width="1px">0.03</text></g><line x1="61.953125" y1="0" x2="61.953125" y2="378" fill="rgb(0, 0, 0)" stroke="rgb(204, 204, 204)" stroke-width="1px"></line></g></g><g transform="translate(61, 0)" clip-path="url(#clip_0)"><clipPath id="clip_0"><rect width="1050" height="378"></rect></clipPath><g><g><g><line x1="41.252240385094474" y1="0" x2="41.252240385094474" y2="378" fill="rgb(0, 0, 0)" stroke="rgb(60, 60, 60)" stroke-width="1px" opacity="0.25"></line><line x1="136.47815963520364" y1="0" x2="136.47815963520364" y2="378" fill="rgb(0, 0, 0)" stroke="rgb(60, 60, 60)" stroke-width="1px" opacity="0.25"></line><line x1="231.70407888531278" y1="0" x2="231.70407888531278" y2="378" fill="rgb(0, 0, 0)" stroke="rgb(60, 60, 60)" stroke-width="1px" opacity="0.25"></line><line x1="326.929998135422" y1="0" x2="326.929998135422" y2="378" fill="rgb(0, 0, 0)" stroke="rgb(60, 60, 60)" stroke-width="1px" opacity="0.25"></line><line x1="422.15591738553115" y1="0" x2="422.15591738553115" y2="378" fill="rgb(0, 0, 0)" stroke="rgb(60, 60, 60)" stroke-width="1px" opacity="0.25"></line><line x1="517.3818366356403" y1="0" x2="517.3818366356403" y2="378" fill="rgb(0, 0, 0)" stroke="rgb(60, 60, 60)" stroke-width="1px" opacity="0.25"></line><line x1="612.6077558857495" y1="0" x2="612.6077558857495" y2="378" fill="rgb(0, 0, 0)" stroke="rgb(60, 60, 60)" stroke-width="1px" opacity="0.25"></line><line x1="707.8336751358587" y1="0" x2="707.8336751358587" y2="378" fill="rgb(0, 0, 0)" stroke="rgb(60, 60, 60)" stroke-width="1px" opacity="0.25"></line><line x1="803.0595943859678" y1="0" x2="803.0595943859678" y2="378" fill="rgb(0, 0, 0)" stroke="rgb(60, 60, 60)" stroke-width="1px" opacity="0.25"></line><line x1="898.285513636077" y1="0" x2="898.285513636077" y2="378" fill="rgb(0, 0, 0)" stroke="rgb(60, 60, 60)" stroke-width="1px" opacity="0.25"></line><line x1="993.5114328861862" y1="0" x2="993.5114328861862" y2="378" fill="rgb(0, 0, 0)" stroke="rgb(60, 60, 60)" stroke-width="1px" opacity="0.25"></line></g><g><line x1="0" y1="360.6294797687864" x2="1050.646875" y2="360.6294797687864" fill="rgb(0, 0, 0)" stroke="rgb(60, 60, 60)" stroke-width="1px" opacity="0.25"></line><line x1="0" y1="309.00953757225454" x2="1050.646875" y2="309.00953757225454" fill="rgb(0, 0, 0)" stroke="rgb(60, 60, 60)" stroke-width="1px" opacity="0.25"></line><line x1="0" y1="257.3895953757227" x2="1050.646875" y2="257.3895953757227" fill="rgb(0, 0, 0)" stroke="rgb(60, 60, 60)" stroke-width="1px" opacity="0.25"></line><line x1="0" y1="205.76965317919078" x2="1050.646875" y2="205.76965317919078" fill="rgb(0, 0, 0)" stroke="rgb(60, 60, 60)" stroke-width="1px" opacity="0.25"></line><line x1="0" y1="154.1497109826589" x2="1050.646875" y2="154.1497109826589" fill="rgb(0, 0, 0)" stroke="rgb(60, 60, 60)" stroke-width="1px" opacity="0.25"></line><line x1="0" y1="102.52976878612702" x2="1050.646875" y2="102.52976878612702" fill="rgb(0, 0, 0)" stroke="rgb(60, 60, 60)" stroke-width="1px" opacity="0.25"></line><line x1="0" y1="50.90982658959519" x2="1050.646875" y2="50.90982658959519" fill="rgb(0, 0, 0)" stroke="rgb(60, 60, 60)" stroke-width="1px" opacity="0.25"></line></g></g></g><g><g><line x1="0" y1="360.6294797687864" x2="1050.646875" y2="360.6294797687864" fill="rgb(0, 0, 0)" stroke="rgb(153, 153, 153)" stroke-width="1.5px"></line></g></g><g><g><line x1="41.252240385094474" y1="0" x2="41.252240385094474" y2="378" fill="rgb(0, 0, 0)" stroke="rgb(153, 153, 153)" stroke-width="1.5px"></line></g></g><g><g><g><g><g><path stroke="rgb(255, 112, 67)" stroke-width="2px" d="M55.53612827261085,-77.54756841160662L57.916776253863574,29.007978275244614L60.2974242351163,73.3877488087173L62.67807221636903,159.92629086008589L65.05872019762177,-114.42406443482966L67.43936817887449,46.07936743035394L69.82001616012722,122.65159776218894L72.20066414137995,177.9161357071259L74.58131212263268,206.43013293394858L76.9619601038854,213.73408694314938L79.34260808513814,260.3590121105164L81.72325606639087,281.58671478360816L84.1039040476436,268.4925542044061L86.48455202889633,88.46125659973013L88.86520001014905,194.47470186371595L91.24584799140179,33.17112717192171L93.62649597265451,152.7330684791787L96.00714395390723,191.37296979420637L98.38779193515997,228.56780803930923L100.7684399164127,250.8935871631161L103.14908789766542,277.61180268925466L105.52973587891816,267.5474087230565L107.91038386017088,287.56933102451023L110.29103184142362,256.2257248322149L112.67167982267635,281.78141883441134L115.05232780392907,267.6352891899462L117.43297578518181,302.22294581142415L119.81362376643453,290.7140863857633L122.19427174768725,272.0922839055239L124.57491972893999,302.4324973269241L126.95556771019271,309.79153857334063L129.33621569144543,294.43934728146667L131.71686367269817,285.4049901773417L134.0975116539509,284.50168000534063L136.47815963520364,286.95229167992085L138.85880761645637,281.81555960027924L141.23945559770908,292.84032557697464L143.62010357896182,244.66446952262584L146.00075156021455,229.32840003586364L148.3813995414673,264.3167017367746L150.76204752272002,275.5261958738182L153.14269550397276,287.3522747355935L155.52334348522547,295.37805439094467L157.9039914664782,299.9764643832166L160.28463944773094,296.4624582062531L162.66528742898367,295.73394790886596L165.04593541023638,310.6094537520405L167.4265833914891,297.61942481074965L169.80723137274182,309.4404367970175L172.18787935399456,293.6225089762261L174.5685273352473,282.3696756140644L176.94917531650003,278.3444100289548L179.32982329775274,289.0920260900386L181.71047127900547,172.7333264342992L184.0911192602582,229.2070388259556L186.47176724151095,269.02854563959386L188.85241522276368,275.989744197124L191.2330632040164,304.5332759074392L193.61371118526912,286.37758541924495L195.99435916652186,297.52470001313463L198.3750071477746,320.9919031066673L200.75565512902733,311.00928657773045L203.13630311028004,297.1380291748147L205.51695109153277,263.06471795561305L207.8975990727855,296.897133321441L210.27824705403825,312.77728523451884L212.65889503529098,316.0367653617309L215.0395430165437,286.0961860263391L217.42019099779642,283.75188313541247L219.80083897904916,290.34891816146524L222.18148696030187,273.7180332584809L224.5621349415546,265.6537184767325L226.9427829228073,283.9182792608966L229.32343090406005,307.50941100805767L231.70407888531278,301.88404245212956L234.08472686656552,315.22108742189954L236.46537484781825,299.16146250958L238.846022829071,279.22054275909585L241.2266708103237,292.1869431991583L243.60731879157643,301.04758035659114L245.98796677282917,322.93649461011233L248.3686147540819,318.3214973175318L250.74926273533464,317.8892215968392L253.12991071658735,323.2285215277297L255.51055869784008,319.72460199601534L257.8912066790928,309.6577452648772L260.2718546603455,325.5854897381677L262.6525026415983,314.70730499652177L265.033150622851,308.8823807132089L267.4137986041037,297.36442753920204L269.79444658535647,302.73896178654974L272.1750945666092,318.06572535952944L274.55574254786194,318.71378673962823L276.93639052911465,318.7162135688215L279.3170385103674,318.88942945119436L281.6976864916201,321.37394798342063L284.0783344728728,319.44276186162665L286.45898245412553,273.19176939738225L288.8396304353783,304.1215908188784L291.220278416631,314.8492559515883L293.60092639788377,327.11553671864004L295.9815743791365,337.16987514129056L298.36222236038924,344.1586985733974L300.74287034164195,345.67976183604895L303.1235183228947,323.7885043412085L305.5041663041474,301.64449828292237L307.88481428540007,263.61019010959603L310.26546226665283,284.60312277401795L312.6461102479056,291.8093953476499L315.02675822915836,295.7339359926115L317.40740621041107,320.53140770748877L319.7880541916638,320.1041423565261L322.16870217291654,317.11459708639785L324.54935015416925,314.07064006723414L326.929998135422,316.56190367238884L329.3106461166747,322.06099895118484L331.6912940979275,313.00987494104896L334.07194207918013,329.82633119021637L336.4525900604329,331.78340225073043L338.8332380416856,328.5237967756169L341.21388602293837,328.6226742694222L343.5945340041911,325.4299816610768L345.97518198544384,328.68267338537305L348.35582996669655,330.15255759600205L350.7364779479493,327.8943612324149L353.117125929202,332.81042644639115L355.4977739104548,277.8073595904877L357.87842189170743,230.06590351279678L360.2590698729602,273.400368619198L362.6397178542129,290.87943726366507L365.02036583546567,317.7004571732972L367.4010138167184,320.8069610893395L369.78166179797114,317.1811269585741L372.16230977922385,322.2515831559319L374.5429577604766,286.92676133727736L376.9236057417293,294.981323699805L379.304253722982,319.73682422561694L381.68490170423473,313.08761139285485L384.06554968548744,312.4176036875366L386.4461976667402,281.76801040436976L388.8268456479929,298.74811490003805L391.2074936292457,319.61746241651593L393.5881416104984,328.11942222171007L395.96878959175115,331.06450407715414L398.34943757300385,338.3631676443077L400.7300855542566,341.41185434757875L403.1107335355093,325.29400290628314L405.4913815167621,338.55911723242815L407.87202949801474,336.22223779769786L410.2526774792675,329.9723099636443L412.6333254605202,332.56375628796786L415.013973441773,316.6537861331243L417.3946214230257,316.28284064814204L419.77526940427845,324.3233508691324L422.15591738553115,314.94261858537647L424.5365653667839,265.8307683423454L426.9172133480366,287.9366637949691L429.2978613292894,308.6499353556509L431.67850931054204,317.7924787272473L434.05915729179475,329.8979176920054L436.4398052730475,330.5086609033642L438.8204532543002,320.22232052252355L441.201101235553,289.7714989113785L443.5817492168057,284.56510683249024L445.96239719805845,305.096248992173L448.34304517931116,326.16980083722194L450.7236931605639,321.55953958528687L453.10434114181663,330.5562738861502L455.48498912306934,322.343956254167L457.86563710432205,319.8663737614664L460.2462850855748,273.8685103368441L462.6269330668275,287.72103831463755L465.0075810480803,314.6316171714174L467.388229029333,319.8383332893063L469.76887701058575,310.9542879351878L472.14952499183846,326.6765122040778L474.5301729730912,339.0140177639488L476.91082095434393,329.4112422291274L479.2914689355967,329.8330560806006L481.67211691684935,341.0568410539632L484.0527648981021,345.36159344745556L486.4334128793548,342.84124027168855L488.8140608606075,323.4290133230851L491.1947088418603,327.7295815429032L493.575356823113,337.9743593794618L495.95600480436576,329.64726530884997L498.33665278561847,337.2810268434216L500.71730076687123,336.53602661827335L503.09794874812394,331.7685695592352L505.47859672937665,330.86927385004617L507.85924471062935,334.8599936770034L510.2398926918821,337.4706074508714L512.6205406731349,338.6292988593229L515.0011886543876,338.30612657753903L517.3818366356403,337.9768839438292L519.7624846168931,337.38642191894115L522.1431325981457,343.3943552308864L524.5237805793985,334.18287006106317L526.9044285606512,339.69635742545273L529.2850765419039,344.20143732157567L531.6657245231567,329.8073744731134L534.0463725044094,331.4798246724165L536.4270204856622,327.12841105909433L538.8076684669148,315.6074281423892L541.1883164481676,275.39719101295196L543.5689644294204,299.63380263051954L545.949612410673,308.8442579214162L548.3302603919258,307.4169221926417L550.7109083731785,327.5426761657124L553.0915563544313,322.8279068461498L555.472204335684,322.25745595460535L557.8528523169367,321.1961746036422L560.2335002981895,324.96903861892764L562.6141482794422,330.81304348585127L564.9947962606948,320.39999644282386L567.3754442419475,333.3886006884977L569.7560922232003,332.0120158193959L572.1367402044531,331.3619475791378L574.5173881857057,330.9245625547405L576.8980361669585,332.9445786875328L579.2786841482113,325.49512734232394L581.659332129464,338.29027379814386L584.0399801107167,332.5180744092627L586.4206280919694,323.85174708338207L588.8012760732222,329.6256239026559L591.181924054475,298.16969099059037L593.5625720357276,300.9125787043234L595.9432200169804,308.2710265083412L598.3238679982331,307.7926691312704L600.7045159794859,304.15267079174583L603.0851639607386,316.60904498348805L605.4658119419913,310.46459384434337L607.8464599232441,312.63814341458254L610.2271079044967,309.8127751767377L612.6077558857495,318.3970376610552L614.9884038670021,311.89053552204723L617.3690518482549,294.95510115518925L619.7496998295076,320.2473697519354L622.1303478107603,317.1147930481857L624.5109957920131,324.00164191640386L626.8916437732659,327.70520942993613L629.2722917545185,287.658159922585L631.6529397357713,309.30216349285996L634.033587717024,310.7905798074499L636.4142356982768,327.5950194786985L638.7948836795294,319.7608639262326L641.1755316607822,305.6582727779425L643.556179642035,320.04341743588054L645.9368276232877,335.22110896497L648.3174756045404,336.4174538747055L650.6981235857932,337.3874815044071L653.0787715670459,323.9377559219011L655.4594195482987,326.34499342220806L657.8400675295513,327.6912488723123L660.2207155108041,323.2672062876268L662.6013634920569,337.27161486548334L664.9820114733094,330.7581976295172L667.3626594545622,325.9960750797065L669.7433074358149,326.8209970056412L672.1239554170677,325.34333175140347L674.5046033983203,330.12446320643767L676.8852513795731,327.9307849573797L679.2658993608259,339.9350974726652L681.6465473420786,340.5795005864134L684.0271953233313,332.936760957128L686.407843304584,324.86037006933844L688.7884912858368,321.1526453044527L691.1691392670896,329.24483742925844L693.5497872483422,319.53014469602016L695.930435229595,321.3472451373154L698.3110832108478,324.9014042175817L700.6917311921005,328.36996037894295L703.0723791733532,322.32876905286633L705.4530271546059,291.5621641874275L707.8336751358587,292.8313967727159L710.2143231171115,301.7953962985232L712.5949710983641,324.3474337969273L714.9756190796168,335.0563860973129L717.3562670608695,325.44474064540907L719.7369150421222,327.9194722063418L722.1175630233749,330.2770883011129L724.4982110046277,331.9728139129735L726.8788589858805,338.26210347649317L729.2595069671331,320.0420227170746L731.6401549483859,282.973251705178L734.0208029296386,296.43301390523294L736.4014509108914,321.2777151991198L738.7820988921441,329.54889481627544L741.1627468733968,328.53628689309096L743.5433948546496,333.31466989613943L745.9240428359024,325.4952764020265L748.304690817155,320.00693866150135L750.6853387984078,334.95227722769926L753.0659867796605,282.7163498000085L755.4466347609133,303.65717556445225L757.827282742166,315.8303545083817L760.2079307234187,331.8092473072738L762.5885787046714,320.38449943996824L764.9692266859241,320.0582859284513L767.3498746671768,316.75334784669036L769.7305226484295,283.36850458631017L772.1111706296823,289.27593179857877L774.491818610935,315.39076616187265L776.8724665921877,329.8902713630974L779.2531145734405,336.6010877961766L781.6337625546932,331.06487341200926L784.0144105359459,315.7959853578707L786.3950585171987,283.47397269960663L788.7757064984514,301.3915290229316L791.1563544797042,321.56431792395324L793.5370024609568,326.06272869122347L795.9176504422096,323.1869125919043L798.2982984234624,318.9161863331495L800.6789464047151,332.09955276097503L803.0595943859678,318.9753020620199L805.4402423672205,300.6161300849975L807.8208903484733,319.99616532876945L810.2015383297261,327.8465177969574L812.5821863109786,301.47178594668964L814.9628342922314,301.8057583342302L817.3434822734841,293.4575046464968L819.7241302547369,319.53009314964396L822.1047782359896,322.7084603580662L824.4854262172423,319.76857085552376L826.8660741984951,326.05966993188895L829.2467221797478,315.13493376734937L831.6273701610005,313.4474846529518L834.0080181422533,317.21642788059074L836.388666123506,321.4505477979579L838.7693141047587,295.1246215557536L841.1499620860114,320.1461128171327L843.5306100672642,295.800792826317L845.911258048517,310.21020398414896L848.2919060297696,318.08189996140936L850.6725540110224,332.9364153890415L853.0532019922751,308.55055591232986L855.4338499735279,322.60772408717895L857.8144979547806,302.7632193329735L860.1951459360333,319.68396974419215L862.575793917286,322.0207589404283L864.9564418985387,314.51657734722784L867.3370898797914,287.7541644974315L869.7177378610442,302.1465888954932L872.0983858422969,315.60845906723944L874.4790338235497,318.05690942891033L876.8596818048023,313.53965626147937L879.2403297860551,328.5277791928784L881.6209777673079,334.9907469310969L884.0016257485606,334.8561893664537L886.3822737298133,324.08905749212715L888.762921711066,335.2585030855466L891.1435696923188,298.9185760351927L893.5242176735715,309.48104162460186L895.9048656548242,305.2527154763398L898.285513636077,301.6658888454147L900.6661616173297,310.94807956128966L903.0468095985824,325.0960317201651L905.4274575798352,315.8372062966403L907.8081055610879,311.8494173879666L910.1887535423406,316.97392922377026L912.5694015235932,321.4652069737711L914.950049504846,316.4770457020611L917.3306974860988,311.43241764811495L919.7113454673515,321.2906985838427L922.0919934486042,336.3488971534988L924.4726414298569,320.85580915699296L926.8532894111097,335.3637461185272L929.2339373923625,334.08680449436645L931.6145853736151,335.4631014523012L933.9952333548679,320.75264182305284L936.3758813361206,328.91173893714L938.7565293173734,339.41628615082175L941.137177298626,334.7761000131928L943.5178252798788,331.47313028663245L945.8984732611316,339.6245418907842L948.2791212423842,326.75440257663814L950.659769223637,328.929094177254L953.0404172048898,332.1764913629644L955.4210651861425,331.4661634322804L957.8017131673952,324.33483438763335L960.1823611486478,328.3310649109511L962.5630091299006,317.5629606394392L964.9436571111534,322.5094119138735L967.324305092406,335.2407762051857L969.7049530736588,331.87640266574914L972.0856010549115,275.3142607401818L974.4662490361643,308.05289505761374L976.846897017417,326.6072417268803L979.2275449986697,319.4106039657641L981.6081929799225,313.94540232489254L983.9888409611752,302.2582092174102L986.3694889424279,305.9894324165037L988.7501369236807,308.20946715495745L991.1307849049334,321.3677757925973L993.5114328861862,314.99388400871527" style="fill: none;" fill="none"></path></g></g></g></g><g opacity="0.2"><g><g><g><path stroke="rgb(255, 112, 67)" stroke-width="2px" d="M48.39418432885266,-109.22021071069373L50.77483231010539,104.76110951810031L53.155480291358124,-178.86692951377645L55.53612827261085,98.32692978760225L57.916776253863574,184.36698827792196L60.2974242351163,138.839290018961L62.67807221636903,288.4259402585233L65.05872019762177,-523.4612598468641L67.43936817887449,285.9610626397505L69.82001616012722,237.25992164231974L72.20066414137995,260.70467364152614L74.58131212263268,249.16761164081672L76.9619601038854,224.68486664269577L79.34260808513814,330.2766697558184L81.72325606639087,313.4228790818366L84.1039040476436,248.85330809917463L86.48455202889633,-181.5692342335784L88.86520001014905,353.48905573040463L91.24584799140179,-208.7789271029354L93.62649597265451,332.0736198980999L96.00714395390723,249.33236404027951L98.38779193515997,284.3598010419724L100.7684399164127,284.3821606395768L103.14908789766542,317.68905761387174L105.52973587891816,252.45083322497473L107.91038386017088,317.6021960336706L110.29103184142362,209.21033286690673L112.67167982267635,320.11495136315983L115.05232780392907,246.4160975378546L117.43297578518181,354.10442661456955L119.81362376643453,273.4507980716281L122.19427174768725,244.15958098546972L124.57491972893999,347.9428166766697L126.95556771019271,320.8301003291091L129.33621569144543,271.41106048616984L131.71686367269817,271.85345457147366L134.0975116539509,283.1467147503577L136.47815963520364,290.62820918687737L138.85880761645637,274.11046148699677L141.23945559770908,309.37747453405956L143.62010357896182,172.40068546196798L146.00075156021455,206.32429580970566L148.3813995414673,316.79915428268555L150.76204752272002,292.34043707833507L153.14269550397276,305.09139302759263L155.52334348522547,307.4167238737012L157.9039914664782,306.87407937153137L160.28463944773094,291.1914489408504L162.66528742898367,294.6411824627905L165.04593541023638,332.92271251673753L167.4265833914891,278.1343813988473L169.80723137274182,327.17195477640075L172.18787935399456,269.8956172450538L174.5685273352473,265.4904255708282L176.94917531650003,272.3065116512919L179.32982329775274,305.21345018166204L181.71047127900547,-1.8047230492957205L184.0911192602582,313.91760741343603L186.47176724151095,328.76080586004946L188.85241522276368,286.43154203341913L191.2330632040164,347.34857347291154L193.61371118526912,259.1440496869537L195.99435916652186,314.2453719039692L198.3750071477746,356.19270774696605L200.75565512902733,296.0353617843253L203.13630311028004,276.331143070441L205.51695109153277,211.95475112681063L207.8975990727855,347.6457563701829L210.27824705403825,336.59751310413566L212.65889503529098,320.925985552549L215.0395430165437,241.18531702325143L217.42019099779642,280.2354287990225L219.80083897904916,300.2444707005443L222.18148696030187,248.77170590400448L224.5621349415546,253.55724630410973L226.9427829228073,311.31512043714287L229.32343090406005,342.8961086287992L231.70407888531278,293.4459896182374L234.08472686656552,335.22665487655456L236.46537484781825,275.0720251411007L238.846022829071,249.30916313336945L241.2266708103237,311.63654385925196L243.60731879157643,314.33853609274036L245.98796677282917,355.7698659903941L248.3686147540819,311.39900137866096L250.74926273533464,317.2408080158003L253.12991071658735,331.2374714240655L255.51055869784008,314.4687226984437L257.8912066790928,294.55746016817005L260.2718546603455,349.47710644810354L262.6525026415983,298.3900278840528L265.033150622851,300.14499428823956L267.4137986041037,280.0874977781918L269.79444658535647,310.8007631575712L272.1750945666092,341.0558707189991L274.55574254786194,319.6858788097764L276.93639052911465,318.7198538126114L279.3170385103674,319.1492532747536L281.6976864916201,325.10072578176005L284.0783344728728,316.5459826789357L286.45898245412553,203.8152807010155L288.8396304353783,350.51632295112273L291.220278416631,330.9407536506531L293.60092639788377,345.5149578692176L295.9815743791365,352.2513827752664L298.36222236038924,354.6419337215576L300.74287034164195,347.96135673002624L303.1235183228947,290.95161809894796L305.5041663041474,268.4284891954931L307.88481428540007,206.5587278496065L310.26546226665283,316.09252177065076L312.6461102479056,302.6188042080979L315.02675822915836,301.62074696005396L317.40740621041107,357.72761527980447L319.7880541916638,319.4632443300822L322.16870217291654,312.6302791812056L324.54935015416925,309.50470453848857L326.929998135422,320.29879908012083L329.3106461166747,330.3096418693788L331.6912940979275,299.4331889258452L334.07194207918013,355.05101556396744L336.4525900604329,334.7190088415015L338.8332380416856,323.6343885629467L341.21388602293837,328.7709905101301L343.5945340041911,320.6409427485587L345.97518198544384,333.5617109718175L348.35582996669655,332.3573839119455L350.7364779479493,324.5070666870341L353.117125929202,340.1845242673555L355.4977739104548,195.3027593066324L357.87842189170743,158.4537193962604L360.2590698729602,338.40206627879974L362.6397178542129,317.0980402303657L365.02036583546567,357.9319870377454L367.4010138167184,325.4667169634029L369.78166179797114,311.742375762426L372.16230977922385,329.85726745196865L374.5429577604766,233.93952860929554L376.9236057417293,307.0631672435964L379.304253722982,356.8700750143349L381.68490170423473,303.1137921437117L384.06554968548744,311.41259212955913L386.4461976667402,235.79362047961945L388.8268456479929,324.2182716435405L391.2074936292457,350.92148369123277L393.5881416104984,340.8723619295012L395.96878959175115,335.48212686032025L398.34943757300385,349.31116299503805L400.7300855542566,345.98488440248536L403.1107335355093,301.1172257443397L405.4913815167621,358.45678872164575L407.87202949801474,332.71691864560233L410.2526774792675,320.59741821256404L412.6333254605202,336.4509257744532L415.013973441773,292.7888309008589L417.3946214230257,315.72642242066865L419.77526940427845,336.38411620061794L422.15591738553115,300.8715201597426L424.5365653667839,192.1629929777989L426.9172133480366,321.09550697390455L429.2978613292894,339.71984269667354L431.67850931054204,331.506293784642L434.05915729179475,348.0560761391425L436.4398052730475,331.42477572040247L438.8204532543002,304.79280995126254L441.201101235553,244.09526649466105L443.5817492168057,276.7555187141578L445.96239719805845,335.89296223169725L448.34304517931116,357.78012860479515L450.7236931605639,314.6441477073843L453.10434114181663,344.0513753374451L455.48498912306934,310.0254798061922L457.86563710432205,316.1500000224155L460.2462850855748,204.87171519991077L462.6269330668275,308.49983028132766L465.0075810480803,354.9974854565873L467.388229029333,327.64840746613976L469.76887701058575,297.62821990401005L472.14952499183846,350.2598486074128L474.5301729730912,357.5202761037553L476.91082095434393,315.0070789268953L479.2914689355967,330.4657768578104L481.67211691684935,357.892518514007L484.0527648981021,351.81872203769416L486.4334128793548,339.06071050803797L488.8140608606075,294.3106729001799L491.1947088418603,334.1804338726304L493.575356823113,353.3415261342998L495.95600480436576,317.15662420293216L498.33665278561847,348.73166914527906L500.71730076687123,335.418526280551L503.09794874812394,324.6173839706779L505.47859672937665,329.52033028626255L507.85924471062935,340.8460734174393L510.2398926918821,341.3865281116734L512.6205406731349,340.3673359720001L515.0011886543876,337.82136815486314L517.3818366356403,337.4830199932644L519.7624846168931,336.5007288816091L522.1431325981457,352.4062551988042L524.5237805793985,320.3656423063283L526.9044285606512,347.96658847203713L529.2850765419039,350.9590571657601L531.6657245231567,308.2162802004198L534.0463725044094,333.9884999713712L536.4270204856622,320.60129063911114L538.8076684669148,298.3259537673315L541.1883164481676,215.08183531879607L543.5689644294204,335.9887200568708L545.949612410673,322.6599408577613L548.3302603919258,305.27591859947995L550.7109083731785,357.7313071253184L553.0915563544313,315.75575286680584L555.472204335684,321.40177961728864L557.8528523169367,319.60425257719754L560.2335002981895,330.6283346418557L562.6141482794422,339.57905078623685L564.9947962606948,304.78042587828276L567.3754442419475,352.87150705700844L569.7560922232003,329.9471385157433L572.1367402044531,330.3868452187506L574.5173881857057,330.2684850181444L576.8980361669585,335.97460288672136L579.2786841482113,314.3209503245106L581.659332129464,357.4829934818737L584.0399801107167,323.859775325941L586.4206280919694,310.85225609456114L588.8012760732222,338.2864391315666L591.181924054475,250.98579162249212L593.5625720357276,305.0269102749228L595.9432200169804,319.3086982143679L598.3238679982331,307.0751330656642L600.7045159794859,298.69267328245894L603.0851639607386,335.29360627110134L605.4658119419913,301.2479171356264L607.8464599232441,315.89846776994125L610.2271079044967,305.5747228199704L612.6077558857495,331.2734313875315L614.9884038670021,302.13078231353524L617.3690518482549,269.55194960490223L619.7496998295076,358.1857726470546L622.1303478107603,312.4159279925611L624.5109957920131,334.33191521873107L626.8916437732659,333.26056070023463L629.2722917545185,227.58758566155822L631.6529397357713,341.7681688482725L634.033587717024,313.02320427933483L636.4142356982768,352.8016789855714L638.7948836795294,308.0096305975337L641.1755316607822,284.5043860555074L643.556179642035,341.6211344227876L645.9368276232877,357.9876462586042L648.3174756045404,338.21197123930875L650.6981235857932,338.8425229489596L653.0787715670459,303.7631675481421L655.4594195482987,329.9558496726685L657.8400675295513,329.71063204746866L660.2207155108041,316.63114241059844L662.6013634920569,358.2782277322682L664.9820114733094,320.98807177556796L667.3626594545622,318.85289125499054L669.7433074358149,328.0583798945432L672.1239554170677,323.12683387004677L674.5046033983203,337.296160388989L676.8852513795731,324.64026758379265L679.2658993608259,357.94156624559355L681.6465473420786,341.5461052570357L684.0271953233313,321.47265151319993L686.407843304584,312.7457837376541L688.7884912858368,315.59105815712405L691.1691392670896,341.3831256164671L693.5497872483422,304.9581055961627L695.930435229595,324.0728957992582L698.3110832108478,330.23264283798125L700.6917311921005,333.5727946209848L703.0723791733532,313.2669820637514L705.4530271546059,245.41225688926926L707.8336751358587,294.7352456506483L710.2143231171115,315.24139558723425L712.5949710983641,358.17549004453343L714.9756190796168,351.1198145478913L717.3562670608695,311.02727246755336L719.7369150421222,331.631569547741L722.1175630233749,333.81351244326953L724.4982110046277,334.51640233076444L726.8788589858805,347.6960378217726L729.2595069671331,292.7119015779466L731.6401549483859,227.3700951873331L734.0208029296386,316.62265720531536L736.4014509108914,358.5447671399502L738.7820988921441,341.9556642420089L741.1627468733968,327.0173750083142L743.5433948546496,340.4822444007121L745.9240428359024,313.76618616085716L748.304690817155,311.77443205071364L750.6853387984078,357.37028507699614L753.0659867796605,204.36245865847252L755.4466347609133,335.06841421111784L757.827282742166,334.0901229242759L760.2079307234187,355.7775865056119L762.5885787046714,303.24737763901L764.9692266859241,319.56896566117604L767.3498746671768,311.7959407240488L769.7305226484295,233.29123969573985L772.1111706296823,298.1370726169816L774.491818610935,354.5630177068135L776.8724665921877,351.6395291649345L779.2531145734405,346.6673124457954L781.6337625546932,322.7605518357583L784.0144105359459,292.8926532766627L786.3950585171987,234.99095371221065L788.7757064984514,328.267863507919L791.1563544797042,351.8235012754857L793.5370024609568,332.81034484212876L795.9176504422096,318.8731884429255L798.2982984234624,312.5100969450173L800.6789464047151,351.8746024027133L803.0595943859678,299.2889260135873L805.4402423672205,273.0773721194639L807.8208903484733,349.0662181944274L810.2015383297261,339.62204649923933L812.5821863109786,261.90968817128794L814.9628342922314,302.3067169155411L817.3434822734841,280.93512411489667L819.7241302547369,358.6389759043647L822.1047782359896,327.47601117069956L824.4854262172423,315.35873660171006L826.8660741984951,335.49631854643684L829.2467221797478,298.74782952054L831.6273701610005,310.9163109813555L834.0080181422533,322.86984272204916L836.388666123506,327.8017276740086L838.7693141047587,255.6357321924472L841.1499620860114,357.6783497092013L843.5306100672642,259.2828128400933L845.911258048517,331.82432072089705L848.2919060297696,329.88944392729996L850.6725540110224,355.2181885304897L853.0532019922751,271.97176669726235L855.4338499735279,343.6934763494526L857.8144979547806,272.9964622016653L860.1951459360333,345.06509536102016L862.575793917286,325.5259427347826L864.9564418985387,303.26030495742714L867.3370898797914,247.61054522273693L869.7177378610442,323.73522549258576L872.0983858422969,335.80126432485883L874.4790338235497,321.72958497141667L876.8596818048023,306.7637765103329L879.2403297860551,351.0099635899769L881.6209777673079,344.6851985384247L884.0016257485606,334.6543530194888L886.3822737298133,307.93835968063746L888.762921711066,352.0126714756757L891.1435696923188,244.40868545966177L893.5242176735715,325.3247400087156L895.9048656548242,298.9102262539468L898.285513636077,296.2856488990271L900.6661616173297,324.8713656351021L903.0468095985824,346.31795995847824L905.4274575798352,301.9489681613531L907.8081055610879,305.867734024956L910.1887535423406,324.6606969774757L912.5694015235932,328.2021235987724L914.950049504846,308.9948037944962L917.3306974860988,303.86547556719574L919.7113454673515,336.07811998743426L922.0919934486042,358.936195007983L924.4726414298569,297.6161771622343L926.8532894111097,357.12565156082854L929.2339373923625,332.1713920581254L931.6145853736151,337.5275468892033L933.9952333548679,298.68695237918024L936.3758813361206,341.1503846082707L938.7565293173734,355.17310697134434L941.137177298626,327.81582080674934L943.5178252798788,326.5186756967919L945.8984732611316,351.8516592970119L948.2791212423842,307.449193605419L950.659769223637,332.1911315781777L953.0404172048898,337.04758714153L955.4210651861425,330.40067153625444L957.8017131673952,313.63784082066286L960.1823611486478,334.3254106959277L962.5630091299006,301.41080423217136L964.9436571111534,329.9290888255249L967.324305092406,354.3378226421539L969.7049530736588,326.82984235659427L972.0856010549115,190.47104785183092L974.4662490361643,357.1608465337616L976.846897017417,354.43876173078013L979.2275449986697,308.61564732408976L981.6081929799225,305.74759986358526L983.9888409611752,284.72741955618653L986.3694889424279,311.58626721514395L988.7501369236807,311.5395192626381L991.1307849049334,341.1052387490569L993.5114328861862,305.4330463328923" style="fill: none;" fill="none"></path></g></g></g></g></g></g><g transform="translate(61, 378)" clip-path="url(#clip_1)"><clipPath id="clip_1"><rect width="1050" height="22"></rect></clipPath><g><g><line x1="41.252240385094474" y1="0" x2="41.252240385094474" y2="5" style="visibility: inherit;" fill="rgb(0, 0, 0)" stroke="rgb(204, 204, 204)" stroke-width="1px"></line><line x1="136.47815963520364" y1="0" x2="136.47815963520364" y2="5" style="visibility: inherit;" fill="rgb(0, 0, 0)" stroke="rgb(204, 204, 204)" stroke-width="1px"></line><line x1="231.70407888531278" y1="0" x2="231.70407888531278" y2="5" style="visibility: inherit;" fill="rgb(0, 0, 0)" stroke="rgb(204, 204, 204)" stroke-width="1px"></line><line x1="326.929998135422" y1="0" x2="326.929998135422" y2="5" style="visibility: inherit;" fill="rgb(0, 0, 0)" stroke="rgb(204, 204, 204)" stroke-width="1px"></line><line x1="422.15591738553115" y1="0" x2="422.15591738553115" y2="5" style="visibility: inherit;" fill="rgb(0, 0, 0)" stroke="rgb(204, 204, 204)" stroke-width="1px"></line><line x1="517.3818366356403" y1="0" x2="517.3818366356403" y2="5" style="visibility: inherit;" fill="rgb(0, 0, 0)" stroke="rgb(204, 204, 204)" stroke-width="1px"></line><line x1="612.6077558857495" y1="0" x2="612.6077558857495" y2="5" style="visibility: inherit;" fill="rgb(0, 0, 0)" stroke="rgb(204, 204, 204)" stroke-width="1px"></line><line x1="707.8336751358587" y1="0" x2="707.8336751358587" y2="5" style="visibility: inherit;" fill="rgb(0, 0, 0)" stroke="rgb(204, 204, 204)" stroke-width="1px"></line><line x1="803.0595943859678" y1="0" x2="803.0595943859678" y2="5" style="visibility: inherit;" fill="rgb(0, 0, 0)" stroke="rgb(204, 204, 204)" stroke-width="1px"></line><line x1="898.285513636077" y1="0" x2="898.285513636077" y2="5" style="visibility: inherit;" fill="rgb(0, 0, 0)" stroke="rgb(204, 204, 204)" stroke-width="1px"></line><line x1="993.5114328861862" y1="0" x2="993.5114328861862" y2="5" style="visibility: inherit;" fill="rgb(0, 0, 0)" stroke="rgb(204, 204, 204)" stroke-width="1px"></line></g><g transform="translate(0, 8)"><text x="41.252240385094474" y="0" dx="0em" dy="0.95em" style="text-anchor: middle; visibility: inherit; font-family: Roboto, sans-serif; font-size: 12px; font-weight: 200;" fill="rgb(50, 49, 63)" stroke="none" stroke-width="1px">0</text><text x="136.47815963520364" y="0" dx="0em" dy="0.95em" style="text-anchor: middle; visibility: inherit; font-family: Roboto, sans-serif; font-size: 12px; font-weight: 200;" fill="rgb(50, 49, 63)" stroke="none" stroke-width="1px">20k</text><text x="231.70407888531278" y="0" dx="0em" dy="0.95em" style="text-anchor: middle; visibility: inherit; font-family: Roboto, sans-serif; font-size: 12px; font-weight: 200;" fill="rgb(50, 49, 63)" stroke="none" stroke-width="1px">40k</text><text x="326.929998135422" y="0" dx="0em" dy="0.95em" style="text-anchor: middle; visibility: inherit; font-family: Roboto, sans-serif; font-size: 12px; font-weight: 200;" fill="rgb(50, 49, 63)" stroke="none" stroke-width="1px">60k</text><text x="422.15591738553115" y="0" dx="0em" dy="0.95em" style="text-anchor: middle; visibility: inherit; font-family: Roboto, sans-serif; font-size: 12px; font-weight: 200;" fill="rgb(50, 49, 63)" stroke="none" stroke-width="1px">80k</text><text x="517.3818366356403" y="0" dx="0em" dy="0.95em" style="text-anchor: middle; visibility: inherit; font-family: Roboto, sans-serif; font-size: 12px; font-weight: 200;" fill="rgb(50, 49, 63)" stroke="none" stroke-width="1px">100k</text><text x="612.6077558857495" y="0" dx="0em" dy="0.95em" style="text-anchor: middle; visibility: inherit; font-family: Roboto, sans-serif; font-size: 12px; font-weight: 200;" fill="rgb(50, 49, 63)" stroke="none" stroke-width="1px">120k</text><text x="707.8336751358587" y="0" dx="0em" dy="0.95em" style="text-anchor: middle; visibility: inherit; font-family: Roboto, sans-serif; font-size: 12px; font-weight: 200;" fill="rgb(50, 49, 63)" stroke="none" stroke-width="1px">140k</text><text x="803.0595943859678" y="0" dx="0em" dy="0.95em" style="text-anchor: middle; visibility: inherit; font-family: Roboto, sans-serif; font-size: 12px; font-weight: 200;" fill="rgb(50, 49, 63)" stroke="none" stroke-width="1px">160k</text><text x="898.285513636077" y="0" dx="0em" dy="0.95em" style="text-anchor: middle; visibility: inherit; font-family: Roboto, sans-serif; font-size: 12px; font-weight: 200;" fill="rgb(50, 49, 63)" stroke="none" stroke-width="1px">180k</text><text x="993.5114328861862" y="0" dx="0em" dy="0.95em" style="text-anchor: middle; visibility: inherit; font-family: Roboto, sans-serif; font-size: 12px; font-weight: 200;" fill="rgb(50, 49, 63)" stroke="none" stroke-width="1px">200k</text></g><line x1="0" y1="0" x2="1050.646875" y2="0" fill="rgb(0, 0, 0)" stroke="rgb(204, 204, 204)" stroke-width="1px"></line></g></g></g></g></svg>