<svg viewBox="0 0 887 400" xmlns="http://www.w3.org/2000/svg"><g><g><g><g><g><line x1="50" y1="377" x2="45" y2="377" style="visibility: inherit;" fill="rgb(0, 0, 0)" stroke="rgb(204, 204, 204)" stroke-width="1px"></line><line x1="50" y1="329.875" x2="45" y2="329.875" style="visibility: inherit;" fill="rgb(0, 0, 0)" stroke="rgb(204, 204, 204)" stroke-width="1px"></line><line x1="50" y1="282.75" x2="45" y2="282.75" style="visibility: inherit;" fill="rgb(0, 0, 0)" stroke="rgb(204, 204, 204)" stroke-width="1px"></line><line x1="50" y1="235.625" x2="45" y2="235.625" style="visibility: inherit;" fill="rgb(0, 0, 0)" stroke="rgb(204, 204, 204)" stroke-width="1px"></line><line x1="50" y1="188.5" x2="45" y2="188.5" style="visibility: inherit;" fill="rgb(0, 0, 0)" stroke="rgb(204, 204, 204)" stroke-width="1px"></line><line x1="50" y1="141.375" x2="45" y2="141.375" style="visibility: inherit;" fill="rgb(0, 0, 0)" stroke="rgb(204, 204, 204)" stroke-width="1px"></line><line x1="50" y1="94.25" x2="45" y2="94.25" style="visibility: inherit;" fill="rgb(0, 0, 0)" stroke="rgb(204, 204, 204)" stroke-width="1px"></line><line x1="50" y1="47.125" x2="45" y2="47.125" style="visibility: inherit;" fill="rgb(0, 0, 0)" stroke="rgb(204, 204, 204)" stroke-width="1px"></line><line x1="50" y1="0" x2="45" y2="0" style="visibility: inherit;" fill="rgb(0, 0, 0)" stroke="rgb(204, 204, 204)" stroke-width="1px"></line></g><g transform="translate(40, 0)"><text x="0" y="377" dx="0em" dy="0.3em" style="text-anchor: end; visibility: hidden; font-family: Roboto, sans-serif; font-size: 12px; font-weight: 200;" fill="rgb(33, 33, 33)" stroke="none" stroke-width="1px">1e-3</text><text x="0" y="329.875" dx="0em" dy="0.3em" style="text-anchor: end; visibility: inherit; font-family: Roboto, sans-serif; font-size: 12px; font-weight: 200;" fill="rgb(33, 33, 33)" stroke="none" stroke-width="1px">2e-3</text><text x="0" y="282.75" dx="0em" dy="0.3em" style="text-anchor: end; visibility: inherit; font-family: Roboto, sans-serif; font-size: 12px; font-weight: 200;" fill="rgb(33, 33, 33)" stroke="none" stroke-width="1px">3e-3</text><text x="0" y="235.625" dx="0em" dy="0.3em" style="text-anchor: end; visibility: inherit; font-family: Roboto, sans-serif; font-size: 12px; font-weight: 200;" fill="rgb(33, 33, 33)" stroke="none" stroke-width="1px">4e-3</text><text x="0" y="188.5" dx="0em" dy="0.3em" style="text-anchor: end; visibility: inherit; font-family: Roboto, sans-serif; font-size: 12px; font-weight: 200;" fill="rgb(33, 33, 33)" stroke="none" stroke-width="1px">5e-3</text><text x="0" y="141.375" dx="0em" dy="0.3em" style="text-anchor: end; visibility: inherit; font-family: Roboto, sans-serif; font-size: 12px; font-weight: 200;" fill="rgb(33, 33, 33)" stroke="none" stroke-width="1px">6e-3</text><text x="0" y="94.25" dx="0em" dy="0.3em" style="text-anchor: end; visibility: inherit; font-family: Roboto, sans-serif; font-size: 12px; font-weight: 200;" fill="rgb(33, 33, 33)" stroke="none" stroke-width="1px">7e-3</text><text x="0" y="47.125" dx="0em" dy="0.3em" style="text-anchor: end; visibility: inherit; font-family: Roboto, sans-serif; font-size: 12px; font-weight: 200;" fill="rgb(33, 33, 33)" stroke="none" stroke-width="1px">8e-3</text><text x="0" y="0" dx="0em" dy="0.3em" style="text-anchor: end; visibility: hidden; font-family: Roboto, sans-serif; font-size: 12px; font-weight: 200;" fill="rgb(33, 33, 33)" stroke="none" stroke-width="1px">9e-3</text></g><line x1="50" y1="0" x2="50" y2="377" fill="rgb(0, 0, 0)" stroke="rgb(204, 204, 204)" stroke-width="1px"></line></g></g><g transform="translate(50, 0)" clip-path="url(#clip_0)"><clipPath id="clip_0"><rect width="837" height="377"></rect></clipPath><g><g><g><line x1="0" y1="0" x2="0" y2="377" fill="rgb(0, 0, 0)" stroke="rgb(66, 66, 66)" stroke-width="1px" opacity="0.25"></line><line x1="69.75" y1="0" x2="69.75" y2="377" fill="rgb(0, 0, 0)" stroke="rgb(66, 66, 66)" stroke-width="1px" opacity="0.25"></line><line x1="139.5" y1="0" x2="139.5" y2="377" fill="rgb(0, 0, 0)" stroke="rgb(66, 66, 66)" stroke-width="1px" opacity="0.25"></line><line x1="209.25" y1="0" x2="209.25" y2="377" fill="rgb(0, 0, 0)" stroke="rgb(66, 66, 66)" stroke-width="1px" opacity="0.25"></line><line x1="279" y1="0" x2="279" y2="377" fill="rgb(0, 0, 0)" stroke="rgb(66, 66, 66)" stroke-width="1px" opacity="0.25"></line><line x1="348.75" y1="0" x2="348.75" y2="377" fill="rgb(0, 0, 0)" stroke="rgb(66, 66, 66)" stroke-width="1px" opacity="0.25"></line><line x1="418.5" y1="0" x2="418.5" y2="377" fill="rgb(0, 0, 0)" stroke="rgb(66, 66, 66)" stroke-width="1px" opacity="0.25"></line><line x1="488.25000000000006" y1="0" x2="488.25000000000006" y2="377" fill="rgb(0, 0, 0)" stroke="rgb(66, 66, 66)" stroke-width="1px" opacity="0.25"></line><line x1="558" y1="0" x2="558" y2="377" fill="rgb(0, 0, 0)" stroke="rgb(66, 66, 66)" stroke-width="1px" opacity="0.25"></line><line x1="627.75" y1="0" x2="627.75" y2="377" fill="rgb(0, 0, 0)" stroke="rgb(66, 66, 66)" stroke-width="1px" opacity="0.25"></line><line x1="697.5" y1="0" x2="697.5" y2="377" fill="rgb(0, 0, 0)" stroke="rgb(66, 66, 66)" stroke-width="1px" opacity="0.25"></line><line x1="767.25" y1="0" x2="767.25" y2="377" fill="rgb(0, 0, 0)" stroke="rgb(66, 66, 66)" stroke-width="1px" opacity="0.25"></line><line x1="837" y1="0" x2="837" y2="377" fill="rgb(0, 0, 0)" stroke="rgb(66, 66, 66)" stroke-width="1px" opacity="0.25"></line></g><g><line x1="0" y1="377" x2="837" y2="377" fill="rgb(0, 0, 0)" stroke="rgb(66, 66, 66)" stroke-width="1px" opacity="0.25"></line><line x1="0" y1="329.875" x2="837" y2="329.875" fill="rgb(0, 0, 0)" stroke="rgb(66, 66, 66)" stroke-width="1px" opacity="0.25"></line><line x1="0" y1="282.75" x2="837" y2="282.75" fill="rgb(0, 0, 0)" stroke="rgb(66, 66, 66)" stroke-width="1px" opacity="0.25"></line><line x1="0" y1="235.625" x2="837" y2="235.625" fill="rgb(0, 0, 0)" stroke="rgb(66, 66, 66)" stroke-width="1px" opacity="0.25"></line><line x1="0" y1="188.5" x2="837" y2="188.5" fill="rgb(0, 0, 0)" stroke="rgb(66, 66, 66)" stroke-width="1px" opacity="0.25"></line><line x1="0" y1="141.375" x2="837" y2="141.375" fill="rgb(0, 0, 0)" stroke="rgb(66, 66, 66)" stroke-width="1px" opacity="0.25"></line><line x1="0" y1="94.25" x2="837" y2="94.25" fill="rgb(0, 0, 0)" stroke="rgb(66, 66, 66)" stroke-width="1px" opacity="0.25"></line><line x1="0" y1="47.125" x2="837" y2="47.125" fill="rgb(0, 0, 0)" stroke="rgb(66, 66, 66)" stroke-width="1px" opacity="0.25"></line><line x1="0" y1="0" x2="837" y2="0" fill="rgb(0, 0, 0)" stroke="rgb(66, 66, 66)" stroke-width="1px" opacity="0.25"></line></g></g></g><g><g><line x1="0" y1="424.125" x2="837" y2="424.125" fill="rgb(0, 0, 0)" stroke="rgb(153, 153, 153)" stroke-width="1.5px"></line></g></g><g><g><line x1="69.75" y1="0" x2="69.75" y2="377" fill="rgb(0, 0, 0)" stroke="rgb(153, 153, 153)" stroke-width="1.5px"></line></g></g><g><g><g><g><g><path stroke="rgb(255, 112, 67)" stroke-width="2px" d="M92.41875,-16.082733842357275L94.16250000000001,61.12570602194562L95.90625,60.06257210339797L97.65,176.00590153396945L99.39375,233.5367876671915L101.1375,208.29478279805485L102.88125,-202.49453186641648L104.625,42.89342221175519L106.36874999999999,-462.42728466094314L109.85625,-27.182417060101262L111.6,77.05395095689177L113.34374999999999,139.4156386347877L115.0875,219.48906647744863L116.83125,184.38750747490042L118.575,233.32855296400953L120.31875,172.62549962629254L122.06250000000001,235.48258079370237L123.80625,196.92922513000588L125.55,281.1373993516705L127.29374999999999,247.35737998232239L129.0375,185.21403114943047L130.78125,268.0570940579369L132.525,285.03252273224973L134.26875,241.55617855299982L136.01250000000002,216.5646899133882L137.75625,221.59555728619767L139.5,225.5273726465675L141.24375,212.59543608444716L142.9875,241.43046816091382L144.73125,154.94349680550022L146.475,125.21482560728448L148.21875,192.16201792212925L149.9625,211.322868749226L151.70624999999998,229.65811476415575L153.45,244.51731839708472L155.19375,256.72501485317076L156.9375,248.3553762738396L158.68125,252.34196919379735L160.425,294.067703129042L162.16875000000002,242.75960354497948L163.9125,285.85117958739494L165.65625,249.66757955888096L167.4,207.96803389966544L169.14375,199.00064985125422L170.8875,228.1572680717196L172.63125,-20.449127304835145L174.375,93.9202009497233L176.11875,194.49069551171115L177.86249999999998,204.02264102032794L179.60625,279.2708337596655L181.35,216.42204448605156L183.09375,249.67240923713646L184.8375,314.36865224063354L186.58125,283.6055226444897L188.32500000000002,242.72760455502254L190.06875,164.28208747099742L191.8125,254.3588066782866L193.55625,296.42433762110215L195.3,300.97208623985244L197.04375,223.45824626084294L198.7875,220.54535169003088L200.53125,238.4880930517103L202.275,209.16603513804736L204.01874999999998,194.49594634993474L205.7625,224.9089285225897L207.50625,288.36102759026795L209.25,268.9164196679119L210.99375,300.632735787671L212.73749999999998,262.2218721442468L214.48125,217.98164822618946L216.22500000000002,239.17381485742428L217.96875000000003,245.5813125916099L219.7125,313.1522821811623L221.45625,301.6469061486222L223.2,297.8213625552943L224.94375,316.3454164637925L226.68749999999997,299.7565060475127L228.43124999999998,278.9460301186834L230.175,326.1378396923341L231.91875000000002,305.2364098016171L233.6625,278.5354030444845L235.40625,247.17019404725724L237.15,264.38927777432053L238.89374999999998,310.96811118795534L240.6375,314.3935458867568L242.38125000000002,310.9789076053206L244.12500000000003,305.13976235240574L245.86875,305.49042075268846L247.6125,299.28123812210885L249.35625,185.49948371735113L251.1,270.4456101342674L252.84374999999997,298.1682907360296L254.58749999999998,332.3476017256454L256.33125,360.207723012615L258.075,378.7074725125881L259.81875,382.6729389796571L261.5625,325.04607198189444L263.30625,259.0203810901612L265.05,164.21558215148264L266.79375,223.08842785817842L268.5375,243.7108315356446L270.28125,251.63339716203868L272.02500000000003,317.4371493067712L273.76875,320.967848913565L275.5125,314.10384831417787L277.25624999999997,297.49234525968393L279,300.7898702953965L280.74375,315.68540338158743L282.4875,292.71450813987565L284.23125,337.0858822513709L285.975,345.6223138361627L287.71875,336.2874864095124L289.4625,340.03079921266533L291.20625,332.2518263168363L292.95,339.72052487233896L294.69375,342.7908381925407L296.4375,338.8519724387755L298.18125000000003,345.94243885417944L299.925,206.51953561993045L301.66875,95.64562464366323L303.41249999999997,202.20845727632172L305.15625,237.1806664164758L306.9,308.70636716258L308.64375,313.09799175582583L310.3875,306.73999094570286L312.13125,321.3788445942751L313.875,225.48583947625164L315.61875,249.5525579255456L317.3625,314.52455169239977L319.10625,297.79312810887376L320.85,281.2943626863627L322.59375,205.55545376582407L324.33750000000003,256.2764930898772L326.08125,313.0931073972386L327.825,331.78609002285947L329.56874999999997,340.8218747624047L331.3125,361.8428279700367L333.05625,369.5909722319285L334.8,318.9989393218854L336.54375,358.6866001421846L338.2875,351.05854848885605L340.03125,337.26997932207775L341.775,341.63938989698704L343.51875,304.34459990266976L345.2625,300.8264716002398L347.00625,318.8024765387787L348.75,292.65281640391726L350.49375000000003,174.6553255917202L352.2375,224.13074905276346L353.98125,282.03490719133083L355.72499999999997,304.2138011594528L357.46875,338.0432054166258L359.2125,337.1916584218971L360.95625,315.0171402283084L362.7,236.59862208702094L364.44375,219.02194673937066L366.1875,273.8359131972563L367.93125,330.9728700169435L369.675,311.9950056350834L371.41875,338.35866849338896L373.1625,313.19500395672554L374.90625,298.20032960857174L376.65000000000003,184.8998480386896L378.39375,215.66351898557625L380.1375,292.5302935313422L381.88124999999997,312.076255399789L383.625,275.7265085229982L385.36875,324.8408147982148L387.1125,360.91977688221846L388.85625,330.17180482383054L390.6,327.87745854216354L392.34375,362.95693592605835L394.0875,378.04863889449575L395.83125,375.54377943181987L397.575,311.6116461325302L399.31875,323.40598189192013L401.0625,356.129916376164L402.80625000000003,344.1892102812658L404.55,364.7183444276131L406.29375,362.28945637869583L408.03749999999997,342.87519373830185L409.78125,338.0191306690225L411.525,351.33099635804103L413.26875,356.1865276013801L415.0125,356.08884204077475L416.75625,359.23093021562846L418.5,359.4572805180376L420.24375,356.20621145862196L421.9875,374.1506928780593L423.73125,346.5150387325797L425.47499999999997,362.2134615256362L427.21874999999994,376.79124649044525L428.9625,341.14332121650745L430.70624999999995,344.4686842129178L432.45000000000005,329.4534227649635L434.19375,302.0630366902026L435.93750000000006,197.86872065517142L437.68125000000003,259.7939539667202L439.425,287.38342513278025L441.16875,274.74182119617547L442.9125,331.59262376314314L444.65625,323.61621537965704L446.4,323.0798203085902L448.14375,323.29321762085215L449.8875,328.909917475307L451.63124999999997,344.07028961537907L453.37499999999994,316.18298992290653L455.11875,350.5186788964501L456.86249999999995,343.3363001129653L458.60625000000005,334.98712250154847L460.35,335.7466705438164L462.09375000000006,343.97162537261534L463.83750000000003,320.1174323802832L465.58125,357.88290458090137L467.325,339.07602755349967L469.06875,319.23239129509903L470.8125,332.7832713264961L472.55625,251.48287465989523L474.3,248.168730809677L476.04375,272.2750621607607L477.78749999999997,275.2921409356642L479.53124999999994,262.38057093347896L481.275,298.36534529469446L483.01874999999995,287.2227469451437L484.76250000000005,294.4401848116903L486.50625,281.9194311515995L488.25000000000006,301.94059142568756L489.99375000000003,293.16643773842037L491.7375,245.32043244438276L493.48125,313.9487690175699L495.225,306.3780006827676L496.96875,320.2001504784477L498.7125,326.7322707872202L500.45625,224.47240839566945L502.2,278.2552216468969L503.94374999999997,287.0732770569604L505.68749999999994,333.8261525307934L507.43125,309.37665170476754L509.17499999999995,281.36474061691564L510.91875000000005,317.4104383412528L512.6625,357.36074482302604L514.40625,357.9022523655693L516.15,357.09157508944986L517.8937500000001,325.11673250193456L519.6375,334.2182535860486L521.38125,335.46362020270624L523.125,333.1426227179898L524.86875,366.8787152986007L526.6125,349.2194578517207L528.3562499999999,333.3524684250342L530.1,328.4723155019425L531.84375,324.32185228675183L533.5875,332.4673059189798L535.33125,325.8637346823577L537.075,361.91255220370095L538.81875,361.1471293849109L540.5625,345.11387393993414L542.30625,321.6939873404639L544.0500000000001,312.57223910295363L545.79375,335.1819935527646L547.5375,306.5782142632464L549.28125,312.68365537338764L551.025,323.48058020809214L552.76875,332.2736468450903L554.5124999999999,312.4154756846348L556.25625,243.8122927593705L558,235.14702979590845L559.74375,257.9459836244068L561.4875,321.70643783328177L563.23125,352.9770767573177L564.975,320.19011522937024L566.71875,327.79857922321423L568.4625,338.2714791292749L570.2062500000001,342.5795243376096L571.95,359.0862676069284L573.69375,300.64121495352055L575.4375,208.82959847791267L577.18125,237.58559610137428L578.925,310.0128950848833L580.6687499999999,332.0098874632064L582.4125,329.1002468271803L584.15625,338.4961283482519L585.9,318.13653776501684L587.64375,311.753781485476L589.3875,353.6019721789215L591.13125,222.9235824086103L592.875,275.3930885141448L594.61875,303.90165932337084L596.3625000000001,345.51112489432717L598.10625,313.27482029134035L599.85,312.5363341540448L601.59375,301.0339137326019L603.3375,224.6575737016849L605.08125,237.48130311138644L606.8249999999999,304.5593388451544L608.56875,339.9459711619868L610.3125,359.120534190446L612.05625,346.25669080261355L613.8,296.8643426144136L615.54375,222.81087681019383L617.2875,262.5849033058902L619.03125,318.2936259463132L620.775,326.66527420403514L622.5187500000001,314.2184680172992L624.2625,308.3896357977095L626.00625,345.92859147606833L627.75,301.7893500977742L629.49375,248.78619446815475L631.2375,305.705807536401L632.9812499999999,325.2696281429537L634.725,259.59659563844104L636.46875,253.86465366893083L638.2125,234.68451703373682L639.95625,308.54754696843105L641.7,313.95767556053147L643.44375,308.3954646677702L645.1875,323.8704650735198L646.93125,283.17327835714605L648.6750000000001,288.04731693897116L650.41875,303.69996266403626L652.1625,317.5454154912089L653.90625,247.22768079584569L655.65,314.22521155661684L657.39375,254.09631088725533L659.1374999999999,289.15959212309826L660.88125,303.48030892490493L662.625,346.16437730673147L664.36875,266.92028104094084L666.1125,312.2560139436698L667.85625,274.25286513446576L669.6,317.5010953781888L671.34375,325.4733428818869L673.0875,293.46654586375206L674.8312500000001,227.91160613748698L676.575,262.3052578559154L678.31875,295.6853177404036L680.0625,310.1467065927203L681.80625,303.4083709081413L683.55,341.4370136268583L685.2937499999999,355.5555755957397L687.0375,349.75233296232636L688.78125,322.9927862133218L690.525,353.8776757153641L692.26875,258.3344543016491L694.0125,283.8937348941699L695.75625,266.5739685325539L697.5,265.53856508195196L699.24375,290.1656617011527L700.9875000000001,326.13211761021296L702.73125,298.91532571126106L704.475,281.5671672667918L706.21875,294.9092643310641L707.9625,309.1125068184928L709.70625,285.3887428432708L711.4499999999999,274.24216430202154L713.19375,302.5598685451003L714.9375,349.3202027977785L716.68125,315.3013814882207L718.425,354.75664000867204L720.16875,347.90067238315356L721.9125,355.7731234472322L723.65625,318.1871770106675L725.4,338.6928348980909L727.1437500000001,366.83832749578795L728.8875,355.1564919936117L730.63125,345.4622393150788L732.375,367.018570336656L734.11875,326.4615788796842L735.8625,328.0467702494144L737.6062499999999,341.8741087043184L739.35,337.05769360692193L741.09375,319.2878967408442L742.8375,329.1864692519257L744.58125,295.448601769758L746.325,318.90719383173223L748.06875,354.09108980879046L749.8125,339.8661388053215L751.55625,214.1232930306325L753.3000000000001,294.05383236364224L755.04375,339.02355924378753L756.7875,308.82242505479405L758.53125,292.9983635189596L760.275,263.66552643563375L762.01875,268.6615680438937L763.7624999999999,273.5178873829454L765.50625,308.9586001180245L767.25,303.61158011046103" style="fill: none;" fill="none"></path></g></g></g></g><g opacity="0.2"><g><g><g><path stroke="rgb(255, 112, 67)" stroke-width="2px" d="M83.7,-71.17373486608258L85.44375,278.4558965745382L87.1875,-1872.268741387874L88.93124999999999,267.1741295584943L90.675,127.46302106324583L92.41875,201.70153541630134L94.16250000000001,176.84761019563302L95.90625,58.468621029984206L97.65,349.87183234852273L99.39375,319.8185097812675L101.1375,170.435620859731L102.88125,-818.6409560926259L106.36874999999999,-1220.3917171768844L108.11250000000001,355.633974506869L109.85625,134.84297295007855L111.6,233.40776211488992L113.34374999999999,232.9579042075202L115.0875,339.59900335548446L116.83125,131.73522286023945L118.575,306.7400761160534L120.31875,81.57095316937193L122.06250000000001,329.7681817007251L123.80625,139.0991993052885L125.55,407.4496506314026L127.29374999999999,196.6873533478938L129.0375,91.99901057081297L130.78125,392.3216862845002L132.525,310.49566548108123L134.26875,176.34166268771514L136.01250000000002,179.07745709316805L137.75625,229.14185832859948L139.5,231.42509567923844L141.24375,193.19753125682473L142.9875,284.68301625479944L144.73125,25.213039809837937L146.475,80.62181881768629L148.21875,292.5828063839581L149.9625,240.06414498807862L151.70624999999998,257.16098378552124L153.45,266.8061238459777L155.19375,275.0365595370531L156.9375,235.80091840494424L158.68125,258.32185857370496L160.425,356.6563040317269L162.16875000000002,165.79745416902006L163.9125,350.4885436509503L165.65625,195.3921795161441L167.4,145.41871541086584L169.14375,185.54957377864048L170.8875,271.89219540241174L172.63125,-393.358720369637L174.375,265.47419333155267L176.11875,345.34643735468853L177.86249999999998,218.3205592832528L179.60625,392.1431228686706L181.35,122.14886057563126L183.09375,299.54795636376366L184.8375,411.41301674587885L186.58125,237.46082825027406L188.32500000000002,181.4107274208218L190.06875,46.613811844959855L191.8125,389.47388548922027L193.55625,359.5226340353256L195.3,307.7937091679778L197.04375,107.18748629232869L198.7875,216.1760098338127L200.53125,265.40220509422943L202.275,165.182948267553L204.01874999999998,172.49081316776574L205.7625,270.52840178157203L207.50625,383.5391761917854L209.25,239.74950778437778L210.99375,348.2072099673096L212.73749999999998,204.60557667911053L214.48125,151.6213123491034L216.22500000000002,270.96206480427645L217.96875000000003,255.19255919288844L219.7125,414.50873656549084L221.45625,284.3888420998119L223.2,292.08304716530256L224.94375,344.13149732653983L226.68749999999997,274.873140423093L228.43124999999998,247.7303162254393L230.175,396.9255540528102L231.91875000000002,273.88426496554166L233.6625,238.4838929087855L235.40625,200.12238055141643L237.15,290.2179033649154L238.89374999999998,380.8363613084075L240.6375,319.5316979349591L242.38125000000002,305.8569501831662L244.12500000000003,296.3810444730334L245.86875,306.01640835311264L247.6125,289.96746417623945L249.35625,14.826852110214531L251.1,397.86479975964176L252.84374999999997,339.75231163867284L254.58749999999998,383.6165682100691L259.81875,388.62113868026063L261.5625,238.60577148525044L263.30625,159.9818447525613L265.05,22.008383743464947L266.79375,311.39769641822204L268.5375,274.64443705184385L270.28125,263.51724560162984L272.02500000000003,416.1427775238699L273.76875,326.2638983237557L275.5125,303.80784741509706L277.25624999999997,272.5750906779431L279,305.7361578489654L280.74375,338.02870301087387L282.4875,258.25816527730785L284.23125,403.64294341861387L285.975,358.4269612133503L287.71875,322.285245269537L289.4625,345.6457684173947L291.20625,320.5833669730928L292.95,350.92357270559296L294.69375,347.3963081728434L296.4375,332.94367380812764L298.18125000000003,356.5781384772854L299.925,-2.6148192314430236L301.66875,-70.66524182073763L303.41249999999997,362.0527062253095L305.15625,289.6389801267069L306.9,415.9949182817363L308.64375,319.6854286456946L310.3875,297.2029897305183L312.13125,343.33712506713346L313.875,81.64633179921657L315.61875,285.65263559948653L317.3625,411.982542342681L319.10625,272.6959927335847L320.85,256.5462145525962L322.59375,91.94709038501605L324.33750000000003,332.35805207595695L326.08125,398.31802885828074L327.825,359.82556396129075L329.56874999999997,354.37555187172256L331.3125,393.37425778148463L333.05625,381.2131886247662L334.8,243.11088995682076L336.54375,418.21809137263335L338.2875,339.6164710088633L340.03125,316.5871255719103L341.775,348.19350575935096L343.51875,248.40241491119377L345.2625,295.5492791465949L347.00625,345.76648394658696L348.75,253.42832620162517L350.49375000000003,-2.3409106265752673L352.2375,298.34388424432836L353.98125,368.89114439918194L355.72499999999997,337.48214211163577L357.46875,388.7873118023854L359.2125,335.9143379298039L360.95625,281.7553629379254L362.7,118.97084487508982L364.44375,192.6569337178953L366.1875,356.0568628840847L367.93125,416.67830524647434L369.675,283.5282090622932L371.41875,377.9041627808474L373.1625,275.44950715173036L374.90625,275.708318086341L376.65000000000003,14.949125683866441L378.39375,261.80902540590614L380.1375,407.8304553499911L381.88124999999997,341.39519820245914L383.625,221.20188820781186L385.36875,398.51227421103977L387.1125,415.038220008224L388.85625,284.0498467362486L390.6,324.4359391196631L392.34375,415.5761520019005L394.0875,400.68619334715186L395.83125,371.786490237806L397.575,215.7134461835958L399.31875,341.0974855310051L401.0625,405.21581810252974L402.80625000000003,326.2781511389185L404.55,395.5120456471341L406.29375,358.64612430532L408.03749999999997,313.7537997777108L409.78125,330.7350360651035L411.525,371.29879489156883L413.26875,363.4698244663887L415.0125,355.94231369986665L416.75625,363.94406247790903L418.5,359.79680597165134L420.24375,351.32960786949843L421.9875,401.06741500721546L423.73125,305.0615575143602L425.47499999999997,385.761095715221L427.21874999999994,398.6579239376588L428.9625,287.67143330560066L430.70624999999995,349.45672870753333L432.45000000000005,306.930530593032L434.19375,260.97745757806115L435.93750000000006,41.577246602624655L437.68125000000003,352.6818039340433L439.425,328.76763188187033L441.16875,255.77941529126838L442.9125,416.8688276135945L444.65625,311.65160280442797L446.4,322.27522770198993L448.14375,323.6133135892451L449.8875,337.33496725698933L451.63124999999997,366.81084782548714L453.37499999999994,274.3520403841976L455.11875,402.0222123567655L456.86249999999995,332.56273193773814L458.60625000000005,322.46335608442314L460.35,336.8859926072182L462.09375000000006,356.3090576158138L463.83750000000003,284.33614289178513L465.58125,414.53111288182845L467.325,310.8657120123971L469.06875,289.46693690749817L470.8125,353.1095913735917L472.55625,129.53227965999395L474.3,243.19751503434964L476.04375,308.4345591873862L477.78749999999997,279.81775909801945L479.53124999999994,243.0132159302011L481.275,352.3425068365177L483.01874999999995,270.50884942081757L484.76250000000005,305.26634161151014L486.50625,263.1383006614633L488.25000000000006,331.97233183681965L489.99375000000003,280.00520720751956L491.7375,173.55142450332642L493.48125,416.8912738773506L495.225,295.0218481805641L496.96875,340.9333751719678L498.7125,336.530451250379L500.45625,71.08261480834335L502.2,358.9294415237382L503.94374999999997,300.30036017205566L505.68749999999994,403.95546574154287L507.43125,272.7024004657287L509.17499999999995,239.3468739851378L510.91875000000005,371.4789849277586L512.6625,417.2862045456859L514.40625,358.71451367938425L516.15,355.8755591752706L517.8937500000001,277.15446862066165L519.6375,347.8705352122197L521.38125,337.33167012769263L523.125,329.6611264909152L524.86875,417.48285416951694L526.6125,322.73057168140076L528.3562499999999,309.55198428500444L530.1,321.15208611730486L531.84375,318.09615746396594L533.5875,344.6854863673216L535.33125,315.95837782742456L537.075,415.98577848571585L538.81875,359.99899515672587L540.5625,321.06399077246897L542.30625,286.56415744125843L544.0500000000001,298.88961674668826L545.79375,369.0966252274811L547.5375,263.67254532896914L549.28125,321.8418170385994L551.025,339.67596746014897L552.76875,345.4632468005875L554.5124999999999,282.62821894395165L556.25625,140.907518371474L558,222.14913535071537L559.74375,292.14441436715424L561.4875,417.3471191465942L563.23125,399.88303514337167L564.975,271.00967293744907L566.71875,339.2112752139801L568.4625,353.98082898836583L570.2062500000001,349.0415921501117L571.95,383.84638251090655L573.69375,212.97363597340882L575.4375,71.11217376450077L577.18125,280.7195925365668L578.925,418.6538435601469L580.6687499999999,365.00537603069097L582.4125,324.73578587314114L584.15625,352.58995062985923L585.9,287.59715189016424L587.64375,302.17964706616476L589.3875,416.3742582190898L591.13125,26.90599775314331L592.875,354.09734767244663L594.61875,346.6645155372098L596.3625000000001,407.9253232507617L598.10625,264.9203633868601L599.85,311.42860494810157L601.59375,283.7802831004374L603.3375,110.09306365530938L605.08125,256.71689722593874L606.8249999999999,405.1763924458064L610.3125,387.88237873313483L612.05625,326.9609257208649L613.8,222.77582033211365L615.54375,111.7306781038642L617.2875,322.2459430494346L619.03125,401.8567099069478L620.775,339.22274659061804L622.5187500000001,295.5482587371953L624.2625,299.646387468325L626.00625,402.2370249936066L627.75,235.58048803033307L629.49375,169.28146102372557L631.2375,391.0852271387703L632.9812499999999,354.6153590527829L634.725,161.087046881672L636.46875,245.2667407146655L638.2125,205.91431208094582L639.95625,419.34209187047236L641.7,322.07286844868213L643.44375,300.0521483286284L645.1875,347.0829656821443L646.93125,222.1274982825853L648.6750000000001,295.3583748117089L650.41875,327.1789312516339L652.1625,338.3135947319679L653.90625,141.75107875280082L655.65,414.72150769777363L657.39375,163.90295988321304L659.1374999999999,341.75451397686265L660.88125,324.961384127615L662.625,410.19047987947124L664.36875,148.0541366422549L666.1125,380.2596132977633L667.85625,217.2481419206597L669.6,382.37344074377324L671.34375,337.431714137434L673.0875,245.4563503365498L674.8312500000001,129.57919654808939L676.575,313.895735433558L678.31875,345.755407567136L680.0625,331.83878987119533L681.80625,293.30086738127284L683.55,398.47997770493384L685.2937499999999,376.73341854906175L687.0375,341.0474690122064L688.78125,282.8534660898149L690.525,400.2050099684275L692.26875,115.01962218107656L694.0125,322.23265578295104L695.75625,240.59431899012998L697.5,263.9854599060491L699.24375,327.1063066299539L700.9875000000001,380.08180147380335L702.73125,258.0901378628332L704.475,255.54492960008793L706.21875,314.9224099274725L707.9625,330.41737054963596L709.70625,249.8030968804378L711.4499999999999,257.5222964901477L713.19375,345.03642490971833L714.9375,419.46070417679584L716.68125,264.27314952388406L718.425,413.9395277893491L720.16875,337.61672094487585L721.9125,367.5818000433501L723.65625,261.8082573558204L725.4,369.45132172922604L727.1437500000001,409.0565663923335L728.8875,337.6337387403473L730.63125,330.92086029727943L732.375,399.35306686902186L734.11875,265.6260916942265L735.8625,330.4245573040098L737.6062499999999,362.61511638667434L739.35,329.8330709608272L741.09375,292.6332014417276L742.8375,344.03432801854797L744.58125,244.84180054650642L746.325,354.09508192469366L748.06875,406.8669337743777L749.8125,318.52871230011806L751.55625,25.509024368599057L753.3000000000001,413.94964136315684L755.04375,406.47814956400543L756.7875,263.5207237713039L758.53125,269.2622712152079L760.275,219.66627081064507L762.01875,276.1556304562837L763.7624999999999,280.8023663915228L765.50625,362.1196692206431L767.25,295.5910500991158" style="fill: none;" fill="none"></path></g></g></g></g></g></g><g transform="translate(50, 377)" clip-path="url(#clip_1)"><clipPath id="clip_1"><rect width="837" height="23"></rect></clipPath><g><g><line x1="0" y1="0" x2="0" y2="5" style="visibility: inherit;" fill="rgb(0, 0, 0)" stroke="rgb(204, 204, 204)" stroke-width="1px"></line><line x1="69.75" y1="0" x2="69.75" y2="5" style="visibility: inherit;" fill="rgb(0, 0, 0)" stroke="rgb(204, 204, 204)" stroke-width="1px"></line><line x1="139.5" y1="0" x2="139.5" y2="5" style="visibility: inherit;" fill="rgb(0, 0, 0)" stroke="rgb(204, 204, 204)" stroke-width="1px"></line><line x1="209.25" y1="0" x2="209.25" y2="5" style="visibility: inherit;" fill="rgb(0, 0, 0)" stroke="rgb(204, 204, 204)" stroke-width="1px"></line><line x1="279" y1="0" x2="279" y2="5" style="visibility: inherit;" fill="rgb(0, 0, 0)" stroke="rgb(204, 204, 204)" stroke-width="1px"></line><line x1="348.75" y1="0" x2="348.75" y2="5" style="visibility: inherit;" fill="rgb(0, 0, 0)" stroke="rgb(204, 204, 204)" stroke-width="1px"></line><line x1="418.5" y1="0" x2="418.5" y2="5" style="visibility: inherit;" fill="rgb(0, 0, 0)" stroke="rgb(204, 204, 204)" stroke-width="1px"></line><line x1="488.25000000000006" y1="0" x2="488.25000000000006" y2="5" style="visibility: inherit;" fill="rgb(0, 0, 0)" stroke="rgb(204, 204, 204)" stroke-width="1px"></line><line x1="558" y1="0" x2="558" y2="5" style="visibility: inherit;" fill="rgb(0, 0, 0)" stroke="rgb(204, 204, 204)" stroke-width="1px"></line><line x1="627.75" y1="0" x2="627.75" y2="5" style="visibility: inherit;" fill="rgb(0, 0, 0)" stroke="rgb(204, 204, 204)" stroke-width="1px"></line><line x1="697.5" y1="0" x2="697.5" y2="5" style="visibility: inherit;" fill="rgb(0, 0, 0)" stroke="rgb(204, 204, 204)" stroke-width="1px"></line><line x1="767.25" y1="0" x2="767.25" y2="5" style="visibility: inherit;" fill="rgb(0, 0, 0)" stroke="rgb(204, 204, 204)" stroke-width="1px"></line><line x1="837" y1="0" x2="837" y2="5" style="visibility: inherit;" fill="rgb(0, 0, 0)" stroke="rgb(204, 204, 204)" stroke-width="1px"></line></g><g transform="translate(0, 8)"><text x="0" y="0" dx="0em" dy="0.95em" style="text-anchor: middle; visibility: hidden; font-family: Roboto, sans-serif; font-size: 12px; font-weight: 200;" fill="rgb(33, 33, 33)" stroke="none" stroke-width="1px">-20k</text><text x="69.75" y="0" dx="0em" dy="0.95em" style="text-anchor: middle; visibility: inherit; font-family: Roboto, sans-serif; font-size: 12px; font-weight: 200;" fill="rgb(33, 33, 33)" stroke="none" stroke-width="1px">0</text><text x="139.5" y="0" dx="0em" dy="0.95em" style="text-anchor: middle; visibility: inherit; font-family: Roboto, sans-serif; font-size: 12px; font-weight: 200;" fill="rgb(33, 33, 33)" stroke="none" stroke-width="1px">20k</text><text x="209.25" y="0" dx="0em" dy="0.95em" style="text-anchor: middle; visibility: inherit; font-family: Roboto, sans-serif; font-size: 12px; font-weight: 200;" fill="rgb(33, 33, 33)" stroke="none" stroke-width="1px">40k</text><text x="279" y="0" dx="0em" dy="0.95em" style="text-anchor: middle; visibility: inherit; font-family: Roboto, sans-serif; font-size: 12px; font-weight: 200;" fill="rgb(33, 33, 33)" stroke="none" stroke-width="1px">60k</text><text x="348.75" y="0" dx="0em" dy="0.95em" style="text-anchor: middle; visibility: inherit; font-family: Roboto, sans-serif; font-size: 12px; font-weight: 200;" fill="rgb(33, 33, 33)" stroke="none" stroke-width="1px">80k</text><text x="418.5" y="0" dx="0em" dy="0.95em" style="text-anchor: middle; visibility: inherit; font-family: Roboto, sans-serif; font-size: 12px; font-weight: 200;" fill="rgb(33, 33, 33)" stroke="none" stroke-width="1px">100k</text><text x="488.25000000000006" y="0" dx="0em" dy="0.95em" style="text-anchor: middle; visibility: inherit; font-family: Roboto, sans-serif; font-size: 12px; font-weight: 200;" fill="rgb(33, 33, 33)" stroke="none" stroke-width="1px">120k</text><text x="558" y="0" dx="0em" dy="0.95em" style="text-anchor: middle; visibility: inherit; font-family: Roboto, sans-serif; font-size: 12px; font-weight: 200;" fill="rgb(33, 33, 33)" stroke="none" stroke-width="1px">140k</text><text x="627.75" y="0" dx="0em" dy="0.95em" style="text-anchor: middle; visibility: inherit; font-family: Roboto, sans-serif; font-size: 12px; font-weight: 200;" fill="rgb(33, 33, 33)" stroke="none" stroke-width="1px">160k</text><text x="697.5" y="0" dx="0em" dy="0.95em" style="text-anchor: middle; visibility: inherit; font-family: Roboto, sans-serif; font-size: 12px; font-weight: 200;" fill="rgb(33, 33, 33)" stroke="none" stroke-width="1px">180k</text><text x="767.25" y="0" dx="0em" dy="0.95em" style="text-anchor: middle; visibility: inherit; font-family: Roboto, sans-serif; font-size: 12px; font-weight: 200;" fill="rgb(33, 33, 33)" stroke="none" stroke-width="1px">200k</text><text x="837" y="0" dx="0em" dy="0.95em" style="text-anchor: middle; visibility: hidden; font-family: Roboto, sans-serif; font-size: 12px; font-weight: 200;" fill="rgb(33, 33, 33)" stroke="none" stroke-width="1px">220k</text></g><line x1="0" y1="0" x2="837" y2="0" fill="rgb(0, 0, 0)" stroke="rgb(204, 204, 204)" stroke-width="1px"></line></g></g></g></g></svg>