<svg viewBox="0 0 887 400" xmlns="http://www.w3.org/2000/svg"><g><g><g><g><g><line x1="30" y1="377" x2="25" y2="377" style="visibility: inherit;" fill="rgb(0, 0, 0)" stroke="rgb(204, 204, 204)" stroke-width="1px"></line><line x1="30" y1="342.7272727272727" x2="25" y2="342.7272727272727" style="visibility: inherit;" fill="rgb(0, 0, 0)" stroke="rgb(204, 204, 204)" stroke-width="1px"></line><line x1="30" y1="308.45454545454544" x2="25" y2="308.45454545454544" style="visibility: inherit;" fill="rgb(0, 0, 0)" stroke="rgb(204, 204, 204)" stroke-width="1px"></line><line x1="30" y1="274.1818181818182" x2="25" y2="274.1818181818182" style="visibility: inherit;" fill="rgb(0, 0, 0)" stroke="rgb(204, 204, 204)" stroke-width="1px"></line><line x1="30" y1="239.9090909090909" x2="25" y2="239.9090909090909" style="visibility: inherit;" fill="rgb(0, 0, 0)" stroke="rgb(204, 204, 204)" stroke-width="1px"></line><line x1="30" y1="205.63636363636363" x2="25" y2="205.63636363636363" style="visibility: inherit;" fill="rgb(0, 0, 0)" stroke="rgb(204, 204, 204)" stroke-width="1px"></line><line x1="30" y1="171.36363636363637" x2="25" y2="171.36363636363637" style="visibility: inherit;" fill="rgb(0, 0, 0)" stroke="rgb(204, 204, 204)" stroke-width="1px"></line><line x1="30" y1="137.0909090909091" x2="25" y2="137.0909090909091" style="visibility: inherit;" fill="rgb(0, 0, 0)" stroke="rgb(204, 204, 204)" stroke-width="1px"></line><line x1="30" y1="102.81818181818181" x2="25" y2="102.81818181818181" style="visibility: inherit;" fill="rgb(0, 0, 0)" stroke="rgb(204, 204, 204)" stroke-width="1px"></line><line x1="30" y1="68.54545454545453" x2="25" y2="68.54545454545453" style="visibility: inherit;" fill="rgb(0, 0, 0)" stroke="rgb(204, 204, 204)" stroke-width="1px"></line><line x1="30" y1="34.27272727272729" x2="25" y2="34.27272727272729" style="visibility: inherit;" fill="rgb(0, 0, 0)" stroke="rgb(204, 204, 204)" stroke-width="1px"></line><line x1="30" y1="0" x2="25" y2="0" style="visibility: inherit;" fill="rgb(0, 0, 0)" stroke="rgb(204, 204, 204)" stroke-width="1px"></line></g><g transform="translate(20, 0)"><text x="0" y="377" dx="0em" dy="0.3em" style="text-anchor: end; visibility: hidden; font-family: Roboto, sans-serif; font-size: 12px; font-weight: 200;" fill="rgb(33, 33, 33)" stroke="none" stroke-width="1px">23</text><text x="0" y="342.7272727272727" dx="0em" dy="0.3em" style="text-anchor: end; visibility: inherit; font-family: Roboto, sans-serif; font-size: 12px; font-weight: 200;" fill="rgb(33, 33, 33)" stroke="none" stroke-width="1px">24</text><text x="0" y="308.45454545454544" dx="0em" dy="0.3em" style="text-anchor: end; visibility: inherit; font-family: Roboto, sans-serif; font-size: 12px; font-weight: 200;" fill="rgb(33, 33, 33)" stroke="none" stroke-width="1px">25</text><text x="0" y="274.1818181818182" dx="0em" dy="0.3em" style="text-anchor: end; visibility: inherit; font-family: Roboto, sans-serif; font-size: 12px; font-weight: 200;" fill="rgb(33, 33, 33)" stroke="none" stroke-width="1px">26</text><text x="0" y="239.9090909090909" dx="0em" dy="0.3em" style="text-anchor: end; visibility: inherit; font-family: Roboto, sans-serif; font-size: 12px; font-weight: 200;" fill="rgb(33, 33, 33)" stroke="none" stroke-width="1px">27</text><text x="0" y="205.63636363636363" dx="0em" dy="0.3em" style="text-anchor: end; visibility: inherit; font-family: Roboto, sans-serif; font-size: 12px; font-weight: 200;" fill="rgb(33, 33, 33)" stroke="none" stroke-width="1px">28</text><text x="0" y="171.36363636363637" dx="0em" dy="0.3em" style="text-anchor: end; visibility: inherit; font-family: Roboto, sans-serif; font-size: 12px; font-weight: 200;" fill="rgb(33, 33, 33)" stroke="none" stroke-width="1px">29</text><text x="0" y="137.0909090909091" dx="0em" dy="0.3em" style="text-anchor: end; visibility: inherit; font-family: Roboto, sans-serif; font-size: 12px; font-weight: 200;" fill="rgb(33, 33, 33)" stroke="none" stroke-width="1px">30</text><text x="0" y="102.81818181818181" dx="0em" dy="0.3em" style="text-anchor: end; visibility: inherit; font-family: Roboto, sans-serif; font-size: 12px; font-weight: 200;" fill="rgb(33, 33, 33)" stroke="none" stroke-width="1px">31</text><text x="0" y="68.54545454545453" dx="0em" dy="0.3em" style="text-anchor: end; visibility: inherit; font-family: Roboto, sans-serif; font-size: 12px; font-weight: 200;" fill="rgb(33, 33, 33)" stroke="none" stroke-width="1px">32</text><text x="0" y="34.27272727272729" dx="0em" dy="0.3em" style="text-anchor: end; visibility: inherit; font-family: Roboto, sans-serif; font-size: 12px; font-weight: 200;" fill="rgb(33, 33, 33)" stroke="none" stroke-width="1px">33</text><text x="0" y="0" dx="0em" dy="0.3em" style="text-anchor: end; visibility: hidden; font-family: Roboto, sans-serif; font-size: 12px; font-weight: 200;" fill="rgb(33, 33, 33)" stroke="none" stroke-width="1px">34</text></g><line x1="30" y1="0" x2="30" y2="377" fill="rgb(0, 0, 0)" stroke="rgb(204, 204, 204)" stroke-width="1px"></line></g></g><g transform="translate(30, 0)" clip-path="url(#clip_0)"><clipPath id="clip_0"><rect width="857" height="377"></rect></clipPath><g><g><g><line x1="0" y1="0" x2="0" y2="377" fill="rgb(0, 0, 0)" stroke="rgb(66, 66, 66)" stroke-width="1px" opacity="0.25"></line><line x1="71.41666666666666" y1="0" x2="71.41666666666666" y2="377" fill="rgb(0, 0, 0)" stroke="rgb(66, 66, 66)" stroke-width="1px" opacity="0.25"></line><line x1="142.83333333333331" y1="0" x2="142.83333333333331" y2="377" fill="rgb(0, 0, 0)" stroke="rgb(66, 66, 66)" stroke-width="1px" opacity="0.25"></line><line x1="214.25" y1="0" x2="214.25" y2="377" fill="rgb(0, 0, 0)" stroke="rgb(66, 66, 66)" stroke-width="1px" opacity="0.25"></line><line x1="285.66666666666663" y1="0" x2="285.66666666666663" y2="377" fill="rgb(0, 0, 0)" stroke="rgb(66, 66, 66)" stroke-width="1px" opacity="0.25"></line><line x1="357.08333333333337" y1="0" x2="357.08333333333337" y2="377" fill="rgb(0, 0, 0)" stroke="rgb(66, 66, 66)" stroke-width="1px" opacity="0.25"></line><line x1="428.5" y1="0" x2="428.5" y2="377" fill="rgb(0, 0, 0)" stroke="rgb(66, 66, 66)" stroke-width="1px" opacity="0.25"></line><line x1="499.9166666666667" y1="0" x2="499.9166666666667" y2="377" fill="rgb(0, 0, 0)" stroke="rgb(66, 66, 66)" stroke-width="1px" opacity="0.25"></line><line x1="571.3333333333333" y1="0" x2="571.3333333333333" y2="377" fill="rgb(0, 0, 0)" stroke="rgb(66, 66, 66)" stroke-width="1px" opacity="0.25"></line><line x1="642.75" y1="0" x2="642.75" y2="377" fill="rgb(0, 0, 0)" stroke="rgb(66, 66, 66)" stroke-width="1px" opacity="0.25"></line><line x1="714.1666666666667" y1="0" x2="714.1666666666667" y2="377" fill="rgb(0, 0, 0)" stroke="rgb(66, 66, 66)" stroke-width="1px" opacity="0.25"></line><line x1="785.5833333333333" y1="0" x2="785.5833333333333" y2="377" fill="rgb(0, 0, 0)" stroke="rgb(66, 66, 66)" stroke-width="1px" opacity="0.25"></line><line x1="857" y1="0" x2="857" y2="377" fill="rgb(0, 0, 0)" stroke="rgb(66, 66, 66)" stroke-width="1px" opacity="0.25"></line></g><g><line x1="0" y1="377" x2="857" y2="377" fill="rgb(0, 0, 0)" stroke="rgb(66, 66, 66)" stroke-width="1px" opacity="0.25"></line><line x1="0" y1="342.7272727272727" x2="857" y2="342.7272727272727" fill="rgb(0, 0, 0)" stroke="rgb(66, 66, 66)" stroke-width="1px" opacity="0.25"></line><line x1="0" y1="308.45454545454544" x2="857" y2="308.45454545454544" fill="rgb(0, 0, 0)" stroke="rgb(66, 66, 66)" stroke-width="1px" opacity="0.25"></line><line x1="0" y1="274.1818181818182" x2="857" y2="274.1818181818182" fill="rgb(0, 0, 0)" stroke="rgb(66, 66, 66)" stroke-width="1px" opacity="0.25"></line><line x1="0" y1="239.9090909090909" x2="857" y2="239.9090909090909" fill="rgb(0, 0, 0)" stroke="rgb(66, 66, 66)" stroke-width="1px" opacity="0.25"></line><line x1="0" y1="205.63636363636363" x2="857" y2="205.63636363636363" fill="rgb(0, 0, 0)" stroke="rgb(66, 66, 66)" stroke-width="1px" opacity="0.25"></line><line x1="0" y1="171.36363636363637" x2="857" y2="171.36363636363637" fill="rgb(0, 0, 0)" stroke="rgb(66, 66, 66)" stroke-width="1px" opacity="0.25"></line><line x1="0" y1="137.0909090909091" x2="857" y2="137.0909090909091" fill="rgb(0, 0, 0)" stroke="rgb(66, 66, 66)" stroke-width="1px" opacity="0.25"></line><line x1="0" y1="102.81818181818181" x2="857" y2="102.81818181818181" fill="rgb(0, 0, 0)" stroke="rgb(66, 66, 66)" stroke-width="1px" opacity="0.25"></line><line x1="0" y1="68.54545454545453" x2="857" y2="68.54545454545453" fill="rgb(0, 0, 0)" stroke="rgb(66, 66, 66)" stroke-width="1px" opacity="0.25"></line><line x1="0" y1="34.27272727272729" x2="857" y2="34.27272727272729" fill="rgb(0, 0, 0)" stroke="rgb(66, 66, 66)" stroke-width="1px" opacity="0.25"></line><line x1="0" y1="0" x2="857" y2="0" fill="rgb(0, 0, 0)" stroke="rgb(66, 66, 66)" stroke-width="1px" opacity="0.25"></line></g></g></g><g><g><line x1="0" y1="1165.2727272727273" x2="857" y2="1165.2727272727273" fill="rgb(0, 0, 0)" stroke="rgb(153, 153, 153)" stroke-width="1.5px"></line></g></g><g><g><line x1="71.41666666666666" y1="0" x2="71.41666666666666" y2="377" fill="rgb(0, 0, 0)" stroke="rgb(153, 153, 153)" stroke-width="1.5px"></line></g></g><g><g><g><g><g><path stroke="rgb(255, 112, 67)" stroke-width="2px" d="M98.19791666666666,396.70507978191466L99.98333333333333,311.3426441318127L101.76875,292.7405790651341L103.55416666666667,331.36540433304776L105.33958333333332,447.9747307821352L107.125,270.8681925053162L108.91041666666666,396.4785409593208L110.69583333333334,308.9168381535965L112.48125,331.5835900760347L114.26666666666667,325.5975024583533L116.05208333333333,321.79675474061L117.8375,299.17912104564437L119.62291666666667,320.82302533084817L121.40833333333333,278.1035275604815L123.19375,340.84357537218654L124.97916666666667,298.243847647095L126.76458333333333,329.77894382175003L128.54999999999998,176.52472092443332L130.33541666666665,237.312483610488L132.12083333333334,283.1417109109613L133.90625,189.55691001400933L135.69166666666666,190.4377291936772L137.47708333333335,241.67650607305393L139.26250000000002,272.68669102482124L141.04791666666665,290.7382809797992L142.83333333333331,288.2238106213298L144.61875,302.01744407485916L146.40416666666667,277.4752494994636L148.18958333333333,357.01002590919126L149.975,390.2394260547839L151.76041666666669,311.27177799233635L153.54583333333335,300.92917369531665L155.33124999999998,271.5851273410872L157.11666666666665,253.30826440378465L158.90208333333334,249.3610846715135L160.6875,264.23877909887864L162.47291666666666,276.2210528819473L164.25833333333335,233.9511053369381L166.04375000000002,249.97187565168701L167.82916666666665,235.6427700554209L169.61458333333331,277.78200138041416L171.4,292.6098115404765L173.18541666666667,304.86152339612266L174.97083333333333,282.9745975315462L176.75625,395.90469329454567L178.54166666666669,301.1130352593951L180.32708333333335,256.1784011144653L182.11249999999998,270.26302391730314L183.89791666666665,187.34499516425745L185.68333333333334,240.48967941334072L187.46875,235.73454327422505L189.25416666666666,87.1704668702966L191.03958333333335,156.61573622402906L192.82500000000002,214.50881371040302L194.61041666666665,293.96898472337864L196.39583333333331,192.54996410950636L198.18125,167.74377456111839L199.96666666666667,174.53713200462633L201.75208333333333,253.49525886974592L203.5375,279.34448697578927L205.32291666666669,276.5398489792413L207.10833333333335,320.4990291690389L208.89374999999998,343.33200410198714L210.67916666666665,285.6601000802663L212.46458333333334,217.00635778874926L214.25,241.815469613768L216.03541666666666,190.21992030696828L217.82083333333333,245.71017969550013L219.60625,298.0862420807722L221.39166666666668,257.64583614368263L223.17708333333334,203.0880703535348L224.9625,97.99152268752931L226.74791666666667,148.73681882491996L228.53333333333333,164.1433178935183L230.31875,161.61697564933007L232.10416666666666,167.61307687463898L233.88958333333332,213.5784199107387L235.675,142.0784532858874L237.46041666666667,202.23957019596426L239.24583333333334,214.99646914061643L241.03125,250.1896464546291L242.81666666666666,245.769479054307L244.60208333333333,200.9336214563546L246.3875,208.5917040516803L248.17291666666668,206.0754961193071L249.95833333333334,194.42664290029956L251.74375,167.4969848579443L253.52916666666667,176.34435450840567L255.31458333333333,272.1220085457749L257.09999999999997,166.79027014100365L258.88541666666663,159.784175942357L260.6708333333333,120.73083618175818L262.45625,63.39008543264343L264.2416666666667,-1.4677039173048148L266.02708333333334,9.465153878088424L267.8125,122.07931184534121L269.59791666666666,199.6274583368968L271.3833333333333,285.0451919183091L273.16875,264.7584954055575L274.9541666666667,266.9700564746244L276.73958333333337,264.8036182048431L278.52500000000003,83.2130555442659L280.3104166666667,143.3164915380076L282.0958333333333,184.89005805313118L283.88124999999997,198.61473808172335L285.66666666666663,193.7939464007252L287.4520833333333,177.31838777118796L289.2375,213.54562756960644L291.0229166666667,49.17752191640892L292.80833333333334,90.85650441072075L294.59375,130.32628300365454L296.37916666666666,153.93166721319233L298.1645833333333,177.9480976456977L299.95,165.5491797433134L301.7354166666667,160.3948256588209L303.52083333333337,177.701352404348L305.30625000000003,125.5354493376728L307.0916666666667,245.6576550174208L308.8770833333333,333.59926788727233L310.66249999999997,244.31707471496293L312.44791666666663,219.852487649024L314.2333333333333,42.55959120558098L316.01875,90.71410312589205L317.8041666666667,151.7702817080769L319.58958333333334,159.95633350904362L321.375,246.67977184060024L323.16041666666666,251.12849902133016L324.9458333333333,72.15952378469095L326.73125,149.19747929656023L328.5166666666667,155.76239377244966L330.30208333333337,244.62554802993822L332.08750000000003,228.82866529090776L333.8729166666667,136.483891291022L335.6583333333333,101.05327422773823L337.44374999999997,112.77207552352596L339.22916666666663,74.12907436574025L341.0145833333333,58.97944795973186L342.8,129.16478191004987L344.5854166666667,-14.358064447720114L346.37083333333334,40.63110533716069L348.15625,107.03431921925312L349.94166666666666,100.37681267856895L351.7270833333333,177.2566050465502L353.5125,189.9494310288622L355.2979166666667,146.33883648763424L357.08333333333337,188.6568263954215L358.86875000000003,286.1250181200786L360.6541666666667,235.3600983881382L362.4395833333333,186.60527529986177L364.22499999999997,165.73925292350287L366.01041666666663,109.07501648687868L367.7958333333333,117.66306811411772L369.58125,177.24265405927758L371.3666666666667,254.72622112541922L373.15208333333334,277.153702118833L374.9375,218.1753234108594L376.72291666666666,58.491506635294L378.5083333333333,112.89874336993707L380.29375,94.58991130516534L382.0791666666667,144.79544035498748L383.86458333333337,150.4956481407712L385.65000000000003,255.6927406411656L387.4354166666667,236.42079478087308L389.2208333333333,100.79256142995847L391.00624999999997,136.98334984348196L392.79166666666663,171.90121117506547L394.5770833333333,111.86255426407696L396.3625,-10.367719405776185L398.1479166666667,70.60012079516612L399.93333333333334,84.37744981030724L401.71875,-42.22236253901969L403.50416666666666,-31.980713804706312L405.2895833333333,34.35745232963626L407.075,116.75596656490701L408.8604166666667,111.60782361625682L410.64583333333337,51.03846070473274L412.43125000000003,130.6038586022387L414.2166666666667,97.09072688786136L416.0020833333333,116.13759271841022L417.78749999999997,132.63787817410366L419.57291666666663,136.26780755409825L421.3583333333333,122.95892297461987L423.14375,95.84987479751153L424.9291666666667,72.92778862029482L426.71458333333334,94.41209982179066L428.5,103.66620354097927L430.28541666666666,103.18412209351503L432.0708333333333,46.48288245244253L433.85625,101.62038784659879L435.64166666666665,63.08122707053036L437.4270833333333,37.574705036707385L439.2125,123.81517304477387L440.99791666666664,128.88809577577243L442.78333333333336,151.78883565094372L444.56875,202.1729520336548L446.3541666666667,282.62160139264506L448.13958333333335,216.16668545051078L449.925,214.506393883055L451.7104166666667,218.18161426174004L453.49583333333334,62.76535671844326L455.28125,132.55656045828997L457.06666666666666,163.76519328014533L458.8520833333333,189.4288012624986L460.6375,172.2020082910131L462.42291666666665,146.54277687957065L464.2083333333333,190.54972507660597L465.99375,93.89029716532603L467.77916666666664,112.87144421549978L469.56458333333336,107.15872870636827L471.35,124.24026944760915L473.1354166666667,126.26710721133438L474.92083333333335,155.49380113377416L476.70625,11.746319659534851L478.4916666666667,70.62828724860172L480.27708333333334,137.4017642054066L482.0625,112.28799878924623L483.84791666666666,209.99942634596877L485.6333333333333,206.7924225867007L487.41875,204.90597806595864L489.20416666666665,222.6619998284112L490.9895833333333,234.17624867800822L492.775,191.075331920539L494.56041666666664,223.84579785171962L496.34583333333336,224.48652027874746L498.13125,228.25887369845395L499.9166666666667,184.71857113679704L501.70208333333335,222.74049278250882L503.4875,263.1477042749075L505.2729166666667,64.68449090101514L507.05833333333334,132.8086015202567L508.84375,119.87272624751452L510.62916666666666,112.89362816072912L512.4145833333333,222.92258499136383L514.1999999999999,140.1795827663914L515.9854166666667,179.72387889345526L517.7708333333333,96.70196649622936L519.55625,150.55728205394323L521.3416666666666,218.94555524255316L523.1270833333334,166.97724379838613L524.9125,24.022981105691834L526.6979166666667,54.71467949926384L528.4833333333333,63.111818425099855L530.2687500000001,144.5642787215195L532.0541666666667,159.57336843863342L533.8395833333334,159.061101404866L535.625,198.7447518851782L537.4104166666666,28.563335894512417L539.1958333333333,103.14970308589074L540.9812499999999,145.27571350580905L542.7666666666667,140.17561431619848L544.5520833333333,158.23101889156567L546.3375,116.76420323723872L548.1229166666666,135.28503498999507L549.9083333333334,-8.938126927478345L551.69375,6.7203311300008925L553.4791666666667,87.06809914075801L555.2645833333333,139.3327094184258L557.0500000000001,170.20287376174L558.8354166666667,135.42619050460252L560.6208333333334,176.99034634399894L562.40625,179.79417839855134L564.1916666666666,171.15138448331138L565.9770833333333,154.57001062717606L567.7624999999999,175.0017814340116L569.5479166666667,257.42235043222877L571.3333333333333,253.36871309081366L573.11875,234.6811982940523L574.9041666666666,54.787917917748814L576.6895833333334,34.14490401547518L578.475,101.6241570005716L580.2604166666667,116.22067568838L582.0458333333333,130.72696669509918L583.8312500000001,129.33967289259206L585.6166666666667,77.59344912129744L587.4020833333334,145.50769189820457L589.1875,242.72993765423692L590.9729166666666,212.288784208975L592.7583333333333,36.02135970884569L594.5437499999999,41.31372455555426L596.3291666666667,87.7732614223419L598.1145833333333,57.73651503100636L599.9,119.00829896944275L601.6854166666666,171.66279978849278L603.4708333333334,45.365727275217466L605.25625,195.36757278147908L607.0416666666667,171.45210369973793L608.8270833333333,153.1898239818722L610.6125000000001,23.51523480438424L612.3979166666667,115.33896148088597L614.1833333333334,151.49045047473547L615.96875,179.11579294553027L617.7541666666666,265.61944767727454L619.5395833333333,268.7786535944906L621.3249999999999,115.80525825776861L623.1104166666667,31.643942918528285L624.8958333333333,41.73137418506601L626.68125,108.08902793844108L628.4666666666666,168.9796269237536L630.2520833333334,258.1581264544341L632.0375,208.08412369758952L633.8229166666667,122.14572346393716L635.6083333333333,121.38409434558524L637.3937500000001,144.02342390083035L639.1791666666667,183.09581981013594L640.9645833333334,107.63914652142428L642.75,158.89362834920047L644.5354166666666,217.00582311658698L646.3208333333333,133.23875554431294L648.1062499999999,100.23850645602654L649.8916666666667,197.22499189907313L651.6770833333333,209.92184587796928L653.4625,247.9366082675264L655.2479166666666,61.09467564277791L657.0333333333334,94.15610909937853L658.81875,144.72175127228255L660.6041666666667,128.354086460613L662.3895833333333,163.70504775704964L664.1750000000001,196.74475155184615L665.9604166666667,200.87571140474049L667.7458333333334,193.6172368958894L669.53125,256.1338983925273L671.3166666666666,62.65909602681598L673.1020833333333,179.20069089523108L674.8874999999999,164.8179863089338L676.6729166666667,145.65900210973433L678.4583333333333,54.3290911462116L680.24375,147.21197391102683L682.0291666666666,122.74066638840861L683.8145833333334,212.4636143244559L685.6,154.0086252763586L687.3854166666667,173.73800306332055L689.1708333333333,192.92262077165265L690.9562500000001,262.689261799595L692.7416666666667,224.99547721802938L694.5270833333334,172.05838571269794L696.3125,193.38313989264014L698.0979166666666,224.00850741247953L699.8833333333333,132.8083497144889L701.6687499999999,97.69534474524158L703.4541666666667,96.56950905162384L705.2395833333333,157.1199004133297L707.025,82.56693786207805L708.8104166666666,196.4908087188892L710.5958333333334,186.37292241228616L712.38125,210.36916644730502L714.1666666666667,243.0834933459442L715.9520833333333,220.92489313503017L717.7375000000001,140.0659534203025L719.5229166666667,184.7433991645527L721.3083333333334,198.21388173949856L723.09375,182.94442429183482L724.8791666666666,173.05243574187108L726.6645833333333,174.39316334109648L728.4499999999999,199.6267758844075L730.2354166666667,153.36115228379612L732.0208333333333,-15.851404443820313L733.80625,104.71462022988148L735.5916666666666,-6.97984075491553L737.3770833333334,45.734697905781935L739.1625,84.48846778022337L740.9479166666667,161.3901564599265L742.7333333333333,132.654992868321L744.5187500000001,41.159020917414736L746.3041666666667,97.0912408668772L748.0895833333334,129.90090922349546L749.875,65.78192737003471L751.6604166666666,128.89500439454395L753.4458333333333,116.32170694913749L755.2312499999999,123.36181044378561L757.0166666666667,124.34856514810728L758.8020833333333,163.1509749431347L760.5875,142.93331387546002L762.3729166666666,179.79327357030448L764.1583333333334,186.36056712236297L765.94375,82.47444893264178L767.7291666666667,106.26118962048258L769.5145833333333,242.57059968648517L771.3000000000001,74.17030475818021L773.0854166666667,10.574975462995807L774.8708333333334,90.27418040441766L776.65625,151.14830944282377L778.4416666666666,211.19894112390182L780.2270833333333,209.9274236731427L782.0124999999999,212.86011686812577L783.7979166666667,149.64541734987932L785.5833333333333,201.94424836802418" style="fill: none;" fill="none"></path></g></g></g></g><g opacity="0.2"><g><g><g><path stroke="rgb(255, 112, 67)" stroke-width="2px" d="M85.7,493.6344011480158L87.48541666666667,339.7656830874356L89.27083333333334,674.1728206114335L91.05624999999999,339.7409732125022L92.84166666666667,394.9591109535911L94.62708333333333,375.4224902066318L96.41250000000001,392.1570895801891L98.19791666666666,388.3377796519886L99.98333333333333,183.33511317859995L101.76875,264.8422045274214L103.55416666666667,389.2967581315474L105.33958333333332,622.8780619014393L107.125,5.218098033558254L108.91041666666666,584.889930378307L110.69583333333334,177.57601269808683L112.48125,365.5834494504062L114.26666666666667,316.6184135783802L116.05208333333333,316.0956493724476L117.8375,265.25272837552154L119.62291666666667,353.28884853016245L121.40833333333333,214.02432025562632L123.19375,434.9536124142734L124.97916666666667,234.34427018599075L126.76458333333333,377.081581809304L128.54999999999998,-53.3565951260653L130.33541666666665,328.49412328546697L132.12083333333334,351.88554989207876L133.90625,49.1797110817649L135.69166666666666,191.75895794955167L137.47708333333335,318.53467091647065L139.26250000000002,319.2019682797519L141.04791666666665,317.8156658519398L142.83333333333331,284.45210508866745L144.61875,322.70789423855865L146.40416666666667,240.66195765408602L148.18958333333333,476.3121904893355L149.975,440.08352626453745L151.76041666666669,192.82030591097745L153.54583333333335,285.41526725075465L155.33124999999998,227.56905781139028L157.11666666666665,225.89296999844638L158.90208333333334,243.4403150731867L160.6875,286.5553207397461L162.47291666666666,294.19446355646306L164.25833333333335,170.54618401960894L166.04375000000002,274.0030311237682L167.82916666666665,214.14911166104403L169.61458333333331,340.99084836786443L171.4,314.851526780562L173.18541666666667,323.23909117958766L174.97083333333333,250.14420873468572L176.75625,565.2998369390314L178.54166666666669,158.92554820667613L180.32708333333335,188.77644989707255L182.11249999999998,291.3899581215598L183.89791666666665,62.96795203469018L185.68333333333334,320.2067057869651L187.46875,228.60183906555176L189.25416666666666,-135.6756477355957L191.03958333333335,260.7836402546276L192.82500000000002,301.34842993996364L194.61041666666665,413.15924124284226L196.39583333333331,40.421433188698494L198.18125,130.53449023853648L199.96666666666667,184.72716816988859L201.75208333333333,371.932449167425L203.5375,318.11832913485443L205.32291666666669,272.3328919844194L207.10833333333335,386.43779945373535L208.89374999999998,377.58146650140935L210.67916666666665,199.1522440476851L212.46458333333334,114.02574435147372L214.25,279.0291373512962L216.03541666666666,112.82659634676847L217.82083333333333,328.9455687782981L219.60625,376.6503356586803L221.39166666666668,196.9852272380482L223.17708333333334,121.25142166831276L224.9625,-59.653298811479026L226.74791666666667,224.85476303100586L228.53333333333333,187.25306649641558L230.31875,157.82746228304777L232.10416666666666,176.6072287126021L233.88958333333332,282.52643446488815L235.675,34.8285033486106L237.46041666666667,292.48124556107956L239.24583333333334,234.131817557595L241.03125,302.9794124256481L242.81666666666666,239.13922795382413L244.60208333333333,133.67983505942604L246.3875,220.07882794466886L248.17291666666668,202.30118422074753L249.95833333333334,176.95336307178843L251.74375,127.10249779441139L253.52916666666667,189.61540898409757L255.31458333333333,415.7884896018288L257.09999999999997,8.792662533846764L258.88541666666663,149.27503464438698L260.6708333333333,62.150826540860265L262.45625,-22.621040691028956L264.2416666666667,-98.75438794222741L266.02708333333334,25.864440571178076L267.8125,291.00054879622024L269.59791666666666,315.94967807422984L271.3833333333333,413.17179229042745L273.16875,234.3284506364302L274.9541666666667,270.2873980782249L276.73958333333337,261.5539608001709L278.52500000000003,-189.17278844659978L280.3104166666667,233.47164552861994L282.0958333333333,247.25040782581675L283.88124999999997,219.20175812461162L285.66666666666663,186.56275887922808L287.4520833333333,152.6050498268821L289.2375,267.8864872672341L291.0229166666667,-197.3746365633878L292.80833333333334,153.3749781521884L294.59375,189.53095089305532L296.37916666666666,189.3397435274991L298.1645833333333,213.97274329445577L299.95,146.95080288973722L301.7354166666667,152.6632945320823L303.52083333333337,203.6611425226385L305.30625000000003,47.28659473765982L307.0916666666667,425.8409635370428L308.8770833333333,465.51168719204986L310.66249999999997,110.39378495649859L312.44791666666663,183.1556070501154L314.2333333333333,-223.37975345958364L316.01875,162.94587100635874L317.8041666666667,243.35454958135432L319.58958333333334,172.2354112104936L321.375,376.764929337935L323.16041666666666,257.801589792425L324.9458333333333,-196.2939390702681L326.73125,264.7544125643643L328.5166666666667,165.60976548628375L330.30208333333337,377.920279416171L332.08750000000003,205.13334118236196L333.8729166666667,-2.0332697088068103L335.6583333333333,47.9073486328125L337.44374999999997,130.35027746720746L339.22916666666663,16.16457262906161L341.0145833333333,36.25500835071909L342.8,234.44278283552688L344.5854166666667,-229.642333984375L346.37083333333334,123.11486001448199L348.15625,206.6391400423917L349.94166666666666,90.39055286754262L351.7270833333333,292.57629359852183L353.5125,208.98867000233042L355.2979166666667,80.92294467579234L357.08333333333337,252.13381125710225L358.86875000000003,432.3273057070645L360.6541666666667,159.2127187902277L362.4395833333333,113.47304066744718L364.22499999999997,134.4402193589644L366.01041666666663,24.07866183194247L367.7958333333333,130.54514555497602L369.58125,266.6120329770175L371.3666666666667,370.9515717246316L373.15208333333334,310.7949236089533L374.9375,129.70775534889916L376.72291666666666,-181.034218528054L378.5083333333333,194.50959847190165L380.29375,67.12666320800781L382.0791666666667,220.1037339297208L383.86458333333337,159.04595981944692L385.65000000000003,413.48837939175695L387.4354166666667,207.5128759904341L389.2208333333333,-102.64978859641339L391.00624999999997,191.2695324637673L392.79166666666663,224.27800317244095L394.5770833333333,21.80456889759409L396.3625,-193.71312991055578L398.1479166666667,192.0518810965798L399.93333333333334,105.0434433330189L401.71875,-232.12208106301046L403.50416666666666,-16.618240703235987L405.2895833333333,133.86470153115013L407.075,240.3537379178134L408.8604166666667,103.88560919328168L410.64583333333337,-39.815583662553244L412.43125000000003,249.95195544849742L414.2166666666667,46.82102931629526L416.0020833333333,144.7078914642334L417.78749999999997,157.3883063576438L419.57291666666663,141.71270162409002L421.3583333333333,102.99559610540217L423.14375,55.18630253184927L424.9291666666667,38.54465935446998L426.71458333333334,126.63856662403452L428.5,117.54735911976206L430.28541666666666,102.4609999223189L432.0708333333333,-38.56897700916635L433.85625,184.32664593783292L435.64166666666665,5.272485906427565L437.4270833333333,-0.6850780140270039L439.2125,253.17587505687368L440.99791666666664,136.49747987227008L442.78333333333336,186.13994546370074L444.56875,277.7491266077215L446.3541666666667,403.29457543113017L448.13958333333335,116.48431153730914L449.925,212.01595653187144L451.7104166666667,223.6944448297674L453.49583333333334,-170.35902959650213L455.28125,237.24336606805974L457.06666666666666,210.57814251292837L458.8520833333333,227.9242132360285L460.6375,146.3618188337846L462.42291666666665,108.0539297624068L464.2083333333333,256.5601473721591L465.99375,-51.09884470159358L467.77916666666664,141.3431647907604L469.56458333333336,98.58965544267133L471.35,149.86258055947044L473.1354166666667,129.3073638569225L474.92083333333335,199.33384201743388L476.70625,-203.8749025518244L478.4916666666667,158.95123863220215L480.27708333333334,237.5619796406139L482.0625,74.61735066500577L483.84791666666666,356.5665676810525L485.6333333333333,201.9819169477983L487.41875,202.07631128484553L489.20416666666665,249.2960324720903L490.9895833333333,251.44762195240367L492.775,126.42395678433505L494.56041666666664,273.00149674849075L496.34583333333336,225.44760391928935L498.13125,233.91740382801402L499.9166666666667,119.40811729431152L501.70208333333335,279.77337525107646L503.4875,323.7585215135054L505.2729166666667,-233.01032915982336L507.05833333333334,234.99476744911885L508.84375,100.46891333840111L510.62916666666666,102.42498103055087L512.4145833333333,387.9660202373158L514.1999999999999,16.065079428932872L515.9854166666667,239.04032308405095L517.7708333333333,-27.830902099609375L519.55625,231.34025539051402L521.3416666666666,321.5279650254683L523.1270833333334,89.02477663213557L524.9125,-190.4084129333496L526.6979166666667,100.75222708962181L528.4833333333333,75.70752681385386L530.2687500000001,266.7429691661488L532.0541666666667,182.08700301430443L533.8395833333334,158.29270085421476L535.625,258.2702276056463L537.4104166666666,-226.70878809148616L539.1958333333333,215.0292538729581L540.9812499999999,208.4647291356867L542.7666666666667,132.52546553178266L544.5520833333333,185.31412575461647L546.3375,54.563979755748385L548.1229166666666,163.06628261912954L549.9083333333334,-225.27286980368876L551.69375,30.208018216219813L553.4791666666667,207.58975115689364L555.2645833333333,217.72962483492765L557.0500000000001,216.50812027671122L558.8354166666667,83.26116561889648L560.6208333333334,239.33658010309392L562.40625,183.99992648037997L564.1916666666666,158.18719361045143L565.9770833333333,129.6979498429732L567.7624999999999,205.64943764426494L569.5479166666667,381.05320392955434L571.3333333333333,247.28825707869095L573.11875,206.64992609891024L574.9041666666666,-215.05200264670634L576.6895833333334,3.180383162065005L578.475,202.843036478216L580.2604166666667,138.11545372009277L582.0458333333333,152.486403205178L583.8312500000001,127.25873218883169L585.6166666666667,-0.02588653564453125L587.4020833333334,247.37905606356534L589.1875,388.5633062882857L590.9729166666666,166.6270540410822L592.7583333333333,-228.37977704134852L594.5437499999999,49.252271825617015L596.3291666666667,157.4625667225231L598.1145833333333,12.681395444003014L599.9,210.91597487709737L601.6854166666666,250.64455101706767L603.4708333333334,-144.07988149469548L605.25625,420.3703410408714L607.0416666666667,135.57890007712624L608.8270833333333,125.79640440507367L610.6125000000001,-170.99664896184748L612.3979166666667,253.07455149563876L614.1833333333334,205.7176839655096L615.96875,220.5538066517223L617.7541666666666,395.37492977489126L619.5395833333333,273.51746247031474L621.3249999999999,-113.65483474731445L623.1104166666667,-94.59803009033203L624.8958333333333,56.86252108487216L626.68125,207.62550856850362L628.4666666666666,260.3155254017223L630.2520833333334,391.92587575045496L632.0375,132.97311956232244L633.8229166666667,-6.761876886541185L635.6083333333333,120.24165066805753L637.3937500000001,177.98241823369807L639.1791666666667,241.70441367409444L640.9645833333334,-5.545863411643258L642.75,235.77535109086472L644.5354166666666,304.17411526766693L646.3208333333333,7.588154185902004L648.1062499999999,50.73813282359732L649.8916666666667,342.70472006364304L651.6770833333333,228.96712684631348L653.4625,304.95875185186213L655.2479166666666,-219.16822329434484L657.0333333333334,143.74825928427956L658.81875,220.57021453163838L660.6041666666667,103.80258924310857L662.3895833333333,216.73148970170456L664.1750000000001,246.30430724404073L665.9604166666667,207.07215118408203L667.7458333333334,182.72952513261274L669.53125,349.90889063748443L671.3166666666666,-227.5531075217507L673.1020833333333,354.01308319785375L674.8874999999999,143.24392942948774L676.6729166666667,116.92052581093529L678.4583333333333,-82.66577529907227L680.24375,286.53629805824977L682.0291666666666,86.0337051044811L683.8145833333334,347.0480362285267L685.6,66.32614170421255L687.3854166666667,203.33206974376333L689.1708333333333,221.69954733415085L690.9562500000001,367.3392233415084L692.7416666666667,168.45480034568092L694.5270833333334,92.65274845470083L696.3125,225.37027116255325L698.0979166666666,269.94655869223857L699.8833333333333,-3.991886832497367L701.6687499999999,45.025837291370756L703.4541666666667,94.88075551119718L705.2395833333333,247.9454874558882L707.025,-29.262505964799338L708.8104166666666,367.37661500410604L710.5958333333334,171.1960929523815L712.38125,246.36353249983352L714.1666666666667,292.15498369390315L715.9520833333333,187.686992818659L717.7375000000001,18.777543848211106L719.5229166666667,251.7595677809282L721.3083333333334,218.41960560191762L723.09375,160.04023812033913L724.8791666666666,158.2144529169256L726.6645833333333,176.40425473993474L728.4499999999999,237.4771946993741L730.2354166666667,83.96271688287908L732.0208333333333,-269.670239535245L733.80625,285.5636572404341L735.5916666666666,-174.52153223211116L737.3770833333334,124.80650589682838L739.1625,142.61912259188566L740.9479166666667,276.7426894794811L742.7333333333333,89.55224748091265L744.5187500000001,-96.08493700894446L746.3041666666667,180.98957079107112L748.0895833333334,179.11541175842285L749.875,-30.39654541015625L751.6604166666666,223.5646199313077L753.4458333333333,97.46176078102806L755.2312499999999,133.92196568575773L757.0166666666667,125.82869720458984L758.8020833333333,221.3545896356756L760.5875,112.60682227394798L762.3729166666666,235.083213112571L764.1583333333334,196.21150745045054L765.94375,-73.3547283519398L767.7291666666667,141.94130065224388L769.5145833333333,447.0347147854892L773.0854166666667,-84.81801847978075L774.8708333333334,209.8229878165505L776.65625,242.4595030004328L778.4416666666666,301.2748886455189L780.2270833333333,208.02014749700373L782.0124999999999,217.25915666060013L783.7979166666667,54.823368072509766L785.5833333333333,280.3924948952415" style="fill: none;" fill="none"></path></g></g></g></g></g></g><g transform="translate(30, 377)" clip-path="url(#clip_1)"><clipPath id="clip_1"><rect width="857" height="23"></rect></clipPath><g><g><line x1="0" y1="0" x2="0" y2="5" style="visibility: inherit;" fill="rgb(0, 0, 0)" stroke="rgb(204, 204, 204)" stroke-width="1px"></line><line x1="71.41666666666666" y1="0" x2="71.41666666666666" y2="5" style="visibility: inherit;" fill="rgb(0, 0, 0)" stroke="rgb(204, 204, 204)" stroke-width="1px"></line><line x1="142.83333333333331" y1="0" x2="142.83333333333331" y2="5" style="visibility: inherit;" fill="rgb(0, 0, 0)" stroke="rgb(204, 204, 204)" stroke-width="1px"></line><line x1="214.25" y1="0" x2="214.25" y2="5" style="visibility: inherit;" fill="rgb(0, 0, 0)" stroke="rgb(204, 204, 204)" stroke-width="1px"></line><line x1="285.66666666666663" y1="0" x2="285.66666666666663" y2="5" style="visibility: inherit;" fill="rgb(0, 0, 0)" stroke="rgb(204, 204, 204)" stroke-width="1px"></line><line x1="357.08333333333337" y1="0" x2="357.08333333333337" y2="5" style="visibility: inherit;" fill="rgb(0, 0, 0)" stroke="rgb(204, 204, 204)" stroke-width="1px"></line><line x1="428.5" y1="0" x2="428.5" y2="5" style="visibility: inherit;" fill="rgb(0, 0, 0)" stroke="rgb(204, 204, 204)" stroke-width="1px"></line><line x1="499.9166666666667" y1="0" x2="499.9166666666667" y2="5" style="visibility: inherit;" fill="rgb(0, 0, 0)" stroke="rgb(204, 204, 204)" stroke-width="1px"></line><line x1="571.3333333333333" y1="0" x2="571.3333333333333" y2="5" style="visibility: inherit;" fill="rgb(0, 0, 0)" stroke="rgb(204, 204, 204)" stroke-width="1px"></line><line x1="642.75" y1="0" x2="642.75" y2="5" style="visibility: inherit;" fill="rgb(0, 0, 0)" stroke="rgb(204, 204, 204)" stroke-width="1px"></line><line x1="714.1666666666667" y1="0" x2="714.1666666666667" y2="5" style="visibility: inherit;" fill="rgb(0, 0, 0)" stroke="rgb(204, 204, 204)" stroke-width="1px"></line><line x1="785.5833333333333" y1="0" x2="785.5833333333333" y2="5" style="visibility: inherit;" fill="rgb(0, 0, 0)" stroke="rgb(204, 204, 204)" stroke-width="1px"></line><line x1="857" y1="0" x2="857" y2="5" style="visibility: inherit;" fill="rgb(0, 0, 0)" stroke="rgb(204, 204, 204)" stroke-width="1px"></line></g><g transform="translate(0, 8)"><text x="0" y="0" dx="0em" dy="0.95em" style="text-anchor: middle; visibility: hidden; font-family: Roboto, sans-serif; font-size: 12px; font-weight: 200;" fill="rgb(33, 33, 33)" stroke="none" stroke-width="1px">-20k</text><text x="71.41666666666666" y="0" dx="0em" dy="0.95em" style="text-anchor: middle; visibility: inherit; font-family: Roboto, sans-serif; font-size: 12px; font-weight: 200;" fill="rgb(33, 33, 33)" stroke="none" stroke-width="1px">0</text><text x="142.83333333333331" y="0" dx="0em" dy="0.95em" style="text-anchor: middle; visibility: inherit; font-family: Roboto, sans-serif; font-size: 12px; font-weight: 200;" fill="rgb(33, 33, 33)" stroke="none" stroke-width="1px">20k</text><text x="214.25" y="0" dx="0em" dy="0.95em" style="text-anchor: middle; visibility: inherit; font-family: Roboto, sans-serif; font-size: 12px; font-weight: 200;" fill="rgb(33, 33, 33)" stroke="none" stroke-width="1px">40k</text><text x="285.66666666666663" y="0" dx="0em" dy="0.95em" style="text-anchor: middle; visibility: inherit; font-family: Roboto, sans-serif; font-size: 12px; font-weight: 200;" fill="rgb(33, 33, 33)" stroke="none" stroke-width="1px">60k</text><text x="357.08333333333337" y="0" dx="0em" dy="0.95em" style="text-anchor: middle; visibility: inherit; font-family: Roboto, sans-serif; font-size: 12px; font-weight: 200;" fill="rgb(33, 33, 33)" stroke="none" stroke-width="1px">80k</text><text x="428.5" y="0" dx="0em" dy="0.95em" style="text-anchor: middle; visibility: inherit; font-family: Roboto, sans-serif; font-size: 12px; font-weight: 200;" fill="rgb(33, 33, 33)" stroke="none" stroke-width="1px">100k</text><text x="499.9166666666667" y="0" dx="0em" dy="0.95em" style="text-anchor: middle; visibility: inherit; font-family: Roboto, sans-serif; font-size: 12px; font-weight: 200;" fill="rgb(33, 33, 33)" stroke="none" stroke-width="1px">120k</text><text x="571.3333333333333" y="0" dx="0em" dy="0.95em" style="text-anchor: middle; visibility: inherit; font-family: Roboto, sans-serif; font-size: 12px; font-weight: 200;" fill="rgb(33, 33, 33)" stroke="none" stroke-width="1px">140k</text><text x="642.75" y="0" dx="0em" dy="0.95em" style="text-anchor: middle; visibility: inherit; font-family: Roboto, sans-serif; font-size: 12px; font-weight: 200;" fill="rgb(33, 33, 33)" stroke="none" stroke-width="1px">160k</text><text x="714.1666666666667" y="0" dx="0em" dy="0.95em" style="text-anchor: middle; visibility: inherit; font-family: Roboto, sans-serif; font-size: 12px; font-weight: 200;" fill="rgb(33, 33, 33)" stroke="none" stroke-width="1px">180k</text><text x="785.5833333333333" y="0" dx="0em" dy="0.95em" style="text-anchor: middle; visibility: inherit; font-family: Roboto, sans-serif; font-size: 12px; font-weight: 200;" fill="rgb(33, 33, 33)" stroke="none" stroke-width="1px">200k</text><text x="857" y="0" dx="0em" dy="0.95em" style="text-anchor: middle; visibility: hidden; font-family: Roboto, sans-serif; font-size: 12px; font-weight: 200;" fill="rgb(33, 33, 33)" stroke="none" stroke-width="1px">220k</text></g><line x1="0" y1="0" x2="857" y2="0" fill="rgb(0, 0, 0)" stroke="rgb(204, 204, 204)" stroke-width="1px"></line></g></g></g></g></svg>