<svg viewBox="0 0 1112.5999755859375 400" xmlns="http://www.w3.org/2000/svg"><g><g><g><g><g><line x1="61.953125" y1="367.92370427373874" x2="56.953125" y2="367.92370427373874" style="visibility: inherit;" fill="rgb(0, 0, 0)" stroke="rgb(204, 204, 204)" stroke-width="1px"></line><line x1="61.953125" y1="340.06818469668156" x2="56.953125" y2="340.06818469668156" style="visibility: inherit;" fill="rgb(0, 0, 0)" stroke="rgb(204, 204, 204)" stroke-width="1px"></line><line x1="61.953125" y1="312.2126651196243" x2="56.953125" y2="312.2126651196243" style="visibility: inherit;" fill="rgb(0, 0, 0)" stroke="rgb(204, 204, 204)" stroke-width="1px"></line><line x1="61.953125" y1="284.3571455425671" x2="56.953125" y2="284.3571455425671" style="visibility: inherit;" fill="rgb(0, 0, 0)" stroke="rgb(204, 204, 204)" stroke-width="1px"></line><line x1="61.953125" y1="256.50162596550985" x2="56.953125" y2="256.50162596550985" style="visibility: inherit;" fill="rgb(0, 0, 0)" stroke="rgb(204, 204, 204)" stroke-width="1px"></line><line x1="61.953125" y1="228.64610638845264" x2="56.953125" y2="228.64610638845264" style="visibility: inherit;" fill="rgb(0, 0, 0)" stroke="rgb(204, 204, 204)" stroke-width="1px"></line><line x1="61.953125" y1="200.79058681139534" x2="56.953125" y2="200.79058681139534" style="visibility: inherit;" fill="rgb(0, 0, 0)" stroke="rgb(204, 204, 204)" stroke-width="1px"></line><line x1="61.953125" y1="172.9350672343382" x2="56.953125" y2="172.9350672343382" style="visibility: inherit;" fill="rgb(0, 0, 0)" stroke="rgb(204, 204, 204)" stroke-width="1px"></line><line x1="61.953125" y1="145.07954765728093" x2="56.953125" y2="145.07954765728093" style="visibility: inherit;" fill="rgb(0, 0, 0)" stroke="rgb(204, 204, 204)" stroke-width="1px"></line><line x1="61.953125" y1="117.22402808022372" x2="56.953125" y2="117.22402808022372" style="visibility: inherit;" fill="rgb(0, 0, 0)" stroke="rgb(204, 204, 204)" stroke-width="1px"></line><line x1="61.953125" y1="89.36850850316645" x2="56.953125" y2="89.36850850316645" style="visibility: inherit;" fill="rgb(0, 0, 0)" stroke="rgb(204, 204, 204)" stroke-width="1px"></line><line x1="61.953125" y1="61.512988926109244" x2="56.953125" y2="61.512988926109244" style="visibility: inherit;" fill="rgb(0, 0, 0)" stroke="rgb(204, 204, 204)" stroke-width="1px"></line><line x1="61.953125" y1="33.65746934905199" x2="56.953125" y2="33.65746934905199" style="visibility: inherit;" fill="rgb(0, 0, 0)" stroke="rgb(204, 204, 204)" stroke-width="1px"></line><line x1="61.953125" y1="5.801949771994778" x2="56.953125" y2="5.801949771994778" style="visibility: inherit;" fill="rgb(0, 0, 0)" stroke="rgb(204, 204, 204)" stroke-width="1px"></line></g><g transform="translate(51.953125, 0)"><text x="0" y="367.92370427373874" dx="0em" dy="0.3em" style="text-anchor: end; visibility: inherit; font-family: Roboto, sans-serif; font-size: 12px; font-weight: 200;" fill="rgb(50, 49, 63)" stroke="none" stroke-width="1px">0</text><text x="0" y="340.06818469668156" dx="0em" dy="0.3em" style="text-anchor: end; visibility: inherit; font-family: Roboto, sans-serif; font-size: 12px; font-weight: 200;" fill="rgb(50, 49, 63)" stroke="none" stroke-width="1px">2e-3</text><text x="0" y="312.2126651196243" dx="0em" dy="0.3em" style="text-anchor: end; visibility: inherit; font-family: Roboto, sans-serif; font-size: 12px; font-weight: 200;" fill="rgb(50, 49, 63)" stroke="none" stroke-width="1px">4e-3</text><text x="0" y="284.3571455425671" dx="0em" dy="0.3em" style="text-anchor: end; visibility: inherit; font-family: Roboto, sans-serif; font-size: 12px; font-weight: 200;" fill="rgb(50, 49, 63)" stroke="none" stroke-width="1px">6e-3</text><text x="0" y="256.50162596550985" dx="0em" dy="0.3em" style="text-anchor: end; visibility: inherit; font-family: Roboto, sans-serif; font-size: 12px; font-weight: 200;" fill="rgb(50, 49, 63)" stroke="none" stroke-width="1px">8e-3</text><text x="0" y="228.64610638845264" dx="0em" dy="0.3em" style="text-anchor: end; visibility: inherit; font-family: Roboto, sans-serif; font-size: 12px; font-weight: 200;" fill="rgb(50, 49, 63)" stroke="none" stroke-width="1px">0.01</text><text x="0" y="200.79058681139534" dx="0em" dy="0.3em" style="text-anchor: end; visibility: inherit; font-family: Roboto, sans-serif; font-size: 12px; font-weight: 200;" fill="rgb(50, 49, 63)" stroke="none" stroke-width="1px">0.012</text><text x="0" y="172.9350672343382" dx="0em" dy="0.3em" style="text-anchor: end; visibility: inherit; font-family: Roboto, sans-serif; font-size: 12px; font-weight: 200;" fill="rgb(50, 49, 63)" stroke="none" stroke-width="1px">0.014</text><text x="0" y="145.07954765728093" dx="0em" dy="0.3em" style="text-anchor: end; visibility: inherit; font-family: Roboto, sans-serif; font-size: 12px; font-weight: 200;" fill="rgb(50, 49, 63)" stroke="none" stroke-width="1px">0.016</text><text x="0" y="117.22402808022372" dx="0em" dy="0.3em" style="text-anchor: end; visibility: inherit; font-family: Roboto, sans-serif; font-size: 12px; font-weight: 200;" fill="rgb(50, 49, 63)" stroke="none" stroke-width="1px">0.018</text><text x="0" y="89.36850850316645" dx="0em" dy="0.3em" style="text-anchor: end; visibility: inherit; font-family: Roboto, sans-serif; font-size: 12px; font-weight: 200;" fill="rgb(50, 49, 63)" stroke="none" stroke-width="1px">0.02</text><text x="0" y="61.512988926109244" dx="0em" dy="0.3em" style="text-anchor: end; visibility: inherit; font-family: Roboto, sans-serif; font-size: 12px; font-weight: 200;" fill="rgb(50, 49, 63)" stroke="none" stroke-width="1px">0.022</text><text x="0" y="33.65746934905199" dx="0em" dy="0.3em" style="text-anchor: end; visibility: inherit; font-family: Roboto, sans-serif; font-size: 12px; font-weight: 200;" fill="rgb(50, 49, 63)" stroke="none" stroke-width="1px">0.024</text><text x="0" y="5.801949771994778" dx="0em" dy="0.3em" style="text-anchor: end; visibility: hidden; font-family: Roboto, sans-serif; font-size: 12px; font-weight: 200;" fill="rgb(50, 49, 63)" stroke="none" stroke-width="1px">0.026</text></g><line x1="61.953125" y1="0" x2="61.953125" y2="378" fill="rgb(0, 0, 0)" stroke="rgb(204, 204, 204)" stroke-width="1px"></line></g></g><g transform="translate(61, 0)" clip-path="url(#clip_0)"><clipPath id="clip_0"><rect width="1050" height="378"></rect></clipPath><g><g><g><line x1="57.63911933563855" y1="0" x2="57.63911933563855" y2="378" fill="rgb(0, 0, 0)" stroke="rgb(60, 60, 60)" stroke-width="1px" opacity="0.25"></line><line x1="146.4321932974385" y1="0" x2="146.4321932974385" y2="378" fill="rgb(0, 0, 0)" stroke="rgb(60, 60, 60)" stroke-width="1px" opacity="0.25"></line><line x1="235.22526725923848" y1="0" x2="235.22526725923848" y2="378" fill="rgb(0, 0, 0)" stroke="rgb(60, 60, 60)" stroke-width="1px" opacity="0.25"></line><line x1="324.01834122103844" y1="0" x2="324.01834122103844" y2="378" fill="rgb(0, 0, 0)" stroke="rgb(60, 60, 60)" stroke-width="1px" opacity="0.25"></line><line x1="412.8114151828384" y1="0" x2="412.8114151828384" y2="378" fill="rgb(0, 0, 0)" stroke="rgb(60, 60, 60)" stroke-width="1px" opacity="0.25"></line><line x1="501.60448914463836" y1="0" x2="501.60448914463836" y2="378" fill="rgb(0, 0, 0)" stroke="rgb(60, 60, 60)" stroke-width="1px" opacity="0.25"></line><line x1="590.3975631064384" y1="0" x2="590.3975631064384" y2="378" fill="rgb(0, 0, 0)" stroke="rgb(60, 60, 60)" stroke-width="1px" opacity="0.25"></line><line x1="679.1906370682383" y1="0" x2="679.1906370682383" y2="378" fill="rgb(0, 0, 0)" stroke="rgb(60, 60, 60)" stroke-width="1px" opacity="0.25"></line><line x1="767.9837110300383" y1="0" x2="767.9837110300383" y2="378" fill="rgb(0, 0, 0)" stroke="rgb(60, 60, 60)" stroke-width="1px" opacity="0.25"></line><line x1="856.7767849918382" y1="0" x2="856.7767849918382" y2="378" fill="rgb(0, 0, 0)" stroke="rgb(60, 60, 60)" stroke-width="1px" opacity="0.25"></line><line x1="945.5698589536382" y1="0" x2="945.5698589536382" y2="378" fill="rgb(0, 0, 0)" stroke="rgb(60, 60, 60)" stroke-width="1px" opacity="0.25"></line><line x1="1034.362932915438" y1="0" x2="1034.362932915438" y2="378" fill="rgb(0, 0, 0)" stroke="rgb(60, 60, 60)" stroke-width="1px" opacity="0.25"></line></g><g><line x1="0" y1="367.92370427373874" x2="1050.646875" y2="367.92370427373874" fill="rgb(0, 0, 0)" stroke="rgb(60, 60, 60)" stroke-width="1px" opacity="0.25"></line><line x1="0" y1="340.06818469668156" x2="1050.646875" y2="340.06818469668156" fill="rgb(0, 0, 0)" stroke="rgb(60, 60, 60)" stroke-width="1px" opacity="0.25"></line><line x1="0" y1="312.2126651196243" x2="1050.646875" y2="312.2126651196243" fill="rgb(0, 0, 0)" stroke="rgb(60, 60, 60)" stroke-width="1px" opacity="0.25"></line><line x1="0" y1="284.3571455425671" x2="1050.646875" y2="284.3571455425671" fill="rgb(0, 0, 0)" stroke="rgb(60, 60, 60)" stroke-width="1px" opacity="0.25"></line><line x1="0" y1="256.50162596550985" x2="1050.646875" y2="256.50162596550985" fill="rgb(0, 0, 0)" stroke="rgb(60, 60, 60)" stroke-width="1px" opacity="0.25"></line><line x1="0" y1="228.64610638845264" x2="1050.646875" y2="228.64610638845264" fill="rgb(0, 0, 0)" stroke="rgb(60, 60, 60)" stroke-width="1px" opacity="0.25"></line><line x1="0" y1="200.79058681139534" x2="1050.646875" y2="200.79058681139534" fill="rgb(0, 0, 0)" stroke="rgb(60, 60, 60)" stroke-width="1px" opacity="0.25"></line><line x1="0" y1="172.9350672343382" x2="1050.646875" y2="172.9350672343382" fill="rgb(0, 0, 0)" stroke="rgb(60, 60, 60)" stroke-width="1px" opacity="0.25"></line><line x1="0" y1="145.07954765728093" x2="1050.646875" y2="145.07954765728093" fill="rgb(0, 0, 0)" stroke="rgb(60, 60, 60)" stroke-width="1px" opacity="0.25"></line><line x1="0" y1="117.22402808022372" x2="1050.646875" y2="117.22402808022372" fill="rgb(0, 0, 0)" stroke="rgb(60, 60, 60)" stroke-width="1px" opacity="0.25"></line><line x1="0" y1="89.36850850316645" x2="1050.646875" y2="89.36850850316645" fill="rgb(0, 0, 0)" stroke="rgb(60, 60, 60)" stroke-width="1px" opacity="0.25"></line><line x1="0" y1="61.512988926109244" x2="1050.646875" y2="61.512988926109244" fill="rgb(0, 0, 0)" stroke="rgb(60, 60, 60)" stroke-width="1px" opacity="0.25"></line><line x1="0" y1="33.65746934905199" x2="1050.646875" y2="33.65746934905199" fill="rgb(0, 0, 0)" stroke="rgb(60, 60, 60)" stroke-width="1px" opacity="0.25"></line><line x1="0" y1="5.801949771994778" x2="1050.646875" y2="5.801949771994778" fill="rgb(0, 0, 0)" stroke="rgb(60, 60, 60)" stroke-width="1px" opacity="0.25"></line></g></g></g><g><g><line x1="0" y1="367.92370427373874" x2="1050.646875" y2="367.92370427373874" fill="rgb(0, 0, 0)" stroke="rgb(153, 153, 153)" stroke-width="1.5px"></line></g></g><g><g><line x1="57.63911933563855" y1="0" x2="57.63911933563855" y2="378" fill="rgb(0, 0, 0)" stroke="rgb(153, 153, 153)" stroke-width="1.5px"></line></g></g><g><g><g><g><g><path stroke="rgb(255, 112, 67)" stroke-width="2px" d="M68.73825358086354,-7.627477701111205L70.95808042990855,66.95221404151765L73.17790727895354,137.73373788528832L75.39773412799855,171.59691357332414L77.61756097704354,233.2796423113498L79.83738782608854,14.865862200124855L82.05721467513354,137.8019174031763L84.27704152417854,194.8538523058743L86.49686837322353,237.82062578018142L88.71669522226854,260.6395245404375L90.93652207131353,260.3253160769772L93.15634892035854,294.5922835335552L95.37617576940353,311.5954954695702L97.59600261844854,304.1352391215977L99.81582946749353,182.7267532151563L102.03565631653854,255.25098619975606L104.25548316558353,105.90381545190621L106.47531001462853,202.61554545231382L108.69513686367353,234.54012240436174L110.91496371271853,265.3471058519872L113.13479056176352,283.7780577031273L115.35461741080853,307.4437015956824L117.57444425985352,297.06946112904353L119.79427110889853,311.5339518531128L122.01409795794352,293.59320818588816L124.23392480698853,312.17057322584L126.45375165603352,300.7761567435976L128.67357850507852,325.66382194868856L130.8934053541235,315.68016156825087L133.1132322031685,297.3137396054019L135.3330590522135,321.7979471456808L137.5528859012585,326.81502285672866L139.7727127503035,313.96562066655383L141.9925395993485,306.5794042096785L144.2123664483935,308.0662734361281L146.4321932974385,309.2283186323525L148.6520201464835,305.40629410104845L150.8718469955285,313.9284670507683L153.0916738445735,288.36730499505353L155.31150069361848,279.58101764691776L157.5313275426635,299.36721208888247L159.7511543917085,305.03018774222215L161.9709812407535,310.4491564883128L164.19080808979848,314.8407834134749L166.4106349388435,318.4487593033771L168.6304617878885,315.975118652985L170.8502886369335,317.1533533174692L173.0701154859785,329.48536391163674L175.28994233502348,314.3212920556638L177.5097691840685,327.05697630028715L179.7295960331135,316.36293938821626L181.9494228821585,304.0386687201561L184.16924973120348,301.3883648271534L186.38907658024849,310.00558232997514L188.6089034292935,236.53014133906535L190.8287302783385,270.3319138824047L193.04855712738348,300.05545107228045L195.26838397642848,302.87261069798564L197.4882108254735,325.11215983314526L199.7080376745185,306.5372454564291L201.92786452356347,316.3643667961441L204.14769137260848,335.48529479132674L206.36751822165348,326.3932740091842L208.5873450706985,314.3118347772426L210.80717191974347,291.12731873621937L213.02699876878847,317.74942818254016L215.24682561783348,330.18186553741447L217.4666524668785,331.52594936427L219.68647931592346,308.6167898202044L221.90630616496847,307.7558859290303L224.12613301401348,313.05885020771825L226.34595986305848,304.39273712279896L228.56578671210346,300.0570029537333L230.78561356114847,309.04553791720366L233.00544041019347,327.7987600687695L235.22526725923848,322.0519202104206L237.44509410828346,331.4256545826867L239.66492095732846,320.07335151434637L241.88474780637347,306.9981852178706L244.10457465541847,313.26151479321936L246.32440150446345,315.15524613088047L248.54422835350846,335.1257974968488L250.76405520255346,331.72539190198586L252.98388205159847,330.59475524992405L255.20370890064345,336.06952603289096L257.4235357496885,331.16668551445355L259.64336259873346,325.0161643511285L261.8631894477785,338.9636696610021L264.0830162968235,332.78626711978876L266.3028431458685,324.8948038152747L268.52266999491343,315.6248389000413L270.74249684395846,320.7139266863351L272.96232369300344,334.48026733386826L275.1821505420485,335.49265209049844L277.40197739109345,334.4834582072399L279.6218042401385,332.75770303582505L281.84163108918347,332.8613398733204L284.0614579382285,331.02622042161073L286.2812847872734,297.39810490613434L288.50111163631846,322.50387135071355L290.72093848536343,330.6972896237204L292.94076533440847,340.7989603547715L295.16059218345345,349.0329991232423L297.3804190324985,354.50058675578504L299.60024588154346,355.6725775123432L301.8200727305885,338.6409985009835L304.0398995796334,319.127153140523L306.25972642867845,291.1076631369651L308.4795532777234,308.5074902578131L310.69938012676846,314.6024268027854L312.91920697581344,316.94393536412804L315.1390338248585,336.3921868878566L317.35886067390345,337.4356826121829L319.5786875229485,335.4070321816984L321.7985143719934,330.49751442531857L324.01834122103844,331.47209557320326L326.2381680700834,335.8744596420955L328.45799491912845,329.0854281077927L330.67782176817343,342.1993557494234L332.89764861721847,344.72229195237696L335.11747546626344,341.9633904337403L337.3373023153085,343.069723835027L339.5571291643534,340.77065400172023L341.77695601339843,342.9780224773483L343.9967828624434,343.8854513664579L346.21660971148845,342.7213224315464L348.4364365605334,344.81690467074804L350.65626340957846,303.6105660974665L352.87609025862344,270.84186161169134L355.09591710766847,302.3364299998684L357.3157439567134,312.67244120789496L359.5355708057584,333.8118105171347L361.7553976548034,335.1097520007659L363.97522450384844,333.2306494433407L366.1950513528934,337.5571520894254L368.41487820193845,309.2160435337973L370.6347050509834,316.3289448273764L372.85453190002846,335.5313707619445L375.07435874907344,330.5864105796321L377.2941855981184,325.7102123491384L379.5140124471634,303.32563240026815L381.73383929620843,318.31619901947084L383.9536661452534,335.1083084321055L386.17349299429844,340.63300597567655L388.3933198433434,343.30352564364983L390.61314669238845,349.5162532150407L392.83297354143343,351.8062116678046L395.0528003904784,336.85377280129177L397.2726272395234,348.5834323551109L399.4924540885684,346.3289671862611L401.7122809376134,342.25376550599793L403.93210778665843,343.54514165251874L406.1519346357034,332.52269334685354L408.37176148474845,331.4829130624723L410.5915883337934,336.795708367329L412.8114151828384,329.0671951596895L415.0312420318834,294.19312178714006L417.2510688809284,308.8155475357054L419.4708957299734,325.92907974389516L421.6907225790184,332.48403587255825L423.9105494280634,342.48229192100246L426.13037627710844,342.2306178203929L428.3502031261534,335.6769549487396L430.5700299751984,312.50041842578526L432.7898568242434,307.3056446937316L435.0096836732884,323.50587297769755L437.2295105223334,340.3926593889896L439.4493373713784,334.78376524766713L441.6691642204234,342.5755268059957L443.88899106946843,335.1384238868283L446.1088179185134,330.7067586894108L448.3286447675584,297.2208830134441L450.54847161660336,306.3130637914085L452.7682984656484,329.0309836129982L454.9881253146934,334.80777855707174L457.2079521637384,324.0646370637294L459.4277790127834,338.58033488826925L461.6476058618284,349.2434461312493L463.8674327108734,340.15590514846696L466.0872595599184,339.47781275838184L468.30708640896336,349.84552701854113L470.5269132580084,354.30586895475807L472.74674010705337,353.5655595457358L474.9665669560984,334.6704636229624L477.1863938051434,338.1562710568518L479.4062206541884,347.82780631058324L481.6260475032334,344.2987392295188L483.8458743522784,350.36611003178524L486.06570120132335,349.6482539193492L488.2855280503684,343.9103825872153L490.50535489941336,342.4751766466982L492.7251817484584,346.4094889576543L494.9450085975034,347.844537717398L497.1648354465484,347.8156668203599L499.3846622955934,348.7443087160361L501.60448914463836,348.8112063847897L503.82431599368334,347.85035526722027L506.0441428427284,353.15383381872454L508.26396969177335,344.98613615215487L510.4837965408184,349.62579369529453L512.7036233898634,353.9342475359032L514.9234502389083,343.3985289115037L517.1432770879534,344.3813375486107L519.3631039369983,339.94358784868365L521.5829307860433,331.84837898365805L523.8027576350884,301.053823968996L526.0225844841334,319.3557820467009L528.2424113331783,327.50983036698574L530.4622381822234,323.7736134339194L532.6820650312683,340.5758271620423L534.9018918803133,338.2184054126439L537.1217187293583,338.05987423595275L539.3415455784034,338.1229436578032L541.5613724274483,339.78295525201247L543.7811992764933,344.26359231241827L546.0010261255384,336.02152098578773L548.2208529745834,346.1694091172921L550.4406798236283,344.04666224394254L552.6605066726734,341.5790688178719L554.8803335217184,341.8035526943824L557.1001603707634,344.23443216657364L559.3199872198084,337.18434261863933L561.5398140688534,348.34590071117117L563.7596409178984,342.7875417592338L565.9794677669433,336.9227693637338L568.1992946159883,340.9277221913299L570.4191214650333,316.89944854709626L572.6389483140783,315.9199557205611L574.8587751631234,323.04456457871646L577.0786020121683,323.93626003632755L579.2984288612133,320.12025482713483L581.5182557102584,330.7555289565229L583.7380825593034,327.4623420444253L585.9579094083483,329.5954506045079L588.1777362573933,325.8949508835724L590.3975631064384,331.812190373973L592.6173899554834,329.2189955749515L594.8372168045283,315.0781431913754L597.0570436535734,335.3611986073466L599.2768705026184,333.12366348200493L601.4966973516633,337.20878989293954L603.7165242007082,339.1393533427083L605.9363510497533,308.91652470827836L608.1561778987983,324.8119964051355L610.3760047478434,327.4181663266909L612.5958315968883,341.235944979689L614.8156584459333,334.0099126305257L617.0354852949783,325.73101249579423L619.2553121440234,336.38429248124737L621.4751389930683,348.1915767710349L623.6949658421133,348.35161893498645L625.9147926911584,348.11202385025837L628.1346195402034,338.6618821667586L630.3544463892483,341.3518301639951L632.5742732382934,341.7198973700526L634.7941000873384,341.0339282361129L637.0139269363833,351.00460608579584L639.2337537854282,345.78542527382916L641.4535806344733,341.09594798360075L643.6734074835183,339.65362230415025L645.8932343325633,338.426955892006L648.1130611816083,340.83433884284455L650.3328880306533,338.8826581228422L652.5527148796983,349.53686016205216L654.7725417287434,349.3106399995744L656.9923685777883,344.5720229074629L659.2121954268333,337.65029230094825L661.4320222758784,334.9543661831026L663.6518491249234,341.6366628166216L665.8716759739683,333.182836461428L668.0915028230133,334.9872951815353L670.3113296720584,338.1783185354358L672.5311565211033,340.77710304312035L674.7509833701482,334.9080348677928L676.9708102191933,314.6324135943378L679.1906370682383,312.07140137026283L681.4104639172833,318.8096157438029L683.6302907663282,337.65397203512794L685.8501176153733,346.89598683338335L688.0699444644183,337.2058239823068L690.2897713134633,339.45450003251216L692.5095981625083,342.5497580522663L694.7294250115533,343.82299770892007L696.9492518605983,348.70155378628846L699.1690787096434,331.42816059404294L701.3889055586883,304.2933035103552L703.6087324077333,312.79211788444695L705.8285592567784,334.19795390299885L708.0483861058233,340.69914914788745L710.2682129548682,339.83920695479435L712.4880398039132,342.6161529670376L714.7078666529583,336.59889064266434L716.9276935020033,334.71247162409315L719.1475203510482,347.0806742248963L721.3673472000933,308.4587703039921L723.5871740491383,323.96609502039786L725.8070008981833,332.3917825778548L728.0268277472283,344.6894301407478L730.2466545962733,335.16201354700263L732.4664814453183,334.9437545013281L734.6863082943634,331.54422243519497L736.9061351434083,308.9712501810286L739.1259619924533,312.76129416641663L741.3457888414983,332.58615928654945L743.5656156905434,343.04465296578184L745.7854425395882,348.7116812503522L748.0052693886332,344.9097816076365L750.2250962376783,330.3119086960902L752.4449230867233,308.4254602456034L754.6647499357682,320.18064511254516L756.8845767848132,336.6453179414381L759.1044036338583,339.11955255083024L761.3242304829033,335.4409079523532L763.5440573319482,333.7182007905053L765.7638841809933,344.81281208812663L767.9837110300383,331.767491108503L770.2035378790833,316.102446659838L772.4233647281283,332.92499728202426L774.6431915771733,338.70707036327485L776.8630184262183,319.2974529350078L779.0828452752634,317.6033816167452L781.3026721243082,311.93470605672104L783.5224989733532,333.76487132321057L785.7423258223982,335.36383092970027L787.9621526714433,333.7199235088511L790.1819795204882,338.29354872643546L792.4018063695332,326.2655245215643L794.6216332185783,327.70604311185997L796.8414600676233,332.3321712755448L799.0612869166682,336.4241848806432L801.2811137657133,315.64182906715774L803.5009406147583,335.4429010005387L805.7207674638033,317.6718477406731L807.9405943128482,328.0347752409478L810.1604211618933,332.2672527712419L812.3802480109383,344.8824984204559L814.6000748599834,321.4619628777722L816.8199017090282,334.86090606516956L819.0397285580732,323.629102822256L821.2595554071182,336.4110861031802L823.4793822561633,338.76727810755585L825.6992091052082,329.307692315115L827.9190359542532,309.9329771223534L830.1388628032983,320.0979961013366L832.3586896523433,329.9634487442619L834.5785165013882,334.2375017977064L836.7983433504332,332.2459915422308L839.0181701994783,343.4853294917283L841.2379970485233,347.6580603068378L843.4578238975682,345.9429161287427L845.6776507466133,338.03415137181884L847.8974775956583,347.1621582064012L850.1173044447033,318.92442797250357L852.3371312937481,326.4784549318719L854.5569581427932,321.3596104654947L856.7767849918382,321.05359772185125L858.9966118408832,328.3321183796998L861.2164386899282,338.9619785037549L863.4362655389732,330.918075272286L865.6560923880182,325.7908395462827L867.8759192370633,329.7340867184083L870.0957460861082,333.9318447997479L872.3155729351532,326.92030345382454L874.5353997841983,323.6259401989389L876.7552266332433,331.9952172803224L878.9750534822882,345.8152003700329L881.1948803313333,335.7609622482631L883.4147071803783,347.42193546984714L885.6345340294233,345.3956591790004L887.8543608784681,347.7223564175667L890.0741877275132,336.6138570352223L892.2940145765582,342.67428944608235L894.5138414256032,350.99266949978073L896.7336682746482,347.54011143583557L898.9534951236932,344.6749820430312L901.1733219727382,351.04594014150405L903.3931488217833,339.059350544515L905.6129756708282,339.52785271144234L907.8328025198732,343.6145126268712L910.0526293689182,342.19102461587113L912.2724562179633,336.93917395822274L914.4922830670082,339.8646899302901L916.7121099160532,329.89348750973113L918.9319367650983,336.82665748779505L921.1517636141433,347.2252325879127L923.3715904631881,343.021058570302L925.5914173122331,305.85785112041617L927.8112441612782,329.4812644169191L930.0310710103232,342.7720347881106L932.2508978593681,333.8461113435394L934.4707247084132,329.1693213605156L936.6905515574582,320.5000224997706L938.9103784065032,321.9765989966054L941.1302052555482,323.41188067746896L943.3500321045932,333.8863577853402L945.5698589536382,332.30604987553005" style="fill: none;" fill="none"></path></g></g></g></g><g opacity="0.2"><g><g><g><path stroke="rgb(255, 112, 67)" stroke-width="2px" d="M62.078773033728545,-13.866526118884407L64.29859988277354,60.569514684367164L66.51842673181855,196.70838138686634L68.73825358086354,5.501061484677439L70.95808042990855,173.6023665085446L73.17790727895354,240.93387915213478L75.39773412799855,221.5385201299314L77.61756097704354,324.8713057353799L79.83738782608854,-310.773811056358L82.05721467513354,321.53698762419464L84.27704152417854,280.245470193725L86.49686837322353,302.1866096094617L88.71669522226854,294.8410499219175L90.93652207131353,259.8542249859389L93.15634892035854,345.97823408621366L95.37617576940353,337.0959962599241L97.59600261844854,292.9459910946061L99.81582946749353,0.6251215720052146L102.03565631653854,364.0333582753577L104.25548316558353,-118.11202633759908L106.47531001462853,347.6812310485225L108.69513686367353,282.42660965538454L110.91496371271853,311.5573620605721L113.13479056176352,311.42440688024703L115.35461741080853,342.9421068806186L117.57444425985352,281.5081163559881L119.79427110889853,333.2306746153765L122.01409795794352,266.68210260062745L124.23392480698853,340.03661462531136L126.45375165603352,283.6845342873414L128.67357850507852,362.9953167852376L130.8934053541235,300.70467171270354L133.1132322031685,269.7641074504579L135.3330590522135,358.5242578247478L137.5528859012585,334.34063634567804L139.7727127503035,294.69151750057244L141.9925395993485,295.500079565505L144.2123664483935,310.2965772708335L146.4321932974385,310.97138642435914L148.6520201464835,299.67325730869055L150.8718469955285,326.71172646919626L153.0916738445735,250.02556192255219L155.31150069361848,266.40158662699736L157.5313275426635,329.0465037487445L159.7511543917085,313.524651221702L161.9709812407535,318.5776096071445L164.19080808979848,321.4282238010702L166.4106349388435,323.86072313815737L168.6304617878885,312.26465767742684L170.8502886369335,318.92070531418705L173.0701154859785,347.98337980283424L175.28994233502348,291.575184271744L177.5097691840685,346.1605026672022L179.7295960331135,300.32188402012L181.9494228821585,285.5522627180729L184.16924973120348,297.41290898765016L186.38907658024849,322.93140858420617L188.6089034292935,126.31697985270957L190.8287302783385,321.0345726974114L193.04855712738348,344.6407568570926L195.26838397642848,307.0983501365434L197.4882108254735,358.47148353588426L199.7080376745185,278.67487389135505L201.92786452356347,331.10504880571654L204.14769137260848,364.16668678410065L206.36751822165348,312.7552428359705L208.5873450706985,296.18967592933024L210.80717191974347,256.35054467468456L213.02699876878847,357.68259235202123L215.24682561783348,348.830521569726L217.4666524668785,333.54207510455325L219.68647931592346,274.25305050410606L221.90630616496847,306.4645300922692L224.12613301401348,321.0132966257501L226.34595986305848,291.39356749542L228.56578671210346,293.55340170013477L230.78561356114847,322.52834036240915L233.00544041019347,355.92859329611844L235.22526725923848,313.4316604228971L237.44509410828346,345.48625614108596L239.66492095732846,303.04489691183585L241.88474780637347,287.3854357731569L244.10457465541847,322.6565091562425L246.32440150446345,317.9958431373721L248.54422835350846,365.0816245458013L250.76405520255346,326.62478350969155L252.98388205159847,328.89880027183125L255.20370890064345,344.2816822073414L257.4235357496885,323.8124247367973L259.64336259873346,315.79038260614095L261.8631894477785,359.88492762581245L264.0830162968235,323.52016330796874L266.3028431458685,313.0576088585037L268.52266999491343,301.71989152719107L270.74249684395846,328.34755836577597L272.96232369300344,355.1297783051678L275.1821505420485,337.01122922544374L277.40197739109345,332.9696673823521L279.6218042401385,330.16907027870275L281.84163108918347,333.01679512956343L284.0614579382285,328.27354124404627L286.2812847872734,246.95593163291983L288.50111163631846,360.1625210175824L290.72093848536343,342.98741703323054L292.94076533440847,355.95146645134827L295.16059218345345,361.38405727594846L297.3804190324985,362.7019682045992L299.60024588154346,357.4305636471804L301.8200727305885,313.09362998394397L304.0398995796334,289.8563850998322L306.25972642867845,249.0784281316282L308.4795532777234,334.6072309390853L310.69938012676846,323.7448316202438L312.91920697581344,320.45619820614195L315.1390338248585,365.56456417344947L317.35886067390345,339.00092619867235L319.5786875229485,332.3640565359717L321.7985143719934,323.1332377907488L324.01834122103844,332.9339672950302L326.2381680700834,342.4780057454339L328.45799491912845,318.90188080633857L330.67782176817343,361.8702472118693L332.89764861721847,348.50669625680734L335.11747546626344,337.82503815578525L337.3373023153085,344.7292239369571L339.5571291643534,337.32204925176006L341.77695601339843,346.28907519079036L343.9967828624434,345.2465947001223L346.21660971148845,340.9751290291792L348.4364365605334,347.96027802955047L350.65626340957846,241.8010582375443L352.87609025862344,221.6888048830285L355.09591710766847,349.57828258213414L357.3157439567134,328.1764580199348L359.5355708057584,365.5208644809943L361.7553976548034,337.05666422621283L363.97522450384844,330.4119956072029L366.1950513528934,344.0469060585524L368.41487820193845,266.7043807003551L370.6347050509834,326.9982967677451L372.85453190002846,364.3350096637967L375.07435874907344,323.1689703061635L377.2941855981184,318.3959150033979L379.5140124471634,269.74876247696284L381.73383929620843,340.80204894827483L383.9536661452534,360.2964725510575L386.17349299429844,348.9200522910332L388.3933198433434,347.30930514560964L390.61314669238845,358.83534457212716L392.83297354143343,355.2411493469503L395.0528003904784,314.4251145015226L397.2726272395234,366.1779216858396L399.4924540885684,342.94726943298633L401.7122809376134,336.1409629856032L403.93210778665843,345.48220587229997L406.1519346357034,315.98902088835575L408.37176148474845,329.92324263590035L410.5915883337934,344.76490132461413L412.8114151828384,317.4744253482302L415.0312420318834,241.88201172831583L417.2510688809284,330.74918615855347L419.4708957299734,351.5993780561797L421.6907225790184,342.31647006555295L423.9105494280634,357.47967599366876L426.13037627710844,341.8531066694785L428.3502031261534,325.8464606412597L430.5700299751984,277.7356136413537L432.7898568242434,299.5134840956513L435.0096836732884,347.8062154036465L437.2295105223334,365.7228390059276L439.4493373713784,326.3704240356834L441.6691642204234,354.26316914348854L443.88899106946843,323.9827695080772L446.1088179185134,324.0592608932846L448.3286447675584,246.99206949949402L450.54847161660336,319.9513349583552L452.7682984656484,363.1078633453827L454.9881253146934,343.4729709731821L457.2079521637384,307.9499248237157L459.4277790127834,360.353881625079L461.6476058618284,365.23811299571935L463.8674327108734,326.5245936742935L466.0872595599184,338.4606741732541L468.30708640896336,365.3970984087802L470.5269132580084,360.9963818590834L472.74674010705337,352.4550954322024L474.9665669560984,306.3278197388023L477.1863938051434,343.3849822076858L479.4062206541884,362.3351091911805L481.6260475032334,339.00513860792216L483.8458743522784,359.4671662351849L486.06570120132335,348.5714697506952L488.2855280503684,335.3035755890143L490.50535489941336,340.32236773592257L492.7251817484584,352.31095742408843L494.9450085975034,349.9971108570135L497.1648354465484,347.7723604748028L499.3846622955934,350.1372715595503L501.60448914463836,348.91155288792015L503.82431599368334,346.40907859086616L506.0441428427284,361.10905164598097L508.26396969177335,332.7345896523004L510.4837965408184,356.5852800100039L512.7036233898634,360.3969282968162L514.9234502389083,327.5949509749046L517.1432770879534,345.85555050427115L519.3631039369983,333.28696329879307L521.5829307860433,319.70556568611977L523.8027576350884,254.86199144700294L526.0225844841334,346.8087191632582L528.2424113331783,339.7409028474129L530.4622381822234,318.16928803432L532.6820650312683,365.7791477542266L534.9018918803133,334.6822727885463L537.1217187293583,337.82207747091604L539.3415455784034,338.21754779057886L541.5613724274483,342.27297264332634L543.7811992764933,350.9845479030271L546.0010261255384,323.65841399584184L548.2208529745834,361.3912413145488L550.4406798236283,340.8625419339181L552.6605066726734,337.87767867876613L554.8803335217184,342.14027850914806L557.1001603707634,347.88075137486044L559.3199872198084,326.60920829673785L561.5398140688534,365.08823784996895L563.7596409178984,334.4500033313278L565.9794677669433,328.12561077048366L568.1992946159883,346.93515143272407L570.4191214650333,280.85703808074584L572.6389483140783,314.4507164807584L574.8587751631234,333.73147786594944L577.0786020121683,325.2738032227442L579.2984288612133,314.3962470133457L581.5182557102584,346.708440150605L583.7380825593034,322.52256167627894L585.9579094083483,332.79511344463174L588.1777362573933,320.34420130216915L590.3975631064384,340.688049609574L592.6173899554834,325.32920337641923L594.8372168045283,293.86686461601124L597.0570436535734,365.7857817313034L599.2768705026184,329.7673607939925L601.4966973516633,343.3364795093414L603.7165242007082,342.03519851736144L605.9363510497533,263.5822817566335L608.1561778987983,348.6552039504211L610.3760047478434,331.327421209024L612.5958315968883,361.9626129591862L614.8156584459333,323.17086410678075L617.0354852949783,313.312662293697L619.2553121440234,352.36421245942716L621.4751389930683,365.90250320571613L623.6949658421133,348.5916821809139L625.9147926911584,347.75263122316625L628.1346195402034,324.4866696415089L630.3544463892483,345.38675215984983L632.5742732382934,342.2719981791388L634.7941000873384,340.0049745352033L637.0139269363833,365.9606228603203L639.2337537854282,337.95665405587914L641.4535806344733,334.0617320482582L643.6734074835183,337.4901337849744L645.8932343325633,336.5869562737895L648.1130611816083,344.4454132691024L650.3328880306533,335.95513704283877L652.5527148796983,365.51816322086717L654.7725417287434,348.9713097558577L656.9923685777883,337.4640972692956L659.2121954268333,327.2676963911763L661.4320222758784,330.9104770063341L663.6518491249234,351.6601077669001L665.8716759739683,320.50209692863757L668.0915028230133,337.6939832616961L670.3113296720584,342.9648535662866L672.5311565211033,344.67527980464723L674.7509833701482,326.1044326048015L676.9708102191933,284.21898168415515L679.1906370682383,308.22988303415036L681.4104639172833,328.91693730411316L683.6302907663282,365.92050647211533L685.8501176153733,360.7590090307664L688.0699444644183,322.67057970569203L690.2897713134633,342.8275141078202L692.5095981625083,347.19264508189764L694.7294250115533,345.7328571939007L696.9492518605983,356.019387902341L699.1690787096434,305.5180708056746L701.3889055586883,263.59101788482366L703.6087324077333,325.54033944558455L705.8285592567784,366.30670793082663L708.0483861058233,350.4509420152205L710.2682129548682,338.54929366515466L712.4880398039132,346.7815719854023L714.7078666529583,327.5729971561046L716.9276935020033,331.88284309623634L719.1475203510482,365.63297812610097L721.3673472000933,250.5259144226358L723.5871740491383,347.22708209500644L725.8070008981833,345.03031391404016L728.0268277472283,363.13590148508723L730.2466545962733,320.8708886563849L732.4664814453183,334.6163659328164L734.6863082943634,326.4449243359953L736.9061351434083,275.1117917997789L739.1259619924533,318.4463601444987L741.3457888414983,362.3234569667487L743.5656156905434,358.73239348463034L745.7854425395882,357.21222367720793L748.0052693886332,339.20693214356277L750.2250962376783,308.4150993287709L752.4449230867233,275.5957875698732L754.6647499357682,337.8134224129578L756.8845767848132,361.34232718477745L759.1044036338583,342.8309044649185L761.3242304829033,329.9229410546377L763.5440573319482,331.1341400477335L765.7638841809933,361.45472903455857L767.9837110300383,312.19950963906757L770.2035378790833,292.6048799868405L772.4233647281283,358.15882321530364L774.6431915771733,347.3801799851507L776.8630184262183,290.1830267926072L779.0828452752634,315.0622746393514L781.3026721243082,303.4316927166848L783.5224989733532,366.51011922294487L785.7423258223982,337.76227033943474L787.9621526714433,331.2540623775774L790.1819795204882,345.15398655281206L792.4018063695332,308.22348821425766L794.6216332185783,329.8668209973034L796.8414600676233,339.2713635210719L799.0612869166682,342.5622052882909L801.2811137657133,284.4682953469295L803.5009406147583,365.14450890061016L805.7207674638033,291.01526785087475L807.9405943128482,343.5791664913598L810.1604211618933,338.615969066683L812.3802480109383,363.80536689427686L814.6000748599834,286.3311595637466L816.8199017090282,354.95932084626565L819.0397285580732,306.78139795788564L821.2595554071182,355.5840610245665L823.4793822561633,342.3015661141194L825.6992091052082,315.1183136264537L827.9190359542532,280.87090433321094L830.1388628032983,335.34552456981146L832.3586896523433,344.76162770864977L834.5785165013882,340.64858137787314L836.7983433504332,329.25872615901744L839.0181701994783,360.34433641597445L841.2379970485233,353.917156529502L843.4578238975682,343.37019986160016L845.6776507466133,326.171004236433L847.8974775956583,360.8541684582748L850.1173044447033,276.56783262165715L852.3371312937481,337.8094953709243L854.5569581427932,313.6813437659289L856.7767849918382,320.5945786063861L858.9966118408832,339.2498993664726L861.2164386899282,354.9067686898376L863.4362655389732,318.8522204250826L865.6560923880182,318.0999859572779L867.8759192370633,335.64895747659665L870.0957460861082,340.2284819217574L872.3155729351532,316.4029914349394L874.5353997841983,318.6843953166104L876.7552266332433,344.5491329023976L878.9750534822882,366.5451750045987L881.1948803313333,320.67960506560854L883.4147071803783,364.913395302223L885.6345340294233,342.3562447427304L887.8543608784681,351.21240227541597L890.0741877275132,319.9511079617058L892.2940145765582,351.7649380623725L894.5138414256032,363.47023958032827L896.7336682746482,342.36127433991777L898.9534951236932,340.37728795382463L901.1733219727382,360.60237728921345L903.3931488217833,321.07946614903136L905.6129756708282,340.23060596183336L907.8328025198732,349.74450250001456L910.0526293689182,340.05579259937093L912.2724562179633,329.0613979717502L914.4922830670082,344.2529638883912L916.7121099160532,314.93668387889267L918.9319367650983,347.2264124548909L921.1517636141433,362.8230952380892L923.3715904631881,336.71479754388594L925.5914173122331,250.11303994558753L927.8112441612782,364.91638436167335L930.0310710103232,362.70819034489796L932.2508978593681,320.4572261766825L934.4707247084132,322.1541363859798L936.6905515574582,307.49607420865317L938.9103784065032,324.19146374185755L941.1302052555482,325.56480319876437L943.3500321045932,349.5980734471469L945.5698589536382,329.9355880108149" style="fill: none;" fill="none"></path></g></g></g></g></g></g><g transform="translate(61, 378)" clip-path="url(#clip_1)"><clipPath id="clip_1"><rect width="1050" height="22"></rect></clipPath><g><g><line x1="57.63911933563855" y1="0" x2="57.63911933563855" y2="5" style="visibility: inherit;" fill="rgb(0, 0, 0)" stroke="rgb(204, 204, 204)" stroke-width="1px"></line><line x1="146.4321932974385" y1="0" x2="146.4321932974385" y2="5" style="visibility: inherit;" fill="rgb(0, 0, 0)" stroke="rgb(204, 204, 204)" stroke-width="1px"></line><line x1="235.22526725923848" y1="0" x2="235.22526725923848" y2="5" style="visibility: inherit;" fill="rgb(0, 0, 0)" stroke="rgb(204, 204, 204)" stroke-width="1px"></line><line x1="324.01834122103844" y1="0" x2="324.01834122103844" y2="5" style="visibility: inherit;" fill="rgb(0, 0, 0)" stroke="rgb(204, 204, 204)" stroke-width="1px"></line><line x1="412.8114151828384" y1="0" x2="412.8114151828384" y2="5" style="visibility: inherit;" fill="rgb(0, 0, 0)" stroke="rgb(204, 204, 204)" stroke-width="1px"></line><line x1="501.60448914463836" y1="0" x2="501.60448914463836" y2="5" style="visibility: inherit;" fill="rgb(0, 0, 0)" stroke="rgb(204, 204, 204)" stroke-width="1px"></line><line x1="590.3975631064384" y1="0" x2="590.3975631064384" y2="5" style="visibility: inherit;" fill="rgb(0, 0, 0)" stroke="rgb(204, 204, 204)" stroke-width="1px"></line><line x1="679.1906370682383" y1="0" x2="679.1906370682383" y2="5" style="visibility: inherit;" fill="rgb(0, 0, 0)" stroke="rgb(204, 204, 204)" stroke-width="1px"></line><line x1="767.9837110300383" y1="0" x2="767.9837110300383" y2="5" style="visibility: inherit;" fill="rgb(0, 0, 0)" stroke="rgb(204, 204, 204)" stroke-width="1px"></line><line x1="856.7767849918382" y1="0" x2="856.7767849918382" y2="5" style="visibility: inherit;" fill="rgb(0, 0, 0)" stroke="rgb(204, 204, 204)" stroke-width="1px"></line><line x1="945.5698589536382" y1="0" x2="945.5698589536382" y2="5" style="visibility: inherit;" fill="rgb(0, 0, 0)" stroke="rgb(204, 204, 204)" stroke-width="1px"></line><line x1="1034.362932915438" y1="0" x2="1034.362932915438" y2="5" style="visibility: inherit;" fill="rgb(0, 0, 0)" stroke="rgb(204, 204, 204)" stroke-width="1px"></line></g><g transform="translate(0, 8)"><text x="57.63911933563855" y="0" dx="0em" dy="0.95em" style="text-anchor: middle; visibility: inherit; font-family: Roboto, sans-serif; font-size: 12px; font-weight: 200;" fill="rgb(50, 49, 63)" stroke="none" stroke-width="1px">0</text><text x="146.4321932974385" y="0" dx="0em" dy="0.95em" style="text-anchor: middle; visibility: inherit; font-family: Roboto, sans-serif; font-size: 12px; font-weight: 200;" fill="rgb(50, 49, 63)" stroke="none" stroke-width="1px">20k</text><text x="235.22526725923848" y="0" dx="0em" dy="0.95em" style="text-anchor: middle; visibility: inherit; font-family: Roboto, sans-serif; font-size: 12px; font-weight: 200;" fill="rgb(50, 49, 63)" stroke="none" stroke-width="1px">40k</text><text x="324.01834122103844" y="0" dx="0em" dy="0.95em" style="text-anchor: middle; visibility: inherit; font-family: Roboto, sans-serif; font-size: 12px; font-weight: 200;" fill="rgb(50, 49, 63)" stroke="none" stroke-width="1px">60k</text><text x="412.8114151828384" y="0" dx="0em" dy="0.95em" style="text-anchor: middle; visibility: inherit; font-family: Roboto, sans-serif; font-size: 12px; font-weight: 200;" fill="rgb(50, 49, 63)" stroke="none" stroke-width="1px">80k</text><text x="501.60448914463836" y="0" dx="0em" dy="0.95em" style="text-anchor: middle; visibility: inherit; font-family: Roboto, sans-serif; font-size: 12px; font-weight: 200;" fill="rgb(50, 49, 63)" stroke="none" stroke-width="1px">100k</text><text x="590.3975631064384" y="0" dx="0em" dy="0.95em" style="text-anchor: middle; visibility: inherit; font-family: Roboto, sans-serif; font-size: 12px; font-weight: 200;" fill="rgb(50, 49, 63)" stroke="none" stroke-width="1px">120k</text><text x="679.1906370682383" y="0" dx="0em" dy="0.95em" style="text-anchor: middle; visibility: inherit; font-family: Roboto, sans-serif; font-size: 12px; font-weight: 200;" fill="rgb(50, 49, 63)" stroke="none" stroke-width="1px">140k</text><text x="767.9837110300383" y="0" dx="0em" dy="0.95em" style="text-anchor: middle; visibility: inherit; font-family: Roboto, sans-serif; font-size: 12px; font-weight: 200;" fill="rgb(50, 49, 63)" stroke="none" stroke-width="1px">160k</text><text x="856.7767849918382" y="0" dx="0em" dy="0.95em" style="text-anchor: middle; visibility: inherit; font-family: Roboto, sans-serif; font-size: 12px; font-weight: 200;" fill="rgb(50, 49, 63)" stroke="none" stroke-width="1px">180k</text><text x="945.5698589536382" y="0" dx="0em" dy="0.95em" style="text-anchor: middle; visibility: inherit; font-family: Roboto, sans-serif; font-size: 12px; font-weight: 200;" fill="rgb(50, 49, 63)" stroke="none" stroke-width="1px">200k</text><text x="1034.362932915438" y="0" dx="0em" dy="0.95em" style="text-anchor: middle; visibility: inherit; font-family: Roboto, sans-serif; font-size: 12px; font-weight: 200;" fill="rgb(50, 49, 63)" stroke="none" stroke-width="1px">220k</text></g><line x1="0" y1="0" x2="1050.646875" y2="0" fill="rgb(0, 0, 0)" stroke="rgb(204, 204, 204)" stroke-width="1px"></line></g></g></g></g></svg>