<svg viewBox="0 0 1112.5999755859375 400" xmlns="http://www.w3.org/2000/svg"><g><g><g><g><g><line x1="30.78125" y1="360.7918979495091" x2="25.78125" y2="360.7918979495091" style="visibility: inherit;" fill="rgb(0, 0, 0)" stroke="rgb(204, 204, 204)" stroke-width="1px"></line><line x1="30.78125" y1="334.3469886021911" x2="25.78125" y2="334.3469886021911" style="visibility: inherit;" fill="rgb(0, 0, 0)" stroke="rgb(204, 204, 204)" stroke-width="1px"></line><line x1="30.78125" y1="307.9020792548731" x2="25.78125" y2="307.9020792548731" style="visibility: inherit;" fill="rgb(0, 0, 0)" stroke="rgb(204, 204, 204)" stroke-width="1px"></line><line x1="30.78125" y1="281.4571699075551" x2="25.78125" y2="281.4571699075551" style="visibility: inherit;" fill="rgb(0, 0, 0)" stroke="rgb(204, 204, 204)" stroke-width="1px"></line><line x1="30.78125" y1="255.01226056023714" x2="25.78125" y2="255.01226056023714" style="visibility: inherit;" fill="rgb(0, 0, 0)" stroke="rgb(204, 204, 204)" stroke-width="1px"></line><line x1="30.78125" y1="228.56735121291916" x2="25.78125" y2="228.56735121291916" style="visibility: inherit;" fill="rgb(0, 0, 0)" stroke="rgb(204, 204, 204)" stroke-width="1px"></line><line x1="30.78125" y1="202.12244186560116" x2="25.78125" y2="202.12244186560116" style="visibility: inherit;" fill="rgb(0, 0, 0)" stroke="rgb(204, 204, 204)" stroke-width="1px"></line><line x1="30.78125" y1="175.67753251828316" x2="25.78125" y2="175.67753251828316" style="visibility: inherit;" fill="rgb(0, 0, 0)" stroke="rgb(204, 204, 204)" stroke-width="1px"></line><line x1="30.78125" y1="149.2326231709652" x2="25.78125" y2="149.2326231709652" style="visibility: inherit;" fill="rgb(0, 0, 0)" stroke="rgb(204, 204, 204)" stroke-width="1px"></line><line x1="30.78125" y1="122.78771382364718" x2="25.78125" y2="122.78771382364718" style="visibility: inherit;" fill="rgb(0, 0, 0)" stroke="rgb(204, 204, 204)" stroke-width="1px"></line><line x1="30.78125" y1="96.34280447632918" x2="25.78125" y2="96.34280447632918" style="visibility: inherit;" fill="rgb(0, 0, 0)" stroke="rgb(204, 204, 204)" stroke-width="1px"></line><line x1="30.78125" y1="69.89789512901119" x2="25.78125" y2="69.89789512901119" style="visibility: inherit;" fill="rgb(0, 0, 0)" stroke="rgb(204, 204, 204)" stroke-width="1px"></line><line x1="30.78125" y1="43.452985781693194" x2="25.78125" y2="43.452985781693194" style="visibility: inherit;" fill="rgb(0, 0, 0)" stroke="rgb(204, 204, 204)" stroke-width="1px"></line><line x1="30.78125" y1="17.008076434375198" x2="25.78125" y2="17.008076434375198" style="visibility: inherit;" fill="rgb(0, 0, 0)" stroke="rgb(204, 204, 204)" stroke-width="1px"></line></g><g transform="translate(20.78125, 0)"><text x="0" y="360.7918979495091" dx="0em" dy="0.3em" style="text-anchor: end; visibility: inherit; font-family: Roboto, sans-serif; font-size: 12px; font-weight: 200;" fill="rgb(50, 49, 63)" stroke="none" stroke-width="1px">14</text><text x="0" y="334.3469886021911" dx="0em" dy="0.3em" style="text-anchor: end; visibility: inherit; font-family: Roboto, sans-serif; font-size: 12px; font-weight: 200;" fill="rgb(50, 49, 63)" stroke="none" stroke-width="1px">16</text><text x="0" y="307.9020792548731" dx="0em" dy="0.3em" style="text-anchor: end; visibility: inherit; font-family: Roboto, sans-serif; font-size: 12px; font-weight: 200;" fill="rgb(50, 49, 63)" stroke="none" stroke-width="1px">18</text><text x="0" y="281.4571699075551" dx="0em" dy="0.3em" style="text-anchor: end; visibility: inherit; font-family: Roboto, sans-serif; font-size: 12px; font-weight: 200;" fill="rgb(50, 49, 63)" stroke="none" stroke-width="1px">20</text><text x="0" y="255.01226056023714" dx="0em" dy="0.3em" style="text-anchor: end; visibility: inherit; font-family: Roboto, sans-serif; font-size: 12px; font-weight: 200;" fill="rgb(50, 49, 63)" stroke="none" stroke-width="1px">22</text><text x="0" y="228.56735121291916" dx="0em" dy="0.3em" style="text-anchor: end; visibility: inherit; font-family: Roboto, sans-serif; font-size: 12px; font-weight: 200;" fill="rgb(50, 49, 63)" stroke="none" stroke-width="1px">24</text><text x="0" y="202.12244186560116" dx="0em" dy="0.3em" style="text-anchor: end; visibility: inherit; font-family: Roboto, sans-serif; font-size: 12px; font-weight: 200;" fill="rgb(50, 49, 63)" stroke="none" stroke-width="1px">26</text><text x="0" y="175.67753251828316" dx="0em" dy="0.3em" style="text-anchor: end; visibility: inherit; font-family: Roboto, sans-serif; font-size: 12px; font-weight: 200;" fill="rgb(50, 49, 63)" stroke="none" stroke-width="1px">28</text><text x="0" y="149.2326231709652" dx="0em" dy="0.3em" style="text-anchor: end; visibility: inherit; font-family: Roboto, sans-serif; font-size: 12px; font-weight: 200;" fill="rgb(50, 49, 63)" stroke="none" stroke-width="1px">30</text><text x="0" y="122.78771382364718" dx="0em" dy="0.3em" style="text-anchor: end; visibility: inherit; font-family: Roboto, sans-serif; font-size: 12px; font-weight: 200;" fill="rgb(50, 49, 63)" stroke="none" stroke-width="1px">32</text><text x="0" y="96.34280447632918" dx="0em" dy="0.3em" style="text-anchor: end; visibility: inherit; font-family: Roboto, sans-serif; font-size: 12px; font-weight: 200;" fill="rgb(50, 49, 63)" stroke="none" stroke-width="1px">34</text><text x="0" y="69.89789512901119" dx="0em" dy="0.3em" style="text-anchor: end; visibility: inherit; font-family: Roboto, sans-serif; font-size: 12px; font-weight: 200;" fill="rgb(50, 49, 63)" stroke="none" stroke-width="1px">36</text><text x="0" y="43.452985781693194" dx="0em" dy="0.3em" style="text-anchor: end; visibility: inherit; font-family: Roboto, sans-serif; font-size: 12px; font-weight: 200;" fill="rgb(50, 49, 63)" stroke="none" stroke-width="1px">38</text><text x="0" y="17.008076434375198" dx="0em" dy="0.3em" style="text-anchor: end; visibility: inherit; font-family: Roboto, sans-serif; font-size: 12px; font-weight: 200;" fill="rgb(50, 49, 63)" stroke="none" stroke-width="1px">40</text></g><line x1="30.78125" y1="0" x2="30.78125" y2="378" fill="rgb(0, 0, 0)" stroke="rgb(204, 204, 204)" stroke-width="1px"></line></g></g><g transform="translate(30, 0)" clip-path="url(#clip_0)"><clipPath id="clip_0"><rect width="1081" height="378"></rect></clipPath><g><g><g><line x1="31.613326752809492" y1="0" x2="31.613326752809492" y2="378" fill="rgb(0, 0, 0)" stroke="rgb(60, 60, 60)" stroke-width="1px" opacity="0.25"></line><line x1="134.53251656024577" y1="0" x2="134.53251656024577" y2="378" fill="rgb(0, 0, 0)" stroke="rgb(60, 60, 60)" stroke-width="1px" opacity="0.25"></line><line x1="237.45170636768202" y1="0" x2="237.45170636768202" y2="378" fill="rgb(0, 0, 0)" stroke="rgb(60, 60, 60)" stroke-width="1px" opacity="0.25"></line><line x1="340.37089617511833" y1="0" x2="340.37089617511833" y2="378" fill="rgb(0, 0, 0)" stroke="rgb(60, 60, 60)" stroke-width="1px" opacity="0.25"></line><line x1="443.29008598255456" y1="0" x2="443.29008598255456" y2="378" fill="rgb(0, 0, 0)" stroke="rgb(60, 60, 60)" stroke-width="1px" opacity="0.25"></line><line x1="546.2092757899909" y1="0" x2="546.2092757899909" y2="378" fill="rgb(0, 0, 0)" stroke="rgb(60, 60, 60)" stroke-width="1px" opacity="0.25"></line><line x1="649.1284655974272" y1="0" x2="649.1284655974272" y2="378" fill="rgb(0, 0, 0)" stroke="rgb(60, 60, 60)" stroke-width="1px" opacity="0.25"></line><line x1="752.0476554048633" y1="0" x2="752.0476554048633" y2="378" fill="rgb(0, 0, 0)" stroke="rgb(60, 60, 60)" stroke-width="1px" opacity="0.25"></line><line x1="854.9668452122996" y1="0" x2="854.9668452122996" y2="378" fill="rgb(0, 0, 0)" stroke="rgb(60, 60, 60)" stroke-width="1px" opacity="0.25"></line><line x1="957.8860350197359" y1="0" x2="957.8860350197359" y2="378" fill="rgb(0, 0, 0)" stroke="rgb(60, 60, 60)" stroke-width="1px" opacity="0.25"></line><line x1="1060.8052248271722" y1="0" x2="1060.8052248271722" y2="378" fill="rgb(0, 0, 0)" stroke="rgb(60, 60, 60)" stroke-width="1px" opacity="0.25"></line></g><g><line x1="0" y1="360.7918979495091" x2="1081.81875" y2="360.7918979495091" fill="rgb(0, 0, 0)" stroke="rgb(60, 60, 60)" stroke-width="1px" opacity="0.25"></line><line x1="0" y1="334.3469886021911" x2="1081.81875" y2="334.3469886021911" fill="rgb(0, 0, 0)" stroke="rgb(60, 60, 60)" stroke-width="1px" opacity="0.25"></line><line x1="0" y1="307.9020792548731" x2="1081.81875" y2="307.9020792548731" fill="rgb(0, 0, 0)" stroke="rgb(60, 60, 60)" stroke-width="1px" opacity="0.25"></line><line x1="0" y1="281.4571699075551" x2="1081.81875" y2="281.4571699075551" fill="rgb(0, 0, 0)" stroke="rgb(60, 60, 60)" stroke-width="1px" opacity="0.25"></line><line x1="0" y1="255.01226056023714" x2="1081.81875" y2="255.01226056023714" fill="rgb(0, 0, 0)" stroke="rgb(60, 60, 60)" stroke-width="1px" opacity="0.25"></line><line x1="0" y1="228.56735121291916" x2="1081.81875" y2="228.56735121291916" fill="rgb(0, 0, 0)" stroke="rgb(60, 60, 60)" stroke-width="1px" opacity="0.25"></line><line x1="0" y1="202.12244186560116" x2="1081.81875" y2="202.12244186560116" fill="rgb(0, 0, 0)" stroke="rgb(60, 60, 60)" stroke-width="1px" opacity="0.25"></line><line x1="0" y1="175.67753251828316" x2="1081.81875" y2="175.67753251828316" fill="rgb(0, 0, 0)" stroke="rgb(60, 60, 60)" stroke-width="1px" opacity="0.25"></line><line x1="0" y1="149.2326231709652" x2="1081.81875" y2="149.2326231709652" fill="rgb(0, 0, 0)" stroke="rgb(60, 60, 60)" stroke-width="1px" opacity="0.25"></line><line x1="0" y1="122.78771382364718" x2="1081.81875" y2="122.78771382364718" fill="rgb(0, 0, 0)" stroke="rgb(60, 60, 60)" stroke-width="1px" opacity="0.25"></line><line x1="0" y1="96.34280447632918" x2="1081.81875" y2="96.34280447632918" fill="rgb(0, 0, 0)" stroke="rgb(60, 60, 60)" stroke-width="1px" opacity="0.25"></line><line x1="0" y1="69.89789512901119" x2="1081.81875" y2="69.89789512901119" fill="rgb(0, 0, 0)" stroke="rgb(60, 60, 60)" stroke-width="1px" opacity="0.25"></line><line x1="0" y1="43.452985781693194" x2="1081.81875" y2="43.452985781693194" fill="rgb(0, 0, 0)" stroke="rgb(60, 60, 60)" stroke-width="1px" opacity="0.25"></line><line x1="0" y1="17.008076434375198" x2="1081.81875" y2="17.008076434375198" fill="rgb(0, 0, 0)" stroke="rgb(60, 60, 60)" stroke-width="1px" opacity="0.25"></line></g></g></g><g><g><line x1="0" y1="545.9062633807351" x2="1081.81875" y2="545.9062633807351" fill="rgb(0, 0, 0)" stroke="rgb(153, 153, 153)" stroke-width="1.5px"></line></g></g><g><g><line x1="31.613326752809492" y1="0" x2="31.613326752809492" y2="378" fill="rgb(0, 0, 0)" stroke="rgb(153, 153, 153)" stroke-width="1.5px"></line></g></g><g><g><g><g><g><path stroke="rgb(255, 112, 67)" stroke-width="2px" d="M34.186306497995396,396.27833575176356L36.7592862431813,365.4517673813233L39.33226598836721,349.3348577210566L41.905245733553116,325.4338279869315L44.478225478739034,330.22105454122675L47.05120522392494,313.3638652739271L49.62418496911084,295.03928659667815L52.197164714296754,291.7049624673889L54.77014445948266,265.8364672928339L57.34312420466857,302.2095996261145L59.916103949854474,272.2265867550558L62.48908369504038,262.81103469435305L65.06206344022628,254.15231585543043L67.6350431854122,251.54513452978935L70.20802293059809,249.39204664739836L72.78100267578401,216.45912808404904L75.35398242096991,209.28243157480043L77.92696216615582,224.1839302888929L80.49994191134172,269.1719325925762L83.07292165652764,200.84404155142815L85.64590140171354,249.30464772843473L88.21888114689945,215.52324955477957L90.79186089208535,224.26810658085023L93.36484063727127,221.9586676042699L95.93782038245716,220.49233508792346L98.51080012764308,211.7664279263103L101.08377987282898,220.11666924486025L103.65675961801489,203.63544151952433L106.22973936320079,227.84061876766268L108.80271910838671,211.40559845331885L111.37569885357262,223.5718721344525L113.94867859875852,164.44622976343757L116.52165834394442,187.89821333140696L119.09463808913033,205.57917802053842L121.66761783431623,169.474062190202L124.24059757950214,169.81388316756892L126.81357732468805,189.58185784405205L129.38655706987396,201.5456202164971L131.95953681505986,208.50994284153398L134.53251656024577,207.5398574999575L137.10549630543167,212.861455973082L139.67847605061758,203.39305117462538L142.25145579580348,234.0776525980458L144.8244355409894,246.89759055517507L147.39741528617532,216.4317878519845L149.97039503136122,212.4416001019201L152.5433747765471,201.12063577442402L155.11635452173303,194.0694025929472L157.68933426691893,192.54657644948261L160.26231401210484,198.28640680056546L162.83529375729074,202.9091807841834L165.40827350247667,186.60139001444838L167.98125324766255,192.78222025997246L170.55423299284845,187.2540360640368L173.12721273803436,203.51139637690974L175.7001924832203,209.231981324553L178.2731722284062,213.9587048034552L180.8461519735921,205.51470550082635L183.419131718778,249.08325668836093L185.9921114639639,212.51253408910787L188.5650912091498,195.176704391902L191.13807095433572,200.6105668658203L193.71105069952162,168.62070308603433L196.28403044470755,189.12397885506257L198.85701018989346,187.28944226956685L201.42998993507936,129.97326340952839L204.00296968026524,156.7653222679566L206.57594942545117,179.100533203777L209.14892917063708,209.75635178569448L211.72190891582298,170.6287856470951L214.29488866100888,161.0585313069697L216.8678684061948,163.67941584189333L219.4408481513807,194.14154525701716L222.0138278965666,204.11420498325995L224.5868076417525,203.03217265795715L227.1597873869384,219.99167118065978L229.73276713212434,228.8006572211709L232.30574687731024,206.55077524350784L234.87872662249615,180.0640883684597L237.45170636768202,189.63547012602078L240.02468611286795,169.7298522671649L242.59766585805386,191.13805342244044L245.17064560323976,211.3447940580212L247.74362534842567,195.74284238862356L250.3166050936116,174.6943982564759L252.8895848387975,134.14803826552156L255.46256458398338,153.7256275463135L258.0355443291693,159.66947129102815L260.6085240743552,158.6948057633008L263.1815038195411,161.00810800036578L265.754483564727,178.7415862852309L268.3274633099129,151.15682303186887L270.90044305509883,174.36704599224578L273.4734228002847,179.2886711879838L276.04640254547064,192.86623646761865L278.6193822906566,191.16093117820702L281.19236203584245,173.86320957799717L283.7653417810284,176.81770599720713L286.3383215262143,175.84695029776847L288.9113012714002,171.3528103227744L291.4842810165861,160.96331957671615L294.057260761772,164.37664420808923L296.6302405069579,201.3277651148361L299.2032202521438,160.69066828644685L301.7761999973297,157.98770968487952L304.3491797425156,142.92088962324888L306.9221594877015,120.79876693075224L309.4951392328874,95.77656274229719L312.06811897807336,99.99447092050575L314.64109872325923,143.4411329700469L317.21407846844517,173.35929045577493L319.7870582136311,206.31354301990214L322.360037958817,198.4869139050494L324.9330177040029,199.34013652025212L327.5059974491888,198.50432232905823L330.0789771943747,128.4464899062973L332.6519569395606,151.6344595077364L335.22493668474647,167.6735857346708L337.7979164299324,172.96858190303647L340.37089617511833,171.10871533957584L342.9438759203042,164.75242727797124L345.51685566549014,178.7289349651065L348.089835410676,115.31554479338087L350.66281515586195,131.3953406173276L353.2357949010479,146.62282322387568L355.80877464623376,155.72980558571683L358.3817543914197,164.99537001803986L360.9547341366056,160.21185428956863L363.5277138817915,158.22329899567976L366.1006936269774,164.90017544120545L368.67367337216325,144.77451449450623L371.2466531173492,191.11778934571183L373.8196328625351,225.045757226616L376.392612607721,190.60059203764249L378.9655923529069,181.16212829896665L381.53857209809286,112.7623400787105L384.11155184327873,131.3404020500191L386.68453158846467,154.89594075651104L389.25751133365054,158.0541282574117L391.8304910788365,191.512123104392L394.4034708240224,193.22844678749394L396.9764505692083,124.18202558422L399.5494303143942,153.90335084675993L402.12241005958003,156.436101841542L404.69538980476597,190.7196013710065L407.2683695499519,184.62514719057867L409.8413492951378,148.99843505744735L412.4143290403237,135.32926526973003L414.98730878550964,139.850391287223L417.5602885306955,124.94188029546521L420.13326827588145,119.09713829748256L422.7062480210673,146.17471486525633L425.27922776625326,90.80344792466876L427.8522075114392,112.01832817732118L430.42518725662507,137.63675879576618L432.998167001811,135.06828568379896L435.5711467469969,164.72859143702289L438.14412649218275,169.62549721566847L440.7171062373687,152.80048340734018L443.29008598255456,169.12680897178794L445.8630657277405,206.7301411182883L448.4360454729264,187.14498103382488L451.0090252181123,168.33531837473475L453.58200496329823,160.2851847248659L456.15498470848416,138.42406197444583L458.72796445367004,141.73734143635122L461.300944198856,164.7232091312788L463.87392394404185,194.61645180592132L466.4469036892278,203.26899785281094L469.01988343441366,180.51507655012438L471.59286317959953,118.90889001497956L474.16584292478547,139.89925987723788L476.7388226699714,132.8356929723443L479.3118024151573,152.20503953603608L481.8847821603432,154.40418576908007L484.4577619055291,194.98933606419666L487.030741650715,187.55419883151703L489.60372139590095,135.22868199475303L492.1767011410868,149.19112669878425L494.74968088627276,162.6624747792556L497.32266063145863,139.49949701691605L499.89564037664456,92.34292729056527L502.4686201218305,123.58040625048909L505.0415998670163,128.8957144539233L507.61457961220225,80.05337205257099L510.1875593573882,84.00461103905097L512.7605391025741,109.59794616715459L515.33351884776,141.3873806928306L517.9064985929459,139.40122166176297L520.4794783381318,116.0334969593483L523.0524580833177,146.7299121853577L525.6254378285036,133.80051028688854L528.1984175736895,141.14881140443936L530.7713973188754,147.5146391019029L533.3443770640613,148.9150697216673L535.9173568092473,143.78048788028735L538.4903365544332,133.32178822923598L541.0633162996191,124.47842297580496L543.6362960448049,132.76709311273382L546.2092757899909,136.33733618089147L548.7822555351768,136.15134864516412L551.3552352803628,114.27595001906887L553.9282150255486,135.54805830771988L556.5011947707344,120.67960904579249L559.0741745159204,110.83916568710814L561.6471542611063,144.11083006904389L564.2201340062923,146.06796906005087L566.7931137514781,154.90309888742433L569.366093496664,174.3413446342952L571.9390732418499,205.37851921458613L574.5120529870359,179.7401418863273L577.0850327322217,179.0995996318096L579.6580124774077,180.51750356709232L582.2309922225935,120.55774592763478L584.8039719677795,147.48326664055898L587.3769517129654,159.52359041258111L589.9499314581512,169.42463769746553L592.5229112033372,162.77852262686156L595.0958909485231,152.87916382769447L597.668870693709,169.8570912984503L600.2418504388949,132.56578109228113L602.8148301840808,139.88872783438921L605.3878099292667,137.6847561083601L607.9607896744527,144.27483271387854L610.5337694196385,145.0567888811966L613.1067491648245,156.33247851555737L615.6797289100103,100.87454710785597L618.2527086551963,123.59127289821468L620.8256884003822,149.35255140512086L623.398668145568,139.66363396771786L625.971647890754,177.36080675721405L628.5446276359398,176.12354129223542L631.1176073811258,175.39574898754384L633.6905871263117,182.24604108919863L636.2635668714977,186.68825055515433L638.8365466166834,170.05987097847887L641.4095263618694,182.70275162703837L643.9825061070553,182.94994302159407L646.5554858522413,184.40532098752513L649.1284655974272,167.6074258997586L651.701445342613,182.27632375446478L654.2744250877989,197.86546897175688L656.8474048329849,121.29814993866654L659.4203845781708,147.5805043506262L661.9933643233567,142.5898298969462L664.5663440685425,139.89728642407903L667.1393238137284,182.34657512252343L669.7123035589144,150.42423676362748L672.2852833041003,165.68046831418548L674.8582630492862,133.6505261138648L677.431242794472,154.42796419840647L680.004222539658,180.81223281089515L682.5772022848438,160.76280292254498L685.1501820300298,105.61089616534231L687.7231617752157,117.45178608452748L690.2961415204015,120.6914112229575L692.8691212655875,152.11585713171507L695.4421010107734,157.90637992548594L698.0150807559593,157.70874675842282L700.5880605011452,173.01874136684134L703.1610402463311,107.36256987720601L705.734019991517,136.13806975537506L708.306999736703,152.39032942899317L710.8799794818888,150.42270573131762L713.4529592270748,157.38850004096233L716.0259389722606,141.39055840978614L718.5989187174466,148.53591502003047L721.1718984626325,92.89446559084928L723.7448782078183,98.9355153817472L726.3178579530042,129.93376983047645L728.8908376981901,150.097512124275L731.4638174433761,162.0072543968921L734.036797188562,148.59037296786116L736.609776933748,164.62586854608006L739.1827566789337,165.7075899381028L741.7557364241197,162.3731908431999L744.3287161693056,155.97607915450712L746.9016959144916,163.8586780864851L749.4746756596775,195.65662136318855L752.0476554048633,194.0927237607656L754.6206351500492,186.88306065466858L757.1936148952352,117.48004154435948L759.7665946404211,109.51594480124069L762.339574385607,135.54951245133577L764.9125541307928,141.18086490271617L767.4855338759787,146.7774074186625L770.0585136211647,146.24218799253603L772.6314933663506,126.27843976484756L775.2044731115366,152.4798269397781L777.7774528567223,189.98827286971235L780.3504326019083,178.2440434583526L782.9234123470942,110.23988340569674L785.4963920922802,112.28168339859538L788.0693718374661,130.20582218953217L790.642351582652,118.61761345016909L793.2153313278378,142.25633293266836L795.7883110730237,162.57049541246764L798.3612908182097,113.84495036220594L800.9342705633956,171.71582207278726L803.5072503085815,162.48920863708767L806.0802300537673,155.443601677197L808.6532097989533,105.41500710167566L811.2261895441392,140.84069862266097L813.7991692893252,154.787981568738L816.372149034511,165.4458681080173L818.9451287796969,198.81907020817562L821.5181085248828,200.03789521479783L824.0910882700688,141.02059641567115L826.6640680152547,108.55107134714358L829.2370477604405,112.44281307035287L831.8100275056265,138.04366654262856L834.3830072508123,161.53532446434656L836.9559869959983,195.94048453597193L839.5289667411841,176.62188095615338L842.1019464863701,143.46675464321282L844.674926231556,143.1729173184091L847.2479059767419,151.90719476601873L849.8208857219278,166.98136671011045L852.3938654671138,137.87010181293283L854.9668452122996,157.64413547523029L857.5398249574856,180.0638820913702L860.1128047026714,147.74645823111297L862.6857844478573,135.01492699588078L865.2587641930432,172.43241634603964L867.8317439382291,177.3308761300561L870.4047236834151,191.99701193611503L872.9777034286009,119.91319538978763L875.5506831737869,132.66833161946147L878.1236629189727,152.17661020946815L880.6966426641587,145.86194769767667L883.2696224093446,159.50038620573102L885.8426021545306,172.24713910874414L888.4155818997164,173.84086781842484L890.9885616449023,171.040540624459L893.5615413900882,195.15953519439418L896.1345211352741,120.51675043966404L898.7075008804601,165.4786218274068L901.2804806256459,159.92975908404773L903.8534603708318,152.53820258049362L906.4264401160177,117.3030256873652L908.9994198612037,153.13734075495688L911.5723996063896,143.69628425693867L914.1453793515755,178.31149310305526L916.7183590967613,155.75949608842743L919.2913388419473,163.37111104546614L921.8643185871332,170.77255698413686L924.4372983323192,197.68860137665533L927.0102780775051,183.14629915068025L929.5832578226908,162.7231128832256L932.1562375678768,170.95022575135093L934.7292173130627,182.76552514882437L937.3021970582487,147.58040720369289L939.8751768034346,134.03377250003192L942.4481565486204,133.5994238907021L945.0211362938063,156.95982934899692L947.5941160389923,128.19721701655627L950.1670957841782,172.14916769340408L952.7400755293642,168.24567638331064L955.3130552745499,177.50345288198983L957.8860350197359,190.12467503202095L960.4590147649218,181.5758634773102L963.0319945101078,150.38039844091963L965.6049742552937,167.61700457930235L968.1779540004794,172.8139310993949L970.7509337456654,166.92295815795168L973.3239134908513,163.10661844289405L975.8968932360373,163.6238725782131L978.4698729812231,173.3590271648779L981.0428527264091,155.50970031850076L983.6158324715949,90.22731576414152L986.1888122167809,136.7418164557702L988.7617919619668,93.6499744813066L991.3347717071528,113.98729962433868L993.9077514523386,128.93854530492314L996.4807311975245,158.60729867852345L999.0537109427104,147.5212419691548L1001.6266906878963,112.22199857028063L1004.1996704330822,133.8007085805401L1006.7726501782681,146.4587135665742L1009.345629923454,121.72154209690834L1011.9186096686399,146.07063441252885L1014.4915894138259,141.21984287068932L1017.0645691590117,143.9359222948654L1019.6375489041977,144.31661331043847L1022.2105286493836,159.2866243241743L1024.7835083945695,151.4866291575377L1027.3564881397554,165.70724085440173L1029.9294678849412,168.240909699303L1032.5024476301273,128.1615346891023L1035.0754273753132,137.33848457337177L1037.6484071204989,189.92680011209882L1040.221386865685,124.95778702476849L1042.7943666108708,100.42264126964407L1045.3673463560567,131.17067939566712L1047.9403261012426,154.6559831943322L1050.5133058464285,177.8235808357224L1053.0862855916143,177.33302804937298L1055.6592653368004,178.46446420657864L1058.2322450819863,154.07616582467188L1060.8052248271722,174.25311051658298" style="fill: none;" fill="none"></path></g></g></g></g><g opacity="0.2"><g><g><g><path stroke="rgb(255, 112, 67)" stroke-width="2px" d="M31.613326752809492,434.104748271717L34.186306497995396,373.58248823979153L36.7592862431813,335.8582617457007L39.33226598836721,330.3813719605829L41.905245733553116,294.2286435660576L44.478225478739034,336.84351226737675L47.05120522392494,289.25781490666014L49.62418496911084,268.3218749692938L52.197164714296754,286.78748203580625L54.77014445948266,227.42476677652135L57.34312420466857,356.439396492835L59.916103949854474,227.41523368046228L62.48908369504038,248.7184500144131L65.06206344022628,241.1812009286452L67.6350431854122,247.6374271851061L70.20802293059809,246.16393334820117L72.78100267578401,167.07368634645113L75.35398242096991,198.51920897339363L77.92696216615582,246.533908266686L80.49994191134172,336.6498239664931L83.07292165652764,98.35595225363893L85.64590140171354,321.9939623770561L88.21888114689945,164.85181924907462L90.79186089208535,237.38528852878784L93.36484063727127,218.49452555390332L95.93782038245716,218.29284256664204L98.51080012764308,198.67758951109545L101.08377987282898,232.6420184030978L103.65675961801489,178.9136151130604L106.22973936320079,264.14837126203656L108.80271910838671,186.75307343183465L111.37569885357262,241.82128023547173L113.94867859875852,75.75777326532946L116.52165834394442,223.0761870035435L119.09463808913033,232.10062429436474L121.66761783431623,115.31638937570611L124.24059757950214,170.32361462836184L126.81357732468805,219.2338196752711L129.38655706987396,219.49126370852898L131.95953681505986,218.95642675581541L134.53251656024577,206.08472948953792L137.10549630543167,220.84385367636668L139.67847605061758,189.19044398377514L142.25145579580348,280.1045547198866L144.8244355409894,266.1274974875375L147.39741528617532,170.73308380194874L149.97039503136122,206.4563184771968L152.5433747765471,184.1391892838154L155.11635452173303,183.49255282096937L157.68933426691893,190.26233723431653L160.26231401210484,206.89615232712018L162.83529375729074,209.8433417595767L165.40827350247667,162.13970385991712L167.98125324766255,202.05346562824218L170.55423299284845,178.961759770142L173.12721273803436,227.89743684620393L175.7001924832203,217.8128587460147L178.2731722284062,221.04879002180684L180.8461519735921,192.8487065468847L183.419131718778,314.4360834696576L185.9921114639639,157.6564501902311L188.5650912091498,169.1729598460939L191.13807095433572,208.76136057669763L193.71105069952162,120.6359074163559L196.28403044470755,219.87889250860474L198.85701018989346,184.5376373913234L201.42998993507936,43.998995119470756L204.00296968026524,196.9534105555989L206.57594942545117,212.60334960750743L209.14892917063708,255.74007965857075L211.72190891582298,111.93743643919635L214.29488866100888,146.7031497967816L216.8678684061948,167.610742644279L219.4408481513807,239.83473937970274L222.0138278965666,219.07319457262417L224.5868076417525,201.40912417000303L227.1597873869384,245.43091896471364L229.73276713212434,242.01413628193754L232.30574687731024,173.1759522770133L234.87872662249615,140.3340580558875L237.45170636768202,203.99254276236238L240.02468611286795,139.87142547888098L242.59766585805386,223.2503551553538L245.17064560323976,241.65490501139237L247.74362534842567,172.3399148845271L250.3166050936116,143.12173205825434L252.8895848387975,73.32849827908994L255.46256458398338,183.09201146750135L258.0355443291693,168.5852369081L260.6085240743552,157.23280747170975L263.1815038195411,164.47806135596312L265.754483564727,205.34180371252864L268.3274633099129,109.77967815182583L270.90044305509883,209.1823804328112L273.4734228002847,186.6711089815909L276.04640254547064,213.23258438707091L278.6193822906566,188.6029732440897L281.19236203584245,147.91662717768247L283.7653417810284,181.249450626022L286.3383215262143,174.3908167486106L288.9113012714002,164.61160036028335L291.4842810165861,145.37908345762872L294.057260761772,169.49663115514872L296.6302405069579,256.75444647495647L299.2032202521438,99.73502304386301L301.7761999973297,153.93327178252846L304.3491797425156,120.32065953080303L306.9221594877015,87.61558289200721L309.4951392328874,58.24325645961453L312.06811897807336,106.32133318781842L314.64109872325923,208.61112604435857L317.21407846844517,218.23652668436688L319.7870582136311,255.74492186609285L322.360037958817,186.74697023277037L324.9330177040029,200.61997044305622L327.5059974491888,197.25060104226728L330.0789771943747,23.359741272155905L332.6519569395606,186.41641390989503L335.22493668474647,191.73227507507244L337.7979164299324,180.91107615558496L340.37089617511833,168.31891549438492L342.9438759203042,155.2179951855643L345.51685566549014,199.6936964958094L348.089835410676,20.195459535792207L350.66281515586195,155.51503435324764L353.2357949010479,169.464047133698L355.80877464623376,169.39027912847862L358.3817543914197,178.89371666652428L360.9547341366056,153.0365806968619L363.5277138817915,155.2404660548465L366.1006936269774,174.91549010949396L368.67367337216325,114.58602307445724L371.2466531173492,260.6327016225203L373.8196328625351,275.9377090479723L376.392612607721,138.93284425418219L378.9655923529069,167.0044326909529L381.53857209809286,10.162657748326223L384.11155184327873,159.207495006982L386.68453158846467,190.2292488162489L389.25751133365054,162.7914095087628L391.8304910788365,241.69911537486232L394.4034708240224,195.80293231214685L396.9764505692083,20.612393779308995L399.5494303143942,198.48533874056986L402.12241005958003,160.23522833371518L404.69538980476597,242.1448506652032L407.2683695499519,175.48346591993683L409.8413492951378,95.5583668577503L412.4143290403237,114.82551058815403L414.98730878550964,146.63208031346255L417.5602885306955,102.5791138078284L420.13326827588145,110.33002530050861L422.7062480210673,186.79107971691693L425.27922776625326,7.746547513787396L427.8522075114392,143.84064855629993L430.42518725662507,176.06440472343365L432.998167001811,131.21557601584817L435.5711467469969,209.21905006685864L438.14412649218275,176.9708558836369L440.7171062373687,127.56296269484768L443.29008598255456,193.6162973184597L445.8630657277405,263.13513933803887L448.4360454729264,157.7672409071298L451.0090252181123,140.1208243860996L453.58200496329823,148.20998425006255L456.15498470848416,105.63237784881579L458.72796445367004,146.7072606292092L461.300944198856,199.20201067367034L463.87392394404185,239.45631581788504L466.4469036892278,216.24781692314522L469.01988343441366,146.3841945960946L471.59286317959953,26.4996102122624L474.16584292478547,171.3848146706253L476.7388226699714,122.24034261500407L479.3118024151573,181.25905938157365L481.8847821603432,157.70290511864619L484.4577619055291,255.86706150687144L487.030741650715,176.4014929824976L489.60372139590095,56.74040673960693L492.1767011410868,170.13479375483112L494.74968088627276,182.8694968999627L497.32266063145863,104.75503037340677L499.89564037664456,21.608072701039163L502.4686201218305,170.43662469037486L505.0415998670163,136.8686767590746L507.61457961220225,6.789858450542441L510.1875593573882,89.93146951877105L512.7605391025741,147.98794885930997L515.33351884776,189.07153248134458L517.9064985929459,136.4219831151616L520.4794783381318,80.98190990572635L523.0524580833177,192.77453502437186L525.6254378285036,114.40640743918465L528.1984175736895,152.17126308076556L530.7713973188754,157.06338064809822L533.3443770640613,151.01571565131383L535.9173568092473,136.0786151182174L538.4903365544332,117.63373875265891L541.0633162996191,111.21337509565853L543.6362960448049,145.20009831812723L546.2092757899909,141.6927007831278L548.7822555351768,135.87236734157332L551.3552352803628,81.46285207992582L553.9282150255486,167.4562207406964L556.5011947707344,98.37693515290134L559.0741745159204,96.0785006490817L561.6471542611063,194.01832664194754L564.2201340062923,149.0036775465613L566.7931137514781,168.15579362848445L569.366093496664,203.49871325460157L571.9390732418499,251.9342810850224L574.5120529870359,141.28257589393897L577.0850327322217,178.13878625003312L579.6580124774077,182.6443594700163L582.2309922225935,30.618109468448342L584.8039719677795,187.87154770994536L587.3769517129654,177.58407607061432L589.9499314581512,184.2762086247921L592.5229112033372,152.8093500209554L595.0958909485231,138.03012562894386L597.668870693709,195.32398250458414L600.2418504388949,76.6288157830274L602.8148301840808,150.87314794755142L605.3878099292667,134.37879851931643L607.9607896744527,154.15994762215638L610.5337694196385,146.22972313217372L613.1067491648245,173.24601296709855L615.6797289100103,17.68764999630382L618.2527086551963,157.66636158375286L620.8256884003822,187.99446916548013L623.398668145568,125.1302578116134L625.971647890754,233.90656594145827L628.5446276359398,174.2676430947674L631.1176073811258,174.30406053050646L633.6905871263117,192.52147924168088L636.2635668714977,193.3515647540878L638.8365466166834,145.11730161346563L641.4095263618694,201.66707259987777L643.9825061070553,183.32073011342766L646.5554858522413,186.58838793642187L649.1284655974272,142.41058326810875L651.701445342613,204.27967053652395L654.2744250877989,221.2491867976951L656.8474048329849,6.447171389031045L659.4203845781708,187.0040359685656L661.9933643233567,135.1038182164263L664.5663440685425,135.85847121477818L667.1393238137284,246.02050817019006L669.7123035589144,102.5407292252835L672.2852833041003,188.56481564002235L674.8582630492862,85.60561281338389L677.431242794472,185.59412132521896L680.004222539658,220.3886357296283L682.5772022848438,130.68865809001971L685.1501820300298,22.88303602953831L687.7231617752157,135.2131209633052L690.2961415204015,125.55084893060257L692.8691212655875,199.25252599485128L695.4421010107734,166.59216411614227L698.0150807559593,157.4122970078281L700.5880605011452,195.98373327946913L703.1610402463311,8.878312642753023L705.734019991517,179.3013195726287L708.306999736703,176.76871893942044L710.8799794818888,147.47127018480427L713.4529592270748,167.83719150542936L716.0259389722606,117.39364596302187L718.5989187174466,159.2539499353971L721.1718984626325,9.432291447077363L723.7448782078183,107.99709006809404L726.3178579530042,176.43115150357042L728.8908376981901,180.34312556497295L731.4638174433761,179.8718678058177L734.036797188562,128.46505082431491L736.609776933748,188.67911191340843L739.1827566789337,167.33017202613695L741.7557364241197,157.37159220084553L744.3287161693056,146.380411621468L746.9016959144916,175.682576484452L749.4746756596775,243.35353627824372L752.0476554048633,191.74687735713124L754.6206351500492,176.06856599552293L757.1936148952352,13.375512878895867L759.7665946404211,97.5697996865626L762.339574385607,174.59986392647843L764.9125541307928,149.62789357978676L767.4855338759787,155.17222119258204L770.0585136211647,145.43935885334645L772.6314933663506,96.33281742331488L775.2044731115366,191.78190770217384L777.7774528567223,246.25094176461377L780.3504326019083,160.62769934131305L782.9234123470942,8.233643326712825L785.4963920922802,115.34438338794322L788.0693718374661,157.09203037593727L790.642351582652,101.23530034112451L793.2153313278378,177.7144121564173L795.7883110730237,193.04173913216647L798.3612908182097,40.756632786813334L800.9342705633956,258.5221296386593L803.5072503085815,148.64928848353816L806.0802300537673,144.87519123736104L808.6532097989533,30.3721152383937L811.2261895441392,193.979235904139L813.7991692893252,175.7089059878534L816.372149034511,181.43269791693618L818.9451287796969,248.87887335841327L821.5181085248828,201.86613272473127L824.0910882700688,52.49464821698102L826.6640680152547,59.84678374435228L829.2370477604405,118.28042565516664L831.8100275056265,176.4449467510422L834.3830072508123,196.77281134692336L836.9559869959983,247.54822464341007L839.5289667411841,147.64397558642554L842.1019464863701,93.73406517380218L844.674926231556,142.73216133120354L847.2479059767419,165.00861093743322L849.8208857219278,189.59262462624804L852.3938654671138,94.20320446716651L854.9668452122996,187.30518596867654L857.5398249574856,213.69350201558007L860.1128047026714,99.27032244072726L862.6857844478573,115.91763014303254L865.2587641930432,228.5586503712779L867.8317439382291,184.67856580608094L870.4047236834151,213.9962156452033L872.9777034286009,11.787470570296485L875.5506831737869,151.8010359639723L878.1236629189727,181.43902809447806L880.6966426641587,136.38995392998942L883.2696224093446,179.95804396781242L885.8426021545306,191.36726846326388L888.4155818997164,176.2314608829458L890.9885616449023,166.84004983351022L893.5615413900882,231.33802704929695L896.1345211352741,8.552573307568965L898.7075008804601,232.92142890902105L901.2804806256459,151.60646496900907L903.8534603708318,141.4508678251625L906.4264401160177,64.45026034767274L908.9994198612037,206.88881335634446L911.5723996063896,129.53469950991118L914.1453793515755,230.23430637223018L916.7183590967613,121.93150056648562L919.2913388419473,174.7885334810241L921.8643185871332,181.87472589214295L924.4372983323192,238.06266796543295L927.0102780775051,161.33284581171768L929.5832578226908,132.08833348204357L932.1562375678768,183.29089505353895L934.7292173130627,200.4884742450344L937.3021970582487,94.80273028599554L939.8751768034346,113.71382044454045L942.4481565486204,132.9479009767074L945.0211362938063,192.00043753643914L947.5941160389923,85.05329851789529L950.1670957841782,238.07709370867585L952.7400755293642,162.39043941817042L955.3130552745499,191.39011763000875L957.8860350197359,209.0565082570676L960.4590147649218,168.752646145244L963.0319945101078,103.5872008863339L965.6049742552937,193.47191378687648L968.1779540004794,180.60932087953378L970.7509337456654,158.08649874578688L973.3239134908513,157.38210887030758L975.8968932360373,164.39975378119183L978.4698729812231,187.96175904487518L981.0428527264091,128.73571004893518L983.6158324715949,-7.6962610673974865L986.1888122167809,206.5135674932132L988.7617919619668,29.012211519611217L991.3347717071528,144.49328733888686L993.9077514523386,151.36541382579992L996.4807311975245,203.11042873892382L999.0537109427104,130.89215690510179L1001.6266906878963,59.27313347196944L1004.1996704330822,166.1687735959294L1006.7726501782681,165.44572104562536L1009.345629923454,84.61578489240958L1011.9186096686399,182.59427288595964L1014.4915894138259,133.9436555579301L1017.0645691590117,148.0100414311295L1019.6375489041977,144.8876498337981L1022.2105286493836,181.74164084477798L1024.7835083945695,139.78663640758268L1027.3564881397554,187.0381583996978L1029.9294678849412,172.0414129666548L1032.5024476301273,68.04247217380131L1035.0754273753132,151.10390939977614L1037.6484071204989,268.80927342018936L1040.221386865685,27.504267393773087L1042.7943666108708,63.619922636957355L1045.3673463560567,177.2927365847018L1047.9403261012426,189.88393889232978L1050.5133058464285,212.57497729780766L1053.0862855916143,176.59719886984882L1055.6592653368004,180.16161844238704L1058.2322450819863,117.49371825181179L1060.8052248271722,204.51852755444963" style="fill: none;" fill="none"></path></g></g></g></g></g></g><g transform="translate(30, 378)" clip-path="url(#clip_1)"><clipPath id="clip_1"><rect width="1081" height="22"></rect></clipPath><g><g><line x1="31.613326752809492" y1="0" x2="31.613326752809492" y2="5" style="visibility: inherit;" fill="rgb(0, 0, 0)" stroke="rgb(204, 204, 204)" stroke-width="1px"></line><line x1="134.53251656024577" y1="0" x2="134.53251656024577" y2="5" style="visibility: inherit;" fill="rgb(0, 0, 0)" stroke="rgb(204, 204, 204)" stroke-width="1px"></line><line x1="237.45170636768202" y1="0" x2="237.45170636768202" y2="5" style="visibility: inherit;" fill="rgb(0, 0, 0)" stroke="rgb(204, 204, 204)" stroke-width="1px"></line><line x1="340.37089617511833" y1="0" x2="340.37089617511833" y2="5" style="visibility: inherit;" fill="rgb(0, 0, 0)" stroke="rgb(204, 204, 204)" stroke-width="1px"></line><line x1="443.29008598255456" y1="0" x2="443.29008598255456" y2="5" style="visibility: inherit;" fill="rgb(0, 0, 0)" stroke="rgb(204, 204, 204)" stroke-width="1px"></line><line x1="546.2092757899909" y1="0" x2="546.2092757899909" y2="5" style="visibility: inherit;" fill="rgb(0, 0, 0)" stroke="rgb(204, 204, 204)" stroke-width="1px"></line><line x1="649.1284655974272" y1="0" x2="649.1284655974272" y2="5" style="visibility: inherit;" fill="rgb(0, 0, 0)" stroke="rgb(204, 204, 204)" stroke-width="1px"></line><line x1="752.0476554048633" y1="0" x2="752.0476554048633" y2="5" style="visibility: inherit;" fill="rgb(0, 0, 0)" stroke="rgb(204, 204, 204)" stroke-width="1px"></line><line x1="854.9668452122996" y1="0" x2="854.9668452122996" y2="5" style="visibility: inherit;" fill="rgb(0, 0, 0)" stroke="rgb(204, 204, 204)" stroke-width="1px"></line><line x1="957.8860350197359" y1="0" x2="957.8860350197359" y2="5" style="visibility: inherit;" fill="rgb(0, 0, 0)" stroke="rgb(204, 204, 204)" stroke-width="1px"></line><line x1="1060.8052248271722" y1="0" x2="1060.8052248271722" y2="5" style="visibility: inherit;" fill="rgb(0, 0, 0)" stroke="rgb(204, 204, 204)" stroke-width="1px"></line></g><g transform="translate(0, 8)"><text x="31.613326752809492" y="0" dx="0em" dy="0.95em" style="text-anchor: middle; visibility: inherit; font-family: Roboto, sans-serif; font-size: 12px; font-weight: 200;" fill="rgb(50, 49, 63)" stroke="none" stroke-width="1px">0</text><text x="134.53251656024577" y="0" dx="0em" dy="0.95em" style="text-anchor: middle; visibility: inherit; font-family: Roboto, sans-serif; font-size: 12px; font-weight: 200;" fill="rgb(50, 49, 63)" stroke="none" stroke-width="1px">20k</text><text x="237.45170636768202" y="0" dx="0em" dy="0.95em" style="text-anchor: middle; visibility: inherit; font-family: Roboto, sans-serif; font-size: 12px; font-weight: 200;" fill="rgb(50, 49, 63)" stroke="none" stroke-width="1px">40k</text><text x="340.37089617511833" y="0" dx="0em" dy="0.95em" style="text-anchor: middle; visibility: inherit; font-family: Roboto, sans-serif; font-size: 12px; font-weight: 200;" fill="rgb(50, 49, 63)" stroke="none" stroke-width="1px">60k</text><text x="443.29008598255456" y="0" dx="0em" dy="0.95em" style="text-anchor: middle; visibility: inherit; font-family: Roboto, sans-serif; font-size: 12px; font-weight: 200;" fill="rgb(50, 49, 63)" stroke="none" stroke-width="1px">80k</text><text x="546.2092757899909" y="0" dx="0em" dy="0.95em" style="text-anchor: middle; visibility: inherit; font-family: Roboto, sans-serif; font-size: 12px; font-weight: 200;" fill="rgb(50, 49, 63)" stroke="none" stroke-width="1px">100k</text><text x="649.1284655974272" y="0" dx="0em" dy="0.95em" style="text-anchor: middle; visibility: inherit; font-family: Roboto, sans-serif; font-size: 12px; font-weight: 200;" fill="rgb(50, 49, 63)" stroke="none" stroke-width="1px">120k</text><text x="752.0476554048633" y="0" dx="0em" dy="0.95em" style="text-anchor: middle; visibility: inherit; font-family: Roboto, sans-serif; font-size: 12px; font-weight: 200;" fill="rgb(50, 49, 63)" stroke="none" stroke-width="1px">140k</text><text x="854.9668452122996" y="0" dx="0em" dy="0.95em" style="text-anchor: middle; visibility: inherit; font-family: Roboto, sans-serif; font-size: 12px; font-weight: 200;" fill="rgb(50, 49, 63)" stroke="none" stroke-width="1px">160k</text><text x="957.8860350197359" y="0" dx="0em" dy="0.95em" style="text-anchor: middle; visibility: inherit; font-family: Roboto, sans-serif; font-size: 12px; font-weight: 200;" fill="rgb(50, 49, 63)" stroke="none" stroke-width="1px">180k</text><text x="1060.8052248271722" y="0" dx="0em" dy="0.95em" style="text-anchor: middle; visibility: inherit; font-family: Roboto, sans-serif; font-size: 12px; font-weight: 200;" fill="rgb(50, 49, 63)" stroke="none" stroke-width="1px">200k</text></g><line x1="0" y1="0" x2="1081.81875" y2="0" fill="rgb(0, 0, 0)" stroke="rgb(204, 204, 204)" stroke-width="1px"></line></g></g></g></g></svg>