<svg viewBox="0 0 887 400" xmlns="http://www.w3.org/2000/svg"><g><g><g><g><g><line x1="72.34375" y1="377" x2="67.34375" y2="377" style="visibility: inherit;" fill="rgb(0, 0, 0)" stroke="rgb(204, 204, 204)" stroke-width="1px"></line><line x1="72.34375" y1="342.72727272727275" x2="67.34375" y2="342.72727272727275" style="visibility: inherit;" fill="rgb(0, 0, 0)" stroke="rgb(204, 204, 204)" stroke-width="1px"></line><line x1="72.34375" y1="308.45454545454544" x2="67.34375" y2="308.45454545454544" style="visibility: inherit;" fill="rgb(0, 0, 0)" stroke="rgb(204, 204, 204)" stroke-width="1px"></line><line x1="72.34375" y1="274.1818181818182" x2="67.34375" y2="274.1818181818182" style="visibility: inherit;" fill="rgb(0, 0, 0)" stroke="rgb(204, 204, 204)" stroke-width="1px"></line><line x1="72.34375" y1="239.9090909090909" x2="67.34375" y2="239.9090909090909" style="visibility: inherit;" fill="rgb(0, 0, 0)" stroke="rgb(204, 204, 204)" stroke-width="1px"></line><line x1="72.34375" y1="205.63636363636363" x2="67.34375" y2="205.63636363636363" style="visibility: inherit;" fill="rgb(0, 0, 0)" stroke="rgb(204, 204, 204)" stroke-width="1px"></line><line x1="72.34375" y1="171.36363636363635" x2="67.34375" y2="171.36363636363635" style="visibility: inherit;" fill="rgb(0, 0, 0)" stroke="rgb(204, 204, 204)" stroke-width="1px"></line><line x1="72.34375" y1="137.09090909090907" x2="67.34375" y2="137.09090909090907" style="visibility: inherit;" fill="rgb(0, 0, 0)" stroke="rgb(204, 204, 204)" stroke-width="1px"></line><line x1="72.34375" y1="102.81818181818177" x2="67.34375" y2="102.81818181818177" style="visibility: inherit;" fill="rgb(0, 0, 0)" stroke="rgb(204, 204, 204)" stroke-width="1px"></line><line x1="72.34375" y1="68.54545454545449" x2="67.34375" y2="68.54545454545449" style="visibility: inherit;" fill="rgb(0, 0, 0)" stroke="rgb(204, 204, 204)" stroke-width="1px"></line><line x1="72.34375" y1="34.27272727272729" x2="67.34375" y2="34.27272727272729" style="visibility: inherit;" fill="rgb(0, 0, 0)" stroke="rgb(204, 204, 204)" stroke-width="1px"></line><line x1="72.34375" y1="0" x2="67.34375" y2="0" style="visibility: inherit;" fill="rgb(0, 0, 0)" stroke="rgb(204, 204, 204)" stroke-width="1px"></line></g><g transform="translate(62.34375, 0)"><text x="0" y="377" dx="0em" dy="0.3em" style="text-anchor: end; visibility: hidden; font-family: Roboto, sans-serif; font-size: 12px; font-weight: 200;" fill="rgb(33, 33, 33)" stroke="none" stroke-width="1px">4e-4</text><text x="0" y="342.72727272727275" dx="0em" dy="0.3em" style="text-anchor: end; visibility: inherit; font-family: Roboto, sans-serif; font-size: 12px; font-weight: 200;" fill="rgb(33, 33, 33)" stroke="none" stroke-width="1px">6e-4</text><text x="0" y="308.45454545454544" dx="0em" dy="0.3em" style="text-anchor: end; visibility: inherit; font-family: Roboto, sans-serif; font-size: 12px; font-weight: 200;" fill="rgb(33, 33, 33)" stroke="none" stroke-width="1px">8e-4</text><text x="0" y="274.1818181818182" dx="0em" dy="0.3em" style="text-anchor: end; visibility: inherit; font-family: Roboto, sans-serif; font-size: 12px; font-weight: 200;" fill="rgb(33, 33, 33)" stroke="none" stroke-width="1px">1e-3</text><text x="0" y="239.9090909090909" dx="0em" dy="0.3em" style="text-anchor: end; visibility: inherit; font-family: Roboto, sans-serif; font-size: 12px; font-weight: 200;" fill="rgb(33, 33, 33)" stroke="none" stroke-width="1px">1.2e-3</text><text x="0" y="205.63636363636363" dx="0em" dy="0.3em" style="text-anchor: end; visibility: inherit; font-family: Roboto, sans-serif; font-size: 12px; font-weight: 200;" fill="rgb(33, 33, 33)" stroke="none" stroke-width="1px">1.4e-3</text><text x="0" y="171.36363636363635" dx="0em" dy="0.3em" style="text-anchor: end; visibility: inherit; font-family: Roboto, sans-serif; font-size: 12px; font-weight: 200;" fill="rgb(33, 33, 33)" stroke="none" stroke-width="1px">1.6e-3</text><text x="0" y="137.09090909090907" dx="0em" dy="0.3em" style="text-anchor: end; visibility: inherit; font-family: Roboto, sans-serif; font-size: 12px; font-weight: 200;" fill="rgb(33, 33, 33)" stroke="none" stroke-width="1px">1.8e-3</text><text x="0" y="102.81818181818177" dx="0em" dy="0.3em" style="text-anchor: end; visibility: inherit; font-family: Roboto, sans-serif; font-size: 12px; font-weight: 200;" fill="rgb(33, 33, 33)" stroke="none" stroke-width="1px">2e-3</text><text x="0" y="68.54545454545449" dx="0em" dy="0.3em" style="text-anchor: end; visibility: inherit; font-family: Roboto, sans-serif; font-size: 12px; font-weight: 200;" fill="rgb(33, 33, 33)" stroke="none" stroke-width="1px">2.2e-3</text><text x="0" y="34.27272727272729" dx="0em" dy="0.3em" style="text-anchor: end; visibility: inherit; font-family: Roboto, sans-serif; font-size: 12px; font-weight: 200;" fill="rgb(33, 33, 33)" stroke="none" stroke-width="1px">2.4e-3</text><text x="0" y="0" dx="0em" dy="0.3em" style="text-anchor: end; visibility: hidden; font-family: Roboto, sans-serif; font-size: 12px; font-weight: 200;" fill="rgb(33, 33, 33)" stroke="none" stroke-width="1px">2.6e-3</text></g><line x1="72.34375" y1="0" x2="72.34375" y2="377" fill="rgb(0, 0, 0)" stroke="rgb(204, 204, 204)" stroke-width="1px"></line></g></g><g transform="translate(72, 0)" clip-path="url(#clip_0)"><clipPath id="clip_0"><rect width="814" height="377"></rect></clipPath><g><g><g><line x1="0" y1="0" x2="0" y2="377" fill="rgb(0, 0, 0)" stroke="rgb(66, 66, 66)" stroke-width="1px" opacity="0.25"></line><line x1="67.88802083333333" y1="0" x2="67.88802083333333" y2="377" fill="rgb(0, 0, 0)" stroke="rgb(66, 66, 66)" stroke-width="1px" opacity="0.25"></line><line x1="135.77604166666666" y1="0" x2="135.77604166666666" y2="377" fill="rgb(0, 0, 0)" stroke="rgb(66, 66, 66)" stroke-width="1px" opacity="0.25"></line><line x1="203.6640625" y1="0" x2="203.6640625" y2="377" fill="rgb(0, 0, 0)" stroke="rgb(66, 66, 66)" stroke-width="1px" opacity="0.25"></line><line x1="271.5520833333333" y1="0" x2="271.5520833333333" y2="377" fill="rgb(0, 0, 0)" stroke="rgb(66, 66, 66)" stroke-width="1px" opacity="0.25"></line><line x1="339.4401041666667" y1="0" x2="339.4401041666667" y2="377" fill="rgb(0, 0, 0)" stroke="rgb(66, 66, 66)" stroke-width="1px" opacity="0.25"></line><line x1="407.328125" y1="0" x2="407.328125" y2="377" fill="rgb(0, 0, 0)" stroke="rgb(66, 66, 66)" stroke-width="1px" opacity="0.25"></line><line x1="475.21614583333337" y1="0" x2="475.21614583333337" y2="377" fill="rgb(0, 0, 0)" stroke="rgb(66, 66, 66)" stroke-width="1px" opacity="0.25"></line><line x1="543.1041666666666" y1="0" x2="543.1041666666666" y2="377" fill="rgb(0, 0, 0)" stroke="rgb(66, 66, 66)" stroke-width="1px" opacity="0.25"></line><line x1="610.9921875" y1="0" x2="610.9921875" y2="377" fill="rgb(0, 0, 0)" stroke="rgb(66, 66, 66)" stroke-width="1px" opacity="0.25"></line><line x1="678.8802083333334" y1="0" x2="678.8802083333334" y2="377" fill="rgb(0, 0, 0)" stroke="rgb(66, 66, 66)" stroke-width="1px" opacity="0.25"></line><line x1="746.7682291666666" y1="0" x2="746.7682291666666" y2="377" fill="rgb(0, 0, 0)" stroke="rgb(66, 66, 66)" stroke-width="1px" opacity="0.25"></line><line x1="814.65625" y1="0" x2="814.65625" y2="377" fill="rgb(0, 0, 0)" stroke="rgb(66, 66, 66)" stroke-width="1px" opacity="0.25"></line></g><g><line x1="0" y1="377" x2="814.65625" y2="377" fill="rgb(0, 0, 0)" stroke="rgb(66, 66, 66)" stroke-width="1px" opacity="0.25"></line><line x1="0" y1="342.72727272727275" x2="814.65625" y2="342.72727272727275" fill="rgb(0, 0, 0)" stroke="rgb(66, 66, 66)" stroke-width="1px" opacity="0.25"></line><line x1="0" y1="308.45454545454544" x2="814.65625" y2="308.45454545454544" fill="rgb(0, 0, 0)" stroke="rgb(66, 66, 66)" stroke-width="1px" opacity="0.25"></line><line x1="0" y1="274.1818181818182" x2="814.65625" y2="274.1818181818182" fill="rgb(0, 0, 0)" stroke="rgb(66, 66, 66)" stroke-width="1px" opacity="0.25"></line><line x1="0" y1="239.9090909090909" x2="814.65625" y2="239.9090909090909" fill="rgb(0, 0, 0)" stroke="rgb(66, 66, 66)" stroke-width="1px" opacity="0.25"></line><line x1="0" y1="205.63636363636363" x2="814.65625" y2="205.63636363636363" fill="rgb(0, 0, 0)" stroke="rgb(66, 66, 66)" stroke-width="1px" opacity="0.25"></line><line x1="0" y1="171.36363636363635" x2="814.65625" y2="171.36363636363635" fill="rgb(0, 0, 0)" stroke="rgb(66, 66, 66)" stroke-width="1px" opacity="0.25"></line><line x1="0" y1="137.09090909090907" x2="814.65625" y2="137.09090909090907" fill="rgb(0, 0, 0)" stroke="rgb(66, 66, 66)" stroke-width="1px" opacity="0.25"></line><line x1="0" y1="102.81818181818177" x2="814.65625" y2="102.81818181818177" fill="rgb(0, 0, 0)" stroke="rgb(66, 66, 66)" stroke-width="1px" opacity="0.25"></line><line x1="0" y1="68.54545454545449" x2="814.65625" y2="68.54545454545449" fill="rgb(0, 0, 0)" stroke="rgb(66, 66, 66)" stroke-width="1px" opacity="0.25"></line><line x1="0" y1="34.27272727272729" x2="814.65625" y2="34.27272727272729" fill="rgb(0, 0, 0)" stroke="rgb(66, 66, 66)" stroke-width="1px" opacity="0.25"></line><line x1="0" y1="0" x2="814.65625" y2="0" fill="rgb(0, 0, 0)" stroke="rgb(66, 66, 66)" stroke-width="1px" opacity="0.25"></line></g></g></g><g><g><line x1="0" y1="445.54545454545456" x2="814.65625" y2="445.54545454545456" fill="rgb(0, 0, 0)" stroke="rgb(153, 153, 153)" stroke-width="1.5px"></line></g></g><g><g><line x1="67.88802083333333" y1="0" x2="67.88802083333333" y2="377" fill="rgb(0, 0, 0)" stroke="rgb(153, 153, 153)" stroke-width="1.5px"></line></g></g><g><g><g><g><g><path stroke="rgb(255, 112, 67)" stroke-width="2px" d="M86.55722656249999,-67.9429006589293L88.25442708333334,3.448415605284449L89.95162760416666,60.334017733510315L91.64882812500001,-7.923280304797479L93.34602864583333,107.84170059156938L95.04322916666666,157.24941383267455L96.7404296875,203.6614062985702L98.43763020833333,249.83035370963262L100.13483072916667,230.63820675355896L101.83203125,51.46631770239005L103.52923177083333,109.90620219367938L105.22643229166668,37.387373109011904L106.9236328125,37.99244270665147L108.62083333333334,-76.47844199797936L110.31803385416666,70.095913101399L112.015234375,156.55303263652314L113.71243489583334,227.44794596679753L115.40963541666666,196.2077710515593L117.1068359375,230.06331792444445L118.80403645833334,141.29382460058108L120.50123697916666,146.71178978358688L122.1984375,165.4145401194678L123.89563802083332,203.87087152269703L125.59283854166667,153.72197310121132L127.2900390625,108.43044553657576L128.98723958333332,54.820737393148455L130.68444010416667,45.98673432120179L132.38164062500002,42.67684701453526L134.07884114583334,121.9428016499705L135.77604166666666,229.75012431155014L137.4732421875,280.15715500481065L139.17044270833333,312.21061213711783L140.86764322916667,310.8581980030293L142.56484375,328.0034533094683L144.26204427083334,241.5901481856061L145.95924479166666,158.19970863753983L147.65644531249998,106.65288497555143L149.35364583333333,68.46790246019437L151.05084635416668,137.91517914598353L152.748046875,39.31965306003495L154.44524739583332,37.644450666328275L156.14244791666667,47.46027317699174L157.83964843750002,169.46272880523708L159.53684895833334,251.6814852366848L161.23404947916666,297.87114692346006L162.93125,267.3054111550535L164.62845052083333,232.32698051470112L166.32565104166667,171.86749414934593L168.0228515625,157.4337024358098L169.72005208333334,207.28582898426762L171.41725260416666,265.21908711759556L173.11445312499998,235.1946636233415L174.81165364583333,299.50971209037374L176.50885416666668,317.1838795133593L178.2060546875,219.1942770763269L179.90325520833332,203.0974133589015L181.60045572916667,202.599088380233L183.29765625000002,203.77188483060493L184.99485677083334,261.6981229076796L186.69205729166666,255.6237845627565L188.3892578125,300.01864367683686L190.08645833333333,323.18478270140736L191.78365885416667,295.36945557059454L193.480859375,251.31830940752005L195.17805989583334,263.3844106289015L196.87526041666666,268.7413910826968L198.57246093749998,259.55435938959204L200.26966145833333,193.69077553001242L201.96686197916668,195.39617547196102L203.6640625,242.13480188725157L205.36126302083332,143.33158947889393L207.05846354166667,191.05980226577455L208.7556640625,273.09550591185274L210.45286458333337,261.90667276609105L212.15006510416669,242.97321323996096L213.847265625,243.9318629256491L215.54446614583333,178.19670447269698L217.24166666666667,266.5598000039683L218.9388671875,299.9400390188818L220.63606770833331,329.2416450973728L222.33326822916663,292.0788493945052L224.03046875,251.20739879459737L225.72766927083333,192.80818918584774L227.42486979166668,250.1938676731682L229.1220703125,134.8609861359859L230.81927083333332,193.06864521332497L232.51647135416667,205.41220905023246L234.213671875,239.28844146725763L235.91087239583337,299.31878944207193L237.60807291666669,280.9156084498742L239.3052734375,316.1359778644389L241.00247395833333,346.94344813446344L242.69967447916667,292.2708484185807L244.396875,267.23040370671606L246.09407552083331,286.60819743489145L247.79127604166663,320.9368582077841L249.4884765625,315.67990879631907L251.18567708333333,309.83083293764327L252.88287760416668,292.90219985820426L254.580078125,276.1113015971554L256.27727864583335,290.3617985974683L257.97447916666664,304.5328548997621L259.6716796875,339.4890647318372L261.36888020833334,323.2862698345895L263.0660807291667,338.0264814139174L264.76328125000003,274.329490682779L266.4604817708333,315.1309403353828L268.1576822916667,326.71323483992904L269.85488281249997,293.38465263157525L271.5520833333333,325.1499735095068L273.24928385416666,350.8917823084873L274.946484375,293.41852560065956L276.64368489583336,332.2081496949192L278.34088541666665,329.45310972222705L280.0380859375,339.7528522310666L281.73528645833335,249.75565060724253L283.43248697916664,284.2377009692314L285.1296875,287.4116786516167L286.82688802083334,333.24030504793996L288.5240885416667,356.88238015868643L290.22128906250003,268.1323577662528L291.9184895833333,292.10014092596714L293.6156901041667,268.68059744683626L295.31289062499997,309.9250382651524L297.0100911458333,342.656862151066L298.70729166666666,290.7076957048115L300.4044921875,286.758297842951L302.10169270833336,298.29858880122345L303.79889322916665,223.58716662698345L305.49609375,207.54655124552917L307.19329427083335,217.10597448684905L308.89049479166664,205.18147177727758L310.5876953125,209.4597522649164L312.28489583333334,249.3351783941778L313.9820963541667,190.80525007855633L315.67929687500003,141.15675899515318L317.3764973958333,215.43247014867782L319.0736979166667,193.0162408825147L320.77089843749997,208.39997333377744L322.4680989583333,190.68056018572182L324.16529947916666,210.881834129011L325.8625,205.4332193759514L327.55970052083336,201.1478783670231L329.25690104166665,265.33237935939195L330.9541015625,311.8990515727083L332.65130208333335,342.66832997879595L334.34850260416664,328.2888833044332L336.045703125,264.4073609714723L337.74290364583334,312.09628475342555L339.4401041666667,287.6661749879287L341.13730468750003,236.74838079293977L342.8345052083333,251.3519872473164L344.5317057291667,206.5495002666933L346.22890624999997,222.05554721818345L347.9261067708333,287.7074133124664L349.62330729166666,292.054963068221L351.3205078125,334.1532229765674L353.01770833333336,254.48163304615355L354.71490885416665,209.91789541320188L356.412109375,288.1826896698683L358.10930989583335,323.5158244857829L359.80651041666664,350.7815993729816L361.5037109375,303.75828557052773L363.20091145833334,336.32533528490114L364.8981119791667,353.37719854193153L366.59531250000003,293.137395033748L368.2925130208333,281.8424188923224L369.9897135416667,325.8739433102644L371.68691406249997,343.8781790239937L373.3841145833333,372.75496881665936L375.08131510416666,387.1509545568661L376.778515625,297.38968358379543L378.47571614583336,226.72244718331442L380.17291666666665,247.18258009545735L381.8701171875,314.02814862824795L383.56731770833335,349.962287612047L385.26451822916664,366.16470398396547L386.96171875,327.73905096276553L388.65891927083334,337.38696846995896L390.3561197916667,332.816961634857L392.05332031250003,302.0534501241407L393.7505208333333,296.5471852718429L395.4477213541667,224.51098327476188L397.14492187499997,301.5396391899997L398.8421223958333,305.8768580022468L400.53932291666666,341.71595029023746L402.2365234375,335.0032863312585L403.93372395833336,252.76153290088118L405.63092447916665,231.40085851673598L407.328125,217.79303113866527L409.02532552083335,267.38041458195136L410.72252604166664,300.2795638036714L412.4197265625,336.56724303639567L414.11692708333334,312.09353803325405L415.81412760416663,304.10221519499856L417.511328125,314.58813504152175L419.20852864583327,256.5442927009L420.90572916666673,283.81738625697096L422.6029296875,285.6245786341854L424.30013020833337,325.54460652563307L425.99733072916666,318.9278587895607L427.69453125,297.33708538445006L429.39173177083336,246.3106060132202L431.08893229166665,246.3359588604243L432.7861328125,272.9310938509549L434.48333333333335,243.20775163100353L436.18053385416664,263.7292698606683L437.877734375,223.34713420672534L439.57493489583334,281.4389173081478L441.27213541666663,307.11653873991867L442.9693359375,301.9452463801528L444.66653645833327,248.82697357250385L446.36373697916673,265.37438203774764L448.0609375,288.0062478593935L449.75813802083337,267.7820347553637L451.45533854166666,261.7910697061507L453.1525390625,245.2549943568927L454.84973958333336,301.48377342436686L456.54694010416665,250.52482038210937L458.244140625,267.11235207186894L459.94134114583335,261.47627917330203L461.63854166666664,312.369166055111L463.3357421875,257.672538842893L465.03294270833334,277.9322656245733L466.73014322916663,231.92527661733325L468.42734375,240.60244462693953L470.12454427083327,226.4063399739468L471.82174479166673,251.80926808550723L473.5189453125,249.5286425189172L475.21614583333337,260.8524923446284L476.91334635416666,251.59636684905433L478.610546875,200.82982930055283L480.30774739583336,243.80445621877027L482.00494791666665,221.48096892046533L483.7021484375,241.59726486111694L485.39934895833335,168.54478156779572L487.09654947916664,198.86785308314754L488.79375,279.7825013354298L490.49095052083334,253.74247128203456L492.18815104166663,287.77789858151397L493.8853515625,271.2607416609041L495.58255208333327,274.2814265294318L497.27975260416673,266.77033980905543L498.976953125,243.11425607203213L500.67415364583337,249.92164071173772L502.37135416666666,230.11645809424704L504.0685546875,243.9620129693587L505.76575520833336,203.59815958545656L507.46295572916665,255.0793507711612L509.16015625,312.4068111843541L510.85735677083335,312.7154970125837L512.5545572916667,252.3965396025102L514.2517578124999,299.03851307264597L515.9489583333333,255.93314480210455L517.6461588541666,253.2347932105654L519.343359375,190.7526446929673L521.0405598958333,248.7698331436798L522.7377604166667,233.9849497684654L524.4349609375,258.33283231119594L526.1321614583334,279.7665546456017L527.8293619791667,286.5772904217245L529.5265625000001,321.0421436230602L531.2237630208333,295.4478014000255L532.9209635416667,316.1146283069415L534.6181640625,292.9605807874259L536.3153645833333,286.67016439929046L538.0125651041667,255.63482860996714L539.7097656249999,285.812162134366L541.4069661458333,302.50382995053025L543.1041666666666,339.65395837754266L544.8013671875,317.93497099842625L546.4985677083333,215.47388934894084L548.1957682291667,194.3799972108632L549.89296875,267.51799852972744L551.5901692708334,256.45121052784305L553.2873697916667,307.91606978091244L554.9845703125001,330.2462327798396L556.6817708333333,245.2385457365531L558.3789713541667,273.0882114310671L560.076171875,239.4822557458387L561.7733723958333,293.0308828854875L563.4705729166667,245.44153937333672L565.1677734374999,299.6776439677435L566.8649739583333,330.8876515110323L568.5621744791666,296.0762679693977L570.259375,322.9791619965288L571.9565755208333,277.4247596612837L573.6537760416667,211.93463192450824L575.3509765625,245.77327900047786L577.0481770833334,224.40371341976797L578.7453776041667,242.33298386055284L580.4425781250001,261.63577961209074L582.1397786458333,257.7304791744035L583.8369791666667,310.2511753103594L585.5341796875,306.93157600369875L587.2313802083333,227.79202609364285L588.9285807291667,293.71682823648575L590.6257812499999,276.0556368448955L592.3229817708333,305.8581650067722L594.0201822916666,285.7492275100359L595.7173828125,305.768844139494L597.4145833333333,281.8247583143666L599.1117838541667,286.7397912705198L600.808984375,257.0020636770565L602.5061848958334,306.42307715684524L604.2033854166667,349.5077391440898L605.9005859375001,288.00871776943194L607.5977864583333,295.15836184767306L609.2949869791667,315.28646620635095L610.9921875,352.70715628562516L612.6893880208333,364.6680660098596L614.3865885416667,367.272080519589L616.0837890624999,364.8571049500508L617.7809895833333,304.50630666359734L619.4781901041666,272.00631954964L621.175390625,279.9409805874762L622.8725911458333,274.51879760882724L624.5697916666667,238.50283316678681L626.2669921875,251.58547440457787L627.9641927083334,259.651788916905L629.6613932291667,260.20701520826526L631.3585937500001,263.5300323163838L633.0557942708333,283.42372262939654L634.7529947916667,206.56448540158604L636.4501953125,218.298738855289L638.1473958333333,208.59688430288742L639.8445963541667,234.77828406402466L641.5417968749999,242.10900217281767L643.2389973958333,258.2415187141844L644.9361979166666,143.32332744786427L646.6333984375,249.09578456466642L648.3305989583333,258.13563971747743L650.0277994791667,267.15812480756983L651.725,294.2206097148509L653.4222005208334,312.80969845736115L655.1194010416667,243.98041070781647L656.8166015625001,253.80212915467672L658.5138020833333,303.0587513761792L660.2110026041667,251.19392356239425L661.908203125,261.64781050327923L663.6054036458333,289.860648434882L665.3026041666667,236.42277827411326L666.9998046874999,292.53675646951086L668.6970052083333,288.9966657218835L670.3942057291666,308.52317314566886L672.09140625,314.67502752832127L673.7886067708333,301.0403067286689L675.4858072916667,243.59894415722468L677.1830078125,249.65031271775229L678.8802083333334,271.02417208989374L680.5774088541667,318.80404904884284L682.2746093750001,255.90131147679227L683.9718098958333,287.2284980074713L685.6690104166667,266.5173468912129L687.3662109375,310.4343217531674L689.0634114583333,291.8404918732259L690.7606119791667,264.50135868908814L692.4578124999999,274.3554444575495L694.1550130208333,241.37287003753426L695.8522135416666,248.62219949014417L697.5494140625,308.7947546593082L699.2466145833333,275.5288339086571L700.9438151041667,297.3713350202932L702.641015625,319.2508762822259L704.3382161458334,268.4243112484652L706.0354166666667,294.9182591425888L707.7326171875001,335.19202290756533L709.4298177083333,364.09507538557517L711.1270182291667,306.12863340800334L712.82421875,302.0543972227471L714.5214192708333,227.0802645689504L716.2186197916667,275.89241148262244L717.9158203124999,293.9374293410747L719.6130208333333,314.11569522723164L721.3102213541666,290.6190646292205L723.007421875,281.83276904840113L724.7046223958333,261.14379664766227L726.4018229166667,293.31738446122233L728.0990234375,284.4191609267818L729.7962239583334,305.1821795528819L731.4934244791667,167.15071867620446L733.1906250000001,184.69410790790644L734.8878255208333,229.0654115735623L736.5850260416667,256.26844863046887L738.2822265625,290.4303786616652L739.9794270833333,255.51227612778496L741.6766276041667,264.9965144242533L743.3738281249999,291.84507374184074L745.0710286458333,277.3945018676582L746.7682291666666,300.75798772987275" style="fill: none;" fill="none"></path></g></g></g></g><g opacity="0.2"><g><g><g><path stroke="rgb(255, 112, 67)" stroke-width="2px" d="M76.3740234375,-445.07864211398106L78.07122395833333,122.01586669852783L79.76842447916667,212.47331466178662L81.465625,-393.2064145613802L83.16282552083334,194.4182326381348L84.86002604166667,-204.13111614452845L86.55722656249999,28.497409979220116L88.25442708333334,110.30228496732356L89.95162760416666,145.55097610935223L91.64882812500001,-110.22899347069593L93.34602864583333,281.4075255024839L95.04322916666666,231.3400760059329L96.7404296875,273.26761099755424L98.43763020833333,319.0767414517785L100.13483072916667,201.8517405577004L101.83203125,-217.28168966214773L103.52923177083333,197.56410594132134L105.22643229166668,-71.38943876021291L106.9236328125,38.90003993548453L108.62083333333334,-248.1839554448697L110.31803385416666,289.95682067779654L112.015234375,286.2384907191365L113.71243489583334,333.79020712181756L115.40963541666666,149.3475374553183L117.1068359375,280.846619522326L118.80403645833334,8.139614051715876L120.50123697916666,154.83873648010191L122.1984375,193.46866339055651L123.89563802083332,261.5553658729927L125.59283854166667,78.49862762422042L127.2900390625,40.49315535751256L128.98723958333332,-25.5938239925626L130.68444010416667,32.73572979528793L132.38164062500002,37.7120160729709L134.07884114583334,240.8417333382266L135.77604166666666,391.4611080877525L137.4732421875,355.767700984058L139.17044270833333,360.29079781244087L140.86764322916667,308.8295768024823L142.56484375,353.7213362646712L144.26204427083334,111.97019051328637L145.95924479166666,33.114049323241794L147.65644531249998,29.33264948546206L149.35364583333333,11.190428688444843L151.05084635416668,242.0860941732641L152.748046875,-108.5736360676926L154.44524739583332,35.131647075780386L156.14244791666667,62.18400694294403L157.83964843750002,352.4664122472856L159.53684895833334,375.0096198837273L161.23404947916666,367.15563945357945L162.93125,221.4568075024607L164.62845052083333,179.85933455418456L166.32565104166667,81.17826460132541L168.0228515625,135.7830148655074L169.72005208333334,282.06401880695057L171.41725260416666,352.1189743175849L173.11445312499998,190.1580283819613L174.81165364583333,395.98228479092097L176.50885416666668,343.6951306478374L178.2060546875,72.20987342077895L179.90325520833332,178.9521177827634L181.60045572916667,201.85160091223025L183.29765625000002,205.53107950616288L184.99485677083334,348.5874800232917L186.69205729166666,246.51227704537183L188.3892578125,366.6109323479574L190.08645833333333,357.9339912382632L191.78365885416667,253.64646487437525L193.480859375,185.24159016290847L195.17805989583334,281.4835624609735L196.87526041666666,276.77686176338995L198.57246093749998,245.7738118499348L200.26966145833333,94.89539974064307L201.96686197916668,197.95427538488397L203.6640625,312.24274151018733L205.36126302083332,-4.873229133642563L207.05846354166667,262.6521214460954L208.7556640625,396.14906138097024L210.45286458333337,245.1234230474484L212.15006510416669,214.57302395076573L213.847265625,245.3698374541815L215.54446614583333,79.59396679326888L217.24166666666667,399.10444330087523L218.9388671875,350.010397541252L220.63606770833331,373.1940542151093L222.33326822916663,236.33465584020382L224.03046875,189.9002228947356L225.72766927083333,105.2093747727234L227.42486979166668,336.2723854041489L229.1220703125,-38.13833616978748L230.81927083333332,280.38013382933354L232.51647135416667,223.92755480559373L234.213671875,290.1027900927954L235.91087239583337,389.3643114042934L237.60807291666669,253.31083696157754L239.3052734375,368.966531986286L241.00247395833333,393.15465353950015L242.69967447916667,210.26194884475657L244.396875,229.66973663891918L246.09407552083331,315.67488802715457L247.79127604166663,372.4298493671231L249.4884765625,307.7944846791215L251.18567708333333,301.05721914962953L252.88287760416668,267.50925023904574L254.580078125,250.92495420558208L256.27727864583335,311.73754409793764L257.97447916666664,325.78943935320285L259.6716796875,391.9233794799498L261.36888020833334,298.982077488718L263.0660807291667,360.1367987829091L264.76328125000003,178.78400458607143L266.4604817708333,376.3331148142884L268.1576822916667,344.0866765967486L269.85488281249997,243.39177931904453L271.5520833333333,372.7979548264041L273.24928385416666,389.50449550695805L274.946484375,207.20864053891802L276.64368489583336,390.39258583630857L278.34088541666665,325.32054976318875L280.0380859375,355.20246599432585L281.73528645833335,114.75984817150636L283.43248697916664,335.96077651221475L285.1296875,292.17264517519453L286.82688802083334,401.98324464242484L288.5240885416667,392.34549282480623L290.22128906250003,135.0073241776024L291.9184895833333,328.05181566553864L293.6156901041667,233.55128222813997L295.31289062499997,371.7916994926266L297.0100911458333,391.7545979799364L298.70729166666666,212.78394603542984L300.4044921875,280.8342010501603L302.10169270833336,315.60902523863217L303.79889322916665,111.52003336562346L305.49609375,183.4856281733479L307.19329427083335,231.4451093488288L308.89049479166664,187.2947177129205L310.5876953125,215.87717299637467L312.28489583333334,309.14831758806986L313.9820963541667,103.01035760512401L315.67929687500003,66.68402237004851L317.3764973958333,326.8460368789648L319.0736979166667,159.39189698326993L320.77089843749997,231.47557201067153L322.4680989583333,164.10144046363843L324.16529947916666,241.1837450439449L325.8625,197.26029724636197L327.55970052083336,194.71986685363066L329.25690104166665,361.6091308479451L330.9541015625,381.74905989268285L332.65130208333335,388.82224758792756L334.34850260416664,306.71971329288897L336.045703125,168.5850774720311L337.74290364583334,383.62967042635535L339.4401041666667,251.02101033968341L341.13730468750003,160.37168950045648L342.8345052083333,273.25739692888135L344.5317057291667,139.34576979575846L346.22890624999997,245.31461764541876L347.9261067708333,386.18521245389076L349.62330729166666,298.57628770185295L351.3205078125,397.300612839087L353.01770833333336,134.97424815053287L354.71490885416665,143.07228896377433L356.412109375,405.5798810548678L358.10930989583335,376.5155267096548L359.80651041666664,391.6802617037796L361.5037109375,233.22331486684692L363.20091145833334,385.1759098564613L364.8981119791667,378.9549934274771L366.59531250000003,202.77768977147267L368.2925130208333,264.89995468018407L369.9897135416667,391.9212299371773L371.68691406249997,370.88453259458765L373.3841145833333,416.0701535056578L375.08131510416666,408.74493316717616L376.778515625,162.7477771241895L378.47571614583336,120.72159258259286L380.17291666666665,277.8727794636718L381.8701171875,414.2965014274338L385.26451822916664,390.4683285418432L386.96171875,270.10057143096554L388.65891927083334,351.858844730749L390.3561197916667,325.9619513822042L392.05332031250003,255.9081828580661L393.7505208333333,288.2877879933962L395.4477213541667,116.4566802791404L397.14492187499997,417.08262306285644L398.8421223958333,312.3826862206174L400.53932291666666,395.4745887222234L402.2365234375,324.93429039279L403.93372395833336,129.3989027553153L405.63092447916665,199.35984694051808L407.328125,197.38129007155916L409.02532552083335,341.7614897468805L410.72252604166664,349.6282876362516L412.4197265625,390.998761885482L414.11692708333334,275.38298052854157L415.81412760416663,292.11523093761537L417.511328125,330.3170148113065L419.20852864583327,169.47852918996728L420.90572916666673,324.72702659107745L422.6029296875,288.3353672000071L424.30013020833337,385.42464836280453L425.99733072916666,309.00273718545213L427.69453125,264.95092527678406L429.39173177083336,169.77088695637542L431.08893229166665,246.3739881312305L432.7861328125,312.8237963367507L434.48333333333335,198.62273830107665L436.18053385416664,294.51154720516536L437.877734375,162.77393072581086L439.57493489583334,368.57659196028146L441.27213541666663,345.63297088757497L442.9693359375,294.1883078405041L444.66653645833327,169.14956436103034L446.36373697916673,290.19549473561347L448.0609375,321.9540465918623L449.75813802083337,237.44571509931907L451.45533854166666,252.80462213233113L453.1525390625,220.45088133300564L454.84973958333336,385.826942025578L456.54694010416665,174.0863908187232L458.244140625,291.99364960650826L459.94134114583335,253.0221698254516L461.63854166666664,388.70849637782453L463.3357421875,175.62759802456605L465.03294270833334,308.3218557970937L466.73014322916663,162.91479310647324L468.42734375,253.61819664134896L470.12454427083327,205.11218299445778L471.82174479166673,289.91366025284776L473.5189453125,246.1077041690322L475.21614583333337,277.8382670831951L476.91334635416666,237.71217860569328L478.610546875,124.68002297780048L480.30774739583336,308.26639659609646L482.00494791666665,187.99573797300795L483.7021484375,271.77170877209437L485.39934895833335,58.966056627814005L487.09654947916664,244.35246035617516L488.79375,401.1544737138531L490.49095052083334,214.6824262019416L492.18815104166663,338.83103953073305L493.8853515625,246.48500627998934L495.58255208333327,278.8124538322233L497.27975260416673,255.5037097284909L498.976953125,207.63013046649706L500.67415364583337,260.1327176712961L502.37135416666666,200.40868416801095L504.0685546875,264.7303452820263L505.76575520833336,143.0523795096034L507.46295572916665,332.30113754971796L509.16015625,398.3980018041435L510.85735677083335,313.1785257549279L512.5545572916667,161.91810348740015L514.2517578124999,369.0014732778496L515.9489583333333,191.27509239629248L517.6461588541666,249.18726582325655L519.343359375,97.02942191657014L521.0405598958333,335.7956158197485L522.7377604166667,211.8076247056438L524.4349609375,294.85465612529185L526.1321614583334,311.91713814721015L527.8293619791667,296.7933940859088L529.5265625000001,372.7394234250638L531.2237630208333,257.05628806547344L532.9209635416667,347.11486866731536L534.6181640625,258.22950950815255L536.3153645833333,277.23453981708735L538.0125651041667,209.08182492598212L539.7097656249999,331.07816242096436L541.4069661458333,327.54133167477664L543.1041666666666,395.37915101806124L544.8013671875,285.35648992975155L546.4985677083333,61.78226687471293L548.1957682291667,162.73915900374672L549.89296875,377.22500050802375L551.5901692708334,239.85102852501646L553.2873697916667,385.11335866051644L554.9845703125001,363.74147727823055L556.6817708333333,117.72701517162334L558.3789713541667,314.8627099728381L560.076171875,189.07332221799612L561.7733723958333,373.3538235949606L563.4705729166667,174.05752410511062L565.1677734374999,381.0318008593538L566.8649739583333,377.70266282596543L568.5621744791666,243.85919265694577L570.259375,363.33350303722546L571.9565755208333,209.0931561584161L573.6537760416667,113.69944031934504L575.3509765625,296.53124961443245L577.0481770833334,192.34936504870313L578.7453776041667,269.2268895217302L580.4425781250001,290.58997323939747L582.1397786458333,251.87252851787275L583.8369791666667,389.0322195142931L585.5341796875,301.9521770437079L587.2313802083333,109.08270122855897L588.9285807291667,392.60403145075014L590.6257812499999,249.56384975751013L592.3229817708333,350.56195724958724L594.0201822916666,255.5858212649314L595.7173828125,335.7982690836811L597.4145833333333,245.9086295766756L599.1117838541667,294.11234070474956L600.808984375,212.39547228686172L602.5061848958334,380.5545973765283L604.2033854166667,414.1347321249566L605.9005859375001,195.76018570744515L607.5977864583333,305.88282796503466L609.2949869791667,345.47862274436784L610.9921875,408.83819140453653L612.6893880208333,382.60943059621127L614.3865885416667,371.178102284183L616.0837890624999,361.2346415957436L617.7809895833333,213.98010923391715L619.4781901041666,223.25633887870404L621.175390625,291.8429721442305L622.8725911458333,266.38552314085376L624.5697916666667,184.47888650372622L626.2669921875,271.20943626126444L627.9641927083334,271.7512606853958L629.6613932291667,261.0398546453057L631.3585937500001,268.51455797856164L633.0557942708333,313.26425809891555L634.7529947916667,91.27562955987044L636.4501953125,235.9001190358434L638.1473958333333,194.0441024742851L639.8445963541667,274.05038370573044L641.5417968749999,253.10507933600715L643.2389973958333,282.4402935262346L644.9361979166666,-29.05395945161581L646.6333984375,407.75447023986965L648.3305989583333,271.69542244669384L650.0277994791667,280.6918524427085L651.725,334.81433707577264L653.4222005208334,340.6933315711265L655.1194010416667,140.73647908349943L656.8166015625001,268.5347068249671L658.5138020833333,376.9436847084329L660.2110026041667,173.39668184171683L661.908203125,277.32864091460675L663.6054036458333,332.17990533228624L665.3026041666667,156.26597303296015L666.9998046874999,376.7077237626072L668.6970052083333,283.68652960044244L670.3942057291666,337.81293428134677L672.09140625,323.90280910229984L673.7886067708333,280.5882255291905L675.4858072916667,157.43690030005843L677.1830078125,258.7273655585436L678.8802083333334,303.0849611481059L680.5774088541667,390.4738644872665L682.2746093750001,161.54720511871642L683.9718098958333,334.2192778034898L685.6690104166667,235.45062021682546L687.3662109375,376.30978404609914L689.0634114583333,263.9497470533136L690.7606119791667,223.49265891288147L692.4578124999999,289.13657311024144L694.1550130208333,191.89900840751147L695.8522135416666,259.49619366905904L697.5494140625,399.0535874130543L699.2466145833333,225.6299527826803L700.9438151041667,330.1350866877474L702.641015625,352.0701881751249L704.3382161458334,192.18446369782427L706.0354166666667,334.65918098377404L707.7326171875001,395.6026685550301L709.4298177083333,407.44965410259005L711.1270182291667,219.1789704416455L712.82421875,295.9430429448627L714.5214192708333,114.61906558825545L716.2186197916667,349.1106318531304L717.9158203124999,321.004956128753L719.6130208333333,344.3830940564671L721.3102213541666,255.37411873220375L723.007421875,268.653325677172L724.7046223958333,230.11033804655412L726.4018229166667,341.5777661815624L728.0990234375,271.0718256251209L729.7962239583334,336.32670749203214L731.4934244791667,-39.896472638811595L733.1906250000001,211.00919175545937L734.8878255208333,295.62236707204613L736.5850260416667,297.07300421582875L738.2822265625,341.6732737084597L739.9794270833333,203.13512232696468L741.6766276041667,279.2228718689558L743.3738281249999,332.1179127182219L745.0710286458333,255.71864405638448L746.7682291666666,335.8032165231945" style="fill: none;" fill="none"></path></g></g></g></g></g></g><g transform="translate(72, 377)" clip-path="url(#clip_1)"><clipPath id="clip_1"><rect width="814" height="23"></rect></clipPath><g><g><line x1="0" y1="0" x2="0" y2="5" style="visibility: inherit;" fill="rgb(0, 0, 0)" stroke="rgb(204, 204, 204)" stroke-width="1px"></line><line x1="67.88802083333333" y1="0" x2="67.88802083333333" y2="5" style="visibility: inherit;" fill="rgb(0, 0, 0)" stroke="rgb(204, 204, 204)" stroke-width="1px"></line><line x1="135.77604166666666" y1="0" x2="135.77604166666666" y2="5" style="visibility: inherit;" fill="rgb(0, 0, 0)" stroke="rgb(204, 204, 204)" stroke-width="1px"></line><line x1="203.6640625" y1="0" x2="203.6640625" y2="5" style="visibility: inherit;" fill="rgb(0, 0, 0)" stroke="rgb(204, 204, 204)" stroke-width="1px"></line><line x1="271.5520833333333" y1="0" x2="271.5520833333333" y2="5" style="visibility: inherit;" fill="rgb(0, 0, 0)" stroke="rgb(204, 204, 204)" stroke-width="1px"></line><line x1="339.4401041666667" y1="0" x2="339.4401041666667" y2="5" style="visibility: inherit;" fill="rgb(0, 0, 0)" stroke="rgb(204, 204, 204)" stroke-width="1px"></line><line x1="407.328125" y1="0" x2="407.328125" y2="5" style="visibility: inherit;" fill="rgb(0, 0, 0)" stroke="rgb(204, 204, 204)" stroke-width="1px"></line><line x1="475.21614583333337" y1="0" x2="475.21614583333337" y2="5" style="visibility: inherit;" fill="rgb(0, 0, 0)" stroke="rgb(204, 204, 204)" stroke-width="1px"></line><line x1="543.1041666666666" y1="0" x2="543.1041666666666" y2="5" style="visibility: inherit;" fill="rgb(0, 0, 0)" stroke="rgb(204, 204, 204)" stroke-width="1px"></line><line x1="610.9921875" y1="0" x2="610.9921875" y2="5" style="visibility: inherit;" fill="rgb(0, 0, 0)" stroke="rgb(204, 204, 204)" stroke-width="1px"></line><line x1="678.8802083333334" y1="0" x2="678.8802083333334" y2="5" style="visibility: inherit;" fill="rgb(0, 0, 0)" stroke="rgb(204, 204, 204)" stroke-width="1px"></line><line x1="746.7682291666666" y1="0" x2="746.7682291666666" y2="5" style="visibility: inherit;" fill="rgb(0, 0, 0)" stroke="rgb(204, 204, 204)" stroke-width="1px"></line><line x1="814.65625" y1="0" x2="814.65625" y2="5" style="visibility: inherit;" fill="rgb(0, 0, 0)" stroke="rgb(204, 204, 204)" stroke-width="1px"></line></g><g transform="translate(0, 8)"><text x="0" y="0" dx="0em" dy="0.95em" style="text-anchor: middle; visibility: hidden; font-family: Roboto, sans-serif; font-size: 12px; font-weight: 200;" fill="rgb(33, 33, 33)" stroke="none" stroke-width="1px">-20k</text><text x="67.88802083333333" y="0" dx="0em" dy="0.95em" style="text-anchor: middle; visibility: inherit; font-family: Roboto, sans-serif; font-size: 12px; font-weight: 200;" fill="rgb(33, 33, 33)" stroke="none" stroke-width="1px">0</text><text x="135.77604166666666" y="0" dx="0em" dy="0.95em" style="text-anchor: middle; visibility: inherit; font-family: Roboto, sans-serif; font-size: 12px; font-weight: 200;" fill="rgb(33, 33, 33)" stroke="none" stroke-width="1px">20k</text><text x="203.6640625" y="0" dx="0em" dy="0.95em" style="text-anchor: middle; visibility: inherit; font-family: Roboto, sans-serif; font-size: 12px; font-weight: 200;" fill="rgb(33, 33, 33)" stroke="none" stroke-width="1px">40k</text><text x="271.5520833333333" y="0" dx="0em" dy="0.95em" style="text-anchor: middle; visibility: inherit; font-family: Roboto, sans-serif; font-size: 12px; font-weight: 200;" fill="rgb(33, 33, 33)" stroke="none" stroke-width="1px">60k</text><text x="339.4401041666667" y="0" dx="0em" dy="0.95em" style="text-anchor: middle; visibility: inherit; font-family: Roboto, sans-serif; font-size: 12px; font-weight: 200;" fill="rgb(33, 33, 33)" stroke="none" stroke-width="1px">80k</text><text x="407.328125" y="0" dx="0em" dy="0.95em" style="text-anchor: middle; visibility: inherit; font-family: Roboto, sans-serif; font-size: 12px; font-weight: 200;" fill="rgb(33, 33, 33)" stroke="none" stroke-width="1px">100k</text><text x="475.21614583333337" y="0" dx="0em" dy="0.95em" style="text-anchor: middle; visibility: inherit; font-family: Roboto, sans-serif; font-size: 12px; font-weight: 200;" fill="rgb(33, 33, 33)" stroke="none" stroke-width="1px">120k</text><text x="543.1041666666666" y="0" dx="0em" dy="0.95em" style="text-anchor: middle; visibility: inherit; font-family: Roboto, sans-serif; font-size: 12px; font-weight: 200;" fill="rgb(33, 33, 33)" stroke="none" stroke-width="1px">140k</text><text x="610.9921875" y="0" dx="0em" dy="0.95em" style="text-anchor: middle; visibility: inherit; font-family: Roboto, sans-serif; font-size: 12px; font-weight: 200;" fill="rgb(33, 33, 33)" stroke="none" stroke-width="1px">160k</text><text x="678.8802083333334" y="0" dx="0em" dy="0.95em" style="text-anchor: middle; visibility: inherit; font-family: Roboto, sans-serif; font-size: 12px; font-weight: 200;" fill="rgb(33, 33, 33)" stroke="none" stroke-width="1px">180k</text><text x="746.7682291666666" y="0" dx="0em" dy="0.95em" style="text-anchor: middle; visibility: inherit; font-family: Roboto, sans-serif; font-size: 12px; font-weight: 200;" fill="rgb(33, 33, 33)" stroke="none" stroke-width="1px">200k</text><text x="814.65625" y="0" dx="0em" dy="0.95em" style="text-anchor: middle; visibility: hidden; font-family: Roboto, sans-serif; font-size: 12px; font-weight: 200;" fill="rgb(33, 33, 33)" stroke="none" stroke-width="1px">220k</text></g><line x1="0" y1="0" x2="814.65625" y2="0" fill="rgb(0, 0, 0)" stroke="rgb(204, 204, 204)" stroke-width="1px"></line></g></g></g></g></svg>