<svg viewBox="0 0 887 400" xmlns="http://www.w3.org/2000/svg"><g><g><g><g><g><line x1="72.34375" y1="377" x2="67.34375" y2="377" style="visibility: inherit;" fill="rgb(0, 0, 0)" stroke="rgb(204, 204, 204)" stroke-width="1px"></line><line x1="72.34375" y1="351.8666666666667" x2="67.34375" y2="351.8666666666667" style="visibility: inherit;" fill="rgb(0, 0, 0)" stroke="rgb(204, 204, 204)" stroke-width="1px"></line><line x1="72.34375" y1="326.73333333333335" x2="67.34375" y2="326.73333333333335" style="visibility: inherit;" fill="rgb(0, 0, 0)" stroke="rgb(204, 204, 204)" stroke-width="1px"></line><line x1="72.34375" y1="301.59999999999997" x2="67.34375" y2="301.59999999999997" style="visibility: inherit;" fill="rgb(0, 0, 0)" stroke="rgb(204, 204, 204)" stroke-width="1px"></line><line x1="72.34375" y1="276.4666666666667" x2="67.34375" y2="276.4666666666667" style="visibility: inherit;" fill="rgb(0, 0, 0)" stroke="rgb(204, 204, 204)" stroke-width="1px"></line><line x1="72.34375" y1="251.33333333333331" x2="67.34375" y2="251.33333333333331" style="visibility: inherit;" fill="rgb(0, 0, 0)" stroke="rgb(204, 204, 204)" stroke-width="1px"></line><line x1="72.34375" y1="226.19999999999996" x2="67.34375" y2="226.19999999999996" style="visibility: inherit;" fill="rgb(0, 0, 0)" stroke="rgb(204, 204, 204)" stroke-width="1px"></line><line x1="72.34375" y1="201.06666666666663" x2="67.34375" y2="201.06666666666663" style="visibility: inherit;" fill="rgb(0, 0, 0)" stroke="rgb(204, 204, 204)" stroke-width="1px"></line><line x1="72.34375" y1="175.93333333333328" x2="67.34375" y2="175.93333333333328" style="visibility: inherit;" fill="rgb(0, 0, 0)" stroke="rgb(204, 204, 204)" stroke-width="1px"></line><line x1="72.34375" y1="150.79999999999995" x2="67.34375" y2="150.79999999999995" style="visibility: inherit;" fill="rgb(0, 0, 0)" stroke="rgb(204, 204, 204)" stroke-width="1px"></line><line x1="72.34375" y1="125.66666666666669" x2="67.34375" y2="125.66666666666669" style="visibility: inherit;" fill="rgb(0, 0, 0)" stroke="rgb(204, 204, 204)" stroke-width="1px"></line><line x1="72.34375" y1="100.53333333333336" x2="67.34375" y2="100.53333333333336" style="visibility: inherit;" fill="rgb(0, 0, 0)" stroke="rgb(204, 204, 204)" stroke-width="1px"></line><line x1="72.34375" y1="75.39999999999998" x2="67.34375" y2="75.39999999999998" style="visibility: inherit;" fill="rgb(0, 0, 0)" stroke="rgb(204, 204, 204)" stroke-width="1px"></line><line x1="72.34375" y1="50.26666666666666" x2="67.34375" y2="50.26666666666666" style="visibility: inherit;" fill="rgb(0, 0, 0)" stroke="rgb(204, 204, 204)" stroke-width="1px"></line><line x1="72.34375" y1="25.133333333333287" x2="67.34375" y2="25.133333333333287" style="visibility: inherit;" fill="rgb(0, 0, 0)" stroke="rgb(204, 204, 204)" stroke-width="1px"></line><line x1="72.34375" y1="0" x2="67.34375" y2="0" style="visibility: inherit;" fill="rgb(0, 0, 0)" stroke="rgb(204, 204, 204)" stroke-width="1px"></line></g><g transform="translate(62.34375, 0)"><text x="0" y="377" dx="0em" dy="0.3em" style="text-anchor: end; visibility: hidden; font-family: Roboto, sans-serif; font-size: 12px; font-weight: 200;" fill="rgb(33, 33, 33)" stroke="none" stroke-width="1px">4e-4</text><text x="0" y="351.8666666666667" dx="0em" dy="0.3em" style="text-anchor: end; visibility: inherit; font-family: Roboto, sans-serif; font-size: 12px; font-weight: 200;" fill="rgb(33, 33, 33)" stroke="none" stroke-width="1px">6e-4</text><text x="0" y="326.73333333333335" dx="0em" dy="0.3em" style="text-anchor: end; visibility: inherit; font-family: Roboto, sans-serif; font-size: 12px; font-weight: 200;" fill="rgb(33, 33, 33)" stroke="none" stroke-width="1px">8e-4</text><text x="0" y="301.59999999999997" dx="0em" dy="0.3em" style="text-anchor: end; visibility: inherit; font-family: Roboto, sans-serif; font-size: 12px; font-weight: 200;" fill="rgb(33, 33, 33)" stroke="none" stroke-width="1px">1e-3</text><text x="0" y="276.4666666666667" dx="0em" dy="0.3em" style="text-anchor: end; visibility: inherit; font-family: Roboto, sans-serif; font-size: 12px; font-weight: 200;" fill="rgb(33, 33, 33)" stroke="none" stroke-width="1px">1.2e-3</text><text x="0" y="251.33333333333331" dx="0em" dy="0.3em" style="text-anchor: end; visibility: inherit; font-family: Roboto, sans-serif; font-size: 12px; font-weight: 200;" fill="rgb(33, 33, 33)" stroke="none" stroke-width="1px">1.4e-3</text><text x="0" y="226.19999999999996" dx="0em" dy="0.3em" style="text-anchor: end; visibility: inherit; font-family: Roboto, sans-serif; font-size: 12px; font-weight: 200;" fill="rgb(33, 33, 33)" stroke="none" stroke-width="1px">1.6e-3</text><text x="0" y="201.06666666666663" dx="0em" dy="0.3em" style="text-anchor: end; visibility: inherit; font-family: Roboto, sans-serif; font-size: 12px; font-weight: 200;" fill="rgb(33, 33, 33)" stroke="none" stroke-width="1px">1.8e-3</text><text x="0" y="175.93333333333328" dx="0em" dy="0.3em" style="text-anchor: end; visibility: inherit; font-family: Roboto, sans-serif; font-size: 12px; font-weight: 200;" fill="rgb(33, 33, 33)" stroke="none" stroke-width="1px">2e-3</text><text x="0" y="150.79999999999995" dx="0em" dy="0.3em" style="text-anchor: end; visibility: inherit; font-family: Roboto, sans-serif; font-size: 12px; font-weight: 200;" fill="rgb(33, 33, 33)" stroke="none" stroke-width="1px">2.2e-3</text><text x="0" y="125.66666666666669" dx="0em" dy="0.3em" style="text-anchor: end; visibility: inherit; font-family: Roboto, sans-serif; font-size: 12px; font-weight: 200;" fill="rgb(33, 33, 33)" stroke="none" stroke-width="1px">2.4e-3</text><text x="0" y="100.53333333333336" dx="0em" dy="0.3em" style="text-anchor: end; visibility: inherit; font-family: Roboto, sans-serif; font-size: 12px; font-weight: 200;" fill="rgb(33, 33, 33)" stroke="none" stroke-width="1px">2.6e-3</text><text x="0" y="75.39999999999998" dx="0em" dy="0.3em" style="text-anchor: end; visibility: inherit; font-family: Roboto, sans-serif; font-size: 12px; font-weight: 200;" fill="rgb(33, 33, 33)" stroke="none" stroke-width="1px">2.8e-3</text><text x="0" y="50.26666666666666" dx="0em" dy="0.3em" style="text-anchor: end; visibility: inherit; font-family: Roboto, sans-serif; font-size: 12px; font-weight: 200;" fill="rgb(33, 33, 33)" stroke="none" stroke-width="1px">3e-3</text><text x="0" y="25.133333333333287" dx="0em" dy="0.3em" style="text-anchor: end; visibility: inherit; font-family: Roboto, sans-serif; font-size: 12px; font-weight: 200;" fill="rgb(33, 33, 33)" stroke="none" stroke-width="1px">3.2e-3</text><text x="0" y="0" dx="0em" dy="0.3em" style="text-anchor: end; visibility: hidden; font-family: Roboto, sans-serif; font-size: 12px; font-weight: 200;" fill="rgb(33, 33, 33)" stroke="none" stroke-width="1px">3.4e-3</text></g><line x1="72.34375" y1="0" x2="72.34375" y2="377" fill="rgb(0, 0, 0)" stroke="rgb(204, 204, 204)" stroke-width="1px"></line></g></g><g transform="translate(72, 0)" clip-path="url(#clip_0)"><clipPath id="clip_0"><rect width="814" height="377"></rect></clipPath><g><g><g><line x1="0" y1="0" x2="0" y2="377" fill="rgb(0, 0, 0)" stroke="rgb(66, 66, 66)" stroke-width="1px" opacity="0.25"></line><line x1="67.88802083333333" y1="0" x2="67.88802083333333" y2="377" fill="rgb(0, 0, 0)" stroke="rgb(66, 66, 66)" stroke-width="1px" opacity="0.25"></line><line x1="135.77604166666666" y1="0" x2="135.77604166666666" y2="377" fill="rgb(0, 0, 0)" stroke="rgb(66, 66, 66)" stroke-width="1px" opacity="0.25"></line><line x1="203.6640625" y1="0" x2="203.6640625" y2="377" fill="rgb(0, 0, 0)" stroke="rgb(66, 66, 66)" stroke-width="1px" opacity="0.25"></line><line x1="271.5520833333333" y1="0" x2="271.5520833333333" y2="377" fill="rgb(0, 0, 0)" stroke="rgb(66, 66, 66)" stroke-width="1px" opacity="0.25"></line><line x1="339.4401041666667" y1="0" x2="339.4401041666667" y2="377" fill="rgb(0, 0, 0)" stroke="rgb(66, 66, 66)" stroke-width="1px" opacity="0.25"></line><line x1="407.328125" y1="0" x2="407.328125" y2="377" fill="rgb(0, 0, 0)" stroke="rgb(66, 66, 66)" stroke-width="1px" opacity="0.25"></line><line x1="475.21614583333337" y1="0" x2="475.21614583333337" y2="377" fill="rgb(0, 0, 0)" stroke="rgb(66, 66, 66)" stroke-width="1px" opacity="0.25"></line><line x1="543.1041666666666" y1="0" x2="543.1041666666666" y2="377" fill="rgb(0, 0, 0)" stroke="rgb(66, 66, 66)" stroke-width="1px" opacity="0.25"></line><line x1="610.9921875" y1="0" x2="610.9921875" y2="377" fill="rgb(0, 0, 0)" stroke="rgb(66, 66, 66)" stroke-width="1px" opacity="0.25"></line><line x1="678.8802083333334" y1="0" x2="678.8802083333334" y2="377" fill="rgb(0, 0, 0)" stroke="rgb(66, 66, 66)" stroke-width="1px" opacity="0.25"></line><line x1="746.7682291666666" y1="0" x2="746.7682291666666" y2="377" fill="rgb(0, 0, 0)" stroke="rgb(66, 66, 66)" stroke-width="1px" opacity="0.25"></line><line x1="814.65625" y1="0" x2="814.65625" y2="377" fill="rgb(0, 0, 0)" stroke="rgb(66, 66, 66)" stroke-width="1px" opacity="0.25"></line></g><g><line x1="0" y1="377" x2="814.65625" y2="377" fill="rgb(0, 0, 0)" stroke="rgb(66, 66, 66)" stroke-width="1px" opacity="0.25"></line><line x1="0" y1="351.8666666666667" x2="814.65625" y2="351.8666666666667" fill="rgb(0, 0, 0)" stroke="rgb(66, 66, 66)" stroke-width="1px" opacity="0.25"></line><line x1="0" y1="326.73333333333335" x2="814.65625" y2="326.73333333333335" fill="rgb(0, 0, 0)" stroke="rgb(66, 66, 66)" stroke-width="1px" opacity="0.25"></line><line x1="0" y1="301.59999999999997" x2="814.65625" y2="301.59999999999997" fill="rgb(0, 0, 0)" stroke="rgb(66, 66, 66)" stroke-width="1px" opacity="0.25"></line><line x1="0" y1="276.4666666666667" x2="814.65625" y2="276.4666666666667" fill="rgb(0, 0, 0)" stroke="rgb(66, 66, 66)" stroke-width="1px" opacity="0.25"></line><line x1="0" y1="251.33333333333331" x2="814.65625" y2="251.33333333333331" fill="rgb(0, 0, 0)" stroke="rgb(66, 66, 66)" stroke-width="1px" opacity="0.25"></line><line x1="0" y1="226.19999999999996" x2="814.65625" y2="226.19999999999996" fill="rgb(0, 0, 0)" stroke="rgb(66, 66, 66)" stroke-width="1px" opacity="0.25"></line><line x1="0" y1="201.06666666666663" x2="814.65625" y2="201.06666666666663" fill="rgb(0, 0, 0)" stroke="rgb(66, 66, 66)" stroke-width="1px" opacity="0.25"></line><line x1="0" y1="175.93333333333328" x2="814.65625" y2="175.93333333333328" fill="rgb(0, 0, 0)" stroke="rgb(66, 66, 66)" stroke-width="1px" opacity="0.25"></line><line x1="0" y1="150.79999999999995" x2="814.65625" y2="150.79999999999995" fill="rgb(0, 0, 0)" stroke="rgb(66, 66, 66)" stroke-width="1px" opacity="0.25"></line><line x1="0" y1="125.66666666666669" x2="814.65625" y2="125.66666666666669" fill="rgb(0, 0, 0)" stroke="rgb(66, 66, 66)" stroke-width="1px" opacity="0.25"></line><line x1="0" y1="100.53333333333336" x2="814.65625" y2="100.53333333333336" fill="rgb(0, 0, 0)" stroke="rgb(66, 66, 66)" stroke-width="1px" opacity="0.25"></line><line x1="0" y1="75.39999999999998" x2="814.65625" y2="75.39999999999998" fill="rgb(0, 0, 0)" stroke="rgb(66, 66, 66)" stroke-width="1px" opacity="0.25"></line><line x1="0" y1="50.26666666666666" x2="814.65625" y2="50.26666666666666" fill="rgb(0, 0, 0)" stroke="rgb(66, 66, 66)" stroke-width="1px" opacity="0.25"></line><line x1="0" y1="25.133333333333287" x2="814.65625" y2="25.133333333333287" fill="rgb(0, 0, 0)" stroke="rgb(66, 66, 66)" stroke-width="1px" opacity="0.25"></line><line x1="0" y1="0" x2="814.65625" y2="0" fill="rgb(0, 0, 0)" stroke="rgb(66, 66, 66)" stroke-width="1px" opacity="0.25"></line></g></g></g><g><g><line x1="0" y1="427.26666666666665" x2="814.65625" y2="427.26666666666665" fill="rgb(0, 0, 0)" stroke="rgb(153, 153, 153)" stroke-width="1.5px"></line></g></g><g><g><line x1="67.88802083333333" y1="0" x2="67.88802083333333" y2="377" fill="rgb(0, 0, 0)" stroke="rgb(153, 153, 153)" stroke-width="1.5px"></line></g></g><g><g><g><g><g><path stroke="rgb(255, 112, 67)" stroke-width="2px" d="M91.64882812500001,-116.78210535239167L93.34602864583333,27.454279025007438L95.04322916666666,93.41180169777064L96.7404296875,148.5298100174518L98.43763020833333,201.2655444436462L100.13483072916667,180.75850688617822L101.83203125,-7.7093488438094875L103.52923177083333,59.76382063369035L105.22643229166668,-9.688547191308688L106.9236328125,5.543853901276659L108.62083333333334,-119.04788271043614L110.31803385416666,30.46297276768664L112.015234375,118.00453706822697L113.71243489583334,193.07218786631495L115.40963541666666,154.53081880729812L117.1068359375,198.44899915697005L118.80403645833334,117.75119606012427L120.50123697916666,128.3825219581518L122.1984375,140.4764993415191L123.89563802083332,169.89958980262548L125.59283854166667,111.68491054648369L127.2900390625,64.73155818118262L128.98723958333332,27.227606806569437L130.68444010416667,15.14411500621034L132.38164062500002,24.576816886140698L134.07884114583334,93.769260292193L135.77604166666666,189.51177761422002L137.4732421875,243.98011515931196L139.17044270833333,280.9684976247089L140.86764322916667,284.883611596635L142.56484375,305.0651732432652L144.26204427083334,225.73681122565083L145.95924479166666,143.88663277163073L147.65644531249998,107.2369021479045L149.35364583333333,71.31069695019532L151.05084635416668,139.56410320422364L152.748046875,54.65193183810844L154.44524739583332,37.3627313908412L156.14244791666667,52.95969683589125L157.83964843750002,161.19286972531043L159.53684895833334,238.58374897229334L161.23404947916666,281.90224319330594L162.93125,247.8876258818385L164.62845052083333,208.71175499998452L166.32565104166667,165.63588325192927L168.0228515625,157.42997487580976L169.72005208333334,204.74354968625173L171.41725260416666,257.4633632903031L173.11445312499998,227.72336230109983L174.81165364583333,288.82625569575583L176.50885416666668,305.5212408922031L178.2060546875,209.5673684777961L179.90325520833332,202.04647865323102L181.60045572916667,190.9065473640633L183.29765625000002,187.01801001581583L184.99485677083334,247.00897745871865L186.69205729166666,243.44265270136887L188.3892578125,286.79526027230526L190.08645833333333,309.587135448149L191.78365885416667,275.3323392653015L193.480859375,241.96972618976017L195.17805989583334,248.2304258658466L196.87526041666666,252.70479255851467L198.57246093749998,245.28487542422425L200.26966145833333,192.47391694815047L201.96686197916668,196.20517133197336L203.6640625,238.28366208849042L205.36126302083332,152.58570221246885L207.05846354166667,187.7647168248789L208.7556640625,262.95340390605236L210.45286458333337,252.74176966027915L212.15006510416669,233.07533301788965L213.847265625,239.38561220608196L215.54446614583333,171.60790981799582L217.24166666666667,255.86374535775565L218.9388671875,285.3324314333854L220.63606770833331,313.50905774124857L222.33326822916663,282.1941426801735L224.03046875,251.45503652642986L225.72766927083333,200.1569415548989L227.42486979166668,238.49444657000203L229.1220703125,146.56286839842173L230.81927083333332,185.88599632863824L232.51647135416667,200.9554826835868L234.213671875,226.50721425076787L235.91087239583337,283.8191042912133L237.60807291666669,266.53346705285475L239.3052734375,302.79923872337895L241.00247395833333,332.5831617447716L242.69967447916667,275.1370421777208L244.396875,257.23887043491237L246.09407552083331,278.3525493232994L247.79127604166663,305.8255087031949L249.4884765625,299.1958191228824L251.18567708333333,292.794706410418L252.88287760416668,284.0433693847557L254.580078125,273.1969960562289L256.27727864583335,283.8131252190113L257.97447916666664,294.91766325580664L259.6716796875,325.0896560228969L261.36888020833334,315.20097518031923L263.0660807291667,327.16595528378167L264.76328125000003,264.66152923804964L266.4604817708333,299.49624163264L268.1576822916667,315.11523983300856L269.85488281249997,288.1289354216822L271.5520833333333,316.53387420861037L273.24928385416666,338.16822772682696L274.946484375,291.70070255986445L276.64368489583336,324.4928291837246L278.34088541666665,319.92642265125335L280.0380859375,328.65049723762803L281.73528645833335,250.71846568139512L283.43248697916664,277.13729167154696L285.1296875,284.2348351625627L286.82688802083334,324.64042282958235L288.5240885416667,344.5015815457579L290.22128906250003,270.9778733467585L291.9184895833333,293.12466938981817L293.6156901041667,271.49272811205327L295.31289062499997,307.24124435977075L297.0100911458333,336.7660555032957L298.70729166666666,292.5039685506961L300.4044921875,286.2164037287339L302.10169270833336,297.39639264482383L303.79889322916665,224.2734239319749L305.49609375,213.6697642097495L307.19329427083335,226.73972124621503L308.89049479166664,215.366164907432L310.5876953125,210.81899385133866L312.28489583333334,236.6410586320131L313.9820963541667,189.29471583824966L315.67929687500003,134.70386329578324L317.3764973958333,200.8689244825361L319.0736979166667,175.53252287429876L320.77089843749997,200.26395536945145L322.4680989583333,194.74251223635204L324.16529947916666,217.05488697299282L325.8625,201.25150473942705L327.55970052083336,194.77420437095773L329.25690104166665,256.97167570741146L330.9541015625,299.0617420831765L332.65130208333335,327.5559175001127L334.34850260416664,312.4116434326694L336.045703125,246.4242419991945L337.74290364583334,294.6311789716714L339.4401041666667,269.74739650594785L341.13730468750003,236.5982182571248L342.8345052083333,249.77996489625409L344.5317057291667,200.7697485364749L346.22890624999997,221.7218393450344L347.9261067708333,282.1378698174935L349.62330729166666,287.86339142808004L351.3205078125,324.5268874393288L353.01770833333336,257.94248140179417L354.71490885416665,217.11851362843294L356.412109375,271.84148006355156L358.10930989583335,309.5360558076189L359.80651041666664,337.03238876248685L361.5037109375,295.2675080373007L363.20091145833334,323.6901600201026L364.8981119791667,341.0077761072623L366.59531250000003,287.86669976678735L368.2925130208333,276.376232721809L369.9897135416667,316.33354609230366L371.68691406249997,332.01916684820276L373.3841145833333,359.0368981372159L375.08131510416666,372.41263917391547L376.778515625,293.0331764874163L378.47571614583336,230.50336100368511L380.17291666666665,248.46129929935225L381.8701171875,308.7306720237569L383.56731770833335,339.57487059218255L385.26451822916664,352.8942471743764L386.96171875,316.8556785997932L388.65891927083334,324.00045761633027L390.3561197916667,320.7120484934212L392.05332031250003,296.5774166620848L393.7505208333333,294.55814340909285L395.4477213541667,232.68016698519367L397.14492187499997,299.98939092719047L398.8421223958333,302.4698102402622L400.53932291666666,330.5613359608512L402.2365234375,313.8141040300783L403.93372395833336,252.68296140743033L405.63092447916665,214.00529747732125L407.328125,212.96720524238134L409.02532552083335,256.8550760586828L410.72252604166664,286.5119836895155L412.4197265625,323.28552512145586L414.11692708333334,305.9358929132911L415.81412760416663,301.3161462055192L417.511328125,310.6069504968005L419.20852864583327,259.5206080729769L420.90572916666673,282.13193203677776L422.6029296875,281.74062011643764L424.30013020833337,317.57019090341L425.99733072916666,313.5708415501627L427.69453125,289.06895952857906L429.39173177083336,248.5459922844164L431.08893229166665,244.449730399787L432.7861328125,264.6897229563681L434.48333333333335,238.74476589556954L436.18053385416664,261.70996035665627L437.877734375,218.78197591983488L439.57493489583334,272.6468017370619L441.27213541666663,300.4610234934012L442.9693359375,292.19364597876887L444.66653645833327,241.2761511316201L446.36373697916673,260.0471154904793L448.0609375,280.5965753750611L449.75813802083337,255.9613495207543L451.45533854166666,258.7376458587526L453.1525390625,234.29431441693174L454.84973958333336,289.31546165158926L456.54694010416665,253.88201483233615L458.244140625,264.31729931311116L459.94134114583335,261.7011861856608L461.63854166666664,305.02577649432516L463.3357421875,262.8152472486531L465.03294270833334,282.18362799277025L466.73014322916663,238.40580941621525L468.42734375,247.36449340664288L470.12454427083327,236.65966676212614L471.82174479166673,257.4924544470992L473.5189453125,253.23781519164552L475.21614583333337,266.1011398498759L476.91334635416666,259.99391125169666L478.610546875,209.85419337159752L480.30774739583336,244.77593332468282L482.00494791666665,226.46200264683154L483.7021484375,241.21435277503704L485.39934895833335,168.85266174371222L487.09654947916664,203.68473030489793L488.79375,275.70614003285533L490.49095052083334,250.5558747294233L492.18815104166663,279.34705026102426L493.8853515625,261.68177030005967L495.58255208333327,262.55199227185403L497.27975260416673,260.71189598166256L498.976953125,243.3281315537193L500.67415364583337,251.55598342737943L502.37135416666666,236.1302794179105L504.0685546875,235.5888870278219L505.76575520833336,202.30855851427032L507.46295572916665,244.21348150668726L509.16015625,301.06183250663344L510.85735677083335,294.931780379793L512.5545572916667,255.25423214718057L514.2517578124999,292.2878412943519L515.9489583333333,256.4179737031571L517.6461588541666,259.1495884967414L519.343359375,195.03671704347337L521.0405598958333,239.04073772352677L522.7377604166667,227.42639131896735L524.4349609375,248.6073018934262L526.1321614583334,271.0910455112218L527.8293619791667,279.883282917364L529.5265625000001,310.7108002756776L531.2237630208333,287.5861059922074L532.9209635416667,302.92592506871694L534.6181640625,288.2286596197599L536.3153645833333,281.89496139618046L538.0125651041667,253.7637115915554L539.7097656249999,277.3770830407949L541.4069661458333,291.35596955360245L543.1041666666666,324.4597998458496L544.8013671875,310.1955377631397L546.4985677083333,220.4968105155037L548.1957682291667,181.9360053532008L549.89296875,252.68657625245407L551.5901692708334,248.01990171441346L553.2873697916667,297.2416497318456L554.9845703125001,315.8908231648287L556.6817708333333,240.96812282100203L558.3789713541667,260.2252862893982L560.076171875,236.82673973764634L561.7733723958333,284.5522071615025L563.4705729166667,236.92806378464883L565.1677734374999,289.3393872447408L566.8649739583333,319.9565833585519L568.5621744791666,280.48883226404433L570.259375,307.1103301866492L571.9565755208333,277.8058073912496L573.6537760416667,227.35758977141583L575.3509765625,244.9020446140961L577.0481770833334,226.73503342232482L578.7453776041667,238.69172222419903L580.4425781250001,253.30051885351634L582.1397786458333,252.43172766402915L583.8369791666667,302.10940924602954L585.5341796875,304.4761327057424L587.2313802083333,218.79382731826158L588.9285807291667,274.05692210285997L590.6257812499999,269.1928881235021L592.3229817708333,299.06932570011753L594.0201822916666,275.6891649696758L595.7173828125,295.9248888489845L597.4145833333333,276.31869930983544L599.1117838541667,284.5718396254289L600.808984375,248.81797630044267L602.5061848958334,294.3398891145882L604.2033854166667,335.43071570145594L605.9005859375001,288.6631237984051L607.5977864583333,294.7842792996476L609.2949869791667,312.5880642596609L610.9921875,345.40129029288744L612.6893880208333,355.19172288109525L614.3865885416667,358.17135234492815L616.0837890624999,351.9233569921248L617.7809895833333,304.1598447574144L619.4781901041666,270.94461098206835L621.175390625,279.75336524012863L622.8725911458333,274.0902320620955L624.5697916666667,246.892302836654L626.2669921875,254.55779204895737L627.9641927083334,261.0566533815701L629.6613932291667,264.942341315235L631.3585937500001,265.9211783747039L633.0557942708333,280.4881566813188L634.7529947916667,207.86881271097639L636.4501953125,220.83727337254732L638.1473958333333,216.36620998819856L639.8445963541667,240.72134007008486L641.5417968749999,250.16832891042L643.2389973958333,257.6647740092226L644.9361979166666,145.6616382321525L646.6333984375,243.2116629195012L648.3305989583333,240.75054685012287L650.0277994791667,253.44322800270191L651.725,280.633478215959L653.4222005208334,300.3230460830662L655.1194010416667,241.44384473690187L656.8166015625001,239.3746832962312L658.5138020833333,288.58888065837687L660.2110026041667,247.50024672874528L661.908203125,252.60144372924896L663.6054036458333,273.948477700371L665.3026041666667,229.0051951482008L666.9998046874999,281.8802879037674L668.6970052083333,269.30091418992276L670.3942057291666,289.00054117483376L672.09140625,303.8790146568093L673.7886067708333,292.6889007918988L675.4858072916667,245.75767599754255L677.1830078125,249.66973998241255L678.8802083333334,263.5536582869349L680.5774088541667,308.51616688736254L682.2746093750001,245.06793012287002L683.9718098958333,271.47456614938346L685.6690104166667,257.935163468621L687.3662109375,301.0853869266322L689.0634114583333,287.6820025407728L690.7606119791667,262.8392317808741L692.4578124999999,276.0988700741772L694.1550130208333,247.39651485821074L695.8522135416666,245.5808229770688L697.5494140625,298.6393412059341L699.2466145833333,271.27338706875605L700.9438151041667,292.4448746899874L702.641015625,313.8798969271969L704.3382161458334,267.91730011802554L706.0354166666667,289.56446117382234L707.7326171875001,323.8093939059485L709.4298177083333,350.2423792564974L711.1270182291667,302.9850959660573L712.82421875,295.40656566266495L714.5214192708333,232.61861032696135L716.2186197916667,274.9338325141464L717.9158203124999,284.81922675755186L719.6130208333333,307.47052452506557L721.3102213541666,283.2948848123616L723.007421875,275.51156896421406L724.7046223958333,254.01767201045112L726.4018229166667,282.7540812322261L728.0990234375,282.14409327060054L729.7962239583334,298.1402123383685L731.4934244791667,174.6791079728506L733.1906250000001,193.71423690837835L734.8878255208333,225.8027374534143L736.5850260416667,253.43065006367854L738.2822265625,285.39455986229825L739.9794270833333,250.88765307034004L741.6766276041667,264.2621926682588L743.3738281249999,289.6115515651244L745.0710286458333,276.1846315840545L746.7682291666666,299.37390989045775" style="fill: none;" fill="none"></path></g></g></g></g><g opacity="0.2"><g><g><g><path stroke="rgb(255, 112, 67)" stroke-width="2px" d="M76.3740234375,-651.2063831701877L78.07122395833333,54.11261933334169L79.76842447916667,81.80072251806655L81.465625,-453.88152993495277L83.16282552083334,115.60379178362587L84.86002604166667,-284.4008769209187L88.25442708333334,-63.086966750149934L89.95162760416666,73.15645778340598L91.64882812500001,-218.65017184267447L93.34602864583333,243.70712891786047L95.04322916666666,192.32017469381287L96.7404296875,231.1928280406321L98.43763020833333,280.361112324583L100.13483072916667,149.9998249744375L101.83203125,-290.40079641367004L103.52923177083333,160.9713546165575L105.22643229166668,-113.86572771295911L106.9236328125,28.392275097842006L108.62083333333334,-305.9346020832659L110.31803385416666,254.72861838936802L112.015234375,249.31665952416756L113.71243489583334,305.6735488169205L115.40963541666666,96.71880072082081L117.1068359375,264.3262454085673L118.80403645833334,-3.2954818248748614L120.50123697916666,144.3295086899151L122.1984375,158.617463972792L123.89563802083332,214.03422338676944L125.59283854166667,24.36289416414992L127.2900390625,-5.698469156026824L130.68444010416667,-2.981122582157464L132.38164062500002,38.725869653498094L134.07884114583334,197.55792517003908L135.77604166666666,333.1255534052849L137.4732421875,325.6826214114204L139.17044270833333,336.45107129610454L140.86764322916667,290.75628255282834L142.56484375,335.33751570796596L144.26204427083334,106.74426821159818L145.95924479166666,21.11136509825782L147.65644531249998,52.26230621437231L149.35364583333333,17.421389154841464L151.05084635416668,241.94421258388707L152.748046875,-72.71632521003491L154.44524739583332,11.428930720065992L156.14244791666667,76.35514500339826L157.83964843750002,323.5426290591558L159.53684895833334,354.6700678426462L161.23404947916666,346.879984524784L162.93125,196.86569991465655L164.62845052083333,149.9479486772169L166.32565104166667,101.02207562985518L168.0228515625,145.1211123116314L169.72005208333334,275.71391190191105L171.41725260416666,336.5430836963778L173.11445312499998,183.11336081729576L174.81165364583333,380.4805957877388L176.50885416666668,330.5637186868737L178.2060546875,65.6365598561863L179.90325520833332,190.76514391638335L181.60045572916667,174.1966504303117L183.29765625000002,181.1852039934446L184.99485677083334,336.9954286230728L186.69205729166666,238.09316556534418L188.3892578125,351.8241716287099L190.08645833333333,343.77494821191453L191.78365885416667,223.95014499103024L193.480859375,191.92580657644817L195.17805989583334,257.6214753799761L196.87526041666666,259.41634259751686L198.57246093749998,234.15499972278872L200.26966145833333,113.25747923403976L201.96686197916668,201.80205290770778L203.6640625,301.40139822326597L205.36126302083332,24.038762398436642L207.05846354166667,240.53323874349394L208.7556640625,375.73643452781255L210.45286458333337,237.4243182916194L212.15006510416669,203.5756780543054L213.847265625,248.85103098837033L215.54446614583333,69.94135623586675L217.24166666666667,382.24749866739535L218.9388671875,329.53546054683005L220.63606770833331,355.77399720304334L222.33326822916663,235.22177008856085L224.03046875,205.34637729581442L225.72766927083333,123.20979909760257L227.42486979166668,296.0007040926565L229.1220703125,8.66550114105144L230.81927083333332,244.87068822396293L232.51647135416667,223.55971221600964L234.213671875,264.8348116015394L235.91087239583337,369.78693935188153L237.60807291666669,240.60501119531688L239.3052734375,357.1978962291653L241.00247395833333,377.25904627686054L242.69967447916667,188.96786282714453L244.396875,230.39161282069978L246.09407552083331,310.02306765587997L247.79127604166663,347.0349477730381L249.4884765625,289.2512847524136L251.18567708333333,283.1930373417213L252.88287760416668,270.91636384626224L254.580078125,256.9274360634386L256.27727864583335,299.7373189631849L257.97447916666664,311.5744703109997L259.6716796875,370.34764517353227L261.36888020833334,300.3679539164528L263.0660807291667,345.1134254389753L264.76328125000003,170.90489016945162L266.4604817708333,351.74831022452565L268.1576822916667,338.5437371335613L269.85488281249997,247.6494788046926L271.5520833333333,359.1412823890025L273.24928385416666,370.6197580041519L274.946484375,221.99941480942067L276.64368489583336,373.68101911951476L278.34088541666665,313.07681285254654L280.0380859375,341.73660911719L281.73528645833335,133.82041834704575L283.43248697916664,316.76553065677484L285.1296875,294.8811503990863L286.82688802083334,385.24880433011185L288.5240885416667,374.2933196200213L290.22128906250003,160.69231104825928L291.9184895833333,326.3448634544077L293.6156901041667,239.04481619540599L295.31289062499997,360.86401873134696L297.0100911458333,381.0532722185832L298.70729166666666,226.11083812179663L300.4044921875,276.7850564957906L302.10169270833336,314.1663760189588L303.79889322916665,114.58897086270152L305.49609375,197.76427462641146L307.19329427083335,246.3446568009133L308.89049479166664,198.3058303992574L310.5876953125,203.99823726719865L312.28489583333334,275.37415580302473L313.9820963541667,118.27520164760449L315.67929687500003,52.81758448208371L317.3764973958333,300.11651626266536L319.0736979166667,137.5279204619427L320.77089843749997,237.36110411218056L322.4680989583333,186.4603475367029L324.16529947916666,250.52344907795384L325.8625,177.54643138907846L327.55970052083336,185.05825381825366L329.25690104166665,350.2678827120923L330.9541015625,362.19684164682405L332.65130208333335,370.29718062551694L334.34850260416664,289.69523233150437L336.045703125,147.44313984898224L337.74290364583334,366.9415844303866L339.4401041666667,232.42172280736264L341.13730468750003,186.87445088389018L342.8345052083333,269.552584854948L344.5317057291667,127.25442399680612L346.22890624999997,253.14997555787363L347.9261067708333,372.76191552618207L349.62330729166666,296.45167384395995L351.3205078125,379.5221314562019L353.01770833333336,158.0658723454922L354.71490885416665,155.8825619683911L356.412109375,353.92592971622946L358.10930989583335,366.0779194237199L359.80651041666664,378.27688819478885L361.5037109375,232.62018694952127L363.20091145833334,366.32413799430554L364.8981119791667,366.98420023800185L366.59531250000003,208.1550852560748L368.2925130208333,259.1405321543415L369.9897135416667,376.2695161480457L371.68691406249997,355.54759798205146L373.3841145833333,399.5634950707356L375.08131510416666,392.4762507289648L376.778515625,173.96398245766756L378.47571614583336,136.70863777808842L380.17291666666665,275.3982067428529L381.8701171875,399.1347311103639L383.56731770833335,385.84116844482105L385.26451822916664,372.8733120476672L386.96171875,262.7978257379184L388.65891927083334,334.7176261411359L390.3561197916667,315.77943480905765L392.05332031250003,260.37546891508L393.7505208333333,291.52923352960494L395.4477213541667,139.86320234934485L397.14492187499997,400.9532268401856L398.8421223958333,306.19043920986974L400.53932291666666,372.69862454173466L402.2365234375,288.6932561339189L403.93372395833336,160.98624747345843L405.63092447916665,155.98880158215758L407.328125,211.41006688997146L409.02532552083335,322.686882283135L410.72252604166664,330.99734513576453L412.4197265625,378.4458372693664L414.11692708333334,279.911444601044L415.81412760416663,294.38652614386126L417.511328125,324.5431569337224L419.20852864583327,182.89109443724152L420.90572916666673,316.04891798247894L422.6029296875,281.15365223592767L424.30013020833337,371.3145470838683L425.99733072916666,307.5718175202918L427.69453125,252.31613649620363L429.39173177083336,187.76154141817238L431.08893229166665,238.3053375728428L432.7861328125,295.04971179123964L434.48333333333335,199.8273303043718L436.18053385416664,296.1577520482863L437.877734375,154.3899992646028L439.57493489583334,353.4440404629024L441.27213541666663,342.18235612791034L442.9693359375,279.79257970682033L444.66653645833327,164.89990886089697L446.36373697916673,288.20356202876815L448.0609375,311.42076520193365L449.75813802083337,219.00851073929414L451.45533854166666,262.90209036575004L453.1525390625,197.62931725420054L454.84973958333336,371.8471825035755L456.54694010416665,200.73184460345652L458.244140625,279.97022603427365L459.94134114583335,257.7770164944852L461.63854166666664,370.0126619573217L463.3357421875,199.4994533801451L465.03294270833334,311.2361991089458L466.73014322916663,172.73908155138292L468.42734375,260.80251939228424L470.12454427083327,220.602426795351L471.82174479166673,288.7416359745587L473.5189453125,246.85585630846515L475.21614583333337,285.39612683722123L476.91334635416666,250.83306835442778L478.610546875,134.64461655144885L480.30774739583336,297.15854325431087L482.00494791666665,198.99110663005456L483.7021484375,263.3428779673452L485.39934895833335,60.3101251967251L487.09654947916664,255.9328331466764L488.79375,383.73825462479147L490.49095052083334,212.83047677427527L492.18815104166663,322.5338135584258L493.8853515625,235.1838503586128L495.58255208333327,263.8573252295454L497.27975260416673,257.9517515463754L498.976953125,217.25248491180434L500.67415364583337,263.89776123786964L502.37135416666666,212.9917234037071L504.0685546875,234.77679844268903L505.76575520833336,152.388065743943L507.46295572916665,307.0708659953127L509.16015625,386.33435900655263L510.85735677083335,285.73670218953237L512.5545572916667,195.73790979826197L514.2517578124999,347.83825501510876L515.9489583333333,202.6131723163649L517.6461588541666,263.2470106871177L519.343359375,98.86740986357131L521.0405598958333,305.0467687436069L522.7377604166667,210.0048717121283L524.4349609375,280.3786677551145L526.1321614583334,304.81666093791523L527.8293619791667,293.07163902657726L529.5265625000001,356.9520763131479L531.2237630208333,252.89906456700214L532.9209635416667,325.9356536834811L534.6181640625,266.18276144632443L536.3153645833333,272.3944140608112L538.0125651041667,211.56683688461777L539.7097656249999,312.7971402146543L541.4069661458333,312.3242993228137L543.1041666666666,374.11554528422033L544.8013671875,288.79914463907477L546.4985677083333,85.94871964404979L548.1957682291667,124.09479760974644L549.89296875,358.8124326013339L551.5901692708334,241.0198899073526L553.2873697916667,371.07427175799387L554.9845703125001,343.86458331430333L556.6817708333333,128.58407230526205L558.3789713541667,289.1110314919923L560.076171875,201.7289199100186L561.7733723958333,356.1404082972867L563.4705729166667,165.49184871936836L565.1677734374999,367.95637243487874L566.8649739583333,365.88237752926847L568.5621744791666,221.28720562228307L570.259375,347.0425770705566L571.9565755208333,233.84902319815006L573.6537760416667,151.68526334166523L575.3509765625,271.2187268781165L577.0481770833334,199.4845166346679L578.7453776041667,256.6267554270103L580.4425781250001,275.21371379749223L582.1397786458333,251.12854087979838L583.8369791666667,376.6259316190301L585.5341796875,308.02621789531156L587.2313802083333,90.27036923704048L588.9285807291667,356.95156427975746L590.6257812499999,261.8968371544654L592.3229817708333,343.88398206504064L594.0201822916666,240.6189238740131L595.7173828125,326.27847466794776L597.4145833333333,246.9094150011117L599.1117838541667,296.951550098819L600.808984375,195.18718131296333L602.5061848958334,362.62275833580645L604.2033854166667,397.0669555817576L605.9005859375001,218.51173594382897L607.5977864583333,303.9660125515113L609.2949869791667,339.2937416996807L610.9921875,394.6211293427274L612.6893880208333,369.8773717634069L614.3865885416667,362.64079654067757L616.0837890624999,342.55136396291977L617.7809895833333,232.51457640534886L619.4781901041666,221.12176031904914L621.175390625,292.966496627219L622.8725911458333,265.5955322950457L624.5697916666667,206.09540899849185L626.2669921875,266.0560258674125L627.9641927083334,270.804945380489L629.6613932291667,270.7708732157324L631.3585937500001,267.3894339639072L633.0557942708333,302.3386241412411L634.7529947916667,98.93979675546287L636.4501953125,240.28996436490365L638.1473958333333,209.65961491167542L639.8445963541667,277.2540351929143L641.5417968749999,264.3388121709227L643.2389973958333,268.90944165742644L644.9361979166666,-22.343065433452566L646.6333984375,389.5366999505243L648.3305989583333,237.05887274605527L650.0277994791667,272.48224973157045L651.725,321.4188535358446L653.4222005208334,329.8573978837269L655.1194010416667,153.12504271765545L656.8166015625001,236.27094113522514L658.5138020833333,362.4101767015954L660.2110026041667,185.86729583429792L661.908203125,260.2532392300044L663.6054036458333,305.96902865705385L665.3026041666667,161.5902713199456L666.9998046874999,361.1929270371174L668.6970052083333,250.43185361915573L670.3942057291666,318.54998165220024L672.09140625,326.1967248797727L673.7886067708333,275.9037299945329L675.4858072916667,175.36083880600825L677.1830078125,255.5378359597176L678.8802083333334,284.3795357437183L680.5774088541667,375.959929788004L682.2746093750001,149.8955749761313L683.9718098958333,311.08452018915364L685.6690104166667,237.62605944747725L687.3662109375,365.81072211364904L689.0634114583333,267.57692596198365L690.7606119791667,225.57507564102605L692.4578124999999,295.9883275141318L694.1550130208333,204.342982034261L695.8522135416666,242.8572851553559L697.5494140625,378.22711854923205L699.2466145833333,230.22445586298898L700.9438151041667,324.2021061218344L702.641015625,346.03243028301125L704.3382161458334,198.97340490426865L706.0354166666667,322.0352027575175L707.7326171875001,375.1767930041378L709.4298177083333,389.89185728232064L711.1270182291667,232.0991710303972L712.82421875,284.0387702075764L714.5214192708333,138.4366773234059L716.2186197916667,338.4066657949239L717.9158203124999,299.64731812266007L719.6130208333333,341.4474711763362L721.3102213541666,247.03142524330565L723.007421875,263.8365951919928L724.7046223958333,221.77682657980665L726.4018229166667,325.85869506488865L728.0990234375,281.2291113281622L729.7962239583334,322.13439094002047L731.4934244791667,-10.51254857542618L733.1906250000001,222.26693031166985L734.8878255208333,273.93548827096816L736.5850260416667,294.87251897907504L738.2822265625,333.34042456022775L739.9794270833333,199.12729288240268L741.6766276041667,284.324002065137L743.3738281249999,327.63558991042277L745.0710286458333,256.04425161244967L746.7682291666666,334.15782735006263" style="fill: none;" fill="none"></path></g></g></g></g></g></g><g transform="translate(72, 377)" clip-path="url(#clip_1)"><clipPath id="clip_1"><rect width="814" height="23"></rect></clipPath><g><g><line x1="0" y1="0" x2="0" y2="5" style="visibility: inherit;" fill="rgb(0, 0, 0)" stroke="rgb(204, 204, 204)" stroke-width="1px"></line><line x1="67.88802083333333" y1="0" x2="67.88802083333333" y2="5" style="visibility: inherit;" fill="rgb(0, 0, 0)" stroke="rgb(204, 204, 204)" stroke-width="1px"></line><line x1="135.77604166666666" y1="0" x2="135.77604166666666" y2="5" style="visibility: inherit;" fill="rgb(0, 0, 0)" stroke="rgb(204, 204, 204)" stroke-width="1px"></line><line x1="203.6640625" y1="0" x2="203.6640625" y2="5" style="visibility: inherit;" fill="rgb(0, 0, 0)" stroke="rgb(204, 204, 204)" stroke-width="1px"></line><line x1="271.5520833333333" y1="0" x2="271.5520833333333" y2="5" style="visibility: inherit;" fill="rgb(0, 0, 0)" stroke="rgb(204, 204, 204)" stroke-width="1px"></line><line x1="339.4401041666667" y1="0" x2="339.4401041666667" y2="5" style="visibility: inherit;" fill="rgb(0, 0, 0)" stroke="rgb(204, 204, 204)" stroke-width="1px"></line><line x1="407.328125" y1="0" x2="407.328125" y2="5" style="visibility: inherit;" fill="rgb(0, 0, 0)" stroke="rgb(204, 204, 204)" stroke-width="1px"></line><line x1="475.21614583333337" y1="0" x2="475.21614583333337" y2="5" style="visibility: inherit;" fill="rgb(0, 0, 0)" stroke="rgb(204, 204, 204)" stroke-width="1px"></line><line x1="543.1041666666666" y1="0" x2="543.1041666666666" y2="5" style="visibility: inherit;" fill="rgb(0, 0, 0)" stroke="rgb(204, 204, 204)" stroke-width="1px"></line><line x1="610.9921875" y1="0" x2="610.9921875" y2="5" style="visibility: inherit;" fill="rgb(0, 0, 0)" stroke="rgb(204, 204, 204)" stroke-width="1px"></line><line x1="678.8802083333334" y1="0" x2="678.8802083333334" y2="5" style="visibility: inherit;" fill="rgb(0, 0, 0)" stroke="rgb(204, 204, 204)" stroke-width="1px"></line><line x1="746.7682291666666" y1="0" x2="746.7682291666666" y2="5" style="visibility: inherit;" fill="rgb(0, 0, 0)" stroke="rgb(204, 204, 204)" stroke-width="1px"></line><line x1="814.65625" y1="0" x2="814.65625" y2="5" style="visibility: inherit;" fill="rgb(0, 0, 0)" stroke="rgb(204, 204, 204)" stroke-width="1px"></line></g><g transform="translate(0, 8)"><text x="0" y="0" dx="0em" dy="0.95em" style="text-anchor: middle; visibility: hidden; font-family: Roboto, sans-serif; font-size: 12px; font-weight: 200;" fill="rgb(33, 33, 33)" stroke="none" stroke-width="1px">-20k</text><text x="67.88802083333333" y="0" dx="0em" dy="0.95em" style="text-anchor: middle; visibility: inherit; font-family: Roboto, sans-serif; font-size: 12px; font-weight: 200;" fill="rgb(33, 33, 33)" stroke="none" stroke-width="1px">0</text><text x="135.77604166666666" y="0" dx="0em" dy="0.95em" style="text-anchor: middle; visibility: inherit; font-family: Roboto, sans-serif; font-size: 12px; font-weight: 200;" fill="rgb(33, 33, 33)" stroke="none" stroke-width="1px">20k</text><text x="203.6640625" y="0" dx="0em" dy="0.95em" style="text-anchor: middle; visibility: inherit; font-family: Roboto, sans-serif; font-size: 12px; font-weight: 200;" fill="rgb(33, 33, 33)" stroke="none" stroke-width="1px">40k</text><text x="271.5520833333333" y="0" dx="0em" dy="0.95em" style="text-anchor: middle; visibility: inherit; font-family: Roboto, sans-serif; font-size: 12px; font-weight: 200;" fill="rgb(33, 33, 33)" stroke="none" stroke-width="1px">60k</text><text x="339.4401041666667" y="0" dx="0em" dy="0.95em" style="text-anchor: middle; visibility: inherit; font-family: Roboto, sans-serif; font-size: 12px; font-weight: 200;" fill="rgb(33, 33, 33)" stroke="none" stroke-width="1px">80k</text><text x="407.328125" y="0" dx="0em" dy="0.95em" style="text-anchor: middle; visibility: inherit; font-family: Roboto, sans-serif; font-size: 12px; font-weight: 200;" fill="rgb(33, 33, 33)" stroke="none" stroke-width="1px">100k</text><text x="475.21614583333337" y="0" dx="0em" dy="0.95em" style="text-anchor: middle; visibility: inherit; font-family: Roboto, sans-serif; font-size: 12px; font-weight: 200;" fill="rgb(33, 33, 33)" stroke="none" stroke-width="1px">120k</text><text x="543.1041666666666" y="0" dx="0em" dy="0.95em" style="text-anchor: middle; visibility: inherit; font-family: Roboto, sans-serif; font-size: 12px; font-weight: 200;" fill="rgb(33, 33, 33)" stroke="none" stroke-width="1px">140k</text><text x="610.9921875" y="0" dx="0em" dy="0.95em" style="text-anchor: middle; visibility: inherit; font-family: Roboto, sans-serif; font-size: 12px; font-weight: 200;" fill="rgb(33, 33, 33)" stroke="none" stroke-width="1px">160k</text><text x="678.8802083333334" y="0" dx="0em" dy="0.95em" style="text-anchor: middle; visibility: inherit; font-family: Roboto, sans-serif; font-size: 12px; font-weight: 200;" fill="rgb(33, 33, 33)" stroke="none" stroke-width="1px">180k</text><text x="746.7682291666666" y="0" dx="0em" dy="0.95em" style="text-anchor: middle; visibility: inherit; font-family: Roboto, sans-serif; font-size: 12px; font-weight: 200;" fill="rgb(33, 33, 33)" stroke="none" stroke-width="1px">200k</text><text x="814.65625" y="0" dx="0em" dy="0.95em" style="text-anchor: middle; visibility: hidden; font-family: Roboto, sans-serif; font-size: 12px; font-weight: 200;" fill="rgb(33, 33, 33)" stroke="none" stroke-width="1px">220k</text></g><line x1="0" y1="0" x2="814.65625" y2="0" fill="rgb(0, 0, 0)" stroke="rgb(204, 204, 204)" stroke-width="1px"></line></g></g></g></g></svg>