<svg viewBox="0 0 1112.5999755859375 400" xmlns="http://www.w3.org/2000/svg"><g><g><g><g><g><line x1="72.34375" y1="348.6480541255832" x2="67.34375" y2="348.6480541255832" style="visibility: inherit;" fill="rgb(0, 0, 0)" stroke="rgb(204, 204, 204)" stroke-width="1px"></line><line x1="72.34375" y1="309.2420547239021" x2="67.34375" y2="309.2420547239021" style="visibility: inherit;" fill="rgb(0, 0, 0)" stroke="rgb(204, 204, 204)" stroke-width="1px"></line><line x1="72.34375" y1="269.83605532222094" x2="67.34375" y2="269.83605532222094" style="visibility: inherit;" fill="rgb(0, 0, 0)" stroke="rgb(204, 204, 204)" stroke-width="1px"></line><line x1="72.34375" y1="230.43005592053976" x2="67.34375" y2="230.43005592053976" style="visibility: inherit;" fill="rgb(0, 0, 0)" stroke="rgb(204, 204, 204)" stroke-width="1px"></line><line x1="72.34375" y1="191.02405651885866" x2="67.34375" y2="191.02405651885866" style="visibility: inherit;" fill="rgb(0, 0, 0)" stroke="rgb(204, 204, 204)" stroke-width="1px"></line><line x1="72.34375" y1="151.61805711717747" x2="67.34375" y2="151.61805711717747" style="visibility: inherit;" fill="rgb(0, 0, 0)" stroke="rgb(204, 204, 204)" stroke-width="1px"></line><line x1="72.34375" y1="112.21205771549631" x2="67.34375" y2="112.21205771549631" style="visibility: inherit;" fill="rgb(0, 0, 0)" stroke="rgb(204, 204, 204)" stroke-width="1px"></line><line x1="72.34375" y1="72.80605831381514" x2="67.34375" y2="72.80605831381514" style="visibility: inherit;" fill="rgb(0, 0, 0)" stroke="rgb(204, 204, 204)" stroke-width="1px"></line><line x1="72.34375" y1="33.40005891213403" x2="67.34375" y2="33.40005891213403" style="visibility: inherit;" fill="rgb(0, 0, 0)" stroke="rgb(204, 204, 204)" stroke-width="1px"></line></g><g transform="translate(62.34375, 0)"><text x="0" y="348.6480541255832" dx="0em" dy="0.3em" style="text-anchor: end; visibility: inherit; font-family: Roboto, sans-serif; font-size: 12px; font-weight: 200;" fill="rgb(50, 49, 63)" stroke="none" stroke-width="1px">0</text><text x="0" y="309.2420547239021" dx="0em" dy="0.3em" style="text-anchor: end; visibility: inherit; font-family: Roboto, sans-serif; font-size: 12px; font-weight: 200;" fill="rgb(50, 49, 63)" stroke="none" stroke-width="1px">5e-4</text><text x="0" y="269.83605532222094" dx="0em" dy="0.3em" style="text-anchor: end; visibility: inherit; font-family: Roboto, sans-serif; font-size: 12px; font-weight: 200;" fill="rgb(50, 49, 63)" stroke="none" stroke-width="1px">1e-3</text><text x="0" y="230.43005592053976" dx="0em" dy="0.3em" style="text-anchor: end; visibility: inherit; font-family: Roboto, sans-serif; font-size: 12px; font-weight: 200;" fill="rgb(50, 49, 63)" stroke="none" stroke-width="1px">1.5e-3</text><text x="0" y="191.02405651885866" dx="0em" dy="0.3em" style="text-anchor: end; visibility: inherit; font-family: Roboto, sans-serif; font-size: 12px; font-weight: 200;" fill="rgb(50, 49, 63)" stroke="none" stroke-width="1px">2e-3</text><text x="0" y="151.61805711717747" dx="0em" dy="0.3em" style="text-anchor: end; visibility: inherit; font-family: Roboto, sans-serif; font-size: 12px; font-weight: 200;" fill="rgb(50, 49, 63)" stroke="none" stroke-width="1px">2.5e-3</text><text x="0" y="112.21205771549631" dx="0em" dy="0.3em" style="text-anchor: end; visibility: inherit; font-family: Roboto, sans-serif; font-size: 12px; font-weight: 200;" fill="rgb(50, 49, 63)" stroke="none" stroke-width="1px">3e-3</text><text x="0" y="72.80605831381514" dx="0em" dy="0.3em" style="text-anchor: end; visibility: inherit; font-family: Roboto, sans-serif; font-size: 12px; font-weight: 200;" fill="rgb(50, 49, 63)" stroke="none" stroke-width="1px">3.5e-3</text><text x="0" y="33.40005891213403" dx="0em" dy="0.3em" style="text-anchor: end; visibility: inherit; font-family: Roboto, sans-serif; font-size: 12px; font-weight: 200;" fill="rgb(50, 49, 63)" stroke="none" stroke-width="1px">4e-3</text></g><line x1="72.34375" y1="0" x2="72.34375" y2="378" fill="rgb(0, 0, 0)" stroke="rgb(204, 204, 204)" stroke-width="1px"></line></g></g><g transform="translate(72, 0)" clip-path="url(#clip_0)"><clipPath id="clip_0"><rect width="1040" height="378"></rect></clipPath><g><g><g><line x1="45.145214106094265" y1="0" x2="45.145214106094265" y2="378" fill="rgb(0, 0, 0)" stroke="rgb(60, 60, 60)" stroke-width="1px" opacity="0.25"></line><line x1="139.54664757641524" y1="0" x2="139.54664757641524" y2="378" fill="rgb(0, 0, 0)" stroke="rgb(60, 60, 60)" stroke-width="1px" opacity="0.25"></line><line x1="233.94808104673618" y1="0" x2="233.94808104673618" y2="378" fill="rgb(0, 0, 0)" stroke="rgb(60, 60, 60)" stroke-width="1px" opacity="0.25"></line><line x1="328.3495145170572" y1="0" x2="328.3495145170572" y2="378" fill="rgb(0, 0, 0)" stroke="rgb(60, 60, 60)" stroke-width="1px" opacity="0.25"></line><line x1="422.75094798737814" y1="0" x2="422.75094798737814" y2="378" fill="rgb(0, 0, 0)" stroke="rgb(60, 60, 60)" stroke-width="1px" opacity="0.25"></line><line x1="517.1523814576991" y1="0" x2="517.1523814576991" y2="378" fill="rgb(0, 0, 0)" stroke="rgb(60, 60, 60)" stroke-width="1px" opacity="0.25"></line><line x1="611.55381492802" y1="0" x2="611.55381492802" y2="378" fill="rgb(0, 0, 0)" stroke="rgb(60, 60, 60)" stroke-width="1px" opacity="0.25"></line><line x1="705.955248398341" y1="0" x2="705.955248398341" y2="378" fill="rgb(0, 0, 0)" stroke="rgb(60, 60, 60)" stroke-width="1px" opacity="0.25"></line><line x1="800.356681868662" y1="0" x2="800.356681868662" y2="378" fill="rgb(0, 0, 0)" stroke="rgb(60, 60, 60)" stroke-width="1px" opacity="0.25"></line><line x1="894.758115338983" y1="0" x2="894.758115338983" y2="378" fill="rgb(0, 0, 0)" stroke="rgb(60, 60, 60)" stroke-width="1px" opacity="0.25"></line><line x1="989.1595488093039" y1="0" x2="989.1595488093039" y2="378" fill="rgb(0, 0, 0)" stroke="rgb(60, 60, 60)" stroke-width="1px" opacity="0.25"></line></g><g><line x1="0" y1="348.6480541255832" x2="1040.25625" y2="348.6480541255832" fill="rgb(0, 0, 0)" stroke="rgb(60, 60, 60)" stroke-width="1px" opacity="0.25"></line><line x1="0" y1="309.2420547239021" x2="1040.25625" y2="309.2420547239021" fill="rgb(0, 0, 0)" stroke="rgb(60, 60, 60)" stroke-width="1px" opacity="0.25"></line><line x1="0" y1="269.83605532222094" x2="1040.25625" y2="269.83605532222094" fill="rgb(0, 0, 0)" stroke="rgb(60, 60, 60)" stroke-width="1px" opacity="0.25"></line><line x1="0" y1="230.43005592053976" x2="1040.25625" y2="230.43005592053976" fill="rgb(0, 0, 0)" stroke="rgb(60, 60, 60)" stroke-width="1px" opacity="0.25"></line><line x1="0" y1="191.02405651885866" x2="1040.25625" y2="191.02405651885866" fill="rgb(0, 0, 0)" stroke="rgb(60, 60, 60)" stroke-width="1px" opacity="0.25"></line><line x1="0" y1="151.61805711717747" x2="1040.25625" y2="151.61805711717747" fill="rgb(0, 0, 0)" stroke="rgb(60, 60, 60)" stroke-width="1px" opacity="0.25"></line><line x1="0" y1="112.21205771549631" x2="1040.25625" y2="112.21205771549631" fill="rgb(0, 0, 0)" stroke="rgb(60, 60, 60)" stroke-width="1px" opacity="0.25"></line><line x1="0" y1="72.80605831381514" x2="1040.25625" y2="72.80605831381514" fill="rgb(0, 0, 0)" stroke="rgb(60, 60, 60)" stroke-width="1px" opacity="0.25"></line><line x1="0" y1="33.40005891213403" x2="1040.25625" y2="33.40005891213403" fill="rgb(0, 0, 0)" stroke="rgb(60, 60, 60)" stroke-width="1px" opacity="0.25"></line></g></g></g><g><g><line x1="0" y1="348.6480541255832" x2="1040.25625" y2="348.6480541255832" fill="rgb(0, 0, 0)" stroke="rgb(153, 153, 153)" stroke-width="1.5px"></line></g></g><g><g><line x1="45.145214106094265" y1="0" x2="45.145214106094265" y2="378" fill="rgb(0, 0, 0)" stroke="rgb(153, 153, 153)" stroke-width="1.5px"></line></g></g><g><g><g><g><g><path stroke="rgb(255, 112, 67)" stroke-width="2px" d="M59.305429126642416,-70.69434924809984L61.66546496340043,56.29864261488334L64.02550080015845,18.557624532244066L66.38553663691648,104.91752619355924L68.7455724736745,82.81221363449397L71.10560831043253,112.48917879667493L73.46564414719056,145.32282105229424L75.82567998394858,171.4851277236158L78.1857158207066,140.092854511693L80.54575165746462,193.33442740009247L82.90578749422266,216.0575716999245L85.26582333098068,237.40295145670012L87.6258591677387,258.6365521512596L89.98589500449673,249.80987517921915L92.34593084125474,167.40677610204898L94.70596667801279,194.28391412462582L97.0660025147708,160.93171646867754L99.42603835152882,161.20999455273926L101.78607418828685,108.56359056760762L104.14611002504488,175.974729498989L106.50614586180289,215.7372984193009L108.86618169856092,248.34263957052138L111.22621753531894,233.97494359789414L113.58625337207697,249.54547755861716L115.946289208835,208.71942280117983L118.30632504559301,211.2112038731782L120.66636088235104,219.812802020659L123.02639671910906,237.49928678981712L125.38643255586707,214.43526337006924L127.74646839262512,193.60519759898614L130.10650422938312,168.94951017483106L132.46654006614116,164.88665615101849L134.82657590289918,163.3644030056737L137.1866117396572,199.81967703253216L139.54664757641524,249.40143641214976L141.90668341317328,272.58417766915835L144.26671924993127,287.32591097245023L146.62675508668931,286.70392101367474L148.98679092344733,294.5892102697164L151.34682676020535,254.84679207333417L153.7068625969634,216.49462260881717L156.0668984337214,192.78767817782335L158.42693427047942,175.2259897113119L160.78697010723744,207.16554703631408L163.14700594399548,161.820393018845L165.5070417807535,161.0499492312958L167.8670776175115,165.5643526857301L170.22711345426956,221.67460799436984L172.58714929102757,259.4879076592935L174.9471851277856,280.7310350743833L177.30722096454363,266.6735209954236L179.66725680130165,250.58656058615026L182.02729263805966,222.7805857119534L184.3873284748177,216.14232803141917L186.74736431157572,239.06986284134135L189.10740014833374,265.71399789569995L191.46743598509175,251.90543921479346L193.8274718218498,281.4846290031442L196.1875076586078,289.6131706899869L198.54754349536583,244.54668754404378L200.90757933212387,237.14356497407462L203.2676151688819,236.91437990041547L205.6276510056399,237.45376173430208L207.98768684239795,264.09466818849336L210.34772267915596,261.30101396563697L212.70775851591398,281.7186921710045L215.067794352672,292.37305128607755L217.42783018943004,279.5804800319469L219.78786602618806,259.3208791483392L222.14790186294607,264.870210238646L224.50793769970412,267.3339437708771L226.8679735364621,263.1087280473558L229.22800937322015,232.81735000195013L231.5880452099782,233.60168197013326L233.94808104673618,255.09728423020724L236.30811688349422,209.65661301585484L238.66815272025227,231.6073368033927L241.02818855701028,269.3364485028435L243.3882243937683,264.19058253496934L245.7482602305263,255.48287872346503L248.10829606728436,255.92377213285195L250.46833190404237,225.69145832772634L252.8283677408004,266.3306063234777L255.18840357755843,281.6825410345081L257.5484394143164,295.1586681300736L259.9084752510745,278.06709448810864L262.2685110878325,259.2698701520408L264.6285469245905,232.4114389500128L266.98858276134854,258.8037361738861L269.34861859810655,205.760890476982L271.70865443486457,232.53122550777644L274.0686902716226,238.20816467052413L276.42872610838066,253.7882121378149L278.7887619451387,281.3968216021764L281.1487977818967,272.9329986516795L283.5088336186547,289.131229332688L285.8688694554127,303.2999197361966L288.22890529217074,278.1553969259932L290.58894112892875,266.63902425472617L292.9489769656868,275.5510821949301L295.30901280244484,291.33920638023335L297.66904863920286,288.92147821154214L300.0290844759609,286.23142465434205L302.3891203127189,278.4457623148236L304.7491561494769,270.72344571523274L307.109191986235,277.2774041650448L309.469227822993,283.7948269744487L311.829263659751,299.87156779249193L314.189299496509,292.41972632162555L316.54933533326704,299.1989098287154L318.90937117002505,269.90397151036905L321.26940700678307,288.669001649977L323.62944284354114,293.9958247730313L325.98947868029916,278.66764758876184L328.3495145170572,293.2768638971011L330.7095503538152,305.11580153470214L333.0695861905732,278.6832261353869L335.4296220273312,296.5229958354911L337.7896578640893,295.25592300931527L340.1496937008473,299.992886530322L342.5097295376053,258.60219538257104L344.86976537436334,274.4608651069912L347.22980121112136,275.9206119390159L349.58983704787937,296.99769530016937L351.9498728846374,307.8709425939141L354.30990872139546,267.05384272945815L356.6699445581535,278.0768866948318L359.0299803949115,267.30598411701845L361.3900162316695,286.2747507083199L363.7500520684275,301.32847225432164L366.11008790518554,277.43648600404225L368.4701237419436,275.6201150039402L370.8301595787016,280.927620239554L373.19019541545964,246.5670251918454L375.5502312522176,239.18977184291597L377.9102670889757,243.5862544867425L380.2703029257337,238.10204609095908L382.6303387624917,240.06967378506766L384.9903745992498,258.40881564194405L387.3504104360078,231.49026548592917L389.7104462727658,208.6563848395668L392.0704821095238,242.81659165338917L394.43051794628184,232.50712418648828L396.79055378303985,239.58226993659002L399.1505896197979,231.43291924904136L401.51062545655594,240.72370469004608L403.87066129331396,238.2178275476698L406.2306971300719,236.246952643084L408.59073296683,265.76610222900166L410.950768803588,287.1826208827295L413.310804640346,301.3337464329311L415.6708404771041,294.7204826265534L418.0308763138621,265.34067621897515L420.3909121506201,287.2733305661403L422.75094798737814,276.0376575700406L425.11098382413616,252.62001062743138L427.47101966089417,259.336367952884L429.8310554976522,238.73121726145177L432.19109133441026,245.86261677956472L434.5511271711683,276.056623523688L436.91116300792623,278.0561089070456L439.2711988446843,297.4175561774554L441.6312346814423,260.7757260698505L443.99127051820034,240.28037879822352L446.3513063549584,276.2752082859263L448.7113421917164,292.5253010005893L451.07137802847444,305.06512720515656L453.43141386523246,283.43859412164437L455.7914497019905,298.4165342353317L458.1514855387485,306.258871472833L460.5115213755065,278.5539311322393L462.8715572122646,273.3592488470603L465.2315930490226,293.6098254768256L467.59162888578055,301.8901691578786L469.9516647225386,315.1709186265415L472.31170055929664,321.7917889290531L474.67173639605465,280.5096048517602L477.0317722328127,248.00897479502385L479.39180806957074,257.41881228917396L481.7518439063287,288.16181575834105L484.1118797430868,304.6883168217369L486.4719155798448,312.13998420469045L488.8319514166028,294.46760875685095L491.1919872533608,298.9047908753393L493.5520230901189,296.80299506344886L495.9120589268769,282.6545217711052L498.27209476363487,280.1221307215279L500.63213060039294,246.99189850852002L502.99216643715096,282.41821453821746L505.352202273909,284.4129486083756L507.71223811066704,300.89573666336855L510.07227394742506,297.80850955306266L512.4323097841831,259.98463331839184L514.7923456209411,250.1606270138694L517.1523814576991,243.90223930808392L519.5124172944571,266.7080158866173L521.8724531312151,281.83869217310655L524.2324889679732,298.52779023938183L526.5925248047312,287.2720673196811L528.9525606414892,283.5967710938856L531.3125964782472,288.4193595959332L533.6726323150052,261.7243656627724L536.0326681517633,274.2675578026958L538.3927039885214,275.0987052181734L540.7527398252794,293.4583599102267L543.1127756620374,290.41524571328654L545.4728114987954,280.48541436822563L547.8328473355534,257.0177819318348L550.1928831723114,257.02944198180757L552.5529190090695,269.26083360914896L554.9129548458275,255.59074547855053L557.2729906825855,265.0288147473859L559.6330265193435,246.4566316730127L561.9930623561015,273.1736740831025L564.3530981928595,284.9830912529132L566.7131340296177,282.60475769324916L569.0731698663757,258.17508672110904L571.4332057031337,265.7854197172772L573.7932415398917,276.1940607796579L576.1532773766497,266.89272536931776L578.5133132134077,264.1374154312884L580.8733490501658,256.5322946583344L583.2333848869238,282.39252126543425L585.5934207236818,258.95594492163747L587.9534565604398,266.58473102483356L590.3134923971978,263.9926398439781L592.6735282339558,287.3988316425545L595.0335640707139,262.24325832564733L597.393599907472,271.5609268623139L599.75363574423,250.40181259789276L602.113671580988,254.39253647199692L604.473707417746,247.86359365387239L606.833743254504,259.54667638025546L609.1937790912621,258.4977918955472L611.55381492802,263.70575350193843L613.9138507647781,259.448760787726L616.2738866015361,236.1006784207462L618.6339224382941,255.8651764036578L620.9939582750521,245.59836197572696L623.3539941118102,254.85006510974816L625.7140299485682,221.25243408330005L628.0740657853263,235.19834423492014L630.4341016220843,272.41187037474344L632.7941374588423,260.4357775410645L635.1541732956003,276.0890404649815L637.5142091323584,268.49262048297487L639.8742449691164,269.88186628386666L642.2342808058743,266.4274358680572L644.5943166426324,255.54774585483722L646.9543524793904,258.6785360356667L649.3143883161484,249.56991730025527L651.6744241529065,255.9376384656352L654.0344599896645,237.37386360595184L656.3944958264225,261.0506229477861L658.7545316631806,287.41614504663386L661.1145674999386,287.55811301394175L663.4746033366966,259.8167689335967L665.8346391734547,281.26791945373606L668.1946750102127,261.4432921019481L670.5547108469707,260.2022908783737L672.9147466837286,231.4660716973631L675.2747825204867,258.14880721687075L677.6348183572447,251.34907866534417L679.9948541940028,262.54693446801946L682.3548900307608,272.4045363187773L684.7149258675188,275.53686772366643L687.0749617042768,291.3876282869974L689.4349975410349,279.616512130392L691.795033377793,289.12141043916057L694.155069214551,278.472612338677L696.515105051309,275.5795814753357L698.875140888067,261.3060932429797L701.235176724825,275.1849769086293L703.5952125615829,282.86165634814665L705.955248398341,299.9474041722735L708.315284235099,289.9586058270932L710.6753200718571,242.83564079374844L713.0353559086151,233.13433054367485L715.3953917453731,266.7712922395099L717.7554275821311,261.68155615973404L720.1154634188892,285.3508042682482L722.4754992556473,295.62068892344917L724.8355350924053,256.5247297590709L727.1955709291633,269.33309369185116L729.5556067659213,253.87734943097544L731.9156426026793,278.50494503764315L734.2756784394372,256.61808873883325L736.6357142761954,281.56186269868874L738.9957501129534,295.915684369087L741.3557859497114,279.90555073603997L743.7158217864694,292.2784840891464L746.0758576232274,271.3275193540454L748.4358934599854,241.2078978383686L750.7959292967436,256.7706593988174L753.1559651335016,246.94256393636218L755.5160009702596,255.1884302736392L757.8760368070176,264.06599582928334L760.2360726437756,262.26990571382476L762.5961084805336,286.42474467998164L764.9561443172915,284.8980248802862L767.3161801540497,248.50088576044033L769.6762159908077,278.8204187596604L772.0362518275657,270.6978448906845L774.3962876643237,284.4043514965948L776.7563235010817,275.15603259090443L779.1163593378398,284.36327185896323L781.4763951745978,273.35112655531714L783.8364310113559,275.61160363014324L786.1964668481139,261.9348995099214L788.5565026848719,284.66416073407555L790.91653852163,304.47926504113224L793.276574358388,276.19519671812833L795.6366101951459,279.4833957345352L797.996646031904,288.74052968834457L800.356681868662,305.950711756905L802.71671770542,311.45166413441603L805.076753542178,312.64927870877784L807.436789378936,311.5386051975511L809.7968252156941,283.78261715210107L812.1568610524521,268.8355198572048L814.5168968892102,272.48475670516734L816.8769327259682,269.9910358231122L819.2369685627262,253.42690234216357L821.5970043994843,259.44375123412834L823.9570402362423,263.1535369458651L826.3170760730002,263.40889155165456L828.6771119097583,264.9371832353864L831.0371477465163,274.0865076219008L833.3971835832743,238.73810908785262L835.7572194200324,244.1348197831669L838.1172552567904,239.67283143138076L840.4772910935484,251.71394173010546L842.8373269303064,255.08541866113873L845.1973627670645,262.50493835232584L847.5573986038225,209.65281321798972L849.9174344405806,258.29871581793617L852.2774702773386,262.45624345101044L854.6375061140966,266.60578240345654L856.9975419508545,279.05211333683326L859.3575777876126,287.6014372822091L861.7176136243706,255.9460997855049L864.0776494611287,260.46321484507524L866.4376852978867,283.1168707428821L868.7977211346447,259.26367274629706L871.1577569714027,264.0715289668969L873.5177928081607,277.04691975859674L875.8778286449188,252.47026249026146L878.2378644816769,278.2776909285974L880.5979003184349,276.6495647188235L882.9579361551929,285.63001770391065L885.3179719919509,288.45932239499007L887.6780078287088,282.18856611233224L890.0380436654668,255.77065917297634L892.398079502225,258.55374934234555L894.758115338983,268.3838195661466L897.118151175741,290.35830426792296L899.478187012499,261.42865160966124L901.838222849257,275.83636516990236L904.198258686015,266.3110816755263L906.5582945227732,286.50897571952845L908.9183303595312,277.9574712735196L911.2783661962892,265.3839067909067L913.6384020330472,269.91590793346063L915.9984378698051,254.7468634915813L918.3584737065631,258.0809088950757L920.7185095433211,285.75492099367597L923.0785453800793,270.45556249483053L925.4385812168373,280.50116614798685L927.7986170535953,290.5638049688299L930.1586528903533,267.1881153089799L932.5186887271113,279.372969890947L934.8787245638694,297.89531155576105L937.2387604006275,311.1881395188458L939.5987962373855,284.5287428538659L941.9588320741435,282.6549573520477L944.3188679109015,248.1735388995619L946.6789037476594,270.622775772585L949.0389395844174,278.9218756052306L951.3989754211755,288.2020793907006L953.7590112579336,277.39572360910455L956.1190470946916,273.35481077896304L958.4790829314496,263.8397275169004L960.8391187682076,278.6367102261226L963.1991546049657,274.5443205136387L965.5591904417237,284.0934584395052L967.9192262784818,220.61128940829587L970.2792621152398,228.67968478362423L972.6392979519978,249.08652958225247L974.9993337887558,261.59750197681166L977.3593696255138,277.30894488192104L979.7194054622718,261.24973002448104L982.0794412990298,265.6116342950342L984.4394771357879,277.959578524693L986.7995129725459,271.3136034659048L989.1595488093039,282.0587245364445" style="fill: none;" fill="none"></path></g></g></g></g><g opacity="0.2"><g><g><g><path stroke="rgb(255, 112, 67)" stroke-width="2px" d="M56.945393289884386,-60.959647541185824L59.305429126642416,199.8532804424601L61.66546496340043,241.45564388383468L64.02550080015845,-37.10304632429641L66.38553663691648,233.15191543223304L68.7455724736745,49.85473835385587L71.10560831043253,156.8431258060685L73.46564414719056,194.4660768969904L75.82567998394858,210.67733304827007L78.1857158207066,93.0413451325487L80.54575165746462,273.15923665050065L82.90578749422266,250.13267247654557L85.26582333098068,269.41560150225564L87.6258591677387,290.48371846774916L89.98589500449673,236.5706665143961L92.34593084125474,43.8066466680864L94.70596667801279,234.598736754816L97.0660025147708,110.90407846571729L99.42603835152882,161.62740838236257L101.78607418828685,29.59435877801752L104.14611002504488,277.0911504183466L106.50614586180289,275.3810500582529L108.86618169856092,297.25060124047315L111.22621753531894,212.4234128736318L113.58625337207697,272.90126989410436L115.946289208835,147.48035420338783L118.30632504559301,214.94887498539464L120.66636088235104,232.7151982150222L123.02639671910906,264.0290126767077L125.38643255586707,179.83922923166463L127.74646839262512,162.3600994794869L130.10650422938312,131.96597942006227L132.46654006614116,158.7923751530151L134.82657590289918,161.08102329613513L137.1866117396572,254.50258795099097L139.54664757641524,323.77407538215857L141.90668341317328,307.3582895267807L144.26671924993127,309.43851091674674L146.62675508668931,285.7709360757809L148.98679092344733,306.41714415172976L151.34682676020535,195.23316478495752L153.7068625969634,158.96636841562957L156.0668984337214,157.22726153266328L158.42693427047942,148.88345701213626L160.78697010723744,255.07488302317196L163.14700594399548,93.80266199319112L165.5070417807535,159.89428354997762L167.8670776175115,172.33595786736188L170.22711345426956,305.83999095718247L172.58714929102757,316.2078571566197L174.9471851277856,312.595726196998L177.30722096454363,245.58724987699196L179.66725680130165,226.45611997224563L182.02729263805966,181.07162340066384L184.3873284748177,206.1849415106186L186.74736431157572,273.4611650562229L189.10740014833374,305.6802004772366L191.46743598509175,231.19260119343411L193.8274718218498,325.85341368566986L196.1875076586078,301.80598322025077L198.54754349536583,176.9469628251294L200.90757933212387,226.03888111912102L203.2676151688819,236.57060228992665L205.6276510056399,238.2628344851321L207.98768684239795,304.05602786978034L210.34772267915596,257.11053263135244L212.70775851591398,312.3452094790557L215.067794352672,308.3545899586872L217.42783018943004,260.39162315075095L219.78786602618806,228.93147782292758L222.14790186294607,273.1942068741062L224.50793769970412,271.0295440692239L226.8679735364621,256.7709044620738L229.22800937322015,187.3802829338416L231.5880452099782,234.77817992240793L233.94808104673618,287.34068762031814L236.30811688349422,141.49560619432634L238.66815272025227,264.53342248469943L241.02818855701028,325.9301160520197L243.3882243937683,256.4717835831581L245.7482602305263,242.42132300620855L248.10829606728436,256.58511224693234L250.46833190404237,180.34298762003786L252.8283677408004,327.2893283171047L255.18840357755843,304.7104431010538L257.5484394143164,315.37285877342174L259.9084752510745,252.42973402516114L262.2685110878325,231.07403364793916L264.6285469245905,192.12379214697074L266.98858276134854,298.392182009696L269.34861859810655,126.19662193162601L271.70865443486457,272.686728053968L274.0686902716226,246.72357341464567L276.42872610838066,277.15828333875106L278.7887619451387,322.8097357987186L281.1487977818967,260.23726422593415L283.5088336186547,313.4285753542009L285.8688694554127,324.5529553414595L288.22890529217074,240.43861271068815L290.58894112892875,249.36446524782554L292.9489769656868,288.91916910523594L295.30901280244484,315.0213926581883L297.66904863920286,285.29488595850535L300.0290844759609,282.19634431854206L302.3891203127189,266.7672688055459L304.7491561494769,259.1399708158465L307.109191986235,287.10834183976294L309.469227822993,293.57096118855463L311.829263659751,323.9866790195567L314.189299496509,281.241964115326L316.54933533326704,309.36768508935L318.90937117002505,225.9615640328495L321.26940700678307,316.8165468593889L323.62944284354114,301.98605945761284L325.98947868029916,255.67538181235759L328.3495145170572,315.19068835961L330.7095503538152,322.8742079911037L333.0695861905732,239.0343630364141L335.4296220273312,323.28265038564723L337.7896578640893,293.3553137700517L340.1496937008473,307.09833181183205L342.5097295376053,196.5161586609446L344.86976537436334,298.2488696936215L347.22980121112136,278.1102321870529L349.58983704787937,328.61332034189974L351.9498728846374,324.1808135345311L354.30990872139546,205.82819293277433L356.6699445581535,294.6114526428921L359.0299803949115,251.14963025029846L361.3900162316695,314.72790059527205L363.7500520684275,323.9090545733244L366.11008790518554,241.5985066286232L368.4701237419436,272.895558503787L370.8301595787016,288.8888780929747L373.19019541545964,195.02613262028254L375.5502312522176,228.12389181952176L377.9102670889757,250.18097845248238L380.2703029257337,229.87573349728393L382.6303387624917,243.02111532623047L384.9903745992498,285.9175284272586L387.3504104360078,191.1124402519068L389.7104462727658,174.4055638700233L392.0704821095238,294.0569018741227L394.43051794628184,217.0429229861369L396.79055378303985,250.19498856174263L399.1505896197979,219.20889321771836L401.51062545655594,254.65988285155322L403.87066129331396,234.45901183410538L406.2306971300719,233.29064028620533L408.59073296683,310.04482660787806L410.950768803588,319.3073988633213L413.310804640346,322.5604347582334L415.6708404771041,284.80058691698696L418.0308763138621,221.27096660760785L420.3909121506201,320.172312086888L422.75094798737814,259.18414807589124L425.11098382413616,217.49354021351755L427.47101966089417,269.41090394106294L429.8310554976522,207.82349122430335L432.19109133441026,256.5597160567342L434.5511271711683,321.347633639873L436.91116300792623,281.05533698208194L439.2711988446843,326.4597270830702L441.6312346814423,205.81298090844325L443.99127051820034,209.53735789078303L446.3513063549584,330.2674525174803L448.7113421917164,316.90044007258393L451.07137802847444,323.87486651200726L453.43141386523246,250.99879449637618L455.7914497019905,320.8834444058628L458.1514855387485,318.022377329085L460.5115213755065,236.99652062134876L462.8715572122646,265.5672254192918L465.2315930490226,323.98569042147363L467.59162888578055,314.31068467945795L469.9516647225386,335.0920428295359L472.31170055929664,331.7230943828204L474.67173639605465,218.5863287358208L477.0317722328127,199.25802970991938L479.39180806957074,271.53356853039907L481.7518439063287,334.2763209620917L484.1118797430868,329.47806841683075L486.4719155798448,323.3174852791207L488.8319514166028,267.95904558509164L491.1919872533608,305.5605640530718L493.5520230901189,293.6503013456132L495.9120589268769,261.4318118325897L498.27209476363487,276.32354414716195L500.63213060039294,197.29655018900826L502.99216643715096,335.55768858276355L505.352202273909,287.40504971361287L507.71223811066704,325.6199187458581L510.07227394742506,293.1776688876038L512.4323097841831,203.2488189663857L514.7923456209411,235.4246175570856L517.1523814576991,234.51465774940579L519.5124172944571,300.9166807544174L521.8724531312151,304.53470660284046L524.2324889679732,323.56143733879463L526.5925248047312,270.38848294013L528.9525606414892,278.08382675519226L531.3125964782472,295.6532423490046L533.6726323150052,221.68187476303135L536.0326681517633,293.08234601258096L538.3927039885214,276.3454263413898L540.7527398252794,320.9978419483068L543.1127756620374,285.85057441787615L545.4728114987954,265.59066735063436L547.8328473355534,221.81633327724856L550.1928831723114,257.0469320567667L552.5529190090695,287.60792105016105L554.9129548458275,235.0856132826529L557.2729906825855,279.1859186506389L559.6330265193435,218.59835706145296L561.9930623561015,313.2492376982373L564.3530981928595,302.69721700762915L566.7131340296177,279.0372573537531L569.0731698663757,221.53058026289887L571.4332057031337,277.2009192115295L573.7932415398917,291.80702237322885L576.1532773766497,252.94072225380756L578.5133132134077,260.00445052424453L580.8733490501658,245.12461349890336L583.2333848869238,321.18286117608403L585.5934207236818,223.80108040594234L587.9534565604398,278.02791017962784L590.3134923971978,260.10450307269474L592.6735282339558,322.5081193404192L595.0335640707139,224.5098983502866L597.393599907472,285.53742966731386L599.75363574423,218.66314120126103L602.113671580988,260.3786222831531L604.473707417746,238.0701794266856L606.833743254504,277.0713004698302L609.1937790912621,256.9244651684848L611.55381492802,271.5176959115252L613.9138507647781,253.0632717164073L616.2738866015361,201.07855487027658L618.6339224382941,285.51192337802536L620.9939582750521,230.19814033383068L623.3539941118102,268.7276198107799L625.7140299485682,170.855987543628L628.0740657853263,256.1172094623504L630.4341016220843,328.2321595844783L632.7941374588423,242.47163829054614L635.1541732956003,299.5689348508569L637.5142091323584,257.09799050996486L639.8742449691164,271.96573498520445L642.2342808058743,261.2457902443431L644.5943166426324,239.2282108350072L646.9543524793904,263.3747213069109L649.3143883161484,235.90698919713813L651.6744241529065,265.48922021370504L654.0344599896645,209.5282013164269L656.3944958264225,296.56576196053743L658.7545316631806,326.9644281949054L661.1145674999386,287.77106496490364L663.4746033366966,218.20475281307915L665.8346391734547,313.44464523394515L668.1946750102127,231.70635107426608L670.5547108469707,258.34078904301197L672.9147466837286,188.36174292584724L675.2747825204867,298.17291049613226L677.6348183572447,241.14948583805415L679.9948541940028,279.34371817203237L682.3548900307608,287.19093909491414L684.7149258675188,280.235364831L687.0749617042768,315.163769131994L689.4349975410349,261.9598378954839L691.795033377793,303.37875790231334L694.155069214551,262.4994151879515L696.515105051309,271.2400351803239L698.875140888067,239.89586089444575L701.235176724825,296.0033024071037L703.5952125615829,294.3766755074227L705.955248398341,325.5760259084637L708.315284235099,274.9754083093228L710.6753200718571,172.1511932437313L713.0353559086151,218.58236516856448L715.3953917453731,317.2267347832624L717.7554275821311,254.0469520400704L720.1154634188892,320.85467643101947L722.4754992556473,311.0255159062506L724.8355350924053,197.88079101250352L727.1955709291633,288.5456395910216L729.5556067659213,230.69373303966185L731.9156426026793,315.4463384476447L734.2756784394372,223.78780429061848L736.6357142761954,318.977523638472L738.9957501129534,317.4464168746843L741.3557859497114,255.89035028646944L743.7158217864694,310.8378841188061L746.0758576232274,239.90107225139388L748.4358934599854,196.02846556485343L750.7959292967436,280.11480173949053L753.1559651335016,232.20042074267934L755.5160009702596,267.5572297795548L757.8760368070176,277.3823441627496L760.2360726437756,259.5757705406368L762.5961084805336,322.657003129217L764.9561443172915,282.607945180743L767.3161801540497,193.90517708067145L769.6762159908077,324.2997182584906L772.0362518275657,258.51398408722065L774.3962876643237,304.9641114054603L776.7563235010817,261.2835542323689L779.1163593378398,298.17413076105146L781.4763951745978,256.83290859984794L783.8364310113559,279.0023192423823L786.1964668481139,241.41984332958864L788.5565026848719,318.75805257030686L790.91653852163,334.20192150171727L793.276574358388,233.76909423362247L795.6366101951459,284.41569425914537L797.996646031904,302.62623061905884L800.356681868662,331.7659848597455L802.71671770542,319.70309270068265L805.076753542178,314.4457005703206L807.436789378936,309.8725949307109L809.7968252156941,242.1486350839261L812.1568610524521,246.41487391486044L814.5168968892102,277.9586119771111L816.8769327259682,266.2504545000296L819.2369685627262,228.5807021207405L821.5970043994843,268.46902457207557L823.9570402362423,268.7182155134703L826.3170760730002,263.7919234603387L828.6771119097583,267.2296207609841L831.0371477465163,287.81049420167255L833.3971835832743,185.71551128678033L835.7572194200324,252.22988582613837L838.1172552567904,232.9798489037015L840.4772910935484,269.7756071781925L842.8373269303064,260.1426340576887L845.1973627670645,273.6342178891065L847.5573986038225,130.37462551648554L849.9174344405806,331.2675697178559L852.2774702773386,268.6925349006218L854.6375061140966,272.83009083212573L856.9975419508545,297.72160973689836L859.3575777876126,300.4254232002728L861.7176136243706,208.4630935404487L864.0776494611287,267.2388874344307L866.4376852978867,317.0973545895923L868.7977211346447,223.4838757514196L871.1577569714027,271.2833132977966L873.5177928081607,296.5100059461466L875.8778286449188,215.60527658775845L878.2378644816769,316.9888335861013L880.5979003184349,274.20737540416263L882.9579361551929,299.1006971815415L885.3179719919509,292.70327943160925L887.6780078287088,272.78243168834535L890.0380436654668,216.14379876394258L892.398079502225,262.72838459639945L894.758115338983,283.1289249018481L897.118151175741,323.3200313205875L899.478187012499,218.03417262226876L901.838222849257,297.4479355102639L904.198258686015,252.02315643396216L906.5582945227732,316.8058167855317L908.9183303595312,265.1302146045064L911.2783661962892,246.52356006698716L913.6384020330472,276.7139096472916L915.9984378698051,231.99329682876237L918.3584737065631,263.0819770003174L920.7185095433211,327.2659391415764L923.0785453800793,247.50652474656235L925.4385812168373,295.5695716277215L927.7986170535953,305.65776320009445L930.1586528903533,232.1245808192048L932.5186887271113,297.6502517638977L934.8787245638694,325.6788240529821L937.2387604006275,331.12738146347294L939.5987962373855,244.53964785639593L941.9588320741435,279.8442790993204L944.3188679109015,196.45141122083336L946.6789037476594,304.2966310821196L949.0389395844174,291.3705253541989L951.3989754211755,302.12238506890566L953.7590112579336,261.18618993671055L956.1190470946916,267.29344153375075L958.4790829314496,249.5671026238065L960.8391187682076,300.83218428995593L963.1991546049657,268.4057359449128L965.5591904417237,298.4171653283049L967.9192262784818,125.3880358614819L970.2792621152398,240.78227784661678L972.6392979519978,279.69679678019486L974.9993337887558,280.36396056865055L977.3593696255138,300.87610923958505L979.7194054622718,237.1609077383211L982.0794412990298,272.15449070086396L984.4394771357879,296.48149486918106L986.7995129725459,261.34464087772255L989.1595488093039,298.17640614225417" style="fill: none;" fill="none"></path></g></g></g></g></g></g><g transform="translate(72, 378)" clip-path="url(#clip_1)"><clipPath id="clip_1"><rect width="1040" height="22"></rect></clipPath><g><g><line x1="45.145214106094265" y1="0" x2="45.145214106094265" y2="5" style="visibility: inherit;" fill="rgb(0, 0, 0)" stroke="rgb(204, 204, 204)" stroke-width="1px"></line><line x1="139.54664757641524" y1="0" x2="139.54664757641524" y2="5" style="visibility: inherit;" fill="rgb(0, 0, 0)" stroke="rgb(204, 204, 204)" stroke-width="1px"></line><line x1="233.94808104673618" y1="0" x2="233.94808104673618" y2="5" style="visibility: inherit;" fill="rgb(0, 0, 0)" stroke="rgb(204, 204, 204)" stroke-width="1px"></line><line x1="328.3495145170572" y1="0" x2="328.3495145170572" y2="5" style="visibility: inherit;" fill="rgb(0, 0, 0)" stroke="rgb(204, 204, 204)" stroke-width="1px"></line><line x1="422.75094798737814" y1="0" x2="422.75094798737814" y2="5" style="visibility: inherit;" fill="rgb(0, 0, 0)" stroke="rgb(204, 204, 204)" stroke-width="1px"></line><line x1="517.1523814576991" y1="0" x2="517.1523814576991" y2="5" style="visibility: inherit;" fill="rgb(0, 0, 0)" stroke="rgb(204, 204, 204)" stroke-width="1px"></line><line x1="611.55381492802" y1="0" x2="611.55381492802" y2="5" style="visibility: inherit;" fill="rgb(0, 0, 0)" stroke="rgb(204, 204, 204)" stroke-width="1px"></line><line x1="705.955248398341" y1="0" x2="705.955248398341" y2="5" style="visibility: inherit;" fill="rgb(0, 0, 0)" stroke="rgb(204, 204, 204)" stroke-width="1px"></line><line x1="800.356681868662" y1="0" x2="800.356681868662" y2="5" style="visibility: inherit;" fill="rgb(0, 0, 0)" stroke="rgb(204, 204, 204)" stroke-width="1px"></line><line x1="894.758115338983" y1="0" x2="894.758115338983" y2="5" style="visibility: inherit;" fill="rgb(0, 0, 0)" stroke="rgb(204, 204, 204)" stroke-width="1px"></line><line x1="989.1595488093039" y1="0" x2="989.1595488093039" y2="5" style="visibility: inherit;" fill="rgb(0, 0, 0)" stroke="rgb(204, 204, 204)" stroke-width="1px"></line></g><g transform="translate(0, 8)"><text x="45.145214106094265" y="0" dx="0em" dy="0.95em" style="text-anchor: middle; visibility: inherit; font-family: Roboto, sans-serif; font-size: 12px; font-weight: 200;" fill="rgb(50, 49, 63)" stroke="none" stroke-width="1px">0</text><text x="139.54664757641524" y="0" dx="0em" dy="0.95em" style="text-anchor: middle; visibility: inherit; font-family: Roboto, sans-serif; font-size: 12px; font-weight: 200;" fill="rgb(50, 49, 63)" stroke="none" stroke-width="1px">20k</text><text x="233.94808104673618" y="0" dx="0em" dy="0.95em" style="text-anchor: middle; visibility: inherit; font-family: Roboto, sans-serif; font-size: 12px; font-weight: 200;" fill="rgb(50, 49, 63)" stroke="none" stroke-width="1px">40k</text><text x="328.3495145170572" y="0" dx="0em" dy="0.95em" style="text-anchor: middle; visibility: inherit; font-family: Roboto, sans-serif; font-size: 12px; font-weight: 200;" fill="rgb(50, 49, 63)" stroke="none" stroke-width="1px">60k</text><text x="422.75094798737814" y="0" dx="0em" dy="0.95em" style="text-anchor: middle; visibility: inherit; font-family: Roboto, sans-serif; font-size: 12px; font-weight: 200;" fill="rgb(50, 49, 63)" stroke="none" stroke-width="1px">80k</text><text x="517.1523814576991" y="0" dx="0em" dy="0.95em" style="text-anchor: middle; visibility: inherit; font-family: Roboto, sans-serif; font-size: 12px; font-weight: 200;" fill="rgb(50, 49, 63)" stroke="none" stroke-width="1px">100k</text><text x="611.55381492802" y="0" dx="0em" dy="0.95em" style="text-anchor: middle; visibility: inherit; font-family: Roboto, sans-serif; font-size: 12px; font-weight: 200;" fill="rgb(50, 49, 63)" stroke="none" stroke-width="1px">120k</text><text x="705.955248398341" y="0" dx="0em" dy="0.95em" style="text-anchor: middle; visibility: inherit; font-family: Roboto, sans-serif; font-size: 12px; font-weight: 200;" fill="rgb(50, 49, 63)" stroke="none" stroke-width="1px">140k</text><text x="800.356681868662" y="0" dx="0em" dy="0.95em" style="text-anchor: middle; visibility: inherit; font-family: Roboto, sans-serif; font-size: 12px; font-weight: 200;" fill="rgb(50, 49, 63)" stroke="none" stroke-width="1px">160k</text><text x="894.758115338983" y="0" dx="0em" dy="0.95em" style="text-anchor: middle; visibility: inherit; font-family: Roboto, sans-serif; font-size: 12px; font-weight: 200;" fill="rgb(50, 49, 63)" stroke="none" stroke-width="1px">180k</text><text x="989.1595488093039" y="0" dx="0em" dy="0.95em" style="text-anchor: middle; visibility: inherit; font-family: Roboto, sans-serif; font-size: 12px; font-weight: 200;" fill="rgb(50, 49, 63)" stroke="none" stroke-width="1px">200k</text></g><line x1="0" y1="0" x2="1040.25625" y2="0" fill="rgb(0, 0, 0)" stroke="rgb(204, 204, 204)" stroke-width="1px"></line></g></g></g></g></svg>