<svg viewBox="0 0 1112.5999755859375 400" xmlns="http://www.w3.org/2000/svg"><g><g><g><g><g><line x1="30.78125" y1="349.85982876925624" x2="25.78125" y2="349.85982876925624" style="visibility: inherit;" fill="rgb(0, 0, 0)" stroke="rgb(204, 204, 204)" stroke-width="1px"></line><line x1="30.78125" y1="314.705158266328" x2="25.78125" y2="314.705158266328" style="visibility: inherit;" fill="rgb(0, 0, 0)" stroke="rgb(204, 204, 204)" stroke-width="1px"></line><line x1="30.78125" y1="279.5504877633998" x2="25.78125" y2="279.5504877633998" style="visibility: inherit;" fill="rgb(0, 0, 0)" stroke="rgb(204, 204, 204)" stroke-width="1px"></line><line x1="30.78125" y1="244.39581726047155" x2="25.78125" y2="244.39581726047155" style="visibility: inherit;" fill="rgb(0, 0, 0)" stroke="rgb(204, 204, 204)" stroke-width="1px"></line><line x1="30.78125" y1="209.24114675754336" x2="25.78125" y2="209.24114675754336" style="visibility: inherit;" fill="rgb(0, 0, 0)" stroke="rgb(204, 204, 204)" stroke-width="1px"></line><line x1="30.78125" y1="174.08647625461515" x2="25.78125" y2="174.08647625461515" style="visibility: inherit;" fill="rgb(0, 0, 0)" stroke="rgb(204, 204, 204)" stroke-width="1px"></line><line x1="30.78125" y1="138.93180575168697" x2="25.78125" y2="138.93180575168697" style="visibility: inherit;" fill="rgb(0, 0, 0)" stroke="rgb(204, 204, 204)" stroke-width="1px"></line><line x1="30.78125" y1="103.77713524875871" x2="25.78125" y2="103.77713524875871" style="visibility: inherit;" fill="rgb(0, 0, 0)" stroke="rgb(204, 204, 204)" stroke-width="1px"></line><line x1="30.78125" y1="68.62246474583051" x2="25.78125" y2="68.62246474583051" style="visibility: inherit;" fill="rgb(0, 0, 0)" stroke="rgb(204, 204, 204)" stroke-width="1px"></line><line x1="30.78125" y1="33.46779424290231" x2="25.78125" y2="33.46779424290231" style="visibility: inherit;" fill="rgb(0, 0, 0)" stroke="rgb(204, 204, 204)" stroke-width="1px"></line></g><g transform="translate(20.78125, 0)"><text x="0" y="349.85982876925624" dx="0em" dy="0.3em" style="text-anchor: end; visibility: inherit; font-family: Roboto, sans-serif; font-size: 12px; font-weight: 200;" fill="rgb(50, 49, 63)" stroke="none" stroke-width="1px">18</text><text x="0" y="314.705158266328" dx="0em" dy="0.3em" style="text-anchor: end; visibility: inherit; font-family: Roboto, sans-serif; font-size: 12px; font-weight: 200;" fill="rgb(50, 49, 63)" stroke="none" stroke-width="1px">20</text><text x="0" y="279.5504877633998" dx="0em" dy="0.3em" style="text-anchor: end; visibility: inherit; font-family: Roboto, sans-serif; font-size: 12px; font-weight: 200;" fill="rgb(50, 49, 63)" stroke="none" stroke-width="1px">22</text><text x="0" y="244.39581726047155" dx="0em" dy="0.3em" style="text-anchor: end; visibility: inherit; font-family: Roboto, sans-serif; font-size: 12px; font-weight: 200;" fill="rgb(50, 49, 63)" stroke="none" stroke-width="1px">24</text><text x="0" y="209.24114675754336" dx="0em" dy="0.3em" style="text-anchor: end; visibility: inherit; font-family: Roboto, sans-serif; font-size: 12px; font-weight: 200;" fill="rgb(50, 49, 63)" stroke="none" stroke-width="1px">26</text><text x="0" y="174.08647625461515" dx="0em" dy="0.3em" style="text-anchor: end; visibility: inherit; font-family: Roboto, sans-serif; font-size: 12px; font-weight: 200;" fill="rgb(50, 49, 63)" stroke="none" stroke-width="1px">28</text><text x="0" y="138.93180575168697" dx="0em" dy="0.3em" style="text-anchor: end; visibility: inherit; font-family: Roboto, sans-serif; font-size: 12px; font-weight: 200;" fill="rgb(50, 49, 63)" stroke="none" stroke-width="1px">30</text><text x="0" y="103.77713524875871" dx="0em" dy="0.3em" style="text-anchor: end; visibility: inherit; font-family: Roboto, sans-serif; font-size: 12px; font-weight: 200;" fill="rgb(50, 49, 63)" stroke="none" stroke-width="1px">32</text><text x="0" y="68.62246474583051" dx="0em" dy="0.3em" style="text-anchor: end; visibility: inherit; font-family: Roboto, sans-serif; font-size: 12px; font-weight: 200;" fill="rgb(50, 49, 63)" stroke="none" stroke-width="1px">34</text><text x="0" y="33.46779424290231" dx="0em" dy="0.3em" style="text-anchor: end; visibility: inherit; font-family: Roboto, sans-serif; font-size: 12px; font-weight: 200;" fill="rgb(50, 49, 63)" stroke="none" stroke-width="1px">36</text></g><line x1="30.78125" y1="0" x2="30.78125" y2="378" fill="rgb(0, 0, 0)" stroke="rgb(204, 204, 204)" stroke-width="1px"></line></g></g><g transform="translate(30, 0)" clip-path="url(#clip_0)"><clipPath id="clip_0"><rect width="1081" height="378"></rect></clipPath><g><g><g><line x1="14.680556305113816" y1="0" x2="14.680556305113816" y2="378" fill="rgb(0, 0, 0)" stroke="rgb(60, 60, 60)" stroke-width="1px" opacity="0.25"></line><line x1="121.05105703933305" y1="0" x2="121.05105703933305" y2="378" fill="rgb(0, 0, 0)" stroke="rgb(60, 60, 60)" stroke-width="1px" opacity="0.25"></line><line x1="227.42155777355228" y1="0" x2="227.42155777355228" y2="378" fill="rgb(0, 0, 0)" stroke="rgb(60, 60, 60)" stroke-width="1px" opacity="0.25"></line><line x1="333.79205850777146" y1="0" x2="333.79205850777146" y2="378" fill="rgb(0, 0, 0)" stroke="rgb(60, 60, 60)" stroke-width="1px" opacity="0.25"></line><line x1="440.16255924199066" y1="0" x2="440.16255924199066" y2="378" fill="rgb(0, 0, 0)" stroke="rgb(60, 60, 60)" stroke-width="1px" opacity="0.25"></line><line x1="546.5330599762099" y1="0" x2="546.5330599762099" y2="378" fill="rgb(0, 0, 0)" stroke="rgb(60, 60, 60)" stroke-width="1px" opacity="0.25"></line><line x1="652.903560710429" y1="0" x2="652.903560710429" y2="378" fill="rgb(0, 0, 0)" stroke="rgb(60, 60, 60)" stroke-width="1px" opacity="0.25"></line><line x1="759.2740614446484" y1="0" x2="759.2740614446484" y2="378" fill="rgb(0, 0, 0)" stroke="rgb(60, 60, 60)" stroke-width="1px" opacity="0.25"></line><line x1="865.6445621788675" y1="0" x2="865.6445621788675" y2="378" fill="rgb(0, 0, 0)" stroke="rgb(60, 60, 60)" stroke-width="1px" opacity="0.25"></line><line x1="972.0150629130868" y1="0" x2="972.0150629130868" y2="378" fill="rgb(0, 0, 0)" stroke="rgb(60, 60, 60)" stroke-width="1px" opacity="0.25"></line><line x1="1078.385563647306" y1="0" x2="1078.385563647306" y2="378" fill="rgb(0, 0, 0)" stroke="rgb(60, 60, 60)" stroke-width="1px" opacity="0.25"></line></g><g><line x1="0" y1="349.85982876925624" x2="1081.81875" y2="349.85982876925624" fill="rgb(0, 0, 0)" stroke="rgb(60, 60, 60)" stroke-width="1px" opacity="0.25"></line><line x1="0" y1="314.705158266328" x2="1081.81875" y2="314.705158266328" fill="rgb(0, 0, 0)" stroke="rgb(60, 60, 60)" stroke-width="1px" opacity="0.25"></line><line x1="0" y1="279.5504877633998" x2="1081.81875" y2="279.5504877633998" fill="rgb(0, 0, 0)" stroke="rgb(60, 60, 60)" stroke-width="1px" opacity="0.25"></line><line x1="0" y1="244.39581726047155" x2="1081.81875" y2="244.39581726047155" fill="rgb(0, 0, 0)" stroke="rgb(60, 60, 60)" stroke-width="1px" opacity="0.25"></line><line x1="0" y1="209.24114675754336" x2="1081.81875" y2="209.24114675754336" fill="rgb(0, 0, 0)" stroke="rgb(60, 60, 60)" stroke-width="1px" opacity="0.25"></line><line x1="0" y1="174.08647625461515" x2="1081.81875" y2="174.08647625461515" fill="rgb(0, 0, 0)" stroke="rgb(60, 60, 60)" stroke-width="1px" opacity="0.25"></line><line x1="0" y1="138.93180575168697" x2="1081.81875" y2="138.93180575168697" fill="rgb(0, 0, 0)" stroke="rgb(60, 60, 60)" stroke-width="1px" opacity="0.25"></line><line x1="0" y1="103.77713524875871" x2="1081.81875" y2="103.77713524875871" fill="rgb(0, 0, 0)" stroke="rgb(60, 60, 60)" stroke-width="1px" opacity="0.25"></line><line x1="0" y1="68.62246474583051" x2="1081.81875" y2="68.62246474583051" fill="rgb(0, 0, 0)" stroke="rgb(60, 60, 60)" stroke-width="1px" opacity="0.25"></line><line x1="0" y1="33.46779424290231" x2="1081.81875" y2="33.46779424290231" fill="rgb(0, 0, 0)" stroke="rgb(60, 60, 60)" stroke-width="1px" opacity="0.25"></line></g></g></g><g><g><line x1="0" y1="666.2518632956102" x2="1081.81875" y2="666.2518632956102" fill="rgb(0, 0, 0)" stroke="rgb(153, 153, 153)" stroke-width="1.5px"></line></g></g><g><g><line x1="14.680556305113816" y1="0" x2="14.680556305113816" y2="378" fill="rgb(0, 0, 0)" stroke="rgb(153, 153, 153)" stroke-width="1.5px"></line></g></g><g><g><g><g><g><path stroke="rgb(255, 112, 67)" stroke-width="2px" d="M14.680556305113816,468.40901253827934L17.339818823469297,368.4533570675562L19.999081341824777,324.248048338518L22.65834386018026,293.43586840245456L25.317606378535736,280.67362414552974L27.976868896891215,273.9908343653783L30.636131415246698,238.375259221356L33.29539393360218,207.4701231366539L35.95465645195766,228.76277101537286L38.61391897031314,204.35237736016356L41.27318148866862,218.9305833746205L43.932444007024095,214.0787222398813L46.591706525379585,204.4984921231038L49.25096904373506,195.36350968339687L51.910231562090544,208.72376594101988L54.56949408044602,179.48326225733962L57.2287565988015,170.07489275776746L59.888019117156986,157.77887668389792L62.54728163551246,140.96273887619748L65.20654415386794,150.90281957011308L67.86580667222343,187.4206655713843L70.5250691905789,179.30968771925168L73.1843317089344,196.8732101252253L75.84359422728987,200.08355993435148L78.50285674564535,218.3197610119549L81.16211926400082,183.61569749802408L83.8213817823563,163.5144579732857L86.48064430071179,140.6284092427659L89.13990681906728,156.65973499133227L91.79916933742277,148.35727664765963L94.45843185577824,173.2005907590932L97.11769437413372,175.63163264139683L99.7769568924892,172.73654385665458L102.43621941084469,161.38549049716528L105.09548192920016,175.6625519752732L107.75474444755564,187.23728741644578L110.41400696591111,198.79711786778975L113.0732694842666,201.69729090903235L115.73253200262208,203.0670787656467L118.39179452097756,182.84134233914358L121.05105703933305,130.063287973121L123.71031955768852,113.871355099209L126.36958207604401,102.57770582929153L129.0288445943995,110.22203334849827L131.68810711275495,102.6547994219213L134.34736963111044,137.50434848394315L137.00663214946593,164.8936416753907L139.6658946678214,181.60589999611952L142.32515718617688,192.93603925017044L144.98441970453237,176.5765280724794L147.64368222288783,197.35422486737042L150.30294474124332,200.65382650298386L152.96220725959878,200.5514821749379L155.62146977795427,157.26695867668082L158.28073229630976,122.82803288705315L160.93999481466525,105.38833323382377L163.59925733302074,126.9968473678239L166.2585198513762,145.1612514748L168.9177823697317,165.70426849301637L171.5770448880872,173.07251971466718L174.23630740644265,157.97839330077628L176.89556992479814,131.8368527258883L179.55483244315363,146.8580868831398L182.2140949615091,105.80774107734896L184.87335747986458,103.17052526185013L187.53261999822004,141.25230191670147L190.19188251657553,153.8186160591518L192.85114503493102,158.61600927567162L195.51040755328648,161.02989406541164L198.16967007164197,134.80069419168439L200.82893258999744,141.02371266446653L203.48819510835293,116.51719695831451L206.14745762670842,104.9978921464669L208.80672014506388,122.02744932616442L211.46598266341937,141.55469943768713L214.12524518177483,139.17593681636254L216.78450770013035,138.6123385642959L219.44377021848584,143.42380296045081L222.1030327368413,163.4900619671104L224.7622952551968,164.9033424677965L227.42155777355228,146.84541638433802L230.08082029190774,173.18864516648182L232.74008281026323,161.47420866437182L235.3993453286187,114.47450241000469L238.05860784697418,129.0403519531454L240.71787036532967,142.11194421760587L243.37713288368514,145.58524097769734L246.03639540204063,166.09113054620423L248.6956579203961,115.36081021227255L251.35492043875158,106.94779474199485L254.01418295710707,93.41254319452281L256.67344547546253,117.71363145882768L259.332707993818,138.41498473031234L261.9919705121735,159.57314255531875L264.651233030529,137.57777037269818L267.3104955488845,169.80378116830283L269.9697580672399,156.33005602884074L272.6290205855954,157.2233478332447L275.2882831039509,146.92925067387233L277.9475456223064,109.67748462415231L280.6068081406619,124.88855155321633L283.2660706590174,105.91099432309896L285.9253331773728,82.93365356881188L288.5845956957283,115.0126121016547L291.2438582140838,131.63127227385675L293.9031207324393,126.08567444350709L296.56238325079477,105.21610244285635L299.2216457691502,112.03536884512346L301.8809082875057,117.58500587298117L304.5401708058612,127.29012588562573L307.19943332421667,135.83279540983784L309.85869584257216,129.5185922911956L312.51795836092765,122.34224396185262L315.1772208792831,93.50173529999425L317.8364833976386,106.900235994427L320.49574591599406,98.45015128853974L323.15500843434955,128.15656966730555L325.81427095270504,104.78340709452054L328.4735334710605,102.43831529104094L331.13279598941597,122.08132343032185L333.79205850777146,102.65937902922785L336.45132102612695,83.03928304017441L339.11058354448244,115.46969355668332L341.76984606283787,90.23770714043212L344.42910858119336,98.89303898915229L347.08837109954885,95.3608677614607L349.7476336179043,132.8715684136067L352.4068961362598,121.64379260756974L355.0661586546153,125.1721771902498L357.7254211729708,88.85542943647745L360.38468369132625,73.16831226074468L363.04394620968174,117.62733185603533L365.7032087280372,114.6251258228343L368.3624712463927,130.84475489373816L371.0217337647482,108.3369165500586L373.68099628310364,85.19450397976364L376.34025880145913,116.0400300881924L378.9995213198146,123.98776213735027L381.6587838381701,121.51505742274169L384.3180463565256,148.86168675131492L386.97730887488103,157.86052894724318L389.6365713932365,157.08786583005227L392.295833911592,162.34915906094886L394.9550964299475,161.92432764656624L397.614358948303,145.7587165249741L400.2736214666584,164.17604577202565L402.9328839850139,178.30426057812122L405.5921465033694,151.34303561390968L408.2514090217249,162.03506100355887L410.9106715400804,159.58822667001485L413.5699340584358,166.4754486552488L416.2291965767913,160.83532415561857L418.8884590951468,163.3959779416778L421.5477216135023,165.2432108610441L424.2069841318578,132.9249631464171L426.8662466502132,105.15637695588681L429.5255091685687,84.90696630914623L432.1847716869242,100.08721176660114L434.8440342052797,130.28447347113138L437.5032967236352,102.65842970018278L440.16255924199066,121.03870436115244L442.8218217603461,143.7477401060773L445.4810842787016,141.98565769592955L448.1403467970571,158.4881221798019L450.79960931541257,155.41938292337525L453.45887183376806,116.45232155879708L456.1181343521235,120.75500648552412L458.777396870479,89.32270623364998L461.43665938883447,127.32321356687417L464.09592190719,149.3167591537954L466.7551844255455,100.71091568301763L469.41444694390094,88.23544476514253L472.07370946225643,73.17578334017294L474.7329719806119,106.02234075145422L477.3922344989674,87.32892314491424L480.0514970173229,79.10763896817892L482.71075953567833,113.67318130511514L485.3700220540338,125.38731910639369L488.0292845723893,95.33001414743292L490.6885470907448,87.40133836004917L493.3478096091003,54.264820271270004L496.00707212745573,41.16043979627402L498.6663346458112,95.5652856157992L501.3255971641667,132.43885246912896L503.9848596825222,134.37115745125593L506.6441222008777,84.2309711064928L509.3033847192331,62.94343908646807L511.9626472375886,58.67997977313974L514.6219097559441,91.49942942226954L517.2811722742996,92.03438932097419L519.9404347926551,99.80769569684723L522.5996973110106,118.55130314947084L525.2589598293661,124.08047527049231L527.9182223477216,149.9462832263911L530.577484866077,90.7244768898717L533.2367473844325,102.30601925901748L535.896009902788,79.38770323255531L538.5552724211434,92.48097310632618L541.214534939499,129.7614709492709L543.8737974578544,144.49236170083557L546.5330599762099,153.575314877584L549.1923224945654,132.4053583335017L551.8515850129209,117.2963977165736L554.5108475312763,90.99626926018534L557.1701100496318,109.95568879855635L559.8293725679872,118.17075401233193L562.4886350863428,114.35673442995785L565.1478976046982,138.7475264433481L567.8071601230538,128.14931527359192L570.4664226414092,129.8300561604946L573.1256851597647,101.48746740953844L575.7849476781201,109.52918775813967L578.4442101964756,122.8923000636525L581.1034727148311,143.8365064257059L583.7627352331866,146.4664287354269L586.421997751542,135.64987447292955L589.0812602698976,148.11670210787136L591.740522788253,140.5866915058111L594.3997853066086,155.21822044858715L597.059047824964,124.263874017902L599.7183103433194,113.65763226930093L602.3775728616749,119.97653163697373L605.0368353800304,142.15577388773738L607.6960978983859,137.87049492559294L610.3553604167414,128.31600051875242L613.0146229350968,138.49313105840275L615.6738854534524,142.25824114372094L618.3331479718078,149.25555180682252L620.9924104901634,112.93774595172025L623.6516730085187,137.38216473545856L626.3109355268742,134.65081860238038L628.9701980452298,139.9183754223265L631.6294605635852,105.82534382789646L634.2887230819408,132.94087048402199L636.9479856002962,128.55310286464228L639.6072481186517,147.98284641159827L642.2665106370072,147.82291438349557L644.9257731553627,154.60728999744885L647.5850356737182,145.39673607735696L650.2442981920736,147.44336109263685L652.903560710429,143.38015212291384L655.5628232287846,147.49247693911326L658.22208574714,163.22077452816993L660.8813482654956,146.73339630871413L663.540610783851,156.05346670879766L666.1998733022065,149.6312678092998L668.859135820562,170.19318791167035L671.5183983389175,162.5887839324231L674.1776608572729,111.88086239223573L676.8369233756284,131.80179402399747L679.4961858939838,120.1914946995337L682.1554484123394,132.26239043769255L684.8147109306948,134.09368020959914L687.4739734490504,139.1879613243462L690.1332359674058,149.1048564437334L692.7924984857614,147.44168412641548L695.4517610041167,154.97011328470816L698.1110235224722,150.19413640986636L700.7702860408277,163.04132442597233L703.4295485591832,140.74870708596364L706.0888110775387,100.61635350902588L708.7480735958942,108.05810610022499L711.4073361142496,135.7933464603817L714.0665986326052,112.43992440715232L716.7258611509606,135.08609367530752L719.3851236693162,140.7818034407404L722.0443861876715,161.71847051436296L724.703648706027,138.9979182755074L727.3629112243825,148.44990700396946L730.022173742738,140.71717517197635L732.6814362610936,132.40819760473607L735.340698779449,130.6967292235796L737.9999612978044,107.85316361503833L740.65922381616,123.19317112177013L743.3184863345155,112.55893363449977L745.977748852871,125.82597687179685L748.6370113712264,130.519445831306L751.2962738895818,143.71684581017158L753.9555364079374,129.48201252022787L756.6147989262928,121.87030869970314L759.2740614446484,91.18439775495307L761.9333239630038,108.2242679636481L764.5925864813593,145.12571754636178L767.2518489997148,157.94539099682993L769.9111115180702,122.26066270302144L772.5703740364257,134.50494054437803L775.2296365547812,104.45010484418758L777.8888990731366,95.66332806587133L780.5481615914922,132.77790254657472L783.2074241098476,126.96402724949458L785.8666866282032,144.06380236785452L788.5259491465586,115.61463960227135L791.185211664914,138.99154625288492L793.8444741832695,109.13770304517135L796.503736701625,92.76183152282603L799.1629992199805,116.20476013718525L801.822261738336,102.8680347348101L804.4815242566914,127.12455082447929L807.140786775047,152.02750014623697L809.8000492934024,142.52208662308215L812.459311811758,153.0061009282973L815.1185743301133,148.246787630981L817.7778368484688,141.44745670920858L820.4370993668243,144.17816365599435L823.0963618851798,108.20680055236804L825.7556244035353,115.0981339562133L828.4148869218908,145.23352913727376L831.0741494402462,106.84642345252277L833.7334119586018,123.77938426270907L836.3926744769572,111.82213589775476L839.0519369953128,125.81182545133359L841.7111995136681,117.45318025290725L844.3704620320236,130.7076961234273L847.0297245503792,130.2218980852775L849.6889870687346,143.10739941228337L852.3482495870902,111.83226898758627L855.0075121054456,70.86529119084007L857.6667746238011,109.59788238230372L860.3260371421566,115.08529672715487L862.985299660512,108.1976370108379L865.6445621788675,73.44264430299468L868.303824697223,69.0523884081385L870.9630872155784,71.5144712468515L873.622349733934,76.82364762352896L876.2816122522894,110.86019837296625L878.940874770645,130.03377754707904L881.6001372890004,130.27173180755372L884.2593998073559,135.09429285669924L886.9186623257114,149.4841459242371L889.5779248440668,145.78830914347563L892.2371873624223,143.47576726870838L894.8964498807778,143.91447620950993L897.5557123991333,142.91490725182138L900.2149749174888,133.41745794314963L902.8742374358442,157.79985815562455L905.5334999541998,156.40939818695244L908.1927624725552,161.13342878967688L910.8520249909108,152.27619420716303L913.5112875092661,150.48045855150284L916.1705500276216,144.352792010849L918.8298125459771,173.28985193612002L921.4890750643326,113.3864150767136L924.1483375826881,124.04443386215094L926.8076001010436,128.8167693317672L929.466862619399,119.52868700499211L932.1261251377546,112.29003266742076L934.78538765611,140.5317479257266L937.4446501744656,140.88179697693238L940.1039126928209,112.14797439152596L942.7631752111764,136.98578733636214L945.4224377295319,137.1982606166865L948.0817002478874,125.27553663842971L950.740962766243,146.726309145928L953.4002252845984,115.75952453273354L956.0594878029538,123.28603163099648L958.7187503213094,115.37194421065252L961.3780128396648,114.33155958455798L964.0372753580203,123.00822169804957L966.6965378763758,145.24208815524725L969.3558003947312,145.3545888919853L972.0150629130868,137.14497644958507L974.6743254314422,103.19784461010983L977.3335879497978,132.91709904332407L979.9928504681532,122.15254587273508L982.6521129865087,135.0864001350639L985.3113755048641,108.95160459504955L987.9706380232196,122.71456081654415L990.6299005415751,137.11390151094136L993.2891630599306,135.05280422478822L995.948425578286,148.57879013985456L998.6076880966416,147.2306860272602L1001.266950614997,104.0779623237262L1003.9262131333526,125.63660423910078L1006.585475651708,118.88441487563775L1009.2447381700634,108.3964240974331L1011.9040006884189,132.5506045096433L1014.5632632067744,121.81174060254854L1017.2225257251299,91.01292633775651L1019.8817882434854,64.2655635327131L1022.5410507618408,102.63200121805922L1025.2003132801963,113.00509234623908L1027.8595757985518,143.4710844728564L1030.5188383169072,124.10019178400736L1033.1781008352627,120.28740172203501L1035.8373633536182,111.65139852020556L1038.4966258719737,125.74339190709605L1041.1558883903292,131.9883056199891L1043.8151509086847,141.754303006142L1046.4744134270402,125.36674165231915L1049.1336759453957,131.34195173513424L1051.7929384637512,120.62388867006999L1054.4522009821067,159.74224922302565L1057.1114635004622,161.00062424839317L1059.7707260188176,148.0916286613996L1062.429988537173,140.04935093216113L1065.0892510555286,124.31574258301343L1067.748513573884,140.75302461839516L1070.4077760922396,139.1128147249055L1073.067038610595,126.44096510432855L1075.7263011289504,134.5617601403051L1078.385563647306,122.70177320115066" style="fill: none;" fill="none"></path></g></g></g></g><g opacity="0.2"><g><g><g><path stroke="rgb(255, 112, 67)" stroke-width="2px" d="M14.680556305113816,468.40901253827934L17.339818823469297,308.4799637851223L19.999081341824777,281.81095195864117L22.65834386018026,257.2007447976438L25.317606378535736,264.0112380436887L27.976868896891215,264.746130295108L30.636131415246698,187.44441691620165L33.29539393360218,162.41013803585196L35.95465645195766,260.16529075255926L38.61391897031314,168.10578766709563L41.27318148866862,240.66566914071078L43.932444007024095,206.82733415180965L46.591706525379585,190.15942806147686L49.25096904373506,181.6789324054093L51.910231562090544,228.74844584774834L54.56949408044602,135.64312940047944L57.2287565988015,155.96631981507036L59.888019117156986,139.33797453024278L62.54728163551246,115.7410939339875L65.20654415386794,165.8120320482384L67.86580667222343,242.19543184782796L70.5250691905789,167.14348783623404L73.1843317089344,223.218146973074L75.84359422728987,204.8990466183868L78.50285674564535,245.67393301324785L81.16211926400082,131.5597502241058L83.8213817823563,133.36265011974092L86.48064430071179,106.29937128246185L89.13990681906728,180.70670884706502L91.79916933742277,135.90359372079314L94.45843185577824,210.46555368793034L97.11769437413372,179.27819498115616L99.7769568924892,168.39391102515663L102.43621941084469,144.35891127098404L105.09548192920016,197.0781435788531L107.75474444755564,204.59939027973783L110.41400696591111,216.13686336595634L113.0732694842666,206.04755044397388L115.73253200262208,205.12176054293874L118.39179452097756,152.50273776698083L121.05105703933305,50.89620652991365L123.71031955768852,89.58345580782101L126.36958207604401,85.63723193256764L129.0288445943995,121.68852462399754L131.68810711275495,91.30394853402234L134.34736963111044,189.77867207154216L137.00663214946593,205.9775814599998L139.6658946678214,206.67428747627457L142.32515718617688,209.93124813086513L144.98441970453237,152.03726130627348L147.64368222288783,228.5207700594551L150.30294474124332,205.60322895637995L152.96220725959878,200.39796568286937L155.62146977795427,92.34017342940854L158.28073229630976,71.16964420266574L160.93999481466525,79.2287837539962L163.59925733302074,159.40961856881185L166.2585198513762,172.40785763525793L168.9177823697317,196.5187940203367L171.5770448880872,184.1248965471426L174.23630740644265,135.33720367994113L176.89556992479814,92.62454186355717L179.55483244315363,169.3899381190168L182.2140949615091,44.23222236866349L184.87335747986458,99.21470153860183L187.53261999822004,198.37496689897847L190.19188251657553,172.6680872728271L192.85114503493102,165.81209910045112L195.51040755328648,164.65072125002163L198.16967007164197,95.45689438109372L200.82893258999744,150.35824037363994L203.48819510835293,79.7574233990865L206.14745762670842,87.71893492869555L208.80672014506388,147.57178509571077L211.46598266341937,170.8455746049712L214.12524518177483,135.6077928843756L216.78450770013035,137.766941186196L219.44377021848584,150.64099955468328L222.1030327368413,193.58945047709966L224.7622952551968,167.02326321882575L227.42155777355228,119.7585272591503L230.08082029190774,212.70348833969751L232.74008281026323,143.90255391120678L235.3993453286187,43.97494302845402L238.05860784697418,150.88912626785634L240.71787036532967,161.71933261429658L243.37713288368514,150.7951861178346L246.03639540204063,196.84996489896443L248.6956579203961,39.26532971137514L251.35492043875158,94.32827153657833L254.01418295710707,73.10966587331473L256.67344547546253,154.16526385528505L259.332707993818,169.46701463753928L261.9919705121735,191.31037929282826L264.651233030529,104.58471209876724L267.3104955488845,218.14279736170988L269.9697580672399,136.11946831964752L272.6290205855954,158.56328553985074L275.2882831039509,131.48810493481372L277.9475456223064,53.79983554957232L280.6068081406619,147.70515194681232L283.2660706590174,77.44465847792291L285.9253331773728,48.467642437381386L288.5845956957283,163.13104990091895L291.2438582140838,156.55926253215978L293.9031207324393,117.76727769798264L296.56238325079477,73.91174444188016L299.2216457691502,122.26426844852409L301.8809082875057,125.90946141476772L304.5401708058612,141.8478059045926L307.19943332421667,148.64679969615594L309.85869584257216,120.04728761323213L312.51795836092765,111.57772146783802L315.1772208792831,50.240972307206626L317.8364833976386,126.99798703607613L320.49574591599406,85.77502422970878L323.15500843434955,172.71619723545422L325.81427095270504,69.72366323534311L328.4735334710605,98.92067758582141L331.13279598941597,151.54583563924322L333.79205850777146,73.52646242758681L336.45132102612695,53.60913905659453L339.11058354448244,164.11530933144658L341.76984606283787,52.389727516055274L344.42910858119336,111.87603676223257L347.08837109954885,90.06261091992339L349.7476336179043,189.13761939182558L352.4068961362598,104.80212889851424L355.0661586546153,130.46475406426987L357.7254211729708,34.38030780581876L360.38468369132625,49.63763649714545L363.04394620968174,184.31586124897123L365.7032087280372,110.12181677303273L368.3624712463927,155.17419850009395L371.0217337647482,74.5751590345391L373.68099628310364,50.48088512432141L376.34025880145913,162.30831925083552L378.9995213198146,135.90936021108712L381.6587838381701,117.80600035082885L384.3180463565256,189.88163074417488L386.97730887488103,171.3587922411357L389.6365713932365,155.9288711542658L392.295833911592,170.24109890729378L394.9550964299475,161.28708052499238L397.614358948303,121.5102998425858L400.2736214666584,191.80203964260303L402.9328839850139,199.49658278726451L405.5921465033694,110.90119816759217L408.2514090217249,178.07309908803276L410.9106715400804,155.9179751696987L413.5699340584358,176.8062816330999L416.2291965767913,152.37513740617328L418.8884590951468,167.23695862076673L421.5477216135023,168.01406024009367L424.2069841318578,84.44759157447639L426.8662466502132,63.50349767009151L429.5255091685687,54.53285033903538L432.1847716869242,122.85757995278351L434.8440342052797,175.58036602792671L437.5032967236352,61.21936404375969L440.16255924199066,148.6091163526069L442.8218217603461,177.81129372346467L445.4810842787016,139.3425340807078L448.1403467970571,183.24181890561056L450.79960931541257,150.81627403873526L453.45887183376806,58.001729511929824L456.1181343521235,127.20903387561464L458.777396870479,42.174255855838716L461.43665938883447,184.3239745667105L464.09592190719,182.30707753417715L466.7551844255455,27.802150476851153L469.41444694390094,69.52223838833004L472.07370946225643,50.58629120271843L474.7329719806119,155.2921768683761L477.3922344989674,59.288796735104334L480.0514970173229,66.77571270307604L482.71075953567833,165.52149481051947L485.3700220540338,142.95852580831152L488.0292845723893,50.24405670899179L490.6885470907448,75.50832467897355L493.3478096091003,4.560043138101273L496.00707212745573,21.503869083779882L498.6663346458112,177.17255434508695L501.3255971641667,187.74920274912375L503.9848596825222,137.2696149244463L506.6441222008777,9.020691589348083L509.3033847192331,31.01214105643085L511.9626472375886,52.28479080314732L514.6219097559441,140.72860389596445L517.2811722742996,92.83682916903105L519.9404347926551,111.46765526065695L522.5996973110106,146.66671432840627L525.2589598293661,132.37423345202458L527.9182223477216,188.7449951602393L530.577484866077,1.8917673850923808L533.2367473844325,119.67833281273627L535.896009902788,45.01022919286217L538.5552724211434,112.12087791698235L541.214534939499,185.68221771368803L543.8737974578544,166.5886978281827L546.5330599762099,167.1997446427067L549.1923224945654,100.65042351737814L551.8515850129209,94.63295679118131L554.5108475312763,51.546076575603L557.1701100496318,138.39481810611295L559.8293725679872,130.49335183299527L562.4886350863428,108.63570505639676L565.1478976046982,175.33371446343352L567.8071601230538,112.25199851895772L570.4664226414092,132.35116749084864L573.1256851597647,58.973584283104174L575.7849476781201,121.5917682810415L578.4442101964756,142.9369685219218L581.1034727148311,175.25281596878597L583.7627352331866,150.4113122000084L586.421997751542,119.42504307918371L589.0812602698976,166.81694356028405L591.740522788253,129.29167560272063L594.3997853066086,177.16551386275123L597.059047824964,77.8323543718742L599.7183103433194,97.74826964639936L602.3775728616749,129.45488068848292L605.0368353800304,175.42463726388286L607.6960978983859,131.44257648237635L610.3553604167414,113.98425890849155L613.0146229350968,153.75882686787835L615.6738854534524,147.90590627169817L618.3331479718078,159.75151780147485L620.9924104901634,58.46103716906687L623.6516730085187,174.0487929110661L626.3109355268742,130.55379940276302L628.9701980452298,147.81971065224565L631.6294605635852,54.68579643625136L634.2887230819408,173.61416046821032L636.9479856002962,121.97145143557267L639.6072481186517,177.12746173203223L642.2665106370072,147.58301634134148L644.9257731553627,164.78385341837867L647.5850356737182,131.5809051972192L650.2442981920736,150.51329861555664L652.903560710429,137.2853386683293L655.5628232287846,153.66096416341242L658.22208574714,186.813220911755L660.8813482654956,122.00232897953053L663.540610783851,170.03357230892308L666.1998733022065,139.99796946005296L668.859135820562,201.0360680652262L671.5183983389175,151.1821779635523L674.1776608572729,35.81898008195484L676.8369233756284,161.68319147164013L679.4961858939838,102.77604571283818L682.1554484123394,150.3687340449307L684.8147109306948,136.84061486745907L687.4739734490504,146.82938299646676L690.1332359674058,163.98019912281433L692.7924984857614,144.94692565043852L695.4517610041167,166.26275702214718L698.1110235224722,143.0301710976036L700.7702860408277,182.3121064501312L703.4295485591832,107.30978107595058L706.0888110775387,40.41782314361909L708.7480735958942,119.22073498702363L711.4073361142496,177.39620700061693L714.0665986326052,77.40979132730816L716.7258611509606,169.0553475775403L719.3851236693162,149.32536808888977L722.0443861876715,193.12347112479688L724.703648706027,104.91708991722393L727.3629112243825,162.62789009666253L730.022173742738,129.11807742398665L732.6814362610936,119.94473125387576L735.340698779449,128.12952665184488L737.9999612978044,73.5878152022263L740.65922381616,146.20318238186786L743.3184863345155,96.60757740359423L745.977748852871,145.72654172774253L748.6370113712264,137.55964927056982L751.2962738895818,163.51294577846988L753.9555364079374,108.12976258531245L756.6147989262928,110.45275296891593L759.2740614446484,45.15553133782798L761.9333239630038,133.78407327669072L764.5925864813593,200.47789192043246L767.2518489997148,177.17490117253217L769.9111115180702,68.73357026230875L772.5703740364257,152.87135730641307L775.2296365547812,59.367851293902056L777.8888990731366,82.48316289839705L780.5481615914922,188.44976426762994L783.2074241098476,118.24321430387442L785.8666866282032,169.71346504539434L788.5259491465586,72.94089545389667L791.185211664914,174.0569062288053L793.8444741832695,64.35693823360101L796.503736701625,68.19802423930827L799.1629992199805,151.36915305872412L801.822261738336,82.86294663124727L804.4815242566914,163.50932495898297L807.140786775047,189.3819241288736L809.8000492934024,128.26396633834995L812.459311811758,168.73212238612L815.1185743301133,141.10781768500655L817.7778368484688,131.2484603265498L820.4370993668243,148.2742240761732L823.0963618851798,54.24975589692844L825.7556244035353,125.43513406198126L828.4148869218908,190.4366219088644L831.0741494402462,49.26576492539628L833.7334119586018,149.1788254779886L836.3926744769572,93.88626335032325L839.0519369953128,146.79635978170185L841.7111995136681,104.91521245526775L844.3704620320236,150.58946992920738L847.0297245503792,129.4932010280528L849.6889870687346,162.4356514027922L852.3482495870902,64.91957335054069L855.0075121054456,9.414824495720575L857.6667746238011,167.69676916949916L860.3260371421566,123.31641824443149L862.985299660512,97.86614743636243L865.6445621788675,21.310155241229694L868.303824697223,62.467004565854396L870.9630872155784,75.20759550492106L873.622349733934,84.78741218854506L876.2816122522894,161.91502449712203L878.940874770645,158.79414630824823L881.6001372890004,130.62866319826574L884.2593998073559,142.32813443041755L886.9186623257114,171.06892552554396L889.5779248440668,140.24455397233345L892.2371873624223,140.00695445655754L894.8964498807778,144.57253962071235L897.5557123991333,141.41555381528838L900.2149749174888,119.17128398014208L902.8742374358442,194.37345847433687L905.5334999541998,154.3237082339442L908.1927624725552,168.21947469376363L910.8520249909108,138.9903423333921L913.5112875092661,147.78685506801253L916.1705500276216,135.16129219986823L918.8298125459771,216.69544182402643L921.4890750643326,23.53125978760399L924.1483375826881,140.03146204030696L926.8076001010436,135.97527253619162L929.466862619399,105.59656351482947L932.1261251377546,101.43205116106378L934.78538765611,182.89432081318532L937.4446501744656,141.40687055374104L940.1039126928209,69.04724051341634L942.7631752111764,174.24250675361628L945.4224377295319,137.5169705371731L948.0817002478874,107.39145067104444L950.740962766243,178.90246790717552L953.4002252845984,69.30934761294169L956.0594878029538,134.57579227839082L958.7187503213094,103.50081308013657L961.3780128396648,112.77098264541623L964.0372753580203,136.0232148682869L966.6965378763758,178.5928878410439L969.3558003947312,145.52333999709234L972.0150629130868,124.83055778598475L974.6743254314422,52.277146850897154L977.3335879497978,177.49598069314538L979.9928504681532,106.00571611685137L982.6521129865087,154.4871815285573L985.3113755048641,69.74941128502786L987.9706380232196,143.35899514878614L990.6299005415751,158.71291255253703L993.2891630599306,131.9611582955585L995.948425578286,168.8677690124541L998.6076880966416,145.20852985836848L1001.266950614997,39.34887676842515L1003.9262131333526,157.97456711216267L1006.585475651708,108.7561308304432L1009.2447381700634,92.66443793012604L1011.9040006884189,168.7818751279588L1014.5632632067744,105.70344474190632L1017.2225257251299,44.814704940568504L1019.8817882434854,24.144519325147833L1022.5410507618408,160.18165774607834L1025.2003132801963,128.56472903850877L1027.8595757985518,189.17007266278245L1030.5188383169072,95.04385275073398L1033.1781008352627,114.56821662907642L1035.8373633536182,98.69739371746137L1038.4966258719737,146.8813819874317L1041.1558883903292,141.35567618932873L1043.8151509086847,156.40329908537137L1046.4744134270402,100.78539962158503L1049.1336759453957,140.3047668593567L1051.7929384637512,104.54679407247369L1054.4522009821067,218.4197900524592L1057.1114635004622,162.88818678644444L1059.7707260188176,128.7281352809092L1062.429988537173,127.98593433830344L1065.0892510555286,100.71533005929183L1067.748513573884,165.4089476714677L1070.4077760922396,136.65249988467102L1073.067038610595,107.43319067346312L1075.7263011289504,146.74295269426975L1078.385563647306,104.91179279241899" style="fill: none;" fill="none"></path></g></g></g></g></g></g><g transform="translate(30, 378)" clip-path="url(#clip_1)"><clipPath id="clip_1"><rect width="1081" height="22"></rect></clipPath><g><g><line x1="14.680556305113816" y1="0" x2="14.680556305113816" y2="5" style="visibility: inherit;" fill="rgb(0, 0, 0)" stroke="rgb(204, 204, 204)" stroke-width="1px"></line><line x1="121.05105703933305" y1="0" x2="121.05105703933305" y2="5" style="visibility: inherit;" fill="rgb(0, 0, 0)" stroke="rgb(204, 204, 204)" stroke-width="1px"></line><line x1="227.42155777355228" y1="0" x2="227.42155777355228" y2="5" style="visibility: inherit;" fill="rgb(0, 0, 0)" stroke="rgb(204, 204, 204)" stroke-width="1px"></line><line x1="333.79205850777146" y1="0" x2="333.79205850777146" y2="5" style="visibility: inherit;" fill="rgb(0, 0, 0)" stroke="rgb(204, 204, 204)" stroke-width="1px"></line><line x1="440.16255924199066" y1="0" x2="440.16255924199066" y2="5" style="visibility: inherit;" fill="rgb(0, 0, 0)" stroke="rgb(204, 204, 204)" stroke-width="1px"></line><line x1="546.5330599762099" y1="0" x2="546.5330599762099" y2="5" style="visibility: inherit;" fill="rgb(0, 0, 0)" stroke="rgb(204, 204, 204)" stroke-width="1px"></line><line x1="652.903560710429" y1="0" x2="652.903560710429" y2="5" style="visibility: inherit;" fill="rgb(0, 0, 0)" stroke="rgb(204, 204, 204)" stroke-width="1px"></line><line x1="759.2740614446484" y1="0" x2="759.2740614446484" y2="5" style="visibility: inherit;" fill="rgb(0, 0, 0)" stroke="rgb(204, 204, 204)" stroke-width="1px"></line><line x1="865.6445621788675" y1="0" x2="865.6445621788675" y2="5" style="visibility: inherit;" fill="rgb(0, 0, 0)" stroke="rgb(204, 204, 204)" stroke-width="1px"></line><line x1="972.0150629130868" y1="0" x2="972.0150629130868" y2="5" style="visibility: inherit;" fill="rgb(0, 0, 0)" stroke="rgb(204, 204, 204)" stroke-width="1px"></line><line x1="1078.385563647306" y1="0" x2="1078.385563647306" y2="5" style="visibility: inherit;" fill="rgb(0, 0, 0)" stroke="rgb(204, 204, 204)" stroke-width="1px"></line></g><g transform="translate(0, 8)"><text x="14.680556305113816" y="0" dx="0em" dy="0.95em" style="text-anchor: middle; visibility: inherit; font-family: Roboto, sans-serif; font-size: 12px; font-weight: 200;" fill="rgb(50, 49, 63)" stroke="none" stroke-width="1px">0</text><text x="121.05105703933305" y="0" dx="0em" dy="0.95em" style="text-anchor: middle; visibility: inherit; font-family: Roboto, sans-serif; font-size: 12px; font-weight: 200;" fill="rgb(50, 49, 63)" stroke="none" stroke-width="1px">20k</text><text x="227.42155777355228" y="0" dx="0em" dy="0.95em" style="text-anchor: middle; visibility: inherit; font-family: Roboto, sans-serif; font-size: 12px; font-weight: 200;" fill="rgb(50, 49, 63)" stroke="none" stroke-width="1px">40k</text><text x="333.79205850777146" y="0" dx="0em" dy="0.95em" style="text-anchor: middle; visibility: inherit; font-family: Roboto, sans-serif; font-size: 12px; font-weight: 200;" fill="rgb(50, 49, 63)" stroke="none" stroke-width="1px">60k</text><text x="440.16255924199066" y="0" dx="0em" dy="0.95em" style="text-anchor: middle; visibility: inherit; font-family: Roboto, sans-serif; font-size: 12px; font-weight: 200;" fill="rgb(50, 49, 63)" stroke="none" stroke-width="1px">80k</text><text x="546.5330599762099" y="0" dx="0em" dy="0.95em" style="text-anchor: middle; visibility: inherit; font-family: Roboto, sans-serif; font-size: 12px; font-weight: 200;" fill="rgb(50, 49, 63)" stroke="none" stroke-width="1px">100k</text><text x="652.903560710429" y="0" dx="0em" dy="0.95em" style="text-anchor: middle; visibility: inherit; font-family: Roboto, sans-serif; font-size: 12px; font-weight: 200;" fill="rgb(50, 49, 63)" stroke="none" stroke-width="1px">120k</text><text x="759.2740614446484" y="0" dx="0em" dy="0.95em" style="text-anchor: middle; visibility: inherit; font-family: Roboto, sans-serif; font-size: 12px; font-weight: 200;" fill="rgb(50, 49, 63)" stroke="none" stroke-width="1px">140k</text><text x="865.6445621788675" y="0" dx="0em" dy="0.95em" style="text-anchor: middle; visibility: inherit; font-family: Roboto, sans-serif; font-size: 12px; font-weight: 200;" fill="rgb(50, 49, 63)" stroke="none" stroke-width="1px">160k</text><text x="972.0150629130868" y="0" dx="0em" dy="0.95em" style="text-anchor: middle; visibility: inherit; font-family: Roboto, sans-serif; font-size: 12px; font-weight: 200;" fill="rgb(50, 49, 63)" stroke="none" stroke-width="1px">180k</text><text x="1078.385563647306" y="0" dx="0em" dy="0.95em" style="text-anchor: middle; visibility: hidden; font-family: Roboto, sans-serif; font-size: 12px; font-weight: 200;" fill="rgb(50, 49, 63)" stroke="none" stroke-width="1px">200k</text></g><line x1="0" y1="0" x2="1081.81875" y2="0" fill="rgb(0, 0, 0)" stroke="rgb(204, 204, 204)" stroke-width="1px"></line></g></g></g></g></svg>