<svg viewBox="0 0 887 400" xmlns="http://www.w3.org/2000/svg"><g><g><g><g><g><line x1="30.78125" y1="377" x2="25.78125" y2="377" style="visibility: inherit;" fill="rgb(0, 0, 0)" stroke="rgb(204, 204, 204)" stroke-width="1px"></line><line x1="30.78125" y1="339.3" x2="25.78125" y2="339.3" style="visibility: inherit;" fill="rgb(0, 0, 0)" stroke="rgb(204, 204, 204)" stroke-width="1px"></line><line x1="30.78125" y1="301.6" x2="25.78125" y2="301.6" style="visibility: inherit;" fill="rgb(0, 0, 0)" stroke="rgb(204, 204, 204)" stroke-width="1px"></line><line x1="30.78125" y1="263.9" x2="25.78125" y2="263.9" style="visibility: inherit;" fill="rgb(0, 0, 0)" stroke="rgb(204, 204, 204)" stroke-width="1px"></line><line x1="30.78125" y1="226.2" x2="25.78125" y2="226.2" style="visibility: inherit;" fill="rgb(0, 0, 0)" stroke="rgb(204, 204, 204)" stroke-width="1px"></line><line x1="30.78125" y1="188.5" x2="25.78125" y2="188.5" style="visibility: inherit;" fill="rgb(0, 0, 0)" stroke="rgb(204, 204, 204)" stroke-width="1px"></line><line x1="30.78125" y1="150.8" x2="25.78125" y2="150.8" style="visibility: inherit;" fill="rgb(0, 0, 0)" stroke="rgb(204, 204, 204)" stroke-width="1px"></line><line x1="30.78125" y1="113.10000000000002" x2="25.78125" y2="113.10000000000002" style="visibility: inherit;" fill="rgb(0, 0, 0)" stroke="rgb(204, 204, 204)" stroke-width="1px"></line><line x1="30.78125" y1="75.39999999999998" x2="25.78125" y2="75.39999999999998" style="visibility: inherit;" fill="rgb(0, 0, 0)" stroke="rgb(204, 204, 204)" stroke-width="1px"></line><line x1="30.78125" y1="37.69999999999999" x2="25.78125" y2="37.69999999999999" style="visibility: inherit;" fill="rgb(0, 0, 0)" stroke="rgb(204, 204, 204)" stroke-width="1px"></line><line x1="30.78125" y1="0" x2="25.78125" y2="0" style="visibility: inherit;" fill="rgb(0, 0, 0)" stroke="rgb(204, 204, 204)" stroke-width="1px"></line></g><g transform="translate(20.78125, 0)"><text x="0" y="377" dx="0em" dy="0.3em" style="text-anchor: end; visibility: hidden; font-family: Roboto, sans-serif; font-size: 12px; font-weight: 200;" fill="rgb(33, 33, 33)" stroke="none" stroke-width="1px">29</text><text x="0" y="339.3" dx="0em" dy="0.3em" style="text-anchor: end; visibility: inherit; font-family: Roboto, sans-serif; font-size: 12px; font-weight: 200;" fill="rgb(33, 33, 33)" stroke="none" stroke-width="1px">30</text><text x="0" y="301.6" dx="0em" dy="0.3em" style="text-anchor: end; visibility: inherit; font-family: Roboto, sans-serif; font-size: 12px; font-weight: 200;" fill="rgb(33, 33, 33)" stroke="none" stroke-width="1px">31</text><text x="0" y="263.9" dx="0em" dy="0.3em" style="text-anchor: end; visibility: inherit; font-family: Roboto, sans-serif; font-size: 12px; font-weight: 200;" fill="rgb(33, 33, 33)" stroke="none" stroke-width="1px">32</text><text x="0" y="226.2" dx="0em" dy="0.3em" style="text-anchor: end; visibility: inherit; font-family: Roboto, sans-serif; font-size: 12px; font-weight: 200;" fill="rgb(33, 33, 33)" stroke="none" stroke-width="1px">33</text><text x="0" y="188.5" dx="0em" dy="0.3em" style="text-anchor: end; visibility: inherit; font-family: Roboto, sans-serif; font-size: 12px; font-weight: 200;" fill="rgb(33, 33, 33)" stroke="none" stroke-width="1px">34</text><text x="0" y="150.8" dx="0em" dy="0.3em" style="text-anchor: end; visibility: inherit; font-family: Roboto, sans-serif; font-size: 12px; font-weight: 200;" fill="rgb(33, 33, 33)" stroke="none" stroke-width="1px">35</text><text x="0" y="113.10000000000002" dx="0em" dy="0.3em" style="text-anchor: end; visibility: inherit; font-family: Roboto, sans-serif; font-size: 12px; font-weight: 200;" fill="rgb(33, 33, 33)" stroke="none" stroke-width="1px">36</text><text x="0" y="75.39999999999998" dx="0em" dy="0.3em" style="text-anchor: end; visibility: inherit; font-family: Roboto, sans-serif; font-size: 12px; font-weight: 200;" fill="rgb(33, 33, 33)" stroke="none" stroke-width="1px">37</text><text x="0" y="37.69999999999999" dx="0em" dy="0.3em" style="text-anchor: end; visibility: inherit; font-family: Roboto, sans-serif; font-size: 12px; font-weight: 200;" fill="rgb(33, 33, 33)" stroke="none" stroke-width="1px">38</text><text x="0" y="0" dx="0em" dy="0.3em" style="text-anchor: end; visibility: hidden; font-family: Roboto, sans-serif; font-size: 12px; font-weight: 200;" fill="rgb(33, 33, 33)" stroke="none" stroke-width="1px">39</text></g><line x1="30.78125" y1="0" x2="30.78125" y2="377" fill="rgb(0, 0, 0)" stroke="rgb(204, 204, 204)" stroke-width="1px"></line></g></g><g transform="translate(30, 0)" clip-path="url(#clip_0)"><clipPath id="clip_0"><rect width="856" height="377"></rect></clipPath><g><g><g><line x1="0" y1="0" x2="0" y2="377" fill="rgb(0, 0, 0)" stroke="rgb(66, 66, 66)" stroke-width="1px" opacity="0.25"></line><line x1="71.3515625" y1="0" x2="71.3515625" y2="377" fill="rgb(0, 0, 0)" stroke="rgb(66, 66, 66)" stroke-width="1px" opacity="0.25"></line><line x1="142.703125" y1="0" x2="142.703125" y2="377" fill="rgb(0, 0, 0)" stroke="rgb(66, 66, 66)" stroke-width="1px" opacity="0.25"></line><line x1="214.0546875" y1="0" x2="214.0546875" y2="377" fill="rgb(0, 0, 0)" stroke="rgb(66, 66, 66)" stroke-width="1px" opacity="0.25"></line><line x1="285.40625" y1="0" x2="285.40625" y2="377" fill="rgb(0, 0, 0)" stroke="rgb(66, 66, 66)" stroke-width="1px" opacity="0.25"></line><line x1="356.7578125" y1="0" x2="356.7578125" y2="377" fill="rgb(0, 0, 0)" stroke="rgb(66, 66, 66)" stroke-width="1px" opacity="0.25"></line><line x1="428.109375" y1="0" x2="428.109375" y2="377" fill="rgb(0, 0, 0)" stroke="rgb(66, 66, 66)" stroke-width="1px" opacity="0.25"></line><line x1="499.46093750000006" y1="0" x2="499.46093750000006" y2="377" fill="rgb(0, 0, 0)" stroke="rgb(66, 66, 66)" stroke-width="1px" opacity="0.25"></line><line x1="570.8125" y1="0" x2="570.8125" y2="377" fill="rgb(0, 0, 0)" stroke="rgb(66, 66, 66)" stroke-width="1px" opacity="0.25"></line><line x1="642.1640625" y1="0" x2="642.1640625" y2="377" fill="rgb(0, 0, 0)" stroke="rgb(66, 66, 66)" stroke-width="1px" opacity="0.25"></line><line x1="713.515625" y1="0" x2="713.515625" y2="377" fill="rgb(0, 0, 0)" stroke="rgb(66, 66, 66)" stroke-width="1px" opacity="0.25"></line><line x1="784.8671875" y1="0" x2="784.8671875" y2="377" fill="rgb(0, 0, 0)" stroke="rgb(66, 66, 66)" stroke-width="1px" opacity="0.25"></line><line x1="856.21875" y1="0" x2="856.21875" y2="377" fill="rgb(0, 0, 0)" stroke="rgb(66, 66, 66)" stroke-width="1px" opacity="0.25"></line></g><g><line x1="0" y1="377" x2="856.21875" y2="377" fill="rgb(0, 0, 0)" stroke="rgb(66, 66, 66)" stroke-width="1px" opacity="0.25"></line><line x1="0" y1="339.3" x2="856.21875" y2="339.3" fill="rgb(0, 0, 0)" stroke="rgb(66, 66, 66)" stroke-width="1px" opacity="0.25"></line><line x1="0" y1="301.6" x2="856.21875" y2="301.6" fill="rgb(0, 0, 0)" stroke="rgb(66, 66, 66)" stroke-width="1px" opacity="0.25"></line><line x1="0" y1="263.9" x2="856.21875" y2="263.9" fill="rgb(0, 0, 0)" stroke="rgb(66, 66, 66)" stroke-width="1px" opacity="0.25"></line><line x1="0" y1="226.2" x2="856.21875" y2="226.2" fill="rgb(0, 0, 0)" stroke="rgb(66, 66, 66)" stroke-width="1px" opacity="0.25"></line><line x1="0" y1="188.5" x2="856.21875" y2="188.5" fill="rgb(0, 0, 0)" stroke="rgb(66, 66, 66)" stroke-width="1px" opacity="0.25"></line><line x1="0" y1="150.8" x2="856.21875" y2="150.8" fill="rgb(0, 0, 0)" stroke="rgb(66, 66, 66)" stroke-width="1px" opacity="0.25"></line><line x1="0" y1="113.10000000000002" x2="856.21875" y2="113.10000000000002" fill="rgb(0, 0, 0)" stroke="rgb(66, 66, 66)" stroke-width="1px" opacity="0.25"></line><line x1="0" y1="75.39999999999998" x2="856.21875" y2="75.39999999999998" fill="rgb(0, 0, 0)" stroke="rgb(66, 66, 66)" stroke-width="1px" opacity="0.25"></line><line x1="0" y1="37.69999999999999" x2="856.21875" y2="37.69999999999999" fill="rgb(0, 0, 0)" stroke="rgb(66, 66, 66)" stroke-width="1px" opacity="0.25"></line><line x1="0" y1="0" x2="856.21875" y2="0" fill="rgb(0, 0, 0)" stroke="rgb(66, 66, 66)" stroke-width="1px" opacity="0.25"></line></g></g></g><g><g><line x1="0" y1="1470.3" x2="856.21875" y2="1470.3" fill="rgb(0, 0, 0)" stroke="rgb(153, 153, 153)" stroke-width="1.5px"></line></g></g><g><g><line x1="71.3515625" y1="0" x2="71.3515625" y2="377" fill="rgb(0, 0, 0)" stroke="rgb(153, 153, 153)" stroke-width="1.5px"></line></g></g><g><g><g><g><g><path stroke="rgb(255, 112, 67)" stroke-width="2px" d="M96.32460937500001,416.4478981279403L98.1083984375,340.5444849609149L99.8921875,308.69126648433877L101.6759765625,282.36373661102306L103.459765625,250.01486237022365L105.2435546875,269.8160949388159L107.02734375,337.6497058931745L108.81113281249999,312.2723805216939L110.59492187500001,339.7350154330022L112.3787109375,325.03445126063724L114.1625,368.73201851582564L115.94628906249999,306.8163106928065L117.730078125,272.60904766952797L119.5138671875,223.7203575333121L121.29765625,263.18856626628605L123.0814453125,222.10771228187016L124.86523437500001,260.143833998261L126.6490234375,253.2525043793079L128.43281249999998,261.1287436805705L130.2166015625,261.4194617928436L132.000390625,296.6475702441685L133.7841796875,318.8485728930699L135.56796875,318.7791335883174L137.3517578125,327.94663385829574L139.13554687500002,310.23338310754514L140.9193359375,291.94931717834265L142.703125,256.1508999401588L144.4869140625,207.07674507963932L146.270703125,162.32266736567172L148.0544921875,151.69866252083392L149.83828125,119.90713314762371L151.6220703125,174.642839767476L153.405859375,227.92628568010653L155.18964843749998,233.94953071606062L156.9734375,255.17940905797417L158.7572265625,207.17167512799963L160.541015625,240.7492712512791L162.3248046875,274.28494917969806L164.10859375,261.7630030466153L165.89238281250002,209.92719666434076L167.676171875,144.0989252678502L169.4599609375,110.68247955034606L171.24375,160.02302410717192L173.0275390625,204.15855628559808L174.811328125,208.74383570617366L176.5951171875,206.83444900671205L178.37890625,169.54850952243433L180.1626953125,123.94866976985644L181.94648437499998,158.1623070254884L183.7302734375,67.67343508809527L185.5140625,62.23686363464434L187.2978515625,149.61651027063053L189.081640625,152.1349424782963L190.8654296875,192.63762488028843L192.64921875000002,213.04733750141537L194.4330078125,140.40109018395444L196.216796875,150.0532592434294L198.0005859375,96.85334531656545L199.784375,70.93901570434356L201.5681640625,132.63457473632704L203.351953125,147.2394626457513L205.1357421875,162.82660391801718L206.91953125,164.81514722629862L208.70332031249998,169.65683659627715L210.487109375,185.58323785254157L212.2708984375,178.18782723300924L214.0546875,144.55844966622146L215.8384765625,186.81074835808266L217.62226562499998,190.78318561763268L219.4060546875,112.30556688815786L221.18984375000002,132.6638906700042L222.97363281250003,160.37726888076224L224.757421875,141.57859384188512L226.5412109375,198.04399239521896L228.325,94.80190706432886L230.1087890625,93.49885694611689L231.89257812499997,66.11585026996507L233.67636718749998,98.12458660851236L235.46015625,109.83498603493179L237.24394531250002,146.87965510362523L239.027734375,164.95678735538823L240.8115234375,190.40094436147504L242.5953125,202.92024435126007L244.37910156249998,184.41579849674233L246.162890625,183.9366775843735L247.94667968750002,112.23797502596611L249.73046875000003,136.8008471493686L251.5142578125,73.65605165509967L253.298046875,23.802001506975934L255.0818359375,107.58507678919524L256.86562499999997,122.9086165691226L258.6494140625,95.35559505133689L260.433203125,91.27664392655414L262.2169921875,110.40495287814916L264.00078125,123.83084922933087L265.7845703125,106.30404695214924L267.568359375,100.27070820058645L269.3521484375,100.75469878509799L271.1359375,97.5397110557268L272.9197265625,65.49052615736197L274.703515625,52.71619679793261L276.4873046875,45.39243856826142L278.27109375000003,115.33752597665021L280.0548828125,98.54473116216204L281.838671875,52.599865125519905L283.62246093749997,76.39430582457943L285.40625,41.36874001940588L287.1900390625,23.69264858317679L288.973828125,57.17751648755257L290.7576171875,22.14932986933834L292.54140625,45.8879370024135L294.3251953125,40.47953908743443L296.108984375,100.77990515412083L297.8927734375,102.67829801190607L299.6765625,76.67150441139174L301.4603515625,16.431965146834926L303.244140625,1.6656878771634485L305.02792968750003,59.83110950364189L306.81171875,31.35362282498785L308.5955078125,66.48257423820579L310.37929687499997,23.492955340042702L312.1630859375,-41.525187794509776L313.946875,17.997687768850863L315.7306640625,52.03321776384967L317.514453125,38.990838556258865L319.2982421875,118.62974468038628L321.08203125,127.39333524206944L322.8658203125,103.49738282859117L324.649609375,122.15036023914696L326.4333984375,154.70975609099787L328.2171875,170.59027229473554L330.0009765625,187.20942186072813L331.78476562500003,230.8295824835023L333.5685546875,199.41590104039423L335.35234375,225.70529654464667L337.13613281249997,183.41572202468856L338.919921875,160.94679176583858L340.7037109375,131.27864039763784L342.4875,173.92378824248877L344.2712890625,189.74060808953627L346.055078125,112.27322471700296L347.8388671875,76.84835881091458L349.62265625,44.22758187590433L351.4064453125,79.9572696455621L353.190234375,151.37559729148776L354.9740234375,86.98805338221688L356.7578125,130.36723586844144L358.54160156250003,122.83233416632866L360.325390625,118.53039323661365L362.1091796875,173.44057816608932L363.89296874999997,139.7491088625441L365.6767578125,59.89354750136427L367.460546875,60.549276694177806L369.2443359375,20.190001349758592L371.028125,75.19206736869309L372.8119140625,119.91242929450698L374.595703125,138.98633666605963L376.3794921875,56.96009591443072L378.16328125,0.6960230637950501L379.9470703125,59.412913520894335L381.730859375,39.07926727757564L383.5146484375,2.2699581326586573L385.29843750000003,63.8580545915093L387.0822265625,91.52811583596046L388.866015625,35.00402587364667L390.64980468749997,25.58726614064298L392.43359375,-47.191811458192305L394.2173828125,-74.60136312003277L396.001171875,25.023414610890413L397.7849609375,93.38910201970798L399.56875,95.51376455655151L401.3525390625,-15.359158563432237L404.9201171875,-28.307527093821854L406.70390625,36.515589639702945L408.4876953125,48.77992293665379L410.271484375,55.99321316140633L412.05527343750003,70.57168015514463L413.8390625,59.04149182721763L415.6228515625,105.42841529896742L417.40664062499997,-6.648619918519911L419.1904296875,21.712016098204394L420.97421875,20.92967868358069L422.7580078125,88.08390340155465L424.541796875,103.79636727896987L426.3255859375,176.6727799315908L428.109375,155.85653355954054L429.8931640625,131.9967289736149L431.676953125,111.55724240125872L433.4607421875,28.66806309212254L435.24453124999997,40.469324335986315L437.02832031249994,40.817856045683456L438.812109375,33.748544132781234L440.59589843749995,84.07801762346772L442.37968750000005,73.85491177036981L444.1634765625,87.99848935958511L445.94726562500006,33.94817320559476L447.73105468750003,34.27676158937239L449.51484375,85.30713208790067L451.2986328125,107.30364235088487L453.082421875,129.71778798011098L454.8662109375,129.62336031858433L456.65,148.1898226181525L458.4337890625,105.4053425455008L460.217578125,156.3008716955134L462.00136718749997,99.9331197580308L463.78515624999994,40.84139971736742L465.5689453125,79.21827641489301L467.35273437499995,134.4796972332132L469.13652343750005,111.01999256478128L470.9203125,97.13250869194488L472.70410156250006,140.65523626375108L474.48789062500003,108.95992428998903L476.2716796875,157.48416014039958L478.05546875,74.31447267725719L479.8392578125,80.71391935464544L481.623046875,99.85212724755279L483.4068359375,98.01199992030907L485.190625,57.77697335916793L486.9744140625,76.19589562438756L488.75820312499997,43.952535848753655L490.54199218749994,98.0498430424554L492.32578125,90.64998059353955L494.10957031249995,97.04956095744205L495.89335937500005,86.59246316748298L497.6771484375,102.36081969736486L499.46093750000006,73.01348721026457L501.24472656250003,71.16302732371719L503.028515625,127.00882484759944L504.8123046875,116.87160426524912L506.59609375,129.8910040935734L508.3798828125,132.66748270516743L510.163671875,188.52096462920392L511.9474609375,139.8368602411455L513.7312499999999,59.95292882779271L515.5150390625,104.63234155570888L517.298828125,96.50219759699945L519.0826171875,127.95235493515283L520.86640625,139.35763534268366L522.6501953125,125.41495092606911L524.433984375,128.2601660817645L526.2177734375,112.9254984527695L528.0015625,118.83115966736476L529.7853515625001,158.48362744104386L531.569140625,174.3307604184838L533.3529296875,160.5058373851234L535.13671875,36.59684074894519L536.9205078125,89.63085850820497L538.704296875,79.79160714593854L540.4880859374999,73.21903319625432L542.271875,101.64458825271332L544.0556640625,76.41714159298535L545.839453125,145.83605094700218L547.6232421875,151.0333442828009L549.40703125,160.31334854966119L551.1908203125,150.72622263077332L552.974609375,118.96160287167693L554.7583984375,101.6318790203694L556.5421875000001,65.393069367788L558.3259765625,93.3420951301944L560.109765625,96.02716427416166L561.8935546875,84.13814731937971L563.67734375,95.46971807302428L565.4611328125,121.68097360504494L567.2449218749999,116.05628222210889L569.0287109375,107.96563090553089L570.8125,66.98554416221518L572.5962890625,58.72597096754392L574.380078125,122.41999649043863L576.1638671875,191.3862509002447L577.94765625,124.55484837950223L579.7314453125,127.4880004278477L581.515234375,57.70809185216749L583.2990234375001,60.29520942038258L585.0828125,121.57778467932924L586.8666015625,137.38987820505844L588.650390625,138.88239417767366L590.4341796875,92.45444032130153L592.21796875,145.6412204061598L594.0017578124999,69.28440631596149L595.785546875,21.434025442408878L597.5693359375,98.02901588190049L599.353125,73.95821412508745L601.1369140625,59.790993233353355L602.920703125,82.47312133063699L604.7044921875,120.47372753471024L606.48828125,136.3913791599864L608.2720703125,144.74054725307192L610.0558593750001,144.95137470804437L611.8396484375,137.2895330157446L613.6234375,46.85417146960312L615.4072265625,19.818859540697478L617.191015625,125.93542644219195L618.9748046875,120.64622427962175L620.7585937499999,92.93232471669884L622.5423828125,46.46877471283185L624.326171875,99.66888506695693L626.1099609375,76.7935406654183L627.89375,96.09771268660431L629.6775390625,70.55656523403287L631.461328125,130.82959236917935L633.2451171875,83.14519392858769L635.02890625,-1.9870274721931185L636.8126953125001,30.274420784750525L638.596484375,36.34206274917051L640.3802734375,16.505055764736703L642.1640625,-56.64538206850175L647.5154296874999,-13.792043902528874L649.29921875,21.527884620396676L651.0830078125,78.60352734206228L652.866796875,67.5098538319953L654.6505859375,83.03737531189259L656.434375,91.12117137243828L658.2181640625,103.54107471067007L660.001953125,101.84045811985914L661.7857421875,80.24765560922008L663.5695312500001,90.17509635625458L665.3533203125,91.31102766238563L667.137109375,150.79408226515594L668.9208984375,139.09418205562665L670.7046875,131.94791563596382L672.4884765625,107.1397839274768L674.2722656249999,85.29545360843917L676.0560546875,109.84082151198724L677.83984375,187.68243625130856L679.6236328125,82.67553749541382L681.407421875,139.8094295529123L683.1912109375,133.78149498150316L684.975,109.2992085733747L686.7587890625,82.60619262449366L688.542578125,125.72667806859265L690.3263671875001,164.02278067538415L692.11015625,92.92439975899028L693.8939453125,119.42263179875374L695.677734375,138.1274989095744L697.4615234375,140.54566057010965L699.2453125,164.16739741018102L701.0291015624999,97.55074774176296L702.812890625,143.76894290775303L704.5966796875,127.53894249636093L706.38046875,57.682454548109575L708.1642578125,77.37213126768422L709.948046875,108.1888979622707L711.7318359375,116.4071806352725L713.515625,127.94652258404437L715.2994140625,52.494914435436584L717.0832031250001,128.05332393592013L718.8669921875,127.9742395397748L720.65078125,129.84756984691177L722.4345703125,52.19389286029532L724.218359375,65.14773677818872L726.0021484375,97.93126871486234L727.7859374999999,61.82378457486474L729.5697265625,92.58833019316114L731.353515625,128.20528617131654L733.1373046875,73.19700623648137L734.92109375,97.34801331220137L736.7048828125,68.40866165553365L738.488671875,26.582677156894267L740.2724609375,80.66088314960534L742.05625,75.45727879113035L743.8400390625001,43.78663930836951L745.623828125,-7.559302425720375L747.4076171875,35.52417760828854L749.19140625,70.4869014319165L750.9751953125,112.40777852394471L752.758984375,76.4088867798943L754.5427734374999,100.21815936896196L756.3265625,39.997383658486555L758.1103515625,86.00548448586336L759.894140625,101.14528776183035L761.6779296875,132.69580638512545L763.46171875,110.0152948051964L765.2455078125,74.78931451739523L767.029296875,74.94143264354253L768.8130859375,152.5564349035084L770.5968750000001,139.69622071383358L772.3806640625,149.89006580232362L774.164453125,115.88868547748791L775.9482421875,77.0821852855162L777.73203125,122.0968030841514L779.5158203125,91.72139453359648L781.2996093749999,57.591749531437074L783.0833984375,80.72219037437975L784.8671875,33.688746200946156" style="fill: none;" fill="none"></path></g></g></g></g><g opacity="0.2"><g><g><g><path stroke="rgb(255, 112, 67)" stroke-width="2px" d="M80.2705078125,538.9309226989747L82.054296875,352.11656761169434L83.8380859375,393.09445018768315L85.621875,462.1134191513062L87.4056640625,341.6751615524292L89.189453125,441.95233802795406L92.75703125,448.2809488296509L94.5408203125,349.95202178955077L96.32460937500001,444.10343723297115L98.1083984375,226.74289817810057L99.8921875,260.9249179840088L101.6759765625,242.87912635803224L103.459765625,201.49647903442383L105.2435546875,299.51613388061526L107.02734375,439.3964021682739L108.81113281249999,274.2072275161743L110.59492187500001,380.9284255981445L112.3787109375,302.9837791442871L114.1625,434.2780588150024L115.94628906249999,213.9430130004883L117.730078125,221.2982406616211L119.5138671875,150.38739738464358L121.29765625,322.39084300994875L123.0814453125,160.48645401000977L124.86523437500001,317.19800395965575L126.6490234375,242.91551132202147L128.43281249999998,272.9431016921997L130.2166015625,261.8555389404297L132.000390625,349.48973140716555L133.7841796875,352.1500762939453L135.56796875,318.6749746322632L137.3517578125,341.69788417816164L139.13554687500002,283.66350708007815L140.9193359375,264.5232183456421L142.703125,202.45327415466306L144.4869140625,133.4655128479004L146.270703125,95.19155082702639L148.0544921875,135.7626552581787L149.83828125,72.21983909606934L151.6220703125,256.7463996887207L153.405859375,307.8514545440674L155.18964843749998,242.9843982696533L156.9734375,287.0242265701294L158.7572265625,135.1600742340088L160.541015625,291.115665435791L162.3248046875,324.5884660720825L164.10859375,242.98008384704588L165.89238281250002,132.17348709106443L167.676171875,45.35651817321776L169.4599609375,60.55781097412108L171.24375,234.03384094238282L173.0275390625,270.36185455322266L174.811328125,215.62175483703612L176.5951171875,203.97036895751955L178.37890625,113.61960029602051L180.1626953125,55.54891014099121L181.94648437499998,209.48276290893557L183.7302734375,-68.0598728179932L185.5140625,54.08200645446777L187.2978515625,280.68598022460935L189.081640625,155.91259078979493L190.8654296875,253.39164848327636L192.64921875000002,243.66190643310546L194.4330078125,31.431719207763656L196.216796875,164.53151283264162L198.0005859375,17.05347442626953L199.784375,32.06752128601073L201.5681640625,225.17791328430178L203.351953125,169.14679450988768L205.1357421875,186.207315826416L206.91953125,167.7979621887207L208.70332031249998,176.91937065124512L210.487109375,209.47283973693845L212.2708984375,167.09471130371094L214.0546875,94.11438331604006L215.8384765625,250.18919639587403L217.62226562499998,196.741841506958L219.4060546875,-5.4108612060547205L221.18984375000002,163.20137634277341L222.97363281250003,201.9473361968994L224.757421875,113.38058128356931L226.5412109375,282.7420902252197L228.325,-60.061220932006805L230.1087890625,91.54428176879884L231.89257812499997,25.04134025573729L233.67636718749998,146.13769111633303L235.46015625,127.40058517456055L237.24394531250002,202.44665870666506L239.027734375,192.07248573303224L240.8115234375,228.56717987060546L242.5953125,221.69919433593748L244.37910156249998,156.65912971496584L246.162890625,183.21799621582034L247.94667968750002,4.689921188354501L249.73046875000003,173.64515533447263L251.5142578125,-21.061141586303727L253.298046875,-50.97907371520999L255.0818359375,233.2596897125244L256.86562499999997,145.8939262390137L258.6494140625,54.026062774658214L260.433203125,85.1582172393799L262.2169921875,139.09741630554197L264.00078125,143.96969375610354L265.7845703125,80.01384353637695L267.568359375,91.2207000732422L269.3521484375,101.48068466186521L271.1359375,92.71722946166994L272.9197265625,17.41674880981446L274.703515625,33.55470275878906L276.4873046875,34.40680122375488L278.27109375000003,220.25515708923342L280.0548828125,73.35553894042971L281.838671875,-16.317433929443375L283.62246093749997,112.08596687316896L285.40625,-11.16960868835451L287.1900390625,-2.8214885711670257L288.973828125,107.40481834411622L290.7576171875,-30.3929500579834L292.54140625,81.49584770202637L294.3251953125,32.36694221496583L296.108984375,191.2304542541504L297.8927734375,105.525887298584L299.6765625,37.66131401062012L301.4603515625,-73.92734374999998L303.244140625,-20.483728027343766L305.02792968750003,147.07924194335936L306.81171875,-11.362607192993197L308.5955078125,119.17600135803224L310.37929687499997,-40.99147300720212L312.1630859375,-139.0524024963379L313.946875,107.28200111389162L315.7306640625,103.08651275634764L317.514453125,19.427269744873055L319.2982421875,238.08810386657717L321.08203125,140.53872108459473L322.8658203125,67.653454208374L324.649609375,150.12982635498048L326.4333984375,203.54884986877443L328.2171875,194.41104660034182L330.0009765625,212.1381462097168L331.78476562500003,296.2598234176636L333.5685546875,152.2953788757324L335.35234375,265.1393898010254L337.13613281249997,119.98136024475099L338.919921875,127.2433963775635L340.7037109375,86.77641334533689L342.4875,237.89151000976562L344.2712890625,213.4658378601074L346.055078125,-3.9278503417968915L347.8388671875,23.71105995178221L349.62265625,-4.703583526611295L351.4064453125,133.55180130004885L353.190234375,258.503088760376L354.9740234375,-9.59326248168942L356.7578125,195.4360095977783L358.54160156250003,111.52998161315918L360.325390625,112.07748184204104L362.1091796875,255.80585556030275L363.89296874999997,89.21190490722654L365.6767578125,-59.889794540405305L367.460546875,61.532870483398426L369.2443359375,-40.3489116668701L371.028125,157.69516639709474L372.8119140625,186.99297218322755L374.595703125,167.59719772338866L376.3794921875,-66.07926521301272L378.16328125,-83.70008621215823L379.9470703125,147.48824920654295L381.730859375,8.578797912597674L383.5146484375,-52.94400558471681L385.29843750000003,156.24019927978514L387.0822265625,133.03320770263673L388.866015625,-49.78210906982419L390.64980468749997,11.462126541137703L392.43359375,-156.3604278564453L394.2173828125,-115.71569061279297L396.001171875,174.46058120727537L397.7849609375,195.9376331329346L399.56875,98.70075836181638L401.3525390625,-181.66854324340818L404.9201171875,-19.97520141601559L406.70390625,133.75026473999026L408.4876953125,67.17642288208009L410.271484375,66.81314849853516L412.05527343750003,92.43938064575195L413.8390625,41.74620933532714L415.6228515625,175.0088005065918L417.40664062499997,-174.76417274475102L419.1904296875,64.25297012329099L420.97421875,19.756172561645492L422.7580078125,188.81524047851565L424.541796875,127.36506309509275L426.3255859375,285.9873989105225L428.109375,124.63216400146484L429.8931640625,96.20702209472654L431.676953125,80.89801254272459L433.4607421875,-95.66570587158206L435.24453124999997,58.171216201782215L437.02832031249994,41.34065361022948L438.812109375,23.144576263427727L440.59589843749995,159.57222785949705L442.37968750000005,58.52025299072267L444.1634765625,109.2138557434082L445.94726562500006,-47.127301025390594L447.73105468750003,34.76964416503905L449.51484375,161.85268783569336L451.2986328125,140.29840774536132L453.082421875,163.3390064239502L454.8662109375,129.48171882629396L456.65,176.0395160675049L458.4337890625,41.22862243652344L460.217578125,232.6441654205322L462.00136718749997,15.381491851806633L463.78515624999994,-47.796180343627945L465.5689453125,136.78359146118163L467.35273437499995,217.37182846069334L469.13652343750005,75.8304355621338L470.9203125,76.30128288269043L472.70410156250006,205.93932762145994L474.48789062500003,61.41695632934569L476.2716796875,230.2705139160156L478.05546875,-50.44005851745602L479.8392578125,90.31308937072754L481.623046875,128.55943908691404L483.4068359375,95.25180892944337L485.190625,-2.575566482543979L486.9744140625,103.82427902221679L488.75820312499997,-4.412503814697282L490.54199218749994,179.1958038330078L492.32578125,79.55018692016603L494.10957031249995,106.6489315032959L495.89335937500005,70.90681648254395L497.6771484375,126.01335449218749L499.46093750000006,28.992488479614273L501.24472656250003,68.3873374938965L503.028515625,210.77752113342285L504.8123046875,101.66577339172363L506.59609375,149.42010383605958L508.3798828125,136.83220062255862L510.163671875,272.3011875152588L511.9474609375,66.8107036590576L513.7312499999999,-59.872968292236344L515.5150390625,171.651460647583L517.298828125,84.30698165893557L519.0826171875,175.12759094238282L520.86640625,156.4655559539795L522.6501953125,104.50092430114745L524.433984375,132.5279888153076L526.2177734375,89.92349700927736L528.0015625,127.68965148925781L529.7853515625001,217.9623291015625L531.569140625,198.10145988464353L533.3529296875,139.768452835083L535.13671875,-149.2666542053223L536.9205078125,169.1818851470947L538.704296875,65.03273010253906L540.4880859374999,63.360172271728516L542.271875,144.28292083740234L544.0556640625,38.575971603393555L545.839453125,249.96441497802732L547.6232421875,158.82928428649905L549.40703125,174.23335494995115L551.1908203125,136.34553375244138L552.974609375,71.31467323303224L554.7583984375,75.63729324340818L556.5421875000001,11.034854888916016L558.3259765625,135.2656337738037L560.109765625,100.05476799011228L561.8935546875,66.30462188720702L563.67734375,112.46707420349122L565.4611328125,160.99785690307618L567.2449218749999,107.6192451477051L569.0287109375,95.82965393066405L570.8125,5.51541404724122L572.5962890625,46.336611175537094L574.380078125,217.96103477478027L576.1638671875,294.8356325149536L577.94765625,24.307744598388688L579.7314453125,131.88772850036622L581.515234375,-46.96177101135254L583.2990234375001,64.1758857727051L585.0828125,213.50164756774905L586.8666015625,161.10801849365237L588.650390625,141.12116813659668L590.4341796875,22.812509536743164L592.21796875,225.42139053344727L594.0017578124999,-45.25081481933592L595.785546875,-50.34154586791989L597.5693359375,212.92150154113767L599.353125,37.852011489868175L601.1369140625,38.540161895751964L602.920703125,116.49631347656248L604.7044921875,177.47463684082032L606.48828125,160.2678565979004L608.2720703125,157.2642993927002L610.0558593750001,145.26761589050295L611.8396484375,125.7967704772949L613.6234375,-88.79887084960934L615.4072265625,-20.734108352661117L617.191015625,285.1102767944336L618.9748046875,112.71242103576662L620.7585937499999,51.36147537231444L622.5423828125,-23.226550292968785L624.326171875,179.46905059814452L626.1099609375,42.48052406311035L627.89375,125.05397071838377L629.6775390625,32.2448440551758L631.461328125,221.2391330718994L633.2451171875,11.618596267700187L635.02890625,-129.68535957336428L636.8126953125001,78.66659317016604L638.596484375,45.443525695800766L640.3802734375,-13.25045471191403L645.731640625,-73.64201660156253L647.5154296874999,60.461599349975586L649.29921875,74.50777740478514L651.0830078125,164.21699142456055L652.866796875,50.86934356689454L654.6505859375,106.32865753173826L656.434375,103.24686546325682L658.2181640625,122.17092971801759L660.001953125,99.2895332336426L661.7857421875,47.85845184326172L663.5695312500001,105.06625747680664L665.3533203125,93.01492462158205L667.137109375,240.01866416931153L668.9208984375,121.544331741333L670.7046875,121.2285160064697L672.4884765625,69.9275863647461L674.2722656249999,52.528958129882824L676.0560546875,146.65887336730958L677.83984375,304.44485836029054L679.6236328125,-74.83481063842771L681.407421875,225.51026763916013L683.1912109375,124.73959312438967L684.975,72.57577896118164L686.7587890625,42.566668701171864L688.542578125,190.4074062347412L690.3263671875001,221.46693458557127L692.11015625,-13.723171615600569L693.8939453125,159.16997985839845L695.677734375,166.18479957580564L697.4615234375,144.1729030609131L699.2453125,199.60000267028806L701.0291015624999,-2.3742267608642913L702.812890625,213.09623565673826L704.5966796875,103.19394187927247L706.38046875,-47.102277374267594L708.1642578125,106.90664634704592L709.948046875,154.4140480041504L711.7318359375,128.7346046447754L713.515625,145.25553550720213L715.2994140625,-60.682497787475555L717.0832031250001,241.39093818664549L718.8669921875,127.85561294555663L720.65078125,132.65756530761718L722.4345703125,-64.28662261962893L724.218359375,84.5785026550293L726.0021484375,147.10656661987304L727.7859374999999,7.662558364868173L729.5697265625,138.73514862060546L731.353515625,181.6307201385498L733.1373046875,-9.315413665771517L734.92109375,133.57452392578125L736.7048828125,24.99963417053221L738.488671875,-36.15629959106445L740.2724609375,161.7781921386719L742.05625,67.65187225341799L743.8400390625001,-3.719319915771501L745.623828125,-84.57821502685545L747.4076171875,100.14939765930177L749.19140625,122.93098716735841L750.9751953125,175.2890941619873L752.758984375,22.41054916381836L754.5427734374999,135.93206825256345L756.3265625,-50.33377990722658L758.1103515625,155.0176357269287L759.894140625,123.85499267578126L761.6779296875,180.02158432006837L763.46171875,75.99452743530276L765.2455078125,21.95034408569336L767.029296875,75.16960983276368L768.8130859375,268.978938293457L770.5968750000001,120.40589942932127L772.3806640625,165.18083343505862L774.164453125,64.88661499023436L775.9482421875,18.872434997558578L777.73203125,189.61872978210448L779.5158203125,46.158281707763656L781.2996093749999,6.397282028198226L783.0833984375,115.41785163879393L784.8671875,-36.861420059204086" style="fill: none;" fill="none"></path></g></g></g></g></g></g><g transform="translate(30, 377)" clip-path="url(#clip_1)"><clipPath id="clip_1"><rect width="856" height="23"></rect></clipPath><g><g><line x1="0" y1="0" x2="0" y2="5" style="visibility: inherit;" fill="rgb(0, 0, 0)" stroke="rgb(204, 204, 204)" stroke-width="1px"></line><line x1="71.3515625" y1="0" x2="71.3515625" y2="5" style="visibility: inherit;" fill="rgb(0, 0, 0)" stroke="rgb(204, 204, 204)" stroke-width="1px"></line><line x1="142.703125" y1="0" x2="142.703125" y2="5" style="visibility: inherit;" fill="rgb(0, 0, 0)" stroke="rgb(204, 204, 204)" stroke-width="1px"></line><line x1="214.0546875" y1="0" x2="214.0546875" y2="5" style="visibility: inherit;" fill="rgb(0, 0, 0)" stroke="rgb(204, 204, 204)" stroke-width="1px"></line><line x1="285.40625" y1="0" x2="285.40625" y2="5" style="visibility: inherit;" fill="rgb(0, 0, 0)" stroke="rgb(204, 204, 204)" stroke-width="1px"></line><line x1="356.7578125" y1="0" x2="356.7578125" y2="5" style="visibility: inherit;" fill="rgb(0, 0, 0)" stroke="rgb(204, 204, 204)" stroke-width="1px"></line><line x1="428.109375" y1="0" x2="428.109375" y2="5" style="visibility: inherit;" fill="rgb(0, 0, 0)" stroke="rgb(204, 204, 204)" stroke-width="1px"></line><line x1="499.46093750000006" y1="0" x2="499.46093750000006" y2="5" style="visibility: inherit;" fill="rgb(0, 0, 0)" stroke="rgb(204, 204, 204)" stroke-width="1px"></line><line x1="570.8125" y1="0" x2="570.8125" y2="5" style="visibility: inherit;" fill="rgb(0, 0, 0)" stroke="rgb(204, 204, 204)" stroke-width="1px"></line><line x1="642.1640625" y1="0" x2="642.1640625" y2="5" style="visibility: inherit;" fill="rgb(0, 0, 0)" stroke="rgb(204, 204, 204)" stroke-width="1px"></line><line x1="713.515625" y1="0" x2="713.515625" y2="5" style="visibility: inherit;" fill="rgb(0, 0, 0)" stroke="rgb(204, 204, 204)" stroke-width="1px"></line><line x1="784.8671875" y1="0" x2="784.8671875" y2="5" style="visibility: inherit;" fill="rgb(0, 0, 0)" stroke="rgb(204, 204, 204)" stroke-width="1px"></line><line x1="856.21875" y1="0" x2="856.21875" y2="5" style="visibility: inherit;" fill="rgb(0, 0, 0)" stroke="rgb(204, 204, 204)" stroke-width="1px"></line></g><g transform="translate(0, 8)"><text x="0" y="0" dx="0em" dy="0.95em" style="text-anchor: middle; visibility: hidden; font-family: Roboto, sans-serif; font-size: 12px; font-weight: 200;" fill="rgb(33, 33, 33)" stroke="none" stroke-width="1px">-20k</text><text x="71.3515625" y="0" dx="0em" dy="0.95em" style="text-anchor: middle; visibility: inherit; font-family: Roboto, sans-serif; font-size: 12px; font-weight: 200;" fill="rgb(33, 33, 33)" stroke="none" stroke-width="1px">0</text><text x="142.703125" y="0" dx="0em" dy="0.95em" style="text-anchor: middle; visibility: inherit; font-family: Roboto, sans-serif; font-size: 12px; font-weight: 200;" fill="rgb(33, 33, 33)" stroke="none" stroke-width="1px">20k</text><text x="214.0546875" y="0" dx="0em" dy="0.95em" style="text-anchor: middle; visibility: inherit; font-family: Roboto, sans-serif; font-size: 12px; font-weight: 200;" fill="rgb(33, 33, 33)" stroke="none" stroke-width="1px">40k</text><text x="285.40625" y="0" dx="0em" dy="0.95em" style="text-anchor: middle; visibility: inherit; font-family: Roboto, sans-serif; font-size: 12px; font-weight: 200;" fill="rgb(33, 33, 33)" stroke="none" stroke-width="1px">60k</text><text x="356.7578125" y="0" dx="0em" dy="0.95em" style="text-anchor: middle; visibility: inherit; font-family: Roboto, sans-serif; font-size: 12px; font-weight: 200;" fill="rgb(33, 33, 33)" stroke="none" stroke-width="1px">80k</text><text x="428.109375" y="0" dx="0em" dy="0.95em" style="text-anchor: middle; visibility: inherit; font-family: Roboto, sans-serif; font-size: 12px; font-weight: 200;" fill="rgb(33, 33, 33)" stroke="none" stroke-width="1px">100k</text><text x="499.46093750000006" y="0" dx="0em" dy="0.95em" style="text-anchor: middle; visibility: inherit; font-family: Roboto, sans-serif; font-size: 12px; font-weight: 200;" fill="rgb(33, 33, 33)" stroke="none" stroke-width="1px">120k</text><text x="570.8125" y="0" dx="0em" dy="0.95em" style="text-anchor: middle; visibility: inherit; font-family: Roboto, sans-serif; font-size: 12px; font-weight: 200;" fill="rgb(33, 33, 33)" stroke="none" stroke-width="1px">140k</text><text x="642.1640625" y="0" dx="0em" dy="0.95em" style="text-anchor: middle; visibility: inherit; font-family: Roboto, sans-serif; font-size: 12px; font-weight: 200;" fill="rgb(33, 33, 33)" stroke="none" stroke-width="1px">160k</text><text x="713.515625" y="0" dx="0em" dy="0.95em" style="text-anchor: middle; visibility: inherit; font-family: Roboto, sans-serif; font-size: 12px; font-weight: 200;" fill="rgb(33, 33, 33)" stroke="none" stroke-width="1px">180k</text><text x="784.8671875" y="0" dx="0em" dy="0.95em" style="text-anchor: middle; visibility: inherit; font-family: Roboto, sans-serif; font-size: 12px; font-weight: 200;" fill="rgb(33, 33, 33)" stroke="none" stroke-width="1px">200k</text><text x="856.21875" y="0" dx="0em" dy="0.95em" style="text-anchor: middle; visibility: hidden; font-family: Roboto, sans-serif; font-size: 12px; font-weight: 200;" fill="rgb(33, 33, 33)" stroke="none" stroke-width="1px">220k</text></g><line x1="0" y1="0" x2="856.21875" y2="0" fill="rgb(0, 0, 0)" stroke="rgb(204, 204, 204)" stroke-width="1px"></line></g></g></g></g></svg>