<svg viewBox="0 0 887 400" xmlns="http://www.w3.org/2000/svg"><g><g><g><g><g><line x1="72.34375" y1="377" x2="67.34375" y2="377" style="visibility: inherit;" fill="rgb(0, 0, 0)" stroke="rgb(204, 204, 204)" stroke-width="1px"></line><line x1="72.34375" y1="339.3" x2="67.34375" y2="339.3" style="visibility: inherit;" fill="rgb(0, 0, 0)" stroke="rgb(204, 204, 204)" stroke-width="1px"></line><line x1="72.34375" y1="301.6" x2="67.34375" y2="301.6" style="visibility: inherit;" fill="rgb(0, 0, 0)" stroke="rgb(204, 204, 204)" stroke-width="1px"></line><line x1="72.34375" y1="263.9" x2="67.34375" y2="263.9" style="visibility: inherit;" fill="rgb(0, 0, 0)" stroke="rgb(204, 204, 204)" stroke-width="1px"></line><line x1="72.34375" y1="226.2" x2="67.34375" y2="226.2" style="visibility: inherit;" fill="rgb(0, 0, 0)" stroke="rgb(204, 204, 204)" stroke-width="1px"></line><line x1="72.34375" y1="188.50000000000003" x2="67.34375" y2="188.50000000000003" style="visibility: inherit;" fill="rgb(0, 0, 0)" stroke="rgb(204, 204, 204)" stroke-width="1px"></line><line x1="72.34375" y1="150.8" x2="67.34375" y2="150.8" style="visibility: inherit;" fill="rgb(0, 0, 0)" stroke="rgb(204, 204, 204)" stroke-width="1px"></line><line x1="72.34375" y1="113.10000000000002" x2="67.34375" y2="113.10000000000002" style="visibility: inherit;" fill="rgb(0, 0, 0)" stroke="rgb(204, 204, 204)" stroke-width="1px"></line><line x1="72.34375" y1="75.40000000000002" x2="67.34375" y2="75.40000000000002" style="visibility: inherit;" fill="rgb(0, 0, 0)" stroke="rgb(204, 204, 204)" stroke-width="1px"></line><line x1="72.34375" y1="37.70000000000003" x2="67.34375" y2="37.70000000000003" style="visibility: inherit;" fill="rgb(0, 0, 0)" stroke="rgb(204, 204, 204)" stroke-width="1px"></line><line x1="72.34375" y1="0" x2="67.34375" y2="0" style="visibility: inherit;" fill="rgb(0, 0, 0)" stroke="rgb(204, 204, 204)" stroke-width="1px"></line></g><g transform="translate(62.34375, 0)"><text x="0" y="377" dx="0em" dy="0.3em" style="text-anchor: end; visibility: hidden; font-family: Roboto, sans-serif; font-size: 12px; font-weight: 200;" fill="rgb(33, 33, 33)" stroke="none" stroke-width="1px">1e-4</text><text x="0" y="339.3" dx="0em" dy="0.3em" style="text-anchor: end; visibility: inherit; font-family: Roboto, sans-serif; font-size: 12px; font-weight: 200;" fill="rgb(33, 33, 33)" stroke="none" stroke-width="1px">2e-4</text><text x="0" y="301.6" dx="0em" dy="0.3em" style="text-anchor: end; visibility: inherit; font-family: Roboto, sans-serif; font-size: 12px; font-weight: 200;" fill="rgb(33, 33, 33)" stroke="none" stroke-width="1px">3e-4</text><text x="0" y="263.9" dx="0em" dy="0.3em" style="text-anchor: end; visibility: inherit; font-family: Roboto, sans-serif; font-size: 12px; font-weight: 200;" fill="rgb(33, 33, 33)" stroke="none" stroke-width="1px">4e-4</text><text x="0" y="226.2" dx="0em" dy="0.3em" style="text-anchor: end; visibility: inherit; font-family: Roboto, sans-serif; font-size: 12px; font-weight: 200;" fill="rgb(33, 33, 33)" stroke="none" stroke-width="1px">5e-4</text><text x="0" y="188.50000000000003" dx="0em" dy="0.3em" style="text-anchor: end; visibility: inherit; font-family: Roboto, sans-serif; font-size: 12px; font-weight: 200;" fill="rgb(33, 33, 33)" stroke="none" stroke-width="1px">6e-4</text><text x="0" y="150.8" dx="0em" dy="0.3em" style="text-anchor: end; visibility: inherit; font-family: Roboto, sans-serif; font-size: 12px; font-weight: 200;" fill="rgb(33, 33, 33)" stroke="none" stroke-width="1px">7e-4</text><text x="0" y="113.10000000000002" dx="0em" dy="0.3em" style="text-anchor: end; visibility: inherit; font-family: Roboto, sans-serif; font-size: 12px; font-weight: 200;" fill="rgb(33, 33, 33)" stroke="none" stroke-width="1px">8e-4</text><text x="0" y="75.40000000000002" dx="0em" dy="0.3em" style="text-anchor: end; visibility: inherit; font-family: Roboto, sans-serif; font-size: 12px; font-weight: 200;" fill="rgb(33, 33, 33)" stroke="none" stroke-width="1px">9e-4</text><text x="0" y="37.70000000000003" dx="0em" dy="0.3em" style="text-anchor: end; visibility: inherit; font-family: Roboto, sans-serif; font-size: 12px; font-weight: 200;" fill="rgb(33, 33, 33)" stroke="none" stroke-width="1px">1e-3</text><text x="0" y="0" dx="0em" dy="0.3em" style="text-anchor: end; visibility: hidden; font-family: Roboto, sans-serif; font-size: 12px; font-weight: 200;" fill="rgb(33, 33, 33)" stroke="none" stroke-width="1px">1.1e-3</text></g><line x1="72.34375" y1="0" x2="72.34375" y2="377" fill="rgb(0, 0, 0)" stroke="rgb(204, 204, 204)" stroke-width="1px"></line></g></g><g transform="translate(72, 0)" clip-path="url(#clip_0)"><clipPath id="clip_0"><rect width="814" height="377"></rect></clipPath><g><g><g><line x1="0" y1="0" x2="0" y2="377" fill="rgb(0, 0, 0)" stroke="rgb(66, 66, 66)" stroke-width="1px" opacity="0.25"></line><line x1="67.88802083333333" y1="0" x2="67.88802083333333" y2="377" fill="rgb(0, 0, 0)" stroke="rgb(66, 66, 66)" stroke-width="1px" opacity="0.25"></line><line x1="135.77604166666666" y1="0" x2="135.77604166666666" y2="377" fill="rgb(0, 0, 0)" stroke="rgb(66, 66, 66)" stroke-width="1px" opacity="0.25"></line><line x1="203.6640625" y1="0" x2="203.6640625" y2="377" fill="rgb(0, 0, 0)" stroke="rgb(66, 66, 66)" stroke-width="1px" opacity="0.25"></line><line x1="271.5520833333333" y1="0" x2="271.5520833333333" y2="377" fill="rgb(0, 0, 0)" stroke="rgb(66, 66, 66)" stroke-width="1px" opacity="0.25"></line><line x1="339.4401041666667" y1="0" x2="339.4401041666667" y2="377" fill="rgb(0, 0, 0)" stroke="rgb(66, 66, 66)" stroke-width="1px" opacity="0.25"></line><line x1="407.328125" y1="0" x2="407.328125" y2="377" fill="rgb(0, 0, 0)" stroke="rgb(66, 66, 66)" stroke-width="1px" opacity="0.25"></line><line x1="475.21614583333337" y1="0" x2="475.21614583333337" y2="377" fill="rgb(0, 0, 0)" stroke="rgb(66, 66, 66)" stroke-width="1px" opacity="0.25"></line><line x1="543.1041666666666" y1="0" x2="543.1041666666666" y2="377" fill="rgb(0, 0, 0)" stroke="rgb(66, 66, 66)" stroke-width="1px" opacity="0.25"></line><line x1="610.9921875" y1="0" x2="610.9921875" y2="377" fill="rgb(0, 0, 0)" stroke="rgb(66, 66, 66)" stroke-width="1px" opacity="0.25"></line><line x1="678.8802083333334" y1="0" x2="678.8802083333334" y2="377" fill="rgb(0, 0, 0)" stroke="rgb(66, 66, 66)" stroke-width="1px" opacity="0.25"></line><line x1="746.7682291666666" y1="0" x2="746.7682291666666" y2="377" fill="rgb(0, 0, 0)" stroke="rgb(66, 66, 66)" stroke-width="1px" opacity="0.25"></line><line x1="814.65625" y1="0" x2="814.65625" y2="377" fill="rgb(0, 0, 0)" stroke="rgb(66, 66, 66)" stroke-width="1px" opacity="0.25"></line></g><g><line x1="0" y1="377" x2="814.65625" y2="377" fill="rgb(0, 0, 0)" stroke="rgb(66, 66, 66)" stroke-width="1px" opacity="0.25"></line><line x1="0" y1="339.3" x2="814.65625" y2="339.3" fill="rgb(0, 0, 0)" stroke="rgb(66, 66, 66)" stroke-width="1px" opacity="0.25"></line><line x1="0" y1="301.6" x2="814.65625" y2="301.6" fill="rgb(0, 0, 0)" stroke="rgb(66, 66, 66)" stroke-width="1px" opacity="0.25"></line><line x1="0" y1="263.9" x2="814.65625" y2="263.9" fill="rgb(0, 0, 0)" stroke="rgb(66, 66, 66)" stroke-width="1px" opacity="0.25"></line><line x1="0" y1="226.2" x2="814.65625" y2="226.2" fill="rgb(0, 0, 0)" stroke="rgb(66, 66, 66)" stroke-width="1px" opacity="0.25"></line><line x1="0" y1="188.50000000000003" x2="814.65625" y2="188.50000000000003" fill="rgb(0, 0, 0)" stroke="rgb(66, 66, 66)" stroke-width="1px" opacity="0.25"></line><line x1="0" y1="150.8" x2="814.65625" y2="150.8" fill="rgb(0, 0, 0)" stroke="rgb(66, 66, 66)" stroke-width="1px" opacity="0.25"></line><line x1="0" y1="113.10000000000002" x2="814.65625" y2="113.10000000000002" fill="rgb(0, 0, 0)" stroke="rgb(66, 66, 66)" stroke-width="1px" opacity="0.25"></line><line x1="0" y1="75.40000000000002" x2="814.65625" y2="75.40000000000002" fill="rgb(0, 0, 0)" stroke="rgb(66, 66, 66)" stroke-width="1px" opacity="0.25"></line><line x1="0" y1="37.70000000000003" x2="814.65625" y2="37.70000000000003" fill="rgb(0, 0, 0)" stroke="rgb(66, 66, 66)" stroke-width="1px" opacity="0.25"></line><line x1="0" y1="0" x2="814.65625" y2="0" fill="rgb(0, 0, 0)" stroke="rgb(66, 66, 66)" stroke-width="1px" opacity="0.25"></line></g></g></g><g><g><line x1="0" y1="414.70000000000005" x2="814.65625" y2="414.70000000000005" fill="rgb(0, 0, 0)" stroke="rgb(153, 153, 153)" stroke-width="1.5px"></line></g></g><g><g><line x1="67.88802083333333" y1="0" x2="67.88802083333333" y2="377" fill="rgb(0, 0, 0)" stroke="rgb(153, 153, 153)" stroke-width="1.5px"></line></g></g><g><g><g><g><g><path stroke="rgb(255, 112, 67)" stroke-width="2px" d="M93.34602864583333,-41.78891640173279L95.04322916666666,47.38668735707085L96.7404296875,110.63434059179049L98.43763020833333,167.26986658566364L100.13483072916667,147.9714902061606L101.83203125,-23.253930833627425L103.52923177083333,50.5978346385654L105.22643229166668,1.782165679914908L106.9236328125,46.14819582758704L108.62083333333334,-75.79107088872888L110.31803385416666,50.27791238819376L112.015234375,122.69694553811777L113.71243489583334,191.93108176340127L115.40963541666666,145.03536846102898L117.1068359375,202.3077074375293L118.80403645833334,155.50717092161565L120.50123697916666,175.48163524579303L122.1984375,170.61750512114943L123.89563802083332,174.28285805131145L125.59283854166667,109.96639441280728L127.2900390625,68.7476789652632L128.98723958333332,74.1771801383756L130.68444010416667,57.36150114671266L132.38164062500002,92.94138776271049L134.07884114583334,126.13360001297296L135.77604166666666,176.18504462818956L137.4732421875,228.69459124105867L139.17044270833333,269.14213823669144L140.86764322916667,283.8627900329171L142.56484375,306.6879191532001L144.26204427083334,258.81210569115996L145.95924479166666,196.72052934811384L147.65644531249998,200.17435351898592L149.35364583333333,176.40272818419544L151.05084635416668,228.37893352798707L152.748046875,190.55258715956697L154.44524739583332,142.370437288423L156.14244791666667,167.56652782281543L157.83964843750002,223.86062439826622L159.53684895833334,275.15199274691616L161.23404947916666,303.4902165531801L162.93125,268.6909792273226L164.62845052083333,228.11590276365072L166.32565104166667,231.89913762056239L168.0228515625,239.03575987579134L169.72005208333334,271.3018180465101L171.41725260416666,302.0080938640853L173.11445312499998,278.8418199342223L174.81165364583333,320.65739409538094L176.50885416666668,331.85918610580893L178.2060546875,259.57470365833854L179.90325520833332,272.4251312458313L181.60045572916667,240.10164168339503L183.29765625000002,225.8558886144625L184.99485677083334,278.3910607070106L186.69205729166666,281.05562252497685L188.3892578125,313.4447611976643L190.08645833333333,330.8548888665109L191.78365885416667,289.2842357751232L193.480859375,286.108901235737L195.17805989583334,278.3455762317569L196.87526041666666,279.98330972657595L198.57246093749998,277.9350310753494L200.26966145833333,264.40205512086436L201.96686197916668,271.84393422307005L203.6640625,295.2544214839387L205.36126302083332,255.5276094060927L207.05846354166667,256.0626028187149L208.7556640625,301.150111303779L210.45286458333337,295.1306452281714L212.15006510416669,277.7849441142531L213.847265625,294.60675547263185L215.54446614583333,235.890972433112L217.24166666666667,294.25967175597145L218.9388671875,309.22920587347716L220.63606770833331,329.2955546528709L222.33326822916663,317.10895536975863L224.03046875,314.8088386071804L225.72766927083333,289.3928122814347L227.42486979166668,278.1568375132553L229.1220703125,256.0944397066279L230.81927083333332,246.00696753406115L232.51647135416667,264.0595957284411L234.213671875,266.1870716883944L235.91087239583337,306.0559761995163L237.60807291666669,294.6860582390442L239.3052734375,325.99856446492197L241.00247395833333,347.57390019364016L242.69967447916667,295.5152517476565L244.396875,296.90971819118477L246.09407552083331,317.61961283229965L247.79127604166663,324.5154375839572L249.4884765625,316.19164895792846L251.18567708333333,309.85628572200636L252.88287760416668,320.8452612550719L254.580078125,325.2461269115437L256.27727864583335,325.7434288742783L257.97447916666664,327.88071287251927L259.6716796875,341.4930279893945L261.36888020833334,347.47313769216584L263.0660807291667,350.9396102131098L264.76328125000003,303.5596927400344L266.4604817708333,318.3006468768776L268.1576822916667,339.6765928924038L269.85488281249997,332.0405732780295L271.5520833333333,347.371684780814L273.24928385416666,355.64276662177645L274.946484375,342.6813496812652L276.64368489583336,355.7205550217965L278.34088541666665,348.08242025567L280.0380859375,351.5952130190233L281.73528645833335,315.79298099237377L283.43248697916664,319.1889332750898L285.1296875,333.49881049535753L286.82688802083334,353.8925962080148L288.5240885416667,361.4635086802194L290.22128906250003,336.14243318975264L291.9184895833333,349.85370046789564L293.6156901041667,336.48086696560375L295.31289062499997,352.9886525895393L297.0100911458333,369.55307473671536L298.70729166666666,351.0549714937205L300.4044921875,340.88096473918415L302.10169270833336,349.0322900506936L303.79889322916665,294.0285272593398L305.49609375,297.5068975036092L307.19329427083335,315.6860150752904L308.89049479166664,307.7992495480555L310.5876953125,284.7455266015196L312.28489583333334,274.4857746693247L313.9820963541667,261.21258769735346L315.67929687500003,206.6667055335545L317.3764973958333,241.75533477069982L319.0736979166667,215.06184484918893L320.77089843749997,255.41192847473903L322.4680989583333,277.8303152986004L324.16529947916666,300.3246280451758L325.8625,264.90144169491634L327.55970052083336,254.89728676765924L329.25690104166665,300.2837895856281L330.9541015625,324.10731321643357L332.65130208333335,341.8974246086754L334.34850260416664,328.0993902541259L336.045703125,270.67652501815166L337.74290364583334,310.3817085465911L339.4401041666667,289.4766121755837L341.13730468750003,302.0482128279014L342.8345052083333,309.4655202252629L344.5317057291667,261.00033473334236L346.22890624999997,289.74329920377L347.9261067708333,326.5572900970422L349.62330729166666,334.1692560766332L351.3205078125,351.54356880338236L353.01770833333336,327.0678628907241L354.71490885416665,302.63617780838234L356.412109375,294.6225292106499L358.10930989583335,329.97335733035754L359.80651041666664,352.4776488354207L361.5037109375,330.6343009467103L363.20091145833334,344.25474768193567L364.8981119791667,358.69349358136935L366.59531250000003,331.7978314572154L368.2925130208333,322.1753685632619L369.9897135416667,345.17795817089586L371.68691406249997,352.62550160333336L373.3841145833333,370.1497621563327L375.08131510416666,378.6058180786568L376.778515625,337.942230315966L378.47571614583336,305.8207064394616L380.17291666666665,314.6822194437828L381.8701171875,348.43008938838625L383.56731770833335,361.9075803068153L385.26451822916664,366.22039352446774L386.96171875,342.6411285297907L388.65891927083334,342.85004073532065L390.3561197916667,343.03882680129306L392.05332031250003,338.3146622526313L393.7505208333333,344.37061756962964L395.4477213541667,317.21633471534807L397.14492187499997,349.68096529072517L398.8421223958333,347.5803467409931L400.53932291666666,353.0089194191208L402.2365234375,317.53508346652006L403.93372395833336,315.073508234527L405.63092447916665,246.03400153164944L407.328125,272.85694592398335L409.02532552083335,295.4283109280396L410.72252604166664,312.0209010165533L412.4197265625,342.5086348739475L414.11692708333334,344.30188719164715L415.81412760416663,348.0235604625203L417.511328125,352.8269515640294L419.20852864583327,327.2643741870786L420.90572916666673,335.0975383022161L422.6029296875,329.947778139579L424.30013020833337,349.612431727907L425.99733072916666,352.1712247546101L427.69453125,326.16528001578286L429.39173177083336,316.8546459673815L431.08893229166665,304.5100743346422L432.7861328125,306.72075358507465L434.48333333333335,294.2772432002011L436.18053385416664,318.02548025423226L437.877734375,278.0822106759187L439.57493489583334,311.87477842484407L441.27213541666663,338.8266800273328L442.9693359375,325.4013927649405L444.66653645833327,289.5090964877611L446.36373697916673,309.4176991542674L448.0609375,321.27597234518436L449.75813802083337,291.8635757845781L451.45533854166666,313.372593016482L453.1525390625,276.4219609418849L454.84973958333336,317.78208987855606L456.54694010416665,323.59144133637625L458.244140625,318.4047287780845L459.94134114583335,322.95573225283385L461.63854166666664,340.96515688800076L463.3357421875,334.6661650939294L465.03294270833334,348.19990927450783L466.73014322916663,318.0818298815253L468.42734375,325.8681081552692L470.12454427083327,324.9850604013175L471.82174479166673,331.5969805821837L473.5189453125,323.85042308414717L475.21614583333337,337.5279397996574L476.91334635416666,339.5697440930994L478.610546875,300.8369704859915L480.30774739583336,311.0580029977743L482.00494791666665,305.22788472734067L483.7021484375,305.2290850666332L485.39934895833335,248.85946266585844L487.09654947916664,286.6449012899485L488.79375,324.6969083583137L490.49095052083334,306.5341908641252L492.18815104166663,318.0297694182545L493.8853515625,301.3716765548974L495.58255208333327,297.3368324471788L497.27975260416673,308.34094554060107L498.976953125,308.23302563029324L500.67415364583337,317.9403329240213L502.37135416666666,315.23461260443884L504.0685546875,283.1502262345647L505.76575520833336,272.1097118873042L507.46295572916665,284.56586528300596L509.16015625,328.99050619559165L510.85735677083335,309.92124368045734L512.5545572916667,323.5903156749919L514.2517578124999,332.07880113304685L515.9489583333333,319.30100615072865L517.6461588541666,333.43220942393987L519.343359375,278.554334981783L521.0405598958333,282.928585948877L522.7377604166667,280.6122878829137L524.4349609375,290.58968103448643L526.1321614583334,310.8867267599316L527.8293619791667,322.27982267553836L529.5265625000001,338.9396903726156L531.2237630208333,325.8731582063553L532.9209635416667,326.4255927223242L534.6181640625,333.27269880738083L536.3153645833333,328.1105298960804L538.0125651041667,311.9945162643253L539.7097656249999,316.4444928913029L541.4069661458333,321.65947865949715L543.1041666666666,339.24068644644L544.8013671875,344.2296699077147L546.4985677083333,300.54789261202933L548.1957682291667,231.27201522018566L549.89296875,282.62012780665117L551.5901692708334,292.9670350819417L553.2873697916667,327.40959044028875L554.9845703125001,334.23075204206555L556.6817708333333,296.47957341824053L558.3789713541667,292.98179267638L560.076171875,296.71925594601373L561.7733723958333,322.0886831496445L563.4705729166667,283.91279836281615L565.1677734374999,321.82733898888404L566.8649739583333,345.0169120443886L568.5621744791666,303.1986956575454L570.259375,323.8768337897232L571.9565755208333,336.18295288663666L573.6537760416667,328.91656709438377L575.3509765625,307.1049128496695L577.0481770833334,299.6169220396868L578.7453776041667,296.0425969571019L580.4425781250001,297.40283828058216L582.1397786458333,303.3881225395217L583.8369791666667,336.87563829397124L585.5341796875,351.27892865229376L587.2313802083333,268.3390319724081L588.9285807291667,289.09374425363603L590.6257812499999,313.3562765175041L592.3229817708333,337.4200198144856L594.0201822916666,311.51918026893696L595.7173828125,328.18320535811773L597.4145833333333,322.04163157758785L599.1117838541667,335.9879770505271L600.808984375,294.1493969711492L602.5061848958334,321.98890249431236L604.2033854166667,350.47512337612744L605.9005859375001,345.4702047078637L607.5977864583333,348.10444049958596L609.2949869791667,357.23396083825264L610.9921875,373.3481243754467L612.6893880208333,376.405420719476L614.3865885416667,379.615479367632L616.0837890624999,366.1844485495438L617.7809895833333,355.6656493292961L619.4781901041666,327.5199149894618L621.175390625,336.4899360427035L622.8725911458333,331.4293422101545L624.5697916666667,329.0706716121462L626.2669921875,323.28533448712767L627.9641927083334,325.0360103847134L629.6613932291667,335.47157980740917L631.3585937500001,331.0974620088576L633.0557942708333,331.03227685332934L634.7529947916667,282.2645682058671L636.4501953125,295.3546021875777L638.1473958333333,303.28548025147103L639.8445963541667,318.75178613805053L641.5417968749999,330.9651830555377L643.2389973958333,317.9629859080055L644.9361979166666,234.7735973420822L646.6333984375,294.7242656320076L648.3305989583333,267.45323492138033L650.0277994791667,285.6818104811293L651.725,307.7150960994401L653.4222005208334,325.88779675425855L655.1194010416667,300.67463210911984L656.8166015625001,272.8593578440558L658.5138020833333,312.137384204927L660.2110026041667,302.9741055034029L661.908203125,295.2791463731931L663.6054036458333,297.252001131111L665.3026041666667,279.9854787713117L666.9998046874999,315.1600006018047L668.6970052083333,285.210083044538L670.3942057291666,301.35064564177793L672.09140625,332.4519841335557L673.7886067708333,328.87802581345653L675.4858072916667,314.4553585689477L677.1830078125,312.8785322126537L678.8802083333334,307.5078051874363L680.5774088541667,337.27959810927206L682.2746093750001,285.3208907770198L683.9718098958333,295.62098983726764L685.6690104166667,300.5673150596692L687.3662109375,333.4006412227556L689.0634114583333,334.0969075089737L690.7606119791667,319.7146954312798L692.4578124999999,337.8146259387136L694.1550130208333,324.2692266057313L695.8522135416666,302.8736189433787L697.5494140625,329.66955560440346L699.2466145833333,320.75673511604305L700.9438151041667,336.21769651946704L702.641015625,352.38776755996946L704.3382161458334,326.3184227558763L706.0354166666667,332.97321550239684L707.7326171875001,347.10573257797694L709.4298177083333,362.8179704808629L711.1270182291667,348.5722869530599L712.82421875,334.8000230183061L714.5214192708333,311.3792401036907L716.2186197916667,330.9381869853683L717.9158203124999,320.8953325451105L719.6130208333333,344.4570476550507L721.3102213541666,323.62270123408496L723.007421875,319.60261715264625L724.7046223958333,300.63666470638816L726.4018229166667,316.06400305078193L728.0990234375,333.81013326301513L729.7962239583334,336.11984649284534L731.4934244791667,269.40573674963474L733.1906250000001,287.9156740678381L734.8878255208333,286.56431173132177L736.5850260416667,309.60135732603857L738.2822265625,330.33683642116546L739.9794270833333,303.6359368861383L741.6766276041667,322.8942307818799L743.3738281249999,339.8754853640288L745.0710286458333,331.3859863837385L746.7682291666666,349.5541595959791" style="fill: none;" fill="none"></path></g></g></g></g><g opacity="0.2"><g><g><g><path stroke="rgb(255, 112, 67)" stroke-width="2px" d="M76.3740234375,-861.345961305499L78.07122395833333,7.002951263263855L79.76842447916667,-108.93912470173088L81.465625,-383.4903899926692L83.16282552083334,32.19130743555728L84.86002604166667,-291.01417524479325L88.25442708333334,-318.82592717856164L89.95162760416666,12.357225909642908L91.64882812500001,-300.3467737810686L93.34602864583333,225.12483064811676L95.04322916666666,181.1123568683863L96.7404296875,205.48976187156512L98.43763020833333,252.21452772412448L100.13483072916667,119.02568958494815L101.83203125,-280.08267198428507L103.52923177083333,161.3730527230539L105.22643229166668,-71.44037397783246L106.9236328125,112.69671549117196L108.62083333333334,-258.699104271084L110.31803385416666,239.38084967695175L112.015234375,231.32530996254644L113.71243489583334,295.78217981061897L115.40963541666666,74.69184170505035L117.1068359375,288.21618424872867L118.80403645833334,85.30638166731227L120.50123697916666,205.4433277578093L122.1984375,163.32131051486363L123.89563802083332,179.78088718401273L125.59283854166667,13.491701719164881L127.2900390625,6.91960685681555L128.98723958333332,82.32143181404102L130.68444010416667,32.13798281531784L132.38164062500002,146.3112174885348L134.07884114583334,175.9219182774425L135.77604166666666,251.262211450655L137.4732421875,307.4589110971894L139.17044270833333,329.8134587009437L140.86764322916667,305.94376772088L142.56484375,340.9256128276931L144.26204427083334,186.99838550556456L145.95924479166666,103.58316483935344L147.65644531249998,205.35508977510034L149.35364583333333,140.74529018281032L151.05084635416668,306.3432415426243L152.748046875,133.8130676073954L154.44524739583332,70.09721248205754L156.14244791666667,205.3606636242941L157.83964843750002,308.30176926129496L159.53684895833334,352.0890452698106L161.23404947916666,345.9975522625493L162.93125,216.49212323855608L164.62845052083333,167.25328806815673L166.32565104166667,237.57398990592918L168.0228515625,249.74069325863383L169.72005208333334,319.700905302586L171.41725260416666,348.0675075904466L173.11445312499998,244.09240903942845L174.81165364583333,383.3807553371182L176.50885416666668,348.6618741214508L178.2060546875,151.14797998713334L179.90325520833332,291.70077262707053L181.60045572916667,191.6164073397406L183.29765625000002,204.4872590110637L184.99485677083334,357.1938188458327L186.69205729166666,285.0524652519263L188.3892578125,362.02846920669543L190.08645833333333,356.97008036978076L191.78365885416667,226.9282561380416L193.480859375,281.3458994266577L195.17805989583334,266.70058872578664L196.87526041666666,282.43990996880456L198.57246093749998,274.8626130985096L200.26966145833333,244.10259118913672L201.96686197916668,283.0067528763786L203.6640625,330.37015237524173L205.36126302083332,195.93739128932356L207.05846354166667,256.8650929376483L208.7556640625,368.78137403137515L210.45286458333337,286.1014461147599L212.15006510416669,251.76639244337565L213.847265625,319.8394725102L215.54446614583333,147.81729787383233L217.24166666666667,381.8127207402606L218.9388671875,331.6835070497356L220.63606770833331,359.3950778219616L222.33326822916663,298.8290564450901L224.03046875,311.3586634633131L225.72766927083333,251.26877279281615L227.42486979166668,261.3028753609862L229.1220703125,223.00084299668669L230.81927083333332,230.875759275211L232.51647135416667,291.138538020011L234.213671875,269.37828562832436L235.91087239583337,365.85933296619913L237.60807291666669,277.631181298336L239.3052734375,372.9673238037387L241.00247395833333,379.9369037867175L242.69967447916667,217.427279078681L244.396875,299.0014178564772L246.09407552083331,348.68445479397195L247.79127604166663,334.8591747114435L249.4884765625,303.70596601888536L251.18567708333333,300.35324086812324L252.88287760416668,337.32872455467003L254.580078125,331.8474253962515L256.27727864583335,326.4893818183802L257.97447916666664,331.0866388698807L259.6716796875,361.91150066470726L261.36888020833334,356.44330224632284L263.0660807291667,356.1393189945258L264.76328125000003,232.48981653042136L266.4604817708333,340.4120780821424L268.1576822916667,371.74051191569305L269.85488281249997,320.58654385646804L271.5520833333333,370.36835203499066L273.24928385416666,368.0493893832201L274.946484375,323.23922427049837L276.64368489583336,375.2793630325934L278.34088541666665,336.6252181064803L280.0380859375,356.86440216405316L281.73528645833335,262.08963295239954L283.43248697916664,324.2828616991639L285.1296875,354.9636263257591L286.82688802083334,384.4832747770008L288.5240885416667,372.8198773885262L290.22128906250003,298.16081995405256L291.9184895833333,370.42060138511005L293.6156901041667,316.421616712166L295.31289062499997,377.7503310254426L297.0100911458333,394.39970795747945L298.70729166666666,323.30781662922817L300.4044921875,325.6199546073796L302.10169270833336,361.2592780179577L303.79889322916665,211.52288307230918L305.49609375,302.7244528700132L307.19329427083335,342.95469143281224L308.89049479166664,295.96910125720314L310.5876953125,250.16494218171573L312.28489583333334,259.09614677103235L313.9820963541667,241.3028072393965L315.67929687500003,124.84788228785622L317.3764973958333,294.38827862641773L319.0736979166667,175.0216099669226L320.77089843749997,315.9370539130643L322.4680989583333,311.45789553439243L324.16529947916666,334.0660971650388L325.8625,211.76666216952725L327.55970052083336,239.89105437677352L329.25690104166665,368.3635438125813L330.9541015625,359.8425986626418L332.65130208333335,368.58259169703814L334.34850260416664,307.40233872230164L336.045703125,184.5422271641903L337.74290364583334,369.93948383925016L339.4401041666667,258.11896761907263L341.13730468750003,320.9056138063781L342.8345052083333,320.591481321305L344.5317057291667,188.30255649546166L346.22890624999997,332.85774590941145L347.9261067708333,381.7782764369506L349.62330729166666,345.5872050460195L351.3205078125,377.6050378935063L353.01770833333336,290.3543040217366L354.71490885416665,265.98865018486975L356.412109375,282.60205631405114L358.10930989583335,382.9995995099191L359.80651041666664,386.23408609301555L361.5037109375,297.8692791136447L363.20091145833334,364.68541778477373L364.8981119791667,380.35161243051994L366.59531250000003,291.4543382709846L368.2925130208333,307.7416742223315L369.9897135416667,379.6818425823469L371.68691406249997,363.7968167519895L373.3841145833333,396.43615298583177L375.08131510416666,391.28990196214295L376.778515625,276.9468486719299L378.47571614583336,257.638420624705L380.17291666666665,327.97448895026463L381.8701171875,399.0518943052914L383.56731770833335,382.1238166844589L385.26451822916664,372.68961335094644L386.96171875,307.27223103777504L388.65891927083334,343.1634090436157L390.3561197916667,343.32200590025167L392.05332031250003,331.2284154296387L393.7505208333333,353.4545505451271L395.4477213541667,276.4849104339257L397.14492187499997,398.3779111537908L398.8421223958333,344.4294189163949L400.53932291666666,361.15177843631244L402.2365234375,264.3243295376189L403.93372395833336,311.3811453865375L405.63092447916665,142.47474147733305L407.328125,313.0913625124842L409.02532552083335,329.2853584341239L410.72252604166664,336.9097861493239L412.4197265625,388.24023566003893L414.11692708333334,346.9917656681966L415.81412760416663,353.6060703688301L417.511328125,360.03203821629285L419.20852864583327,288.9205081216525L420.90572916666673,346.84728447492233L422.6029296875,322.2231378956232L424.30013020833337,379.10941211039903L425.99733072916666,356.00941429466474L427.69453125,287.1563629075419L429.39173177083336,302.88869489477946L431.08893229166665,285.9932168855332L432.7861328125,310.0367724607233L434.48333333333335,275.61197762289083L436.18053385416664,353.64783583527895L437.877734375,218.1673063084483L439.57493489583334,362.56363004823214L441.27213541666663,379.2545324310661L442.9693359375,305.26346187135204L444.66653645833327,235.67065207199192L446.36373697916673,339.2806031540269L448.0609375,339.06338213155976L449.75813802083337,247.74498094366862L451.45533854166666,345.6361188643379L453.1525390625,220.99601282998918L454.84973958333336,379.8222832835629L456.54694010416665,332.3054685231065L458.244140625,310.62465994064695L459.94134114583335,329.78223746495786L461.63854166666664,367.97929384075104L463.3357421875,325.2176774028223L465.03294270833334,368.5005255453754L466.73014322916663,272.9047107920516L468.42734375,337.547525565885L470.12454427083327,323.6604887703899L471.82174479166673,341.51486085348296L473.5189453125,312.2305868370924L475.21614583333337,358.04421487292274L476.91334635416666,342.63245053326244L478.610546875,242.7378100753296L480.30774739583336,326.3895517654484L482.00494791666665,296.4827073216904L483.7021484375,305.230885575572L485.39934895833335,164.30502906469633L487.09654947916664,343.32305922608356L488.79375,381.77491896086144L490.49095052083334,279.2901146228425L492.18815104166663,335.2731372494483L493.8853515625,276.3845372598618L495.58255208333327,291.2845662856009L497.27975260416673,324.84711518073453L498.976953125,308.07114576483144L500.67415364583337,332.5012938646134L502.37135416666666,311.1760321250651L504.0685546875,235.02364667975343L505.76575520833336,255.54894036641343L507.46295572916665,303.2500953765586L509.16015625,395.6274675644702L510.85735677083335,281.31734990775584L512.5545572916667,344.09392366679384L514.2517578124999,344.8115293201292L515.9489583333333,300.1343136772513L517.6461588541666,354.62901433375663L519.343359375,196.23752331854774L521.0405598958333,289.4899623995181L522.7377604166667,277.13784078396856L524.4349609375,305.5557707618456L526.1321614583334,341.3322953480994L527.8293619791667,339.36946654894854L529.5265625000001,363.92949191823135L531.2237630208333,306.27335995696484L532.9209635416667,327.2542444962775L534.6181640625,343.54335793496574L536.3153645833333,320.3672765291296L538.0125651041667,287.8204958166927L539.7097656249999,323.11945783176924L541.4069661458333,329.48195731178856L543.1041666666666,365.6124981268542L544.8013671875,351.71314509962684L546.4985677083333,235.02522666850126L548.1957682291667,127.35819913242015L549.89296875,359.6422966863494L551.5901692708334,308.48739599487743L553.2873697916667,379.07342347780946L554.9845703125001,344.4624944447307L556.6817708333333,239.85280548250302L558.3789713541667,287.7351215635892L560.076171875,302.3254508504644L561.7733723958333,360.1428239550907L563.4705729166667,226.64897118257358L565.1677734374999,378.6991499279859L566.8649739583333,379.8012716276455L568.5621744791666,240.47137107728048L570.259375,354.89404098798985L571.9565755208333,354.6421315320069L573.6537760416667,318.0169884060044L575.3509765625,274.3874314825982L577.0481770833334,288.3849358247127L578.7453776041667,290.6811093332246L580.4425781250001,299.44320026580243L582.1397786458333,312.3660489279311L583.8369791666667,387.1069119256456L585.5341796875,372.8838641897775L587.2313802083333,143.9291869525798L588.9285807291667,320.2258126754779L590.6257812499999,349.75007491330615L592.3229817708333,373.5156347599579L594.0201822916666,272.6679209506139L595.7173828125,353.1792429918889L597.4145833333333,312.82927090679294L599.1117838541667,356.90749525993596L600.808984375,231.39152685208245L602.5061848958334,363.74816077905706L604.2033854166667,393.2044546988502L605.9005859375001,337.9628267054679L607.5977864583333,352.0557941871695L609.2949869791667,370.9282413462526L610.9921875,397.5193696812378L614.3865885416667,384.430567339866L616.0837890624999,346.0379023224115L617.7809895833333,339.8874504989246L619.4781901041666,285.30131347971036L621.175390625,349.944967622566L622.8725911458333,323.838451461331L624.5697916666667,325.53266571513376L626.2669921875,314.60732879959977L627.9641927083334,327.66202423109206L629.6613932291667,351.12493394145275L631.3585937500001,324.5362853110302L633.0557942708333,330.93449912003706L634.7529947916667,209.1130052346736L636.4501953125,314.98965316014363L638.1473958333333,315.1817973473109L639.8445963541667,341.95124496791976L641.5417968749999,349.2852784317685L643.2389973958333,298.4596901867073L644.9361979166666,109.98951449319723L646.6333984375,384.6502680668957L648.3305989583333,226.5466888554394L650.0277994791667,313.02467382075264L651.725,340.7650245269062L653.4222005208334,353.1468477364862L655.1194010416667,262.8548851414118L656.8166015625001,231.13644644645973L658.5138020833333,371.0544237462338L660.2110026041667,289.22918745111673L661.908203125,283.7367076778784L663.6054036458333,300.2112832679879L665.3026041666667,254.08569523161276L666.9998046874999,367.92178334754425L668.6970052083333,240.285206708638L670.3942057291666,325.56148953763767L672.09140625,379.10399187122243L673.7886067708333,323.51708833330775L675.4858072916667,292.82135770218446L677.1830078125,310.51329267821274L678.8802083333334,299.4517146496102L680.5774088541667,381.9372874920257L682.2746093750001,207.38282977864145L683.9718098958333,311.07113842763937L685.6690104166667,307.98680289327166L687.3662109375,382.6506304673851L689.0634114583333,335.14130693830083L690.7606119791667,298.1413773147389L692.4578124999999,364.9645216998644L694.1550130208333,303.9511276062578L695.8522135416666,270.7802074498497L697.5494140625,369.8634605959407L699.2466145833333,307.3875043835025L700.9438151041667,359.4091386246029L702.641015625,376.642874120723L704.3382161458334,287.2144055497367L706.0354166666667,342.9554046221776L707.7326171875001,368.3045081913471L709.4298177083333,386.38632733519194L711.1270182291667,327.2037616613554L712.82421875,314.14162711617536L714.5214192708333,276.24806573176755L716.2186197916667,360.27660730788483L717.9158203124999,305.83105088472365L719.6130208333333,379.79962031996115L721.3102213541666,292.37118160263634L723.007421875,313.57249103048815L724.7046223958333,272.187736037001L726.4018229166667,339.20501056737265L728.0990234375,360.4293285813648L729.7962239583334,339.58441633759065L731.4934244791667,169.33457213481893L733.1906250000001,315.68058004514313L734.8878255208333,284.53726822654716L736.5850260416667,344.15692571811377L738.2822265625,361.4400550638558L739.9794270833333,263.58458758359774L741.6766276041667,351.78167162549215L743.3738281249999,365.3473672372522L745.0710286458333,318.65173791330307L746.7682291666666,376.80641941434004" style="fill: none;" fill="none"></path></g></g></g></g></g><g><g opacity="0.166566"><span fill="rgb(0, 0, 0)" stroke="none" stroke-width="1px">Alt + Scroll to Zoom</span></g></g></g><g transform="translate(72, 377)" clip-path="url(#clip_1)"><clipPath id="clip_1"><rect width="814" height="23"></rect></clipPath><g><g><line x1="0" y1="0" x2="0" y2="5" style="visibility: inherit;" fill="rgb(0, 0, 0)" stroke="rgb(204, 204, 204)" stroke-width="1px"></line><line x1="67.88802083333333" y1="0" x2="67.88802083333333" y2="5" style="visibility: inherit;" fill="rgb(0, 0, 0)" stroke="rgb(204, 204, 204)" stroke-width="1px"></line><line x1="135.77604166666666" y1="0" x2="135.77604166666666" y2="5" style="visibility: inherit;" fill="rgb(0, 0, 0)" stroke="rgb(204, 204, 204)" stroke-width="1px"></line><line x1="203.6640625" y1="0" x2="203.6640625" y2="5" style="visibility: inherit;" fill="rgb(0, 0, 0)" stroke="rgb(204, 204, 204)" stroke-width="1px"></line><line x1="271.5520833333333" y1="0" x2="271.5520833333333" y2="5" style="visibility: inherit;" fill="rgb(0, 0, 0)" stroke="rgb(204, 204, 204)" stroke-width="1px"></line><line x1="339.4401041666667" y1="0" x2="339.4401041666667" y2="5" style="visibility: inherit;" fill="rgb(0, 0, 0)" stroke="rgb(204, 204, 204)" stroke-width="1px"></line><line x1="407.328125" y1="0" x2="407.328125" y2="5" style="visibility: inherit;" fill="rgb(0, 0, 0)" stroke="rgb(204, 204, 204)" stroke-width="1px"></line><line x1="475.21614583333337" y1="0" x2="475.21614583333337" y2="5" style="visibility: inherit;" fill="rgb(0, 0, 0)" stroke="rgb(204, 204, 204)" stroke-width="1px"></line><line x1="543.1041666666666" y1="0" x2="543.1041666666666" y2="5" style="visibility: inherit;" fill="rgb(0, 0, 0)" stroke="rgb(204, 204, 204)" stroke-width="1px"></line><line x1="610.9921875" y1="0" x2="610.9921875" y2="5" style="visibility: inherit;" fill="rgb(0, 0, 0)" stroke="rgb(204, 204, 204)" stroke-width="1px"></line><line x1="678.8802083333334" y1="0" x2="678.8802083333334" y2="5" style="visibility: inherit;" fill="rgb(0, 0, 0)" stroke="rgb(204, 204, 204)" stroke-width="1px"></line><line x1="746.7682291666666" y1="0" x2="746.7682291666666" y2="5" style="visibility: inherit;" fill="rgb(0, 0, 0)" stroke="rgb(204, 204, 204)" stroke-width="1px"></line><line x1="814.65625" y1="0" x2="814.65625" y2="5" style="visibility: inherit;" fill="rgb(0, 0, 0)" stroke="rgb(204, 204, 204)" stroke-width="1px"></line></g><g transform="translate(0, 8)"><text x="0" y="0" dx="0em" dy="0.95em" style="text-anchor: middle; visibility: hidden; font-family: Roboto, sans-serif; font-size: 12px; font-weight: 200;" fill="rgb(33, 33, 33)" stroke="none" stroke-width="1px">-20k</text><text x="67.88802083333333" y="0" dx="0em" dy="0.95em" style="text-anchor: middle; visibility: inherit; font-family: Roboto, sans-serif; font-size: 12px; font-weight: 200;" fill="rgb(33, 33, 33)" stroke="none" stroke-width="1px">0</text><text x="135.77604166666666" y="0" dx="0em" dy="0.95em" style="text-anchor: middle; visibility: inherit; font-family: Roboto, sans-serif; font-size: 12px; font-weight: 200;" fill="rgb(33, 33, 33)" stroke="none" stroke-width="1px">20k</text><text x="203.6640625" y="0" dx="0em" dy="0.95em" style="text-anchor: middle; visibility: inherit; font-family: Roboto, sans-serif; font-size: 12px; font-weight: 200;" fill="rgb(33, 33, 33)" stroke="none" stroke-width="1px">40k</text><text x="271.5520833333333" y="0" dx="0em" dy="0.95em" style="text-anchor: middle; visibility: inherit; font-family: Roboto, sans-serif; font-size: 12px; font-weight: 200;" fill="rgb(33, 33, 33)" stroke="none" stroke-width="1px">60k</text><text x="339.4401041666667" y="0" dx="0em" dy="0.95em" style="text-anchor: middle; visibility: inherit; font-family: Roboto, sans-serif; font-size: 12px; font-weight: 200;" fill="rgb(33, 33, 33)" stroke="none" stroke-width="1px">80k</text><text x="407.328125" y="0" dx="0em" dy="0.95em" style="text-anchor: middle; visibility: inherit; font-family: Roboto, sans-serif; font-size: 12px; font-weight: 200;" fill="rgb(33, 33, 33)" stroke="none" stroke-width="1px">100k</text><text x="475.21614583333337" y="0" dx="0em" dy="0.95em" style="text-anchor: middle; visibility: inherit; font-family: Roboto, sans-serif; font-size: 12px; font-weight: 200;" fill="rgb(33, 33, 33)" stroke="none" stroke-width="1px">120k</text><text x="543.1041666666666" y="0" dx="0em" dy="0.95em" style="text-anchor: middle; visibility: inherit; font-family: Roboto, sans-serif; font-size: 12px; font-weight: 200;" fill="rgb(33, 33, 33)" stroke="none" stroke-width="1px">140k</text><text x="610.9921875" y="0" dx="0em" dy="0.95em" style="text-anchor: middle; visibility: inherit; font-family: Roboto, sans-serif; font-size: 12px; font-weight: 200;" fill="rgb(33, 33, 33)" stroke="none" stroke-width="1px">160k</text><text x="678.8802083333334" y="0" dx="0em" dy="0.95em" style="text-anchor: middle; visibility: inherit; font-family: Roboto, sans-serif; font-size: 12px; font-weight: 200;" fill="rgb(33, 33, 33)" stroke="none" stroke-width="1px">180k</text><text x="746.7682291666666" y="0" dx="0em" dy="0.95em" style="text-anchor: middle; visibility: inherit; font-family: Roboto, sans-serif; font-size: 12px; font-weight: 200;" fill="rgb(33, 33, 33)" stroke="none" stroke-width="1px">200k</text><text x="814.65625" y="0" dx="0em" dy="0.95em" style="text-anchor: middle; visibility: hidden; font-family: Roboto, sans-serif; font-size: 12px; font-weight: 200;" fill="rgb(33, 33, 33)" stroke="none" stroke-width="1px">220k</text></g><line x1="0" y1="0" x2="814.65625" y2="0" fill="rgb(0, 0, 0)" stroke="rgb(204, 204, 204)" stroke-width="1px"></line></g></g></g></g></svg>