<svg viewBox="0 0 887 400" xmlns="http://www.w3.org/2000/svg"><g><g><g><g><g><line x1="30.78125" y1="377" x2="25.78125" y2="377" style="visibility: inherit;" fill="rgb(0, 0, 0)" stroke="rgb(204, 204, 204)" stroke-width="1px"></line><line x1="30.78125" y1="329.875" x2="25.78125" y2="329.875" style="visibility: inherit;" fill="rgb(0, 0, 0)" stroke="rgb(204, 204, 204)" stroke-width="1px"></line><line x1="30.78125" y1="282.75" x2="25.78125" y2="282.75" style="visibility: inherit;" fill="rgb(0, 0, 0)" stroke="rgb(204, 204, 204)" stroke-width="1px"></line><line x1="30.78125" y1="235.625" x2="25.78125" y2="235.625" style="visibility: inherit;" fill="rgb(0, 0, 0)" stroke="rgb(204, 204, 204)" stroke-width="1px"></line><line x1="30.78125" y1="188.5" x2="25.78125" y2="188.5" style="visibility: inherit;" fill="rgb(0, 0, 0)" stroke="rgb(204, 204, 204)" stroke-width="1px"></line><line x1="30.78125" y1="141.375" x2="25.78125" y2="141.375" style="visibility: inherit;" fill="rgb(0, 0, 0)" stroke="rgb(204, 204, 204)" stroke-width="1px"></line><line x1="30.78125" y1="94.25" x2="25.78125" y2="94.25" style="visibility: inherit;" fill="rgb(0, 0, 0)" stroke="rgb(204, 204, 204)" stroke-width="1px"></line><line x1="30.78125" y1="47.125" x2="25.78125" y2="47.125" style="visibility: inherit;" fill="rgb(0, 0, 0)" stroke="rgb(204, 204, 204)" stroke-width="1px"></line><line x1="30.78125" y1="0" x2="25.78125" y2="0" style="visibility: inherit;" fill="rgb(0, 0, 0)" stroke="rgb(204, 204, 204)" stroke-width="1px"></line></g><g transform="translate(20.78125, 0)"><text x="0" y="377" dx="0em" dy="0.3em" style="text-anchor: end; visibility: hidden; font-family: Roboto, sans-serif; font-size: 12px; font-weight: 200;" fill="rgb(33, 33, 33)" stroke="none" stroke-width="1px">26</text><text x="0" y="329.875" dx="0em" dy="0.3em" style="text-anchor: end; visibility: inherit; font-family: Roboto, sans-serif; font-size: 12px; font-weight: 200;" fill="rgb(33, 33, 33)" stroke="none" stroke-width="1px">27</text><text x="0" y="282.75" dx="0em" dy="0.3em" style="text-anchor: end; visibility: inherit; font-family: Roboto, sans-serif; font-size: 12px; font-weight: 200;" fill="rgb(33, 33, 33)" stroke="none" stroke-width="1px">28</text><text x="0" y="235.625" dx="0em" dy="0.3em" style="text-anchor: end; visibility: inherit; font-family: Roboto, sans-serif; font-size: 12px; font-weight: 200;" fill="rgb(33, 33, 33)" stroke="none" stroke-width="1px">29</text><text x="0" y="188.5" dx="0em" dy="0.3em" style="text-anchor: end; visibility: inherit; font-family: Roboto, sans-serif; font-size: 12px; font-weight: 200;" fill="rgb(33, 33, 33)" stroke="none" stroke-width="1px">30</text><text x="0" y="141.375" dx="0em" dy="0.3em" style="text-anchor: end; visibility: inherit; font-family: Roboto, sans-serif; font-size: 12px; font-weight: 200;" fill="rgb(33, 33, 33)" stroke="none" stroke-width="1px">31</text><text x="0" y="94.25" dx="0em" dy="0.3em" style="text-anchor: end; visibility: inherit; font-family: Roboto, sans-serif; font-size: 12px; font-weight: 200;" fill="rgb(33, 33, 33)" stroke="none" stroke-width="1px">32</text><text x="0" y="47.125" dx="0em" dy="0.3em" style="text-anchor: end; visibility: inherit; font-family: Roboto, sans-serif; font-size: 12px; font-weight: 200;" fill="rgb(33, 33, 33)" stroke="none" stroke-width="1px">33</text><text x="0" y="0" dx="0em" dy="0.3em" style="text-anchor: end; visibility: hidden; font-family: Roboto, sans-serif; font-size: 12px; font-weight: 200;" fill="rgb(33, 33, 33)" stroke="none" stroke-width="1px">34</text></g><line x1="30.78125" y1="0" x2="30.78125" y2="377" fill="rgb(0, 0, 0)" stroke="rgb(204, 204, 204)" stroke-width="1px"></line></g></g><g transform="translate(30, 0)" clip-path="url(#clip_0)"><clipPath id="clip_0"><rect width="856" height="377"></rect></clipPath><g><g><g><line x1="0" y1="0" x2="0" y2="377" fill="rgb(0, 0, 0)" stroke="rgb(66, 66, 66)" stroke-width="1px" opacity="0.25"></line><line x1="71.3515625" y1="0" x2="71.3515625" y2="377" fill="rgb(0, 0, 0)" stroke="rgb(66, 66, 66)" stroke-width="1px" opacity="0.25"></line><line x1="142.703125" y1="0" x2="142.703125" y2="377" fill="rgb(0, 0, 0)" stroke="rgb(66, 66, 66)" stroke-width="1px" opacity="0.25"></line><line x1="214.0546875" y1="0" x2="214.0546875" y2="377" fill="rgb(0, 0, 0)" stroke="rgb(66, 66, 66)" stroke-width="1px" opacity="0.25"></line><line x1="285.40625" y1="0" x2="285.40625" y2="377" fill="rgb(0, 0, 0)" stroke="rgb(66, 66, 66)" stroke-width="1px" opacity="0.25"></line><line x1="356.7578125" y1="0" x2="356.7578125" y2="377" fill="rgb(0, 0, 0)" stroke="rgb(66, 66, 66)" stroke-width="1px" opacity="0.25"></line><line x1="428.109375" y1="0" x2="428.109375" y2="377" fill="rgb(0, 0, 0)" stroke="rgb(66, 66, 66)" stroke-width="1px" opacity="0.25"></line><line x1="499.46093750000006" y1="0" x2="499.46093750000006" y2="377" fill="rgb(0, 0, 0)" stroke="rgb(66, 66, 66)" stroke-width="1px" opacity="0.25"></line><line x1="570.8125" y1="0" x2="570.8125" y2="377" fill="rgb(0, 0, 0)" stroke="rgb(66, 66, 66)" stroke-width="1px" opacity="0.25"></line><line x1="642.1640625" y1="0" x2="642.1640625" y2="377" fill="rgb(0, 0, 0)" stroke="rgb(66, 66, 66)" stroke-width="1px" opacity="0.25"></line><line x1="713.515625" y1="0" x2="713.515625" y2="377" fill="rgb(0, 0, 0)" stroke="rgb(66, 66, 66)" stroke-width="1px" opacity="0.25"></line><line x1="784.8671875" y1="0" x2="784.8671875" y2="377" fill="rgb(0, 0, 0)" stroke="rgb(66, 66, 66)" stroke-width="1px" opacity="0.25"></line><line x1="856.21875" y1="0" x2="856.21875" y2="377" fill="rgb(0, 0, 0)" stroke="rgb(66, 66, 66)" stroke-width="1px" opacity="0.25"></line></g><g><line x1="0" y1="377" x2="856.21875" y2="377" fill="rgb(0, 0, 0)" stroke="rgb(66, 66, 66)" stroke-width="1px" opacity="0.25"></line><line x1="0" y1="329.875" x2="856.21875" y2="329.875" fill="rgb(0, 0, 0)" stroke="rgb(66, 66, 66)" stroke-width="1px" opacity="0.25"></line><line x1="0" y1="282.75" x2="856.21875" y2="282.75" fill="rgb(0, 0, 0)" stroke="rgb(66, 66, 66)" stroke-width="1px" opacity="0.25"></line><line x1="0" y1="235.625" x2="856.21875" y2="235.625" fill="rgb(0, 0, 0)" stroke="rgb(66, 66, 66)" stroke-width="1px" opacity="0.25"></line><line x1="0" y1="188.5" x2="856.21875" y2="188.5" fill="rgb(0, 0, 0)" stroke="rgb(66, 66, 66)" stroke-width="1px" opacity="0.25"></line><line x1="0" y1="141.375" x2="856.21875" y2="141.375" fill="rgb(0, 0, 0)" stroke="rgb(66, 66, 66)" stroke-width="1px" opacity="0.25"></line><line x1="0" y1="94.25" x2="856.21875" y2="94.25" fill="rgb(0, 0, 0)" stroke="rgb(66, 66, 66)" stroke-width="1px" opacity="0.25"></line><line x1="0" y1="47.125" x2="856.21875" y2="47.125" fill="rgb(0, 0, 0)" stroke="rgb(66, 66, 66)" stroke-width="1px" opacity="0.25"></line><line x1="0" y1="0" x2="856.21875" y2="0" fill="rgb(0, 0, 0)" stroke="rgb(66, 66, 66)" stroke-width="1px" opacity="0.25"></line></g></g></g><g><g><line x1="0" y1="1602.25" x2="856.21875" y2="1602.25" fill="rgb(0, 0, 0)" stroke="rgb(153, 153, 153)" stroke-width="1.5px"></line></g></g><g><g><line x1="71.3515625" y1="0" x2="71.3515625" y2="377" fill="rgb(0, 0, 0)" stroke="rgb(153, 153, 153)" stroke-width="1.5px"></line></g></g><g><g><g><g><g><path stroke="rgb(255, 112, 67)" stroke-width="2px" d="M82.054296875,455.10882765877784L83.8380859375,372.25186912916945L85.621875,429.33765698777285L87.4056640625,363.89316357936934L89.189453125,402.9774700799273L90.97324218749999,389.9695850561983L92.75703125,364.28489862367803L94.5408203125,339.7939253724662L96.32460937500001,375.61289719801886L98.1083984375,297.2188336849698L99.8921875,271.9949071725363L101.6759765625,239.02917322075098L103.459765625,193.94495067786724L105.2435546875,220.59439986907807L107.02734375,318.49908611363065L108.81113281249999,296.753478726987L110.59492187500001,343.8414463592006L112.3787109375,352.4484241855164L114.1625,401.3398496198967L115.94628906249999,308.29793116654247L117.730078125,254.40632023396995L119.5138671875,193.0486098076463L121.29765625,236.02874388902032L123.0814453125,213.76977551592842L124.86523437500001,280.37493271140204L126.6490234375,286.8925787063498L128.43281249999998,279.1308186312773L130.2166015625,248.69853854369248L132.000390625,286.9754737292915L133.7841796875,318.00744756729546L135.56796875,348.99946098834056L137.3517578125,356.7748520025827L139.13554687500002,360.4472660414271L140.9193359375,306.22187775229105L142.703125,164.72342099436784L144.4869140625,121.3126977097024L146.270703125,91.03431852247442L148.0544921875,111.52883200753813L149.83828125,91.2410071644501L151.6220703125,184.67297373122457L153.405859375,258.1039246223419L155.18964843749998,302.9096452903109L156.9734375,333.28585446585555L158.7572265625,289.4258521834007L160.541015625,345.13105137607596L162.3248046875,353.9773141829101L164.10859375,353.7029280834151L165.89238281250002,237.65671626154852L167.676171875,145.32563452371684L169.4599609375,98.56963684824564L171.24375,156.50226508778135L173.0275390625,205.20120217325035L174.811328125,260.2772226925045L176.5951171875,280.0315730449775L178.37890625,239.5640791342972L180.1626953125,169.4783646634997L181.94648437499998,209.75043375323932L183.7302734375,99.69407319444768L185.5140625,92.6236729587219L187.2978515625,194.7212718942822L189.081640625,228.4116774928012L190.8654296875,241.27353351899643L192.64921875000002,247.74518118851586L194.4330078125,177.42445131870008L196.216796875,194.10842197377605L198.0005859375,128.40622444891403L199.784375,97.52286064591075L201.5681640625,143.1792625186805L203.351953125,195.53200247275612L205.1357421875,189.15451766483653L206.91953125,187.64350548644464L208.70332031249998,200.5430864766811L210.487109375,254.34091431352954L212.2708984375,258.12993253739745L214.0546875,209.71646402759598L215.8384765625,280.34290646602653L217.62226562499998,248.93639277869437L219.4060546875,122.92974128397681L221.18984375000002,161.98091996951334L222.97363281250003,197.0259809329714L224.757421875,206.33792199102678L226.5412109375,261.3144034708002L228.325,125.3059407809054L230.1087890625,102.75056771866528L231.89257812499997,66.46243188638715L233.67636718749998,131.61387652074825L235.46015625,187.11439801404202L237.24394531250002,243.83961678236335L239.027734375,184.86981850081463L240.8115234375,271.2680544687138L242.5953125,235.14487151103182L244.37910156249998,237.53979518292522L246.162890625,209.94122454093798L247.94667968750002,110.06889179090804L249.73046875000003,150.84990431511497L251.5142578125,99.97089611079743L253.298046875,38.36843091599004L255.0818359375,124.37241839380178L256.86562499999997,168.92720155126523L258.6494140625,154.05940196637312L260.433203125,98.10788448884493L262.2169921875,116.39040141245373L264.00078125,131.26903012359526L265.7845703125,157.28854753353826L267.568359375,180.19152432548188L269.3521484375,163.26308678309448L271.1359375,144.02322987747394L272.9197265625,66.70155675430432L274.703515625,102.62306227218711L276.4873046875,79.96830624301201L278.27109375000003,159.61149140571936L280.0548828125,96.9478242181264L281.838671875,90.66061118737005L283.62246093749997,143.32369949516743L285.40625,91.25328513441738L287.1900390625,38.65162451540358L288.973828125,125.59785804435575L290.7576171875,57.95066676905729L292.54140625,81.15569230539182L294.3251953125,71.68590824975114L296.108984375,172.2524470876071L297.8927734375,142.15067527237022L299.6765625,151.61030729736385L301.4603515625,54.24476733282519L303.244140625,12.187459650488703L305.02792968750003,131.38250647953274L306.81171875,123.3335640607544L308.5955078125,166.8185411082666L310.37929687499997,106.47481626194492L312.1630859375,44.429791986475834L313.946875,127.12693561287553L315.7306640625,148.43487947685614L317.514453125,141.8055350393241L319.2982421875,215.12210371554985L321.08203125,239.24808370149782L322.8658203125,237.17656666682157L324.649609375,251.28214296487565L326.4333984375,250.14316597454297L328.2171875,206.80301155371998L330.0009765625,256.1800433023186L331.78476562500003,294.0579191698677L333.5685546875,221.77462319457823L335.35234375,250.4400431390064L337.13613281249997,243.88005743476504L338.919921875,262.3447639110847L340.7037109375,247.22353744287264L342.4875,254.08867416250087L344.2712890625,259.0411228744231L346.055078125,172.39559886503483L347.8388671875,97.94775990038069L349.62265625,43.6589008056459L351.4064453125,84.3572806765638L353.190234375,165.31642138063918L354.9740234375,91.25073997437977L356.7578125,140.52842803156392L358.54160156250003,201.41156499001985L360.325390625,196.6874055887081L362.1091796875,240.93066702036955L363.89296874999997,232.70334840863285L365.6767578125,128.23229289680327L367.460546875,139.7678313769675L369.2443359375,55.49754079090221L371.028125,157.37725591603913L372.8119140625,216.34215707745557L374.595703125,86.02943670252783L376.3794921875,52.58258263766647L378.16328125,12.20748968422355L379.9470703125,100.26941692531081L381.730859375,50.152189705967736L383.5146484375,28.110850032686884L385.29843750000003,120.78139191658485L387.0822265625,152.1871047841977L388.866015625,71.60318942233745L390.64980468749997,50.34633557417884L392.43359375,-38.49297895181845L394.2173828125,-73.62594541399858L396.001171875,72.23395442671071L397.7849609375,171.0923315984397L399.56875,176.27285930528586L401.3525390625,41.84655135282485L403.136328125,-15.225520840831816L404.9201171875,-26.65589508506563L406.70390625,61.33335599247849L408.4876953125,62.76758847799449L410.271484375,83.6078954825791L412.05527343750003,133.8596821480984L413.8390625,148.68344425284826L415.6228515625,218.0299169965026L417.40664062499997,59.25570101424695L419.1904296875,90.3059242897309L420.97421875,28.86170494157529L422.7580078125,63.96488377808611L424.541796875,163.91424673413678L426.3255859375,203.40790244111682L428.109375,227.7593847523287L429.8931640625,171.00253350795248L431.676953125,130.49526896036238L433.4607421875,59.9843788978849L435.24453124999997,110.81475978120521L437.02832031249994,132.83942635669916L438.812109375,122.61400422939425L440.59589843749995,188.00594545298068L442.37968750000005,159.59204230840942L444.1634765625,164.0981243260856L445.94726562500006,88.11137913514118L447.73105468750003,109.67130650787918L449.51484375,145.49793542450283L451.2986328125,201.64954832211498L453.082421875,208.70039460072138L454.8662109375,179.70111158495664L456.65,213.1247929275365L458.4337890625,192.93676416518286L460.217578125,232.1640299346565L462.00136718749997,149.1751380077911L463.78515624999994,120.73970480632258L465.5689453125,137.68073303622887L467.35273437499995,197.14348868800934L469.13652343750005,185.6546157614811L470.9203125,160.0389270077005L472.70410156250006,187.32390904962148L474.48789062500003,197.41820435845332L476.2716796875,216.17805960848028L478.05546875,118.80968286439234L479.8392578125,184.34539796021244L481.623046875,177.02263346378015L483.4068359375,191.14500250258456L485.190625,99.74126633309368L486.9744140625,172.43824658574488L488.75820312499997,160.6746006118168L490.54199218749994,212.76592455547515L492.32578125,212.33714529419822L494.10957031249995,230.52611968842095L495.89335937500005,205.83253859237982L497.6771484375,211.3195593759785L499.46093750000006,200.42605817349965L501.24472656250003,211.45123941917544L503.028515625,253.61895217430185L504.8123046875,209.4161371584628L506.59609375,234.4033329603608L508.3798828125,217.185357720705L510.163671875,272.31205758515125L511.9474609375,251.9245794836468L513.7312499999999,115.97616816900874L515.5150390625,169.38437195624527L517.298828125,138.2570510149336L519.0826171875,170.61923524381734L520.86640625,175.52894022847428L522.6501953125,189.1867554830623L524.433984375,215.77404393238487L526.2177734375,211.31506341387436L528.0015625,231.49885231071482L529.7853515625001,218.69441369660956L531.569140625,253.1378447740571L533.3529296875,193.371129448968L535.13671875,85.7759146307457L536.9205078125,105.72732284155778L538.704296875,180.08576132349538L540.4880859374999,117.47501865322816L542.271875,178.1896100002255L544.0556640625,193.4598610852793L545.839453125,249.59126108018364L547.6232421875,188.6772482939233L549.40703125,214.0181183664602L551.1908203125,193.28659209302674L552.974609375,171.0101456206536L554.7583984375,166.4216829038558L556.5421875000001,105.1778701243937L558.3259765625,146.30457354176872L560.109765625,117.7940835034182L561.8935546875,153.36315035076916L563.67734375,165.94638447315674L565.4611328125,201.3287370941114L567.2449218749999,163.16501607543643L569.0287109375,142.75796703127878L570.8125,60.48875314967547L572.5962890625,106.17280434952201L574.380078125,205.10593537918328L576.1638671875,239.47559964914078L577.94765625,143.8045097604927L579.7314453125,176.63153302762117L581.515234375,96.05423777158965L583.2990234375001,72.49680715117387L585.0828125,172.00132802315665L586.8666015625,156.41427404396595L588.650390625,202.258930866199L590.4341796875,125.98645974652601L592.21796875,188.66016484175105L594.0017578124999,108.62173233553159L595.785546875,64.71786781623568L597.5693359375,127.56857841297749L599.353125,91.8126930301474L601.1369140625,156.84463924795918L602.920703125,223.60967899936742L604.7044921875,198.1255765532154L606.48828125,226.23331683723313L608.2720703125,213.47355343012921L610.0558593750001,195.24448371594508L611.8396484375,202.5655345479568L613.6234375,106.1259740567161L615.4072265625,124.60170328473764L617.191015625,205.39497926149204L618.9748046875,102.47879034467599L620.7585937499999,147.87621644847425L622.5423828125,115.81872188873791L624.326171875,153.32521026031796L626.1099609375,130.91560440478693L627.89375,166.45108526478987L629.6775390625,165.14865618664487L631.461328125,199.6948056085018L633.2451171875,115.84588879722996L635.02890625,6.013038649431896L636.8126953125001,109.85547743694315L638.596484375,124.56728655371869L640.3802734375,106.10140651627663L642.1640625,12.922946418311096L643.9478515625,1.1526293545875976L645.731640625,7.753496443624074L647.5154296874999,21.987447902795605L649.29921875,113.23975839927027L651.0830078125,164.6443032664908L652.866796875,165.28226086156687L654.6505859375,178.21159208212566L656.434375,216.79092257257864L658.2181640625,206.88234964034882L660.001953125,200.68240327252104L661.7857421875,201.85858604081363L663.5695312500001,199.17873232822362L665.3533203125,173.71598201549492L667.137109375,239.0854247424392L668.9208984375,235.35758857806863L670.7046875,248.0227587513943L672.4884765625,224.27643009977467L674.2722656249999,219.46204603288723L676.0560546875,203.0337147985348L677.83984375,280.6142427608043L679.6236328125,120.01256897954168L681.407421875,148.58681690042033L683.1912109375,161.38149287310128L684.975,136.48005739454553L686.7587890625,117.07315749886116L688.542578125,192.78945991374542L690.3263671875001,193.72794468985487L692.11015625,116.69229793421322L693.8939453125,183.28270645065248L695.677734375,183.85234929992643L697.4615234375,151.88741494342028L699.2453125,209.3971364088317L701.0291015624999,126.37489759847296L702.812890625,146.55353343441953L704.5966796875,125.33579113456535L706.38046875,122.54651023371767L708.1642578125,145.80872240915156L709.948046875,205.41792606862924L711.7318359375,205.71954159469928L713.515625,183.70949395019724L715.2994140625,92.69691638659764L717.0832031250001,172.37451513118347L718.8669921875,143.51464752856987L720.65078125,178.19043162169507L722.4345703125,108.12280065239943L724.218359375,145.02141484273355L726.0021484375,183.62618174942077L727.7859374999999,178.10036067242467L729.5697265625,214.3636552576724L731.353515625,210.74937553909447L733.1373046875,95.05652019802955L734.92109375,152.85544055357107L736.7048828125,134.75275779756626L738.488671875,106.63435655231912L740.2724609375,171.39193986294043L742.05625,142.60094541571962L743.8400390625001,60.02903667844789L745.623828125,-11.680892850414043L747.4076171875,91.1798849669367L749.19140625,118.99023917718357L750.9751953125,200.66984865309956L752.758984375,148.73630440975512L754.5427734374999,138.51417863813222L756.3265625,115.36097338466152L758.1103515625,153.14173928897569L759.894140625,169.88441128731358L761.6779296875,196.06714150429121L763.46171875,152.1319364376088L765.2455078125,168.15153048439163L767.029296875,139.4163032889565L768.8130859375,244.29299333811997L770.5968750000001,247.66670853567837L772.3806640625,213.05757078333326L774.164453125,191.49614906790035L775.9482421875,149.3141981153618L777.73203125,193.38270479374717L779.5158203125,188.98528674801344L781.2996093749999,155.0119395468245L783.0833984375,176.78386689505643L784.8671875,144.98713112641374" style="fill: none;" fill="none"></path></g></g></g></g><g opacity="0.2"><g><g><g><path stroke="rgb(255, 112, 67)" stroke-width="2px" d="M80.2705078125,525.8093793392181L82.054296875,318.5627636909485L83.8380859375,251.44562816619873L85.621875,513.5281057357788L87.4056640625,266.71571803092957L89.189453125,461.24943804740906L90.97324218749999,370.52854585647583L92.75703125,325.8417339324951L94.5408203125,303.1054458618164L96.32460937500001,429.2992510795593L98.1083984375,179.6830279827118L99.8921875,234.169691324234L101.6759765625,189.58894228935242L103.459765625,126.32548499107361L105.2435546875,260.56613779067993L107.02734375,465.35074615478516L108.81113281249999,264.1357831954956L110.59492187500001,414.4724681377411L112.3787109375,365.35878896713257L114.1625,474.6766402721405L115.94628906249999,168.73545026779175L117.730078125,173.5690417289734L119.5138671875,101.01213836669922L121.29765625,300.49890542030334L123.0814453125,180.3813352584839L124.86523437500001,380.2826464176178L126.6490234375,296.66904640197754L128.43281249999998,267.4881794452667L130.2166015625,203.0501205921173L132.000390625,344.3908748626709L133.7841796875,364.5554075241089L135.56796875,395.4874806404114L137.3517578125,368.43793845176697L139.13554687500002,365.9558870792389L140.9193359375,224.88379549980164L142.703125,-47.524263858795166L144.4869140625,56.19661283493042L146.270703125,45.61674976348877L148.0544921875,142.27060222625732L149.83828125,60.80926990509033L151.6220703125,324.82092356681824L153.405859375,368.25035095214844L155.18964843749998,370.11822628974915L156.9734375,378.8501682281494L158.7572265625,223.63584876060486L160.541015625,428.68885016441345L162.3248046875,367.2467083930969L164.10859375,353.2913489341736L165.89238281250002,63.587398529052734L167.676171875,6.829011917114258L169.4599609375,28.435640335083008L171.24375,243.401207447052L173.0275390625,278.2496078014374L174.811328125,342.8912534713745L176.5951171875,309.6630985736847L178.37890625,178.86283826828003L180.1626953125,64.34979295730591L181.94648437499998,270.1585373878479L183.7302734375,-65.3904676437378L185.5140625,82.01807260513306L187.2978515625,347.8676702976227L189.081640625,278.9472858905792L190.8654296875,260.5663175582886L192.64921875000002,257.4526526927948L194.4330078125,71.94335651397705L196.216796875,219.13437795639038L198.0005859375,29.852928161621094L199.784375,51.19781494140625L201.5681640625,211.66386532783508L203.351953125,274.06111240386963L205.1357421875,179.58829045295715L206.91953125,185.3769872188568L208.70332031249998,219.89245796203613L210.487109375,335.0376560688019L212.2708984375,263.81345987319946L214.0546875,137.09626126289368L215.8384765625,386.2825701236725L217.62226562499998,201.82662224769592L219.4060546875,-66.08023595809937L221.18984375000002,220.557687997818L222.97363281250003,249.59357237815857L224.757421875,220.30583357810974L226.5412109375,343.7791256904602L228.325,-78.70675325393677L230.1087890625,68.91750812530518L231.89257812499997,12.03022813796997L233.67636718749998,229.34104347229004L235.46015625,270.36518025398254L237.24394531250002,328.92744493484497L239.027734375,96.41512107849121L240.8115234375,400.86540842056274L242.5953125,180.96009707450867L244.37910156249998,241.13218069076538L246.162890625,168.54336857795715L247.94667968750002,-39.73960733413696L249.73046875000003,212.02142310142517L251.5142578125,23.65238380432129L253.298046875,-54.0352668762207L255.0818359375,253.3783996105194L256.86562499999997,235.75937628746033L258.6494140625,131.75770258903503L260.433203125,14.18060827255249L262.2169921875,143.81417679786682L264.00078125,153.58697319030762L265.7845703125,196.31782364845276L267.568359375,214.54598951339722L269.3521484375,137.87043046951294L271.1359375,115.16344451904297L272.9197265625,-49.28095293045044L274.703515625,156.50532054901123L276.4873046875,45.98617219924927L278.27109375000003,279.0762691497803L280.0548828125,2.9523234367370605L281.838671875,81.22979164123535L283.62246093749997,222.3183319568634L285.40625,13.147663593292236L287.1900390625,-40.250866413116455L288.973828125,256.0172083377838L290.7576171875,-43.52012014389038L292.54140625,115.9632306098938L294.3251953125,57.48123216629028L296.108984375,323.10225534439087L297.8927734375,96.99801754951477L299.6765625,165.79975533485413L301.4603515625,-91.80354261398315L303.244140625,-50.89850187301636L305.02792968750003,310.17507672309875L306.81171875,111.26015043258667L308.5955078125,232.0460066795349L310.37929687499997,15.959228992462158L312.1630859375,-48.637744426727295L313.946875,251.17265105247498L315.7306640625,180.39679527282715L317.514453125,131.86151838302612L319.2982421875,325.0969567298889L321.08203125,275.4370536804199L322.8658203125,234.06929111480713L324.649609375,272.4405074119568L326.4333984375,248.4347004890442L328.2171875,141.79277992248535L330.0009765625,330.2455909252167L331.78476562500003,350.8747329711914L333.5685546875,113.34967923164368L335.35234375,293.4381730556488L337.13613281249997,234.0400788784027L338.919921875,290.0418236255646L340.7037109375,224.5416977405548L342.4875,264.38637924194336L344.2712890625,266.4697959423065L346.055078125,42.42731285095215L347.8388671875,-13.723998546600342L349.62265625,-37.7743878364563L351.4064453125,145.40485048294067L353.190234375,286.7551324367523L354.9740234375,-19.847782135009766L356.7578125,214.4449601173401L358.54160156250003,292.73627042770386L360.325390625,189.6011664867401L362.1091796875,307.29555916786194L363.89296874999997,220.36237049102783L365.6767578125,-28.474290370941162L367.460546875,157.07113909721375L369.2443359375,-70.9078950881958L371.028125,310.1968286037445L372.8119140625,304.7895088195801L374.595703125,-109.43964385986328L376.3794921875,2.412301540374756L378.16328125,-48.35514974594116L379.9470703125,232.36230778694153L381.730859375,-25.023651123046875L383.5146484375,-4.951159477233887L385.29843750000003,259.78720474243164L387.0822265625,199.29567408561707L388.866015625,-49.27268362045288L390.64980468749997,18.461054801940918L392.43359375,-171.7519507408142L394.2173828125,-126.32539510726929L396.001171875,291.02380418777466L397.7849609375,319.3798973560333L399.56875,184.0436508655548L401.3525390625,-159.7929105758667L404.9201171875,-43.801456451416016L406.70390625,193.31723260879517L408.4876953125,64.91893720626831L410.271484375,114.86835598945618L412.05527343750003,209.23736214637756L413.8390625,170.91908740997314L415.6228515625,322.04962611198425L417.40664062499997,-178.90562295913696L419.1904296875,136.88125920295715L420.97421875,-63.30462408065796L422.7580078125,116.61965203285217L424.541796875,313.8382911682129L426.3255859375,262.6483860015869L428.109375,264.28660821914673L429.8931640625,85.86725664138794L431.676953125,69.73437213897705L433.4607421875,-45.7819561958313L435.24453124999997,187.0603311061859L437.02832031249994,165.87642621994019L438.812109375,107.27587103843689L440.59589843749995,286.0938572883606L442.37968750000005,116.97118759155273L444.1634765625,170.8572473526001L445.94726562500006,-25.868738651275635L447.73105468750003,142.01119756698608L449.51484375,199.23787879943848L451.2986328125,285.8769676685333L453.082421875,219.27666401863098L454.8662109375,136.20218706130981L456.65,263.26031494140625L458.4337890625,162.65472102165222L460.217578125,291.0049285888672L462.00136718749997,24.691800117492676L463.78515624999994,78.08655500411987L465.5689453125,163.09227538108826L467.35273437499995,286.33762216567993L469.13652343750005,168.42130637168884L470.9203125,121.61539387702942L472.70410156250006,228.25138211250305L474.48789062500003,212.55964732170105L476.2716796875,244.3178424835205L478.05546875,-27.242882251739502L479.8392578125,282.64897060394287L481.623046875,166.03848671913147L483.4068359375,212.32855606079102L485.190625,-37.36433792114258L486.9744140625,281.4837169647217L488.75820312499997,143.02913165092468L490.54199218749994,290.9029104709625L492.32578125,211.69397640228271L494.10957031249995,257.80958127975464L495.89335937500005,168.79216694831848L497.6771484375,219.55009055137634L499.46093750000006,184.0858063697815L501.24472656250003,227.9890112876892L503.028515625,316.8705213069916L504.8123046875,143.1119146347046L506.59609375,271.884126663208L508.3798828125,191.3583948612213L510.163671875,355.0021073818207L511.9474609375,221.34336233139038L513.7312499999999,-87.946448802948L515.5150390625,249.49667763710022L517.298828125,91.56606960296631L519.0826171875,219.16251158714294L520.86640625,182.8934977054596L522.6501953125,209.67347836494446L524.433984375,255.65497660636902L526.2177734375,204.6265926361084L528.0015625,261.77453565597534L529.7853515625001,199.48775577545166L531.569140625,304.80299139022827L533.3529296875,103.72105646133423L535.13671875,-75.61690759658813L536.9205078125,135.65443515777588L538.704296875,291.623419046402L540.4880859374999,23.55890464782715L542.271875,269.26149702072144L544.0556640625,216.3652377128601L545.839453125,333.7883610725403L547.6232421875,97.30622911453247L549.40703125,252.0294234752655L551.1908203125,162.1893026828766L552.974609375,137.59547591209412L554.7583984375,159.53898882865906L556.5421875000001,13.312150955200195L558.3259765625,207.99462866783142L560.109765625,75.02834844589233L561.8935546875,206.71675062179565L563.67734375,184.82123565673828L565.4611328125,254.4022660255432L567.2449218749999,105.91943454742432L569.0287109375,112.14739346504211L570.8125,-62.91506767272949L572.5962890625,174.698881149292L574.380078125,353.50563192367554L576.1638671875,291.03009605407715L577.94765625,0.29787492752075195L579.7314453125,225.8720679283142L581.515234375,-24.811705112457275L583.2990234375001,37.16066122055054L585.0828125,321.258109331131L586.8666015625,133.03369307518005L588.650390625,271.02591609954834L590.4341796875,11.577753067016602L592.21796875,282.6707224845886L594.0017578124999,-11.435916423797607L595.785546875,-1.1379289627075195L597.5693359375,221.8446443080902L599.353125,38.1788649559021L601.1369140625,254.3925585746765L602.920703125,323.7572386264801L604.7044921875,159.89942288398743L606.48828125,268.3949272632599L608.2720703125,194.33390831947327L610.0558593750001,167.90087914466858L611.8396484375,213.54711079597473L613.6234375,-38.533366680145264L615.4072265625,152.31529712677002L617.191015625,326.58489322662354L618.9748046875,-51.895493030548096L620.7585937499999,215.97235560417175L622.5423828125,67.7324800491333L624.326171875,209.584942817688L626.1099609375,97.30119562149048L627.89375,219.7543065547943L629.6775390625,163.1950125694275L631.461328125,251.51402974128723L633.2451171875,-9.927486419677734L635.02890625,-158.73623657226562L636.8126953125001,265.61913561820984L638.596484375,146.63500022888184L640.3802734375,78.40258646011353L642.1640625,-126.8447437286377L643.9478515625,-16.502846240997314L645.731640625,17.654797077178955L647.5154296874999,43.338375091552734L649.29921875,250.11822414398193L651.0830078125,241.75112056732178L652.866796875,166.2391972541809L654.6505859375,197.60558891296387L656.434375,274.65991830825806L658.2181640625,192.0194902420044L660.001953125,191.38248372077942L661.7857421875,203.62286019325256L663.5695312500001,195.15895175933838L665.3533203125,135.52185654640198L667.137109375,337.1395888328552L668.9208984375,229.76583433151245L670.7046875,267.02051401138306L672.4884765625,188.65693712234497L674.2722656249999,212.24046993255615L676.0560546875,178.39121794700623L677.83984375,396.9850347042084L679.6236328125,-120.8899416923523L681.407421875,191.44818878173828L683.1912109375,180.5735068321228L684.975,99.12790417671204L686.7587890625,87.96280765533447L688.542578125,306.3639135360718L690.3263671875001,195.13567185401917L692.11015625,1.1388278007507324L693.8939453125,283.1683192253113L695.677734375,184.70681357383728L697.4615234375,103.94001340866089L699.2453125,295.66171860694885L701.0291015624999,1.8415393829345703L702.812890625,176.82148718833923L704.5966796875,93.50917768478394L706.38046875,118.36258888244629L708.1642578125,180.70204067230225L709.948046875,294.83173155784607L711.7318359375,206.17196488380432L713.515625,150.6944224834442L715.2994140625,-43.82194995880127L717.0832031250001,291.89091324806213L718.8669921875,100.22484612464905L720.65078125,230.20410776138306L722.4345703125,3.0213541984558105L724.218359375,200.36933612823486L726.0021484375,241.5333321094513L727.7859374999999,169.81162905693054L729.5697265625,268.7585971355438L731.353515625,205.32795596122742L733.1373046875,-78.48276281356812L734.92109375,239.55382108688354L736.7048828125,107.59873366355896L738.488671875,64.45675468444824L740.2724609375,268.5283148288727L742.05625,99.4144537448883L743.8400390625001,-63.82882642745972L745.623828125,-119.24578714370728L747.4076171875,245.47105169296265L749.19140625,160.7057704925537L750.9751953125,323.1892628669739L752.758984375,70.83598804473877L754.5427734374999,123.18098998069763L756.3265625,80.63116550445557L758.1103515625,209.81288814544678L759.894140625,194.99841928482056L761.6779296875,235.3412368297577L763.46171875,86.22912883758545L765.2455078125,192.18092155456543L767.029296875,96.31346249580383L768.8130859375,401.60802841186523L770.5968750000001,252.727281332016L772.3806640625,161.14386415481567L774.164453125,159.15401649475098L775.9482421875,86.04127168655396L777.73203125,259.4854648113251L779.5158203125,182.38915967941284L781.2996093749999,104.0519187450409L783.0833984375,209.44175791740417L784.8671875,97.2920274734497" style="fill: none;" fill="none"></path></g></g></g></g></g><g><g opacity="0.197829"><span fill="rgb(0, 0, 0)" stroke="none" stroke-width="1px">Alt + Scroll to Zoom</span></g></g></g><g transform="translate(30, 377)" clip-path="url(#clip_1)"><clipPath id="clip_1"><rect width="856" height="23"></rect></clipPath><g><g><line x1="0" y1="0" x2="0" y2="5" style="visibility: inherit;" fill="rgb(0, 0, 0)" stroke="rgb(204, 204, 204)" stroke-width="1px"></line><line x1="71.3515625" y1="0" x2="71.3515625" y2="5" style="visibility: inherit;" fill="rgb(0, 0, 0)" stroke="rgb(204, 204, 204)" stroke-width="1px"></line><line x1="142.703125" y1="0" x2="142.703125" y2="5" style="visibility: inherit;" fill="rgb(0, 0, 0)" stroke="rgb(204, 204, 204)" stroke-width="1px"></line><line x1="214.0546875" y1="0" x2="214.0546875" y2="5" style="visibility: inherit;" fill="rgb(0, 0, 0)" stroke="rgb(204, 204, 204)" stroke-width="1px"></line><line x1="285.40625" y1="0" x2="285.40625" y2="5" style="visibility: inherit;" fill="rgb(0, 0, 0)" stroke="rgb(204, 204, 204)" stroke-width="1px"></line><line x1="356.7578125" y1="0" x2="356.7578125" y2="5" style="visibility: inherit;" fill="rgb(0, 0, 0)" stroke="rgb(204, 204, 204)" stroke-width="1px"></line><line x1="428.109375" y1="0" x2="428.109375" y2="5" style="visibility: inherit;" fill="rgb(0, 0, 0)" stroke="rgb(204, 204, 204)" stroke-width="1px"></line><line x1="499.46093750000006" y1="0" x2="499.46093750000006" y2="5" style="visibility: inherit;" fill="rgb(0, 0, 0)" stroke="rgb(204, 204, 204)" stroke-width="1px"></line><line x1="570.8125" y1="0" x2="570.8125" y2="5" style="visibility: inherit;" fill="rgb(0, 0, 0)" stroke="rgb(204, 204, 204)" stroke-width="1px"></line><line x1="642.1640625" y1="0" x2="642.1640625" y2="5" style="visibility: inherit;" fill="rgb(0, 0, 0)" stroke="rgb(204, 204, 204)" stroke-width="1px"></line><line x1="713.515625" y1="0" x2="713.515625" y2="5" style="visibility: inherit;" fill="rgb(0, 0, 0)" stroke="rgb(204, 204, 204)" stroke-width="1px"></line><line x1="784.8671875" y1="0" x2="784.8671875" y2="5" style="visibility: inherit;" fill="rgb(0, 0, 0)" stroke="rgb(204, 204, 204)" stroke-width="1px"></line><line x1="856.21875" y1="0" x2="856.21875" y2="5" style="visibility: inherit;" fill="rgb(0, 0, 0)" stroke="rgb(204, 204, 204)" stroke-width="1px"></line></g><g transform="translate(0, 8)"><text x="0" y="0" dx="0em" dy="0.95em" style="text-anchor: middle; visibility: hidden; font-family: Roboto, sans-serif; font-size: 12px; font-weight: 200;" fill="rgb(33, 33, 33)" stroke="none" stroke-width="1px">-20k</text><text x="71.3515625" y="0" dx="0em" dy="0.95em" style="text-anchor: middle; visibility: inherit; font-family: Roboto, sans-serif; font-size: 12px; font-weight: 200;" fill="rgb(33, 33, 33)" stroke="none" stroke-width="1px">0</text><text x="142.703125" y="0" dx="0em" dy="0.95em" style="text-anchor: middle; visibility: inherit; font-family: Roboto, sans-serif; font-size: 12px; font-weight: 200;" fill="rgb(33, 33, 33)" stroke="none" stroke-width="1px">20k</text><text x="214.0546875" y="0" dx="0em" dy="0.95em" style="text-anchor: middle; visibility: inherit; font-family: Roboto, sans-serif; font-size: 12px; font-weight: 200;" fill="rgb(33, 33, 33)" stroke="none" stroke-width="1px">40k</text><text x="285.40625" y="0" dx="0em" dy="0.95em" style="text-anchor: middle; visibility: inherit; font-family: Roboto, sans-serif; font-size: 12px; font-weight: 200;" fill="rgb(33, 33, 33)" stroke="none" stroke-width="1px">60k</text><text x="356.7578125" y="0" dx="0em" dy="0.95em" style="text-anchor: middle; visibility: inherit; font-family: Roboto, sans-serif; font-size: 12px; font-weight: 200;" fill="rgb(33, 33, 33)" stroke="none" stroke-width="1px">80k</text><text x="428.109375" y="0" dx="0em" dy="0.95em" style="text-anchor: middle; visibility: inherit; font-family: Roboto, sans-serif; font-size: 12px; font-weight: 200;" fill="rgb(33, 33, 33)" stroke="none" stroke-width="1px">100k</text><text x="499.46093750000006" y="0" dx="0em" dy="0.95em" style="text-anchor: middle; visibility: inherit; font-family: Roboto, sans-serif; font-size: 12px; font-weight: 200;" fill="rgb(33, 33, 33)" stroke="none" stroke-width="1px">120k</text><text x="570.8125" y="0" dx="0em" dy="0.95em" style="text-anchor: middle; visibility: inherit; font-family: Roboto, sans-serif; font-size: 12px; font-weight: 200;" fill="rgb(33, 33, 33)" stroke="none" stroke-width="1px">140k</text><text x="642.1640625" y="0" dx="0em" dy="0.95em" style="text-anchor: middle; visibility: inherit; font-family: Roboto, sans-serif; font-size: 12px; font-weight: 200;" fill="rgb(33, 33, 33)" stroke="none" stroke-width="1px">160k</text><text x="713.515625" y="0" dx="0em" dy="0.95em" style="text-anchor: middle; visibility: inherit; font-family: Roboto, sans-serif; font-size: 12px; font-weight: 200;" fill="rgb(33, 33, 33)" stroke="none" stroke-width="1px">180k</text><text x="784.8671875" y="0" dx="0em" dy="0.95em" style="text-anchor: middle; visibility: inherit; font-family: Roboto, sans-serif; font-size: 12px; font-weight: 200;" fill="rgb(33, 33, 33)" stroke="none" stroke-width="1px">200k</text><text x="856.21875" y="0" dx="0em" dy="0.95em" style="text-anchor: middle; visibility: hidden; font-family: Roboto, sans-serif; font-size: 12px; font-weight: 200;" fill="rgb(33, 33, 33)" stroke="none" stroke-width="1px">220k</text></g><line x1="0" y1="0" x2="856.21875" y2="0" fill="rgb(0, 0, 0)" stroke="rgb(204, 204, 204)" stroke-width="1px"></line></g></g></g></g></svg>