<svg viewBox="0 0 1112.5999755859375 400" xmlns="http://www.w3.org/2000/svg"><g><g><g><g><g><line x1="72.34375" y1="356.43921624835605" x2="67.34375" y2="356.43921624835605" style="visibility: inherit;" fill="rgb(0, 0, 0)" stroke="rgb(204, 204, 204)" stroke-width="1px"></line><line x1="72.34375" y1="321.8760812701267" x2="67.34375" y2="321.8760812701267" style="visibility: inherit;" fill="rgb(0, 0, 0)" stroke="rgb(204, 204, 204)" stroke-width="1px"></line><line x1="72.34375" y1="287.3129462918973" x2="67.34375" y2="287.3129462918973" style="visibility: inherit;" fill="rgb(0, 0, 0)" stroke="rgb(204, 204, 204)" stroke-width="1px"></line><line x1="72.34375" y1="252.74981131366798" x2="67.34375" y2="252.74981131366798" style="visibility: inherit;" fill="rgb(0, 0, 0)" stroke="rgb(204, 204, 204)" stroke-width="1px"></line><line x1="72.34375" y1="218.1866763354386" x2="67.34375" y2="218.1866763354386" style="visibility: inherit;" fill="rgb(0, 0, 0)" stroke="rgb(204, 204, 204)" stroke-width="1px"></line><line x1="72.34375" y1="183.62354135720926" x2="67.34375" y2="183.62354135720926" style="visibility: inherit;" fill="rgb(0, 0, 0)" stroke="rgb(204, 204, 204)" stroke-width="1px"></line><line x1="72.34375" y1="149.06040637897988" x2="67.34375" y2="149.06040637897988" style="visibility: inherit;" fill="rgb(0, 0, 0)" stroke="rgb(204, 204, 204)" stroke-width="1px"></line><line x1="72.34375" y1="114.49727140075049" x2="67.34375" y2="114.49727140075049" style="visibility: inherit;" fill="rgb(0, 0, 0)" stroke="rgb(204, 204, 204)" stroke-width="1px"></line><line x1="72.34375" y1="79.93413642252112" x2="67.34375" y2="79.93413642252112" style="visibility: inherit;" fill="rgb(0, 0, 0)" stroke="rgb(204, 204, 204)" stroke-width="1px"></line><line x1="72.34375" y1="45.37100144429183" x2="67.34375" y2="45.37100144429183" style="visibility: inherit;" fill="rgb(0, 0, 0)" stroke="rgb(204, 204, 204)" stroke-width="1px"></line><line x1="72.34375" y1="10.807866466062448" x2="67.34375" y2="10.807866466062448" style="visibility: inherit;" fill="rgb(0, 0, 0)" stroke="rgb(204, 204, 204)" stroke-width="1px"></line></g><g transform="translate(62.34375, 0)"><text x="0" y="356.43921624835605" dx="0em" dy="0.3em" style="text-anchor: end; visibility: inherit; font-family: Roboto, sans-serif; font-size: 12px; font-weight: 200;" fill="rgb(50, 49, 63)" stroke="none" stroke-width="1px">0</text><text x="0" y="321.8760812701267" dx="0em" dy="0.3em" style="text-anchor: end; visibility: inherit; font-family: Roboto, sans-serif; font-size: 12px; font-weight: 200;" fill="rgb(50, 49, 63)" stroke="none" stroke-width="1px">2e-4</text><text x="0" y="287.3129462918973" dx="0em" dy="0.3em" style="text-anchor: end; visibility: inherit; font-family: Roboto, sans-serif; font-size: 12px; font-weight: 200;" fill="rgb(50, 49, 63)" stroke="none" stroke-width="1px">4e-4</text><text x="0" y="252.74981131366798" dx="0em" dy="0.3em" style="text-anchor: end; visibility: inherit; font-family: Roboto, sans-serif; font-size: 12px; font-weight: 200;" fill="rgb(50, 49, 63)" stroke="none" stroke-width="1px">6e-4</text><text x="0" y="218.1866763354386" dx="0em" dy="0.3em" style="text-anchor: end; visibility: inherit; font-family: Roboto, sans-serif; font-size: 12px; font-weight: 200;" fill="rgb(50, 49, 63)" stroke="none" stroke-width="1px">8e-4</text><text x="0" y="183.62354135720926" dx="0em" dy="0.3em" style="text-anchor: end; visibility: inherit; font-family: Roboto, sans-serif; font-size: 12px; font-weight: 200;" fill="rgb(50, 49, 63)" stroke="none" stroke-width="1px">1e-3</text><text x="0" y="149.06040637897988" dx="0em" dy="0.3em" style="text-anchor: end; visibility: inherit; font-family: Roboto, sans-serif; font-size: 12px; font-weight: 200;" fill="rgb(50, 49, 63)" stroke="none" stroke-width="1px">1.2e-3</text><text x="0" y="114.49727140075049" dx="0em" dy="0.3em" style="text-anchor: end; visibility: inherit; font-family: Roboto, sans-serif; font-size: 12px; font-weight: 200;" fill="rgb(50, 49, 63)" stroke="none" stroke-width="1px">1.4e-3</text><text x="0" y="79.93413642252112" dx="0em" dy="0.3em" style="text-anchor: end; visibility: inherit; font-family: Roboto, sans-serif; font-size: 12px; font-weight: 200;" fill="rgb(50, 49, 63)" stroke="none" stroke-width="1px">1.6e-3</text><text x="0" y="45.37100144429183" dx="0em" dy="0.3em" style="text-anchor: end; visibility: inherit; font-family: Roboto, sans-serif; font-size: 12px; font-weight: 200;" fill="rgb(50, 49, 63)" stroke="none" stroke-width="1px">1.8e-3</text><text x="0" y="10.807866466062448" dx="0em" dy="0.3em" style="text-anchor: end; visibility: inherit; font-family: Roboto, sans-serif; font-size: 12px; font-weight: 200;" fill="rgb(50, 49, 63)" stroke="none" stroke-width="1px">2e-3</text></g><line x1="72.34375" y1="0" x2="72.34375" y2="378" fill="rgb(0, 0, 0)" stroke="rgb(204, 204, 204)" stroke-width="1px"></line></g></g><g transform="translate(72, 0)" clip-path="url(#clip_0)"><clipPath id="clip_0"><rect width="1040" height="378"></rect></clipPath><g><g><g><line x1="46.31759778383719" y1="0" x2="46.31759778383719" y2="378" fill="rgb(0, 0, 0)" stroke="rgb(60, 60, 60)" stroke-width="1px" opacity="0.25"></line><line x1="141.84488112282577" y1="0" x2="141.84488112282577" y2="378" fill="rgb(0, 0, 0)" stroke="rgb(60, 60, 60)" stroke-width="1px" opacity="0.25"></line><line x1="237.37216446181435" y1="0" x2="237.37216446181435" y2="378" fill="rgb(0, 0, 0)" stroke="rgb(60, 60, 60)" stroke-width="1px" opacity="0.25"></line><line x1="332.89944780080293" y1="0" x2="332.89944780080293" y2="378" fill="rgb(0, 0, 0)" stroke="rgb(60, 60, 60)" stroke-width="1px" opacity="0.25"></line><line x1="428.42673113979157" y1="0" x2="428.42673113979157" y2="378" fill="rgb(0, 0, 0)" stroke="rgb(60, 60, 60)" stroke-width="1px" opacity="0.25"></line><line x1="523.9540144787801" y1="0" x2="523.9540144787801" y2="378" fill="rgb(0, 0, 0)" stroke="rgb(60, 60, 60)" stroke-width="1px" opacity="0.25"></line><line x1="619.4812978177688" y1="0" x2="619.4812978177688" y2="378" fill="rgb(0, 0, 0)" stroke="rgb(60, 60, 60)" stroke-width="1px" opacity="0.25"></line><line x1="715.0085811567574" y1="0" x2="715.0085811567574" y2="378" fill="rgb(0, 0, 0)" stroke="rgb(60, 60, 60)" stroke-width="1px" opacity="0.25"></line><line x1="810.535864495746" y1="0" x2="810.535864495746" y2="378" fill="rgb(0, 0, 0)" stroke="rgb(60, 60, 60)" stroke-width="1px" opacity="0.25"></line><line x1="906.0631478347344" y1="0" x2="906.0631478347344" y2="378" fill="rgb(0, 0, 0)" stroke="rgb(60, 60, 60)" stroke-width="1px" opacity="0.25"></line><line x1="1001.590431173723" y1="0" x2="1001.590431173723" y2="378" fill="rgb(0, 0, 0)" stroke="rgb(60, 60, 60)" stroke-width="1px" opacity="0.25"></line></g><g><line x1="0" y1="356.43921624835605" x2="1040.25625" y2="356.43921624835605" fill="rgb(0, 0, 0)" stroke="rgb(60, 60, 60)" stroke-width="1px" opacity="0.25"></line><line x1="0" y1="321.8760812701267" x2="1040.25625" y2="321.8760812701267" fill="rgb(0, 0, 0)" stroke="rgb(60, 60, 60)" stroke-width="1px" opacity="0.25"></line><line x1="0" y1="287.3129462918973" x2="1040.25625" y2="287.3129462918973" fill="rgb(0, 0, 0)" stroke="rgb(60, 60, 60)" stroke-width="1px" opacity="0.25"></line><line x1="0" y1="252.74981131366798" x2="1040.25625" y2="252.74981131366798" fill="rgb(0, 0, 0)" stroke="rgb(60, 60, 60)" stroke-width="1px" opacity="0.25"></line><line x1="0" y1="218.1866763354386" x2="1040.25625" y2="218.1866763354386" fill="rgb(0, 0, 0)" stroke="rgb(60, 60, 60)" stroke-width="1px" opacity="0.25"></line><line x1="0" y1="183.62354135720926" x2="1040.25625" y2="183.62354135720926" fill="rgb(0, 0, 0)" stroke="rgb(60, 60, 60)" stroke-width="1px" opacity="0.25"></line><line x1="0" y1="149.06040637897988" x2="1040.25625" y2="149.06040637897988" fill="rgb(0, 0, 0)" stroke="rgb(60, 60, 60)" stroke-width="1px" opacity="0.25"></line><line x1="0" y1="114.49727140075049" x2="1040.25625" y2="114.49727140075049" fill="rgb(0, 0, 0)" stroke="rgb(60, 60, 60)" stroke-width="1px" opacity="0.25"></line><line x1="0" y1="79.93413642252112" x2="1040.25625" y2="79.93413642252112" fill="rgb(0, 0, 0)" stroke="rgb(60, 60, 60)" stroke-width="1px" opacity="0.25"></line><line x1="0" y1="45.37100144429183" x2="1040.25625" y2="45.37100144429183" fill="rgb(0, 0, 0)" stroke="rgb(60, 60, 60)" stroke-width="1px" opacity="0.25"></line><line x1="0" y1="10.807866466062448" x2="1040.25625" y2="10.807866466062448" fill="rgb(0, 0, 0)" stroke="rgb(60, 60, 60)" stroke-width="1px" opacity="0.25"></line></g></g></g><g><g><line x1="0" y1="356.43921624835605" x2="1040.25625" y2="356.43921624835605" fill="rgb(0, 0, 0)" stroke="rgb(153, 153, 153)" stroke-width="1.5px"></line></g></g><g><g><line x1="46.31759778383719" y1="0" x2="46.31759778383719" y2="378" fill="rgb(0, 0, 0)" stroke="rgb(153, 153, 153)" stroke-width="1.5px"></line></g></g><g><g><g><g><g><path stroke="rgb(255, 112, 67)" stroke-width="2px" d="M65.42305445163491,-110.4851661371084L67.81123653510963,6.857777476088537L70.19941861858435,17.32943512367607L72.58760070205905,45.903691596530535L74.97578278553377,35.606013613848425L77.36396486900848,90.20899307533395L79.7521469524832,65.57937901602982L82.14032903595792,147.18605930327976L84.52851111943262,188.06388993299635L86.91669320290734,217.05642542116425L89.30487528638206,243.01798151518616L91.69305736985676,234.17166337638733L94.08123945333149,155.68244137237738L96.46942153680621,189.53587026357022L98.85760362028091,167.15891329711928L101.24578570375563,187.4961691120024L103.63396778723033,131.59957316157346L106.02214987070506,189.38921885876735L108.41033195417978,222.58588752924072L110.79851403765448,254.32260895438122L113.1866961211292,232.82575393090323L115.57487820460392,259.07922319567365L117.96306028807862,237.6259969270652L120.35124237155335,246.7822317620038L122.73942445502807,244.55252902924877L125.12760653850277,246.23271587365247L127.51578862197749,216.7502408861193L129.9039707054522,197.85570473701196L132.29215278892693,200.3445718711066L134.68033487240163,192.63631480559704L137.06851695587636,208.94602864669557L139.45669903935107,224.1612396842534L141.84488112282577,247.10467252365794L144.2330632063005,271.1748919828916L146.6212452897752,289.7159268150976L149.0094273732499,296.4638296665626L151.39760945672464,306.9268007365872L153.78579154019934,284.98067072490255L156.17397362367407,256.51807743371245L158.56215570714878,258.1013001261385L160.9503377906235,247.20445801608196L163.3385198740982,271.03019542926023L165.7267019575729,253.6907111419265L168.11488404104765,231.6041574345309L170.50306612452235,243.1539701409486L172.89124820799705,268.9590160085187L175.27943029147178,292.4708261869334L177.6676123749465,305.46098340787734L180.0557944584212,289.50911687163L182.44397654189592,270.9096229118705L184.83215862537065,272.6438464796925L187.22034070884536,275.9152528231423L189.6085227923201,290.70591759462707L191.9967048757948,304.7815827904041L194.3848869592695,294.1622319577716L196.77306904274423,313.3303663599505L199.16125112621893,318.46523438719817L201.54943320969363,285.33024335718L203.93761529316834,291.2208410128097L206.32579737664307,276.40384986275825L208.71397946011777,269.87363917060924L211.1021615435925,293.95560527325176L213.49034362706723,295.1770324585595L215.87852571054194,310.0241169648285L218.26670779401664,318.0048675299021L220.65488987749137,298.94900421517025L223.04307196096607,297.4934403387003L225.43125404444078,293.9347553255381L227.8194361279155,294.68548747195456L230.2076182113902,293.7465626510611L232.59580029486492,287.5430868609815L234.98398237833965,290.95442203208495L237.37216446181435,301.68571952682663L239.76034654528908,283.4750674299918L242.1485286287638,283.72030681371757L244.53671071223852,304.38828614530024L246.92489279571322,301.6289808605774L249.31307487918792,293.67776323601004L251.70125696266265,301.3888313601209L254.08943904613736,274.4736916446388L256.4776211296121,301.22972922023126L258.8658032130868,308.0917189850132L261.2539852965615,317.2900733800054L263.64216738003626,311.70377263799213L266.0303494635109,310.64940597843406L268.41853154698566,298.99877536163063L270.80671363046037,293.84823806024383L273.19489571393507,283.7349007481237L275.58307779740977,279.11083360900494L277.97125988088453,287.38610449752144L280.3594419643592,288.3613331283809L282.74762404783394,306.63711997257246L285.1358061313087,301.42518351157526L287.52398821478334,315.7787429173002L289.9121702982581,325.6688124264819L292.3003523817328,301.8052833412999L294.6885344652075,302.4445025974044L297.0767165486822,311.9378564948283L299.464898632157,315.09888198127067L301.8530807156316,311.2832821163942L304.2412627991064,308.37917051613846L306.6294448825811,313.416484105287L309.0176269660558,315.43382778838634L311.40580904953055,315.66178952396905L313.79399113300525,316.64151413030874L316.18217321648,322.88135875565024L318.57035529995466,325.622623196519L320.9585373834294,327.2116438548706L323.3467194669041,305.4928310845885L325.7349015503788,312.2500404684028L328.1230836338535,322.0487103281107L330.5112657173283,318.548381725617L332.89944780080293,325.57611748472874L335.2876298842777,329.36755671662746L337.67581196775245,323.42608187280786L340.0639940512271,329.403214687047L342.45217613470186,325.9019165053025L344.84035821817656,327.5121702245376L347.22854030165126,311.10053391075814L349.61672238512597,312.6572283023648L352.0049044686007,319.2168333141155L354.3930865520754,328.56528382212156L356.78126863555013,332.0357675049487L359.16945071902484,320.42866206766837L361.55763280249954,326.7138660684248L363.9458148859743,320.5837991005057L366.333996969449,328.15091876511786L368.7221790529237,335.74400044295896L371.1103611363984,327.2645251216214L373.49854321987317,322.60079078837924L375.8867253033478,326.33733398457497L378.2749073868226,301.1237732727969L380.6630894702973,302.71824781201354L383.051271553772,311.0515010535934L385.4394536372467,307.4362312729639L387.8276357207214,296.8684734751943L390.2158178041961,292.16543380840915L392.60399988767085,286.08104451260647L394.99218197114556,261.0773749140127L397.38036405462026,277.16189783874074L399.768546138095,264.9256817220672L402.15672822156967,283.4220396362944L404.5449103050444,293.69856125151034L406.9330923885191,304.009887083107L409.32127447199383,287.7720041761708L411.70945655546853,283.18612941365217L414.0976386389433,303.9911668551276L416.48582072241794,314.9117989891934L418.8740028058927,323.066732959058L421.26218488936746,316.74175518942224L423.6503669728421,290.41928513653556L426.03854905631687,308.62002277087004L428.42673113979157,299.0371889830183L430.8149132232663,304.7999732036875L433.203095306741,308.2000447786215L435.59127739021574,285.983748387346L437.9794594736904,299.1594375208452L440.36764155716514,316.03486107961805L442.75582364063985,319.52416356771215L445.14400572411455,327.48849667021346L447.5321878075893,316.2689061245019L449.920369891064,305.06949459603277L452.3085519745387,301.39606199455363L454.6967340580134,317.60077610454886L457.0849161414882,327.91667616925605L459.4730982249628,317.9037506857823L461.8612803084376,324.14732282070776L464.2494623919123,330.7660008503958L466.637644475387,318.4371095993881L469.0258265588617,314.02620132582416L471.41400864233646,324.57051975364203L473.8021907258111,327.98445143681926L476.19037280928586,336.01752017537336L478.57855489276056,339.8937509741365L480.96673697623527,321.25368369905755L483.35491905971,306.52927301669627L485.7431011431847,310.59136413181153L488.13128322665943,326.06128699816503L490.51946531013414,332.2393286133046L492.90764739360884,334.21630932123054L495.29582947708354,323.4076446170069L497.6840115605583,323.5034093485498L500.07219364403295,323.58994831778335L502.4603757275077,321.4244053873489L504.84855781098247,324.2004372314276L507.2367398944571,311.75299500955026L509.6249219779319,326.6346847787162L512.0131040614066,325.67176750454956L514.4012861448813,328.16020901931427L516.789468228356,311.8991084858221L519.1776503118307,310.77072974573673L521.5658323953054,279.12322591281986L523.9540144787801,291.4187835725782L526.3421965622549,301.7654299290514L528.7303786457295,309.371423707138L531.1185607292042,323.346909920579L533.506742812679,324.1689314312776L535.8949248961537,325.87493535178237L538.2831069796284,328.07679549760036L540.6712890631031,316.35898631628766L543.0594711465778,319.9496853695784L545.4476532300525,317.58905067983386L547.8358353135274,326.6032691980501L550.224017397002,327.7762122850964L552.6121994804766,315.8551648282733L555.0003815639515,311.5871979668967L557.3885636474262,305.92848317126294L559.7767457309009,306.94185194216834L562.1649278143756,301.23778391782633L564.5531098978503,312.12390490978214L566.941291981325,293.8140293407231L569.3294740647998,309.3044415471829L571.7176561482744,321.6591128072197L574.1058382317491,315.50500119221215L576.4940203152239,299.0520796947751L578.8822023986986,308.1781237423931L581.2703844821732,313.6139207835918L583.658566565648,300.1313659777901L586.0467486491227,309.99103528595134L588.4349307325974,293.05297581744753L590.8231128160722,312.01233548794L593.2112948995468,314.67532485892957L595.5994769830215,312.2977513012967L597.9876590664963,314.3839177122272L600.375841149971,322.63938421813594L602.7640232334456,319.75194517827856L605.1522053169205,325.95577312090666L607.5403874003952,312.14973541076495L609.9285694838699,315.7189421342857L612.3167515673446,315.3141556792187L614.7049336508193,318.3450401576876L617.093115734294,314.79404131920944L619.4812978177688,321.06377416277934L621.8694799012435,321.9997311573863L624.2576619847181,304.2447433289556L626.6458440681929,308.9300341289771L629.0340261516676,306.2575253130615L631.4222082351423,306.25807554501097L633.810390318617,280.4184088645096L636.1985724020917,297.73914116392643L638.5867544855664,315.18206764265904L640.9749365690412,306.85633214765795L643.3631186525159,312.12587104976944L645.7513007359905,304.48985099517944L648.1394828194653,302.6402904976835L650.52766490294,307.6845430993235L652.9158469864147,307.63507293451175L655.3040290698895,312.0848736277249L657.6922111533642,310.84457950810867L660.0803932368389,296.1371925479545L662.4685753203137,291.07625372019004L664.8567574037883,296.7861172629641L667.244939487263,317.15024007756716L669.6331215707378,308.40894705043354L672.0213036542125,314.6748088591104L674.4094857376872,318.5659052602707L676.7976678211619,312.7086021740903L679.1858499046366,319.1863035817401L681.5740319881113,294.030449713536L683.9622140715861,296.0355933024527L686.3503961550607,294.9738091817139L688.7385782385354,299.547416426126L691.1267603220102,308.8515216127023L693.5149424054849,314.07408277916164L695.9031244889595,321.7109164122322L698.2913065724342,315.72125706263233L700.679488655909,315.9744913960815L703.0676707393837,319.1131843911487L705.4558528228584,316.74686156804927L707.8440349063331,309.35932901545857L710.2322169898079,311.3991850208723L712.6203990732826,313.7897189335466L715.0085811567574,321.8488921141886L717.396763240232,324.1358272438463L719.7849453237067,304.11223089424783L722.1731274071815,272.35637544292734L724.5613094906562,295.8941970106107L726.9494915741308,300.63718842656675L729.3376736576056,316.4255530133796L731.7258557410803,319.5523531347394L734.114037824555,302.24732551719944L736.5022199080298,300.64395326381515L738.8904019915044,302.3571952726285L741.2785840749791,313.98646499092365L743.6667661584539,296.4867533357448L746.0549482419286,313.86666560757965L748.4431303254032,324.496696689873L750.831312408878,305.32735109932565L753.2194944923527,314.8061479078261L755.6076765758274,320.4472361757941L757.9958586593023,317.1163466142354L760.3840407427768,307.11794940258386L762.7722228262516,303.68547676225L765.1604049097264,302.04701681151454L767.5485869932011,302.67054737472955L769.9367690766757,305.41418381670303L772.3249511601505,320.7647610992842L774.7131332436252,327.36718641473954L777.1013153270999,289.34778530031934L779.4894974105746,298.86168347021845L781.8776794940493,309.98355585151444L784.265861577524,321.01430396365015L786.6540436609988,309.1414364137528L789.0422257444735,316.78017578295646L791.4304078279481,313.9648966907123L793.8185899114229,320.3578598344022L796.2067719948976,301.1791795879699L798.5949540783723,313.94072583630214L800.983136161847,326.9987244750002L803.3713182453217,324.70448469401526L805.7595003287964,325.912010519397L808.1476824122713,330.09695539674215L810.535864495746,337.48363987150736L812.9240465792205,338.8850953914959L815.3122286626954,340.35657669579626L817.7004107461701,334.19983225199866L820.0885928296448,329.378046081464L822.4767749131195,316.47612545747086L824.8649569965942,320.5879563383827L827.2531390800689,318.26819522824496L829.6413211635437,317.1869876652723L832.0295032470183,314.5350063927712L834.417685330493,315.33751099955356L836.8058674139678,320.12114487927926L839.1940494974425,318.11606233442495L841.5822315809172,318.08618165366767L843.9704136643919,295.731209550734L846.3585957478666,301.73164206239807L848.7467778313413,305.3671328981835L851.1349599148161,312.4568413593563L853.5231419982907,318.0554260569929L855.9113240817654,312.09525768797835L858.2995061652402,273.96149023757545L860.687688248715,301.44269766648455L863.0758703321895,288.9417385756775L865.4640524156644,297.2976632113865L867.8522344991391,307.3976555832638L870.2404165826138,315.7279673293043L872.6285986660886,304.170327901476L875.0167807495632,291.4198891895413L877.4049628330379,309.4248192530591L879.7931449165126,305.22439964292766L882.1813269999874,301.6970533422725L884.569509083462,302.6014040755664L886.9576911669367,294.6864817555882L889.3458732504115,310.81037758877125L891.7340553338862,297.08142476226396L894.1222374173608,304.48021048736956L896.5104195008356,318.7369712339865L898.8986015843103,317.09867940607995L901.286783667785,310.4873717838247L903.6749657512598,309.7645592879385L906.0631478347344,307.3026340478349L908.4513299182091,320.9499350730511L910.8395120016839,297.13221869614193L913.2276940851586,301.85375336601567L915.6158761686332,304.1211340862821L918.004058252108,319.1718328125285L920.3922403355828,319.4909992002122L922.7804224190575,312.8982361056916L925.1686045025323,321.19519023334414L927.5567865860069,314.9860196036375L929.9449686694816,305.178336903702L932.3331507529564,317.4615143000294L934.7213328364311,313.3759039873513L937.1095149199057,320.4631625533956L939.4976970033805,327.8754748608285L941.8858790868552,315.925365003297L944.2740611703299,318.97590213791415L946.6622432538046,325.45420578864895L949.0504253372793,332.65664875214367L951.438607420754,326.1264699374408L953.8267895042288,319.81330525133075L956.2149715877035,309.07728825963767L958.6031536711781,318.0430511389937L960.9913357546529,313.4394366352093L963.3795178381276,324.24005652464496L965.7676999216023,314.68965430274807L968.155882005077,312.84685975724943L970.5440640885517,304.1529237573728L972.9322461720265,311.22476961350134L975.3204282555013,319.3595427417062L977.708610338976,320.41830839321324L980.0967924224506,289.8367595867544L982.4849745059254,298.3216596128503L984.8731565894001,297.70219915076126L987.2613386728748,308.2623121002284L989.6495207563495,317.76739383501786L992.0377028398242,305.5277811736215L994.4258849232989,314.3557256214852L996.8140670067737,322.13988204353416L999.2022490902483,318.24832104680587L1001.590431173723,326.57655742668015" style="fill: none;" fill="none"></path></g></g></g></g><g opacity="0.2"><g><g><g><path stroke="rgb(255, 112, 67)" stroke-width="2px" d="M58.258508201210766,-228.49644421618513L60.646690284685484,169.55210582775172L63.034872368160194,116.4046042198706L65.42305445163491,-9.448876425943189L67.81123653510963,181.09837312566546L70.19941861858435,32.94194443090778L72.58760070205905,88.60957646392629L74.97578278553377,20.193120345127042L77.36396486900848,172.0064893464959L79.7521469524832,28.66390911384L82.14032903595792,269.5385243805864L84.52851111943262,249.3633377496235L86.91669320290734,260.53786745179633L89.30487528638206,281.95636067445116L91.69305736985676,220.90299475670716L94.08123945333149,37.952912901834836L96.46942153680621,240.3148996388616L98.85760362028091,133.59391964142335L101.24578570375563,218.00181192014344L103.63396778723033,47.75507652501087L106.02214987070506,276.0734409581173L108.41033195417978,272.38080559377414L110.79851403765448,301.9276423687488L113.1866961211292,200.58049119732792L115.57487820460392,298.45941258293584L117.96306028807862,205.44616463827577L120.35124237155335,260.5165821926274L122.73942445502807,241.20797519629798L125.12760653850277,248.7529960199096L127.51578862197749,172.5265296718811L129.9039707054522,169.51390100056668L132.29215278892693,204.07787253374184L134.68033487240163,181.07392927888827L137.06851695587636,233.41059931750172L139.45669903935107,246.9840561897428L141.84488112282577,281.51982173676026L144.2330632063005,307.28022114278394L146.6212452897752,317.52747905002286L149.0094273732499,306.5856839408376L151.39760945672464,322.6212573389052L153.78579154019934,252.0614757107974L156.17397362367407,213.82418749958998L158.56215570714878,260.47613416468874L160.9503377906235,230.8591948513642L163.3385198740982,306.7688015485461L165.7267019575729,227.68148471113616L168.11488404104765,198.47432687359824L170.50306612452235,260.47868920052474L172.89124820799705,307.66658480980624L175.27943029147178,327.7385414545186L177.6676123749465,324.946219239281L180.0557944584212,265.581317067268L182.44397654189592,243.0103819722375L184.83215862537065,275.2451818314252L187.22034070884536,280.8223623383165L189.6085227923201,312.8919147518532L191.9967048757948,325.8950805840691L194.3848869592695,278.23320570882316L196.77306904274423,342.0825679632185L199.16125112621893,326.1675364280696L201.54943320969363,235.62775681215288L203.93761529316834,300.05673749625413L206.32579737664307,254.17836313768117L208.71397946011777,260.0783231323856L211.1021615435925,330.0785544272156L213.49034362706723,297.0091732365211L215.87852571054194,332.29474372423203L218.26670779401664,329.97599337751257L220.65488987749137,270.3652092430725L223.04307196096607,295.31009452399525L225.43125404444078,288.59672780579484L227.8194361279155,295.8115856915792L230.2076182113902,292.3381754197208L232.59580029486492,278.23787317586215L234.98398237833965,296.0714247887401L237.37216446181435,317.7826657689391L239.76034654528908,256.15908928473954L242.1485286287638,284.0881658893063L244.53671071223852,335.3902551426742L246.92489279571322,297.4900229334932L249.31307487918792,281.750936799159L251.70125696266265,312.95543354628717L254.08943904613736,234.10098207141553L256.4776211296121,341.36378558362003L258.8658032130868,318.38470363218613L261.2539852965615,331.0876049724938L263.64216738003626,303.3243215249721L266.0303494635109,309.067855989097L268.41853154698566,281.52282943642547L270.80671363046037,286.12243210816365L273.19489571393507,268.5648947799436L275.58307779740977,272.1747329003268L277.97125988088453,299.7990108302962L280.3594419643592,289.8241760746701L282.74762404783394,334.05080023885984L285.1358061313087,293.60727882007933L287.52398821478334,337.3090820258876L289.9121702982581,340.50391669025447L292.3003523817328,266.00998971352686L294.6885344652075,303.40333148156117L297.0767165486822,326.17788734096416L299.464898632157,319.8404202109342L301.8530807156316,305.55988231907963L304.2412627991064,304.02300311575476L306.6294448825811,320.97245448900986L309.0176269660558,318.4598433130354L311.40580904953055,316.0037321273431L313.79399113300525,318.11110103981827L316.18217321648,332.24112569366247L318.57035529995466,329.7345198578222L320.9585373834294,329.595174842398L323.3467194669041,272.9146119291653L325.7349015503788,322.38585454412424L328.1230836338535,336.7467151176725L330.5112657173283,313.2978888218764L332.89944780080293,336.11772112339634L335.2876298842777,335.05471556447566L337.67581196775245,314.5138696070785L340.0639940512271,338.3689139084058L342.45217613470186,320.6499692326858L344.84035821817656,329.92755080339026L347.22854030165126,286.48307944008894L349.61672238512597,314.9922698897747L352.0049044686007,329.05624083174155L354.3930865520754,342.5879595841307L356.78126863555013,337.2414930291894L359.16945071902484,303.0180039117479L361.55763280249954,336.14167206955943L363.9458148859743,311.38869864862704L366.333996969449,339.5015982620361L368.7221790529237,347.1336229597205L371.1103611363984,314.545312139615L373.49854321987317,315.60518928851604L375.8867253033478,331.94214877886856L378.2749073868226,263.3034322051297L380.6630894702973,305.1099596208386L383.051271553772,323.55138091596314L385.4394536372467,302.01332660201956L387.8276357207214,281.01683677854L390.2158178041961,285.11087430823136L392.60399988767085,276.95446056890256L394.99218197114556,223.57187051612195L397.38036405462026,301.28868222583293L399.768546138095,246.57135754705683L402.15672822156967,311.1665765076352L404.5449103050444,309.11334367433415L406.9330923885191,319.476875830502L409.32127447199383,263.4151798157666L411.70945655546853,276.3073172698742L414.0976386389433,335.1987230173406L416.48582072241794,331.29274719029223L418.8740028058927,335.2991339138549L421.26218488936746,307.25428853496845L423.6503669728421,250.93558005720564L426.03854905631687,335.9211292223718L428.42673113979157,284.66293830124073L430.8149132232663,313.44414953469123L433.203095306741,313.30015214102247L435.59127739021574,252.65930380043272L437.9794594736904,318.92297122109403L440.36764155716514,341.3479964177774L442.75582364063985,324.75811729985315L445.14400572411455,339.4349963239655L447.5321878075893,299.4395203059344L449.920369891064,288.2703773033291L452.3085519745387,295.88591309233493L454.6967340580134,341.9078472695418L457.0849161414882,343.3905262663167L459.4730982249628,302.8843624605717L461.8612803084376,333.5126810230959L464.2494623919123,340.694017894928L466.637644475387,299.94377272287653L469.0258265588617,307.40983891547825L471.41400864233646,340.38699739536895L473.8021907258111,333.1053489615851L476.19037280928586,348.06712328320447L478.57855489276056,345.70809717228127L480.96673697623527,293.29358278643906L483.35491905971,284.4426569931544L485.7431011431847,316.68450080448434L488.13128322665943,349.2661712976954L490.51946531013414,341.506391036014L492.90764739360884,337.1817803831194L495.29582947708354,307.19464756067146L497.6840115605583,323.6470564458641L500.07219364403295,323.71975677163374L502.4603757275077,318.1760909916971L504.84855781098247,328.3644849975458L507.2367398944571,293.0818316767342L509.6249219779319,348.957219432465L512.0131040614066,324.22739159329967L514.4012861448813,331.8928712914613L516.789468228356,287.5074576855839L519.1776503118307,309.0781616356086L521.5658323953054,231.6519701634446L523.9540144787801,309.8621200622157L526.3421965622549,317.28539946376117L528.7303786457295,320.7804143742679L531.1185607292042,344.31013924074045L533.506742812679,325.40196369732547L535.8949248961537,328.43394123253944L538.2831069796284,331.3795857163275L540.6712890631031,298.7822725443185L543.0594711465778,325.3357339495144L545.4476532300525,314.04809864521707L547.8358353135274,340.1245969753744L550.224017397002,329.53562691566583L552.6121994804766,297.97359364303867L555.0003815639515,305.1852476748319L557.3885636474262,297.4404109778122L559.7767457309009,308.4619050985264L562.1649278143756,292.68168188131347L564.5531098978503,328.4530863977158L566.941291981325,266.34921598713447L569.3294740647998,332.5400598568726L571.7176561482744,340.1911196972749L574.1058382317491,306.27383376970084L576.4940203152239,274.3726974486196L578.8822023986986,321.86718981382006L581.2703844821732,321.7676163453898L583.658566565648,279.90753376908765L586.0467486491227,324.78053924819324L588.4349307325974,267.64588661469173L590.8231128160722,340.4513749936788L593.2112948995468,318.6698089154139L595.5994769830215,308.73139096484755L597.9876590664963,317.5131673286228L600.375841149971,335.0225839769991L602.7640232334456,315.4207866184924L605.1522053169205,335.2615150348488L607.5403874003952,291.4406788455525L609.9285694838699,321.07275221956684L612.3167515673446,314.7069759966181L614.7049336508193,322.891366875391L617.093115734294,309.46754306149234L619.4812978177688,330.46837342813416L621.8694799012435,323.4036666492967L624.2576619847181,277.6122615863097L626.6458440681929,315.95797032900936L629.0340261516676,302.2487620891882L631.4222082351423,306.2589008929351L633.810390318617,241.65890884375762L636.1985724020917,323.7202396130516L638.5867544855664,341.34645736075805L640.9749365690412,294.3677289051563L643.3631186525159,320.03017940293677L645.7513007359905,293.0358209132944L648.1394828194653,299.86594975143964L650.52766490294,315.2509220017835L652.9158469864147,307.56086768729404L655.3040290698895,318.75957466754465L657.6922111533642,308.9841383286842L660.0803932368389,274.0761121077233L662.4685753203137,283.48484547854326L664.8567574037883,305.35091257712537L667.244939487263,347.69642429947174L669.6331215707378,295.2970075097331L672.0213036542125,324.0736015721257L674.4094857376872,324.4025498620112L676.7976678211619,303.9226475448196L679.1858499046366,328.9028556932148L681.5740319881113,256.2966689112298L683.9622140715861,299.0433086858278L686.3503961550607,293.38113300060576L688.7385782385354,306.4078272927442L691.1267603220102,322.80767939256685L693.5149424054849,321.9079245288506L695.9031244889595,333.16616686183806L698.2913065724342,306.7367680382325L700.679488655909,316.3543428962552L703.0676707393837,323.8212238837495L705.4558528228584,313.1973773334001L707.8440349063331,298.27803018657266L710.2322169898079,314.45896902899284L712.6203990732826,317.37551980255813L715.0085811567574,333.93765188515147L717.396763240232,327.5662299383329L719.7849453237067,274.07683636985L722.1731274071815,224.72259226594667L724.5613094906562,331.20092936213575L726.9494915741308,307.7516755505009L729.3376736576056,340.1080998935989L731.7258557410803,324.24255331677904L734.114037824555,276.28978409088955L736.5022199080298,298.2388948837387L738.8904019915044,304.92705828584855L741.2785840749791,331.43036956836636L743.6667661584539,270.2371858529766L746.0549482419286,339.93653401533186L748.4431303254032,340.44174331331294L750.831312408878,276.5733327135047L753.2194944923527,329.02434312057676L755.6076765758274,328.9088685777461L757.9958586593023,312.1200122718974L760.3840407427768,292.1203535851065L762.7722228262516,298.5367678017492L765.1604049097264,299.58932688541137L767.5485869932011,303.60584321955207L769.9367690766757,309.5296384796633L772.3249511601505,343.790627023156L774.7131332436252,337.27082438792246L777.1013153270999,232.31868362868906L779.4894974105746,313.13253072506717L781.8776794940493,326.6663644234584L784.265861577524,337.5604261318538L786.6540436609988,291.33213508890674L789.0422257444735,328.238284836762L791.4304078279481,309.74197805234604L793.8185899114229,329.9473045499371L796.2067719948976,272.4111592183215L798.5949540783723,333.08304520880046L800.983136161847,346.58572243304724L803.3713182453217,321.26312502253785L805.7595003287964,327.72329925746953L808.1476824122713,336.3743727127599L810.535864495746,348.5636665836553L812.9240465792205,340.98727867147863L815.3122286626954,342.56379865224676L817.7004107461701,324.96471558630225L820.0885928296448,322.14536682566194L822.4767749131195,297.12324452148124L824.8649569965942,326.75570265975045L827.2531390800689,314.7885535630383L829.6413211635437,315.5651763208132L832.0295032470183,310.55703448401965L834.417685330493,316.54126790972714L836.8058674139678,327.29659569886775L839.1940494974425,315.10843851714355L841.5822315809172,318.0413606325318L843.9704136643919,262.19875139633336L846.3585957478666,310.7322908298942L848.7467778313413,310.82036915186166L851.1349599148161,323.09140405111555L853.5231419982907,326.45330310344787L855.9113240817654,303.15500513445636L858.2995061652402,216.76083906197104L860.687688248715,342.6645088098482L863.0758703321895,270.19029993946697L865.4640524156644,309.83155016494993L867.8522344991391,322.54764414107996L870.2404165826138,328.2234349483649L872.6285986660886,286.8338687597337L875.0167807495632,272.29423112163926L877.4049628330379,336.43221434833583L879.7931449165126,298.9237702277305L882.1813269999874,296.4060338912898L884.569509083462,303.9579301755072L886.9576911669367,282.81409827562084L889.3458732504115,334.99622133854587L891.7340553338862,276.487995522503L894.1222374173608,315.5783890750279L896.5104195008356,340.12211235391186L898.8986015843103,314.6412416642201L901.286783667785,300.5704103504418L903.6749657512598,308.68034054410924L906.0631478347344,303.60974618767943L908.4513299182091,341.42088661087536L910.8395120016839,261.4056441307782L913.2276940851586,308.93605537082624L915.6158761686332,307.5222051666817L918.004058252108,341.7478809018982L920.3922403355828,319.9697487817376L922.7804224190575,303.00909146391064L925.1686045025323,333.6406214248231L927.5567865860069,305.6722636590774L929.9449686694816,290.46681285379884L932.3331507529564,335.8862803945205L934.7213328364311,307.24748851833414L937.1095149199057,331.0940504024619L939.4976970033805,338.99394332197784L941.8858790868552,298.0002002169998L944.2740611703299,323.55170783983976L946.6622432538046,335.1716612647512L949.0504253372793,343.4603131973857L951.438607420754,316.33120171538656L953.8267895042288,310.3435582221657L956.2149715877035,292.973262772098L958.6031536711781,331.49169545802766L960.9913357546529,306.53401487953266L963.3795178381276,340.4409863587985L965.7676999216023,300.3640509699026L968.155882005077,310.0826679390014L970.5440640885517,291.11201975755785L972.9322461720265,321.8325383976943L975.3204282555013,331.56170243401357L977.708610338976,322.00645687047364L980.0967924224506,243.9644363770662L982.4849745059254,311.049009651994L984.8731565894001,296.7730084576277L987.2613386728748,324.1024815244291L989.6495207563495,332.025016437202L992.0377028398242,287.168362181527L994.4258849232989,327.5976422932808L996.8140670067737,333.8161166766075L999.2022490902483,312.41097955171335L1001.590431173723,339.06891199649164" style="fill: none;" fill="none"></path></g></g></g></g></g></g><g transform="translate(72, 378)" clip-path="url(#clip_1)"><clipPath id="clip_1"><rect width="1040" height="22"></rect></clipPath><g><g><line x1="46.31759778383719" y1="0" x2="46.31759778383719" y2="5" style="visibility: inherit;" fill="rgb(0, 0, 0)" stroke="rgb(204, 204, 204)" stroke-width="1px"></line><line x1="141.84488112282577" y1="0" x2="141.84488112282577" y2="5" style="visibility: inherit;" fill="rgb(0, 0, 0)" stroke="rgb(204, 204, 204)" stroke-width="1px"></line><line x1="237.37216446181435" y1="0" x2="237.37216446181435" y2="5" style="visibility: inherit;" fill="rgb(0, 0, 0)" stroke="rgb(204, 204, 204)" stroke-width="1px"></line><line x1="332.89944780080293" y1="0" x2="332.89944780080293" y2="5" style="visibility: inherit;" fill="rgb(0, 0, 0)" stroke="rgb(204, 204, 204)" stroke-width="1px"></line><line x1="428.42673113979157" y1="0" x2="428.42673113979157" y2="5" style="visibility: inherit;" fill="rgb(0, 0, 0)" stroke="rgb(204, 204, 204)" stroke-width="1px"></line><line x1="523.9540144787801" y1="0" x2="523.9540144787801" y2="5" style="visibility: inherit;" fill="rgb(0, 0, 0)" stroke="rgb(204, 204, 204)" stroke-width="1px"></line><line x1="619.4812978177688" y1="0" x2="619.4812978177688" y2="5" style="visibility: inherit;" fill="rgb(0, 0, 0)" stroke="rgb(204, 204, 204)" stroke-width="1px"></line><line x1="715.0085811567574" y1="0" x2="715.0085811567574" y2="5" style="visibility: inherit;" fill="rgb(0, 0, 0)" stroke="rgb(204, 204, 204)" stroke-width="1px"></line><line x1="810.535864495746" y1="0" x2="810.535864495746" y2="5" style="visibility: inherit;" fill="rgb(0, 0, 0)" stroke="rgb(204, 204, 204)" stroke-width="1px"></line><line x1="906.0631478347344" y1="0" x2="906.0631478347344" y2="5" style="visibility: inherit;" fill="rgb(0, 0, 0)" stroke="rgb(204, 204, 204)" stroke-width="1px"></line><line x1="1001.590431173723" y1="0" x2="1001.590431173723" y2="5" style="visibility: inherit;" fill="rgb(0, 0, 0)" stroke="rgb(204, 204, 204)" stroke-width="1px"></line></g><g transform="translate(0, 8)"><text x="46.31759778383719" y="0" dx="0em" dy="0.95em" style="text-anchor: middle; visibility: inherit; font-family: Roboto, sans-serif; font-size: 12px; font-weight: 200;" fill="rgb(50, 49, 63)" stroke="none" stroke-width="1px">0</text><text x="141.84488112282577" y="0" dx="0em" dy="0.95em" style="text-anchor: middle; visibility: inherit; font-family: Roboto, sans-serif; font-size: 12px; font-weight: 200;" fill="rgb(50, 49, 63)" stroke="none" stroke-width="1px">20k</text><text x="237.37216446181435" y="0" dx="0em" dy="0.95em" style="text-anchor: middle; visibility: inherit; font-family: Roboto, sans-serif; font-size: 12px; font-weight: 200;" fill="rgb(50, 49, 63)" stroke="none" stroke-width="1px">40k</text><text x="332.89944780080293" y="0" dx="0em" dy="0.95em" style="text-anchor: middle; visibility: inherit; font-family: Roboto, sans-serif; font-size: 12px; font-weight: 200;" fill="rgb(50, 49, 63)" stroke="none" stroke-width="1px">60k</text><text x="428.42673113979157" y="0" dx="0em" dy="0.95em" style="text-anchor: middle; visibility: inherit; font-family: Roboto, sans-serif; font-size: 12px; font-weight: 200;" fill="rgb(50, 49, 63)" stroke="none" stroke-width="1px">80k</text><text x="523.9540144787801" y="0" dx="0em" dy="0.95em" style="text-anchor: middle; visibility: inherit; font-family: Roboto, sans-serif; font-size: 12px; font-weight: 200;" fill="rgb(50, 49, 63)" stroke="none" stroke-width="1px">100k</text><text x="619.4812978177688" y="0" dx="0em" dy="0.95em" style="text-anchor: middle; visibility: inherit; font-family: Roboto, sans-serif; font-size: 12px; font-weight: 200;" fill="rgb(50, 49, 63)" stroke="none" stroke-width="1px">120k</text><text x="715.0085811567574" y="0" dx="0em" dy="0.95em" style="text-anchor: middle; visibility: inherit; font-family: Roboto, sans-serif; font-size: 12px; font-weight: 200;" fill="rgb(50, 49, 63)" stroke="none" stroke-width="1px">140k</text><text x="810.535864495746" y="0" dx="0em" dy="0.95em" style="text-anchor: middle; visibility: inherit; font-family: Roboto, sans-serif; font-size: 12px; font-weight: 200;" fill="rgb(50, 49, 63)" stroke="none" stroke-width="1px">160k</text><text x="906.0631478347344" y="0" dx="0em" dy="0.95em" style="text-anchor: middle; visibility: inherit; font-family: Roboto, sans-serif; font-size: 12px; font-weight: 200;" fill="rgb(50, 49, 63)" stroke="none" stroke-width="1px">180k</text><text x="1001.590431173723" y="0" dx="0em" dy="0.95em" style="text-anchor: middle; visibility: inherit; font-family: Roboto, sans-serif; font-size: 12px; font-weight: 200;" fill="rgb(50, 49, 63)" stroke="none" stroke-width="1px">200k</text></g><line x1="0" y1="0" x2="1040.25625" y2="0" fill="rgb(0, 0, 0)" stroke="rgb(204, 204, 204)" stroke-width="1px"></line></g></g></g></g></svg>