<svg viewBox="0 0 1112.5999755859375 400" xmlns="http://www.w3.org/2000/svg"><g><g><g><g><g><line x1="30.78125" y1="347.3410439776438" x2="25.78125" y2="347.3410439776438" style="visibility: inherit;" fill="rgb(0, 0, 0)" stroke="rgb(204, 204, 204)" stroke-width="1px"></line><line x1="30.78125" y1="311.3707606566335" x2="25.78125" y2="311.3707606566335" style="visibility: inherit;" fill="rgb(0, 0, 0)" stroke="rgb(204, 204, 204)" stroke-width="1px"></line><line x1="30.78125" y1="275.40047733562307" x2="25.78125" y2="275.40047733562307" style="visibility: inherit;" fill="rgb(0, 0, 0)" stroke="rgb(204, 204, 204)" stroke-width="1px"></line><line x1="30.78125" y1="239.43019401461268" x2="25.78125" y2="239.43019401461268" style="visibility: inherit;" fill="rgb(0, 0, 0)" stroke="rgb(204, 204, 204)" stroke-width="1px"></line><line x1="30.78125" y1="203.4599106936023" x2="25.78125" y2="203.4599106936023" style="visibility: inherit;" fill="rgb(0, 0, 0)" stroke="rgb(204, 204, 204)" stroke-width="1px"></line><line x1="30.78125" y1="167.4896273725919" x2="25.78125" y2="167.4896273725919" style="visibility: inherit;" fill="rgb(0, 0, 0)" stroke="rgb(204, 204, 204)" stroke-width="1px"></line><line x1="30.78125" y1="131.51934405158153" x2="25.78125" y2="131.51934405158153" style="visibility: inherit;" fill="rgb(0, 0, 0)" stroke="rgb(204, 204, 204)" stroke-width="1px"></line><line x1="30.78125" y1="95.5490607305712" x2="25.78125" y2="95.5490607305712" style="visibility: inherit;" fill="rgb(0, 0, 0)" stroke="rgb(204, 204, 204)" stroke-width="1px"></line><line x1="30.78125" y1="59.578777409560814" x2="25.78125" y2="59.578777409560814" style="visibility: inherit;" fill="rgb(0, 0, 0)" stroke="rgb(204, 204, 204)" stroke-width="1px"></line><line x1="30.78125" y1="23.60849408855043" x2="25.78125" y2="23.60849408855043" style="visibility: inherit;" fill="rgb(0, 0, 0)" stroke="rgb(204, 204, 204)" stroke-width="1px"></line></g><g transform="translate(20.78125, 0)"><text x="0" y="347.3410439776438" dx="0em" dy="0.3em" style="text-anchor: end; visibility: inherit; font-family: Roboto, sans-serif; font-size: 12px; font-weight: 200;" fill="rgb(50, 49, 63)" stroke="none" stroke-width="1px">24</text><text x="0" y="311.3707606566335" dx="0em" dy="0.3em" style="text-anchor: end; visibility: inherit; font-family: Roboto, sans-serif; font-size: 12px; font-weight: 200;" fill="rgb(50, 49, 63)" stroke="none" stroke-width="1px">26</text><text x="0" y="275.40047733562307" dx="0em" dy="0.3em" style="text-anchor: end; visibility: inherit; font-family: Roboto, sans-serif; font-size: 12px; font-weight: 200;" fill="rgb(50, 49, 63)" stroke="none" stroke-width="1px">28</text><text x="0" y="239.43019401461268" dx="0em" dy="0.3em" style="text-anchor: end; visibility: inherit; font-family: Roboto, sans-serif; font-size: 12px; font-weight: 200;" fill="rgb(50, 49, 63)" stroke="none" stroke-width="1px">30</text><text x="0" y="203.4599106936023" dx="0em" dy="0.3em" style="text-anchor: end; visibility: inherit; font-family: Roboto, sans-serif; font-size: 12px; font-weight: 200;" fill="rgb(50, 49, 63)" stroke="none" stroke-width="1px">32</text><text x="0" y="167.4896273725919" dx="0em" dy="0.3em" style="text-anchor: end; visibility: inherit; font-family: Roboto, sans-serif; font-size: 12px; font-weight: 200;" fill="rgb(50, 49, 63)" stroke="none" stroke-width="1px">34</text><text x="0" y="131.51934405158153" dx="0em" dy="0.3em" style="text-anchor: end; visibility: inherit; font-family: Roboto, sans-serif; font-size: 12px; font-weight: 200;" fill="rgb(50, 49, 63)" stroke="none" stroke-width="1px">36</text><text x="0" y="95.5490607305712" dx="0em" dy="0.3em" style="text-anchor: end; visibility: inherit; font-family: Roboto, sans-serif; font-size: 12px; font-weight: 200;" fill="rgb(50, 49, 63)" stroke="none" stroke-width="1px">38</text><text x="0" y="59.578777409560814" dx="0em" dy="0.3em" style="text-anchor: end; visibility: inherit; font-family: Roboto, sans-serif; font-size: 12px; font-weight: 200;" fill="rgb(50, 49, 63)" stroke="none" stroke-width="1px">40</text><text x="0" y="23.60849408855043" dx="0em" dy="0.3em" style="text-anchor: end; visibility: inherit; font-family: Roboto, sans-serif; font-size: 12px; font-weight: 200;" fill="rgb(50, 49, 63)" stroke="none" stroke-width="1px">42</text></g><line x1="30.78125" y1="0" x2="30.78125" y2="378" fill="rgb(0, 0, 0)" stroke="rgb(204, 204, 204)" stroke-width="1px"></line></g></g><g transform="translate(30, 0)" clip-path="url(#clip_0)"><clipPath id="clip_0"><rect width="1081" height="378"></rect></clipPath><g><g><g><line x1="45.07181647175574" y1="0" x2="45.07181647175574" y2="378" fill="rgb(0, 0, 0)" stroke="rgb(60, 60, 60)" stroke-width="1px" opacity="0.25"></line><line x1="145.3792880300404" y1="0" x2="145.3792880300404" y2="378" fill="rgb(0, 0, 0)" stroke="rgb(60, 60, 60)" stroke-width="1px" opacity="0.25"></line><line x1="245.6867595883251" y1="0" x2="245.6867595883251" y2="378" fill="rgb(0, 0, 0)" stroke="rgb(60, 60, 60)" stroke-width="1px" opacity="0.25"></line><line x1="345.99423114660976" y1="0" x2="345.99423114660976" y2="378" fill="rgb(0, 0, 0)" stroke="rgb(60, 60, 60)" stroke-width="1px" opacity="0.25"></line><line x1="446.30170270489435" y1="0" x2="446.30170270489435" y2="378" fill="rgb(0, 0, 0)" stroke="rgb(60, 60, 60)" stroke-width="1px" opacity="0.25"></line><line x1="546.609174263179" y1="0" x2="546.609174263179" y2="378" fill="rgb(0, 0, 0)" stroke="rgb(60, 60, 60)" stroke-width="1px" opacity="0.25"></line><line x1="646.9166458214638" y1="0" x2="646.9166458214638" y2="378" fill="rgb(0, 0, 0)" stroke="rgb(60, 60, 60)" stroke-width="1px" opacity="0.25"></line><line x1="747.2241173797483" y1="0" x2="747.2241173797483" y2="378" fill="rgb(0, 0, 0)" stroke="rgb(60, 60, 60)" stroke-width="1px" opacity="0.25"></line><line x1="847.531588938033" y1="0" x2="847.531588938033" y2="378" fill="rgb(0, 0, 0)" stroke="rgb(60, 60, 60)" stroke-width="1px" opacity="0.25"></line><line x1="947.8390604963178" y1="0" x2="947.8390604963178" y2="378" fill="rgb(0, 0, 0)" stroke="rgb(60, 60, 60)" stroke-width="1px" opacity="0.25"></line><line x1="1048.1465320546024" y1="0" x2="1048.1465320546024" y2="378" fill="rgb(0, 0, 0)" stroke="rgb(60, 60, 60)" stroke-width="1px" opacity="0.25"></line></g><g><line x1="0" y1="347.3410439776438" x2="1081.81875" y2="347.3410439776438" fill="rgb(0, 0, 0)" stroke="rgb(60, 60, 60)" stroke-width="1px" opacity="0.25"></line><line x1="0" y1="311.3707606566335" x2="1081.81875" y2="311.3707606566335" fill="rgb(0, 0, 0)" stroke="rgb(60, 60, 60)" stroke-width="1px" opacity="0.25"></line><line x1="0" y1="275.40047733562307" x2="1081.81875" y2="275.40047733562307" fill="rgb(0, 0, 0)" stroke="rgb(60, 60, 60)" stroke-width="1px" opacity="0.25"></line><line x1="0" y1="239.43019401461268" x2="1081.81875" y2="239.43019401461268" fill="rgb(0, 0, 0)" stroke="rgb(60, 60, 60)" stroke-width="1px" opacity="0.25"></line><line x1="0" y1="203.4599106936023" x2="1081.81875" y2="203.4599106936023" fill="rgb(0, 0, 0)" stroke="rgb(60, 60, 60)" stroke-width="1px" opacity="0.25"></line><line x1="0" y1="167.4896273725919" x2="1081.81875" y2="167.4896273725919" fill="rgb(0, 0, 0)" stroke="rgb(60, 60, 60)" stroke-width="1px" opacity="0.25"></line><line x1="0" y1="131.51934405158153" x2="1081.81875" y2="131.51934405158153" fill="rgb(0, 0, 0)" stroke="rgb(60, 60, 60)" stroke-width="1px" opacity="0.25"></line><line x1="0" y1="95.5490607305712" x2="1081.81875" y2="95.5490607305712" fill="rgb(0, 0, 0)" stroke="rgb(60, 60, 60)" stroke-width="1px" opacity="0.25"></line><line x1="0" y1="59.578777409560814" x2="1081.81875" y2="59.578777409560814" fill="rgb(0, 0, 0)" stroke="rgb(60, 60, 60)" stroke-width="1px" opacity="0.25"></line><line x1="0" y1="23.60849408855043" x2="1081.81875" y2="23.60849408855043" fill="rgb(0, 0, 0)" stroke="rgb(60, 60, 60)" stroke-width="1px" opacity="0.25"></line></g></g></g><g><g><line x1="0" y1="778.9844438297682" x2="1081.81875" y2="778.9844438297682" fill="rgb(0, 0, 0)" stroke="rgb(153, 153, 153)" stroke-width="1.5px"></line></g></g><g><g><line x1="45.07181647175574" y1="0" x2="45.07181647175574" y2="378" fill="rgb(0, 0, 0)" stroke="rgb(153, 153, 153)" stroke-width="1.5px"></line></g></g><g><g><g><g><g><path stroke="rgb(255, 112, 67)" stroke-width="2px" d="M52.59487683862709,392.2793807153431L55.1025636275842,373.0697380054617L57.61025041654132,356.95646778577816L60.11793720549844,311.1082063171351L62.62562399445556,292.38783153967927L65.13331078341267,294.6634307189428L67.64099757236978,272.8917281930478L70.1486843613269,279.11821161933295L72.65637115028402,276.926766871533L75.16405793924113,282.7318766660222L77.67174472819825,267.4318729926971L80.17943151715536,276.23432867353125L82.6871183061125,240.0238873386557L85.19480509506961,224.82800811732298L87.70249188402673,212.2682109199022L90.21017867298384,196.83587442709998L92.71786546194096,206.2822397533265L95.22555225089808,238.64290559835925L97.73323903985519,226.5364124479399L100.24092582881231,239.63772224238593L102.74861261776942,232.62467902940634L105.25629940672654,253.4710168889293L107.76398619568366,223.9335427189704L110.27167298464077,207.61464427621644L112.7793597735979,184.29183213572878L115.28704656255502,203.12051450042173L117.79473335151214,183.52250446211278L120.30242014046925,201.6679961672986L122.81010692942635,198.3804221772162L125.31779371838347,202.1378566489734L127.82548050734059,202.27654647476936L130.33316729629772,219.08244888667167L132.84085408525482,229.6736472327126L135.34854087421195,229.6405205554505L137.85622766316905,234.01396328829614L140.36391445212618,225.56368944160383L142.87160124108328,216.84110281383929L145.3792880300404,199.76312919976482L147.88697481899752,176.3518393579608L150.39466160795465,155.00148318896967L152.90234839691175,149.93320116943914L155.41003518586885,134.76675131847634L157.91772197482598,160.87893798812874L160.4254087637831,186.29830994830183L162.93309555274024,189.1717559755583L165.44078234169734,199.29967028363805L167.94846913065447,176.39712663561593L170.45615591961158,192.4156365267674L172.9638427085687,208.41414894649398L175.4715294975258,202.44043607995002L177.97921628648294,177.71167425311376L180.48690307544004,146.30767461565847L182.99458986439717,130.36604305014404L185.50227665335427,153.9044166167483L188.0099634423114,174.95968978626505L190.5176502312685,177.1471407128446L193.02533702022563,176.23624972413106L195.53302380918274,158.4486395498669L198.04071059813987,136.69480459903272L200.54839738709697,153.01674392963426L203.0560841760541,109.84817150275553L205.5637709650112,107.25460365825225L208.07145775396833,148.93989074029724L210.57914454292543,150.14133265056907L213.08683133188256,169.46352046569586L215.59451812083967,179.20016695750408L218.1022049097968,144.54358740555102L220.6098916987539,149.14824596963064L223.11757848771106,123.76872373352106L225.62526527666816,111.40604762973233L228.13295206562526,140.838497736212L230.6406388545824,147.80589768281132L233.1483256435395,155.24189088875323L235.65601243249662,156.19054428656466L238.16369922145373,158.5003180052709L240.67138601041086,166.0981583961453L243.17907279936796,162.57010779588285L245.6867595883251,146.52689507722786L248.1944463772822,166.68375389566557L250.70213316623932,168.57884267154026L253.20981995519642,131.14035221985006L255.71750674415355,140.8524831797158L258.22519353311066,154.07341243731904L260.7328803220678,145.10532666532941L263.2405671110249,172.04267923558388L265.748253899982,122.79006570767879L268.2559406889391,122.16843332129204L270.76362747789625,109.10511092974961L273.2713142668534,124.37518141841093L275.7790010558105,129.96173825091103L278.2866878447676,147.6342480908841L280.7943746337247,156.258115050132L283.30206142268185,168.39649086410034L285.809748211639,174.36894136295032L288.31743500059605,165.54122040691192L290.8251217895532,165.31265124294734L293.33280857851025,131.10810688253932L295.84049536746744,142.82605740583554L298.3481821564245,112.7022353345343L300.85586894538164,88.91888906758642L303.3635557343387,128.88839775998653L305.8712425232959,136.19863738020882L308.378929312253,123.0542078000411L310.8866161012101,121.10830557708367L313.3943028901672,130.233646325634L315.90198967912437,136.63859719553483L318.4096764680815,128.2772703570527L320.9173632570386,125.39900902727362L323.4250500459957,125.62990131440333L325.93273683495283,124.0961610027448L328.44042362390996,108.80679414595923L330.94811041286704,102.71267947361737L333.4557972018241,99.218811323805L335.9634839907813,132.58677698683658L338.4711707797384,124.57561535250326L340.9788575686955,102.65718234873817L343.4865443576526,114.00854539131315L345.99423114660976,97.29926786491016L348.50191793556684,88.86672122075572L351.00960472452397,104.84099423782472L353.51729151348104,88.13046642776649L356.02497830243817,99.45519353947567L358.5326650913953,96.87506614803588L361.04035188035243,125.64192625121026L363.5480386693095,126.547572523745L366.05572545826664,114.14078559958666L368.56341224722377,85.40294349781958L371.0710990361809,78.35855123009175L373.57878582513797,106.10691589044256L376.0864726140951,92.52146145938843L378.59415940305223,109.28006006818758L381.10184619200936,88.77145566992247L383.60953298096643,57.753935384035806L386.11721976992357,86.14988628715683L388.6249065588807,102.38685786409123L391.1325933478378,96.16486747580082L393.64028013679496,134.1573610654588L396.14796692575203,138.33811485077814L398.6556537147092,126.93832468448905L401.1633405036663,135.83690402451685L403.6710272926234,151.36967184350905L406.1787140815805,158.94562233598037L408.6864008705377,166.8739448617496L411.19408765949476,187.6833551549746L413.7017744484519,172.69716123369395L416.20946123740896,185.23876606958333L418.7171480263661,165.06412446470432L421.2248348153232,154.34510871761074L423.73252160428035,140.1916364321359L426.2402083932374,160.5359076555532L428.74789518219455,168.08147119846672L431.2555819711517,131.1249230811278L433.7632687601088,114.22515566400845L436.2709555490659,98.66310541859995L438.778642338023,115.70829098949957L441.28632912698015,149.7790798454239L443.7940159159373,119.06239288573597L446.30170270489435,139.75684227914857L448.8093894938515,136.162246138287L451.31707628280867,134.10996451929367L453.82476307176574,160.30538771720234L456.3324498607229,144.2325535481089L458.84013664967995,106.13670252795013L461.34782343863714,106.44952434290191L463.8555102275942,87.19575022129145L466.36319701655134,113.43500616216664L468.8708838055084,134.76927789545115L471.3785705944656,143.86866585557658L473.8862573834227,104.73727169651158L476.3939441723798,77.89596345736925L478.9016309613369,105.9074115405336L481.40931775029406,96.2070532338841L483.91700453925114,78.64682407216897L486.42469132820827,108.02800814148691L488.93237811716534,121.22827263051367L491.4400649061225,94.26292076835576L493.9477516950796,89.77056645055704L496.45543848403673,55.05061895623466L498.9631252729938,41.97463302814088L501.47081206195094,89.50157574397635L503.97849885090807,122.11607369531319L506.4861856398652,123.12966405886488L508.99387242882227,70.23668717220151L511.5015592177794,61.40953560519815L514.0092460067366,64.05954546685713L516.5169327956936,94.98402656308808L519.0246195846508,100.83484278901149L521.5323063736079,104.27601113199586L524.039993162565,111.23080673081238L526.5476799515221,105.73022130773361L529.0553667404793,127.85954199299708L531.5630535294364,74.39213203872815L534.0707403183935,87.9218417560441L536.5784271073505,87.54862029110193L539.0861138963078,119.58517850474011L541.5938006852649,127.08095804508184L544.1014874742219,161.84734014765007L546.609174263179,151.91675288395504L549.1168610521361,140.53420738077617L551.6245478410933,130.78335694385788L554.1322346300504,91.24028978211173L556.6399214190075,96.87019310422099L559.1476082079646,97.0364634536131L561.6552949969218,93.66398132640238L564.1629817858789,117.67413279665801L566.670668574836,112.79710343383823L569.178355363793,119.5444309279598L571.6860421527502,93.7592162641771L574.1937289417074,93.91597246126558L576.7014157306644,118.26049347994189L579.2091025196216,128.75413679868268L581.7167893085788,139.44701701992471L584.2244760975358,139.40196941066137L586.7321628864929,148.25927589851716L589.23984967545,127.84853491767628L591.7475364644072,152.1287285953778L594.2552232533643,125.23795926700004L596.7629100423213,97.04769518492462L599.2705968312786,115.35574727757016L601.7782836202357,141.71873087911607L604.2859704091927,130.52705682671916L606.7936571981498,123.90190126276839L609.301343987107,144.66483019726465L611.8090307760641,129.54428176697243L614.3167175650212,152.6932275425002L616.8244043539783,113.01634131214063L619.3320911429355,116.06925789149545L621.8397779318925,125.19932102364763L624.3474647208496,124.32147087367822L626.8551515098068,105.12697080958509L629.3628382987639,113.91389192825375L631.870525087721,98.53189210927731L634.3782118766782,124.33952429311267L636.8858986656352,120.80934990552633L639.3935854545924,123.86233026129753L641.9012722435494,118.87367283131955L644.4089590325066,126.39611649029244L646.9166458214638,112.39569388715067L649.4243326104208,111.51291449201442L651.932019399378,138.15468052943916L654.4397061883351,133.3186235475463L656.9473929772922,139.5296514055614L659.4550797662494,140.85419679407283L661.9627665552064,167.49962874728934L664.4704533441635,144.27441617344178L666.9781401331207,106.16503095149933L669.4858269220778,127.47976748252722L671.9935137110349,123.60120539187233L674.5012004999919,138.60480048396425L677.0088872889492,144.04579740192779L679.5165740779063,137.39430789634343L682.0242608668633,138.7516447034999L684.5319476558204,131.43609643760496L687.0396344447777,134.25344799048156L689.5473212337347,153.17003287372387L692.0550080226918,160.73005758226816L694.5626948116488,154.1347472586457L697.0703816006061,95.02278817342749L699.5780683895632,120.3231680733223L702.0857551785202,115.6292601268056L704.5934419674775,112.49375154433298L707.1011287564346,126.05443150372038L709.6088155453916,114.01943941066875L712.1165023343488,147.1363868549595L714.6241891233059,149.61580480974834L717.131875912263,154.04291863864955L719.6395627012201,149.46928952012703L722.1472494901772,134.31567715515538L724.6549362791344,126.04836844419515L727.1626230680915,108.7603014625039L729.6703098570486,122.09364861396247L732.1779966460057,123.37458625116416L734.6856834349628,117.70281823694924L737.1933702239199,123.10865126719689L739.7010570128771,135.61297869009056L742.2087438018341,132.92966645351953L744.7164305907913,129.06994470141322L747.2241173797483,109.52000662877863L749.7318041687055,105.57969909664405L752.2394909576626,135.96553654908686L754.7471777466197,168.86654066990394L757.2548645355769,136.98398783951146L759.762551324534,138.38327577323273L762.2702381134911,105.09411023501764L764.7779249024483,106.32831914633672L767.2856116914053,135.56375143686L769.7932984803624,143.10706024347527L772.3009852693197,143.8190791081451L774.8086720582767,121.67018448972993L777.3163588472338,147.04344110225813L779.8240456361909,110.61670056758769L782.3317324251481,87.7892236837688L784.8394192141052,124.32958849913477L787.3471060030622,112.84638479944726L789.8547927920193,106.08777804418183L792.3624795809766,116.90850183705638L794.8701663699336,135.03705053109698L797.3778531588907,142.63071682773258L799.8855399478477,146.61376645376743L802.393226736805,146.71434368569325L804.9009135257621,143.05918962159836L807.4086003147191,99.91614483310083L809.9162871036763,87.01869351009513L812.4239738926335,137.6426056652637L814.9316606815905,135.1193417351609L817.4393474705477,121.8981637615752L819.9470342595047,99.7322876642406L822.4547210484619,125.11190360783338L824.962407837419,114.19900414909289L827.4700946263761,123.40824203874254L829.9777814153333,111.22359601470144L832.4854682042904,139.97741382194502L834.9931549932475,117.22912042804548L837.5008417822046,76.61598881620101L840.0085285711617,92.00661791631217L842.5162153601188,94.90124391831003L845.023902149076,85.43781206856274L847.531588938033,50.54070366116828L850.0392757269902,50.65962118263272L852.5469625159474,47.368692053846004L855.0546493049044,70.98429404685939L857.5623360938615,87.83400009258179L860.0700228828186,115.06247541654831L862.5777096717758,109.77013351697407L865.0853964607329,117.17768453693404L867.5930832496899,121.03413592429602L870.1007700386472,126.95916831018145L872.6084568276043,126.14787307686737L875.1161436165613,115.84682236065636L877.6238304055184,120.58280188749157L880.1315171944756,121.12470866354911L882.6392039834327,149.5016626006947L885.1468907723898,143.9201145189398L887.654577561347,140.5109205162516L890.1622643503041,128.67596658761474L892.6699511392611,118.25492215083064L895.1776379282182,129.9645221204468L897.6853247171755,167.0996008517243L900.1930115061325,117.00506638341945L902.7006982950896,144.26133010411235L905.2083850840468,141.3856468896018L907.7160718730039,129.7061405441574L910.223758661961,116.97198475671047L912.731445450918,137.54302027877603L915.2391322398752,155.81253832727438L917.7468190288324,121.89438308552633L920.2545058177894,134.53561536637733L922.7621926067466,143.45894917881853L925.2698793957037,144.61255607597317L927.7775661846608,155.88152910875456L930.285252973618,124.1014261582308L932.792939762575,146.150253408979L935.3006265515321,138.407578168954L937.8083133404893,105.08187971657534L940.3160001294464,114.47502626965495L942.8236869184035,129.1764563630469L945.3313737073605,133.09706586119046L947.8390604963178,138.60201810569103L950.3467472852749,102.6071146291489L952.8544340742319,138.6529687009966L955.3621208631891,138.61524074163825L957.8698076521463,139.50893068728217L960.3774944411033,102.46350943891589L962.8851812300604,108.64326322966885L965.3928680190176,124.28295728836306L967.9005548079747,107.05754038485372L970.4082415969318,121.73405791976448L972.9159283858888,138.72546372302978L975.4236151748461,112.48324337478746L977.9313019638032,124.00470978064124L980.4389887527602,110.19891829235625L982.9466755417174,90.2454366929365L985.4543623306745,116.04395646813254L987.9620491196316,113.56152778027058L990.4697359085887,98.45274959522436L992.9774226975458,73.95768233316461L995.485109486503,94.51106407425738L997.9927962754601,111.19036223884807L1000.5004830644172,131.18911324767444L1003.0081698533743,114.01550137398911L1005.5158566423314,125.37394011000939L1008.0235434312885,96.6450493392293L1010.5312302202457,118.59364909814646L1013.0389170092028,125.81623548091693L1015.5466037981599,140.86770887355271L1018.054290587117,130.04775625557525L1020.5619773760741,113.24286910421537L1023.0696641650313,113.31543849540604L1025.5773509539883,150.34240959954178L1028.0850377429454,144.20732275641865L1030.5927245319026,149.0703929946611L1033.1004113208598,132.84971284095064L1035.6080981098169,114.33670479583036L1038.1157848987739,135.8113540770493L1040.6234716877311,121.32047806173227L1043.1311584766881,105.03860803025775L1045.6388452656454,116.07320365970759L1048.1465320546024,93.63545415730269" style="fill: none;" fill="none"></path></g></g></g></g><g opacity="0.2"><g><g><g><path stroke="rgb(255, 112, 67)" stroke-width="2px" d="M50.08719004966997,400.5599977709777L52.59487683862709,348.02403533060374L55.1025636275842,347.9896284834406L57.61025041654132,334.6660142946768L60.11793720549844,245.54445884479213L62.62562399445556,265.09334539855087L65.13331078341267,298.01949749597185L67.64099757236978,240.5632873033932L70.1486843613269,288.4014630123532L72.65637115028402,273.6515254953765L75.16405793924113,291.4205866670673L77.67174472819825,244.51184178267263L80.17943151715536,289.42766523856096L82.6871183061125,185.73376374504326L85.19480509506961,202.0406196721375L87.70249188402673,193.43170405491878L90.21017867298384,173.68972064903485L92.71786546194096,220.45092430745862L95.22555225089808,287.182129630085L97.73323903985519,208.3770710916249L100.24092582881231,259.2894282715472L102.74861261776942,222.1051972861196L105.25629940672654,284.7403755113663L107.76398619568366,179.62745742786663L110.27167298464077,183.13633836767406L112.7793597735979,149.3076497310077L115.28704656255502,231.36352070358367L117.79473335151214,154.1255002361715L120.30242014046925,228.8862277078351L122.81010692942635,193.44906184620947L125.31779371838347,207.77400790804703L127.82548050734059,202.48458120352913L130.33316729629772,244.29130178226177L132.84085408525482,245.56044447866853L135.34854087421195,229.59083054006996L137.85622766316905,240.57412734696604L140.36391445212618,212.88827871863154L142.87160124108328,203.75722290134232L145.3792880300404,174.1461688128965L147.88697481899752,141.23490462342048L150.39466160795465,122.97594895089489L152.90234839691175,142.33077814233852L155.41003518586885,112.01707654597311L157.91772197482598,200.04721798853618L160.4254087637831,224.42736788618336L162.93309555274024,193.48192501628156L165.44078234169734,214.4915417454165L167.94846913065447,142.04331116404597L170.45615591961158,216.44340136330032L172.9638427085687,232.4119175759675L175.4715294975258,193.4798667801601L177.97921628648294,140.61853151292405L180.48690307544004,99.20167515952488L182.99458986439717,106.45359570188731L185.50227665335427,189.2119769666414L188.0099634423114,206.54259954053308L190.5176502312685,180.42831710271358L193.02533702022563,174.86991324106066L195.53302380918274,131.76722428847197L198.04071059813987,104.06405217278217L200.54839738709697,177.49965292553625L203.0560841760541,45.09531286243804L205.5637709650112,103.36425189149728L208.07145775396833,211.4678213633646L210.57914454292543,151.94349551597682L213.08683133188256,198.4468021883859L215.59451812083967,193.80513669521616L218.1022049097968,92.55871807762175L220.6098916987539,156.05523381574997L223.11757848771106,85.69944037935669L225.62526527666816,92.86203347404924L228.13295206562526,184.98717289593125L230.6406388545824,158.25699760271033L233.1483256435395,166.39588069766603L235.65601243249662,157.6135243832818L238.16369922145373,161.9649785833304L240.67138601041086,177.49491898245694L243.17907279936796,157.27803189548928L245.6867595883251,122.46207599924547L248.1944463772822,196.9190421233219L250.70213316623932,171.42147583535245L253.20981995519642,74.98261654231467L255.71750674415355,155.42067961951426L258.22519353311066,173.9048063237239L260.7328803220678,131.653198007345L263.2405671110249,212.44870809096565L265.748253899982,48.91114541582084L268.2559406889391,121.23598474171186L270.76362747789625,89.51012734243595L273.2713142668534,147.28028715140283L275.7790010558105,138.3415734996609L278.2866878447676,174.14301285084363L280.7943746337247,169.19391548900356L283.30206142268185,186.60405458505298L285.809748211639,183.3276171112253L288.31743500059605,152.29963897285427L290.8251217895532,164.9697974970005L293.33280857851025,79.80129034192701L295.84049536746744,160.40298319078002L298.3481821564245,67.51650222758245L300.85586894538164,53.24386966716448L303.3635557343387,188.84266079858685L305.8712425232959,147.16399681054227L308.378929312253,103.33756342978945L310.8866161012101,118.18945224264748L313.3943028901672,143.92165744845954L315.90198967912437,146.2460235003862L318.4096764680815,115.73528009932956L320.9173632570386,121.0816170326049L323.4250500459957,125.97623974509789L325.93273683495283,121.79555053525695L328.44042362390996,85.8727438607808L330.94811041286704,93.57150746510489L333.4557972018241,93.97800909908656L335.9634839907813,182.63872548138394L338.4711707797384,112.55887290100321L340.9788575686955,69.77953284309058L343.4865443576526,131.03558995517568L345.99423114660976,72.23535157530564L348.50191793556684,76.21790125452397L351.00960472452397,128.80240376342823L353.51729151348104,63.06467471267898L356.02497830243817,116.44228420703949L358.5326650913953,93.00487506087623L361.04035188035243,168.79221640597186L363.5480386693095,127.90604193254713L366.05572545826664,95.53060521334908L368.56341224722377,42.29618034516911L371.0710990361809,67.79196282849999L373.57878582513797,147.72946288096875L376.0864726140951,72.14327981280718L378.59415940305223,134.41795798138614L381.10184619200936,58.00854907252473L383.60953298096643,11.227654955205972L386.11721976992357,128.7438126418383L388.6249065588807,126.74231522949272L391.1325933478378,86.83188189336542L393.64028013679496,191.14610144994566L396.14796692575203,144.60924552875733L398.6556537147092,109.83863943505558L401.1633405036663,149.18477303455853L403.6710272926234,174.66882357199734L406.1787140815805,170.30954807468729L408.6864008705377,178.76642865040336L411.19408765949476,218.89747059481223L413.7017744484519,150.2178703517731L416.20946123740896,204.05117332341734L418.7171480263661,134.80216205738566L421.2248348153232,138.2665850969703L423.73252160428035,118.96142800392376L426.2402083932374,191.0523144906793L428.74789518219455,179.3998165128369L431.2555819711517,75.69010090511955L433.7632687601088,88.87550453832951L436.2709555490659,75.32003005048713L438.778642338023,141.276069345849L441.28632912698015,200.88526312931026L443.7940159159373,72.98736244620406L446.30170270489435,170.79851636926745L448.8093894938515,130.77035192699455L451.31707628280867,131.03154209080353L453.82476307176574,199.59852251406525L456.3324498607229,120.12330229446886L458.84013664967995,48.992925997712156L461.34782343863714,106.91875706532963L463.8555102275942,58.31508903887581L466.36319701655134,152.79389007347942L468.8708838055084,166.77068549537776L471.3785705944656,157.51774779576473L473.8862573834227,46.04018045791413L476.3939441723798,37.634001098655865L478.9016309613369,147.92458366527998L481.40931775029406,81.65651577390989L483.91700453925114,52.30648032959627L486.42469132820827,152.09978424546378L488.93237811716534,141.02866936405357L491.4400649061225,53.81489297511881L493.9477516950796,83.03203497385903L496.45543848403673,2.9706977147511253L498.9631252729938,22.360654136000417L501.47081206195094,160.7919898177296L503.97849885090807,171.0378206223186L506.4861856398652,124.65004960419225L508.99387242882227,-9.102778157793654L511.5015592177794,48.16880825469313L514.0092460067366,68.03456025934543L516.5169327956936,141.37074820743462L519.0246195846508,109.61106712789658L521.5323063736079,109.43776364647248L524.039993162565,121.66300012903707L526.5476799515221,97.47934317311541L529.0553667404793,161.05352302089213L531.5630535294364,-5.80898289267525L534.0707403183935,108.21640633201814L536.5784271073505,86.98878809368881L539.0861138963078,167.64001582519748L541.5938006852649,138.3246273555945L544.1014874742219,213.9969133015024L546.609174263179,137.02087198841244L549.1168610521361,123.4603891260079L551.6245478410933,116.15708128848051L554.1322346300504,31.925689039492386L556.6399214190075,105.31504808738504L559.1476082079646,97.28586897770134L561.6552949969218,88.60525813558624L564.1629817858789,153.68936000204127L566.670668574836,105.4815593896084L569.178355363793,129.66542216914226L571.6860421527502,55.0813942685031L574.1937289417074,94.15110675689847L576.7014157306644,154.77727500795646L579.2091025196216,144.4946017767939L581.7167893085788,155.48633735178777L584.2244760975358,139.3343979967662L586.7321628864929,161.54523563030085L589.23984967545,97.23242344641496L591.7475364644072,188.54901911193002L594.2552232533643,84.90180527443334L596.7629100423213,54.7622990618113L599.2705968312786,142.81782541653865L601.7782836202357,181.26320628143478L604.2859704091927,113.739545748124L606.7936571981498,113.9641679168423L609.301343987107,175.80922359900887L611.8090307760641,106.86345912153399L614.3167175650212,187.41664620579203L616.8244043539783,53.501011966601325L619.3320911429355,120.64863276052755L621.8397779318925,138.89441572187602L624.3474647208496,123.00469564872414L626.8551515098068,76.33522071344525L629.3628382987639,127.09427360625662L631.870525087721,75.45889238081267L634.3782118766782,163.05097256886557L636.8858986656352,115.51408832414695L639.3935854545924,128.44180079495436L641.9012722435494,111.39068668635238L644.4089590325066,137.67978197875166L646.9166458214638,91.39505998243807L649.4243326104208,110.18874539931018L651.932019399378,178.11732958557621L654.4397061883351,126.06453807470706L656.9473929772922,148.84619319258394L659.4550797662494,142.84101487684006L661.9627665552064,207.46777667711416L664.4704533441635,109.43659731267034L666.9781401331207,49.00095311858575L669.4858269220778,159.45187227906897L671.9935137110349,117.7833622558901L674.5012004999919,161.11019312210206L677.0088872889492,152.20729277887295L679.5165740779063,127.41707363796695L682.0242608668633,140.78764991423455L684.5319476558204,120.46277403876276L687.0396344447777,138.47947531979648L689.5473212337347,181.5449101985873L692.0550080226918,172.0700946450846L694.5626948116488,144.24178177321204L697.0703816006061,6.354849545600113L699.5780683895632,158.27373792316462L702.0857551785202,108.5883982070306L704.5934419674775,107.79048867062436L707.1011287564346,146.39545144280171L709.6088155453916,95.96695127109142L712.1165023343488,196.81180802139562L714.6241891233059,153.33493174193165L717.131875912263,160.68358938200114L719.6395627012201,142.6088458423432L722.1472494901772,111.5852586076979L724.6549362791344,113.64740537775481L727.1626230680915,82.82820098996714L729.6703098570486,142.09366934115022L732.1779966460057,125.29599270696652L734.6856834349628,109.19516621562704L737.1933702239199,131.21740081256831L739.7010570128771,154.36946982443118L742.2087438018341,128.90469809866312L744.7164305907913,123.28036207325383L747.2241173797483,80.19509951982656L749.7318041687055,99.6692377984422L752.2394909576626,181.5442927277509L754.7471777466197,218.2180468511294L757.2548645355769,89.16015859392277L759.762551324534,140.4822076738149L762.2702381134911,55.16036192769513L764.7779249024483,108.17963251331535L767.2856116914053,179.41689987264476L769.7932984803624,154.42202345339828L772.3009852693197,144.88710740514986L774.8086720582767,88.44684256210714L777.3163588472338,185.1033260210504L779.8240456361909,55.97658976558207L782.3317324251481,53.54800835804053L784.8394192141052,179.14013572218363L787.3471060030622,95.62157924991611L789.8547927920193,95.94986791128358L792.3624795809766,133.13958752636827L794.8701663699336,162.22987357215794L797.3778531588907,154.02121627268585L799.8855399478477,152.58834089281964L802.393226736805,146.8652095335819L804.9009135257621,137.57645852545608L807.4086003147191,35.201577650354345L809.9162871036763,67.67251652558656L812.4239738926335,213.57847389801648L814.9316606815905,131.33444584000677L817.4393474705477,102.06639680119662L819.9470342595047,66.48347351823865L822.4547210484619,163.18132752322256L824.962407837419,97.82965496098217L827.4700946263761,137.2220988732172L829.9777814153333,92.94662697863988L832.4854682042904,183.10814053281055L834.9931549932475,83.10668033719608L837.5008417822046,15.69629139843445L840.0085285711617,115.09256156647888L842.5162153601188,99.24318292130695L845.023902149076,71.24266429394179L847.531588938033,-1.8049589499234164L850.0392757269902,50.83799746482937L852.5469625159474,42.43229836066609L855.0546493049044,106.40769703637949L857.5623360938615,113.10855916116545L860.0700228828186,155.905188402498L862.5777096717758,101.83162066761258L865.0853964607329,128.28901106687383L867.5930832496899,126.81881300533908L870.1007700386472,135.84671688900946L872.6084568276043,124.93093022689621L875.1161436165613,100.39524628633993L877.6238304055184,127.6867711777445L880.1315171944756,121.93756882763537L882.6392039834327,192.06709350641316L885.1468907723898,135.54779239630767L887.654577561347,135.3971295122193L890.1622643503041,110.92353569465934L892.6699511392611,102.62335549565454L895.1776379282182,147.52892207487113L897.6853247171755,222.8022189486406L900.1930115061325,41.863264680962445L902.7006982950896,185.14572568515177L905.2083850840468,137.07212206783592L907.7160718730039,112.18688102599076L910.223758661961,97.87075107553997L912.731445450918,168.3995735618745L915.2391322398752,183.21681540002183L917.7468190288324,71.01715022290416L920.2545058177894,153.49746378765363L922.7621926067466,156.84394989748048L925.2698793957037,146.34296642170537L927.7775661846608,172.7849886579266L930.285252973618,76.43127173244514L932.792939762575,179.2234942851014L935.3006265515321,126.79356530891621L937.8083133404893,55.09333203800737L940.3160001294464,128.5647460992742L942.8236869184035,151.22860150313477L945.3313737073605,138.9779801084059L947.8390604963178,146.8594464724419L950.3467472852749,48.61475941433546L952.8544340742319,192.7217498087681L955.3621208631891,138.55864880260066L957.8698076521463,140.84946560574807L960.3774944411033,46.89537756636673L962.8851812300604,117.91289391579849L965.3928680190176,147.74249837640446L967.9005548079747,81.21941502958967L970.4082415969318,143.74883422213048L972.9159283858888,164.21257242792782L975.4236151748461,73.11991285242394L977.9313019638032,141.28690938942185L980.4389887527602,89.49023105992882L982.9466755417174,60.31521429380712L985.4543623306745,154.74173613092648L987.9620491196316,109.83788474847772L990.4697359085887,75.78958231765516L992.9774226975458,37.21508144007489L995.485109486503,125.34113668589646L997.9927962754601,136.20930948573405L1000.5004830644172,161.18723976091414L1003.0081698533743,88.25508356346094L1005.5158566423314,142.41159821403986L1008.0235434312885,53.55171318305911L1010.5312302202457,151.5165487365223L1013.0389170092028,136.65011505507283L1015.5466037981599,163.44491896250653L1018.054290587117,113.8178273286089L1020.5619773760741,88.03553837717546L1023.0696641650313,113.4242925821922L1025.5773509539883,205.88286625574526L1028.0850377429454,135.00469249173403L1030.5927245319026,156.36499835202463L1033.1004113208598,108.51869261038496L1035.6080981098169,86.56719272815002L1038.1157848987739,168.02332799887773L1040.6234716877311,99.58416403875655L1043.1311584766881,80.61580298304607L1045.6388452656454,132.62509710388244L1048.1465320546024,59.97882990369536" style="fill: none;" fill="none"></path></g></g></g></g></g></g><g transform="translate(30, 378)" clip-path="url(#clip_1)"><clipPath id="clip_1"><rect width="1081" height="22"></rect></clipPath><g><g><line x1="45.07181647175574" y1="0" x2="45.07181647175574" y2="5" style="visibility: inherit;" fill="rgb(0, 0, 0)" stroke="rgb(204, 204, 204)" stroke-width="1px"></line><line x1="145.3792880300404" y1="0" x2="145.3792880300404" y2="5" style="visibility: inherit;" fill="rgb(0, 0, 0)" stroke="rgb(204, 204, 204)" stroke-width="1px"></line><line x1="245.6867595883251" y1="0" x2="245.6867595883251" y2="5" style="visibility: inherit;" fill="rgb(0, 0, 0)" stroke="rgb(204, 204, 204)" stroke-width="1px"></line><line x1="345.99423114660976" y1="0" x2="345.99423114660976" y2="5" style="visibility: inherit;" fill="rgb(0, 0, 0)" stroke="rgb(204, 204, 204)" stroke-width="1px"></line><line x1="446.30170270489435" y1="0" x2="446.30170270489435" y2="5" style="visibility: inherit;" fill="rgb(0, 0, 0)" stroke="rgb(204, 204, 204)" stroke-width="1px"></line><line x1="546.609174263179" y1="0" x2="546.609174263179" y2="5" style="visibility: inherit;" fill="rgb(0, 0, 0)" stroke="rgb(204, 204, 204)" stroke-width="1px"></line><line x1="646.9166458214638" y1="0" x2="646.9166458214638" y2="5" style="visibility: inherit;" fill="rgb(0, 0, 0)" stroke="rgb(204, 204, 204)" stroke-width="1px"></line><line x1="747.2241173797483" y1="0" x2="747.2241173797483" y2="5" style="visibility: inherit;" fill="rgb(0, 0, 0)" stroke="rgb(204, 204, 204)" stroke-width="1px"></line><line x1="847.531588938033" y1="0" x2="847.531588938033" y2="5" style="visibility: inherit;" fill="rgb(0, 0, 0)" stroke="rgb(204, 204, 204)" stroke-width="1px"></line><line x1="947.8390604963178" y1="0" x2="947.8390604963178" y2="5" style="visibility: inherit;" fill="rgb(0, 0, 0)" stroke="rgb(204, 204, 204)" stroke-width="1px"></line><line x1="1048.1465320546024" y1="0" x2="1048.1465320546024" y2="5" style="visibility: inherit;" fill="rgb(0, 0, 0)" stroke="rgb(204, 204, 204)" stroke-width="1px"></line></g><g transform="translate(0, 8)"><text x="45.07181647175574" y="0" dx="0em" dy="0.95em" style="text-anchor: middle; visibility: inherit; font-family: Roboto, sans-serif; font-size: 12px; font-weight: 200;" fill="rgb(50, 49, 63)" stroke="none" stroke-width="1px">0</text><text x="145.3792880300404" y="0" dx="0em" dy="0.95em" style="text-anchor: middle; visibility: inherit; font-family: Roboto, sans-serif; font-size: 12px; font-weight: 200;" fill="rgb(50, 49, 63)" stroke="none" stroke-width="1px">20k</text><text x="245.6867595883251" y="0" dx="0em" dy="0.95em" style="text-anchor: middle; visibility: inherit; font-family: Roboto, sans-serif; font-size: 12px; font-weight: 200;" fill="rgb(50, 49, 63)" stroke="none" stroke-width="1px">40k</text><text x="345.99423114660976" y="0" dx="0em" dy="0.95em" style="text-anchor: middle; visibility: inherit; font-family: Roboto, sans-serif; font-size: 12px; font-weight: 200;" fill="rgb(50, 49, 63)" stroke="none" stroke-width="1px">60k</text><text x="446.30170270489435" y="0" dx="0em" dy="0.95em" style="text-anchor: middle; visibility: inherit; font-family: Roboto, sans-serif; font-size: 12px; font-weight: 200;" fill="rgb(50, 49, 63)" stroke="none" stroke-width="1px">80k</text><text x="546.609174263179" y="0" dx="0em" dy="0.95em" style="text-anchor: middle; visibility: inherit; font-family: Roboto, sans-serif; font-size: 12px; font-weight: 200;" fill="rgb(50, 49, 63)" stroke="none" stroke-width="1px">100k</text><text x="646.9166458214638" y="0" dx="0em" dy="0.95em" style="text-anchor: middle; visibility: inherit; font-family: Roboto, sans-serif; font-size: 12px; font-weight: 200;" fill="rgb(50, 49, 63)" stroke="none" stroke-width="1px">120k</text><text x="747.2241173797483" y="0" dx="0em" dy="0.95em" style="text-anchor: middle; visibility: inherit; font-family: Roboto, sans-serif; font-size: 12px; font-weight: 200;" fill="rgb(50, 49, 63)" stroke="none" stroke-width="1px">140k</text><text x="847.531588938033" y="0" dx="0em" dy="0.95em" style="text-anchor: middle; visibility: inherit; font-family: Roboto, sans-serif; font-size: 12px; font-weight: 200;" fill="rgb(50, 49, 63)" stroke="none" stroke-width="1px">160k</text><text x="947.8390604963178" y="0" dx="0em" dy="0.95em" style="text-anchor: middle; visibility: inherit; font-family: Roboto, sans-serif; font-size: 12px; font-weight: 200;" fill="rgb(50, 49, 63)" stroke="none" stroke-width="1px">180k</text><text x="1048.1465320546024" y="0" dx="0em" dy="0.95em" style="text-anchor: middle; visibility: inherit; font-family: Roboto, sans-serif; font-size: 12px; font-weight: 200;" fill="rgb(50, 49, 63)" stroke="none" stroke-width="1px">200k</text></g><line x1="0" y1="0" x2="1081.81875" y2="0" fill="rgb(0, 0, 0)" stroke="rgb(204, 204, 204)" stroke-width="1px"></line></g></g></g></g></svg>