<svg viewBox="0 0 1112.5999755859375 400" xmlns="http://www.w3.org/2000/svg"><g><g><g><g><g><line x1="51.5625" y1="359.9477616569032" x2="46.5625" y2="359.9477616569032" style="visibility: inherit;" fill="rgb(0, 0, 0)" stroke="rgb(204, 204, 204)" stroke-width="1px"></line><line x1="51.5625" y1="309.7595229780761" x2="46.5625" y2="309.7595229780761" style="visibility: inherit;" fill="rgb(0, 0, 0)" stroke="rgb(204, 204, 204)" stroke-width="1px"></line><line x1="51.5625" y1="259.5712842992491" x2="46.5625" y2="259.5712842992491" style="visibility: inherit;" fill="rgb(0, 0, 0)" stroke="rgb(204, 204, 204)" stroke-width="1px"></line><line x1="51.5625" y1="209.38304562042202" x2="46.5625" y2="209.38304562042202" style="visibility: inherit;" fill="rgb(0, 0, 0)" stroke="rgb(204, 204, 204)" stroke-width="1px"></line><line x1="51.5625" y1="159.194806941595" x2="46.5625" y2="159.194806941595" style="visibility: inherit;" fill="rgb(0, 0, 0)" stroke="rgb(204, 204, 204)" stroke-width="1px"></line><line x1="51.5625" y1="109.00656826276796" x2="46.5625" y2="109.00656826276796" style="visibility: inherit;" fill="rgb(0, 0, 0)" stroke="rgb(204, 204, 204)" stroke-width="1px"></line><line x1="51.5625" y1="58.81832958394092" x2="46.5625" y2="58.81832958394092" style="visibility: inherit;" fill="rgb(0, 0, 0)" stroke="rgb(204, 204, 204)" stroke-width="1px"></line><line x1="51.5625" y1="8.63009090511389" x2="46.5625" y2="8.63009090511389" style="visibility: inherit;" fill="rgb(0, 0, 0)" stroke="rgb(204, 204, 204)" stroke-width="1px"></line></g><g transform="translate(41.5625, 0)"><text x="0" y="359.9477616569032" dx="0em" dy="0.3em" style="text-anchor: end; visibility: inherit; font-family: Roboto, sans-serif; font-size: 12px; font-weight: 200;" fill="rgb(50, 49, 63)" stroke="none" stroke-width="1px">0</text><text x="0" y="309.7595229780761" dx="0em" dy="0.3em" style="text-anchor: end; visibility: inherit; font-family: Roboto, sans-serif; font-size: 12px; font-weight: 200;" fill="rgb(50, 49, 63)" stroke="none" stroke-width="1px">1e-3</text><text x="0" y="259.5712842992491" dx="0em" dy="0.3em" style="text-anchor: end; visibility: inherit; font-family: Roboto, sans-serif; font-size: 12px; font-weight: 200;" fill="rgb(50, 49, 63)" stroke="none" stroke-width="1px">2e-3</text><text x="0" y="209.38304562042202" dx="0em" dy="0.3em" style="text-anchor: end; visibility: inherit; font-family: Roboto, sans-serif; font-size: 12px; font-weight: 200;" fill="rgb(50, 49, 63)" stroke="none" stroke-width="1px">3e-3</text><text x="0" y="159.194806941595" dx="0em" dy="0.3em" style="text-anchor: end; visibility: inherit; font-family: Roboto, sans-serif; font-size: 12px; font-weight: 200;" fill="rgb(50, 49, 63)" stroke="none" stroke-width="1px">4e-3</text><text x="0" y="109.00656826276796" dx="0em" dy="0.3em" style="text-anchor: end; visibility: inherit; font-family: Roboto, sans-serif; font-size: 12px; font-weight: 200;" fill="rgb(50, 49, 63)" stroke="none" stroke-width="1px">5e-3</text><text x="0" y="58.81832958394092" dx="0em" dy="0.3em" style="text-anchor: end; visibility: inherit; font-family: Roboto, sans-serif; font-size: 12px; font-weight: 200;" fill="rgb(50, 49, 63)" stroke="none" stroke-width="1px">6e-3</text><text x="0" y="8.63009090511389" dx="0em" dy="0.3em" style="text-anchor: end; visibility: inherit; font-family: Roboto, sans-serif; font-size: 12px; font-weight: 200;" fill="rgb(50, 49, 63)" stroke="none" stroke-width="1px">7e-3</text></g><line x1="51.5625" y1="0" x2="51.5625" y2="378" fill="rgb(0, 0, 0)" stroke="rgb(204, 204, 204)" stroke-width="1px"></line></g></g><g transform="translate(51, 0)" clip-path="url(#clip_0)"><clipPath id="clip_0"><rect width="1061" height="378"></rect></clipPath><g><g><g><line x1="83.65077853590836" y1="0" x2="83.65077853590836" y2="378" fill="rgb(0, 0, 0)" stroke="rgb(60, 60, 60)" stroke-width="1px" opacity="0.25"></line><line x1="176.20714881865527" y1="0" x2="176.20714881865527" y2="378" fill="rgb(0, 0, 0)" stroke="rgb(60, 60, 60)" stroke-width="1px" opacity="0.25"></line><line x1="268.76351910140215" y1="0" x2="268.76351910140215" y2="378" fill="rgb(0, 0, 0)" stroke="rgb(60, 60, 60)" stroke-width="1px" opacity="0.25"></line><line x1="361.31988938414906" y1="0" x2="361.31988938414906" y2="378" fill="rgb(0, 0, 0)" stroke="rgb(60, 60, 60)" stroke-width="1px" opacity="0.25"></line><line x1="453.876259666896" y1="0" x2="453.876259666896" y2="378" fill="rgb(0, 0, 0)" stroke="rgb(60, 60, 60)" stroke-width="1px" opacity="0.25"></line><line x1="546.4326299496428" y1="0" x2="546.4326299496428" y2="378" fill="rgb(0, 0, 0)" stroke="rgb(60, 60, 60)" stroke-width="1px" opacity="0.25"></line><line x1="638.9890002323897" y1="0" x2="638.9890002323897" y2="378" fill="rgb(0, 0, 0)" stroke="rgb(60, 60, 60)" stroke-width="1px" opacity="0.25"></line><line x1="731.5453705151366" y1="0" x2="731.5453705151366" y2="378" fill="rgb(0, 0, 0)" stroke="rgb(60, 60, 60)" stroke-width="1px" opacity="0.25"></line><line x1="824.1017407978835" y1="0" x2="824.1017407978835" y2="378" fill="rgb(0, 0, 0)" stroke="rgb(60, 60, 60)" stroke-width="1px" opacity="0.25"></line><line x1="916.6581110806304" y1="0" x2="916.6581110806304" y2="378" fill="rgb(0, 0, 0)" stroke="rgb(60, 60, 60)" stroke-width="1px" opacity="0.25"></line><line x1="1009.2144813633773" y1="0" x2="1009.2144813633773" y2="378" fill="rgb(0, 0, 0)" stroke="rgb(60, 60, 60)" stroke-width="1px" opacity="0.25"></line></g><g><line x1="0" y1="359.9477616569032" x2="1061.0375" y2="359.9477616569032" fill="rgb(0, 0, 0)" stroke="rgb(60, 60, 60)" stroke-width="1px" opacity="0.25"></line><line x1="0" y1="309.7595229780761" x2="1061.0375" y2="309.7595229780761" fill="rgb(0, 0, 0)" stroke="rgb(60, 60, 60)" stroke-width="1px" opacity="0.25"></line><line x1="0" y1="259.5712842992491" x2="1061.0375" y2="259.5712842992491" fill="rgb(0, 0, 0)" stroke="rgb(60, 60, 60)" stroke-width="1px" opacity="0.25"></line><line x1="0" y1="209.38304562042202" x2="1061.0375" y2="209.38304562042202" fill="rgb(0, 0, 0)" stroke="rgb(60, 60, 60)" stroke-width="1px" opacity="0.25"></line><line x1="0" y1="159.194806941595" x2="1061.0375" y2="159.194806941595" fill="rgb(0, 0, 0)" stroke="rgb(60, 60, 60)" stroke-width="1px" opacity="0.25"></line><line x1="0" y1="109.00656826276796" x2="1061.0375" y2="109.00656826276796" fill="rgb(0, 0, 0)" stroke="rgb(60, 60, 60)" stroke-width="1px" opacity="0.25"></line><line x1="0" y1="58.81832958394092" x2="1061.0375" y2="58.81832958394092" fill="rgb(0, 0, 0)" stroke="rgb(60, 60, 60)" stroke-width="1px" opacity="0.25"></line><line x1="0" y1="8.63009090511389" x2="1061.0375" y2="8.63009090511389" fill="rgb(0, 0, 0)" stroke="rgb(60, 60, 60)" stroke-width="1px" opacity="0.25"></line></g></g></g><g><g><line x1="0" y1="359.9477616569032" x2="1061.0375" y2="359.9477616569032" fill="rgb(0, 0, 0)" stroke="rgb(153, 153, 153)" stroke-width="1.5px"></line></g></g><g><g><line x1="83.65077853590836" y1="0" x2="83.65077853590836" y2="378" fill="rgb(0, 0, 0)" stroke="rgb(153, 153, 153)" stroke-width="1.5px"></line></g></g><g><g><g><g><g><path stroke="rgb(255, 112, 67)" stroke-width="2px" d="M97.53423407832038,-121.43019293458431L99.84814333538905,18.27926167314267L102.16205259245773,14.141216461060521L104.4759618495264,103.2141675778898L106.78987110659509,92.17842024343499L109.10378036366374,119.37539218644704L111.41768962073242,137.29357199192387L113.73159887780109,169.8114962562508L116.04550813486976,142.6677911819807L118.35941739193844,200.27232766981055L120.67332664900711,226.61417295281942L122.98723590607578,248.6269773855759L125.30114516314445,269.68835902710174L127.61505442021313,261.4983423517977L129.9289636772818,186.22882198047125L132.2428729343505,213.17598007718513L134.55678219141916,185.43837785004396L136.8706914484878,191.5218318157174L139.1846007055565,141.7628942999758L141.49850996262518,201.4739274549756L143.81241921969382,236.43591888813262L146.12632847676252,266.4161298322702L148.44023773383117,251.02363569956964L150.75414699089987,268.56349870537156L153.0680562479685,236.33474059384787L155.38196550503721,240.5806359915343L157.69587476210586,245.4106791493017L160.00978401917456,257.16155251851177L162.3236932762432,233.91201232923905L164.63760253331188,215.15997475406027L166.95151179038058,200.18180024752277L169.26542104744922,195.35594477895455L171.57933030451792,199.123138625131L173.89323956158657,226.75693330232602L176.20714881865527,264.9941877670711L178.52105807572391,286.74752934652986L180.83496733279262,301.5197980535624L183.14887658986126,303.0834002377361L185.46278584692993,311.14342967672184L187.7766951039986,279.46159333502084L190.09060436106728,246.77260427277992L192.40451361813598,232.13558495136115L194.71842287520462,217.78752425146342L197.03233213227332,245.04629011661027L199.34624138934197,211.134414865204L201.66015064641067,204.2295247966614L203.97405990347931,210.45857698038756L206.287969160548,253.6842983114824L208.60187841761666,284.59235071900383L210.91578767468533,301.89271353469275L213.22969693175403,288.30809497609675L215.54360618882268,272.6621961039265L217.85751544589138,255.45873085785271L220.17142470296002,252.18148877702563L222.48533396002873,271.07739051709194L224.79924321709737,292.1324137658723L227.11315247416604,280.2549739678244L229.42706173123472,304.6579972913623L231.7409709883034,311.32557210657797L234.05488024537206,273.0039075106206L236.36878950244073,270.0002453334925L238.68269875950944,265.5512251976319L240.99660801657808,263.9982370765812L243.31051727364678,287.9571839672826L245.62442653071543,286.5328797911971L247.93833578778413,303.8468666568709L250.25224504485277,312.94939242289166L252.56615430192144,299.2688522102711L254.88006355899012,285.94462843320514L257.1939728160588,288.4450010298089L259.50788207312746,290.23195527523245L261.82179133019616,287.26861915762333L264.1357005872648,266.17719484312875L266.4496098443335,267.66736793798333L268.76351910140215,284.47250324832464L271.07742835847085,250.24680299994552L273.3913376155395,264.2964537839262L275.70524687260814,294.3250037031111L278.01915612967684,290.2467230386993L280.33306538674555,282.39242211426745L282.6469746438142,284.9125955733685L284.96088390088283,257.8438143700069L287.27479315795154,291.4935649070371L289.58870241502024,303.2626480660435L291.90261167208894,314.515713686493L294.2165209291575,302.0092911563145L296.5304301862262,289.7328328293817L298.8443394432949,269.2456097455594L301.1582487003636,284.55668549130525L303.4721579574322,247.84142829716848L305.7860672145009,263.54613808623816L308.0999764715696,269.5645278311943L310.41388572863826,279.76927374008824L312.72779498570696,302.6582616696736L315.0417042427756,295.7547946609121L317.35561349984425,310.2384700280642L319.66952275691295,322.1334512274499L321.98343201398166,299.19085525925163L324.2973412710503,292.04275672867306L326.61125052811894,300.4750513342843L328.92515978518765,311.4470893388353L331.23906904225635,308.7993510654407L333.55297829932493,306.24290088541494L335.86688755639364,302.74782774427865L338.18079681346234,298.4160475845033L340.49470607053104,302.65587377230423L342.8086153275997,307.0907586959817L345.1225245846683,319.14072560110554L347.436433841737,315.19142474424063L349.75034309880573,319.9699494966543L352.0642523558744,295.0071878027581L354.378161612943,308.9193325770392L356.6920708700117,315.1571841123517L359.00598012708036,304.37950437610397L361.31988938414906,315.72375249941285L363.63379864121777,324.3639920063177L365.9477078982864,305.8059821079576L368.26161715535505,318.9023673423179L370.57552641242376,317.07865460261326L372.88943566949246,320.5628397823973L375.20334492656104,289.4386641818395L377.51725418362975,299.9897067102862L379.83116344069845,302.82429456249145L382.14507269776715,318.9613126881465L384.4589819548358,326.8933809169435L386.77289121190444,297.5297834449768L389.08680046897314,306.3746801487994L391.40070972604184,297.7354040326071L393.7146189831105,312.01250004736335L396.0285282401791,323.80399820613144L398.34243749724783,306.1267871896853L400.6563467543165,303.615685301145L402.9702560113852,308.080703487994L405.2841652684538,278.87715171082004L407.5980745255225,274.64230551712154L409.91198378259116,279.86213143172216L412.22589303965987,275.31980708033274L414.53980229672857,273.5037765264071L416.8537115537972,283.81648700698497L419.16762081086586,264.90749852393753L421.48153006793456,243.10522740657447L423.79543932500326,269.52995857134863L426.10934858207185,259.4112102595966L428.42325783914055,269.2883484845517L430.73716709620925,267.0832171385392L433.05107635327795,275.9942419828944L435.3649856103466,269.6827519075288L437.67889486741524,267.0958742134663L439.99280412448394,291.9360455926714L442.3067133815526,308.7458039264213L444.6206226386213,320.12569100956364L446.93453189568993,314.07743285427654L449.24844115275863,287.72365471417993L451.5623504098273,306.9763437758497L453.876259666896,297.0383606435812L456.1901689239647,283.7993775935103L458.5040781810333,289.06384958180035L460.81798743810197,269.49035008817526L463.13189669517067,277.8581103082318L465.44580595223937,301.9868171308769L467.75971520930796,304.2734525034464L470.07362446637666,318.9159693889592L472.38753372344536,292.3237619950622L474.70144298051406,276.0196529359678L477.01535223758265,297.87468715871984L479.32926149465135,312.928992445248L481.64317075172005,323.9103652924476L483.95708000878875,307.23047827206256L486.2709892658574,318.581800618997L488.58489852292604,325.49803920942674L490.89880777999474,304.27477377421036L493.2127170370634,299.6857581037761L495.5266262941321,315.6437462767449L497.84053555120073,321.9082052554395L500.15444480826943,332.69843612939235L502.4683540653381,338.0403848057005L504.7822633224068,306.3381400881376L507.0961725794755,281.36523846447307L509.41008183654407,288.53720631616477L511.72399109361277,312.6073415680131L514.0379003506814,324.92577127312677L516.3518096077502,330.24520934442904L518.6657188648188,315.8522734192477L520.9796281218875,318.70572600218753L523.2935373789561,317.39241463401095L525.6074466360249,307.75362421403696L527.9213558930935,306.9471751319765L530.2352651501621,282.23460232248993L532.5491744072308,309.11628452265614L534.8630836642994,310.1069042296164L537.1769929213682,321.3259827260408L539.4909021784368,314.637541824041L541.8048114355056,290.22323643951955L544.1187206925742,274.7763094193834L546.4326299496428,274.3617203939898L548.7465392067115,291.88947850248366L551.0604484637802,303.73373281536556L553.3743577208489,318.4201991903148L555.6882669779176,311.4911741325967L558.0021762349862,309.6461586121295L560.316085492055,313.35668198047773L562.6299947491236,292.95402776194874L564.9439040061922,301.98444572433215L567.2578132632609,301.82816517216327L569.5717225203296,316.13763241685683L571.8856317773983,314.5403886510681L574.199541034467,304.75492735414736L576.5134502915356,288.5710306536886L578.8273595486044,286.93508235801136L581.1412688056729,295.0184476945157L583.4551780627417,284.65665699839417L585.7690873198103,293.82840231074454L588.0829965768789,276.6839996933745L590.3969058339477,298.1963132305769L592.7108150910163,309.30464320542825L595.024724348085,306.00285183180216L597.3386336051536,285.6676312669482L599.6525428622223,293.1643021380956L601.966452119291,301.37126126866616L604.2803613763597,291.53254565792804L606.5942706334283,292.64133151937057L608.908179890497,282.87925391320783L611.2220891475657,304.8533743625119L613.5359984046343,290.7021094857623L615.8499076617029,294.8697106650933L618.1638169187717,293.82489811826605L620.4777261758403,311.1276955644754L622.7916354329091,294.269827263085L625.1055446899777,302.00509184352114L627.4194539470463,284.52128594782994L629.7333632041151,288.09916847058673L632.0472724611836,283.8239186457819L634.3611817182523,292.1440320729338L636.675090975321,290.4448316715146L638.9890002323897,295.58213359313663L641.3029094894584,293.1430536471029L643.6168187465271,273.1184584620461L645.9307280035957,287.0653599462268L648.2446372606644,279.75121731486746L650.558546517733,285.6429504923847L652.8724557748018,256.7434346779258L655.1863650318704,270.65452356884936L657.5002742889391,299.41813922995533L659.8141835460078,289.373729273315L662.1280928030765,300.87223104591976L664.4420020601451,293.81714388139034L666.7559113172138,294.16468956858375L669.0698205742824,293.42979944812635L671.3837298313512,286.487142804258L673.6976390884198,289.7731485892656L676.0115483454884,283.61249409629875L678.3254576025572,283.3962750207603L680.6393668596257,270.1049137150741L682.9532761166945,286.84073024261755L685.2671853737631,309.5445918485833L687.5810946308318,307.09639673514414L689.8950038879005,291.2501400171943L692.2089131449692,306.04047117117284L694.522822402038,291.71491035384014L696.8367316591065,292.8058514830631L699.1506409161751,267.20071544952276L701.4645501732439,284.77486101492246L703.7784594303125,280.1363709131935L706.0923686873812,288.5955162342479L708.4062779444499,297.57498168053553L710.7201872015186,301.08638944812475L713.0340964585873,313.39815707985997L715.3480057156559,304.1627113816607L717.6619149727245,310.2890655018348L719.9758242297933,304.41933181792234L722.2897334868619,301.88980536037855L724.6036427439307,290.6548620219576L726.9175520009993,300.0854736052964L729.231461258068,305.6683040517342L731.5453705151366,318.8891762206256L733.8592797722052,313.19237364780554L736.173189029274,277.36886331126954L738.4870982863426,261.9686068672371L740.8010075434113,290.2246801215209L743.11491680048,288.3609227563889L745.4288260575487,308.01890289714197L747.7427353146172,315.4669334070947L750.056644571686,285.5446121817509L752.3705538287546,293.23545926208817L754.6844630858234,283.8906435665155L756.998372342892,302.9510452916646L759.3122815999607,283.93110994944544L761.6261908570294,304.86292966792L763.940100114098,317.09070006237414L766.2540093711667,301.3282312662388L768.5679186282354,311.96021608104724L770.881827885304,300.2566957805858L773.1957371423728,280.10889323290183L775.5096463994414,287.1157257565173L777.82355565651,279.8602592278154L780.1374649135788,284.63547263415694L782.4513741706473,290.4698740031963L784.7652834277161,290.12289973598115L787.0791926847847,309.9629687565239L789.3931019418534,310.90818107919904L791.7070111989221,276.688732856342L794.0209204559908,298.7594813272709L796.3348297130595,296.8169033567303L798.6487389701281,308.7488326402973L800.9626482271967,299.41135979874224L803.2765574842655,307.4930203283995L805.5904667413341,299.66278064532406L807.9043759984029,302.9588860247049L810.2182852554715,288.67965451612747L812.5321945125402,306.86000962567454L814.8461037696088,323.27069566481526L817.1600130266775,304.5928463422877L819.4739222837461,307.0374883578307L821.7878315408149,314.14789108164763L824.1017407978835,327.2527029117103L826.4156500549523,331.16276578311033L828.7295593120209,332.35275799561947L831.0434685690894,329.8574591996192L833.3573778261582,310.78186329371954L835.6712870832268,297.51649925798927L837.9851963402956,301.0345034582545L840.2991055973642,298.772784522373L842.6130148544329,287.91058693455096L844.9269241115016,290.97199862296253L847.2408333685702,293.56748724658405L849.5547426256388,295.1193373801083L851.8686518827076,295.5102613161956L854.1825611397762,301.3279614547766L856.496470396845,272.3255452647232L858.8103796539136,277.50483597278605L861.1242889109823,275.7192009891108L863.438198168051,285.44605309736215L865.7521074251196,289.2189528112743L868.0660166821883,292.21285235393816L870.379925939257,247.48149868425648L872.6938351963256,286.44062803810897L875.0077444533944,285.4577175815605L877.321653710463,290.52686859874785L879.6355629675318,301.3859993741323L881.9494722246003,309.24953835236045L884.263381481669,285.7346040522543L886.5772907387377,284.9082308301105L888.8911999958063,304.56319542107815L891.205109252875,288.1533850764047L893.5190185099437,290.19068024305443L895.8329277670124,298.7161712459274L898.146837024081,280.76690712068915L900.4607462811497,301.8839451210724L902.7746555382183,296.8600463647281L905.0885647952871,304.7276027122287L907.4024740523557,310.6697065182498L909.7163833094245,306.20064467080647L912.0302925664931,287.4574443142905L914.3442018235617,289.01982840712475L916.6581110806304,294.5647308394698L918.9720203376991,312.52167338512294L921.2859295947677,287.18197643164484L923.5998388518365,297.7281505823364L925.9137481089051,292.3208393888813L928.2276573659739,309.5539989163778L930.5415666230424,304.2010101524926L932.855475880111,294.2794061073373L935.1693851371798,299.57498614547427L937.4832943942484,288.11195706677347L939.7972036513172,287.3868134792565L942.1111129083858,308.5771071939662L944.4250221654545,297.64780450502303L946.7389314225233,306.1031865256081L949.0528406795918,314.6638179218445L951.3667499366605,296.3074642431385L953.6806591937292,304.95281877195015L955.9945684507978,318.6294197600164L958.3084777078666,329.1861171958304L960.6223869649352,310.31269693248646L962.9362962220039,307.28601453698474L965.2502054790725,282.2100180764238L967.5641147361412,299.10969821603686L969.8780239932099,303.0576864843844L972.1919332502786,312.10406902078626L974.5058425073472,302.4489010410951L976.819751764416,299.34043223340655L979.1336610214846,290.7562876939882L981.4475702785533,302.2329171220643L983.7614795356219,301.9893026280913L986.0753887926905,308.3777671509672L988.3892980497593,259.0703769113265L990.703207306828,266.67254874924566L993.0171165638966,279.48792268187117L995.3310258209654,290.52184527297237L997.6449350780339,303.28746066354233L999.9588443351026,289.5062335483473L1002.2727535921713,294.84770239895556L1004.5866628492399,304.97162553957475L1006.9005721063087,299.60923722606185L1009.2144813633773,308.8704762268431" style="fill: none;" fill="none"></path></g></g></g></g><g opacity="0.2"><g><g><g><path stroke="rgb(255, 112, 67)" stroke-width="2px" d="M95.22032482125171,-70.76838821493688L97.53423407832038,210.91902644574742L99.84814333538905,221.9769877019726L102.16205259245773,8.038403547141252L104.4759618495264,235.47711906836636L106.78987110659509,75.72489265784526L109.10378036366374,160.0228453806696L111.41768962073242,164.11233573419827L113.73159887780109,218.52467665391336L116.04550813486976,101.98413997695474L118.35941739193844,286.6385052194052L120.67332664900711,266.1157938912265L122.98723590607578,281.6405949860498L125.30114516314445,301.2772229998802L127.61505442021313,249.2140659388065L129.9289636772818,73.32866938286422L132.2428729343505,253.5958305145403L134.55678219141916,143.83252213990198L136.8706914484878,200.64694069991575L139.1846007055565,67.12484169159481L141.49850996262518,291.0402225471946L143.81241921969382,288.8788165797144L146.12632847676252,311.38640022179067L148.44023773383117,227.93490867918138L150.75414699089987,294.87328352005875L153.0680562479685,187.99161411396904L155.38196550503721,246.94947824327295L157.69587476210586,252.65574330934268L160.00978401917456,274.7878617306358L162.3236932762432,199.03770304452007L164.63760253331188,187.03191887483337L166.95151179038058,177.7145387194534L169.26542104744922,188.1171616209006L171.57933030451792,204.77392937341304L173.89323956158657,268.2076252257701L176.20714881865527,322.35006938751815L178.52105807572391,319.37754168954723L180.83496733279262,323.67820110344786L183.14887658986126,305.42880351331956L185.46278584692993,323.2334738331059L187.7766951039986,231.93883882740917L190.09060436106728,197.73912068247654L192.40451361813598,210.1800559700546L194.71842287520462,196.2654332021001L197.03233213227332,285.9344389137798L199.34624138934197,160.2666019885058L201.66015064641067,193.87218969389752L203.97405990347931,219.80215525594957L206.287969160548,318.5228803080115L208.60187841761666,330.9544293302374L210.91578767468533,327.84325775820975L213.22969693175403,267.9311671382105L215.54360618882268,249.19334779567643L217.85751544589138,229.65353298874552L220.17142470296002,247.26562565578533L222.48533396002873,299.42124312718994L224.79924321709737,323.71494863904195L227.11315247416604,262.4388142707529L229.42706173123472,341.26253227666854L231.7409709883034,321.32693432940147L234.05488024537206,215.52141061668482L236.36878950244073,265.4947520678003L238.68269875950944,258.87769499384103L240.99660801657808,261.668754895005L243.31051727364678,323.8956043033348L245.62442653071543,284.3964235270688L247.93833578778413,329.8178469553817L250.25224504485277,326.60318107192285L252.56615430192144,278.74804189134016L254.88006355899012,265.9582927676061L257.1939728160588,292.19555992471464L259.50788207312746,292.9123866433677L261.82179133019616,282.8236149812095L264.1357005872648,234.54005837138686L266.4496098443335,269.9026275802651L268.76351910140215,309.68020621383664L271.07742835847085,198.9082526273768L273.3913376155395,285.3709299598973L275.70524687260814,339.3678285818885L278.01915612967684,284.12930204208163L280.33306538674555,270.6109707276196L282.6469746438142,288.69285576202003L284.96088390088283,217.24064256496453L287.27479315795154,341.96819071258244L289.58870241502024,320.916272804553L291.90261167208894,331.39531211716724L294.2165209291575,283.24965736104673L296.5304301862262,271.31814533898256L298.8443394432949,238.51477511982603L301.1582487003636,307.5232991099239L303.4721579574322,192.7685425059634L305.7860672145009,287.10320276984265L308.0999764715696,278.5921124486285L310.41388572863826,295.0763926034291L312.72779498570696,336.9917435640517L315.0417042427756,285.39959414776985L317.35561349984425,331.96398307879235L319.66952275691295,339.9759230265284L321.98343201398166,264.7769613069542L324.2973412710503,281.3206089328052L326.61125052811894,313.1234932427012L328.92515978518765,327.9051463456619L331.23906904225635,304.82774365534885L333.55297829932493,302.4082256153763L335.86688755639364,297.5052180325742L338.18079681346234,291.9183773448403L340.49470607053104,309.0156130540056L342.8086153275997,313.74308608149784L345.1225245846683,337.2156759587914L347.436433841737,309.26747345894313L349.75034309880573,327.13773662527484L352.0642523558744,257.5630452619137L354.378161612943,329.78754973846094L356.6920708700117,324.51396141532035L359.00598012708036,288.21298477173235L361.31988938414906,332.7401246843762L363.63379864121777,337.324351266675L365.9477078982864,277.9689672604175L368.26161715535505,338.5469451938584L370.57552641242376,314.34308549305626L372.88943566949246,325.7891175520734L375.20334492656104,242.7524007810028L377.51725418362975,315.81627050295634L379.83116344069845,307.07617634079924L382.14507269776715,343.16683987662907L384.4589819548358,338.79148326013893L386.77289121190444,253.48438723702668L389.08680046897314,319.6420252045334L391.40070972604184,284.77648985831866L393.7146189831105,333.42814406949776L396.0285282401791,341.4912454442836L398.34243749724783,279.61097066501605L400.6563467543165,299.8490324683345L402.9702560113852,314.7782307682676L405.2841652684538,235.07182404505906L407.5980745255225,268.29003622657376L409.91198378259116,287.6918703036231L412.22589303965987,268.50632055324877L414.53980229672857,270.7797306955185L416.8537115537972,299.28555272785184L419.16762081086586,236.54401579936632L421.48153006793456,210.40182073052995L423.79543932500326,309.16705531850977L426.10934858207185,244.23308779196861L428.42325783914055,284.10405582198433L430.73716709620925,263.77552011952054L433.05107635327795,289.36077924942697L435.3649856103466,260.2155167944806L437.67889486741524,263.2155576723724L439.99280412448394,329.1963026614792L442.3067133815526,333.96044142704613L444.6206226386213,337.1955216342772L446.93453189568993,305.00504562134586L449.24844115275863,248.19298750403496L451.5623504098273,335.8553773683544L453.876259666896,282.13138594517847L456.1901689239647,263.9409030184039L458.5040781810333,296.96055756423533L460.81798743810197,240.13010084773762L463.13189669517067,290.40975063831667L465.44580595223937,338.17987736484446L467.75971520930796,307.70340556230065L470.07362446637666,340.8797447172284L472.38753372344536,252.43545090421676L474.70144298051406,251.5634893473262L477.01535223758265,330.6572384928479L479.32926149465135,335.5104503750403L481.64317075172005,340.38242456324696L483.95708000878875,282.210647741485L486.2709892658574,335.6087841393988L488.58489852292604,335.8723970950713L490.89880777999474,272.43987562138574L493.2127170370634,292.80223459812476L495.5266262941321,339.580728536198L497.84053555120073,331.3048937234815L500.15444480826943,348.88378244032157L502.4683540653381,346.05330782016273L504.7822633224068,258.7847730117934L507.0961725794755,243.9058860289762L509.41008183654407,299.2951580937023L511.72399109361277,348.7125444457856L514.0379003506814,343.4034158307972L516.3518096077502,338.22436645138254L518.6657188648188,294.2628695314757L520.9796281218875,322.98590487659726L523.2935373789561,315.4224475817461L525.6074466360249,293.29543858407595L527.9213558930935,305.7375015088858L530.2352651501621,245.16574310826L532.5491744072308,349.4388078229054L534.8630836642994,311.59283379005694L537.1769929213682,338.1546004706774L539.4909021784368,304.60488047104144L541.8048114355056,253.60177836273724L544.1187206925742,251.60591888917918L546.4326299496428,273.7398368558993L548.7465392067115,318.18111566522447L551.0604484637802,321.5001142846884L553.3743577208489,340.4498987527387L555.6882669779176,301.09763654601966L558.0021762349862,306.87863533142865L560.316085492055,318.9224670330001L562.6299947491236,262.3500464341553L564.9439040061922,315.5300726679073L567.2578132632609,301.59374434390986L569.5717225203296,337.6018332838972L571.8856317773983,312.144523002385L574.199541034467,290.07673540876635L576.5134502915356,264.29518560300033L578.8273595486044,284.4811599144956L581.1412688056729,307.14349569927214L583.4551780627417,269.1139709542118L585.7690873198103,307.58602027927003L588.0829965768789,250.96739576731952L590.3969058339477,330.4647835363805L592.7108150910163,325.96713816770523L595.024724348085,301.05016477136314L597.3386336051536,255.16480041966727L599.6525428622223,304.4093084448166L601.966452119291,313.68169996452207L604.2803613763597,276.77447224182083L606.5942706334283,294.30451031153433L608.908179890497,268.2361375039638L611.2220891475657,337.81455503646794L613.5359984046343,269.47521217063786L615.8499076617029,301.1211124340898L618.1638169187717,292.25767929802515L620.4777261758403,337.08189173378946L622.7916354329091,268.9830248109993L625.1055446899777,313.6079887141754L627.4194539470463,258.29557710429316L629.7333632041151,293.46599225472187L632.0472724611836,277.41104390857464L634.3611817182523,304.6242022136616L636.675090975321,287.89603106938586L638.9890002323897,303.2880864755697L641.3029094894584,289.4844337280522L643.6168187465271,243.081565684461L645.9307280035957,307.98571217249787L648.2446372606644,268.7800033678284L650.558546517733,294.48055025866057L652.8724557748018,213.39416095623753L655.1863650318704,291.5211569052346L657.5002742889391,342.56356272161435L659.8141835460078,274.3071143383545L662.1280928030765,318.11998370482684L664.4420020601451,283.2345131345963L666.7559113172138,294.6860080993739L669.0698205742824,292.3274642674402L671.3837298313512,276.07315783845553L673.6976390884198,294.702157266777L676.0115483454884,274.37151235684854L678.3254576025572,283.07194640745263L680.6393668596257,250.1678717565448L682.9532761166945,311.9444550339326L685.2671853737631,343.60038425753197L687.5810946308318,303.42410406498544L689.8950038879005,267.48075494026966L692.2089131449692,328.22596790214044L694.522822402038,270.2265691278411L696.8367316591065,294.4422631768976L699.1506409161751,228.79301139921222L701.4645501732439,311.136079363022L703.7784594303125,273.1786357606001L706.0923686873812,301.28423421582943L708.4062779444499,311.04417984996695L710.7201872015186,306.3535010995085L713.0340964585873,331.8658085274627L715.3480057156559,290.30954283436176L717.6619149727245,319.478596682096L719.9758242297933,295.6147312920537L722.2897334868619,298.0955156740629L724.6036427439307,273.8024470143263L726.9175520009993,314.2313909803045L729.231461258068,314.0425497213909L731.5453705151366,338.72048447396264L733.8592797722052,304.6471697885754L736.173189029274,223.63359780646545L738.4870982863426,238.8682222011885L740.8010075434113,332.6087900029466L743.11491680048,285.56528670869096L745.4288260575487,337.50587310827154L747.7427353146172,326.6389791720238L750.056644571686,240.66113034373512L752.3705538287546,304.7717298825941L754.6844630858234,269.8734200231565L756.998372342892,331.5416478793884L759.3122815999607,255.40120693611664L761.6261908570294,336.2606592456318L763.940100114098,335.4323556540554L766.2540093711667,277.6845280720357L768.5679186282354,327.90819330325985L770.881827885304,282.7014153298938L773.1957371423728,249.88718941137583L775.5096463994414,297.6259745419404L777.82355565651,268.9770594347625L780.1374649135788,291.79829274366926L782.4513741706473,299.2214760567555L784.7652834277161,289.60243833515835L787.0791926847847,339.72307228733797L789.3931019418534,312.3259995632118L791.7070111989221,225.35956052205646L794.0209204559908,331.8656040336642L796.3348297130595,293.9030364009194L798.6487389701281,326.6467265656478L800.9626482271967,285.4051505364097L803.2765574842655,319.61551112288527L805.5904667413341,287.917421120711L807.9043759984029,307.9030440937761L810.2182852554715,267.26080725326125L812.5321945125402,334.1305422899953L814.8461037696088,347.88672472352624L817.1600130266775,276.57607235849645L819.4739222837461,310.70445138114525L821.7878315408149,324.81349516737293L824.1017407978835,346.90992065680433L826.4156500549523,337.0278600902104L828.7295593120209,334.1377463143831L831.0434685690894,326.11451100561885L833.3573778261582,282.16846943487013L835.6712870832268,277.6184532043938L837.9851963402956,306.31150975865233L840.2991055973642,295.3802061185507L842.6130148544329,271.61729055281796L844.9269241115016,295.56411615557994L847.2408333685702,297.4607201820162L849.5547426256388,297.4471125803947L851.8686518827076,296.0966472203266L854.1825611397762,310.05451166264817L856.496470396845,228.82192097964304L858.8103796539136,285.2737720348803L861.1242889109823,273.0407485135978L863.438198168051,300.0363312597392L865.7521074251196,294.87830238214246L868.0660166821883,296.70370166793396L870.379925939257,180.38446817973394L872.6938351963256,344.87932206888763L875.0077444533944,283.98335189673776L877.321653710463,298.13059512452907L879.6355629675318,317.67469553720895L881.9494722246003,321.0448468197027L884.263381481669,250.46220260209506L886.5772907387377,283.6686709968948L888.8911999958063,334.0456423075296L891.205109252875,263.5386695593944L893.5190185099437,293.2466229930292L895.8329277670124,311.5044077502368L898.146837024081,253.84301093283173L900.4607462811497,333.5595021216473L902.7746555382183,289.32419823021166L905.0885647952871,316.52893723347955L907.4024740523557,319.5828622272815L909.7163833094245,299.4970518996414L912.0302925664931,259.34264377951666L914.3442018235617,291.3634045463761L916.6581110806304,302.8820844879875L918.9720203376991,339.4570872036026L921.2859295947677,249.17243100142775L923.5998388518365,313.54741180837374L925.9137481089051,284.20987259869867L928.2276573659739,335.4037382076225L930.5415666230424,296.17152700666475L932.855475880111,279.39700003960434L935.1693851371798,307.5183562026797L937.4832943942484,270.91741344872224L939.7972036513172,286.29909809798113L942.1111129083858,340.3625477660308L944.4250221654545,281.2538504716083L946.7389314225233,318.7862595564857L949.0528406795918,327.50476501619903L951.3667499366605,268.77293372507955L953.6806591937292,317.92085056516777L955.9945684507978,339.14432124211584L958.3084777078666,345.0211633495513L960.6223869649352,282.0025665374706L962.9362962220039,302.74599094373224L965.2502054790725,244.5960233855824L967.5641147361412,324.45921842545647L969.8780239932099,308.97966888690564L972.1919332502786,325.673642825389L974.5058425073472,287.96614907155845L976.819751764416,294.6777290218738L979.1336610214846,277.8800708848608L981.4475702785533,319.44786126417836L983.7614795356219,301.62388088713175L986.0753887926905,317.9604639352811L988.3892980497593,185.10929155186537L990.703207306828,278.0758065061244L993.0171165638966,298.71098358080934L995.3310258209654,307.0727291596242L997.6449350780339,322.4358837493972L999.9588443351026,268.8343928755548L1002.2727535921713,302.859905674868L1004.5866628492399,320.1575102505034L1006.9005721063087,291.5656547557926L1009.2144813633773,322.76233472801505" style="fill: none;" fill="none"></path></g></g></g></g></g></g><g transform="translate(51, 378)" clip-path="url(#clip_1)"><clipPath id="clip_1"><rect width="1061" height="22"></rect></clipPath><g><g><line x1="83.65077853590836" y1="0" x2="83.65077853590836" y2="5" style="visibility: inherit;" fill="rgb(0, 0, 0)" stroke="rgb(204, 204, 204)" stroke-width="1px"></line><line x1="176.20714881865527" y1="0" x2="176.20714881865527" y2="5" style="visibility: inherit;" fill="rgb(0, 0, 0)" stroke="rgb(204, 204, 204)" stroke-width="1px"></line><line x1="268.76351910140215" y1="0" x2="268.76351910140215" y2="5" style="visibility: inherit;" fill="rgb(0, 0, 0)" stroke="rgb(204, 204, 204)" stroke-width="1px"></line><line x1="361.31988938414906" y1="0" x2="361.31988938414906" y2="5" style="visibility: inherit;" fill="rgb(0, 0, 0)" stroke="rgb(204, 204, 204)" stroke-width="1px"></line><line x1="453.876259666896" y1="0" x2="453.876259666896" y2="5" style="visibility: inherit;" fill="rgb(0, 0, 0)" stroke="rgb(204, 204, 204)" stroke-width="1px"></line><line x1="546.4326299496428" y1="0" x2="546.4326299496428" y2="5" style="visibility: inherit;" fill="rgb(0, 0, 0)" stroke="rgb(204, 204, 204)" stroke-width="1px"></line><line x1="638.9890002323897" y1="0" x2="638.9890002323897" y2="5" style="visibility: inherit;" fill="rgb(0, 0, 0)" stroke="rgb(204, 204, 204)" stroke-width="1px"></line><line x1="731.5453705151366" y1="0" x2="731.5453705151366" y2="5" style="visibility: inherit;" fill="rgb(0, 0, 0)" stroke="rgb(204, 204, 204)" stroke-width="1px"></line><line x1="824.1017407978835" y1="0" x2="824.1017407978835" y2="5" style="visibility: inherit;" fill="rgb(0, 0, 0)" stroke="rgb(204, 204, 204)" stroke-width="1px"></line><line x1="916.6581110806304" y1="0" x2="916.6581110806304" y2="5" style="visibility: inherit;" fill="rgb(0, 0, 0)" stroke="rgb(204, 204, 204)" stroke-width="1px"></line><line x1="1009.2144813633773" y1="0" x2="1009.2144813633773" y2="5" style="visibility: inherit;" fill="rgb(0, 0, 0)" stroke="rgb(204, 204, 204)" stroke-width="1px"></line></g><g transform="translate(0, 8)"><text x="83.65077853590836" y="0" dx="0em" dy="0.95em" style="text-anchor: middle; visibility: inherit; font-family: Roboto, sans-serif; font-size: 12px; font-weight: 200;" fill="rgb(50, 49, 63)" stroke="none" stroke-width="1px">0</text><text x="176.20714881865527" y="0" dx="0em" dy="0.95em" style="text-anchor: middle; visibility: inherit; font-family: Roboto, sans-serif; font-size: 12px; font-weight: 200;" fill="rgb(50, 49, 63)" stroke="none" stroke-width="1px">20k</text><text x="268.76351910140215" y="0" dx="0em" dy="0.95em" style="text-anchor: middle; visibility: inherit; font-family: Roboto, sans-serif; font-size: 12px; font-weight: 200;" fill="rgb(50, 49, 63)" stroke="none" stroke-width="1px">40k</text><text x="361.31988938414906" y="0" dx="0em" dy="0.95em" style="text-anchor: middle; visibility: inherit; font-family: Roboto, sans-serif; font-size: 12px; font-weight: 200;" fill="rgb(50, 49, 63)" stroke="none" stroke-width="1px">60k</text><text x="453.876259666896" y="0" dx="0em" dy="0.95em" style="text-anchor: middle; visibility: inherit; font-family: Roboto, sans-serif; font-size: 12px; font-weight: 200;" fill="rgb(50, 49, 63)" stroke="none" stroke-width="1px">80k</text><text x="546.4326299496428" y="0" dx="0em" dy="0.95em" style="text-anchor: middle; visibility: inherit; font-family: Roboto, sans-serif; font-size: 12px; font-weight: 200;" fill="rgb(50, 49, 63)" stroke="none" stroke-width="1px">100k</text><text x="638.9890002323897" y="0" dx="0em" dy="0.95em" style="text-anchor: middle; visibility: inherit; font-family: Roboto, sans-serif; font-size: 12px; font-weight: 200;" fill="rgb(50, 49, 63)" stroke="none" stroke-width="1px">120k</text><text x="731.5453705151366" y="0" dx="0em" dy="0.95em" style="text-anchor: middle; visibility: inherit; font-family: Roboto, sans-serif; font-size: 12px; font-weight: 200;" fill="rgb(50, 49, 63)" stroke="none" stroke-width="1px">140k</text><text x="824.1017407978835" y="0" dx="0em" dy="0.95em" style="text-anchor: middle; visibility: inherit; font-family: Roboto, sans-serif; font-size: 12px; font-weight: 200;" fill="rgb(50, 49, 63)" stroke="none" stroke-width="1px">160k</text><text x="916.6581110806304" y="0" dx="0em" dy="0.95em" style="text-anchor: middle; visibility: inherit; font-family: Roboto, sans-serif; font-size: 12px; font-weight: 200;" fill="rgb(50, 49, 63)" stroke="none" stroke-width="1px">180k</text><text x="1009.2144813633773" y="0" dx="0em" dy="0.95em" style="text-anchor: middle; visibility: inherit; font-family: Roboto, sans-serif; font-size: 12px; font-weight: 200;" fill="rgb(50, 49, 63)" stroke="none" stroke-width="1px">200k</text></g><line x1="0" y1="0" x2="1061.0375" y2="0" fill="rgb(0, 0, 0)" stroke="rgb(204, 204, 204)" stroke-width="1px"></line></g></g></g></g></svg>