<svg viewBox="0 0 887 400" xmlns="http://www.w3.org/2000/svg"><g><g><g><g><g><line x1="70" y1="377" x2="65" y2="377" style="visibility: inherit;" fill="rgb(0, 0, 0)" stroke="rgb(204, 204, 204)" stroke-width="1px"></line><line x1="70" y1="323.14285714285717" x2="65" y2="323.14285714285717" style="visibility: inherit;" fill="rgb(0, 0, 0)" stroke="rgb(204, 204, 204)" stroke-width="1px"></line><line x1="70" y1="269.2857142857143" x2="65" y2="269.2857142857143" style="visibility: inherit;" fill="rgb(0, 0, 0)" stroke="rgb(204, 204, 204)" stroke-width="1px"></line><line x1="70" y1="215.42857142857142" x2="65" y2="215.42857142857142" style="visibility: inherit;" fill="rgb(0, 0, 0)" stroke="rgb(204, 204, 204)" stroke-width="1px"></line><line x1="70" y1="161.57142857142858" x2="65" y2="161.57142857142858" style="visibility: inherit;" fill="rgb(0, 0, 0)" stroke="rgb(204, 204, 204)" stroke-width="1px"></line><line x1="70" y1="107.71428571428571" x2="65" y2="107.71428571428571" style="visibility: inherit;" fill="rgb(0, 0, 0)" stroke="rgb(204, 204, 204)" stroke-width="1px"></line><line x1="70" y1="53.857142857142875" x2="65" y2="53.857142857142875" style="visibility: inherit;" fill="rgb(0, 0, 0)" stroke="rgb(204, 204, 204)" stroke-width="1px"></line><line x1="70" y1="0" x2="65" y2="0" style="visibility: inherit;" fill="rgb(0, 0, 0)" stroke="rgb(204, 204, 204)" stroke-width="1px"></line></g><g transform="translate(60, 0)"><text x="0" y="377" dx="0em" dy="0.3em" style="text-anchor: end; visibility: hidden; font-family: Roboto, sans-serif; font-size: 12px; font-weight: 200;" fill="rgb(33, 33, 33)" stroke="none" stroke-width="1px">0</text><text x="0" y="323.14285714285717" dx="0em" dy="0.3em" style="text-anchor: end; visibility: inherit; font-family: Roboto, sans-serif; font-size: 12px; font-weight: 200;" fill="rgb(33, 33, 33)" stroke="none" stroke-width="1px">5e-4</text><text x="0" y="269.2857142857143" dx="0em" dy="0.3em" style="text-anchor: end; visibility: inherit; font-family: Roboto, sans-serif; font-size: 12px; font-weight: 200;" fill="rgb(33, 33, 33)" stroke="none" stroke-width="1px">1e-3</text><text x="0" y="215.42857142857142" dx="0em" dy="0.3em" style="text-anchor: end; visibility: inherit; font-family: Roboto, sans-serif; font-size: 12px; font-weight: 200;" fill="rgb(33, 33, 33)" stroke="none" stroke-width="1px">1.5e-3</text><text x="0" y="161.57142857142858" dx="0em" dy="0.3em" style="text-anchor: end; visibility: inherit; font-family: Roboto, sans-serif; font-size: 12px; font-weight: 200;" fill="rgb(33, 33, 33)" stroke="none" stroke-width="1px">2e-3</text><text x="0" y="107.71428571428571" dx="0em" dy="0.3em" style="text-anchor: end; visibility: inherit; font-family: Roboto, sans-serif; font-size: 12px; font-weight: 200;" fill="rgb(33, 33, 33)" stroke="none" stroke-width="1px">2.5e-3</text><text x="0" y="53.857142857142875" dx="0em" dy="0.3em" style="text-anchor: end; visibility: inherit; font-family: Roboto, sans-serif; font-size: 12px; font-weight: 200;" fill="rgb(33, 33, 33)" stroke="none" stroke-width="1px">3e-3</text><text x="0" y="0" dx="0em" dy="0.3em" style="text-anchor: end; visibility: hidden; font-family: Roboto, sans-serif; font-size: 12px; font-weight: 200;" fill="rgb(33, 33, 33)" stroke="none" stroke-width="1px">3.5e-3</text></g><line x1="70" y1="0" x2="70" y2="377" fill="rgb(0, 0, 0)" stroke="rgb(204, 204, 204)" stroke-width="1px"></line></g></g><g transform="translate(70, 0)" clip-path="url(#clip_0)"><clipPath id="clip_0"><rect width="817" height="377"></rect></clipPath><g><g><g><line x1="0" y1="0" x2="0" y2="377" fill="rgb(0, 0, 0)" stroke="rgb(66, 66, 66)" stroke-width="1px" opacity="0.25"></line><line x1="68.08333333333333" y1="0" x2="68.08333333333333" y2="377" fill="rgb(0, 0, 0)" stroke="rgb(66, 66, 66)" stroke-width="1px" opacity="0.25"></line><line x1="136.16666666666666" y1="0" x2="136.16666666666666" y2="377" fill="rgb(0, 0, 0)" stroke="rgb(66, 66, 66)" stroke-width="1px" opacity="0.25"></line><line x1="204.25" y1="0" x2="204.25" y2="377" fill="rgb(0, 0, 0)" stroke="rgb(66, 66, 66)" stroke-width="1px" opacity="0.25"></line><line x1="272.3333333333333" y1="0" x2="272.3333333333333" y2="377" fill="rgb(0, 0, 0)" stroke="rgb(66, 66, 66)" stroke-width="1px" opacity="0.25"></line><line x1="340.4166666666667" y1="0" x2="340.4166666666667" y2="377" fill="rgb(0, 0, 0)" stroke="rgb(66, 66, 66)" stroke-width="1px" opacity="0.25"></line><line x1="408.5" y1="0" x2="408.5" y2="377" fill="rgb(0, 0, 0)" stroke="rgb(66, 66, 66)" stroke-width="1px" opacity="0.25"></line><line x1="476.58333333333337" y1="0" x2="476.58333333333337" y2="377" fill="rgb(0, 0, 0)" stroke="rgb(66, 66, 66)" stroke-width="1px" opacity="0.25"></line><line x1="544.6666666666666" y1="0" x2="544.6666666666666" y2="377" fill="rgb(0, 0, 0)" stroke="rgb(66, 66, 66)" stroke-width="1px" opacity="0.25"></line><line x1="612.75" y1="0" x2="612.75" y2="377" fill="rgb(0, 0, 0)" stroke="rgb(66, 66, 66)" stroke-width="1px" opacity="0.25"></line><line x1="680.8333333333334" y1="0" x2="680.8333333333334" y2="377" fill="rgb(0, 0, 0)" stroke="rgb(66, 66, 66)" stroke-width="1px" opacity="0.25"></line><line x1="748.9166666666666" y1="0" x2="748.9166666666666" y2="377" fill="rgb(0, 0, 0)" stroke="rgb(66, 66, 66)" stroke-width="1px" opacity="0.25"></line><line x1="817" y1="0" x2="817" y2="377" fill="rgb(0, 0, 0)" stroke="rgb(66, 66, 66)" stroke-width="1px" opacity="0.25"></line></g><g><line x1="0" y1="377" x2="817" y2="377" fill="rgb(0, 0, 0)" stroke="rgb(66, 66, 66)" stroke-width="1px" opacity="0.25"></line><line x1="0" y1="323.14285714285717" x2="817" y2="323.14285714285717" fill="rgb(0, 0, 0)" stroke="rgb(66, 66, 66)" stroke-width="1px" opacity="0.25"></line><line x1="0" y1="269.2857142857143" x2="817" y2="269.2857142857143" fill="rgb(0, 0, 0)" stroke="rgb(66, 66, 66)" stroke-width="1px" opacity="0.25"></line><line x1="0" y1="215.42857142857142" x2="817" y2="215.42857142857142" fill="rgb(0, 0, 0)" stroke="rgb(66, 66, 66)" stroke-width="1px" opacity="0.25"></line><line x1="0" y1="161.57142857142858" x2="817" y2="161.57142857142858" fill="rgb(0, 0, 0)" stroke="rgb(66, 66, 66)" stroke-width="1px" opacity="0.25"></line><line x1="0" y1="107.71428571428571" x2="817" y2="107.71428571428571" fill="rgb(0, 0, 0)" stroke="rgb(66, 66, 66)" stroke-width="1px" opacity="0.25"></line><line x1="0" y1="53.857142857142875" x2="817" y2="53.857142857142875" fill="rgb(0, 0, 0)" stroke="rgb(66, 66, 66)" stroke-width="1px" opacity="0.25"></line><line x1="0" y1="0" x2="817" y2="0" fill="rgb(0, 0, 0)" stroke="rgb(66, 66, 66)" stroke-width="1px" opacity="0.25"></line></g></g></g><g><g><line x1="0" y1="377" x2="817" y2="377" fill="rgb(0, 0, 0)" stroke="rgb(153, 153, 153)" stroke-width="1.5px"></line></g></g><g><g><line x1="68.08333333333333" y1="0" x2="68.08333333333333" y2="377" fill="rgb(0, 0, 0)" stroke="rgb(153, 153, 153)" stroke-width="1.5px"></line></g></g><g><g><g><g><g><path stroke="rgb(255, 112, 67)" stroke-width="2px" d="M91.91250000000001,-127.3210272991126L93.61458333333333,31.995477842126228L95.31666666666666,-18.049647780730588L97.01875,104.74597653703712L98.72083333333333,128.20606296642237L100.42291666666667,187.0202395665389L102.125,235.25333371413706L103.82708333333333,152.3565056848441L105.52916666666668,148.77318005853627L107.23125,189.2304145197674L108.93333333333334,148.04893339278868L110.63541666666666,228.40580502541704L112.3375,157.60926172336582L114.03958333333334,114.05151181029915L115.74166666666666,192.52045377747703L117.44375,81.29612707996823L119.14583333333334,46.32062896014185L120.84791666666666,57.90083985525646L122.55,128.93046347911027L124.25208333333332,201.3167742385101L125.95416666666667,253.78617290527808L127.65625,274.47759676910084L129.35833333333332,271.723623424058L131.06041666666667,280.28647614485686L132.76250000000002,142.15292697535546L134.46458333333334,194.24390091655124L136.16666666666666,113.18476180200082L137.86875,206.83024083138014L139.57083333333333,225.3281142241794L141.27291666666667,182.38834899634654L142.975,146.69570012853535L144.67708333333334,211.0790322915594L146.37916666666666,134.09780902315768L148.08124999999998,200.72075569022243L149.78333333333333,254.78559941701076L151.48541666666668,213.0994727368169L153.1875,186.48914906633695L154.88958333333332,252.25875909401154L156.59166666666667,286.63670503801654L158.29375000000002,265.71184634687233L159.99583333333334,247.32265465026543L161.69791666666666,201.3092571285688L163.4,248.66403554848281L165.10208333333333,123.69761898115718L166.80416666666667,64.2654000298997L168.50625,171.28046580082804L170.20833333333334,236.754206002627L171.91041666666666,275.77140694613456L173.61249999999998,150.66141463819133L175.31458333333333,117.54783222804811L177.01666666666668,142.3172038722145L178.71875,227.14104586456415L180.42083333333332,276.17374436534897L182.12291666666667,285.7844200624672L183.82500000000002,140.2123305657551L185.52708333333334,-193.93864811477232L187.22916666666666,12.501345824560847L188.93125,115.33558662189152L190.63333333333333,75.50160010088491L192.33541666666667,182.98659199646804L194.0375,194.34227462555836L195.73958333333334,255.10861831700896L197.44166666666666,225.39331942845467L199.14374999999998,265.29225794273816L200.84583333333333,233.55662585206323L202.54791666666668,281.4223297659515L204.25,314.2851547333057L205.95208333333332,281.78679785719675L207.65416666666667,259.7702346765681L209.35625,280.1384759528044L211.05833333333337,212.86265051942405L212.76041666666669,272.75275308123173L214.4625,281.8479771208479L216.16458333333333,253.41760818195766L217.86666666666667,287.0429743586976L219.56875,313.3438135749969L221.27083333333331,321.03138965266606L222.97291666666663,331.2795808624497L224.675,318.513729261374L226.37708333333333,296.71179670098496L228.07916666666668,298.3640899204433L229.78125,273.1602330092025L231.48333333333332,296.8896603476226L233.18541666666667,225.87640684812018L234.8875,261.565536983391L236.58958333333337,247.1420588868484L238.29166666666669,277.80852752455326L239.99375,292.5134294660583L241.69583333333333,314.1683859280709L243.39791666666667,278.628435393327L245.1,288.094618683932L246.80208333333331,310.28703182211046L248.50416666666663,282.63962120692105L250.20625,311.1019244296252L251.90833333333333,317.8603772798685L253.61041666666668,299.7817941583719L255.3125,302.8482584353445L257.01458333333335,321.6441160402233L258.71666666666664,315.63096480512826L260.41875,274.55786424416254L262.12083333333334,261.18179648743416L263.8229166666667,292.3960441257352L265.52500000000003,296.63639182546785L267.2270833333333,266.1766669171353L268.9291666666667,225.87709796084766L270.63124999999997,279.0417187736756L272.3333333333333,309.30113569029663L274.03541666666666,326.3524922046886L275.7375,311.26659278371955L277.43958333333336,304.54034263467634L279.14166666666665,321.66624958485863L280.84375,195.68937749708851L282.54583333333335,202.02054964980152L284.24791666666664,246.8465223141459L285.95,229.8876397855208L287.65208333333334,281.1694090909208L289.3541666666667,311.624604655444L291.05625000000003,283.40322194616505L292.7583333333333,269.1953312001855L294.4604166666667,301.11682902517583L296.16249999999997,328.94005500665554L297.8645833333333,328.9102261709486L299.56666666666666,292.546878392515L301.26875,235.10604716561707L302.97083333333336,262.5898149684028L304.67291666666665,299.05725211723046L306.375,306.016496916606L308.07708333333335,228.4360100677999L309.77916666666664,241.80472839195596L311.48125,280.8531288655068L313.18333333333334,259.7097109928536L314.8854166666667,298.66846594004414L316.58750000000003,271.9749344581111L318.2895833333333,297.93884323579886L319.9916666666667,300.075333913458L321.69374999999997,266.31027404002197L323.3958333333333,275.65578572646666L325.09791666666666,299.39024094428015L326.8,295.6220016936513L328.50208333333336,293.0795191959216L330.20416666666665,250.34108656751016L331.90625,230.4361899981527L333.60833333333335,274.90973221326425L335.31041666666664,260.04727345530637L337.0125,289.73696244336867L338.71458333333334,292.37392933345814L340.4166666666667,314.2390946377506L342.11875000000003,302.47075026693585L343.8208333333333,316.4045149995448L345.5229166666667,330.74649211227836L347.22499999999997,339.926250065784L348.9270833333333,337.5118142896044L350.62916666666666,332.6454553382272L352.33125,331.30205743908215L354.03333333333336,328.6691592178294L355.73541666666665,317.8562456756583L357.4375,332.0933723434418L359.13958333333335,339.70840122544143L360.84166666666664,307.0074100747309L362.54375,302.0208517368965L364.24583333333334,233.05929042138652L365.9479166666667,279.06857067688L367.65000000000003,256.18733011092957L369.3520833333333,258.24584337140277L371.0541666666667,298.90873539300355L372.75624999999997,324.16465340696425L374.4583333333333,326.0156889594547L376.16041666666666,326.89108633121674L377.8625,319.1564633402192L379.56458333333336,333.97343593421095L381.26666666666665,345.7826129643907L382.96875,320.04135380529107L384.67083333333335,320.0857646994499L386.37291666666664,333.8029723552791L388.075,338.056366207689L389.77708333333334,347.09338608122766L391.4791666666667,350.8012004925089L393.18125000000003,332.03902838657314L394.8833333333333,315.7503587960325L396.5854166666667,328.5565567941387L398.28749999999997,330.34406982195327L399.9895833333333,282.32541937685323L401.69166666666666,290.8033579614709L403.39375,279.49485374700726L405.09583333333336,215.83860296626764L406.79791666666665,257.1888693763436L408.5,170.15894888558856L410.20208333333335,6.322345407547361L411.90416666666664,146.15263962676525L413.60625,228.5294161519411L415.30833333333334,261.95411843624095L417.01041666666663,284.303953716448L418.7125,314.48240775805556L420.41458333333327,329.90756276688865L422.11666666666673,290.0706372943037L423.81875,315.10463836054157L425.52083333333337,324.4713665178651L427.22291666666666,323.21800720361637L428.925,341.087494788474L430.62708333333336,323.4597962702251L432.32916666666665,302.76542578603164L434.03125,307.8720173040734L435.73333333333335,300.0841003872811L437.43541666666664,307.2048075813801L439.1375,173.51219561445933L440.83958333333334,240.6620861519022L442.54166666666663,254.29164395992674L444.24375,259.3358245799397L445.94583333333327,263.04111116552934L447.64791666666673,294.8189118606732L449.35,313.3242047202232L451.05208333333337,290.32015205080165L452.75416666666666,310.154594961785L454.45625,324.6480134658572L456.15833333333336,302.7437265415524L457.86041666666665,277.39260139579636L459.5625,288.2004135845861L461.26458333333335,309.7646414110497L462.96666666666664,316.9898184146608L464.66875,331.32861773092884L466.37083333333334,330.89425196163177L468.07291666666663,291.1574481127613L469.775,303.5104703194173L471.47708333333327,275.0786639258598L473.17916666666673,309.9065572818728L474.88125,324.81427447113L476.58333333333337,331.9759740059456L478.28541666666666,331.63578192614904L479.9875,305.7988659410083L481.68958333333336,321.44802027826927L483.39166666666665,334.5891140280247L485.09375,332.0103079619126L486.79583333333335,334.0655340949164L488.49791666666664,317.32988534571876L490.2,312.7001832702139L491.90208333333334,333.23595088598773L493.60416666666663,307.0894959471213L495.30625,286.5490812880534L497.00833333333327,176.02867727393902L498.71041666666673,240.03658022819243L500.4125,273.82176594733596L502.11458333333337,303.75200316110534L503.81666666666666,280.3069491430861L505.51875,299.48685252986377L507.22083333333336,313.37449085260437L508.92291666666665,334.51764487147415L510.625,313.79522977333244L512.3270833333333,332.5352640483305L514.0291666666667,272.34351731589584L515.7312499999999,308.06395115580295L517.4333333333333,298.5894352423361L519.1354166666666,274.7650052921301L520.8375,266.1529198049587L522.5395833333333,300.1579740402646L524.2416666666667,220.7125085349835L525.94375,257.11622234687593L527.6458333333334,301.7654261347693L529.3479166666667,324.4893887618896L531.0500000000001,311.4898903730875L532.7520833333333,322.1088399459725L534.4541666666667,336.763727673379L536.15625,335.9961427538554L537.8583333333333,282.1487626406569L539.5604166666667,296.8803664895988L541.2624999999999,325.5766374134309L542.9645833333333,274.35115330298464L544.6666666666666,310.4759074828603L546.36875,284.19307374408027L548.0708333333333,311.9789157886282L549.7729166666667,327.70940793123106L551.475,287.67910758743443L553.1770833333334,313.7176299333201L554.8791666666667,308.9196163686994L556.5812500000001,316.94431684853396L558.2833333333333,320.7859919716193L559.9854166666667,333.0216344893743L561.6875,278.72877434379615L563.3895833333333,287.9169710496982L565.0916666666667,255.99391656892163L566.7937499999999,256.2119346823536L568.4958333333333,272.39352019440867L570.1979166666666,277.8704515772161L571.9,307.15908086070255L573.6020833333333,315.455775828213L575.3041666666667,304.1781801473225L577.00625,324.4200651315605L578.7083333333334,268.53426444955625L580.4104166666667,290.9757726411964L582.1125000000001,287.9276521248189L583.8145833333333,277.35641115465734L585.5166666666667,269.10470410407686L587.21875,294.6698872615324L588.9208333333333,290.7960217464587L590.6229166666667,289.5312353679567L592.3249999999999,269.0311715597613L594.0270833333333,297.17857185629157L595.7291666666666,288.5734722575567L597.43125,312.03845684093795L599.1333333333333,328.64684656153867L600.8354166666667,338.8049017256133L602.5375,345.0812535868962L604.2395833333334,350.51789089188804L605.9416666666667,306.503554667763L607.6437500000001,326.1968953721864L609.3458333333333,340.3991235707737L611.0479166666667,340.04878291715374L612.75,341.7201231728531L614.4520833333333,327.2333170350536L616.1541666666667,276.9389684555403L617.8562499999999,300.7311572612326L619.5583333333333,311.72173412794626L621.2604166666666,330.59427187018804L622.9625,346.3217642391978L624.6645833333333,339.34348131527275L626.3666666666667,334.16724925691494L628.06875,301.4974540119148L629.7708333333334,323.02869858695993L631.4729166666667,333.17236876978086L633.1750000000001,294.2288501855137L634.8770833333333,318.84805439441703L636.5791666666667,291.26694150967694L638.28125,260.0465032822729L639.9833333333333,292.0868301568213L641.6854166666667,206.38772287619526L643.3874999999999,269.401595066771L645.0895833333333,286.23266044891267L646.7916666666666,314.6878058221604L648.49375,328.3010073529538L650.1958333333333,333.2130404429286L651.8979166666667,308.1674817793416L653.6,319.21363752920655L655.3020833333334,323.99997948945594L657.0041666666667,329.6644812372484L658.7062500000001,317.3573806295872L660.4083333333333,293.8850227756846L662.1104166666667,281.7229797132938L663.8125,307.19577383179245L665.5145833333333,321.85830155190735L667.2166666666667,308.0033514757142L668.9187499999999,328.9621934418853L670.6208333333333,327.3784169182699L672.3229166666666,311.51804296680774L674.025,330.1622978715732L675.7270833333333,272.1513614100468L677.4291666666667,305.67906020419787L679.13125,220.86820227172456L680.8333333333334,246.71706121839827L682.5354166666667,38.21379129609401L684.2375000000001,135.46625656886533L685.9395833333333,161.05843211297517L687.6416666666667,241.10716984882387L689.34375,290.57221503882494L691.0458333333333,316.4130892845182L692.7479166666667,280.07080409182237L694.4499999999999,305.7470943193537L696.1520833333333,329.33213915815367L697.8541666666666,293.25383406407735L699.55625,304.1847719189331L701.2583333333333,276.0386535650503L702.9604166666667,306.3953922839108L704.6625,292.019165612506L706.3645833333334,320.3061518483352L708.0666666666667,331.41208048649406L709.7687500000001,305.17858536417094L711.4708333333333,304.3602982764786L713.1729166666667,326.08686446446325L714.875,336.34840726100134L716.5770833333333,332.37107131024476L718.2791666666667,304.33102192877186L719.9812499999999,280.44149328473566L721.6833333333333,259.8449364462482L723.3854166666666,291.48211881792787L725.0875,307.7407082098105L726.7895833333333,256.5661551156567L728.4916666666667,301.7418597245415L730.19375,319.64942470433476L731.8958333333334,336.3879839333239L733.5979166666667,344.2337620322791L735.3000000000001,304.9571999252201L737.0020833333333,317.3139557995277L738.7041666666667,320.2787635181271L740.40625,285.75205351542115L742.1083333333333,258.83577046365804L743.8104166666667,295.10730870195704L745.5124999999999,320.4586042801924L747.2145833333333,260.62317389128646L748.9166666666666,290.8856323027898" style="fill: none;" fill="none"></path></g></g></g></g><g opacity="0.2"><g><g><g><path stroke="rgb(255, 112, 67)" stroke-width="2px" d="M73.18958333333333,-1003.2345323243311L74.89166666666667,152.93592713986123L76.59375,-1052.9991620438439L79.99791666666667,-408.1368364478861L81.7,20.844027537852526L83.40208333333334,298.3647750938045L85.10416666666667,-232.40241241561517L86.80624999999999,-831.2900247935738L88.50833333333334,223.03423458923186L90.21041666666666,-387.83257660376177L91.91250000000001,67.88666267426953L93.61458333333333,270.85787321121563L95.31666666666666,-93.09615879505873L97.01875,288.90823521797677L98.72083333333333,163.3926187024585L100.42291666666667,275.2361286180094L102.125,307.60032971802036L103.82708333333333,28.013991396341993L105.52916666666668,143.39826236558812L107.23125,249.91578695710217L108.93333333333334,86.27700440266304L110.63541666666666,348.9407697890087L112.3375,51.41462791923966L114.03958333333334,48.71495381210532L115.74166666666666,310.2237944472581L117.44375,-85.54030149430037L119.14583333333334,-6.142606621341998L120.84791666666666,75.27115389385395L122.55,235.4748904353806L124.25208333333332,309.89623519272675L125.95416666666667,332.4902686504647L127.65625,305.5147320312847L129.35833333333332,267.5926634491022L131.06041666666667,293.13075514656623L132.76250000000002,-65.04739600952178L134.46458333333334,272.38036165426354L136.16666666666666,-8.403946707291226L137.86875,347.2984592627867L139.57083333333333,253.07492430002563L141.27291666666667,117.97870117319484L142.975,93.15672683609385L144.67708333333334,307.6540305260569L146.37916666666666,18.62597412775669L148.08124999999998,300.65517568708L149.78333333333333,335.88286500537237L151.48541666666668,150.57028271736846L153.1875,146.57366356093968L154.88958333333332,350.91317413504504L156.59166666666667,338.2036239538741L158.29375000000002,234.3245583102107L159.99583333333334,219.73886710538395L161.69791666666666,132.28916084606732L163.4,319.696203178327L165.10208333333333,-63.752005869788746L166.80416666666667,-24.88292839697428L168.50625,331.80306445720737L170.20833333333334,334.9648163053207L171.91041666666666,334.29720836139415L173.61249999999998,-37.00357382372022L175.31458333333333,67.87745861283369L177.01666666666668,179.47126133846388L178.71875,354.3768088530882L180.42083333333332,349.72279211652597L182.12291666666667,300.2004336081445L183.82500000000002,-78.14580367931299L185.52708333333334,-695.1651161355632L187.22916666666666,322.16133673356046L188.93125,269.58694781788756L190.63333333333333,15.750620319374988L192.33541666666667,344.21407983984267L194.0375,211.37579856919393L195.73958333333334,346.25813385418485L197.44166666666666,180.8203710956233L199.14374999999998,325.14066571416333L200.84583333333333,185.95317771605082L202.54791666666668,353.22088563678386L204.25,363.57939218433705L205.95208333333332,233.0392625430333L207.65416666666667,226.74538990562513L209.35625,310.69083786715885L211.05833333333337,111.94891236935344L212.76041666666669,362.58790692394336L214.4625,295.4908131802721L216.16458333333333,210.7720547736223L217.86666666666667,337.48102362380763L219.56875,352.7950723994457L221.27083333333331,332.56275376916994L222.97291666666663,346.65186767712504L224.675,299.3649518597605L226.37708333333333,264.0088978604014L228.07916666666668,300.84252974963084L229.78125,235.35444764234126L231.48333333333332,332.48380135525287L233.18541666666667,119.35652659886651L234.8875,315.09923218629723L236.58958333333337,225.50684174203448L238.29166666666669,323.8082304811105L239.99375,314.5707823783159L241.69583333333333,346.65082062108974L243.39791666666667,225.31850959121115L245.1,302.29389361983965L246.80208333333331,343.57565152937815L248.50416666666663,241.16850528413698L250.20625,353.7953792636815L251.90833333333333,327.99805655523335L253.61041666666668,272.663919476127L255.3125,307.4479548508035L257.01458333333335,349.8379024475414L258.71666666666664,306.6112379524857L260.41875,212.94821340271406L262.12083333333334,241.1176948523415L263.8229166666667,339.21741558318695L265.52500000000003,302.99691337506687L267.2270833333333,220.48707955463655L268.9291666666667,165.42774452641606L270.63124999999997,358.7886499929175L272.3333333333333,354.6902610652282L274.03541666666666,351.92952697627646L275.7375,288.63774365226607L277.43958333333336,294.4509674111115L279.14166666666665,347.3551100101322L280.84375,6.724069365433309L282.54583333333335,211.51730787887104L284.24791666666664,314.08548131066243L285.95,204.4493159925831L287.65208333333334,358.0920630490208L289.3541666666667,357.30739800222887L291.05625000000003,241.07114788224652L292.7583333333333,247.8834950812161L294.4604166666667,348.99907576266145L296.16249999999997,370.67489397887505L297.8645833333333,328.8654829173881L299.56666666666666,238.0018567248647L301.26875,148.94480032527022L302.97083333333336,303.81546667258124L304.67291666666665,353.758407840472L306.375,316.4553641156693L308.07708333333335,112.06527979459081L309.77916666666664,261.85780587819005L311.48125,339.42572957583303L313.18333333333334,227.99458418387388L314.8854166666667,357.1065983608298L316.58750000000003,231.93463723521148L318.2895833333333,336.88470640233055L319.9916666666667,303.28006992994676L321.69374999999997,215.6626842298678L323.3958333333333,289.67405325613385L325.09791666666666,334.99192377100036L326.8,289.969642817708L328.50208333333336,289.26579544932713L330.20416666666665,186.23343762489304L331.90625,200.57884514411643L333.60833333333335,341.62004553593164L335.31041666666664,237.75358531836952L337.0125,334.27149592546215L338.71458333333334,296.32937966859237L340.4166666666667,347.0368425941893L342.11875000000003,284.8182337107137L343.8208333333333,337.3051620984583L345.5229166666667,352.2594577813787L347.22499999999997,353.69588699604253L348.9270833333333,333.89016062533483L350.62916666666666,325.3459169111614L352.33125,329.2869605903647L354.03333333333336,324.71981188595026L355.73541666666665,301.63687536240155L357.4375,353.44906234511706L359.13958333333335,351.1309445484408L360.84166666666664,257.95592334866524L362.54375,294.54101423014487L364.24583333333334,129.61694844812155L365.9479166666667,348.0824910601202L367.65000000000003,221.8654692620039L369.3520833333333,261.33361326211264L371.0541666666667,359.9030734254047L372.75624999999997,362.04853042790535L374.4583333333333,328.7922422881903L376.16041666666666,328.2041823888597L377.8625,307.55452885372296L379.56458333333336,356.1988948251985L381.26666666666665,363.4963785096604L382.96875,281.42946506664157L384.67083333333335,320.15238104068806L386.37291666666664,354.378783839023L388.075,344.4364569863038L389.77708333333334,360.6489158915356L391.4791666666667,356.36292210943066L393.18125000000003,303.89577022766963L394.8833333333333,291.3173544102215L396.5854166666667,347.76585379129807L398.28749999999997,333.025339363675L399.9895833333333,210.29744370920315L401.69166666666666,303.5202658383974L403.39375,262.5320974253118L405.09583333333336,120.35422679515824L406.79791666666665,319.2142689914576L408.5,39.614068149455974L410.20208333333335,-239.43255980951443L411.90416666666664,355.89808095559215L413.60625,352.0945809397048L415.30833333333334,312.0911718626906L417.01041666666663,317.8287066367588L418.7125,359.7500888204668L420.41458333333327,353.0452952801383L422.11666666666673,230.31524908542633L423.81875,352.6556399598984L425.52083333333337,338.5214587538503L427.22291666666666,321.3379682322432L428.925,367.8917261657605L430.62708333333336,297.01824849285185L432.32916666666665,271.7238700597414L434.03125,315.53190458113596L435.73333333333335,288.40222501209274L437.43541666666664,317.8858683725287L439.1375,-27.026722335921818L440.83958333333334,341.3869219580665L442.54166666666663,274.73598067196355L444.24375,266.9020955099591L445.94583333333327,268.5990410439138L447.64791666666673,342.48561290338904L449.35,341.08214400954813L451.05208333333337,255.81407304666936L452.75416666666666,339.90625932826L454.45625,346.38814122196555L456.15833333333336,269.8872961550951L457.86041666666665,239.36591367716238L459.5625,304.41213186777065L461.26458333333335,342.1109831507451L462.96666666666664,327.82758392007753L464.66875,352.83681670533093L466.37083333333334,330.2427033076861L468.07291666666663,231.55224233945563L469.775,322.0400036294013L471.47708333333327,232.4309543355235L473.17916666666673,362.1483973158922L474.88125,347.1758502550157L476.58333333333337,342.7185233081691L478.28541666666666,331.12549380645424L479.9875,267.04349196329713L481.68958333333336,344.92175178416073L483.39166666666665,354.30075465265793L485.09375,328.1420988627443L486.79583333333335,337.14837329442213L488.49791666666664,292.22641222192243L490.2,305.7556301569566L491.90208333333334,364.03960230964833L493.60416666666663,267.8698135388217L495.30625,255.73845929945156L497.00833333333327,10.248071252767517L498.71041666666673,336.0484346595726L500.4125,324.4995445260512L502.11458333333337,348.64735898175945L503.81666666666666,245.13936811605737L505.51875,328.2567076100303L507.22083333333336,334.20594833671515L508.92291666666665,366.23237589977884L510.625,282.71160712611993L512.3270833333333,360.6453154608275L514.0291666666667,182.0558972172439L515.7312499999999,361.64460191566366L517.4333333333333,284.3776613721358L519.1354166666666,239.0283603668213L520.8375,253.23479157420144L522.5395833333333,351.16555539322354L524.2416666666667,101.5443102770618L525.94375,311.7217930647145L527.6458333333334,368.7392318166094L529.3479166666667,358.57533270256994L531.0500000000001,291.99064278988436L532.7520833333333,338.03726430529997L534.4541666666667,358.7460592644888L536.15625,334.84476537457004L537.8583333333333,201.37769247085922L539.5604166666667,318.9777722630118L541.2624999999999,368.62104379917895L542.9645833333333,197.51292713731527L544.6666666666666,364.66303875267374L546.36875,244.76882313591028L548.0708333333333,353.65767885545006L549.7729166666667,351.30514614513544L551.475,227.63365707173944L553.1770833333334,352.7754134521487L554.8791666666667,301.72259602176825L556.5812500000001,328.98136756828586L558.2833333333333,326.54850465624725L559.9854166666667,351.37509826600683L561.6875,197.28948412542894L563.3895833333333,301.69926610855117L565.0916666666667,208.10933484775677L566.7937499999999,256.53896185250153L568.4958333333333,296.6658984624914L570.1979166666666,286.0858486514272L571.9,351.09202478593215L573.6020833333333,327.9008182794787L575.3041666666667,287.26178662598664L577.00625,354.78289260791746L578.7083333333334,184.70556342654996L580.4104166666667,324.63803492865657L582.1125000000001,283.3554713502526L583.8145833333333,261.49954969941507L585.5166666666667,256.727143528206L587.21875,333.01766199771583L588.9208333333333,284.98522347384795L590.6229166666667,287.6340558002038L592.3249999999999,238.28107584746823L594.0270833333333,339.399672301087L595.7291666666666,275.66582285945435L597.43125,347.23593371600975L599.1333333333333,353.5594311424398L600.8354166666667,354.0419844717253L602.5375,354.49578137882054L604.2395833333334,358.6728468493758L605.9416666666667,240.48205033157552L607.6437500000001,355.7369064288214L609.3458333333333,361.7024658686548L611.0479166666667,339.5232719367237L612.75,344.2271335564022L614.4520833333333,305.5031078283542L616.1541666666667,201.49744558627054L617.8562499999999,336.4194404697711L619.5583333333333,328.2075994280167L621.2604166666666,358.90307848355064L622.9625,369.9130027927126L624.6645833333333,328.876056929385L626.3666666666667,326.4029011693783L628.06875,252.49276114441454L629.7708333333334,355.32556544952763L631.4729166666667,348.3878740440123L633.1750000000001,235.813572309113L634.8770833333333,355.77686070777213L636.5791666666667,249.89527218256677L638.28125,213.2158459411668L639.9833333333333,340.14732046864395L641.6854166666667,77.83906195525613L643.3874999999999,363.92240335263443L645.0895833333333,311.47925852212524L646.7916666666666,357.370523882032L648.49375,348.7208096491439L650.1958333333333,340.5810900778909L651.8979166666667,270.59914378396104L653.6,335.78287115400394L655.3020833333334,331.17949242983013L657.0041666666667,338.1612338589371L658.7062500000001,298.8967297180955L660.4083333333333,258.6764859948307L662.1104166666667,263.4799151197076L663.8125,345.4049650095403L665.5145833333333,343.85209313207974L667.2166666666667,287.2209263614246L668.9187499999999,360.4004563911419L670.6208333333333,325.00275213284687L672.3229166666666,287.7274820396145L674.025,358.12868022872135L675.7270833333333,185.13495671775723L677.4291666666667,355.9706083954245L679.13125,93.65191537301455L680.8333333333334,285.4903496384089L682.5354166666667,-274.5411135873624L684.2375000000001,281.34495447802226L685.9395833333333,199.44669542913988L687.6416666666667,361.18027645259696L689.34375,364.76978282382646L691.0458333333333,355.1744006530581L692.7479166666667,225.55737630277872L694.4499999999999,344.2615296606507L696.1520833333333,364.7097064163536L697.8541666666666,239.136376422963L699.55625,320.58117870121663L701.2583333333333,233.81947603422617L702.9604166666667,351.9305003622015L704.6625,270.45482560539887L706.3645833333334,362.7366312020791L708.0666666666667,348.0709734437322L709.7687500000001,265.82834268068626L711.4708333333333,303.1328676449401L713.1729166666667,358.6767137464402L714.875,351.74072145580845L716.5770833333333,326.40506738410994L718.2791666666667,262.2709478565625L719.9812499999999,244.60720031868135L721.6833333333333,228.95010118851707L723.3854166666666,338.9378923754474L725.0875,332.1285922976344L726.7895833333333,179.80432547442615L728.4916666666667,369.5054166378686L730.19375,346.5107721740247L731.8958333333334,361.4958227768075L733.5979166666667,356.00242918071206L735.3000000000001,246.04235676463162L737.0020833333333,335.8490896109891L738.7041666666667,324.72597509602616L740.40625,233.96198851136222L742.1083333333333,218.46134588601336L743.8104166666667,349.51461605940545L745.5124999999999,358.4855476475454L747.2145833333333,170.8700283079275L748.9166666666666,336.27931992004494" style="fill: none;" fill="none"></path></g></g></g></g></g><g><g opacity="0.779813"><span fill="rgb(0, 0, 0)" stroke="none" stroke-width="1px">Alt + Scroll to Zoom</span></g></g></g><g transform="translate(70, 377)" clip-path="url(#clip_1)"><clipPath id="clip_1"><rect width="817" height="23"></rect></clipPath><g><g><line x1="0" y1="0" x2="0" y2="5" style="visibility: inherit;" fill="rgb(0, 0, 0)" stroke="rgb(204, 204, 204)" stroke-width="1px"></line><line x1="68.08333333333333" y1="0" x2="68.08333333333333" y2="5" style="visibility: inherit;" fill="rgb(0, 0, 0)" stroke="rgb(204, 204, 204)" stroke-width="1px"></line><line x1="136.16666666666666" y1="0" x2="136.16666666666666" y2="5" style="visibility: inherit;" fill="rgb(0, 0, 0)" stroke="rgb(204, 204, 204)" stroke-width="1px"></line><line x1="204.25" y1="0" x2="204.25" y2="5" style="visibility: inherit;" fill="rgb(0, 0, 0)" stroke="rgb(204, 204, 204)" stroke-width="1px"></line><line x1="272.3333333333333" y1="0" x2="272.3333333333333" y2="5" style="visibility: inherit;" fill="rgb(0, 0, 0)" stroke="rgb(204, 204, 204)" stroke-width="1px"></line><line x1="340.4166666666667" y1="0" x2="340.4166666666667" y2="5" style="visibility: inherit;" fill="rgb(0, 0, 0)" stroke="rgb(204, 204, 204)" stroke-width="1px"></line><line x1="408.5" y1="0" x2="408.5" y2="5" style="visibility: inherit;" fill="rgb(0, 0, 0)" stroke="rgb(204, 204, 204)" stroke-width="1px"></line><line x1="476.58333333333337" y1="0" x2="476.58333333333337" y2="5" style="visibility: inherit;" fill="rgb(0, 0, 0)" stroke="rgb(204, 204, 204)" stroke-width="1px"></line><line x1="544.6666666666666" y1="0" x2="544.6666666666666" y2="5" style="visibility: inherit;" fill="rgb(0, 0, 0)" stroke="rgb(204, 204, 204)" stroke-width="1px"></line><line x1="612.75" y1="0" x2="612.75" y2="5" style="visibility: inherit;" fill="rgb(0, 0, 0)" stroke="rgb(204, 204, 204)" stroke-width="1px"></line><line x1="680.8333333333334" y1="0" x2="680.8333333333334" y2="5" style="visibility: inherit;" fill="rgb(0, 0, 0)" stroke="rgb(204, 204, 204)" stroke-width="1px"></line><line x1="748.9166666666666" y1="0" x2="748.9166666666666" y2="5" style="visibility: inherit;" fill="rgb(0, 0, 0)" stroke="rgb(204, 204, 204)" stroke-width="1px"></line><line x1="817" y1="0" x2="817" y2="5" style="visibility: inherit;" fill="rgb(0, 0, 0)" stroke="rgb(204, 204, 204)" stroke-width="1px"></line></g><g transform="translate(0, 8)"><text x="0" y="0" dx="0em" dy="0.95em" style="text-anchor: middle; visibility: hidden; font-family: Roboto, sans-serif; font-size: 12px; font-weight: 200;" fill="rgb(33, 33, 33)" stroke="none" stroke-width="1px">-20k</text><text x="68.08333333333333" y="0" dx="0em" dy="0.95em" style="text-anchor: middle; visibility: inherit; font-family: Roboto, sans-serif; font-size: 12px; font-weight: 200;" fill="rgb(33, 33, 33)" stroke="none" stroke-width="1px">0</text><text x="136.16666666666666" y="0" dx="0em" dy="0.95em" style="text-anchor: middle; visibility: inherit; font-family: Roboto, sans-serif; font-size: 12px; font-weight: 200;" fill="rgb(33, 33, 33)" stroke="none" stroke-width="1px">20k</text><text x="204.25" y="0" dx="0em" dy="0.95em" style="text-anchor: middle; visibility: inherit; font-family: Roboto, sans-serif; font-size: 12px; font-weight: 200;" fill="rgb(33, 33, 33)" stroke="none" stroke-width="1px">40k</text><text x="272.3333333333333" y="0" dx="0em" dy="0.95em" style="text-anchor: middle; visibility: inherit; font-family: Roboto, sans-serif; font-size: 12px; font-weight: 200;" fill="rgb(33, 33, 33)" stroke="none" stroke-width="1px">60k</text><text x="340.4166666666667" y="0" dx="0em" dy="0.95em" style="text-anchor: middle; visibility: inherit; font-family: Roboto, sans-serif; font-size: 12px; font-weight: 200;" fill="rgb(33, 33, 33)" stroke="none" stroke-width="1px">80k</text><text x="408.5" y="0" dx="0em" dy="0.95em" style="text-anchor: middle; visibility: inherit; font-family: Roboto, sans-serif; font-size: 12px; font-weight: 200;" fill="rgb(33, 33, 33)" stroke="none" stroke-width="1px">100k</text><text x="476.58333333333337" y="0" dx="0em" dy="0.95em" style="text-anchor: middle; visibility: inherit; font-family: Roboto, sans-serif; font-size: 12px; font-weight: 200;" fill="rgb(33, 33, 33)" stroke="none" stroke-width="1px">120k</text><text x="544.6666666666666" y="0" dx="0em" dy="0.95em" style="text-anchor: middle; visibility: inherit; font-family: Roboto, sans-serif; font-size: 12px; font-weight: 200;" fill="rgb(33, 33, 33)" stroke="none" stroke-width="1px">140k</text><text x="612.75" y="0" dx="0em" dy="0.95em" style="text-anchor: middle; visibility: inherit; font-family: Roboto, sans-serif; font-size: 12px; font-weight: 200;" fill="rgb(33, 33, 33)" stroke="none" stroke-width="1px">160k</text><text x="680.8333333333334" y="0" dx="0em" dy="0.95em" style="text-anchor: middle; visibility: inherit; font-family: Roboto, sans-serif; font-size: 12px; font-weight: 200;" fill="rgb(33, 33, 33)" stroke="none" stroke-width="1px">180k</text><text x="748.9166666666666" y="0" dx="0em" dy="0.95em" style="text-anchor: middle; visibility: inherit; font-family: Roboto, sans-serif; font-size: 12px; font-weight: 200;" fill="rgb(33, 33, 33)" stroke="none" stroke-width="1px">200k</text><text x="817" y="0" dx="0em" dy="0.95em" style="text-anchor: middle; visibility: hidden; font-family: Roboto, sans-serif; font-size: 12px; font-weight: 200;" fill="rgb(33, 33, 33)" stroke="none" stroke-width="1px">220k</text></g><line x1="0" y1="0" x2="817" y2="0" fill="rgb(0, 0, 0)" stroke="rgb(204, 204, 204)" stroke-width="1px"></line></g></g></g></g></svg>