<svg viewBox="0 0 1112.5999755859375 400" xmlns="http://www.w3.org/2000/svg"><g><g><g><g><g><line x1="30.78125" y1="370.2585782614656" x2="25.78125" y2="370.2585782614656" style="visibility: inherit;" fill="rgb(0, 0, 0)" stroke="rgb(204, 204, 204)" stroke-width="1px"></line><line x1="30.78125" y1="342.92940560290776" x2="25.78125" y2="342.92940560290776" style="visibility: inherit;" fill="rgb(0, 0, 0)" stroke="rgb(204, 204, 204)" stroke-width="1px"></line><line x1="30.78125" y1="315.60023294434995" x2="25.78125" y2="315.60023294434995" style="visibility: inherit;" fill="rgb(0, 0, 0)" stroke="rgb(204, 204, 204)" stroke-width="1px"></line><line x1="30.78125" y1="288.27106028579215" x2="25.78125" y2="288.27106028579215" style="visibility: inherit;" fill="rgb(0, 0, 0)" stroke="rgb(204, 204, 204)" stroke-width="1px"></line><line x1="30.78125" y1="260.9418876272344" x2="25.78125" y2="260.9418876272344" style="visibility: inherit;" fill="rgb(0, 0, 0)" stroke="rgb(204, 204, 204)" stroke-width="1px"></line><line x1="30.78125" y1="233.61271496867656" x2="25.78125" y2="233.61271496867656" style="visibility: inherit;" fill="rgb(0, 0, 0)" stroke="rgb(204, 204, 204)" stroke-width="1px"></line><line x1="30.78125" y1="206.28354231011875" x2="25.78125" y2="206.28354231011875" style="visibility: inherit;" fill="rgb(0, 0, 0)" stroke="rgb(204, 204, 204)" stroke-width="1px"></line><line x1="30.78125" y1="178.95436965156094" x2="25.78125" y2="178.95436965156094" style="visibility: inherit;" fill="rgb(0, 0, 0)" stroke="rgb(204, 204, 204)" stroke-width="1px"></line><line x1="30.78125" y1="151.6251969930031" x2="25.78125" y2="151.6251969930031" style="visibility: inherit;" fill="rgb(0, 0, 0)" stroke="rgb(204, 204, 204)" stroke-width="1px"></line><line x1="30.78125" y1="124.29602433444529" x2="25.78125" y2="124.29602433444529" style="visibility: inherit;" fill="rgb(0, 0, 0)" stroke="rgb(204, 204, 204)" stroke-width="1px"></line><line x1="30.78125" y1="96.96685167588748" x2="25.78125" y2="96.96685167588748" style="visibility: inherit;" fill="rgb(0, 0, 0)" stroke="rgb(204, 204, 204)" stroke-width="1px"></line><line x1="30.78125" y1="69.63767901732967" x2="25.78125" y2="69.63767901732967" style="visibility: inherit;" fill="rgb(0, 0, 0)" stroke="rgb(204, 204, 204)" stroke-width="1px"></line><line x1="30.78125" y1="42.308506358771865" x2="25.78125" y2="42.308506358771865" style="visibility: inherit;" fill="rgb(0, 0, 0)" stroke="rgb(204, 204, 204)" stroke-width="1px"></line><line x1="30.78125" y1="14.979333700214056" x2="25.78125" y2="14.979333700214056" style="visibility: inherit;" fill="rgb(0, 0, 0)" stroke="rgb(204, 204, 204)" stroke-width="1px"></line></g><g transform="translate(20.78125, 0)"><text x="0" y="370.2585782614656" dx="0em" dy="0.3em" style="text-anchor: end; visibility: inherit; font-family: Roboto, sans-serif; font-size: 12px; font-weight: 200;" fill="rgb(50, 49, 63)" stroke="none" stroke-width="1px">12</text><text x="0" y="342.92940560290776" dx="0em" dy="0.3em" style="text-anchor: end; visibility: inherit; font-family: Roboto, sans-serif; font-size: 12px; font-weight: 200;" fill="rgb(50, 49, 63)" stroke="none" stroke-width="1px">14</text><text x="0" y="315.60023294434995" dx="0em" dy="0.3em" style="text-anchor: end; visibility: inherit; font-family: Roboto, sans-serif; font-size: 12px; font-weight: 200;" fill="rgb(50, 49, 63)" stroke="none" stroke-width="1px">16</text><text x="0" y="288.27106028579215" dx="0em" dy="0.3em" style="text-anchor: end; visibility: inherit; font-family: Roboto, sans-serif; font-size: 12px; font-weight: 200;" fill="rgb(50, 49, 63)" stroke="none" stroke-width="1px">18</text><text x="0" y="260.9418876272344" dx="0em" dy="0.3em" style="text-anchor: end; visibility: inherit; font-family: Roboto, sans-serif; font-size: 12px; font-weight: 200;" fill="rgb(50, 49, 63)" stroke="none" stroke-width="1px">20</text><text x="0" y="233.61271496867656" dx="0em" dy="0.3em" style="text-anchor: end; visibility: inherit; font-family: Roboto, sans-serif; font-size: 12px; font-weight: 200;" fill="rgb(50, 49, 63)" stroke="none" stroke-width="1px">22</text><text x="0" y="206.28354231011875" dx="0em" dy="0.3em" style="text-anchor: end; visibility: inherit; font-family: Roboto, sans-serif; font-size: 12px; font-weight: 200;" fill="rgb(50, 49, 63)" stroke="none" stroke-width="1px">24</text><text x="0" y="178.95436965156094" dx="0em" dy="0.3em" style="text-anchor: end; visibility: inherit; font-family: Roboto, sans-serif; font-size: 12px; font-weight: 200;" fill="rgb(50, 49, 63)" stroke="none" stroke-width="1px">26</text><text x="0" y="151.6251969930031" dx="0em" dy="0.3em" style="text-anchor: end; visibility: inherit; font-family: Roboto, sans-serif; font-size: 12px; font-weight: 200;" fill="rgb(50, 49, 63)" stroke="none" stroke-width="1px">28</text><text x="0" y="124.29602433444529" dx="0em" dy="0.3em" style="text-anchor: end; visibility: inherit; font-family: Roboto, sans-serif; font-size: 12px; font-weight: 200;" fill="rgb(50, 49, 63)" stroke="none" stroke-width="1px">30</text><text x="0" y="96.96685167588748" dx="0em" dy="0.3em" style="text-anchor: end; visibility: inherit; font-family: Roboto, sans-serif; font-size: 12px; font-weight: 200;" fill="rgb(50, 49, 63)" stroke="none" stroke-width="1px">32</text><text x="0" y="69.63767901732967" dx="0em" dy="0.3em" style="text-anchor: end; visibility: inherit; font-family: Roboto, sans-serif; font-size: 12px; font-weight: 200;" fill="rgb(50, 49, 63)" stroke="none" stroke-width="1px">34</text><text x="0" y="42.308506358771865" dx="0em" dy="0.3em" style="text-anchor: end; visibility: inherit; font-family: Roboto, sans-serif; font-size: 12px; font-weight: 200;" fill="rgb(50, 49, 63)" stroke="none" stroke-width="1px">36</text><text x="0" y="14.979333700214056" dx="0em" dy="0.3em" style="text-anchor: end; visibility: inherit; font-family: Roboto, sans-serif; font-size: 12px; font-weight: 200;" fill="rgb(50, 49, 63)" stroke="none" stroke-width="1px">38</text></g><line x1="30.78125" y1="0" x2="30.78125" y2="378" fill="rgb(0, 0, 0)" stroke="rgb(204, 204, 204)" stroke-width="1px"></line></g></g><g transform="translate(30, 0)" clip-path="url(#clip_0)"><clipPath id="clip_0"><rect width="1081" height="378"></rect></clipPath><g><g><g><line x1="70.7106407962797" y1="0" x2="70.7106407962797" y2="378" fill="rgb(0, 0, 0)" stroke="rgb(60, 60, 60)" stroke-width="1px" opacity="0.25"></line><line x1="167.84133117894658" y1="0" x2="167.84133117894658" y2="378" fill="rgb(0, 0, 0)" stroke="rgb(60, 60, 60)" stroke-width="1px" opacity="0.25"></line><line x1="264.9720215616135" y1="0" x2="264.9720215616135" y2="378" fill="rgb(0, 0, 0)" stroke="rgb(60, 60, 60)" stroke-width="1px" opacity="0.25"></line><line x1="362.1027119442804" y1="0" x2="362.1027119442804" y2="378" fill="rgb(0, 0, 0)" stroke="rgb(60, 60, 60)" stroke-width="1px" opacity="0.25"></line><line x1="459.23340232694727" y1="0" x2="459.23340232694727" y2="378" fill="rgb(0, 0, 0)" stroke="rgb(60, 60, 60)" stroke-width="1px" opacity="0.25"></line><line x1="556.3640927096142" y1="0" x2="556.3640927096142" y2="378" fill="rgb(0, 0, 0)" stroke="rgb(60, 60, 60)" stroke-width="1px" opacity="0.25"></line><line x1="653.4947830922812" y1="0" x2="653.4947830922812" y2="378" fill="rgb(0, 0, 0)" stroke="rgb(60, 60, 60)" stroke-width="1px" opacity="0.25"></line><line x1="750.625473474948" y1="0" x2="750.625473474948" y2="378" fill="rgb(0, 0, 0)" stroke="rgb(60, 60, 60)" stroke-width="1px" opacity="0.25"></line><line x1="847.7561638576149" y1="0" x2="847.7561638576149" y2="378" fill="rgb(0, 0, 0)" stroke="rgb(60, 60, 60)" stroke-width="1px" opacity="0.25"></line><line x1="944.8868542402818" y1="0" x2="944.8868542402818" y2="378" fill="rgb(0, 0, 0)" stroke="rgb(60, 60, 60)" stroke-width="1px" opacity="0.25"></line><line x1="1042.0175446229487" y1="0" x2="1042.0175446229487" y2="378" fill="rgb(0, 0, 0)" stroke="rgb(60, 60, 60)" stroke-width="1px" opacity="0.25"></line></g><g><line x1="0" y1="370.2585782614656" x2="1081.81875" y2="370.2585782614656" fill="rgb(0, 0, 0)" stroke="rgb(60, 60, 60)" stroke-width="1px" opacity="0.25"></line><line x1="0" y1="342.92940560290776" x2="1081.81875" y2="342.92940560290776" fill="rgb(0, 0, 0)" stroke="rgb(60, 60, 60)" stroke-width="1px" opacity="0.25"></line><line x1="0" y1="315.60023294434995" x2="1081.81875" y2="315.60023294434995" fill="rgb(0, 0, 0)" stroke="rgb(60, 60, 60)" stroke-width="1px" opacity="0.25"></line><line x1="0" y1="288.27106028579215" x2="1081.81875" y2="288.27106028579215" fill="rgb(0, 0, 0)" stroke="rgb(60, 60, 60)" stroke-width="1px" opacity="0.25"></line><line x1="0" y1="260.9418876272344" x2="1081.81875" y2="260.9418876272344" fill="rgb(0, 0, 0)" stroke="rgb(60, 60, 60)" stroke-width="1px" opacity="0.25"></line><line x1="0" y1="233.61271496867656" x2="1081.81875" y2="233.61271496867656" fill="rgb(0, 0, 0)" stroke="rgb(60, 60, 60)" stroke-width="1px" opacity="0.25"></line><line x1="0" y1="206.28354231011875" x2="1081.81875" y2="206.28354231011875" fill="rgb(0, 0, 0)" stroke="rgb(60, 60, 60)" stroke-width="1px" opacity="0.25"></line><line x1="0" y1="178.95436965156094" x2="1081.81875" y2="178.95436965156094" fill="rgb(0, 0, 0)" stroke="rgb(60, 60, 60)" stroke-width="1px" opacity="0.25"></line><line x1="0" y1="151.6251969930031" x2="1081.81875" y2="151.6251969930031" fill="rgb(0, 0, 0)" stroke="rgb(60, 60, 60)" stroke-width="1px" opacity="0.25"></line><line x1="0" y1="124.29602433444529" x2="1081.81875" y2="124.29602433444529" fill="rgb(0, 0, 0)" stroke="rgb(60, 60, 60)" stroke-width="1px" opacity="0.25"></line><line x1="0" y1="96.96685167588748" x2="1081.81875" y2="96.96685167588748" fill="rgb(0, 0, 0)" stroke="rgb(60, 60, 60)" stroke-width="1px" opacity="0.25"></line><line x1="0" y1="69.63767901732967" x2="1081.81875" y2="69.63767901732967" fill="rgb(0, 0, 0)" stroke="rgb(60, 60, 60)" stroke-width="1px" opacity="0.25"></line><line x1="0" y1="42.308506358771865" x2="1081.81875" y2="42.308506358771865" fill="rgb(0, 0, 0)" stroke="rgb(60, 60, 60)" stroke-width="1px" opacity="0.25"></line><line x1="0" y1="14.979333700214056" x2="1081.81875" y2="14.979333700214056" fill="rgb(0, 0, 0)" stroke="rgb(60, 60, 60)" stroke-width="1px" opacity="0.25"></line></g></g></g><g><g><line x1="0" y1="534.2336142128123" x2="1081.81875" y2="534.2336142128123" fill="rgb(0, 0, 0)" stroke="rgb(153, 153, 153)" stroke-width="1.5px"></line></g></g><g><g><line x1="70.7106407962797" y1="0" x2="70.7106407962797" y2="378" fill="rgb(0, 0, 0)" stroke="rgb(153, 153, 153)" stroke-width="1.5px"></line></g></g><g><g><g><g><g><path stroke="rgb(255, 112, 67)" stroke-width="2px" d="M70.7106407962797,373.8562806077352L73.13890805584639,348.1851970437323L75.56717531541305,330.1119297753723L77.99544257497972,300.98380371414186L80.42370983454639,251.826369558229L82.85197709411307,264.1711401598233L85.28024435367973,270.46977233872366L87.70851161324642,262.68807659767504L90.13677887281308,233.7666375192469L92.56504613237976,183.61050843088123L94.99331339194643,206.057106999162L97.4215806515131,237.85786752460203L99.84984791107976,212.95019909833235L102.27811517064644,229.2737480580667L104.70638243021311,218.0325755178744L107.13464968977979,183.83025456553213L109.56291694934646,200.12643302566215L111.99118420891314,177.73518266427763L114.41945146847979,174.94669804601858L116.84771872804647,166.97854146595125L119.27598598761314,158.38459971692373L121.70425324717982,181.62429033970923L124.13252050674649,183.3078095741637L126.56078776631317,181.91104411752934L128.98905502587982,200.32065491997096L131.41732228544652,159.50385033257217L133.84558954501318,183.619201629037L136.27385680457985,195.08632876969457L138.70212406414652,157.61054591103286L141.13039132371318,191.38964051723366L143.55865858327988,203.74322009107487L145.98692584284655,206.23331300864137L148.4151931024132,198.8789981083054L150.8434603619799,177.89819182117952L153.27172762154657,155.5287472444075L155.69999488111324,137.8632212341351L158.1282621406799,145.37182842464884L160.5565294002466,158.27971459378128L162.98479665981327,185.61928087102217L165.4130639193799,168.20703715671527L167.84133117894658,188.64010062436398L170.26959843851327,147.53456438309814L172.69786569807994,164.948445967292L175.1261329576466,181.37218534088325L177.55440021721327,193.07459679123045L179.98266747677997,166.0594515040506L182.41093473634663,189.88828409058866L184.8392019959133,169.50224012703356L187.26746925547997,145.88836529325906L189.69573651504666,169.0447049092253L192.12400377461333,187.1158967383641L194.55227103418,151.1256587654701L196.98053829374666,148.48798108759786L199.40880555331336,165.58885436248494L201.83707281288,173.31343577323761L204.26534007244666,192.08968452793403L206.69360733201333,178.44585786379335L209.12187459158002,209.44689573442474L211.5501418511467,212.28381805829605L213.97840911071336,188.78123580044385L216.40667637028002,172.53083349911537L218.83494362984672,146.7061462328177L221.2632108894134,178.0733733963641L223.69147814898005,193.58561042412018L226.11974540854672,200.54146407061896L228.54801266811342,172.04626057123411L230.97627992768008,148.20891070756332L233.40454718724675,145.9636175094849L235.83281444681342,176.72705183621693L238.2610817063801,221.32587933715672L240.68934896594675,188.26384956011046L243.11761622551342,196.62674033154693L245.54588348508008,204.9543150818679L247.97415074464678,164.7041715084193L250.40241800421344,174.1623143385363L252.8306852637801,140.75602650883022L255.2589525233468,171.26591677605975L257.6872197829135,155.86014091064845L260.11548704248014,170.11544365332384L262.5437543020468,151.1722420232026L264.9720215616135,111.26345097151135L267.40028882118014,138.61844372905085L269.8285560807468,167.95783446773353L272.25682334031353,167.99883914991477L274.68509059988014,178.40175949586325L277.11335785944686,123.65426529238675L279.54162511901353,136.13750639993134L281.9698923785802,159.06163009707413L284.39815963814686,135.6286048404777L286.82642689771353,116.9638933172262L289.2546941572802,120.62225986277595L291.6829614168469,128.34154785939646L294.11122867641353,136.15563734189243L296.53949593598026,162.7152897982603L298.9677631955469,158.7512038351589L301.39603045511353,173.2521527018625L303.82429771468026,166.54890132315447L306.25256497424687,186.5785698725381L308.6808322338136,172.23874842997378L311.10909949338026,172.07897609357448L313.5373667529469,147.4351679168992L315.9656340125136,153.96197633605937L318.3939012720803,121.76908551002649L320.8221685316469,149.3513785077083L323.25043579121365,148.6617660690363L325.67870305078026,145.09145122409424L328.106970310347,161.9273702460892L330.53523756991365,136.37647799301936L332.9635048294803,121.59807441347422L335.391772089047,138.3346589107575L337.82003934861365,153.99640426268874L340.2483066081803,134.48584353301393L342.676573867747,136.1187525846611L345.10484112731365,159.71647843530508L347.5331083868803,176.17968888175065L349.96137564644704,155.76938065835964L352.38964290601365,147.98318109052335L354.8179101655804,161.88818665071204L357.24617742514704,174.62035661604327L359.6744446847137,137.86762190704997L362.1027119442804,122.46139117856073L364.5309792038471,117.88173326648531L366.9592464634137,130.06279516113472L369.38751372298043,146.74100244898895L371.81578098254704,137.90275128126413L374.2440482421137,163.18593664839455L376.67231550168043,172.24944415176822L379.10058276124704,148.90638859472443L381.52885002081376,184.65688452571487L383.95711728038043,137.35547024753308L386.3853845399471,116.55747043928056L388.81365179951376,141.20458806552185L391.24191905908043,161.39957156876568L393.6701863186471,141.73152162050425L396.0984535782138,96.35200784158931L398.52672083778043,105.67774564644286L400.95498809734715,137.6364092618849L403.3832553569138,160.85008943287778L405.8115226164805,163.1914326582715L408.23978987604715,131.39204026140467L410.66805713561376,139.1199082959516L413.0963243951805,159.6005414042347L415.52459165474716,168.67608795180297L417.9528589143138,165.23215794040186L420.3811261738805,175.04066239784987L422.8093934334472,136.6305372743958L425.2376606930138,157.5382838450547L427.66592795258055,133.50200475091964L430.09419521214716,152.55419944784313L432.5224624717139,162.71356254264194L434.95072973128055,154.08235471654618L437.3789969908472,140.19187242186018L439.8072642504139,149.21275029085436L442.2355315099806,151.71482812972536L444.6637987695472,172.36488583860393L447.09206602911394,181.63199451996073L449.5203332886806,175.52807075733134L451.9486005482472,169.44079245436134L454.37686780781394,157.75172379243023L456.80513506738055,160.5000507273752L459.23340232694727,139.94825377882043L461.66166958651394,147.03518747293597L464.0899368460806,133.94443011472453L466.51820410564727,114.26230835140902L468.946471365214,102.46723448667272L471.3747386247806,113.59023026268991L473.80300588434733,121.16681285233145L476.23127314391394,118.33861676767307L478.65954040348066,134.8664470590273L481.08780766304733,154.52419839017742L483.516074922614,130.87614074276388L485.94434218218066,115.7299761117094L488.3726094417474,143.5532991243557L490.800876701314,142.09562600646302L493.22914396088066,164.0707246320591L495.65741122044733,138.75495278390687L498.085678480014,162.06351630573175L500.5139457395807,173.66472246438192L502.94221299914733,145.44657999162197L505.37048025871405,118.48286982331012L507.7987475182807,128.78637891983027L510.2270147778474,135.6738569294995L512.655282037414,138.64067545630215L515.0835492969807,115.30409302403346L517.5118165565474,102.24836028862396L519.9400838161141,136.83210184518694L522.3683510756807,145.24439462005265L524.7966183352474,134.5474817057321L527.2248855948142,126.44052653171529L529.6531528543808,104.04747020706941L532.0814201139474,102.42285271298101L534.5096873735141,134.69619171014438L536.9379546330807,148.47177003821312L539.3662218926474,129.54080378825515L541.7944891522142,125.52864893159935L544.2227564117809,147.53423122725425L546.6510236713474,148.597437177426L549.0792909309141,164.9663258546859L551.5075581904808,173.15758750550484L553.9358254500476,153.23857058649423L556.3640927096142,171.54520339649275L558.7923599691808,206.1471641012768L561.2206272287475,166.2285572941002L563.6488944883142,136.5409921123754L566.0771617478808,156.63776565241724L568.5054290074476,147.52972207952456L570.9336962670142,122.40186979953741L573.3619635265808,107.08172879684922L575.7902307861475,145.2864887219981L578.2184980457142,118.53923224608634L580.646765305281,117.31708797103272L583.0750325648476,137.3501111131558L585.5032998244142,102.61944609698479L587.9315670839809,134.6917344313133L590.3598343435476,157.38261317230996L592.7881016031142,160.23981284303608L595.216368862681,162.39095070516166L597.6446361222476,143.78054665628042L600.0729033818143,179.5217040218203L602.5011706413809,141.7104440058979L604.9294379009476,150.5394646373476L607.3577051605143,160.84491788117242L609.7859724200808,164.73389418990106L612.2142396796476,138.6412978271819L614.6425069392143,131.55689223456844L617.070774198781,152.7069584186693L619.4990414583476,137.44656385212235L621.9273087179143,132.00289488523381L624.355575977481,147.0587507496162L626.7838432370477,160.3247185090805L629.2121104966143,159.80683867965593L631.640377756181,135.91186587875688L634.0686450157477,124.2712172547307L636.4969122753143,110.91936562754655L638.9251795348811,138.70960219212225L641.3534467944478,162.6997168630326L643.7817140540144,149.41877612172033L646.209981313581,164.2086723675749L648.6382485731477,119.08297392168203L651.0665158327145,120.67369310766384L653.4947830922812,132.5969701313838L655.9230503518478,129.55515454661594L658.3513176114144,148.60409903204592L660.7795848709811,126.24938359802354L663.2078521305478,122.26978107751648L665.6361193901145,115.52040687708626L668.0643866496812,139.49622632212848L670.4926539092478,152.05061629889124L672.9209211688145,155.4285684241927L675.3491884283811,118.96657069245208L677.7774556879478,158.774900196448L680.2057229475146,170.30823653336535L682.6339902070811,196.4298532425593L685.0622574666478,162.9221347184637L687.4905247262145,160.90913150309646L689.9187919857812,153.39950450783343L692.3470592453479,168.23902404107582L694.7753265049146,157.08948201636267L697.2035937644812,144.00412531780498L699.6318610240479,116.37449847304775L702.0601282836145,139.97253693094777L704.4883955431812,120.72831041653154L706.916662802748,151.4444951717438L709.3449300623146,113.53403820118517L711.7731973218812,134.82443514139408L714.2014645814479,152.23634666716774L716.6297318410146,164.33273717663596L719.0579991005814,143.32608691342153L721.486266360148,158.66983089222694L723.9145336197146,154.36107246623197L726.3428008792813,107.17457719013282L728.7710681388479,109.00984000538016L731.1993353984146,132.50631558151454L733.6276026579814,129.98036511067951L736.055869917548,121.29184612849299L738.4841371771146,133.71148474530435L740.9124044366813,176.85689132714182L743.340671696248,160.50368295069973L745.7689389558147,126.79933214659039L748.1972062153812,161.47078192944062L750.625473474948,118.60298886723434L753.0537407345147,139.31377921950553L755.4820079940814,113.40015894302184L757.910275253648,126.7152769716229L760.3385425132147,150.30239093266945L762.7668097727814,139.22551814214202L765.195077032348,151.08795947100106L767.6233442919147,141.5940674784702L770.0516115514814,158.24849264279885L772.4798788110481,131.8610423345508L774.9081460706146,154.0488094801847L777.3364133301814,145.84444808761234L779.7646805897481,168.38018320842187L782.1929478493148,174.2133449485603L784.6212151088814,179.59284195530867L787.049482368448,177.79126305603552L789.4777496280147,150.27780855900855L791.9060168875815,126.8146228020907L794.3342841471481,141.17210749847152L796.7625514067148,122.84770539240944L799.1908186662815,166.58608552611585L801.619085925848,168.59843010101446L804.0473531854147,183.76631267809933L806.4756204449815,183.53801587839624L808.9038877045482,196.55525591515345L811.3321549641148,187.3293620012358L813.7604222236814,186.4325728154918L816.1886894832481,183.77425324897382L818.6169567428149,184.9710293225787L821.0452240023815,159.677913944465L823.4734912619482,156.83423171230106L825.9017585215149,136.29317825731852L828.3300257810815,119.47383430364785L830.7582930406481,96.72853658965812L833.1865603002149,105.94316417519266L835.6148275597816,110.25619996205657L838.0430948193483,143.39695307425248L840.4713620789148,144.96803193198812L842.8996293384815,116.97907237564311L845.3278965980483,115.82850581790113L847.7561638576149,137.11681772270924L850.1844311171816,144.35694638863794L852.6126983767482,157.60750404447631L855.0409656363149,152.4185077812866L857.4692328958815,152.4343119690599L859.8975001554483,135.43023146889806L862.325767415015,87.78937915352361L864.7540346745817,93.73216610617347L867.1823019341482,115.88147552074395L869.6105691937149,140.86665100001775L872.0388364532816,126.31441647849316L874.4671037128484,127.15091335958303L876.895370972415,148.4467481132486L879.3236382319816,125.89052610397437L881.7519054915483,149.50426983078242L884.1801727511149,171.35073503101418L886.6084400106816,168.5969997856663L889.0367072702484,183.13221425586838L891.464974529815,137.96404761197675L893.8932417893816,140.87813626142335L896.3215090489483,139.9158988225449L898.749776308515,132.99516581336636L901.1780435680818,129.84321659383357L903.6063108276484,147.58693544316014L906.034578087215,141.18301110533577L908.4628453467817,147.24745031561224L910.8911126063484,132.0293558463452L913.319379865915,139.23768390011284L915.7476471254818,164.72074013473085L918.1759143850484,167.22391886943532L920.604181644615,150.85808049832391L923.0324489041817,130.74403726426016L925.4607161637484,149.9604269315465L927.8889834233152,121.98134953896263L930.3172506828818,128.47558634249611L932.7455179424484,131.8432553895788L935.1737852020151,125.28473970026613L937.6020524615818,157.2837121362991L940.0303197211484,129.97013521327392L942.4585869807152,157.05550891831953L944.8868542402818,161.36512821361822L947.3151214998485,193.28615156954223L949.7433887594151,181.14381663040737L952.1716560189818,199.5504380238249L954.5999232785485,145.31825911668813L957.028190538115,109.74641276345983L959.4564577976818,98.969318725553L961.8847250572485,136.79848818052017L964.3129923168152,130.00587095598013L966.7412595763818,98.93299501029047L969.1695268359485,134.1771365093625L971.5977940955152,133.8525229640066L974.0260613550819,158.23689196567622L976.4543286146485,144.4328052827799L978.8825958742152,156.50361449511584L981.3108631337819,127.82928239024397L983.7391303933485,114.7735372721973L986.1673976529152,147.71965196117765L988.5956649124819,151.56217492326158L991.0239321720486,115.05773852932023L993.4521994316153,109.65675983153838L995.8804666911819,121.56866133587147L998.3087339507485,146.64331582024312L1000.7370012103153,162.6283932664177L1003.1652684698819,164.2749181323451L1005.5935357294486,143.3397686562256L1008.0218029890153,156.65331004185643L1010.4500702485819,193.56675531725247L1012.8783375081485,124.6493390800381L1015.3066047677153,121.66961321599429L1017.734872027282,104.37811436023034L1020.1631392868487,113.1426850265169L1022.5914065464152,156.7938045530217L1025.019673805982,151.1974762713368L1027.4479410655485,157.56483394933102L1029.8762083251154,168.95591019517124L1032.304475584682,181.12165451726443L1034.7327428442488,148.68777594255553L1037.1610101038152,120.62395744094232L1039.589277363382,149.94376157106834L1042.0175446229487,151.9185748203193" style="fill: none;" fill="none"></path></g></g></g></g><g opacity="0.2"><g><g><g><path stroke="rgb(255, 112, 67)" stroke-width="2px" d="M70.7106407962797,373.8562806077352L73.13890805584639,332.78254690533055L75.56717531541305,312.7615931977468L77.99544257497972,266.72912746613474L80.42370983454639,187.64642352426927L82.85197709411307,281.24840201924485L85.28024435367973,279.4769171326658L87.70851161324642,251.34228950294707L90.13677887281308,191.11313257889202L92.56504613237976,109.13450213056669L94.99331339194643,239.52341585463844L97.4215806515131,285.3859499783043L99.84984791107976,175.67002431791974L102.27811517064644,253.7270919659356L104.70638243021311,201.1840302839295L107.13464968977979,132.55089526364299L109.56291694934646,224.56380471928114L111.99118420891314,144.153992258242L114.41945146847979,170.76439591619544L116.84771872804647,155.02703491692367L119.27598598761314,145.49415840557234L121.70425324717982,216.48306156196824L124.13252050674649,185.8330551876949L126.56078776631317,179.81591247859615L128.98905502587982,227.9349402759992L131.41732228544652,98.27881751650035L133.84558954501318,219.7921668691599L136.27385680457985,212.2870018759396L138.70212406414652,101.39690614353285L141.13039132371318,242.05826375734267L143.55865858327988,222.2735853552553L145.98692584284655,209.968451889546L148.4151931024132,187.84752663575898L150.8434603619799,146.42698389330275L153.27172762154657,121.97458134061581L155.69999488111324,111.36493267425074L158.1282621406799,156.63473909424906L160.5565294002466,177.64154372765628L162.98479665981327,226.62863013460785L165.4130639193799,142.0886716434443L167.84133117894658,219.28969578486624L170.26959843851327,85.87626007065258L172.69786569807994,191.06926833101264L175.1261329576466,206.00779439415695L177.55440021721327,210.62821396371015L179.98266747677997,125.53673357749301L182.41093473634663,225.63153296816643L184.8392019959133,138.92317418284523L187.26746925547997,110.46755304339248L189.69573651504666,203.77921433270663L192.12400377461333,214.22268448185315L194.55227103418,97.14030180639085L196.98053829374666,144.53146457080103L199.40880555331336,191.2401642747708L201.83707281288,184.90030788935462L204.26534007244666,220.25405765996095L206.69360733201333,157.98011786759L209.12187459158002,255.9484525403612L211.5501418511467,216.5392015441026L213.97840911071336,153.52736241366838L216.40667637028002,148.15523004712372L218.83494362984672,107.96911533337241L221.2632108894134,225.1242141416829L223.69147814898005,216.8539659657539L226.11974540854672,210.97524454036716L228.54801266811342,129.30345532215694L230.97627992768008,112.45288591205724L233.40454718724675,142.59567771236723L235.83281444681342,222.8722033263149L238.2610817063801,288.2241205885665L240.68934896594675,138.67080489454105L243.11761622551342,209.1710764887015L245.54588348508008,217.4456772073494L247.97415074464678,104.3289561482463L250.40241800421344,188.3495285837117L252.8306852637801,90.6465947642712L255.2589525233468,217.03075217690406L257.6872197829135,132.7514771125316L260.11548704248014,191.4983977673369L262.5437543020468,122.75743957802071L264.9720215616135,51.400264393974524L267.40028882118014,179.65093286536006L269.8285560807468,211.9669205757575L272.25682334031353,168.0603461731865L274.68509059988014,194.00614001478596L277.11335785944686,41.533023987171966L279.54162511901353,154.8623680612482L281.9698923785802,193.44781564278847L284.39815963814686,100.47906695558292L286.82642689771353,88.96682603234899L289.2546941572802,126.10980968110051L291.6829614168469,139.92047985432703L294.11122867641353,147.87677156563643L296.53949593598026,202.5547684828121L298.9677631955469,152.80507489050686L301.39603045511353,195.003576001918L303.82429771468026,156.49402425509237L306.25256497424687,216.6230726966135L308.6808322338136,150.7290162661273L311.10909949338026,171.83931758897543L313.5373667529469,110.46945565188636L315.9656340125136,163.75218896479947L318.3939012720803,73.47974927097712L320.8221685316469,190.72481800423088L323.25043579121365,147.62734741102827L325.67870305078026,139.73597895668115L328.106970310347,187.18124877908159L330.53523756991365,98.05013961341447L332.9635048294803,99.43046904415661L335.391772089047,163.43953565668252L337.82003934861365,177.48902229058558L340.2483066081803,105.22000243850165L342.676573867747,138.56811616213187L345.10484112731365,195.1130672112711L347.5331083868803,200.87450455141888L349.96137564644704,125.15391832327306L352.38964290601365,136.30388173876895L354.8179101655804,182.745694990995L357.24617742514704,193.71861156404017L359.6744446847137,82.73851984356004L362.1027119442804,99.35204508582683L364.5309792038471,111.01224639837218L366.9592464634137,148.3343880031087L369.38751372298043,171.75831338077037L371.81578098254704,124.64537452967701L374.2440482421137,201.1107146990901L376.67231550168043,185.8447054068286L379.10058276124704,113.89180525915874L381.52885002081376,238.2826284222006L383.95711728038043,66.40334883026036L386.3853845399471,85.36047072690177L388.81365179951376,178.17526450488364L391.24191905908043,191.69204682363142L393.6701863186471,112.22944669811203L396.0984535782138,28.282737173217107L398.52672083778043,119.66635235372323L400.95498809734715,185.57440468504797L403.3832553569138,195.67060968936698L405.8115226164805,166.7034474963621L408.23978987604715,83.69295166610453L410.66805713561376,150.71171034777205L413.0963243951805,190.32149106665918L415.52459165474716,182.2894077731554L417.9528589143138,160.06626292330012L420.3811261738805,189.75341908402186L422.8093934334472,79.01534958921482L425.2376606930138,188.899903701043L427.66592795258055,97.44758610971688L430.09419521214716,181.1324914932284L432.5224624717139,177.95260718484002L434.95072973128055,141.13554297740248L437.3789969908472,119.35614897983127L439.8072642504139,162.74406709434564L442.2355315099806,155.46794488803192L444.6637987695472,203.33997240192176L447.09206602911394,195.53265754199592L449.5203332886806,166.3721851133872L451.9486005482472,160.30987499990647L454.37686780781394,140.21812079953344L456.80513506738055,164.62254112979264L459.23340232694727,109.12055835598825L461.66166958651394,157.6655880141092L464.0899368460806,114.30829407740725L466.51820410564727,84.73912570643589L468.946471365214,84.77462368956823L471.3747386247806,130.2747239267157L473.80300588434733,132.53168673679386L476.23127314391394,114.0963226406854L478.65954040348066,159.65819249605875L481.08780766304733,184.01082538690244L483.516074922614,95.4040542716436L485.94434218218066,93.01072916512767L488.3726094417474,185.28828364332503L490.800876701314,139.90911632962388L493.22914396088066,197.03337257045337L495.65741122044733,100.78129501167865L498.085678480014,197.0263615884691L500.5139457395807,191.06653170235705L502.94221299914733,103.11936628248205L505.37048025871405,78.03730457084224L507.7987475182807,144.24164256461054L510.2270147778474,146.00507394400321L512.655282037414,143.09090324650614L515.0835492969807,80.29921937563047L517.5118165565474,82.66476118550982L519.9400838161141,188.70771418003145L522.3683510756807,157.86283378235106L524.7966183352474,118.50211233425132L527.2248855948142,114.2800937706898L529.6531528543808,70.45788572010068L532.0814201139474,99.98592647184823L534.5096873735141,183.10620020588948L536.9379546330807,169.1351375303162L539.3662218926474,101.14435441331833L541.7944891522142,119.51041664661554L544.2227564117809,180.54260467073667L546.6510236713474,150.19224610268373L549.0792909309141,189.5196588705756L551.5075581904808,185.44447998173325L553.9358254500476,123.3600452079784L556.3640927096142,199.00515261149042L558.7923599691808,258.0501051584529L561.2206272287475,106.3506470833351L563.6488944883142,92.00964433978815L566.0771617478808,186.78292596248005L568.5054290074476,133.8676567201856L570.9336962670142,84.71009137955676L573.3619635265808,84.10151729281691L575.7902307861475,202.5936286097213L578.2184980457142,78.41834753221858L580.646765305281,115.48387155845228L583.0750325648476,167.39964582634047L585.5032998244142,50.5234485727282L587.9315670839809,182.80016693280598L590.3598343435476,191.41893128380502L592.7881016031142,164.52561234912517L595.216368862681,165.61765749835L597.6446361222476,115.8649405829586L600.0729033818143,233.13344007013012L602.5011706413809,84.99355398201423L604.9294379009476,163.78299558452227L607.3577051605143,176.3030977469095L609.7859724200808,170.56735865299405L612.2142396796476,99.50240328310315L614.6425069392143,120.93028384564823L617.070774198781,184.43205769482063L619.4990414583476,114.55597200230184L621.9273087179143,123.83739143490092L624.355575977481,169.6425345461899L626.7838432370477,180.22367014827685L629.2121104966143,159.03001893551897L631.640377756181,100.06940667740832L634.0686450157477,106.81024431869146L636.4969122753143,90.89158818677032L638.9251795348811,180.39495703898584L641.3534467944478,198.68488886939798L643.7817140540144,129.49736500975197L646.209981313581,186.39351673635673L648.6382485731477,51.394426252842635L651.0665158327145,123.05977188663665L653.4947830922812,150.48188566696385L655.9230503518478,124.9924311694641L658.3513176114144,177.17751576019094L660.7795848709811,92.7173104469899L663.2078521305478,116.30037729675573L665.6361193901145,105.39634557644092L668.0643866496812,175.45995548969177L670.4926539092478,170.8822012640355L672.9209211688145,160.49549661214462L675.3491884283811,64.27357409484136L677.7774556879478,218.48739445244166L680.2057229475146,187.60824103874148L682.6339902070811,235.61227830635028L685.0622574666478,112.66055693232032L687.4905247262145,157.88962668004564L689.9187919857812,142.13506401493882L692.3470592453479,190.4983033409394L694.7753265049146,140.36516897929303L697.2035937644812,124.3760902699684L699.6318610240479,74.93005820591186L702.0601282836145,175.36959461779765L704.4883955431812,91.86197064490727L706.916662802748,197.51877230456222L709.3449300623146,56.668352745347214L711.7731973218812,166.7600305517074L714.2014645814479,178.35421395582824L716.6297318410146,182.47732294083823L719.0579991005814,111.81611151859994L721.486266360148,181.68544686043495L723.9145336197146,147.89793482723954L726.3428008792813,36.394834275983925L728.7710681388479,111.76273422825119L731.1993353984146,167.7510289457163L733.6276026579814,126.1914394044268L736.055869917548,108.25906765521313L738.4841371771146,152.3409426705213L740.9124044366813,241.5750011998981L743.340671696248,135.9738703860366L745.7689389558147,76.24280594042634L748.1972062153812,213.4779566037159L750.625473474948,54.301299273924826L753.0537407345147,170.37996474791228L755.4820079940814,74.52972852829629L757.910275253648,146.68795401452442L760.3385425132147,185.6830618742393L762.7668097727814,122.61020895635076L765.195077032348,168.88162146428968L767.6233442919147,127.35322948967374L770.0516115514814,183.23013038929196L772.4798788110481,92.27986687217866L774.9081460706146,187.3304601986356L777.3364133301814,133.5379059987538L779.7646805897481,202.18378588963628L782.1929478493148,182.96308755876788L784.6212151088814,187.6620874654312L787.049482368448,175.0888947071258L789.4777496280147,109.00762681346818L791.9060168875815,91.619844166714L794.3342841471481,162.70833454304284L796.7625514067148,95.36110223331609L799.1908186662815,232.19365572667547L801.619085925848,171.61694696336238L804.0473531854147,206.51813654372668L806.4756204449815,183.19557067884153L808.9038877045482,216.08111597028935L811.3321549641148,173.4905211303594L813.7604222236814,185.08738903687575L816.1886894832481,179.78677389919676L818.6169567428149,186.76619343298597L821.0452240023815,121.7382408772943L823.4734912619482,152.56870836405534L825.9017585215149,105.48159807484461L828.3300257810815,94.24481837314187L830.7582930406481,62.61059001867338L833.1865603002149,119.76510555349444L835.6148275597816,116.72575364235234L838.0430948193483,193.10808274254634L840.4713620789148,147.3246502185916L842.8996293384815,74.99563304112543L845.3278965980483,114.1026559812883L847.7561638576149,169.04928557992127L850.1844311171816,155.21713938753098L852.6126983767482,177.48334052823398L855.0409656363149,144.63501338650198L857.4692328958815,152.45801825071982L859.8975001554483,109.92411071865536L862.325767415015,16.328100680461898L864.7540346745817,102.64634653514831L867.1823019341482,149.10543964259958L869.6105691937149,178.34441421892828L872.0388364532816,104.48606469620638L874.4671037128484,128.4056586812179L876.895370972415,180.39050024374674L879.3236382319816,92.056193090063L881.7519054915483,184.92488542099466L884.1801727511149,204.12043283136182L886.6084400106816,164.46639691764454L889.0367072702484,204.9350359611714L891.464974529815,70.21179764613933L893.8932417893816,145.2492692355934L896.3215090489483,138.47254266422715L898.749776308515,122.6140662995986L901.1780435680818,125.1152927645344L903.6063108276484,174.20251371714994L906.034578087215,131.5771245985991L908.4628453467817,156.34410913102693L910.8911126063484,109.20221414244465L913.319379865915,150.0501759807643L915.7476471254818,202.94532448665777L918.1759143850484,170.97868697149204L920.604181644615,126.309322941657L923.0324489041817,100.57297241316427L925.4607161637484,178.7850114324759L927.8889834233152,80.01273345008683L930.3172506828818,138.21694154779644L932.7455179424484,136.89475896020272L935.1737852020151,115.44696616629706L937.6020524615818,205.28217079034866L940.0303197211484,88.99976982873613L942.4585869807152,197.683569475888L944.8868542402818,167.8295571565663L947.3151214998485,241.16768660342828L949.7433887594151,162.9303142217051L952.1716560189818,227.16037011395113L954.5999232785485,63.96999075598286L957.028190538115,56.388643233617394L959.4564577976818,82.8036776686928L961.8847250572485,193.54224236297082L964.3129923168152,119.81694511917004L966.7412595763818,52.32368109175582L969.1695268359485,187.04334875797065L971.5977940955152,133.36560264597276L974.0260613550819,194.81344546818067L976.4543286146485,123.72667525843535L978.8825958742152,174.6098283136198L981.3108631337819,84.81778423293616L983.7391303933485,95.18991959512734L986.1673976529152,197.13882399464816L988.5956649124819,157.32595936638728L991.0239321720486,60.3010839384082L993.4521994316153,101.55529178486552L995.8804666911819,139.43651359237106L998.3087339507485,184.25529754680053L1000.7370012103153,186.60600943567962L1003.1652684698819,166.74470543123613L1005.5935357294486,111.9370444420463L1008.0218029890153,176.62362212030246L1010.4500702485819,248.93692323034657L1012.8783375081485,21.273214724216622L1015.3066047677153,117.2000244199286L1017.734872027282,78.44086607658443L1020.1631392868487,126.2895410259467L1022.5914065464152,222.27048384277896L1025.019673805982,142.80298384880956L1027.4479410655485,167.11587046632232L1029.8762083251154,186.04252456393164L1032.304475584682,199.37027100040433L1034.7327428442488,100.03695808049223L1037.1610101038152,78.52822968852244L1039.589277363382,193.9234677662575L1042.0175446229487,154.8807946941957" style="fill: none;" fill="none"></path></g></g></g></g></g></g><g transform="translate(30, 378)" clip-path="url(#clip_1)"><clipPath id="clip_1"><rect width="1081" height="22"></rect></clipPath><g><g><line x1="70.7106407962797" y1="0" x2="70.7106407962797" y2="5" style="visibility: inherit;" fill="rgb(0, 0, 0)" stroke="rgb(204, 204, 204)" stroke-width="1px"></line><line x1="167.84133117894658" y1="0" x2="167.84133117894658" y2="5" style="visibility: inherit;" fill="rgb(0, 0, 0)" stroke="rgb(204, 204, 204)" stroke-width="1px"></line><line x1="264.9720215616135" y1="0" x2="264.9720215616135" y2="5" style="visibility: inherit;" fill="rgb(0, 0, 0)" stroke="rgb(204, 204, 204)" stroke-width="1px"></line><line x1="362.1027119442804" y1="0" x2="362.1027119442804" y2="5" style="visibility: inherit;" fill="rgb(0, 0, 0)" stroke="rgb(204, 204, 204)" stroke-width="1px"></line><line x1="459.23340232694727" y1="0" x2="459.23340232694727" y2="5" style="visibility: inherit;" fill="rgb(0, 0, 0)" stroke="rgb(204, 204, 204)" stroke-width="1px"></line><line x1="556.3640927096142" y1="0" x2="556.3640927096142" y2="5" style="visibility: inherit;" fill="rgb(0, 0, 0)" stroke="rgb(204, 204, 204)" stroke-width="1px"></line><line x1="653.4947830922812" y1="0" x2="653.4947830922812" y2="5" style="visibility: inherit;" fill="rgb(0, 0, 0)" stroke="rgb(204, 204, 204)" stroke-width="1px"></line><line x1="750.625473474948" y1="0" x2="750.625473474948" y2="5" style="visibility: inherit;" fill="rgb(0, 0, 0)" stroke="rgb(204, 204, 204)" stroke-width="1px"></line><line x1="847.7561638576149" y1="0" x2="847.7561638576149" y2="5" style="visibility: inherit;" fill="rgb(0, 0, 0)" stroke="rgb(204, 204, 204)" stroke-width="1px"></line><line x1="944.8868542402818" y1="0" x2="944.8868542402818" y2="5" style="visibility: inherit;" fill="rgb(0, 0, 0)" stroke="rgb(204, 204, 204)" stroke-width="1px"></line><line x1="1042.0175446229487" y1="0" x2="1042.0175446229487" y2="5" style="visibility: inherit;" fill="rgb(0, 0, 0)" stroke="rgb(204, 204, 204)" stroke-width="1px"></line></g><g transform="translate(0, 8)"><text x="70.7106407962797" y="0" dx="0em" dy="0.95em" style="text-anchor: middle; visibility: inherit; font-family: Roboto, sans-serif; font-size: 12px; font-weight: 200;" fill="rgb(50, 49, 63)" stroke="none" stroke-width="1px">0</text><text x="167.84133117894658" y="0" dx="0em" dy="0.95em" style="text-anchor: middle; visibility: inherit; font-family: Roboto, sans-serif; font-size: 12px; font-weight: 200;" fill="rgb(50, 49, 63)" stroke="none" stroke-width="1px">20k</text><text x="264.9720215616135" y="0" dx="0em" dy="0.95em" style="text-anchor: middle; visibility: inherit; font-family: Roboto, sans-serif; font-size: 12px; font-weight: 200;" fill="rgb(50, 49, 63)" stroke="none" stroke-width="1px">40k</text><text x="362.1027119442804" y="0" dx="0em" dy="0.95em" style="text-anchor: middle; visibility: inherit; font-family: Roboto, sans-serif; font-size: 12px; font-weight: 200;" fill="rgb(50, 49, 63)" stroke="none" stroke-width="1px">60k</text><text x="459.23340232694727" y="0" dx="0em" dy="0.95em" style="text-anchor: middle; visibility: inherit; font-family: Roboto, sans-serif; font-size: 12px; font-weight: 200;" fill="rgb(50, 49, 63)" stroke="none" stroke-width="1px">80k</text><text x="556.3640927096142" y="0" dx="0em" dy="0.95em" style="text-anchor: middle; visibility: inherit; font-family: Roboto, sans-serif; font-size: 12px; font-weight: 200;" fill="rgb(50, 49, 63)" stroke="none" stroke-width="1px">100k</text><text x="653.4947830922812" y="0" dx="0em" dy="0.95em" style="text-anchor: middle; visibility: inherit; font-family: Roboto, sans-serif; font-size: 12px; font-weight: 200;" fill="rgb(50, 49, 63)" stroke="none" stroke-width="1px">120k</text><text x="750.625473474948" y="0" dx="0em" dy="0.95em" style="text-anchor: middle; visibility: inherit; font-family: Roboto, sans-serif; font-size: 12px; font-weight: 200;" fill="rgb(50, 49, 63)" stroke="none" stroke-width="1px">140k</text><text x="847.7561638576149" y="0" dx="0em" dy="0.95em" style="text-anchor: middle; visibility: inherit; font-family: Roboto, sans-serif; font-size: 12px; font-weight: 200;" fill="rgb(50, 49, 63)" stroke="none" stroke-width="1px">160k</text><text x="944.8868542402818" y="0" dx="0em" dy="0.95em" style="text-anchor: middle; visibility: inherit; font-family: Roboto, sans-serif; font-size: 12px; font-weight: 200;" fill="rgb(50, 49, 63)" stroke="none" stroke-width="1px">180k</text><text x="1042.0175446229487" y="0" dx="0em" dy="0.95em" style="text-anchor: middle; visibility: inherit; font-family: Roboto, sans-serif; font-size: 12px; font-weight: 200;" fill="rgb(50, 49, 63)" stroke="none" stroke-width="1px">200k</text></g><line x1="0" y1="0" x2="1081.81875" y2="0" fill="rgb(0, 0, 0)" stroke="rgb(204, 204, 204)" stroke-width="1px"></line></g></g></g></g></svg>