<svg viewBox="0 0 887 400" xmlns="http://www.w3.org/2000/svg"><g><g><g><g><g><line x1="30" y1="377" x2="25" y2="377" style="visibility: inherit;" fill="rgb(0, 0, 0)" stroke="rgb(204, 204, 204)" stroke-width="1px"></line><line x1="30" y1="342.7272727272727" x2="25" y2="342.7272727272727" style="visibility: inherit;" fill="rgb(0, 0, 0)" stroke="rgb(204, 204, 204)" stroke-width="1px"></line><line x1="30" y1="308.45454545454544" x2="25" y2="308.45454545454544" style="visibility: inherit;" fill="rgb(0, 0, 0)" stroke="rgb(204, 204, 204)" stroke-width="1px"></line><line x1="30" y1="274.1818181818182" x2="25" y2="274.1818181818182" style="visibility: inherit;" fill="rgb(0, 0, 0)" stroke="rgb(204, 204, 204)" stroke-width="1px"></line><line x1="30" y1="239.9090909090909" x2="25" y2="239.9090909090909" style="visibility: inherit;" fill="rgb(0, 0, 0)" stroke="rgb(204, 204, 204)" stroke-width="1px"></line><line x1="30" y1="205.63636363636363" x2="25" y2="205.63636363636363" style="visibility: inherit;" fill="rgb(0, 0, 0)" stroke="rgb(204, 204, 204)" stroke-width="1px"></line><line x1="30" y1="171.36363636363637" x2="25" y2="171.36363636363637" style="visibility: inherit;" fill="rgb(0, 0, 0)" stroke="rgb(204, 204, 204)" stroke-width="1px"></line><line x1="30" y1="137.0909090909091" x2="25" y2="137.0909090909091" style="visibility: inherit;" fill="rgb(0, 0, 0)" stroke="rgb(204, 204, 204)" stroke-width="1px"></line><line x1="30" y1="102.81818181818181" x2="25" y2="102.81818181818181" style="visibility: inherit;" fill="rgb(0, 0, 0)" stroke="rgb(204, 204, 204)" stroke-width="1px"></line><line x1="30" y1="68.54545454545453" x2="25" y2="68.54545454545453" style="visibility: inherit;" fill="rgb(0, 0, 0)" stroke="rgb(204, 204, 204)" stroke-width="1px"></line><line x1="30" y1="34.27272727272729" x2="25" y2="34.27272727272729" style="visibility: inherit;" fill="rgb(0, 0, 0)" stroke="rgb(204, 204, 204)" stroke-width="1px"></line><line x1="30" y1="0" x2="25" y2="0" style="visibility: inherit;" fill="rgb(0, 0, 0)" stroke="rgb(204, 204, 204)" stroke-width="1px"></line></g><g transform="translate(20, 0)"><text x="0" y="377" dx="0em" dy="0.3em" style="text-anchor: end; visibility: hidden; font-family: Roboto, sans-serif; font-size: 12px; font-weight: 200;" fill="rgb(33, 33, 33)" stroke="none" stroke-width="1px">25</text><text x="0" y="342.7272727272727" dx="0em" dy="0.3em" style="text-anchor: end; visibility: inherit; font-family: Roboto, sans-serif; font-size: 12px; font-weight: 200;" fill="rgb(33, 33, 33)" stroke="none" stroke-width="1px">26</text><text x="0" y="308.45454545454544" dx="0em" dy="0.3em" style="text-anchor: end; visibility: inherit; font-family: Roboto, sans-serif; font-size: 12px; font-weight: 200;" fill="rgb(33, 33, 33)" stroke="none" stroke-width="1px">27</text><text x="0" y="274.1818181818182" dx="0em" dy="0.3em" style="text-anchor: end; visibility: inherit; font-family: Roboto, sans-serif; font-size: 12px; font-weight: 200;" fill="rgb(33, 33, 33)" stroke="none" stroke-width="1px">28</text><text x="0" y="239.9090909090909" dx="0em" dy="0.3em" style="text-anchor: end; visibility: inherit; font-family: Roboto, sans-serif; font-size: 12px; font-weight: 200;" fill="rgb(33, 33, 33)" stroke="none" stroke-width="1px">29</text><text x="0" y="205.63636363636363" dx="0em" dy="0.3em" style="text-anchor: end; visibility: inherit; font-family: Roboto, sans-serif; font-size: 12px; font-weight: 200;" fill="rgb(33, 33, 33)" stroke="none" stroke-width="1px">30</text><text x="0" y="171.36363636363637" dx="0em" dy="0.3em" style="text-anchor: end; visibility: inherit; font-family: Roboto, sans-serif; font-size: 12px; font-weight: 200;" fill="rgb(33, 33, 33)" stroke="none" stroke-width="1px">31</text><text x="0" y="137.0909090909091" dx="0em" dy="0.3em" style="text-anchor: end; visibility: inherit; font-family: Roboto, sans-serif; font-size: 12px; font-weight: 200;" fill="rgb(33, 33, 33)" stroke="none" stroke-width="1px">32</text><text x="0" y="102.81818181818181" dx="0em" dy="0.3em" style="text-anchor: end; visibility: inherit; font-family: Roboto, sans-serif; font-size: 12px; font-weight: 200;" fill="rgb(33, 33, 33)" stroke="none" stroke-width="1px">33</text><text x="0" y="68.54545454545453" dx="0em" dy="0.3em" style="text-anchor: end; visibility: inherit; font-family: Roboto, sans-serif; font-size: 12px; font-weight: 200;" fill="rgb(33, 33, 33)" stroke="none" stroke-width="1px">34</text><text x="0" y="34.27272727272729" dx="0em" dy="0.3em" style="text-anchor: end; visibility: inherit; font-family: Roboto, sans-serif; font-size: 12px; font-weight: 200;" fill="rgb(33, 33, 33)" stroke="none" stroke-width="1px">35</text><text x="0" y="0" dx="0em" dy="0.3em" style="text-anchor: end; visibility: hidden; font-family: Roboto, sans-serif; font-size: 12px; font-weight: 200;" fill="rgb(33, 33, 33)" stroke="none" stroke-width="1px">36</text></g><line x1="30" y1="0" x2="30" y2="377" fill="rgb(0, 0, 0)" stroke="rgb(204, 204, 204)" stroke-width="1px"></line></g></g><g transform="translate(30, 0)" clip-path="url(#clip_0)"><clipPath id="clip_0"><rect width="857" height="377"></rect></clipPath><g><g><g><line x1="0" y1="0" x2="0" y2="377" fill="rgb(0, 0, 0)" stroke="rgb(66, 66, 66)" stroke-width="1px" opacity="0.25"></line><line x1="71.41666666666666" y1="0" x2="71.41666666666666" y2="377" fill="rgb(0, 0, 0)" stroke="rgb(66, 66, 66)" stroke-width="1px" opacity="0.25"></line><line x1="142.83333333333331" y1="0" x2="142.83333333333331" y2="377" fill="rgb(0, 0, 0)" stroke="rgb(66, 66, 66)" stroke-width="1px" opacity="0.25"></line><line x1="214.25" y1="0" x2="214.25" y2="377" fill="rgb(0, 0, 0)" stroke="rgb(66, 66, 66)" stroke-width="1px" opacity="0.25"></line><line x1="285.66666666666663" y1="0" x2="285.66666666666663" y2="377" fill="rgb(0, 0, 0)" stroke="rgb(66, 66, 66)" stroke-width="1px" opacity="0.25"></line><line x1="357.08333333333337" y1="0" x2="357.08333333333337" y2="377" fill="rgb(0, 0, 0)" stroke="rgb(66, 66, 66)" stroke-width="1px" opacity="0.25"></line><line x1="428.5" y1="0" x2="428.5" y2="377" fill="rgb(0, 0, 0)" stroke="rgb(66, 66, 66)" stroke-width="1px" opacity="0.25"></line><line x1="499.9166666666667" y1="0" x2="499.9166666666667" y2="377" fill="rgb(0, 0, 0)" stroke="rgb(66, 66, 66)" stroke-width="1px" opacity="0.25"></line><line x1="571.3333333333333" y1="0" x2="571.3333333333333" y2="377" fill="rgb(0, 0, 0)" stroke="rgb(66, 66, 66)" stroke-width="1px" opacity="0.25"></line><line x1="642.75" y1="0" x2="642.75" y2="377" fill="rgb(0, 0, 0)" stroke="rgb(66, 66, 66)" stroke-width="1px" opacity="0.25"></line><line x1="714.1666666666667" y1="0" x2="714.1666666666667" y2="377" fill="rgb(0, 0, 0)" stroke="rgb(66, 66, 66)" stroke-width="1px" opacity="0.25"></line><line x1="785.5833333333333" y1="0" x2="785.5833333333333" y2="377" fill="rgb(0, 0, 0)" stroke="rgb(66, 66, 66)" stroke-width="1px" opacity="0.25"></line><line x1="857" y1="0" x2="857" y2="377" fill="rgb(0, 0, 0)" stroke="rgb(66, 66, 66)" stroke-width="1px" opacity="0.25"></line></g><g><line x1="0" y1="377" x2="857" y2="377" fill="rgb(0, 0, 0)" stroke="rgb(66, 66, 66)" stroke-width="1px" opacity="0.25"></line><line x1="0" y1="342.7272727272727" x2="857" y2="342.7272727272727" fill="rgb(0, 0, 0)" stroke="rgb(66, 66, 66)" stroke-width="1px" opacity="0.25"></line><line x1="0" y1="308.45454545454544" x2="857" y2="308.45454545454544" fill="rgb(0, 0, 0)" stroke="rgb(66, 66, 66)" stroke-width="1px" opacity="0.25"></line><line x1="0" y1="274.1818181818182" x2="857" y2="274.1818181818182" fill="rgb(0, 0, 0)" stroke="rgb(66, 66, 66)" stroke-width="1px" opacity="0.25"></line><line x1="0" y1="239.9090909090909" x2="857" y2="239.9090909090909" fill="rgb(0, 0, 0)" stroke="rgb(66, 66, 66)" stroke-width="1px" opacity="0.25"></line><line x1="0" y1="205.63636363636363" x2="857" y2="205.63636363636363" fill="rgb(0, 0, 0)" stroke="rgb(66, 66, 66)" stroke-width="1px" opacity="0.25"></line><line x1="0" y1="171.36363636363637" x2="857" y2="171.36363636363637" fill="rgb(0, 0, 0)" stroke="rgb(66, 66, 66)" stroke-width="1px" opacity="0.25"></line><line x1="0" y1="137.0909090909091" x2="857" y2="137.0909090909091" fill="rgb(0, 0, 0)" stroke="rgb(66, 66, 66)" stroke-width="1px" opacity="0.25"></line><line x1="0" y1="102.81818181818181" x2="857" y2="102.81818181818181" fill="rgb(0, 0, 0)" stroke="rgb(66, 66, 66)" stroke-width="1px" opacity="0.25"></line><line x1="0" y1="68.54545454545453" x2="857" y2="68.54545454545453" fill="rgb(0, 0, 0)" stroke="rgb(66, 66, 66)" stroke-width="1px" opacity="0.25"></line><line x1="0" y1="34.27272727272729" x2="857" y2="34.27272727272729" fill="rgb(0, 0, 0)" stroke="rgb(66, 66, 66)" stroke-width="1px" opacity="0.25"></line><line x1="0" y1="0" x2="857" y2="0" fill="rgb(0, 0, 0)" stroke="rgb(66, 66, 66)" stroke-width="1px" opacity="0.25"></line></g></g></g><g><g><line x1="0" y1="1233.818181818182" x2="857" y2="1233.818181818182" fill="rgb(0, 0, 0)" stroke="rgb(153, 153, 153)" stroke-width="1.5px"></line></g></g><g><g><line x1="71.41666666666666" y1="0" x2="71.41666666666666" y2="377" fill="rgb(0, 0, 0)" stroke="rgb(153, 153, 153)" stroke-width="1.5px"></line></g></g><g><g><g><g><g><path stroke="rgb(255, 112, 67)" stroke-width="2px" d="M85.7,466.27552462725293L87.48541666666667,342.53736788447117L89.27083333333334,391.1321341146435L96.41250000000001,401.216726952012L98.19791666666666,322.08684879637485L99.98333333333333,363.23992596299763L101.76875,288.21762689086285L103.55416666666667,295.94859740240844L105.33958333333332,256.4389152986891L107.125,209.94401825992844L108.91041666666666,278.2115428615701L110.69583333333334,295.2719550654277L112.48125,269.26323838480005L114.26666666666667,302.9270246943595L116.05208333333333,183.9223749256694L117.8375,258.4653544848415L119.62291666666667,303.6827548352028L121.40833333333333,235.99703779630534L123.19375,310.6143589746413L124.97916666666667,344.172208980664L126.76458333333333,350.0845908403015L128.54999999999998,308.55882615461115L130.33541666666665,239.21404473245738L132.12083333333334,173.16495288688304L133.90625,161.74355987670933L135.69166666666666,180.22924983215287L137.47708333333335,175.49434177679618L139.26250000000002,271.6146943665848L141.04791666666665,243.48776133998714L142.83333333333331,304.24660326108244L144.61875,188.10091142468235L146.40416666666667,203.46198347423507L148.18958333333333,256.57188884363086L149.975,293.8862679647092L151.76041666666669,232.36740315613676L153.54583333333335,293.2451136239209L155.33124999999998,237.7073740979546L157.11666666666665,167.54065953195757L158.90208333333334,227.01270277088028L160.6875,263.7376395154894L162.47291666666666,156.06942211562986L164.25833333333335,115.09881962894754L166.04375000000002,168.04935178607997L167.82916666666665,205.61480352661658L169.61458333333331,254.47989688094748L171.4,197.3672096184791L173.18541666666667,284.5636676678499L174.97083333333333,331.3849419475932L176.75625,229.3796920306781L178.54166666666669,163.85877252708744L180.32708333333335,125.48435933589857L182.11249999999998,237.7064532535734L183.89791666666665,287.64652015660107L185.68333333333334,290.9463042198707L187.46875,163.91319823682275L189.25416666666666,98.83139575428301L191.03958333333335,121.41271684710101L192.82500000000002,240.9042746173161L194.61041666666665,363.6122361931748L196.39583333333331,260.22867386367636L198.18125,238.22500387597847L199.96666666666667,297.23546334909105L201.75208333333333,189.77658976038683L203.5375,221.73601077151528L205.32291666666669,140.64424664956587L207.10833333333335,202.33690032905065L208.89374999999998,160.13770621527485L210.67916666666665,212.45449879852302L212.46458333333334,119.78497344903562L214.25,30.126670465239872L216.03541666666666,117.59997862247214L217.82083333333333,172.63164314050206L219.60625,156.9485504262046L221.39166666666668,230.0339327376342L223.17708333333334,100.51965981902762L224.9625,125.96917594346294L226.74791666666667,183.66817264426942L228.53333333333333,132.75680957022632L230.31875,73.02305352667055L232.10416666666666,73.35335016021396L233.88958333333332,50.84720601897985L235.675,93.26641167124679L237.46041666666667,141.06191137819204L239.24583333333334,146.25118075136476L241.03125,186.3094307907958L242.81666666666666,141.43086679856307L244.60208333333333,219.0357034731364L246.3875,180.69500454237806L248.17291666666668,210.97741740382708L249.95833333333334,166.83237814892797L251.74375,149.8791303417272L253.52916666666667,96.7647136731205L255.31458333333333,160.69318947096207L257.09999999999997,156.88437688670103L258.88541666666663,106.71420184890636L260.6708333333333,160.09185985723533L262.45625,86.91131167628184L264.2416666666667,87.50805617635682L266.02708333333334,132.86220987380494L267.8125,135.92962430019287L269.59791666666666,81.78944600012639L271.3833333333333,105.99792415025786L273.16875,170.9008765022064L274.9541666666667,198.62611661066344L276.73958333333337,139.05637245330334L278.52500000000003,143.33934604389248L280.3104166666667,190.50485877768048L282.0958333333333,236.7505171398328L283.88124999999997,118.48007047122205L285.66666666666663,59.60273552558662L287.4520833333333,31.22250266012307L289.2375,89.19735761691454L291.0229166666667,119.93055709833581L292.80833333333334,77.39764450624939L294.59375,202.20843547527843L296.37916666666666,229.1442341616985L298.1645833333333,187.72728576402014L299.95,222.9456721758525L301.7354166666667,112.43208669951005L303.52083333333337,48.54477101273714L305.30625000000003,125.23284876930776L307.0916666666667,168.1844949172132L308.8770833333333,102.95322305672875L310.66249999999997,-24.760583893901302L312.44791666666663,19.441531327588592L314.2333333333333,109.1003223776522L316.01875,192.37439935920844L317.8041666666667,174.6679375392201L319.58958333333334,95.75177099077278L321.375,105.40579143191037L323.16041666666666,199.08212932525504L324.9458333333333,205.67413776915873L326.73125,142.95603392547784L328.5166666666667,187.34820254189896L330.30208333333337,94.09851197924097L332.08750000000003,156.43818974591645L333.8729166666667,117.31051946611352L335.6583333333333,130.0635882216382L337.44374999999997,184.34691182469547L339.22916666666663,180.36961511516967L341.0145833333333,134.41428879455452L342.8,150.20812631905787L344.5854166666667,160.16403573961048L346.37083333333334,212.3829098443123L348.15625,239.05978290221506L349.94166666666666,159.4047767681401L351.7270833333333,193.18450903018902L353.5125,143.11562401940947L355.2979166666667,150.91109943162076L357.08333333333337,96.62173276244381L358.86875000000003,130.95638774096233L360.6541666666667,101.39409506800591L362.4395833333333,55.50853734087454L364.22499999999997,24.416052136413988L366.01041666666663,42.38352424283023L367.7958333333333,63.929563980845536L369.58125,72.13197988797465L371.3666666666667,82.4959820334596L373.15208333333334,110.48736541525507L374.9375,58.03063988014571L376.72291666666666,32.14610900909768L378.5083333333333,107.4966893145938L380.29375,130.84517829767415L382.0791666666667,210.26470987832937L383.86458333333337,130.11904751235812L385.65000000000003,182.04598017644906L387.4354166666667,195.7228972073209L389.2208333333333,90.10393679962337L391.00624999999997,18.74920525826298L392.79166666666663,45.63792924959552L394.5770833333333,62.49305806467213L396.3625,93.61682434353052L398.1479166666667,40.516114281633264L399.93333333333334,-17.067526893333604L401.71875,64.8922772905134L403.50416666666666,83.13884856868836L405.2895833333333,39.22349524295296L407.075,34.56421924382756L408.8604166666667,-9.246914759411924L410.64583333333337,-21.67347331298912L412.43125000000003,46.17384389639499L414.2166666666667,96.33468963861843L416.0020833333333,62.40940156837181L417.78749999999997,66.36210406469131L419.57291666666663,148.07368243559665L421.3583333333333,148.32720624591497L423.14375,174.87150650622718L424.9291666666667,238.86904343010352L426.71458333333334,188.49939250537213L428.5,263.3312299357072L430.28541666666666,344.1150586928474L432.0708333333333,191.6698858238405L433.85625,110.06947438537316L435.64166666666665,118.14040330909143L437.4270833333333,117.47294618134435L439.2125,43.684352536576505L440.99791666666664,18.96091725259215L442.78333333333336,112.01660245338422L444.56875,60.92094530326288L446.3541666666667,57.51998120561729L448.13958333333335,77.46062763938589L449.925,-18.34528673534924L451.7104166666667,53.5239345261733L453.49583333333334,113.00575781043045L455.28125,116.65940103635592L457.06666666666666,140.617927470402L458.8520833333333,130.90188274733345L460.6375,239.50462805871177L462.42291666666665,160.0627012903496L464.2083333333333,175.20071246843477L465.99375,188.67813774717405L467.77916666666664,195.83976374349703L469.56458333333336,131.99806947767684L471.35,96.06614224036153L473.1354166666667,146.9103971389835L474.92083333333335,106.93144350023148L476.70625,71.50917793430074L478.4916666666667,124.82661271761148L480.27708333333334,171.74421751681953L482.0625,161.802429419227L483.84791666666666,112.21838711154142L485.6333333333333,102.8990276504476L487.41875,55.005674968730844L489.20416666666665,65.5729550966504L490.9895833333333,139.4796129710984L492.775,125.88067674594915L494.56041666666664,175.30345563863398L496.34583333333336,69.46989784052242L498.13125,47.480156616467184L499.9166666666667,42.579155093815025L501.70208333333335,56.98216698983841L503.4875,117.67047521776223L505.2729166666667,80.73845886445527L507.05833333333334,37.98826186430511L508.84375,57.978929991230444L510.62916666666666,57.84232500801065L512.4145833333333,102.70074759380668L514.1999999999999,119.2640370211944L515.9854166666667,27.73664875302194L517.7708333333333,99.67404595624775L519.55625,149.11229569897068L521.3416666666666,244.66787929482632L523.1270833333334,171.4767146818318L524.9125,142.35311171703594L526.6979166666667,88.19762433779435L528.4833333333333,147.21545799501067L530.2687500000001,123.37540808114177L532.0541666666667,101.32147232116377L533.8395833333334,5.935496751629378L535.625,77.8899615475153L537.4104166666666,16.761656926733714L539.1958333333333,127.63120728803152L540.9812499999999,42.85269981449146L542.7666666666667,98.97880468372776L544.5520833333333,156.38138632863598L546.3375,184.35341939372805L548.1229166666666,107.86007756508084L549.9083333333334,202.8733240104175L551.69375,174.16059774431864L553.4791666666667,33.8598472774061L555.2645833333333,-2.5609383631816485L557.0500000000001,66.62412347501093L558.8354166666667,61.68642671062799L560.6208333333334,13.58072365776884L562.40625,34.549144421933974L564.1916666666666,132.0893100534845L565.9770833333333,124.67467673033296L567.7624999999999,5.01407838816406L569.5479166666667,115.66424454044467L571.3333333333333,22.64165849073526L573.11875,108.04896430775348L574.9041666666666,56.0378404154848L576.6895833333334,30.548115959163038L578.475,120.0475011811664L580.2604166666667,65.44579002643789L582.0458333333333,100.18947455408184L583.8312500000001,94.26801378962232L585.6166666666667,93.6576781412717L587.4020833333334,52.9577440085644L589.1875,144.50454738946928L590.9729166666666,147.6431894710572L592.7583333333333,197.61877286065726L594.5437499999999,207.48476746728215L596.3291666666667,189.28370868593564L598.1145833333333,185.72915250481873L599.9,108.85474739000934L601.6854166666666,100.79209745189452L603.4708333333334,131.85908013195882L605.25625,67.3824150203153L607.0416666666667,157.18888997177288L608.8270833333333,133.62311042793226L610.6125000000001,154.09451611471397L612.3979166666667,178.86654090662137L614.1833333333334,196.14034135860356L615.96875,146.61107484911983L617.7541666666666,160.84200168770343L619.5395833333333,167.64150555585718L621.3249999999999,197.9006012982692L623.1104166666667,138.3331736118806L624.8958333333333,161.61914328067587L626.68125,102.64968448802541L628.4666666666666,53.04835214678364L630.2520833333334,22.04907812156626L632.0375,2.260929500114892L633.8229166666667,-21.836209356483042L635.6083333333333,83.26171391136764L637.3937500000001,35.61091947674791L639.1791666666667,-12.584241216117583L640.9645833333334,11.846262576792595L642.75,18.519379194690664L644.5354166666666,68.96589054504588L646.3208333333333,152.69874985881015L648.1062499999999,115.75339783676174L649.8916666666667,104.55815553444342L651.6770833333333,38.78942948122178L653.4625,-56.487308386817446L655.2479166666666,0.39242262393752236L657.0333333333334,37.503959017588784L658.81875,113.3828636501883L660.6041666666667,54.824394953474105L662.3895833333333,36.222756423433935L664.1750000000001,120.09909006122487L665.9604166666667,57.60132706696393L667.7458333333334,126.67058114673915L669.53125,183.2072523773413L671.3166666666666,128.32136320064123L673.1020833333333,220.06524251422346L674.8874999999999,88.75335407676029L676.6729166666667,105.9094096295611L678.4583333333333,44.440022775250846L680.24375,29.295288495361717L682.0291666666666,35.26923436541664L683.8145833333334,102.68564125235103L685.6,86.67221835292867L687.3854166666667,83.36787596692417L689.1708333333333,71.54294820311254L690.9562500000001,106.04187561409496L692.7416666666667,151.47265295912192L694.5270833333334,176.26374029897732L696.3125,114.99069019101644L698.0979166666666,81.0834785566375L699.8833333333333,120.06099813917609L701.6687499999999,42.94902314442552L703.4541666666667,64.66307080804195L705.2395833333333,109.8718886024344L707.025,44.472399213706716L708.8104166666666,143.30978708737268L710.5958333333334,70.98177471269508L712.38125,182.42823497143814L714.1666666666667,182.00458467904102L715.9520833333333,298.61693773591355L717.7375000000001,254.35553972784064L719.5229166666667,264.62420668249644L721.3083333333334,126.82217165908942L723.09375,28.818997825220944L724.8791666666666,4.499841660553389L726.6645833333333,105.240473330738L728.4499999999999,74.49335959325815L730.2354166666667,-2.2865821499843593L732.0208333333333,95.57550616821693L733.80625,101.0979418068428L735.5916666666666,159.8591858798932L737.3770833333334,91.37401955128456L739.1625,136.42923128865434L740.9479166666667,43.73927511241489L742.7333333333333,30.22747675512654L744.5187500000001,102.27204132040983L746.3041666666667,121.15926562199114L748.0895833333334,49.49018897302591L749.875,25.60163513452576L751.6604166666666,52.62692401839298L753.4458333333333,117.58701922371345L755.2312499999999,165.08889837948738L757.0166666666667,200.24490507882882L758.8020833333333,140.46646153540095L760.5875,114.39825973928909L762.3729166666666,186.89688729277006L764.1583333333334,35.706436264156416L765.94375,28.53523302425201L767.7291666666667,-16.030831204846926L769.5145833333333,-24.712754621123647L771.3000000000001,79.06009261639714L773.0854166666667,72.4011874335189L774.8708333333334,82.65044659651942L776.65625,148.73141120187475L778.4416666666666,194.5057640712003L780.2270833333333,117.63960970448335L782.0124999999999,47.99632533196747L783.7979166666667,149.69385225872855L785.5833333333333,114.1556689047311" style="fill: none;" fill="none"></path></g></g></g></g><g opacity="0.2"><g><g><g><path stroke="rgb(255, 112, 67)" stroke-width="2px" d="M76.77291666666667,585.2683575370095L78.55833333333332,314.657508503307L80.34375,590.5405165932395L85.7,383.63760844143957L87.48541666666667,158.80062606117943L89.27083333333334,463.58353250676936L91.05624999999999,565.4650270288641L92.84166666666667,258.8107724623247L94.62708333333333,497.3977543223988L96.41250000000001,362.55217534845525L98.19791666666666,203.44784008372915L99.98333333333333,424.95212710987437L101.76875,175.7032264362682L103.55416666666667,307.54387543418187L105.33958333333332,197.17800348455256L107.125,140.20422259244052L108.91041666666666,380.6105833920565L110.69583333333334,320.8622365431352L112.48125,230.25047146190298L114.26666666666667,353.42246489091355L116.05208333333333,5.4159077731045775L117.8375,370.2796330885453L119.62291666666667,371.508785941384L121.40833333333333,134.46852458607066L123.19375,422.540299502286L124.97916666666667,394.5089728615501L126.76458333333333,358.95316245339137L128.54999999999998,246.27018408341843L130.33541666666665,135.1968775662509L132.12083333333334,74.09131795709783L133.90625,144.61147065596148L135.69166666666666,207.95778447931463L137.47708333333335,168.39197973771527L139.26250000000002,415.795222715898L141.04791666666665,201.29736189408737L142.83333333333331,395.3848660208962L144.61875,13.882373809814453L146.40416666666667,226.5035915374756L148.18958333333333,336.2367468747226L149.975,349.85783663662994L151.76041666666669,140.08910595286977L153.54583333333335,384.5616793199019L155.33124999999998,154.4007648121227L157.11666666666665,62.290587685324944L158.90208333333334,316.22076762806284L160.6875,318.825044631958L162.47291666666666,-5.432903983376273L164.25833333333335,53.64291589910334L166.04375000000002,247.47515002163973L167.82916666666665,261.96298113736236L169.61458333333331,327.7775369123979L171.4,111.69817872480914L173.18541666666667,415.3583547418768L174.97083333333333,401.6168533671986L176.75625,76.37181715531781L178.54166666666669,65.57739327170631L180.32708333333335,67.92273954911664L182.11249999999998,406.03959413008255L183.89791666666665,362.55662051114166L185.68333333333334,295.89598031477493L187.46875,-26.636460737748557L189.25416666666666,1.208692030473208L191.03958333333335,155.28469848632812L192.82500000000002,420.1416112726385L194.61041666666665,547.6741785569624L196.39583333333331,105.15333036942914L198.18125,205.21949889443135L199.96666666666667,385.7511525587602L201.75208333333333,28.58827937733042L203.5375,269.675142288208L205.32291666666669,19.006600466641515L207.10833333333335,294.8758808482777L208.89374999999998,96.83891504461116L210.67916666666665,290.92968767339534L212.46458333333334,-19.219314575195312L214.25,-104.36078401045363L216.03541666666666,248.80994085832077L217.82083333333333,255.17913991754705L219.60625,133.42391135475853L221.39166666666668,339.6620062047785L223.17708333333334,-93.75174955888231L224.9625,164.14345013011587L226.74791666666667,270.216667695479L228.53333333333333,56.38976495916194L230.31875,-16.57758053866296L232.10416666666666,73.84879511052912L233.88958333333332,17.087989807128906L235.675,156.89522014964712L237.46041666666667,212.75516093860972L239.24583333333334,154.03508481112394L241.03125,246.3968058499423L242.81666666666666,74.11302081021395L244.60208333333333,335.44295848499644L246.3875,123.18395614624023L248.17291666666668,256.4010366960005L249.95833333333334,100.61481926657936L251.74375,124.44925863092595L253.52916666666667,17.093088670210385L255.31458333333333,256.5859031677246L257.09999999999997,151.1711580103094L258.88541666666663,31.458939292214122L260.6708333333333,240.1583468697288L262.45625,-22.85951059514827L264.2416666666667,88.4031729264693L266.02708333333334,200.89344041997737L267.8125,140.53074593977496L269.59791666666666,0.5791785500266221L271.3833333333333,142.310641375455L273.16875,268.2553050301292L274.9541666666667,240.21397677334872L276.73958333333337,49.70175621726295L278.52500000000003,149.76380642977628L280.3104166666667,261.2531278783625L282.0958333333333,306.11900468306106L283.88124999999997,-58.92559953169387L287.4520833333333,-11.347846638072605L289.2375,176.15964005210182L291.0229166666667,166.03035632046786L292.80833333333334,13.598275618119692L294.59375,389.4246219288219L296.37916666666666,269.5479321913286L298.1645833333333,125.60186316750267L299.95,275.7732517936013L301.7354166666667,-53.33829151500357L303.52083333333337,-47.28620251742272L305.30625000000003,240.26496540416372L307.0916666666667,232.61196413907138L308.8770833333333,5.106315266002293L310.66249999999997,-216.3312943198464L312.44791666666663,85.74470415982333L314.2333333333333,243.5885089527477L316.01875,317.28551483154297L317.8041666666667,148.1082448092374L319.58958333333334,-22.622478831898096L321.375,119.88682209361684L323.16041666666666,339.5966361652721L324.9458333333333,215.5621504350142L326.73125,48.87887815995648L328.5166666666667,253.93645546653056L330.30208333333337,-45.776023864746094L332.08750000000003,249.94770639592952L333.8729166666667,58.61901404640893L335.6583333333333,149.19319135492498L337.44374999999997,265.7718972292813L339.22916666666663,174.40367005088112L341.0145833333333,65.48129931363192L342.8,173.89888260581276L344.5854166666667,175.09789987043902L346.37083333333334,290.711221001365L348.15625,279.07509248906916L349.94166666666666,39.92226756702768L351.7270833333333,243.85410742326218L353.5125,68.0122965032404L355.2979166666667,162.60431254993784L357.08333333333337,15.187682758678074L358.86875000000003,182.45837020874023L360.6541666666667,57.05065605857154L362.4395833333333,-13.319799249822436L364.22499999999997,-22.222675670277003L366.01041666666663,69.33473240245473L367.7958333333333,96.24862358786842L369.58125,84.43560374866831L371.3666666666667,98.04198525168678L373.15208333333334,152.47444048794833L374.9375,-20.65444842251868L376.72291666666666,-6.68068729747427L378.5083333333333,220.52255977283824L380.29375,165.8679117722945L382.0791666666667,329.394007249312L383.86458333333337,9.900553963401112L385.65000000000003,259.93637917258525L387.4354166666667,216.23827275362882L389.2208333333333,-68.32450381192298L391.00624999999997,-88.28289205377752L392.79166666666663,85.97101523659447L394.5770833333333,87.77575128728694L396.3625,140.30247376181862L398.1479166666667,-39.13495081121272L399.93333333333334,-103.44298865578388L401.71875,187.83198356628418L403.50416666666666,110.50870548595083L405.2895833333333,-26.64953474564988L407.075,27.575305245139393L408.8604166666667,-74.96361576427114L410.64583333333337,-40.31331114335496L412.43125000000003,147.94481971047142L414.2166666666667,171.57595825195312L416.0020833333333,11.521469463001614L417.78749999999997,72.29115780917081L419.57291666666663,270.64104999195445L421.3583333333333,148.7074919613925L423.14375,214.68795689669523L424.9291666666667,334.86534881591797L426.71458333333334,112.94491611827505L428.5,375.57898608121L430.28541666666666,465.2908018285578L433.85625,-12.331142772327786L435.64166666666665,130.24679669466886L437.4270833333333,116.47176048972389L439.2125,-66.99853793057532L440.99791666666664,-18.124235673384256L442.78333333333336,251.6001302545721L444.56875,-15.722540421919412L446.3541666666667,52.41853505914861L448.13958333333335,107.37159729003906L449.925,-162.05415829745203L451.7104166666667,161.32776641845703L453.49583333333334,202.2284927368164L455.28125,122.13986587524414L457.06666666666666,176.55571712147105L458.8520833333333,116.32781566273081L460.6375,402.408746025779L462.42291666666665,40.8998111378063L464.2083333333333,197.9077292355624L465.99375,208.8942756652832L467.77916666666664,206.58220273798162L469.56458333333336,36.2355280789462L471.35,42.168251384388334L473.1354166666667,223.1767794869163L474.92083333333335,46.96301304210318L476.70625,18.37577958540485L478.4916666666667,204.80276489257812L480.27708333333334,242.12062471563166L482.0625,146.88974727283824L483.84791666666666,37.842323650013334L485.6333333333333,88.91998845880681L487.41875,-16.83435405384409L489.20416666666665,81.42387528852984L490.9895833333333,250.33959978277034L492.775,105.48227240822533L494.56041666666664,249.43762397766113L496.34583333333336,-89.28043885664503L498.13125,14.495544780384426L499.9166666666667,35.22765280983666L501.70208333333335,78.58668483387339L503.4875,208.70293755964798L505.2729166666667,25.340434334494862L507.05833333333334,-26.137033635919753L508.84375,87.96493218161842L510.62916666666666,57.637417533180916L512.4145833333333,169.9883814725009L514.1999999999999,144.10897116227582L515.9854166666667,-109.5544336492365L517.7708333333333,207.58014176108622L519.55625,223.26967031305486L521.3416666666666,388.0012546886097L523.1270833333334,61.68996776234018L524.9125,98.66770726984197L526.6979166666667,6.96439326893198L528.4833333333333,235.74220848083496L530.2687500000001,87.61533321033824L532.0541666666667,68.24056868119672L533.8395833333334,-137.14346660267222L535.625,185.8216587413441L537.4104166666666,-74.93080000443895L539.1958333333333,293.9355328299783L540.9812499999999,-84.31506139581853L542.7666666666667,183.16796198758212L544.5520833333333,242.48525879599833L546.3375,226.3114689913663L548.1229166666666,-6.8799351778897755L549.9083333333334,345.3931936784224L551.69375,131.09150834517047L553.4791666666667,-176.59127842296255L555.2645833333333,-57.19211682406335L557.0500000000001,170.4017162322998L558.8354166666667,54.279881564053625L560.6208333333334,-58.57783092151987L562.40625,66.00177556818181L564.1916666666666,278.3995585008101L565.9770833333333,113.55272674560547L567.7624999999999,-174.47681912508875L569.5479166666667,281.6394937688654L571.3333333333333,-116.89222058382897L573.11875,236.1599230332808L574.9041666666666,-21.978845422918138L576.6895833333334,-7.686470725319633L578.475,254.29657901417124L580.2604166666667,-16.456776705655148L582.0458333333333,152.30500134554777L583.8312500000001,85.38582264293325L585.6166666666667,92.74217466874555L587.4020833333334,-8.092157190496264L589.1875,281.8247524608265L590.9729166666666,152.35115259343928L592.7583333333333,272.5821479450573L594.5437499999999,222.28375937721944L596.3291666666667,161.98212051391602L598.1145833333333,180.3973182331432L599.9,-6.456860282204398L601.6854166666666,88.69812254472211L603.4708333333334,178.45955415205523L605.25625,-29.332582647150222L607.0416666666667,291.89860239895904L608.8270833333333,98.27444111217153L610.6125000000001,184.80162464488637L612.3979166666667,216.02457809448242L614.1833333333334,222.0510420365767L615.96875,72.31717508489436L617.7541666666666,182.18839194557884L619.5395833333333,177.84076135808772L621.3249999999999,243.2892449118874L623.1104166666667,48.9820320822976L624.8958333333333,196.54809778386897L626.68125,14.19549629905006L628.4666666666666,-21.353646365078976L633.8229166666667,-57.98191764137959L635.6083333333333,240.90859881314364L637.3937500000001,-35.86527217518198L639.1791666666667,-84.87698225541551L640.9645833333334,48.49201826615765L642.75,28.529054121537662L644.5354166666666,144.63565757057884L646.3208333333333,278.2980388294567L648.1062499999999,60.33536980368873L649.8916666666667,87.7652920809659L651.6770833333333,-59.863659598610646L653.4625,-199.4024151888761L655.2479166666666,85.71201914007014L657.0333333333334,93.17126360806552L658.81875,227.2012205990878L660.6041666666667,-33.013308091597146L662.3895833333333,8.320298628373598L664.1750000000001,245.91359051791105L665.9604166666667,-36.1453174244274L667.7458333333334,230.27446226640183L669.53125,268.0122592232444L671.3166666666666,45.992529435591244L673.1020833333333,357.6810614845969L674.8874999999999,-108.21447857943444L676.6729166666667,131.64349295876244L678.4583333333333,-47.764057506214506L680.24375,6.578187075528235L682.0291666666666,44.23015317049894L683.8145833333334,203.81025158275258L685.6,62.65208400379526L687.3854166666667,78.41136238791725L689.1708333333333,53.805556557395256L690.9562500000001,157.79026673056862L692.7416666666667,219.6188189766624L694.5270833333334,213.45037130876023L696.3125,23.08111502907494L698.0979166666666,30.22266110506925L699.8833333333333,178.52727751298383L701.6687499999999,-72.71893934770067L703.4541666666667,97.2341423034668L705.2395833333333,177.685115294023L707.025,-53.626834869384766L708.8104166666666,291.56586889787155L710.5958333333334,-37.51024384932082L712.38125,349.59792535955256L714.1666666666667,181.36910924044523L715.9520833333333,473.5354673212225L717.7375000000001,187.96344271573153L719.5229166666667,280.0272071144798L721.3083333333334,-79.88088087602098L724.8791666666666,-31.978892586447945L726.6645833333333,256.35142083601517L728.4499999999999,28.37268898703834L730.2354166666667,-117.45649476484816L732.0208333333333,242.3686386455189L733.80625,109.3815952647816L735.5916666666666,248.00105198946866L737.3770833333334,-11.353729941628227L739.1625,204.0120488947088L740.9479166666667,-95.29565915194421L742.7333333333333,9.95977921919391L744.5187500000001,210.33888816833496L746.3041666666667,149.49010207436302L748.0895833333334,-58.0134260004217L749.875,-10.231195623224439L751.6604166666666,93.1648573441939L753.4458333333333,215.02716203169388L755.2312499999999,236.3417171131481L757.0166666666667,252.9789151278409L758.8020833333333,50.79879622025921L760.5875,75.29595704512164L762.3729166666666,295.6448286229914L764.1583333333334,-191.0792402787642L765.94375,17.77842816439542L767.7291666666667,-82.87992754849525L769.5145833333333,-37.73563974553889L771.3000000000001,234.71936347267842L773.0854166666667,62.4128296592019L774.8708333333334,98.02433534102008L776.65625,247.8528581099077L778.4416666666666,263.16729337518865L780.2270833333333,2.3403781544078632L782.0124999999999,-56.46860122680664L783.7979166666667,302.2401426488703L785.5833333333333,60.84839387373493" style="fill: none;" fill="none"></path></g></g></g></g></g><g><g opacity="0.454823"><span fill="rgb(0, 0, 0)" stroke="none" stroke-width="1px">Alt + Scroll to Zoom</span></g></g></g><g transform="translate(30, 377)" clip-path="url(#clip_1)"><clipPath id="clip_1"><rect width="857" height="23"></rect></clipPath><g><g><line x1="0" y1="0" x2="0" y2="5" style="visibility: inherit;" fill="rgb(0, 0, 0)" stroke="rgb(204, 204, 204)" stroke-width="1px"></line><line x1="71.41666666666666" y1="0" x2="71.41666666666666" y2="5" style="visibility: inherit;" fill="rgb(0, 0, 0)" stroke="rgb(204, 204, 204)" stroke-width="1px"></line><line x1="142.83333333333331" y1="0" x2="142.83333333333331" y2="5" style="visibility: inherit;" fill="rgb(0, 0, 0)" stroke="rgb(204, 204, 204)" stroke-width="1px"></line><line x1="214.25" y1="0" x2="214.25" y2="5" style="visibility: inherit;" fill="rgb(0, 0, 0)" stroke="rgb(204, 204, 204)" stroke-width="1px"></line><line x1="285.66666666666663" y1="0" x2="285.66666666666663" y2="5" style="visibility: inherit;" fill="rgb(0, 0, 0)" stroke="rgb(204, 204, 204)" stroke-width="1px"></line><line x1="357.08333333333337" y1="0" x2="357.08333333333337" y2="5" style="visibility: inherit;" fill="rgb(0, 0, 0)" stroke="rgb(204, 204, 204)" stroke-width="1px"></line><line x1="428.5" y1="0" x2="428.5" y2="5" style="visibility: inherit;" fill="rgb(0, 0, 0)" stroke="rgb(204, 204, 204)" stroke-width="1px"></line><line x1="499.9166666666667" y1="0" x2="499.9166666666667" y2="5" style="visibility: inherit;" fill="rgb(0, 0, 0)" stroke="rgb(204, 204, 204)" stroke-width="1px"></line><line x1="571.3333333333333" y1="0" x2="571.3333333333333" y2="5" style="visibility: inherit;" fill="rgb(0, 0, 0)" stroke="rgb(204, 204, 204)" stroke-width="1px"></line><line x1="642.75" y1="0" x2="642.75" y2="5" style="visibility: inherit;" fill="rgb(0, 0, 0)" stroke="rgb(204, 204, 204)" stroke-width="1px"></line><line x1="714.1666666666667" y1="0" x2="714.1666666666667" y2="5" style="visibility: inherit;" fill="rgb(0, 0, 0)" stroke="rgb(204, 204, 204)" stroke-width="1px"></line><line x1="785.5833333333333" y1="0" x2="785.5833333333333" y2="5" style="visibility: inherit;" fill="rgb(0, 0, 0)" stroke="rgb(204, 204, 204)" stroke-width="1px"></line><line x1="857" y1="0" x2="857" y2="5" style="visibility: inherit;" fill="rgb(0, 0, 0)" stroke="rgb(204, 204, 204)" stroke-width="1px"></line></g><g transform="translate(0, 8)"><text x="0" y="0" dx="0em" dy="0.95em" style="text-anchor: middle; visibility: hidden; font-family: Roboto, sans-serif; font-size: 12px; font-weight: 200;" fill="rgb(33, 33, 33)" stroke="none" stroke-width="1px">-20k</text><text x="71.41666666666666" y="0" dx="0em" dy="0.95em" style="text-anchor: middle; visibility: inherit; font-family: Roboto, sans-serif; font-size: 12px; font-weight: 200;" fill="rgb(33, 33, 33)" stroke="none" stroke-width="1px">0</text><text x="142.83333333333331" y="0" dx="0em" dy="0.95em" style="text-anchor: middle; visibility: inherit; font-family: Roboto, sans-serif; font-size: 12px; font-weight: 200;" fill="rgb(33, 33, 33)" stroke="none" stroke-width="1px">20k</text><text x="214.25" y="0" dx="0em" dy="0.95em" style="text-anchor: middle; visibility: inherit; font-family: Roboto, sans-serif; font-size: 12px; font-weight: 200;" fill="rgb(33, 33, 33)" stroke="none" stroke-width="1px">40k</text><text x="285.66666666666663" y="0" dx="0em" dy="0.95em" style="text-anchor: middle; visibility: inherit; font-family: Roboto, sans-serif; font-size: 12px; font-weight: 200;" fill="rgb(33, 33, 33)" stroke="none" stroke-width="1px">60k</text><text x="357.08333333333337" y="0" dx="0em" dy="0.95em" style="text-anchor: middle; visibility: inherit; font-family: Roboto, sans-serif; font-size: 12px; font-weight: 200;" fill="rgb(33, 33, 33)" stroke="none" stroke-width="1px">80k</text><text x="428.5" y="0" dx="0em" dy="0.95em" style="text-anchor: middle; visibility: inherit; font-family: Roboto, sans-serif; font-size: 12px; font-weight: 200;" fill="rgb(33, 33, 33)" stroke="none" stroke-width="1px">100k</text><text x="499.9166666666667" y="0" dx="0em" dy="0.95em" style="text-anchor: middle; visibility: inherit; font-family: Roboto, sans-serif; font-size: 12px; font-weight: 200;" fill="rgb(33, 33, 33)" stroke="none" stroke-width="1px">120k</text><text x="571.3333333333333" y="0" dx="0em" dy="0.95em" style="text-anchor: middle; visibility: inherit; font-family: Roboto, sans-serif; font-size: 12px; font-weight: 200;" fill="rgb(33, 33, 33)" stroke="none" stroke-width="1px">140k</text><text x="642.75" y="0" dx="0em" dy="0.95em" style="text-anchor: middle; visibility: inherit; font-family: Roboto, sans-serif; font-size: 12px; font-weight: 200;" fill="rgb(33, 33, 33)" stroke="none" stroke-width="1px">160k</text><text x="714.1666666666667" y="0" dx="0em" dy="0.95em" style="text-anchor: middle; visibility: inherit; font-family: Roboto, sans-serif; font-size: 12px; font-weight: 200;" fill="rgb(33, 33, 33)" stroke="none" stroke-width="1px">180k</text><text x="785.5833333333333" y="0" dx="0em" dy="0.95em" style="text-anchor: middle; visibility: inherit; font-family: Roboto, sans-serif; font-size: 12px; font-weight: 200;" fill="rgb(33, 33, 33)" stroke="none" stroke-width="1px">200k</text><text x="857" y="0" dx="0em" dy="0.95em" style="text-anchor: middle; visibility: hidden; font-family: Roboto, sans-serif; font-size: 12px; font-weight: 200;" fill="rgb(33, 33, 33)" stroke="none" stroke-width="1px">220k</text></g><line x1="0" y1="0" x2="857" y2="0" fill="rgb(0, 0, 0)" stroke="rgb(204, 204, 204)" stroke-width="1px"></line></g></g></g></g></svg>