<svg viewBox="0 0 887 400" xmlns="http://www.w3.org/2000/svg"><g><g><g><g><g><line x1="30" y1="377" x2="25" y2="377" style="visibility: inherit;" fill="rgb(0, 0, 0)" stroke="rgb(204, 204, 204)" stroke-width="1px"></line><line x1="30" y1="335.1111111111111" x2="25" y2="335.1111111111111" style="visibility: inherit;" fill="rgb(0, 0, 0)" stroke="rgb(204, 204, 204)" stroke-width="1px"></line><line x1="30" y1="293.22222222222223" x2="25" y2="293.22222222222223" style="visibility: inherit;" fill="rgb(0, 0, 0)" stroke="rgb(204, 204, 204)" stroke-width="1px"></line><line x1="30" y1="251.33333333333337" x2="25" y2="251.33333333333337" style="visibility: inherit;" fill="rgb(0, 0, 0)" stroke="rgb(204, 204, 204)" stroke-width="1px"></line><line x1="30" y1="209.44444444444446" x2="25" y2="209.44444444444446" style="visibility: inherit;" fill="rgb(0, 0, 0)" stroke="rgb(204, 204, 204)" stroke-width="1px"></line><line x1="30" y1="167.55555555555554" x2="25" y2="167.55555555555554" style="visibility: inherit;" fill="rgb(0, 0, 0)" stroke="rgb(204, 204, 204)" stroke-width="1px"></line><line x1="30" y1="125.66666666666669" x2="25" y2="125.66666666666669" style="visibility: inherit;" fill="rgb(0, 0, 0)" stroke="rgb(204, 204, 204)" stroke-width="1px"></line><line x1="30" y1="83.77777777777777" x2="25" y2="83.77777777777777" style="visibility: inherit;" fill="rgb(0, 0, 0)" stroke="rgb(204, 204, 204)" stroke-width="1px"></line><line x1="30" y1="41.88888888888891" x2="25" y2="41.88888888888891" style="visibility: inherit;" fill="rgb(0, 0, 0)" stroke="rgb(204, 204, 204)" stroke-width="1px"></line><line x1="30" y1="0" x2="25" y2="0" style="visibility: inherit;" fill="rgb(0, 0, 0)" stroke="rgb(204, 204, 204)" stroke-width="1px"></line></g><g transform="translate(20, 0)"><text x="0" y="377" dx="0em" dy="0.3em" style="text-anchor: end; visibility: hidden; font-family: Roboto, sans-serif; font-size: 12px; font-weight: 200;" fill="rgb(33, 33, 33)" stroke="none" stroke-width="1px">23</text><text x="0" y="335.1111111111111" dx="0em" dy="0.3em" style="text-anchor: end; visibility: inherit; font-family: Roboto, sans-serif; font-size: 12px; font-weight: 200;" fill="rgb(33, 33, 33)" stroke="none" stroke-width="1px">24</text><text x="0" y="293.22222222222223" dx="0em" dy="0.3em" style="text-anchor: end; visibility: inherit; font-family: Roboto, sans-serif; font-size: 12px; font-weight: 200;" fill="rgb(33, 33, 33)" stroke="none" stroke-width="1px">25</text><text x="0" y="251.33333333333337" dx="0em" dy="0.3em" style="text-anchor: end; visibility: inherit; font-family: Roboto, sans-serif; font-size: 12px; font-weight: 200;" fill="rgb(33, 33, 33)" stroke="none" stroke-width="1px">26</text><text x="0" y="209.44444444444446" dx="0em" dy="0.3em" style="text-anchor: end; visibility: inherit; font-family: Roboto, sans-serif; font-size: 12px; font-weight: 200;" fill="rgb(33, 33, 33)" stroke="none" stroke-width="1px">27</text><text x="0" y="167.55555555555554" dx="0em" dy="0.3em" style="text-anchor: end; visibility: inherit; font-family: Roboto, sans-serif; font-size: 12px; font-weight: 200;" fill="rgb(33, 33, 33)" stroke="none" stroke-width="1px">28</text><text x="0" y="125.66666666666669" dx="0em" dy="0.3em" style="text-anchor: end; visibility: inherit; font-family: Roboto, sans-serif; font-size: 12px; font-weight: 200;" fill="rgb(33, 33, 33)" stroke="none" stroke-width="1px">29</text><text x="0" y="83.77777777777777" dx="0em" dy="0.3em" style="text-anchor: end; visibility: inherit; font-family: Roboto, sans-serif; font-size: 12px; font-weight: 200;" fill="rgb(33, 33, 33)" stroke="none" stroke-width="1px">30</text><text x="0" y="41.88888888888891" dx="0em" dy="0.3em" style="text-anchor: end; visibility: inherit; font-family: Roboto, sans-serif; font-size: 12px; font-weight: 200;" fill="rgb(33, 33, 33)" stroke="none" stroke-width="1px">31</text><text x="0" y="0" dx="0em" dy="0.3em" style="text-anchor: end; visibility: hidden; font-family: Roboto, sans-serif; font-size: 12px; font-weight: 200;" fill="rgb(33, 33, 33)" stroke="none" stroke-width="1px">32</text></g><line x1="30" y1="0" x2="30" y2="377" fill="rgb(0, 0, 0)" stroke="rgb(204, 204, 204)" stroke-width="1px"></line></g></g><g transform="translate(30, 0)" clip-path="url(#clip_0)"><clipPath id="clip_0"><rect width="857" height="377"></rect></clipPath><g><g><g><line x1="0" y1="0" x2="0" y2="377" fill="rgb(0, 0, 0)" stroke="rgb(66, 66, 66)" stroke-width="1px" opacity="0.25"></line><line x1="71.41666666666666" y1="0" x2="71.41666666666666" y2="377" fill="rgb(0, 0, 0)" stroke="rgb(66, 66, 66)" stroke-width="1px" opacity="0.25"></line><line x1="142.83333333333331" y1="0" x2="142.83333333333331" y2="377" fill="rgb(0, 0, 0)" stroke="rgb(66, 66, 66)" stroke-width="1px" opacity="0.25"></line><line x1="214.25" y1="0" x2="214.25" y2="377" fill="rgb(0, 0, 0)" stroke="rgb(66, 66, 66)" stroke-width="1px" opacity="0.25"></line><line x1="285.66666666666663" y1="0" x2="285.66666666666663" y2="377" fill="rgb(0, 0, 0)" stroke="rgb(66, 66, 66)" stroke-width="1px" opacity="0.25"></line><line x1="357.08333333333337" y1="0" x2="357.08333333333337" y2="377" fill="rgb(0, 0, 0)" stroke="rgb(66, 66, 66)" stroke-width="1px" opacity="0.25"></line><line x1="428.5" y1="0" x2="428.5" y2="377" fill="rgb(0, 0, 0)" stroke="rgb(66, 66, 66)" stroke-width="1px" opacity="0.25"></line><line x1="499.9166666666667" y1="0" x2="499.9166666666667" y2="377" fill="rgb(0, 0, 0)" stroke="rgb(66, 66, 66)" stroke-width="1px" opacity="0.25"></line><line x1="571.3333333333333" y1="0" x2="571.3333333333333" y2="377" fill="rgb(0, 0, 0)" stroke="rgb(66, 66, 66)" stroke-width="1px" opacity="0.25"></line><line x1="642.75" y1="0" x2="642.75" y2="377" fill="rgb(0, 0, 0)" stroke="rgb(66, 66, 66)" stroke-width="1px" opacity="0.25"></line><line x1="714.1666666666667" y1="0" x2="714.1666666666667" y2="377" fill="rgb(0, 0, 0)" stroke="rgb(66, 66, 66)" stroke-width="1px" opacity="0.25"></line><line x1="785.5833333333333" y1="0" x2="785.5833333333333" y2="377" fill="rgb(0, 0, 0)" stroke="rgb(66, 66, 66)" stroke-width="1px" opacity="0.25"></line><line x1="857" y1="0" x2="857" y2="377" fill="rgb(0, 0, 0)" stroke="rgb(66, 66, 66)" stroke-width="1px" opacity="0.25"></line></g><g><line x1="0" y1="377" x2="857" y2="377" fill="rgb(0, 0, 0)" stroke="rgb(66, 66, 66)" stroke-width="1px" opacity="0.25"></line><line x1="0" y1="335.1111111111111" x2="857" y2="335.1111111111111" fill="rgb(0, 0, 0)" stroke="rgb(66, 66, 66)" stroke-width="1px" opacity="0.25"></line><line x1="0" y1="293.22222222222223" x2="857" y2="293.22222222222223" fill="rgb(0, 0, 0)" stroke="rgb(66, 66, 66)" stroke-width="1px" opacity="0.25"></line><line x1="0" y1="251.33333333333337" x2="857" y2="251.33333333333337" fill="rgb(0, 0, 0)" stroke="rgb(66, 66, 66)" stroke-width="1px" opacity="0.25"></line><line x1="0" y1="209.44444444444446" x2="857" y2="209.44444444444446" fill="rgb(0, 0, 0)" stroke="rgb(66, 66, 66)" stroke-width="1px" opacity="0.25"></line><line x1="0" y1="167.55555555555554" x2="857" y2="167.55555555555554" fill="rgb(0, 0, 0)" stroke="rgb(66, 66, 66)" stroke-width="1px" opacity="0.25"></line><line x1="0" y1="125.66666666666669" x2="857" y2="125.66666666666669" fill="rgb(0, 0, 0)" stroke="rgb(66, 66, 66)" stroke-width="1px" opacity="0.25"></line><line x1="0" y1="83.77777777777777" x2="857" y2="83.77777777777777" fill="rgb(0, 0, 0)" stroke="rgb(66, 66, 66)" stroke-width="1px" opacity="0.25"></line><line x1="0" y1="41.88888888888891" x2="857" y2="41.88888888888891" fill="rgb(0, 0, 0)" stroke="rgb(66, 66, 66)" stroke-width="1px" opacity="0.25"></line><line x1="0" y1="0" x2="857" y2="0" fill="rgb(0, 0, 0)" stroke="rgb(66, 66, 66)" stroke-width="1px" opacity="0.25"></line></g></g></g><g><g><line x1="0" y1="1340.4444444444443" x2="857" y2="1340.4444444444443" fill="rgb(0, 0, 0)" stroke="rgb(153, 153, 153)" stroke-width="1.5px"></line></g></g><g><g><line x1="71.41666666666666" y1="0" x2="71.41666666666666" y2="377" fill="rgb(0, 0, 0)" stroke="rgb(153, 153, 153)" stroke-width="1.5px"></line></g></g><g><g><g><g><g><path stroke="rgb(255, 112, 67)" stroke-width="2px" d="M85.7,419.36073958842456L87.48541666666667,265.6067606642643L89.27083333333334,334.416972016621L91.05624999999999,431.9024349594731L92.84166666666667,355.54779603756754L94.62708333333333,405.58775423092584L96.41250000000001,371.12785795817894L98.19791666666666,266.2803940400826L99.98333333333333,316.23644776760995L101.76875,247.59590674650275L103.55416666666667,239.04778684532792L105.33958333333332,214.62134483028288L107.125,188.2765538232364L108.91041666666666,259.51799464344936L110.69583333333334,264.6788351149438L112.48125,260.39704043730836L114.26666666666667,316.83183639880906L116.05208333333333,191.70762473514966L117.8375,265.6334097265089L119.62291666666667,300.785971472234L121.40833333333333,185.9036862451299L123.19375,289.45374671747504L124.97916666666667,327.32373485168506L126.76458333333333,334.9571328216957L128.54999999999998,312.41242694545645L130.33541666666665,248.0956125039104L132.12083333333334,179.521917274308L133.90625,125.36811866113575L135.69166666666666,148.3858086763695L137.47708333333335,187.95502771453914L139.26250000000002,271.76466720606936L141.04791666666665,218.3873073154134L142.83333333333331,281.02501215555105L144.61875,155.01569150460946L146.40416666666667,208.39807229732963L148.18958333333333,258.7451649338865L149.975,294.61899244414974L151.76041666666669,211.80386785987096L153.54583333333335,284.8513276597096L155.33124999999998,222.35776145173597L157.11666666666665,149.96925620817404L158.90208333333334,220.95518391007573L160.6875,276.3525540447734L162.47291666666666,166.02421748174584L164.25833333333335,157.93839735440335L166.04375000000002,210.36124889582416L167.82916666666665,234.0410094557818L169.61458333333331,291.5997367295346L171.4,249.77448674528517L173.18541666666667,344.80839406676955L174.97083333333333,353.50500010719014L176.75625,281.457663065477L178.54166666666669,231.64193648606766L180.32708333333335,152.4761696329315L182.11249999999998,248.63263289819523L183.89791666666665,296.18550845663674L185.68333333333334,317.5087284579067L187.46875,230.1564746473079L189.25416666666666,157.08290507240145L191.03958333333335,150.1999424249513L192.82500000000002,244.50547435254035L194.61041666666665,381.2235047958503L196.39583333333331,279.8716117784704L198.18125,305.50811433135095L199.96666666666667,331.0363553643541L201.75208333333333,207.6492471650102L203.5375,236.6432528786774L205.32291666666669,134.2360342942094L207.10833333333335,227.76432506125323L208.89374999999998,180.5378069711594L210.67916666666665,224.23754132652155L212.46458333333334,166.16701879751344L214.25,43.82632923912003L216.03541666666666,127.68325871833096L217.82083333333333,217.62337465781073L219.60625,217.74907480960627L221.39166666666668,249.6393028773002L223.17708333333334,81.81046076148218L224.9625,120.07792727136955L226.74791666666667,190.3519953832752L228.53333333333333,118.51788583537964L230.31875,61.301076756761574L232.10416666666666,72.51582603995118L233.88958333333332,96.17935960034339L235.675,120.13350780596892L237.46041666666667,201.55231580079584L239.24583333333334,189.40038141705512L241.03125,233.85314575425866L242.81666666666666,213.3042798441839L244.60208333333333,274.7053746251247L246.3875,230.74654757984376L248.17291666666668,230.256764319255L249.95833333333334,154.7109909137372L251.74375,174.71896964657677L253.52916666666667,76.03142841202386L255.31458333333333,160.58514843244112L257.09999999999997,158.4711364803903L258.88541666666663,147.52631032654807L260.6708333333333,199.1369426765061L262.45625,120.81049643001393L264.2416666666667,75.50719265035318L266.02708333333334,126.81331429151935L267.8125,174.82450870634074L269.59791666666666,115.01474272651716L271.3833333333333,120.02043731410585L273.16875,192.35943773229485L274.9541666666667,242.82752923008877L276.73958333333337,180.25958075691184L278.52500000000003,156.3909292877517L280.3104166666667,199.01682507956832L282.0958333333333,238.04738481553616L283.88124999999997,125.3816089559991L285.66666666666663,78.15369647982772L287.4520833333333,64.1147218043192L289.2375,101.45585573680702L291.0229166666667,152.58302161740423L292.80833333333334,125.4892983084416L294.59375,202.9950871468217L296.37916666666666,230.77933539288364L298.1645833333333,159.22102861406688L299.95,268.8144342019958L301.7354166666667,123.81160431460036L303.52083333333337,60.05518446511653L305.30625000000003,135.61110301237616L307.0916666666667,197.51897198808987L308.8770833333333,137.22642166195655L310.66249999999997,-1.884808250927342L312.44791666666663,26.70330889370895L314.2333333333333,124.67282490870805L316.01875,195.83453049955975L317.8041666666667,203.01193520511785L319.58958333333334,105.53066627036877L321.375,129.22050199949877L323.16041666666666,192.00403191937158L324.9458333333333,219.82518594307265L326.73125,209.2677934167009L328.5166666666667,239.33583525005315L330.30208333333337,121.58931700696546L332.08750000000003,185.6821663557093L333.8729166666667,111.99877777634332L335.6583333333333,170.40341934524938L337.44374999999997,201.54702088612106L339.22916666666663,175.08799044847495L341.0145833333333,132.5066158328057L342.8,160.16018262427653L344.5854166666667,167.83032045781235L346.37083333333334,231.13322272444867L348.15625,259.54161186410715L349.94166666666666,240.82998912502904L351.7270833333333,222.16939316373805L353.5125,186.3364680685174L355.2979166666667,194.76148429909114L357.08333333333337,131.7598011086974L358.86875000000003,153.48484795037479L360.6541666666667,113.35503595053635L362.4395833333333,53.019348372893326L364.22499999999997,16.861463556613515L366.01041666666663,50.95908809829648L367.7958333333333,74.18515719450846L369.58125,65.51530150393377L371.3666666666667,116.18148560681453L373.15208333333334,176.442465447205L374.9375,103.94917253953625L376.72291666666666,57.51849457868047L378.5083333333333,142.81109386499259L380.29375,138.34258630828054L382.0791666666667,205.70741115318657L383.86458333333337,128.1017282199609L385.65000000000003,199.55429941366603L387.4354166666667,235.11788136532212L389.2208333333333,148.61496014921713L391.00624999999997,65.95751029634448L392.79166666666663,97.54299245506908L394.5770833333333,118.65660644377185L396.3625,127.75141024009659L398.1479166666667,56.212946872410896L399.93333333333334,16.190503108797976L401.71875,122.20721466638547L403.50416666666666,147.99515942049106L405.2895833333333,115.20369499379328L407.075,90.35176487835611L408.8604166666667,21.705687663721587L410.64583333333337,16.725410906202907L412.43125000000003,115.65956659512693L414.2166666666667,157.8887022644763L416.0020833333333,99.8556873824487L417.78749999999997,87.55639745551088L419.57291666666663,155.0146702129441L421.3583333333333,158.27393579475861L423.14375,208.45288322232503L424.9291666666667,233.56325545626282L426.71458333333334,172.50136405392254L428.5,228.6204802297711L430.28541666666666,334.69304271889024L432.0708333333333,212.32226289058445L433.85625,121.31481566078294L435.64166666666665,182.92162127920096L437.4270833333333,155.00084738774623L439.2125,77.97123325903648L440.99791666666664,31.00722946415682L442.78333333333336,148.12419919650637L444.56875,66.13028971375887L446.3541666666667,62.3837975397355L448.13958333333335,123.79517584914511L449.925,17.328069356329653L451.7104166666667,115.6459027744152L453.49583333333334,185.2049567749193L455.28125,193.96372316976934L457.06666666666666,200.55805194927913L458.8520833333333,143.50772282877426L460.6375,253.07250097631731L462.42291666666665,137.16180808090752L464.2083333333333,164.2272351137084L465.99375,195.81867707015118L467.77916666666664,207.74036226151347L469.56458333333336,127.75331812256022L471.35,106.0360211944454L473.1354166666667,170.87170308260687L474.92083333333335,124.09085242275209L476.70625,107.40324556755645L478.4916666666667,153.5570813466102L480.27708333333334,194.22400210725542L482.0625,192.63643771929583L483.84791666666666,119.38622461074421L485.6333333333333,83.70173149428398L487.41875,42.771533111793985L489.20416666666665,127.96270565063213L490.9895833333333,201.50457685446352L492.775,160.79175630894002L494.56041666666664,206.13029094085454L496.34583333333336,67.79713377946493L498.13125,72.67349502665789L499.9166666666667,109.22438756029266L501.70208333333335,99.89967973669647L503.4875,158.2943577586031L505.2729166666667,89.76581482334777L507.05833333333334,77.56631431989844L508.84375,56.87605856399862L510.62916666666666,130.37410764884308L512.4145833333333,168.85968153537792L514.1999999999999,179.2148183715035L515.9854166666667,67.44029883268934L517.7708333333333,189.47302278512797L519.55625,224.8285493040791L521.3416666666666,304.90455552645784L523.1270833333334,202.1864004097874L524.9125,196.01552439572046L526.6979166666667,172.99470816160218L528.4833333333333,218.4853633423281L530.2687500000001,184.3063610819756L532.0541666666667,144.19310484362987L533.8395833333334,59.49428257034894L535.625,131.83424128835745L537.4104166666666,72.84092478467892L539.1958333333333,167.00161280673396L540.9812499999999,50.786830924600345L542.7666666666667,116.05269776740664L544.5520833333333,169.42903933169507L546.3375,206.51061251638913L548.1229166666666,142.11457317796499L549.9083333333334,189.1509320679932L551.69375,175.94240173957527L553.4791666666667,31.291856889828086L555.2645833333333,36.917868413139416L557.0500000000001,108.94648537758192L558.8354166666667,101.2031658169355L560.6208333333334,74.56844761299112L562.40625,112.64094022442444L564.1916666666666,244.903498257376L565.9770833333333,194.77261890613994L567.7624999999999,91.45168610334122L569.5479166666667,197.73726786724558L571.3333333333333,66.3257361001218L573.11875,129.8148147272932L574.9041666666666,50.37642308388023L576.6895833333334,91.19401435244411L578.475,163.50048394580347L580.2604166666667,129.54424975197637L582.0458333333333,165.90865002004978L583.8312500000001,136.80505498870093L585.6166666666667,187.85931659646494L587.4020833333334,106.96839554056126L589.1875,174.9851572821547L590.9729166666666,149.8346276944881L592.7583333333333,218.91808779765518L594.5437499999999,236.7996875852772L596.3291666666667,253.29057482940524L598.1145833333333,247.7678215957769L599.9,163.4251265003534L601.6854166666666,91.49855971911391L603.4708333333334,135.5115335975816L605.25625,79.3379455152656L607.0416666666667,213.41826828911277L608.8270833333333,219.58712523602733L610.6125000000001,266.08437971857495L612.3979166666667,265.38453421677866L614.1833333333334,305.2889783323946L615.96875,277.0069333624196L617.7541666666666,274.2578195836952L619.5395833333333,266.1087215964086L621.3249999999999,269.77744736417657L623.1104166666667,192.24121800482325L624.8958333333333,183.5238894163108L626.68125,120.55514048368958L628.4666666666666,68.99531912636826L630.2520833333334,-0.7305566320890193L632.0375,27.516951326193762L633.8229166666667,40.7385939355004L635.6083333333333,142.3318139099927L637.3937500000001,147.14796758793892L639.1791666666667,61.347608270862345L640.9645833333334,57.820538110439465L642.75,123.08001326204278L644.5354166666666,145.2746804052779L646.3208333333333,185.89436138105188L648.1062499999999,169.98745555340332L649.8916666666667,170.03590340609802L651.6770833333333,117.9097708203786L653.4625,-28.133608841594477L655.2479166666666,-9.915952166800235L657.0333333333334,57.98291712019447L658.81875,134.57515447743896L660.6041666666667,89.96517359195381L662.3895833333333,92.52946087175215L664.1750000000001,157.8119973713044L665.9604166666667,88.66573456237678L667.7458333333334,161.05383789657856L669.53125,228.02433603940645L671.3166666666666,219.582740593913L673.1020833333333,264.14054638814036L674.8874999999999,125.67720265656042L676.6729166666667,134.6103626299062L678.4583333333333,131.66061675464735L680.24375,110.44505932280784L682.0291666666666,100.78273603991947L683.8145833333334,155.1762353705609L685.6,135.54495868381662L687.3854166666667,154.13554124015644L689.1708333333333,107.4843618365147L690.9562500000001,129.58154397161917L692.7416666666667,207.70003840961002L694.5270833333334,215.37355104733936L696.3125,165.20395435548141L698.0979166666666,103.54420836429263L699.8833333333333,162.45219081040506L701.6687499999999,76.68212533829397L703.4541666666667,96.59025554626518L705.2395833333333,106.91386953123671L707.025,86.8086919308732L708.8104166666666,184.901774928896L710.5958333333334,101.1718059919513L712.38125,184.20221630255466L714.1666666666667,197.41338563209152L715.9520833333333,295.26751515746673L717.7375000000001,258.04509898909265L719.5229166666667,314.4707308954631L721.3083333333334,148.2215915727596L723.09375,39.17583756626854L724.8791666666666,6.138577321390917L726.6645833333333,122.10417173259697L728.4499999999999,101.28135417142126L730.2354166666667,6.027226707768165L732.0208333333333,114.06839909771313L733.80625,113.0732939108035L735.5916666666666,187.823754636277L737.3770833333334,145.50722639762452L739.1625,182.51037992969347L740.9479166666667,94.60900607467804L742.7333333333333,54.58652435200076L744.5187500000001,155.58307882289756L746.3041666666667,167.3623609418777L748.0895833333334,55.45774537507673L749.875,38.901005850669975L751.6604166666666,75.41702664679528L753.4458333333333,152.28356254569442L755.2312499999999,201.28593384970944L757.0166666666667,206.33336781511548L758.8020833333333,142.15651466015223L760.5875,182.96927271821056L762.3729166666666,296.12770798924333L764.1583333333334,84.86086670299693L765.94375,75.72649537037671L767.7291666666667,22.719279722768583L769.5145833333333,49.58713491807945L771.3000000000001,183.39995966517597L773.0854166666667,166.244374568908L774.8708333333334,185.76355589368848L776.65625,220.68298306759868L778.4416666666666,257.97716086988305L780.2270833333333,158.55086993705024L782.0124999999999,72.52102997818064L783.7979166666667,162.40110302651343L785.5833333333333,168.45490742137682" style="fill: none;" fill="none"></path></g></g></g></g><g opacity="0.2"><g><g><g><path stroke="rgb(255, 112, 67)" stroke-width="2px" d="M76.77291666666667,520.4074925316704L78.55833333333332,277.978887769911L80.34375,564.9164343939888L83.91458333333333,473.23902871873645L85.7,288.6061096191406L87.48541666666667,37.30002106560602L89.27083333333334,437.0081854926216L91.05624999999999,577.6001177893745L92.84166666666667,241.26514879862464L94.62708333333333,480.5496580335829L96.41250000000001,319.4785198635525L98.19791666666666,109.08314471774634L99.98333333333333,391.14938863118493L101.76875,144.65252304077148L103.55416666666667,226.22690921359595L105.33958333333332,177.98391448126898L107.125,148.76081212361652L108.91041666666666,366.3778116438124L110.69583333333334,272.4199939303928L112.48125,253.97439914279516L114.26666666666667,401.48362922668457L116.05208333333333,4.021840837266719L117.8375,376.5218980577257L119.62291666666667,353.5147601233588L121.40833333333333,13.580364227294922L123.19375,444.7787801954481L124.97916666666667,384.12870449490015L126.76458333333333,346.407228257921L128.54999999999998,278.59537082248266L130.33541666666665,151.62039544847278L132.12083333333334,76.66137737698023L133.90625,44.137422137790274L135.69166666666666,182.91234334309894L137.47708333333335,247.3088559044732L139.26250000000002,397.4791259765625L141.04791666666665,138.3212676578098L142.83333333333331,374.98156929016113L144.61875,-33.99828932020398L146.40416666666667,288.471643447876L148.18958333333333,334.26580386691626L149.975,348.4297337002224L151.76041666666669,87.58118099636499L153.54583333333335,394.42251735263403L155.33124999999998,128.61741214328345L157.11666666666665,41.3864983452691L158.90208333333334,327.4340754614936L160.6875,359.448609246148L162.47291666666666,0.5317126380072653L164.25833333333335,145.80966716342505L166.04375000000002,288.99552620781793L167.82916666666665,269.5606502956814L169.61458333333331,377.9378276401096L171.4,187.03661176893445L173.18541666666667,487.35925504896375L174.97083333333333,366.5499091678196L176.75625,173.38665750291614L178.54166666666669,156.9183466169569L180.32708333333335,33.72751935323078L182.11249999999998,392.8673277960884L183.89791666666665,367.514821794298L185.68333333333334,349.49355845981177L187.46875,99.12809393141004L189.25416666666666,47.472550710042306L191.03958333333335,139.87549845377606L192.82500000000002,385.9637722439236L194.61041666666665,586.3005504608154L196.39583333333331,127.8437722524007L198.18125,343.96286816067163L199.96666666666667,369.32871691385907L201.75208333333333,22.568584865993905L203.5375,280.1342614491781L205.32291666666669,-19.374793582492423L207.10833333333335,368.0567612118191L208.89374999999998,109.69802983601886L210.67916666666665,289.7871428595649L212.46458333333334,79.06123500400122L214.25,-139.6847050984701L216.03541666666666,253.46865293714734L217.82083333333333,352.53354856703015L219.60625,217.93762503729926L221.39166666666668,297.4746449788411L223.17708333333334,-169.932802412245L224.9625,177.47912703620062L226.74791666666667,295.7630975511339L228.53333333333333,10.76672151353625L230.31875,-24.524136861165392L232.10416666666666,89.33794996473523L233.88958333333332,131.67465994093152L235.675,156.06473011440698L237.46041666666667,323.68052779303656L239.24583333333334,171.17247984144421L241.03125,300.532292260064L242.81666666666666,182.48098097907172L244.60208333333333,366.8070167965359L246.3875,164.80830701192218L248.17291666666668,229.52208942837183L249.95833333333334,41.392330805460624L251.74375,204.73093774583606L253.52916666666667,-71.99988343980579L255.31458333333333,287.41572846306696L257.09999999999997,155.3001185523139L258.88541666666663,131.1090710957845L260.6708333333333,276.5528912014431L262.45625,3.3208270602756262L264.2416666666667,7.5522369808620695L266.02708333333334,203.7724967532688L267.8125,246.84130032857263L269.59791666666666,25.300093756781678L271.3833333333333,127.52897919548883L273.16875,300.86793835957843L274.9541666666667,318.52966647677954L276.73958333333337,86.40765804714624L278.52500000000003,120.58795208401148L280.3104166666667,262.95566876729333L282.0958333333333,296.59322441948785L283.88124999999997,-43.61705483330617L285.66666666666663,7.311827765570742L287.4520833333333,43.05625979105633L289.2375,157.46755663553876L291.0229166666667,229.27377043830023L292.80833333333334,84.8487133449978L294.59375,319.25377040439184L296.37916666666666,272.45570776197644L298.1645833333333,51.88356844584148L299.95,433.2045425838894L303.52083333333337,-35.57944530910914L305.30625000000003,248.9449808332655L307.0916666666667,290.38077545166016L308.8770833333333,46.7875961727566L310.66249999999997,-210.5516531202528L312.44791666666663,69.58548461066351L314.2333333333333,271.6270989312066L316.01875,302.57708888583716L317.8041666666667,213.77804226345484L319.58958333333334,-40.69123713175453L321.375,164.7552555931939L323.16041666666666,286.1793267991808L324.9458333333333,261.55691697862414L326.73125,193.431704627143L328.5166666666667,284.43789800008136L330.30208333333337,-55.030460357666016L332.08750000000003,281.82144037882483L333.8729166666667,1.4736949072943748L335.6583333333333,258.0103816986084L337.44374999999997,248.26242319742835L339.22916666666663,135.39944479200574L341.0145833333333,68.63455390930176L342.8,201.64053281148279L344.5854166666667,179.33552720811633L346.37083333333334,326.0875761244032L348.15625,302.15419557359485L349.94166666666666,212.76255501641168L351.7270833333333,194.17849922180176L353.5125,132.58708042568628L355.2979166666667,207.39900864495172L357.08333333333337,37.25727632310657L358.86875000000003,186.07241821289062L360.6541666666667,53.160317950778555L362.4395833333333,-37.48418299357093L364.22499999999997,-37.37536366780602L366.01041666666663,102.10552491082086L367.7958333333333,109.02426083882648L369.58125,52.51051796807184L371.3666666666667,192.1807617611355L373.15208333333334,266.8339352077908L374.9375,-4.790766821967268L376.72291666666666,-12.127522362603045L378.5083333333333,270.7499927944607L380.29375,131.63982497321234L382.0791666666667,306.7546484205458L383.86458333333337,11.693203820122617L385.65000000000003,306.73315620422363L387.4354166666667,288.46325429280597L389.2208333333333,18.860578325059688L391.00624999999997,-58.02866448296437L392.79166666666663,144.92121569315594L394.5770833333333,150.32702742682562L396.3625,141.39361593458386L398.1479166666667,-51.09474817911781L399.93333333333334,-43.843162536621094L401.71875,281.23228200276696L403.50416666666666,186.6770765516493L405.2895833333333,66.01649835374621L407.075,53.073869705200195L408.8604166666667,-81.26342815823023L410.64583333333337,9.25499576992457L412.43125000000003,264.06080012851294L414.2166666666667,221.23240576850043L416.0020833333333,12.806165059407538L417.78749999999997,69.10746256510419L419.57291666666663,256.202079349094L421.3583333333333,163.16283416748047L423.14375,283.72130436367456L424.9291666666667,271.22881380716956L426.71458333333334,80.90852695041235L428.5,312.7991544935438L430.28541666666666,493.80188645256885L432.0708333333333,28.76609314812555L433.85625,-15.196355183919298L435.64166666666665,275.33182970682776L437.4270833333333,113.11968655056421L439.2125,-37.573187934027814L440.99791666666664,-39.438776228162965L442.78333333333336,323.7996537950304L444.56875,-56.860574510362426L446.3541666666667,56.764059278700074L448.13958333333335,215.91224331325952L449.925,-142.37259038289392L451.7104166666667,263.1226529015435L453.49583333333334,289.5435377756755L455.28125,207.1018727620443L457.06666666666666,210.44954511854382L458.8520833333333,57.93222914801703L460.6375,417.41966819763184L462.42291666666665,-36.70423126220703L464.2083333333333,204.8253756629096L465.99375,243.205840004815L467.77916666666664,225.62289004855688L469.56458333333336,7.772751914130312L471.35,73.4600758022732L473.1354166666667,268.1252259148492L474.92083333333335,53.91957643296985L476.70625,82.37183528476294L478.4916666666667,222.78783501519098L480.27708333333334,255.2243832482232L482.0625,190.2550911373562L483.84791666666666,9.51090494791668L485.6333333333333,30.174991819593632L487.41875,-18.62376446194117L489.20416666666665,255.7494644588894L490.9895833333333,311.8173836602105L492.775,99.72252549065485L494.56041666666664,274.13809288872613L496.34583333333336,-139.70260196261938L498.13125,79.98803689744739L499.9166666666667,164.05072636074487L501.70208333333335,85.91261800130206L503.4875,245.88637479146325L505.2729166666667,-13.026999579535627L507.05833333333334,59.267063564724374L508.84375,25.840674930148673L510.62916666666666,240.6211812761095L512.4145833333333,226.58804236518012L514.1999999999999,194.74752362569177L515.9854166666667,-100.22148047553172L517.7708333333333,372.5221087137858L519.55625,277.861839082506L521.3416666666666,425.018564860026L523.1270833333334,48.10916773478191L524.9125,186.75921037462024L526.6979166666667,138.4634838104248L528.4833333333333,286.72134611341687L530.2687500000001,133.03785769144696L532.0541666666667,84.02322048611109L533.8395833333334,-67.55395083957251L535.625,240.34417936537L537.4104166666666,-15.64904997083875L539.1958333333333,308.24264483981665L540.9812499999999,-123.53534189860024L542.7666666666667,213.9514980316162L544.5520833333333,249.4935516781277L546.3375,262.13297229342993L548.1229166666666,45.52051417032879L549.9083333333334,259.7054704030355L551.69375,156.12960624694824L553.4791666666667,-185.68396038479273L555.2645833333333,45.35688569810657L557.0500000000001,216.98941082424585L558.8354166666667,89.5881864759657L560.6208333333334,34.61637030707465L562.40625,169.74967914157446L564.1916666666666,443.29733530680335L565.9770833333333,119.57629987928601L567.7624999999999,-63.52971310085719L569.5479166666667,357.16564051310223L571.3333333333333,-130.7915615505642L573.11875,225.04843266805017L574.9041666666666,-68.78116438123914L576.6895833333334,152.42040125528973L578.475,271.96018833584253L580.2604166666667,78.6098984612359L582.0458333333333,220.4552504221598L583.8312500000001,93.14966244167749L585.6166666666667,264.4407090081109L587.4020833333334,-14.367986043294298L589.1875,277.0102998945448L590.9729166666666,112.10883331298828L592.7583333333333,322.54327795240613L594.5437499999999,263.6220872667101L596.3291666666667,278.0269056955973L598.1145833333333,239.48369174533423L599.9,36.911083857218436L601.6854166666666,-16.391290452745235L603.4708333333334,201.5309944152832L605.25625,-4.922436608208513L607.0416666666667,414.5387524498833L608.8270833333333,228.84041065639917L610.6125000000001,335.83026144239636L612.3979166666667,264.3347659640842L614.1833333333334,365.14564450581867L615.96875,234.58386590745715L617.7541666666666,270.13414891560876L619.5395833333333,253.88507461547852L621.3249999999999,275.2805360158285L623.1104166666667,75.93687396579321L624.8958333333333,170.44789653354223L626.68125,26.102017084757502L628.4666666666666,-8.344412909613752L630.2520833333334,-105.31937026977539L632.0375,69.88821326361762L633.8229166666667,60.571057849460196L635.6083333333333,294.7216438717312L637.3937500000001,154.3721981048584L639.1791666666667,-67.35293070475258L640.9645833333334,52.529932869805236L642.75,220.9692259894477L644.5354166666666,178.56668112013074L646.3208333333333,246.823882844713L648.1062499999999,146.12709681193036L649.8916666666667,170.10857518513996L651.6770833333333,39.72057194179957L653.4625,-247.19867833455407L655.2479166666666,17.410532845391174L657.0333333333334,159.83122105068628L658.81875,249.46351051330566L660.6041666666667,23.050202263726135L662.3895833333333,96.37589179144965L664.1750000000001,255.73580212063257L665.9604166666667,-15.05365965101453L667.7458333333334,269.6359928978814L669.53125,328.48008325364856L671.3166666666666,206.92034742567273L673.1020833333333,330.9772550794813L674.8874999999999,-82.01781294080945L676.6729166666667,148.0101025899251L678.4583333333333,127.23599794175891L680.24375,78.62172317504883L682.0291666666666,86.28925111558704L683.8145833333334,236.7664843665229L685.6,106.09804365370007L687.3854166666667,182.02141507466632L689.1708333333333,37.50759273105199L690.9562500000001,162.7273171742757L692.7416666666667,324.87778006659613L694.5270833333334,226.88382000393335L696.3125,89.94955931769476L698.0979166666666,11.054589377509219L699.8833333333333,250.8141644795736L701.6687499999999,-51.97297286987305L703.4541666666667,126.45245085822211L705.2395833333333,122.3992905086941L707.025,56.6509255303277L708.8104166666666,332.0413994259304L710.5958333333334,-24.423147413465703L712.38125,308.7478317684597L714.1666666666667,217.23013962639703L715.9520833333333,442.04870944552954L717.7375000000001,202.2114747365316L719.5229166666667,399.10917875501843L724.8791666666666,-43.417313045925546L726.6645833333333,296.05256334940594L728.4499999999999,70.04712782965765L730.2354166666667,-136.85396448771155L732.0208333333333,276.13015768263074L733.80625,111.5806361304389L735.5916666666666,299.9494457244873L737.3770833333334,82.03243403964575L739.1625,238.01511022779675L740.9479166666667,-37.24305470784508L742.7333333333333,-5.447198232015002L744.5187500000001,307.0779105292426L746.3041666666667,185.03128412034778L748.0895833333334,-112.39917797512476L749.875,14.065896564059805L751.6604166666666,130.1910578409831L753.4458333333333,267.58336639404297L755.2312499999999,274.7894908057319L757.0166666666667,213.90451876322425L758.8020833333333,45.891234927707266L760.5875,244.18840980529785L762.3729166666666,465.8653608957926L764.1583333333334,-232.03939522637256L765.94375,62.02493837144641L767.7291666666667,-56.791543748643676L769.5145833333333,89.88891771104602L771.3000000000001,384.1191967858208L773.0854166666667,140.5109969245063L774.8708333333334,215.04232788085938L776.65625,273.0621238284641L778.4416666666666,313.91842757331L780.2270833333333,9.411433537801093L782.0124999999999,-56.52372996012367L783.7979166666667,297.2212125990126L785.5833333333333,177.53561401367188" style="fill: none;" fill="none"></path></g></g></g></g></g></g><g transform="translate(30, 377)" clip-path="url(#clip_1)"><clipPath id="clip_1"><rect width="857" height="23"></rect></clipPath><g><g><line x1="0" y1="0" x2="0" y2="5" style="visibility: inherit;" fill="rgb(0, 0, 0)" stroke="rgb(204, 204, 204)" stroke-width="1px"></line><line x1="71.41666666666666" y1="0" x2="71.41666666666666" y2="5" style="visibility: inherit;" fill="rgb(0, 0, 0)" stroke="rgb(204, 204, 204)" stroke-width="1px"></line><line x1="142.83333333333331" y1="0" x2="142.83333333333331" y2="5" style="visibility: inherit;" fill="rgb(0, 0, 0)" stroke="rgb(204, 204, 204)" stroke-width="1px"></line><line x1="214.25" y1="0" x2="214.25" y2="5" style="visibility: inherit;" fill="rgb(0, 0, 0)" stroke="rgb(204, 204, 204)" stroke-width="1px"></line><line x1="285.66666666666663" y1="0" x2="285.66666666666663" y2="5" style="visibility: inherit;" fill="rgb(0, 0, 0)" stroke="rgb(204, 204, 204)" stroke-width="1px"></line><line x1="357.08333333333337" y1="0" x2="357.08333333333337" y2="5" style="visibility: inherit;" fill="rgb(0, 0, 0)" stroke="rgb(204, 204, 204)" stroke-width="1px"></line><line x1="428.5" y1="0" x2="428.5" y2="5" style="visibility: inherit;" fill="rgb(0, 0, 0)" stroke="rgb(204, 204, 204)" stroke-width="1px"></line><line x1="499.9166666666667" y1="0" x2="499.9166666666667" y2="5" style="visibility: inherit;" fill="rgb(0, 0, 0)" stroke="rgb(204, 204, 204)" stroke-width="1px"></line><line x1="571.3333333333333" y1="0" x2="571.3333333333333" y2="5" style="visibility: inherit;" fill="rgb(0, 0, 0)" stroke="rgb(204, 204, 204)" stroke-width="1px"></line><line x1="642.75" y1="0" x2="642.75" y2="5" style="visibility: inherit;" fill="rgb(0, 0, 0)" stroke="rgb(204, 204, 204)" stroke-width="1px"></line><line x1="714.1666666666667" y1="0" x2="714.1666666666667" y2="5" style="visibility: inherit;" fill="rgb(0, 0, 0)" stroke="rgb(204, 204, 204)" stroke-width="1px"></line><line x1="785.5833333333333" y1="0" x2="785.5833333333333" y2="5" style="visibility: inherit;" fill="rgb(0, 0, 0)" stroke="rgb(204, 204, 204)" stroke-width="1px"></line><line x1="857" y1="0" x2="857" y2="5" style="visibility: inherit;" fill="rgb(0, 0, 0)" stroke="rgb(204, 204, 204)" stroke-width="1px"></line></g><g transform="translate(0, 8)"><text x="0" y="0" dx="0em" dy="0.95em" style="text-anchor: middle; visibility: hidden; font-family: Roboto, sans-serif; font-size: 12px; font-weight: 200;" fill="rgb(33, 33, 33)" stroke="none" stroke-width="1px">-20k</text><text x="71.41666666666666" y="0" dx="0em" dy="0.95em" style="text-anchor: middle; visibility: inherit; font-family: Roboto, sans-serif; font-size: 12px; font-weight: 200;" fill="rgb(33, 33, 33)" stroke="none" stroke-width="1px">0</text><text x="142.83333333333331" y="0" dx="0em" dy="0.95em" style="text-anchor: middle; visibility: inherit; font-family: Roboto, sans-serif; font-size: 12px; font-weight: 200;" fill="rgb(33, 33, 33)" stroke="none" stroke-width="1px">20k</text><text x="214.25" y="0" dx="0em" dy="0.95em" style="text-anchor: middle; visibility: inherit; font-family: Roboto, sans-serif; font-size: 12px; font-weight: 200;" fill="rgb(33, 33, 33)" stroke="none" stroke-width="1px">40k</text><text x="285.66666666666663" y="0" dx="0em" dy="0.95em" style="text-anchor: middle; visibility: inherit; font-family: Roboto, sans-serif; font-size: 12px; font-weight: 200;" fill="rgb(33, 33, 33)" stroke="none" stroke-width="1px">60k</text><text x="357.08333333333337" y="0" dx="0em" dy="0.95em" style="text-anchor: middle; visibility: inherit; font-family: Roboto, sans-serif; font-size: 12px; font-weight: 200;" fill="rgb(33, 33, 33)" stroke="none" stroke-width="1px">80k</text><text x="428.5" y="0" dx="0em" dy="0.95em" style="text-anchor: middle; visibility: inherit; font-family: Roboto, sans-serif; font-size: 12px; font-weight: 200;" fill="rgb(33, 33, 33)" stroke="none" stroke-width="1px">100k</text><text x="499.9166666666667" y="0" dx="0em" dy="0.95em" style="text-anchor: middle; visibility: inherit; font-family: Roboto, sans-serif; font-size: 12px; font-weight: 200;" fill="rgb(33, 33, 33)" stroke="none" stroke-width="1px">120k</text><text x="571.3333333333333" y="0" dx="0em" dy="0.95em" style="text-anchor: middle; visibility: inherit; font-family: Roboto, sans-serif; font-size: 12px; font-weight: 200;" fill="rgb(33, 33, 33)" stroke="none" stroke-width="1px">140k</text><text x="642.75" y="0" dx="0em" dy="0.95em" style="text-anchor: middle; visibility: inherit; font-family: Roboto, sans-serif; font-size: 12px; font-weight: 200;" fill="rgb(33, 33, 33)" stroke="none" stroke-width="1px">160k</text><text x="714.1666666666667" y="0" dx="0em" dy="0.95em" style="text-anchor: middle; visibility: inherit; font-family: Roboto, sans-serif; font-size: 12px; font-weight: 200;" fill="rgb(33, 33, 33)" stroke="none" stroke-width="1px">180k</text><text x="785.5833333333333" y="0" dx="0em" dy="0.95em" style="text-anchor: middle; visibility: inherit; font-family: Roboto, sans-serif; font-size: 12px; font-weight: 200;" fill="rgb(33, 33, 33)" stroke="none" stroke-width="1px">200k</text><text x="857" y="0" dx="0em" dy="0.95em" style="text-anchor: middle; visibility: hidden; font-family: Roboto, sans-serif; font-size: 12px; font-weight: 200;" fill="rgb(33, 33, 33)" stroke="none" stroke-width="1px">220k</text></g><line x1="0" y1="0" x2="857" y2="0" fill="rgb(0, 0, 0)" stroke="rgb(204, 204, 204)" stroke-width="1px"></line></g></g></g></g></svg>