<svg viewBox="0 0 1112.5999755859375 400" xmlns="http://www.w3.org/2000/svg"><g><g><g><g><g><line x1="61.953125" y1="364.92617965292504" x2="56.953125" y2="364.92617965292504" style="visibility: inherit;" fill="rgb(0, 0, 0)" stroke="rgb(204, 204, 204)" stroke-width="1px"></line><line x1="61.953125" y1="321.22909819875235" x2="56.953125" y2="321.22909819875235" style="visibility: inherit;" fill="rgb(0, 0, 0)" stroke="rgb(204, 204, 204)" stroke-width="1px"></line><line x1="61.953125" y1="277.5320167445797" x2="56.953125" y2="277.5320167445797" style="visibility: inherit;" fill="rgb(0, 0, 0)" stroke="rgb(204, 204, 204)" stroke-width="1px"></line><line x1="61.953125" y1="233.834935290407" x2="56.953125" y2="233.834935290407" style="visibility: inherit;" fill="rgb(0, 0, 0)" stroke="rgb(204, 204, 204)" stroke-width="1px"></line><line x1="61.953125" y1="190.13785383623434" x2="56.953125" y2="190.13785383623434" style="visibility: inherit;" fill="rgb(0, 0, 0)" stroke="rgb(204, 204, 204)" stroke-width="1px"></line><line x1="61.953125" y1="146.44077238206168" x2="56.953125" y2="146.44077238206168" style="visibility: inherit;" fill="rgb(0, 0, 0)" stroke="rgb(204, 204, 204)" stroke-width="1px"></line><line x1="61.953125" y1="102.74369092788906" x2="56.953125" y2="102.74369092788906" style="visibility: inherit;" fill="rgb(0, 0, 0)" stroke="rgb(204, 204, 204)" stroke-width="1px"></line><line x1="61.953125" y1="59.04660947371631" x2="56.953125" y2="59.04660947371631" style="visibility: inherit;" fill="rgb(0, 0, 0)" stroke="rgb(204, 204, 204)" stroke-width="1px"></line><line x1="61.953125" y1="15.349528019543602" x2="56.953125" y2="15.349528019543602" style="visibility: inherit;" fill="rgb(0, 0, 0)" stroke="rgb(204, 204, 204)" stroke-width="1px"></line></g><g transform="translate(51.953125, 0)"><text x="0" y="364.92617965292504" dx="0em" dy="0.3em" style="text-anchor: end; visibility: inherit; font-family: Roboto, sans-serif; font-size: 12px; font-weight: 200;" fill="rgb(50, 49, 63)" stroke="none" stroke-width="1px">0</text><text x="0" y="321.22909819875235" dx="0em" dy="0.3em" style="text-anchor: end; visibility: inherit; font-family: Roboto, sans-serif; font-size: 12px; font-weight: 200;" fill="rgb(50, 49, 63)" stroke="none" stroke-width="1px">5e-3</text><text x="0" y="277.5320167445797" dx="0em" dy="0.3em" style="text-anchor: end; visibility: inherit; font-family: Roboto, sans-serif; font-size: 12px; font-weight: 200;" fill="rgb(50, 49, 63)" stroke="none" stroke-width="1px">0.01</text><text x="0" y="233.834935290407" dx="0em" dy="0.3em" style="text-anchor: end; visibility: inherit; font-family: Roboto, sans-serif; font-size: 12px; font-weight: 200;" fill="rgb(50, 49, 63)" stroke="none" stroke-width="1px">0.015</text><text x="0" y="190.13785383623434" dx="0em" dy="0.3em" style="text-anchor: end; visibility: inherit; font-family: Roboto, sans-serif; font-size: 12px; font-weight: 200;" fill="rgb(50, 49, 63)" stroke="none" stroke-width="1px">0.02</text><text x="0" y="146.44077238206168" dx="0em" dy="0.3em" style="text-anchor: end; visibility: inherit; font-family: Roboto, sans-serif; font-size: 12px; font-weight: 200;" fill="rgb(50, 49, 63)" stroke="none" stroke-width="1px">0.025</text><text x="0" y="102.74369092788906" dx="0em" dy="0.3em" style="text-anchor: end; visibility: inherit; font-family: Roboto, sans-serif; font-size: 12px; font-weight: 200;" fill="rgb(50, 49, 63)" stroke="none" stroke-width="1px">0.03</text><text x="0" y="59.04660947371631" dx="0em" dy="0.3em" style="text-anchor: end; visibility: inherit; font-family: Roboto, sans-serif; font-size: 12px; font-weight: 200;" fill="rgb(50, 49, 63)" stroke="none" stroke-width="1px">0.035</text><text x="0" y="15.349528019543602" dx="0em" dy="0.3em" style="text-anchor: end; visibility: inherit; font-family: Roboto, sans-serif; font-size: 12px; font-weight: 200;" fill="rgb(50, 49, 63)" stroke="none" stroke-width="1px">0.04</text></g><line x1="61.953125" y1="0" x2="61.953125" y2="378" fill="rgb(0, 0, 0)" stroke="rgb(204, 204, 204)" stroke-width="1px"></line></g></g><g transform="translate(61, 0)" clip-path="url(#clip_0)"><clipPath id="clip_0"><rect width="1050" height="378"></rect></clipPath><g><g><g><line x1="52.775391241936966" y1="0" x2="52.775391241936966" y2="378" fill="rgb(0, 0, 0)" stroke="rgb(60, 60, 60)" stroke-width="1px" opacity="0.25"></line><line x1="148.93754062674108" y1="0" x2="148.93754062674108" y2="378" fill="rgb(0, 0, 0)" stroke="rgb(60, 60, 60)" stroke-width="1px" opacity="0.25"></line><line x1="245.09969001154522" y1="0" x2="245.09969001154522" y2="378" fill="rgb(0, 0, 0)" stroke="rgb(60, 60, 60)" stroke-width="1px" opacity="0.25"></line><line x1="341.26183939634933" y1="0" x2="341.26183939634933" y2="378" fill="rgb(0, 0, 0)" stroke="rgb(60, 60, 60)" stroke-width="1px" opacity="0.25"></line><line x1="437.4239887811534" y1="0" x2="437.4239887811534" y2="378" fill="rgb(0, 0, 0)" stroke="rgb(60, 60, 60)" stroke-width="1px" opacity="0.25"></line><line x1="533.5861381659575" y1="0" x2="533.5861381659575" y2="378" fill="rgb(0, 0, 0)" stroke="rgb(60, 60, 60)" stroke-width="1px" opacity="0.25"></line><line x1="629.7482875507617" y1="0" x2="629.7482875507617" y2="378" fill="rgb(0, 0, 0)" stroke="rgb(60, 60, 60)" stroke-width="1px" opacity="0.25"></line><line x1="725.9104369355657" y1="0" x2="725.9104369355657" y2="378" fill="rgb(0, 0, 0)" stroke="rgb(60, 60, 60)" stroke-width="1px" opacity="0.25"></line><line x1="822.0725863203699" y1="0" x2="822.0725863203699" y2="378" fill="rgb(0, 0, 0)" stroke="rgb(60, 60, 60)" stroke-width="1px" opacity="0.25"></line><line x1="918.2347357051741" y1="0" x2="918.2347357051741" y2="378" fill="rgb(0, 0, 0)" stroke="rgb(60, 60, 60)" stroke-width="1px" opacity="0.25"></line><line x1="1014.3968850899781" y1="0" x2="1014.3968850899781" y2="378" fill="rgb(0, 0, 0)" stroke="rgb(60, 60, 60)" stroke-width="1px" opacity="0.25"></line></g><g><line x1="0" y1="364.92617965292504" x2="1050.646875" y2="364.92617965292504" fill="rgb(0, 0, 0)" stroke="rgb(60, 60, 60)" stroke-width="1px" opacity="0.25"></line><line x1="0" y1="321.22909819875235" x2="1050.646875" y2="321.22909819875235" fill="rgb(0, 0, 0)" stroke="rgb(60, 60, 60)" stroke-width="1px" opacity="0.25"></line><line x1="0" y1="277.5320167445797" x2="1050.646875" y2="277.5320167445797" fill="rgb(0, 0, 0)" stroke="rgb(60, 60, 60)" stroke-width="1px" opacity="0.25"></line><line x1="0" y1="233.834935290407" x2="1050.646875" y2="233.834935290407" fill="rgb(0, 0, 0)" stroke="rgb(60, 60, 60)" stroke-width="1px" opacity="0.25"></line><line x1="0" y1="190.13785383623434" x2="1050.646875" y2="190.13785383623434" fill="rgb(0, 0, 0)" stroke="rgb(60, 60, 60)" stroke-width="1px" opacity="0.25"></line><line x1="0" y1="146.44077238206168" x2="1050.646875" y2="146.44077238206168" fill="rgb(0, 0, 0)" stroke="rgb(60, 60, 60)" stroke-width="1px" opacity="0.25"></line><line x1="0" y1="102.74369092788906" x2="1050.646875" y2="102.74369092788906" fill="rgb(0, 0, 0)" stroke="rgb(60, 60, 60)" stroke-width="1px" opacity="0.25"></line><line x1="0" y1="59.04660947371631" x2="1050.646875" y2="59.04660947371631" fill="rgb(0, 0, 0)" stroke="rgb(60, 60, 60)" stroke-width="1px" opacity="0.25"></line><line x1="0" y1="15.349528019543602" x2="1050.646875" y2="15.349528019543602" fill="rgb(0, 0, 0)" stroke="rgb(60, 60, 60)" stroke-width="1px" opacity="0.25"></line></g></g></g><g><g><line x1="0" y1="364.92617965292504" x2="1050.646875" y2="364.92617965292504" fill="rgb(0, 0, 0)" stroke="rgb(153, 153, 153)" stroke-width="1.5px"></line></g></g><g><g><line x1="52.775391241936966" y1="0" x2="52.775391241936966" y2="378" fill="rgb(0, 0, 0)" stroke="rgb(153, 153, 153)" stroke-width="1.5px"></line></g></g><g><g><g><g><g><path stroke="rgb(255, 112, 67)" stroke-width="2px" d="M59.98755244579728,-54.14335217242233L62.39160618041738,108.71010029274584L64.79565991503749,115.90191491863797L67.19971364965758,137.72312074203361L69.60376738427769,173.9961566030969L72.0078211188978,228.58194379960725L74.41187485351789,278.1597655664123L76.815928588138,268.6875986387557L79.2199823227581,215.07736037574938L81.6240360573782,261.7728593044865L84.02808979199831,247.24498563587497L86.4321435266184,271.52594569706474L88.83619726123851,301.4322592969045L91.24025099585862,292.63439275817547L93.64430473047871,313.8092973218877L96.04835846509881,319.6749441890303L98.45241219971892,328.6058217370156L100.85646593433903,335.88522515711634L103.26051966895913,319.6487465012288L105.66457340357923,320.31828604315655L108.06862713819933,325.1276925496324L110.47268087281944,311.5675812416161L112.87673460743953,329.7454302400567L115.28078834205964,315.7767926244014L117.68484207667976,309.38391849554546L120.08889581129985,327.05703540098034L122.49294954591996,301.7632493529769L124.89700328054005,296.3733769385458L127.30105701516015,299.19373676037156L129.70511074978026,310.69308278149913L132.10916448440037,325.1327750174535L134.51321821902047,336.2439578765805L136.91727195364055,342.58553917080104L139.32132568826069,341.9426677773115L141.72537942288076,339.8253259873615L144.12943315750087,315.91150970940265L146.533486892121,327.40410495761824L148.93754062674108,312.5779918649818L151.3415943613612,330.7236344272549L153.7456480959813,329.61313540042596L156.1497018306014,321.4796802249016L158.55375556522148,314.6724231655497L160.95780929984159,328.95374599347565L163.3618630344617,312.43080199028265L165.7659167690818,326.47837866597695L168.1699705037019,337.7539535399372L170.574024238322,327.93245309355365L172.97807797294212,319.34268068449876L175.3821317075622,334.51732069521626L177.78618544218233,340.5055701232893L180.1902391768024,334.84271236664904L182.5942929114225,332.0659873122373L184.99834664604265,319.6573140486239L187.40240038066273,329.7384744871027L189.80645411528283,297.3728001888481L192.21050784990294,294.8091382836724L194.61456158452305,315.66825253205735L197.01861531914312,328.78145979018194L199.42266905376326,339.19850225534327L201.82672278838334,316.9363796503387L204.23077652300344,309.4697657655941L206.63483025762355,310.17990993584533L209.03888399224365,327.5406671210278L211.44293772686376,338.74628187825533L213.84699146148384,341.96736453845784L216.25104519610397,317.97432100260176L218.65509893072405,246.59858067756088L221.05915266534416,287.6959915399811L223.4632063999643,300.49127929420933L225.86726013458437,297.74433378222807L228.27131386920448,321.0560293453353L230.67536760382458,322.94169255220015L233.0794213384447,336.75494038799343L235.48347507306477,324.9767455186146L237.8875288076849,335.24239948915414L240.29158254230498,330.0678603763175L242.6956362769251,339.8331606032963L245.09969001154522,348.411339440314L247.5037437461653,341.46052137909624L249.9077974807854,330.6548019250173L252.31185121540548,334.90302623981563L254.71590495002562,326.99426921341535L257.1199586846457,340.8326048070341L259.52401241926583,341.9736971401203L261.92806615388594,334.5498534454126L264.33211988850604,343.0776727477987L266.7361736231261,349.1040167068823L269.1402273577462,350.38645543518004L271.54428109236636,350.66875039416396L273.94833482698647,348.650861289114L276.3523885616065,338.42460104744936L278.7564422962266,340.9019428123454L281.16049603084673,334.4068303084001L283.56454976546684,339.1557000094344L285.96860350008694,324.5366485312178L288.37265723470705,333.2261516999929L290.77671096932715,333.2007470913706L293.18076470394726,341.39541438548997L295.58481843856737,341.98506545212655L297.9888721731875,348.69178720499616L300.3929259078075,339.55554460209186L302.7969796424277,342.0998096257503L305.2010333770478,345.61104516552655L307.6050871116679,338.84213579487596L310.00914084628795,346.2763565205238L312.41319458090805,349.846800810992L314.81724831552816,345.73156308226993L317.2213020501483,342.5853638582525L319.62535578476843,348.10538909820224L322.0294095193885,348.1031123613388L324.4334632540086,337.97910999400267L326.8375169886287,331.64349021339046L329.2415707232488,340.1836981711496L331.64562445786885,343.3992403545829L334.049678192489,337.57027423101647L336.4537319271091,330.38492314493055L338.8577856617292,341.87492515724557L341.26183939634933,348.07524807506786L343.6658931309694,351.2073200069544L346.0699468655895,348.58560212627395L348.47400060020965,344.6645606912627L350.87805433482976,348.2907037391389L353.2821080694498,330.1727484073641L355.6861618040699,328.84148434441283L358.09021553869,338.2999213733353L360.4942692733101,319.4878540993778L362.8983230079303,335.7316739659629L365.30237674255034,344.95650709225686L367.70643047717044,339.8664910969879L370.11048421179055,334.81674744278246L372.51453794641066,343.09920237278754L374.91859168103076,350.9314535818397L377.3226454156508,351.7337669665487L379.726699150271,342.6824421063538L382.1307528848911,332.54071147821753L384.5348066195112,335.9766459876584L386.93886035413124,345.038570089682L389.34291408875134,345.57290947445154L391.74696782337145,334.0812118243089L394.1510215579916,333.39379559892774L396.5550752926117,338.40003358659885L398.95912902723177,333.6411801144016L401.3631827618519,343.87962513163797L403.767236496472,337.2072164533885L406.1712902310921,344.7692772643794L408.57534396571214,341.3302830156363L410.9793977003323,336.8986058570564L413.3834514349524,340.6327841833466L415.7875051695725,345.77025047338134L418.1915589041926,343.92604346180735L420.59561263881267,343.56771991198997L422.9996663734328,332.6765157599133L425.40372010805294,328.2399105197578L427.80777384267304,334.6628389920942L430.2118275772931,335.8355131987323L432.6158813119132,341.51351699759056L435.0199350465333,341.36350603516235L437.4239887811534,347.10916652521735L439.8280425157736,345.11025141225207L442.2320962503936,348.79409234754894L444.63614998501373,352.6490247354269L447.04020371963384,355.0075283703769L449.44425745425394,353.7095988112721L451.84831118887405,352.50367265404736L454.25236492349416,352.9804559314271L456.65641865811426,349.71853434502725L459.06047239273437,343.7938026910435L461.4645261273545,349.3340779664973L463.8685798619745,352.66792717058644L466.27263359659463,343.93774807280323L468.67668733121474,345.10918424516785L471.0807410658349,333.0991477778162L473.484794800455,342.5393617003923L475.88884853507506,334.55249701631976L478.29290226969516,332.17897381870466L480.69695600431527,342.2763647076656L483.1010097389354,349.24776427947614L485.5050634735555,349.06234882481476L487.9091172081756,348.7844600988985L490.3131709427957,348.1890669303134L492.7172246774158,352.543251227995L495.1212784120359,355.3248627620256L497.52533214665596,345.714240067736L499.9293858812761,345.3996107846274L502.3334396158962,349.3054878634844L504.73749335051633,351.5440788656755L507.1415470851364,354.95520184231725L509.5456008197565,355.9530426625118L511.9496545543766,347.75247262177487L514.3537082889967,344.3993137868315L516.7577620236168,349.2947508504755L519.1618157582369,350.8952348166501L521.565869492857,342.07829073217107L523.9699232274771,343.42449076118413L526.3739769620972,337.81815069677623L528.7780306967173,330.5364033349727L531.1820844313374,338.9758693387906L533.5861381659575,326.09588939826085L535.9901919005777,288.327208869728L538.3942456351978,315.69841760042596L540.7982993698179,332.552321248692L543.202353104438,333.3761050411675L545.606406839058,339.96817437133535L548.0104605736781,347.597452026735L550.4145143082982,351.97572707530946L552.8185680429183,339.3174609489523L555.2226217775385,347.1572561285849L557.6266755121586,350.00266379608775L560.0307292467787,346.9382008237301L562.4347829813988,352.8293270155793L564.8388367160189,345.70347473883487L567.242890450639,339.1426278826122L569.646944185259,340.5754268702441L572.0509979198791,340.42675673842615L574.4550516544992,345.27524159492253L576.8591053891193,318.1439240032326L579.2631591237395,333.8983544393819L581.6672128583596,336.19049741693146L584.0712665929798,335.7143436037679L586.4753203275999,336.2573455603917L588.87937406222,344.3027854396859L591.28342779684,348.08344186651937L593.6874815314601,341.2575009881571L596.0915352660802,346.5545034530419L598.4955890007003,349.44084038992065L600.8996427353204,344.65294155510963L603.3036964699405,339.32464971867506L605.7077502045606,340.9327794264152L608.1118039391807,347.0737886144218L610.5158576738008,350.0152776311738L612.9199114084208,353.2043941977839L615.323965143041,347.3789078179337L617.7280188776612,337.43314349901743L620.1320726122813,342.83069762574763L622.5361263469014,337.02336154797604L624.9401800815215,346.67911867046286L627.3442338161416,349.58633238630455L629.7482875507617,349.1749995168179L632.1523412853818,350.44962797671525L634.5563950200018,344.1497619969765L636.9604487546219,349.3660021275364L639.364502489242,351.79826690258267L641.7685562238621,352.92147005558917L644.1726099584822,348.1511641796091L646.5766636931024,344.4456879122543L648.9807174277225,343.8920743451905L651.3847711623426,350.6136857477204L653.7888248969628,335.7026184272848L656.1928786315827,333.297096157143L658.5969323662029,311.23349334037266L661.000986100823,328.5081500010601L663.4050398354431,335.2142631809963L665.8090935700632,341.4572416684936L668.2131473046833,335.8988760342246L670.6172010393034,341.3449882643236L673.0212547739235,345.8881374411042L675.4253085085437,351.6323979043391L677.8293622431637,345.62362305301957L680.2334159777838,350.7899939334341L682.6374697124039,338.1116890551511L685.041523447024,347.2206541099925L687.4455771816441,344.1469593648137L689.8496309162642,339.2882903894098L692.2536846508843,336.20873463585036L694.6577383855044,344.0245055732715L697.0617921201246,334.25100104087625L699.4658458547445,339.19938811529533L701.8698995893646,348.4271962119194L704.2739533239848,351.5986060694303L706.678007058605,346.9004027819569L709.0820607932251,349.2369951325557L711.4861145278452,352.2522843062052L713.8901682624653,350.34609346111495L716.2942219970854,325.25459092717887L718.6982757317055,334.98415543488215L721.1023294663256,345.1334987682717L723.5063832009456,331.5149015202409L725.9104369355657,343.40427648264887L728.3144906701858,340.1219545594177L730.7185444048059,347.7748172673684L733.122598139426,348.70333131698925L735.5266518740463,340.5097048509822L737.9307056086664,346.0922499659424L740.3347593432865,343.7725939615066L742.7388130779066,346.99505399044136L745.1428668125266,343.0931661260744L747.5469205471467,348.95656181733904L749.9509742817668,339.40000123481417L752.3550280163869,343.08180666600873L754.759081751007,333.35044645988876L757.1631354856271,332.676676494783L759.5671892202472,332.8005722908427L761.9712429548673,334.47304313952435L764.3752966894874,343.1116422618571L766.7793504241075,348.2283531784403L769.1834041587276,345.3170451178422L771.5874578933477,350.29286398960426L773.9915116279678,328.36983400443756L776.395565362588,333.5332989266826L778.799619097208,329.0792820807697L781.2036728318282,330.2380911393822L783.6077265664483,323.79490920480623L786.0117803010684,330.81140488669166L788.4158340356884,331.73406923751986L790.8198877703085,333.20562405698655L793.2239415049286,331.37547148976824L795.6279952395487,340.22717433222647L798.0320489741689,341.1888641094503L800.436102708789,347.1718461393796L802.8401564434091,351.4060429047814L805.2442101780292,354.8327371984064L807.6482639126493,354.9009597259142L810.0523176472693,355.2391577471142L812.4563713818894,343.53733088105105L814.8604251165095,346.249678617392L817.2644788511296,351.7006260579602L819.6685325857497,352.8305236203088L822.0725863203699,349.1740388308291L824.47664005499,347.26841374498014L826.8806937896102,340.06976826160167L829.2847475242303,343.77054900325436L831.6888012588503,345.0305712777372L834.0928549934704,349.65760986375545L836.4969087280905,354.9682580100262L838.9009624627106,354.9624060152529L841.3050161973307,351.9957392829977L843.7090699319508,344.4359698676625L846.1131236665709,349.4250054276244L848.517177401191,350.95046671766113L850.9212311358111,342.9626184676763L853.3252848704311,349.02875601097L855.7293386050512,341.55229434364435L858.1333923396714,332.1676252776348L860.5374460742916,337.19616452179554L862.9414998089117,324.97495975359095L865.3455535435318,339.1258073749886L867.7496072781519,342.34352203815934L870.153661012772,346.3004932275943L872.5577147473921,349.43491531229546L874.9617684820122,350.905118497323L877.3658222166322,344.9551314889713L879.7698759512523,347.65379716117116L882.1739296858724,347.07672362797865L884.5779834204925,350.2453192215021L886.9820371551126,348.18758974389766L889.3860908897328,337.88728526834296L891.7901446243529,337.341949154191L894.194198358973,343.7338564180879L896.5982520935931,348.7911357538117L899.0023058282131,343.5755145770595L901.4063595628332,349.9194985142756L903.8104132974534,349.81468950407907L906.2144670320735,348.6394569660874L908.6185207666936,351.5301920019691L911.0225745013137,336.9777555981534L913.4266282359338,345.54605628354386L915.8306819705539,332.0628723864503L918.2347357051741,334.9583768044792L920.6387894397941,300.74899293048117L923.0428431744142,316.61237806274704L925.4468969090343,310.39116663500863L927.8509506436544,330.4268315559114L930.2550043782745,342.7164242782422L932.6590581128946,349.15462071569783L935.0631118475147,339.3203976120066L937.4671655821348,345.2585832970523L939.871219316755,351.6872265787592L942.2752730513749,342.4453058459824L944.679326785995,345.5336278426676L947.0833805206152,337.17283485993573L949.4874342552354,343.99817803088825L951.8914879898555,340.7504643493486L954.2955417244756,348.16049353195825L956.6995954590957,351.7872884022896L959.1036491937158,341.50544843295256L961.5077029283359,342.3774106409655L963.9117566629559,349.6131615149305L966.315810397576,352.5356175149037L968.7198641321961,351.33810004429205L971.1239178668162,343.44848678602773L973.5279716014363,337.75349699330593L975.9320253360564,336.6696630113451L978.3360790706765,343.8984453069855L980.7401328052968,342.4104963349878L983.1441865399169,316.46158611312876L985.5482402745369,334.9881633756985L987.952294009157,342.8720795826685L990.3563477437771,349.5763142498411L992.7604014783972,351.4196107771988L995.1644552130173,334.35257093644253L997.5685089476374,340.47142825355786L999.9725626822575,341.3638915083078L1002.3766164168776,336.2516629292015L1004.7806701514977,330.18971299166253L1007.1847238861178,340.86949808864745L1009.5887776207379,348.27469227227255L1011.992831355358,336.9452536864512L1014.3968850899781,340.96322043822414" style="fill: none;" fill="none"></path></g></g></g></g><g opacity="0.2"><g><g><g><path stroke="rgb(255, 112, 67)" stroke-width="2px" d="M57.58349871117717,-37.8514056435517L59.98755244579728,156.59445696637582L62.39160618041738,321.33156783126935L64.79565991503749,125.85078359951221L67.19971364965758,168.9277942087826L69.60376738427769,226.88259110967138L72.0078211188978,309.08537717115496L74.41187485351789,351.77705289245796L76.815928588138,254.56526010415308L79.2199823227581,134.95374753043913L81.6240360573782,331.66363879173406L84.02808979199831,225.48163674986094L86.4321435266184,307.9188444317698L88.83619726123851,346.2706374472661L91.24025099585862,279.44131591235043L93.64430473047871,345.56627786148124L96.04835846509881,328.4725209174818L98.45241219971892,342.00132174141044L100.85646593433903,346.80393106748363L103.26051966895913,295.2945627856437L105.66457340357923,321.32258213715795L108.06862713819933,332.341745337341L110.47268087281944,291.2275106590592L112.87673460743953,357.0121262174952L115.28078834205964,294.82387194283365L117.68484207667976,299.79461711682916L120.08889581129985,353.5666944796942L122.49294954591996,263.8225842604628L124.89700328054005,288.28857010423945L127.30105701516015,303.42427593195305L129.70511074978026,327.9421004403995L132.10916448440037,346.79231233709953L134.51321821902047,352.9107316877483L136.91727195364055,352.0979109486074L139.32132568826069,340.9783606970235L141.72537942288076,336.6493133220917L144.12943315750087,280.04078542565924L146.533486892121,344.64299779153487L148.93754062674108,290.33882225575536L151.3415943613612,357.942098248834L153.7456480959813,327.94738686098407L156.1497018306014,309.27949746513764L158.55375556522148,304.4615375782908L160.95780929984159,350.3757302331379L163.3618630344617,287.6463859870388L165.7659167690818,347.5497436787299L168.1699705037019,354.66731585049774L170.574024238322,313.20020242417684L172.97807797294212,306.4580220710206L175.3821317075622,357.279280711182L177.78618544218233,349.48794426537273L180.1902391768024,326.34842573170346L182.5942929114225,327.90089973062425L184.99834664604265,301.04430415321536L187.40240038066273,344.86021514481524L189.80645411528283,248.8242887414773L192.21050784990294,290.96364542590925L194.61456158452305,346.95692390463216L197.01861531914312,348.4512706773679L199.42266905376326,354.8240659530848L201.82672278838334,283.5431957428324L204.23077652300344,298.2698449384774L206.63483025762355,311.2451261912222L209.03888399224365,353.58180289880136L211.44293772686376,355.55470401409656L213.84699146148384,346.7989885287616L216.25104519610397,281.9847556988177L218.65509893072405,139.53497018999954L221.05915266534416,349.34210783361135L223.4632063999643,319.6842109255518L225.86726013458437,293.62391551425605L228.27131386920448,356.0235726899961L230.67536760382458,325.77018736249755L233.0794213384447,357.47481214168334L235.48347507306477,307.30945321454635L237.8875288076849,350.6408804449634L240.29158254230498,322.3060517070625L242.6956362769251,354.4811109437644L245.09969001154522,361.2786076958406L247.5037437461653,331.0342942872696L249.9077974807854,314.4462227438989L252.31185121540548,341.27536271201313L254.71590495002562,315.13113367381493L257.1199586846457,361.59010819746226L259.52401241926583,343.68533563974955L261.92806615388594,323.41408790335106L264.33211988850604,355.8694017013778L266.7361736231261,358.14353264550766L269.1402273577462,352.3101135276265L271.54428109236636,351.0921928326399L273.94833482698647,345.62402763153915L276.3523885616065,323.0852106849523L278.7564422962266,344.6179554596895L281.16049603084673,324.66416155248214L283.56454976546684,346.2790045609858L285.96860350008694,302.608071313893L288.37265723470705,346.2604064531556L290.77671096932715,333.1626401784371L293.18076470394726,353.6874153266691L295.58481843856737,342.86954205208144L297.9888721731875,358.75186983430046L300.3929259078075,325.8511806977354L302.7969796424277,345.916207161238L305.2010333770478,350.8778984751908L307.6050871116679,328.6887717389001L310.00914084628795,357.42768760899554L312.41319458090805,355.20246724669437L314.81724831552816,339.5587064891869L317.2213020501483,337.8660650222263L319.62535578476843,356.3854269581269L322.0294095193885,348.09969725604367L324.4334632540086,322.79310644299846L326.8375169886287,322.14006054247204L329.2415707232488,352.99401010778837L331.64562445786885,348.2225536297328L334.049678192489,328.82682504566685L336.4537319271091,319.6068965158016L338.8577856617292,359.10992817571827L341.26183939634933,357.37573245180124L343.6658931309694,355.9054279047841L346.0699468655895,344.6530253052534L348.47400060020965,338.78299853874574L350.87805433482976,353.7299183109533L353.2821080694498,302.9958154097019L355.6861618040699,326.844588249986L358.09021553869,352.48757691671887L360.4942692733101,291.26975318844154L362.8983230079303,360.0974037658406L365.30237674255034,358.7937567816978L367.70643047717044,332.2314671040844L370.11048421179055,327.24213196147434L372.51453794641066,355.5228847677952L374.91859168103076,362.679830395418L377.3226454156508,352.9372370436122L379.726699150271,329.1054548160614L382.1307528848911,317.3281155360132L384.5348066195112,341.1305477518197L386.93886035413124,358.63145624271755L389.34291408875134,346.37441855160574L391.74696782337145,316.84366534909503L394.1510215579916,332.3626712608559L396.5550752926117,345.9093905681055L398.95912902723177,326.5028999061058L401.3631827618519,359.23729265749245L403.767236496472,327.1986034360144L406.1712902310921,356.11236848086577L408.57534396571214,336.1717916425217L410.9793977003323,330.2510901191866L413.3834514349524,346.23405167278173L415.7875051695725,353.47644990843344L418.1915589041926,341.1597329444465L420.59561263881267,343.0302345872638L422.9996663734328,316.3397095317983L425.40372010805294,321.58500265952455L427.80777384267304,344.29723170059873L430.2118275772931,337.5945245086896L432.6158813119132,350.0305226958779L435.0199350465333,341.13848959152006L437.4239887811534,355.72765726029985L439.8280425157736,342.1118787428042L442.2320962503936,354.3198537504942L444.63614998501373,358.43142331724385L447.04020371963384,358.54528382280193L449.44425745425394,351.7627044726149L451.84831118887405,350.69478341821025L454.25236492349416,353.6956308474968L456.65641865811426,344.8256519654275L459.06047239273437,334.90670521006786L461.4645261273545,357.64449087967813L463.8685798619745,357.6687009767201L466.27263359659463,330.84247942612836L468.67668733121474,346.86633850371476L471.0807410658349,315.0840930767888L473.484794800455,356.6996825842565L475.88884853507506,322.57219999021083L478.29290226969516,328.6186890222821L480.69695600431527,357.422451041107L483.1010097389354,359.7048636371919L485.5050634735555,348.78422564282266L487.9091172081756,348.3676270100241L490.3131709427957,347.2959771774357L492.7172246774158,359.0745276745174L495.1212784120359,359.4972800630715L497.52533214665596,331.2983060263017L499.9293858812761,344.9276668599644L502.3334396158962,355.16430348176993L504.73749335051633,354.9019653689621L507.1415470851364,360.07188630727995L509.5456008197565,357.4498038928037L511.9496545543766,335.45161756066943L514.3537082889967,339.3695755344164L516.7577620236168,356.63790644594155L519.1618157582369,353.29596076591184L521.565869492857,328.85287460545266L523.9699232274771,345.44379080470367L526.3739769620972,329.40864060016435L528.7780306967173,319.6137822922674L531.1820844313374,351.6350683445174L533.5861381659575,306.7759194874663L535.9901919005777,231.6741880769287L538.3942456351978,356.7552306964728L540.7982993698179,357.8331767210911L543.202353104438,334.6117807298807L545.606406839058,349.8562783665873L548.0104605736781,359.0413685098345L550.4145143082982,358.54313964817106L552.8185680429183,320.33006175941654L555.2226217775385,358.91694889803375L557.6266755121586,354.270775297342L560.0307292467787,342.3415063651936L562.4347829813988,361.66601630335316L564.8388367160189,335.0146963237182L567.242890450639,329.3013575982781L569.646944185259,342.72462535169194L572.0509979198791,340.2037515406993L574.4550516544992,352.5479688796671L576.8591053891193,277.44694761569764L579.2631591237395,357.5300000936058L581.6672128583596,339.62871188325585L584.0712665929798,335.0001128840225L586.4753203275999,337.0718484953274L588.87937406222,356.37094525862716L591.28342779684,353.75442650676956L593.6874815314601,331.0185896706138L596.0915352660802,354.50000715036896L598.4955890007003,353.77034579523894L600.8996427353204,337.471093302893L603.3036964699405,331.3322119640232L605.7077502045606,343.3449739880254L608.1118039391807,356.2853023964318L610.5158576738008,354.4275111563017L612.9199114084208,357.9880690476991L615.323965143041,338.6406782481584L617.7280188776612,322.51449702064315L620.1320726122813,350.9270288158429L622.5361263469014,328.31235743131856L624.9401800815215,361.16275435419317L627.3442338161416,353.947152960067L629.7482875507617,348.55800021258784L632.1523412853818,352.36157066656136L634.5563950200018,334.69996302736837L636.9604487546219,357.1903623233762L639.364502489242,355.44666406515205L641.7685562238621,354.606274785099L644.1726099584822,340.9957053656389L646.5766636931024,338.88747351122214L648.9807174277225,343.0616539945949L651.3847711623426,360.6961028515151L653.7888248969628,313.33601744663144L656.1928786315827,329.68881275193036L658.5969323662029,278.1380891152172L661.000986100823,354.4201349920911L663.4050398354431,345.27343295090054L665.8090935700632,350.8217093997397L668.2131473046833,327.5613275828211L670.6172010393034,349.51415660947214L673.0212547739235,352.7028612062751L675.4253085085437,360.24878859919124L677.8293622431637,336.6104607760403L680.2334159777838,358.53955025405594L682.6374697124039,319.0942317377266L685.041523447024,360.88410169225455L687.4455771816441,339.5364172470455L689.8496309162642,332.0002869263039L692.2536846508843,331.5894010055111L694.6577383855044,355.7481619794033L697.0617921201246,319.59074424228345L699.4658458547445,346.62196872692385L701.8698995893646,362.2689083568556L704.2739533239848,356.3557208556966L706.678007058605,339.8530978507469L709.0820607932251,352.74188365845384L711.4861145278452,356.7752180666795L713.8901682624653,347.48680719347954L716.2942219970854,287.6173371262747L718.6982757317055,349.5785021964372L721.1023294663256,360.3575137683559L723.5063832009456,311.0870056481949L725.9104369355657,361.2383389262607L728.3144906701858,335.19847167457084L730.7185444048059,359.2541113292945L733.122598139426,350.0961023914206L735.5266518740463,328.2192651519715L737.9307056086664,354.46606763838275L740.3347593432865,340.2931099548528L742.7388130779066,351.8287440338435L745.1428668125266,337.240334329524L747.5469205471467,357.751655354236L749.9509742817668,325.0651603610269L752.3550280163869,348.60451481280063L754.759081751007,318.75340615070866L757.1631354856271,331.6660215471245L759.5671892202472,332.98641598493214L761.9712429548673,336.9817494125469L764.3752966894874,356.0695409453563L766.7793504241075,355.9034195533149L769.1834041587276,340.95008302694515L771.5874578933477,357.75659229724727L773.9915116279678,295.48528902668755L776.395565362588,341.2784963100502L778.799619097208,322.3982568119004L781.2036728318282,331.976304727301L783.6077265664483,314.13013630294216L786.0117803010684,341.3361484095199L788.4158340356884,333.11806576376216L790.8198877703085,335.41295628618644L793.2239415049286,328.63024263894073L795.6279952395487,353.5047285959138L798.0320489741689,342.6313987752862L800.436102708789,356.1463191842735L802.8401564434091,357.757338052884L805.2442101780292,359.9727786388439L807.6482639126493,355.00329351717596L810.0523176472693,355.7464547789142L812.4563713818894,325.98459058195635L814.8604251165095,350.3182002219034L817.2644788511296,359.87704721881244L819.6685325857497,354.52536996383174L822.0725863203699,343.68931164660955L824.47664005499,344.4099761162066L826.8806937896102,329.27180003653393L829.2847475242303,349.3217201157334L831.6888012588503,346.92060468946136L834.0928549934704,356.59816774278295L836.4969087280905,362.9342302294323L838.9009624627106,354.9536280230928L841.3050161973307,347.545739184615L843.7090699319508,333.09631574465965L846.1131236665709,356.9085587675672L848.517177401191,353.23865865271637L850.9212311358111,330.98084609269887L853.3252848704311,358.1279623259107L855.7293386050512,330.33760184265583L858.1333923396714,318.0906216786204L860.5374460742916,344.73897338803675L862.9414998089117,306.64315260128404L865.3455535435318,360.35207880708515L867.7496072781519,347.1700940329154L870.153661012772,352.23595001174675L872.5577147473921,354.1365484393471L874.9617684820122,353.11042327486433L877.3658222166322,336.0301509764437L879.7698759512523,351.701795669471L882.1739296858724,346.21111332818987L884.5779834204925,354.9982126117873L886.9820371551126,345.10099552749097L889.3860908897328,322.43682855501083L891.7901446243529,336.52394498296314L894.194198358973,353.3217173139331L896.5982520935931,356.37705475739745L899.0023058282131,335.75208281193113L901.4063595628332,359.4354744200998L903.8104132974534,349.6574759887843L906.2144670320735,346.87660815909976L908.6185207666936,355.86629455579174L911.0225745013137,315.1491009924299L913.4266282359338,358.3985073116295L915.8306819705539,311.83809654081L918.2347357051741,339.3016334315225L920.6387894397941,249.43491711948417L923.0428431744142,340.4074557611459L925.4468969090343,301.059349493401L927.8509506436544,360.4803289372656L930.2550043782745,361.15081336173824L932.6590581128946,358.8119153718813L935.0631118475147,324.5690629564698L937.4671655821348,354.16586182462083L939.871219316755,361.3301915013194L942.2752730513749,328.58242474681714L944.679326785995,350.1661108376954L947.0833805206152,324.631645385838L949.4874342552354,354.23619278731707L951.8914879898555,335.878893827039L954.2955417244756,359.2755373058727L956.6995954590957,357.22748070778664L959.1036491937158,326.082688478947L961.5077029283359,343.6853539529849L963.9117566629559,360.46678782587793L966.315810397576,356.91930151486366L968.7198641321961,349.5418238383745L971.1239178668162,331.6140668986312L973.5279716014363,329.2110123042233L975.9320253360564,335.04391203840385L978.3360790706765,354.7416187504461L980.7401328052968,340.17857287699127L983.1441865399169,277.5382207803401L985.5482402745369,362.77802926955314L987.952294009157,354.6979538931235L990.3563477437771,359.6326662505999L992.7604014783972,354.1845555682353L995.1644552130173,308.7520111753082L997.5685089476374,349.6497142292308L999.9725626822575,342.70258639043277L1002.3766164168776,328.583320060542L1004.7806701514977,321.09678808535415L1007.1847238861178,356.88917573412476L1009.5887776207379,359.38248354771014L1011.992831355358,319.95109580771924L1014.3968850899781,346.9901705658836" style="fill: none;" fill="none"></path></g></g></g></g></g></g><g transform="translate(61, 378)" clip-path="url(#clip_1)"><clipPath id="clip_1"><rect width="1050" height="22"></rect></clipPath><g><g><line x1="52.775391241936966" y1="0" x2="52.775391241936966" y2="5" style="visibility: inherit;" fill="rgb(0, 0, 0)" stroke="rgb(204, 204, 204)" stroke-width="1px"></line><line x1="148.93754062674108" y1="0" x2="148.93754062674108" y2="5" style="visibility: inherit;" fill="rgb(0, 0, 0)" stroke="rgb(204, 204, 204)" stroke-width="1px"></line><line x1="245.09969001154522" y1="0" x2="245.09969001154522" y2="5" style="visibility: inherit;" fill="rgb(0, 0, 0)" stroke="rgb(204, 204, 204)" stroke-width="1px"></line><line x1="341.26183939634933" y1="0" x2="341.26183939634933" y2="5" style="visibility: inherit;" fill="rgb(0, 0, 0)" stroke="rgb(204, 204, 204)" stroke-width="1px"></line><line x1="437.4239887811534" y1="0" x2="437.4239887811534" y2="5" style="visibility: inherit;" fill="rgb(0, 0, 0)" stroke="rgb(204, 204, 204)" stroke-width="1px"></line><line x1="533.5861381659575" y1="0" x2="533.5861381659575" y2="5" style="visibility: inherit;" fill="rgb(0, 0, 0)" stroke="rgb(204, 204, 204)" stroke-width="1px"></line><line x1="629.7482875507617" y1="0" x2="629.7482875507617" y2="5" style="visibility: inherit;" fill="rgb(0, 0, 0)" stroke="rgb(204, 204, 204)" stroke-width="1px"></line><line x1="725.9104369355657" y1="0" x2="725.9104369355657" y2="5" style="visibility: inherit;" fill="rgb(0, 0, 0)" stroke="rgb(204, 204, 204)" stroke-width="1px"></line><line x1="822.0725863203699" y1="0" x2="822.0725863203699" y2="5" style="visibility: inherit;" fill="rgb(0, 0, 0)" stroke="rgb(204, 204, 204)" stroke-width="1px"></line><line x1="918.2347357051741" y1="0" x2="918.2347357051741" y2="5" style="visibility: inherit;" fill="rgb(0, 0, 0)" stroke="rgb(204, 204, 204)" stroke-width="1px"></line><line x1="1014.3968850899781" y1="0" x2="1014.3968850899781" y2="5" style="visibility: inherit;" fill="rgb(0, 0, 0)" stroke="rgb(204, 204, 204)" stroke-width="1px"></line></g><g transform="translate(0, 8)"><text x="52.775391241936966" y="0" dx="0em" dy="0.95em" style="text-anchor: middle; visibility: inherit; font-family: Roboto, sans-serif; font-size: 12px; font-weight: 200;" fill="rgb(50, 49, 63)" stroke="none" stroke-width="1px">0</text><text x="148.93754062674108" y="0" dx="0em" dy="0.95em" style="text-anchor: middle; visibility: inherit; font-family: Roboto, sans-serif; font-size: 12px; font-weight: 200;" fill="rgb(50, 49, 63)" stroke="none" stroke-width="1px">20k</text><text x="245.09969001154522" y="0" dx="0em" dy="0.95em" style="text-anchor: middle; visibility: inherit; font-family: Roboto, sans-serif; font-size: 12px; font-weight: 200;" fill="rgb(50, 49, 63)" stroke="none" stroke-width="1px">40k</text><text x="341.26183939634933" y="0" dx="0em" dy="0.95em" style="text-anchor: middle; visibility: inherit; font-family: Roboto, sans-serif; font-size: 12px; font-weight: 200;" fill="rgb(50, 49, 63)" stroke="none" stroke-width="1px">60k</text><text x="437.4239887811534" y="0" dx="0em" dy="0.95em" style="text-anchor: middle; visibility: inherit; font-family: Roboto, sans-serif; font-size: 12px; font-weight: 200;" fill="rgb(50, 49, 63)" stroke="none" stroke-width="1px">80k</text><text x="533.5861381659575" y="0" dx="0em" dy="0.95em" style="text-anchor: middle; visibility: inherit; font-family: Roboto, sans-serif; font-size: 12px; font-weight: 200;" fill="rgb(50, 49, 63)" stroke="none" stroke-width="1px">100k</text><text x="629.7482875507617" y="0" dx="0em" dy="0.95em" style="text-anchor: middle; visibility: inherit; font-family: Roboto, sans-serif; font-size: 12px; font-weight: 200;" fill="rgb(50, 49, 63)" stroke="none" stroke-width="1px">120k</text><text x="725.9104369355657" y="0" dx="0em" dy="0.95em" style="text-anchor: middle; visibility: inherit; font-family: Roboto, sans-serif; font-size: 12px; font-weight: 200;" fill="rgb(50, 49, 63)" stroke="none" stroke-width="1px">140k</text><text x="822.0725863203699" y="0" dx="0em" dy="0.95em" style="text-anchor: middle; visibility: inherit; font-family: Roboto, sans-serif; font-size: 12px; font-weight: 200;" fill="rgb(50, 49, 63)" stroke="none" stroke-width="1px">160k</text><text x="918.2347357051741" y="0" dx="0em" dy="0.95em" style="text-anchor: middle; visibility: inherit; font-family: Roboto, sans-serif; font-size: 12px; font-weight: 200;" fill="rgb(50, 49, 63)" stroke="none" stroke-width="1px">180k</text><text x="1014.3968850899781" y="0" dx="0em" dy="0.95em" style="text-anchor: middle; visibility: inherit; font-family: Roboto, sans-serif; font-size: 12px; font-weight: 200;" fill="rgb(50, 49, 63)" stroke="none" stroke-width="1px">200k</text></g><line x1="0" y1="0" x2="1050.646875" y2="0" fill="rgb(0, 0, 0)" stroke="rgb(204, 204, 204)" stroke-width="1px"></line></g></g></g></g></svg>