<svg viewBox="0 0 1112.5999755859375 400" xmlns="http://www.w3.org/2000/svg"><g><g><g><g><g><line x1="61.953125" y1="368.36238218673" x2="56.953125" y2="368.36238218673" style="visibility: inherit;" fill="rgb(0, 0, 0)" stroke="rgb(204, 204, 204)" stroke-width="1px"></line><line x1="61.953125" y1="324.97655222721573" x2="56.953125" y2="324.97655222721573" style="visibility: inherit;" fill="rgb(0, 0, 0)" stroke="rgb(204, 204, 204)" stroke-width="1px"></line><line x1="61.953125" y1="281.5907222677015" x2="56.953125" y2="281.5907222677015" style="visibility: inherit;" fill="rgb(0, 0, 0)" stroke="rgb(204, 204, 204)" stroke-width="1px"></line><line x1="61.953125" y1="238.20489230818725" x2="56.953125" y2="238.20489230818725" style="visibility: inherit;" fill="rgb(0, 0, 0)" stroke="rgb(204, 204, 204)" stroke-width="1px"></line><line x1="61.953125" y1="194.819062348673" x2="56.953125" y2="194.819062348673" style="visibility: inherit;" fill="rgb(0, 0, 0)" stroke="rgb(204, 204, 204)" stroke-width="1px"></line><line x1="61.953125" y1="151.4332323891588" x2="56.953125" y2="151.4332323891588" style="visibility: inherit;" fill="rgb(0, 0, 0)" stroke="rgb(204, 204, 204)" stroke-width="1px"></line><line x1="61.953125" y1="108.04740242964454" x2="56.953125" y2="108.04740242964454" style="visibility: inherit;" fill="rgb(0, 0, 0)" stroke="rgb(204, 204, 204)" stroke-width="1px"></line><line x1="61.953125" y1="64.6615724701303" x2="56.953125" y2="64.6615724701303" style="visibility: inherit;" fill="rgb(0, 0, 0)" stroke="rgb(204, 204, 204)" stroke-width="1px"></line><line x1="61.953125" y1="21.275742510616123" x2="56.953125" y2="21.275742510616123" style="visibility: inherit;" fill="rgb(0, 0, 0)" stroke="rgb(204, 204, 204)" stroke-width="1px"></line></g><g transform="translate(51.953125, 0)"><text x="0" y="368.36238218673" dx="0em" dy="0.3em" style="text-anchor: end; visibility: inherit; font-family: Roboto, sans-serif; font-size: 12px; font-weight: 200;" fill="rgb(50, 49, 63)" stroke="none" stroke-width="1px">0</text><text x="0" y="324.97655222721573" dx="0em" dy="0.3em" style="text-anchor: end; visibility: inherit; font-family: Roboto, sans-serif; font-size: 12px; font-weight: 200;" fill="rgb(50, 49, 63)" stroke="none" stroke-width="1px">2e-3</text><text x="0" y="281.5907222677015" dx="0em" dy="0.3em" style="text-anchor: end; visibility: inherit; font-family: Roboto, sans-serif; font-size: 12px; font-weight: 200;" fill="rgb(50, 49, 63)" stroke="none" stroke-width="1px">4e-3</text><text x="0" y="238.20489230818725" dx="0em" dy="0.3em" style="text-anchor: end; visibility: inherit; font-family: Roboto, sans-serif; font-size: 12px; font-weight: 200;" fill="rgb(50, 49, 63)" stroke="none" stroke-width="1px">6e-3</text><text x="0" y="194.819062348673" dx="0em" dy="0.3em" style="text-anchor: end; visibility: inherit; font-family: Roboto, sans-serif; font-size: 12px; font-weight: 200;" fill="rgb(50, 49, 63)" stroke="none" stroke-width="1px">8e-3</text><text x="0" y="151.4332323891588" dx="0em" dy="0.3em" style="text-anchor: end; visibility: inherit; font-family: Roboto, sans-serif; font-size: 12px; font-weight: 200;" fill="rgb(50, 49, 63)" stroke="none" stroke-width="1px">0.01</text><text x="0" y="108.04740242964454" dx="0em" dy="0.3em" style="text-anchor: end; visibility: inherit; font-family: Roboto, sans-serif; font-size: 12px; font-weight: 200;" fill="rgb(50, 49, 63)" stroke="none" stroke-width="1px">0.012</text><text x="0" y="64.6615724701303" dx="0em" dy="0.3em" style="text-anchor: end; visibility: inherit; font-family: Roboto, sans-serif; font-size: 12px; font-weight: 200;" fill="rgb(50, 49, 63)" stroke="none" stroke-width="1px">0.014</text><text x="0" y="21.275742510616123" dx="0em" dy="0.3em" style="text-anchor: end; visibility: inherit; font-family: Roboto, sans-serif; font-size: 12px; font-weight: 200;" fill="rgb(50, 49, 63)" stroke="none" stroke-width="1px">0.016</text></g><line x1="61.953125" y1="0" x2="61.953125" y2="378" fill="rgb(0, 0, 0)" stroke="rgb(204, 204, 204)" stroke-width="1px"></line></g></g><g transform="translate(61, 0)" clip-path="url(#clip_0)"><clipPath id="clip_0"><rect width="1050" height="378"></rect></clipPath><g><g><g><line x1="62.171647469680224" y1="0" x2="62.171647469680224" y2="378" fill="rgb(0, 0, 0)" stroke="rgb(60, 60, 60)" stroke-width="1px" opacity="0.25"></line><line x1="158.0395876388245" y1="0" x2="158.0395876388245" y2="378" fill="rgb(0, 0, 0)" stroke="rgb(60, 60, 60)" stroke-width="1px" opacity="0.25"></line><line x1="253.90752780796876" y1="0" x2="253.90752780796876" y2="378" fill="rgb(0, 0, 0)" stroke="rgb(60, 60, 60)" stroke-width="1px" opacity="0.25"></line><line x1="349.775467977113" y1="0" x2="349.775467977113" y2="378" fill="rgb(0, 0, 0)" stroke="rgb(60, 60, 60)" stroke-width="1px" opacity="0.25"></line><line x1="445.64340814625734" y1="0" x2="445.64340814625734" y2="378" fill="rgb(0, 0, 0)" stroke="rgb(60, 60, 60)" stroke-width="1px" opacity="0.25"></line><line x1="541.5113483154016" y1="0" x2="541.5113483154016" y2="378" fill="rgb(0, 0, 0)" stroke="rgb(60, 60, 60)" stroke-width="1px" opacity="0.25"></line><line x1="637.3792884845458" y1="0" x2="637.3792884845458" y2="378" fill="rgb(0, 0, 0)" stroke="rgb(60, 60, 60)" stroke-width="1px" opacity="0.25"></line><line x1="733.2472286536901" y1="0" x2="733.2472286536901" y2="378" fill="rgb(0, 0, 0)" stroke="rgb(60, 60, 60)" stroke-width="1px" opacity="0.25"></line><line x1="829.1151688228344" y1="0" x2="829.1151688228344" y2="378" fill="rgb(0, 0, 0)" stroke="rgb(60, 60, 60)" stroke-width="1px" opacity="0.25"></line><line x1="924.9831089919787" y1="0" x2="924.9831089919787" y2="378" fill="rgb(0, 0, 0)" stroke="rgb(60, 60, 60)" stroke-width="1px" opacity="0.25"></line><line x1="1020.8510491611229" y1="0" x2="1020.8510491611229" y2="378" fill="rgb(0, 0, 0)" stroke="rgb(60, 60, 60)" stroke-width="1px" opacity="0.25"></line></g><g><line x1="0" y1="368.36238218673" x2="1050.646875" y2="368.36238218673" fill="rgb(0, 0, 0)" stroke="rgb(60, 60, 60)" stroke-width="1px" opacity="0.25"></line><line x1="0" y1="324.97655222721573" x2="1050.646875" y2="324.97655222721573" fill="rgb(0, 0, 0)" stroke="rgb(60, 60, 60)" stroke-width="1px" opacity="0.25"></line><line x1="0" y1="281.5907222677015" x2="1050.646875" y2="281.5907222677015" fill="rgb(0, 0, 0)" stroke="rgb(60, 60, 60)" stroke-width="1px" opacity="0.25"></line><line x1="0" y1="238.20489230818725" x2="1050.646875" y2="238.20489230818725" fill="rgb(0, 0, 0)" stroke="rgb(60, 60, 60)" stroke-width="1px" opacity="0.25"></line><line x1="0" y1="194.819062348673" x2="1050.646875" y2="194.819062348673" fill="rgb(0, 0, 0)" stroke="rgb(60, 60, 60)" stroke-width="1px" opacity="0.25"></line><line x1="0" y1="151.4332323891588" x2="1050.646875" y2="151.4332323891588" fill="rgb(0, 0, 0)" stroke="rgb(60, 60, 60)" stroke-width="1px" opacity="0.25"></line><line x1="0" y1="108.04740242964454" x2="1050.646875" y2="108.04740242964454" fill="rgb(0, 0, 0)" stroke="rgb(60, 60, 60)" stroke-width="1px" opacity="0.25"></line><line x1="0" y1="64.6615724701303" x2="1050.646875" y2="64.6615724701303" fill="rgb(0, 0, 0)" stroke="rgb(60, 60, 60)" stroke-width="1px" opacity="0.25"></line><line x1="0" y1="21.275742510616123" x2="1050.646875" y2="21.275742510616123" fill="rgb(0, 0, 0)" stroke="rgb(60, 60, 60)" stroke-width="1px" opacity="0.25"></line></g></g></g><g><g><line x1="0" y1="368.36238218673" x2="1050.646875" y2="368.36238218673" fill="rgb(0, 0, 0)" stroke="rgb(153, 153, 153)" stroke-width="1.5px"></line></g></g><g><g><line x1="62.171647469680224" y1="0" x2="62.171647469680224" y2="378" fill="rgb(0, 0, 0)" stroke="rgb(153, 153, 153)" stroke-width="1.5px"></line></g></g><g><g><g><g><g><path stroke="rgb(255, 112, 67)" stroke-width="2px" d="M69.36174298236604,-149.5517477816715L71.75844148659465,47.71961970953707L74.15513999082326,54.09865909960831L76.55183849505185,61.42680588338085L78.94853699928046,111.22561183050891L81.34523550350907,188.1029600532686L83.74193400773768,253.88365071186956L86.13863251196628,239.13860572580828L88.53533101619489,159.65725561608457L90.9320295204235,222.59895627221564L93.32872802465211,204.05131201972725L95.72542652888072,238.09178828570145L98.12212503310933,280.2397734767858L100.51882353733794,268.48051285112115L102.91552204156655,296.31051483151L105.31222054579514,306.14548132906145L107.70891905002375,316.4688699931344L110.10561755425236,324.8239398529671L112.50231605848097,301.21672174827836L114.89901456270957,303.6003070340007L117.29571306693818,307.39037151678303L119.69241157116679,282.0252328667624L122.0891100753954,310.9628343199741L124.48580857962399,290.5479193288489L126.8825070838526,283.45180405312675L129.2792055880812,311.5167804359751L131.67590409230982,271.1325390758003L134.07260259653842,264.7976631160468L136.46930110076704,269.466165755469L138.86599960499564,283.7048838052591L141.26269810922426,304.96887717130403L143.65939661345286,321.9819980529231L146.05609511768148,333.55591422369116L148.45279362191005,332.51481471858295L150.84949212613867,325.5346663787016L153.24619063036727,293.9951155574511L155.6428891345959,312.0311864028601L158.0395876388245,291.5546639580893L160.4362861430531,317.73609153532414L162.8329846472817,311.2542741049805L165.22968315151033,299.7132488785354L167.6263816557389,290.0045776760787L170.02308015996752,312.48721215563086L172.41977866419612,286.97757134059447L174.81647716842474,308.4289600808452L177.21317567265334,325.5288211686436L179.60987417688196,309.5452631229249L182.00657268111055,293.5829307031671L184.40327118533918,318.00376339218235L186.79996968956775,325.9442709654397L189.19666819379637,316.10208672985465L191.59336669802497,312.9131781303336L193.9900652022536,291.37923948303944L196.3867637064822,306.86569555827975L198.7834622107108,251.6952364855609L201.18016071493943,257.30097200787327L203.57685921916803,287.52521348151333L205.97355772339662,306.88876050296335L208.37025622762522,324.8880711324948L210.76695473185384,294.82548226800026L213.16365323608244,282.9607562758418L215.56035174031106,279.73509065104355L217.95705024453966,305.74489795643944L220.35374874876828,323.6845451165801L222.75044725299688,329.7443690400418L225.1471457572255,299.5062323448251L227.54384426145407,189.63359669819806L229.9405427656827,250.06969498839064L232.3372412699113,261.11995621624493L234.7339397741399,262.32380234611367L237.1306382783685,298.54118287860945L239.52733678259713,300.9348051204638L241.92403528682573,322.98402405701705L244.32073379105435,299.7327313241761L246.71743229528292,317.17869051767616L249.11413079951154,310.72582513354234L251.51082930374014,325.3253585873861L253.90752780796876,339.99970454156517L256.30422631219733,329.29137918624554L258.700924816426,306.9034832072592L261.0976233206546,313.3463729583428L263.4943218248832,307.2642027007461L265.89102032911177,329.55216415947825L268.2877188333404,330.55285996735483L270.684417337569,317.8511291852194L273.0811158417976,332.246902848177L275.4778143460262,341.90864257011157L277.87451285025486,343.54367780266864L280.27121135448346,342.18047247399176L282.66790985871205,339.74263732995234L285.06460836294065,318.7498475995837L287.4613068671693,324.5663278283063L289.8580053713979,313.52009155783963L292.2547038756265,320.5287583755781L294.651402379855,298.5430335502346L297.0481008840837,312.9245096532393L299.4447993883123,315.7662401440248L301.8414978925409,329.9309674772828L304.23819639676947,328.43312948213924L306.6348949009981,340.71934645586765L309.0315934052267,325.19893230837727L311.4282919094553,329.60786461350114L313.8249904136839,333.8540288602315L316.22168891791256,322.62029086463696L318.61838742214115,335.3413471711668L321.01508592636975,342.84277140777084L323.41178443059835,336.268860019041L325.808482934827,327.84182176635846L328.2051814390556,337.75823193702024L330.6018799432842,338.96358826563653L332.9985784475128,322.1057015630247L335.3952769517414,309.07332248598294L337.79197545597,323.9854297658933L340.18867396019857,331.1130482653402L342.5853724644272,322.7788091072159L344.9820709686558,313.0594413535395L347.3787694728844,330.87285078048114L349.775467977113,340.16920832003774L352.17216648134166,344.5095884370456L354.56886498557026,341.040175297027L356.96556348979885,332.6620146792141L359.36226199402745,338.21376122310323L361.7589604982561,318.61238185376834L364.1556590024847,314.0328718946407L366.5523575067133,328.48289236621264L368.9490560109419,285.2031183443616L371.3457545151705,315.19561421703236L373.7424530193991,331.9599612560696L376.1391515236277,325.00915210025096L378.53585002785627,315.33608525139795L380.9325485320849,329.4659659936454L383.3292470363135,343.30371689157084L385.7259455405421,345.301221153667L388.1226440447707,330.1574157713629L390.51934254899936,316.5518745191027L392.91604105322796,319.5454842373417L395.31273955745655,334.69463539927455L397.7094380616852,334.61942551976813L400.1061365659138,321.718995441388L402.5028350701424,317.32032835054906L404.899533574371,321.88269633723723L407.29623207859964,314.32844209784815L409.69293058282824,331.8962101960588L412.0896290870568,320.70989968694465L414.4863275912854,334.2514387113378L416.883026095514,325.2849171244622L419.2797245997426,321.08469356947865L421.6764231039712,328.4715209495326L424.0731216081998,336.44374572673786L426.46982011242847,332.6249661854392L428.86651861665706,332.24757664500356L431.26321712088566,313.8207355395745L433.65991562511425,306.8169346158464L436.0566141293429,313.80321648649317L438.4533126335715,319.7072156276982L440.8500111378001,327.821816372751L443.2467096420287,326.9183931570799L445.64340814625734,336.7767367443465L448.04010665048594,334.1851083464421L450.4368051547145,340.5229466440037L452.8335036589431,347.20325615129144L455.2302021631717,351.20877656150793L457.6269006674003,348.47331631650684L460.0235991716289,346.4600263207072L462.4202976758575,347.9140457976658L464.81699618008616,340.3475740342217L467.21369468431476,327.81889373542305L469.61039318854336,338.7036663513627L472.007091692772,345.4453083730667L474.4037901970006,330.36107639594803L476.8004887012292,334.2730662907269L479.1971872054578,318.35022487765866L481.59388570968645,332.5167021107415L483.99058421391504,317.29988938435395L486.38728271814364,310.9937751039064L488.7839812223722,327.8682191854381L491.18067972660083,340.0862087757557L493.5773782308294,339.2531868316823L495.974076735058,338.38711466988144L498.3707752392866,338.46693476796264L500.76747374351527,346.2908222747951L503.16417224774386,350.8170311348033L505.56087075197246,332.14572600296924L507.95756925620105,331.3558113099732L510.3542677604297,338.2883992806136L512.7509662646582,342.98840926996843L515.1476647688869,349.6354801811219L517.5443632731154,351.3655852103383L519.9410617773441,334.7887641018755L522.3377602815727,329.74600253971806L524.7344587858013,339.3183400228239L527.1311572900299,342.93105676565943L529.5278557942586,330.7163282086432L531.9245542984872,332.3504576223919L534.3212528027158,320.7118962896364L536.7179513069444,315.45712471575706L539.114649811173,328.0778473549653L541.5113483154016,313.63448249686564L543.9080468196303,252.8809042473208L546.3047453238587,292.6606597972575L548.7014438280873,317.9051807429923L551.098142332316,313.218465705147L553.4948408365445,325.0801492616528L555.8915393407732,337.9397535959049L558.2882378450017,345.7009560020371L560.6849363492304,322.30358109951004L563.081634853459,336.72178869356196L565.4783333576876,341.8982454855448L567.8750318619162,334.5440754175588L570.2717303661449,345.5681942094808L572.6684288703734,331.4305541173498L575.0651273746021,319.3129694638163L577.4618258788306,321.84101984006617L579.8585243830593,323.0404249970805L582.2552228872879,333.6412383250479L584.6519213915165,293.22085402026585L587.0486198957451,318.80285965367653L589.4453183999738,321.7475016927302L591.8420169042023,319.5497302969184L594.238715408431,320.151348006618L596.6354139126595,333.7218488112591L599.0321124168881,339.37932792774956L601.4288109211168,327.06888651877466L603.8255094253453,336.2225472597428L606.222207929574,340.4681163813694L608.6189064338026,332.9950013783987L611.0156049380312,324.87469735815984L613.4123034422598,326.6897657630226L615.8090019464885,337.59004652948715L618.205700450717,343.43628795284866L620.6023989549457,348.464554080982L622.9990974591741,334.0920517970036L625.3957959634027,317.4074664889682L627.7924944676314,328.3174228155573L630.1891929718599,319.62846813860796L632.5858914760886,336.5818192755234L634.9825899803172,340.79577144834593L637.3792884845458,338.33244732408536L639.7759869887744,341.56483221193315L642.172685493003,331.13072821159255L644.5693839972316,340.9268094675427L646.9660825014603,344.3176332122342L649.3627810056888,347.624994065063L651.7594795099175,335.37026771945875L654.1561780141461,329.54300446664763L656.5528765183747,329.1012200903765L658.9495750226033,341.6497927998315L661.3462735268319,309.9033698326505L663.7429720310605,308.0690958730824L666.1396705352892,275.5610284110748L668.5363690395177,305.5493043789802L670.9330675437463,315.391066047527L673.329766047975,324.85959759676274L675.7264645522035,315.78433285604024L678.1231630564322,325.4399336879137L680.5198615606608,333.92003191502994L682.9165600648894,343.9203077833064L685.313258569118,333.17872227017756L687.7099570733466,342.22853707854534L690.1066555775752,322.8807468835685L692.5033540818039,338.2971029282023L694.9000525860324,332.57570118535403L697.2967510902611,325.31362490393326L699.6934495944897,319.40398898369136L702.0901480987181,331.9558548026373L704.4868466029468,323.69590292618153L706.8835451071753,328.6472963652257L709.280243611404,342.5604517508762L711.6769421156326,345.85605300323056L714.0736406198612,336.81221685246976L716.4703391240898,340.4735055512969L718.8670376283185,345.00664067649524L721.263736132547,340.42969336179317L723.6604346367757,288.99223830880607L726.0571331410042,310.1760496754776L728.4538316452329,329.58944497933766L730.8505301494615,306.1019227394073L733.2472286536901,328.33836576661867L735.6439271579187,325.4841910672707L738.0406256621474,338.8841940274503L740.4373241663759,338.0209324507901L742.8340226706046,325.74459773609703L745.2307211748332,334.3575722600242L747.6274196790617,329.56602700212L750.0241181832904,335.94867408131665L752.4208166875189,325.4897481424138L754.8175151917476,337.5796522171321L757.2142136959762,324.79263524293646L759.6109122002048,332.08114592700986L762.0076107044334,314.3551211532066L764.4043092086621,312.63878565035105L766.8010077128906,309.6874613107131L769.1977062171193,312.7358377502243L771.5944047213478,328.2799774161897L773.9911032255765,339.3097427758851L776.3878017298051,334.3545447470339L778.7845002340335,342.6289101948494L781.1811987382622,299.46674321227755L783.5778972424908,307.7638932403956L785.9745957467194,297.3220347707649L788.371294250948,302.32739760892764L790.7679927551766,287.9960148728996L793.1646912594052,300.2636575169046L795.5613897636339,303.33405794599224L797.9580882678624,307.2414592316054L800.3547867720911,306.82723923389074L802.7514852763197,323.1301788940822L805.1481837805483,327.2502851446418L807.5448822847769,337.37551251673295L809.9415807890056,344.54078960527414L812.3382792932341,351.00074271132473L814.7349777974628,349.9060702736133L817.1316763016913,349.6506418270935L819.52837480592,329.4686371048144L821.9250733101486,332.2351041236383L824.3217718143771,342.90517487486704L826.7184703186058,345.78035408029143L829.1151688228344,336.36765694561734L831.511867327063,334.55507219063503L833.9085658312916,326.81558150131866L836.3052643355202,331.2100495792092L838.7019628397488,332.1242412722205L841.0986613439775,339.80864374139276L843.495359848206,349.82328706006354L845.8920583524347,351.21413904038457L848.2887568566633,344.89275816925334L850.6854553608919,332.70742494167524L853.0821538651205,340.7549287890962L855.478852369349,342.49855185983336L857.8755508735776,330.51413136235334L860.2722493778062,340.6133149858753L862.6689478820348,327.6099408127721L865.0656463862634,310.6029650932654L867.4623448904921,316.6320686353425L869.8590433947206,303.5558959379369L872.2557418989493,325.99046563433006L874.6524404031779,330.58779345427456L877.0491389074065,334.6790877427662L879.4458374116351,339.7177222955197L881.8425359158637,342.37780026133595L884.2392344200923,332.6527886361447L886.635932924321,337.12677681128775L889.0326314285495,334.7304331594876L891.4293299327782,341.45470671518115L893.8260284370068,338.82559149510695L896.2227269412354,317.9854207563866L898.619425445464,319.08114311710364L901.0161239496925,329.81704318477114L903.4128224539212,339.41725227074954L905.8095209581498,329.26136734480565L908.2062194623784,340.78739121974377L910.602917966607,340.846197421024L912.9996164708357,341.1232132707106L915.3963149750642,344.54374997562803L917.7930134792929,320.10480323103775L920.1897119835214,334.62072861737767L922.5864104877501,318.2331927254229L924.9831089919787,320.2146084980342L927.3798074962073,277.29144869404064L929.7765060004359,297.0814498219608L932.1732045046646,276.4851137641298L934.569903008893,310.0962311284619L936.9666015131216,330.6394497294374L939.3633000173503,341.4161196939672L941.7599985215788,324.32477153851056L944.1566970258075,333.8934639617127L946.553395530036,345.10072927045155L948.9500940342647,329.42642129141177L951.3467925384933,334.8908171092958L953.7434910427219,319.8061536526499L956.1401895469505,330.63433259135473L958.5368880511792,325.46815314423986L960.9335865554077,338.1644696341098L963.3302850596364,344.9302154435614L965.7269835638649,324.69195196036935L968.1236820680936,327.0211279848404L970.5203805723222,340.6060752399143L972.9170790765507,345.7935703475881L975.3137775807794,343.6221088681785L977.710476085008,329.68564171572314L980.1071745892366,320.36076847273466L982.5038730934652,321.8184886364082L984.9005715976938,333.3902068567095L987.2972701019224,326.42246250513614L989.6939686061511,272.31847541428846L992.0906671103796,309.20693192000414L994.4873656146083,325.1698691711978L996.8840641188369,338.4400399904982L999.2807626230655,341.43537136781947L1001.6774611272941,306.98171901317056L1004.0741596315228,319.6813358121604L1006.4708581357513,321.2995079308749L1008.86755663998,315.56341387376L1011.2642551442085,305.93723857815553L1013.660953648437,325.1416859430103L1016.0576521526657,338.41722923273556L1018.4543506568942,322.3458256291297L1020.8510491611229,326.2245414559761" style="fill: none;" fill="none"></path></g></g></g></g><g opacity="0.2"><g><g><g><path stroke="rgb(255, 112, 67)" stroke-width="2px" d="M66.96504447813743,-151.08820560386593L69.36174298236604,129.21263389615356L71.75844148659465,305.2771171060591L74.15513999082326,62.923167030257346L76.55183849505185,71.90617303452404L78.94853699928046,183.83274896995863L81.34523550350907,301.48211602572025L83.74193400773768,351.5603099950799L86.13863251196628,217.1547747195045L88.53533101619489,40.86776444889977L90.9320295204235,316.80599168313313L93.32872802465211,176.26618240693955L95.72542652888072,289.11248938264254L98.12212503310933,343.43202523876175L100.51882353733794,250.8465980376226L102.91552204156655,338.0484517676052L105.31222054579514,320.8964328172316L107.70891905002375,331.953009390629L110.10561755425236,337.35608643082844L112.50231605848097,265.8066713968126L114.89901456270957,307.1756379028508L117.29571306693818,313.07542334402945L119.69241157116679,243.97770517628092L122.0891100753954,354.36911309413995L124.48580857962399,259.92559907833333L126.8825070838526,272.807642033752L129.2792055880812,353.6142191584378L131.67590409230982,210.5561993552944L134.07260259653842,255.29535127713035L136.46930110076704,276.4689187857266L138.86599960499564,305.0629591801272L141.26269810922426,336.86486569727515L143.65939661345286,347.50167864418273L146.05609511768148,350.9167881813975L148.45279362191005,330.95316547702816L150.84949212613867,315.06444393367616L153.24619063036727,246.68578950124393L155.6428891345959,339.0852926106994L158.0395876388245,260.839880331991L160.4362861430531,357.00823286967824L162.8329846472817,301.5315479641438L165.22968315151033,282.4017110438664L167.6263816557389,275.4415708749167L170.02308015996752,346.2111638714536L172.41977866419612,248.7131101204263L174.81647716842474,340.60604319001715L177.21317567265334,351.1786127997655L179.60987417688196,285.5699260546698L182.00657268111055,269.63943207372387L184.40327118533918,354.6350124255276L186.79996968956775,337.85503232529106L189.19666819379637,301.33881037650286L191.59336669802497,308.1298152310571L193.9900652022536,259.07833151211844L196.3867637064822,330.0953796711314L198.7834622107108,168.93954787650148L201.18016071493943,265.7095752913407L203.57685921916803,332.86157569196973L205.97355772339662,335.9340810351369L208.37025622762522,351.88703707679133L210.76695473185384,249.73159897125925L213.16365323608244,265.16366728760437L215.56035174031106,274.89659221384613L217.95705024453966,344.7596089145332L220.35374874876828,350.59401585679103L222.75044725299688,338.83410492523427L225.1471457572255,254.14902730200004L227.54384426145407,24.824643228257766L229.9405427656827,340.7238424236793L232.3372412699113,277.69534805802635L234.7339397741399,264.1295715409169L237.1306382783685,352.867253677353L239.52733678259713,304.52523848324535L241.92403528682573,356.05785246184695L244.32073379105435,264.8557922249147L246.71743229528292,343.34762930792624L249.11413079951154,301.0465270573417L251.51082930374014,347.22465876815187L253.90752780796876,362.0112234728337L256.30422631219733,313.22889115326603L258.700924816426,273.3216392387798L261.0976233206546,323.0107075849681L263.4943218248832,298.1409473143511L265.89102032911177,362.9841063475764L268.2877188333404,332.0539036791697L270.684417337569,298.7985330120163L273.0811158417976,353.8405633426134L275.4778143460262,356.40125215301333L277.87451285025486,345.99623065150433L280.27121135448346,340.13566448097635L282.66790985871205,336.0858846138932L285.06460836294065,287.2606630040307L287.4613068671693,333.29104817139034L289.8580053713979,296.9507371521397L292.2547038756265,331.0417586021858L294.651402379855,265.5644463122193L297.0481008840837,334.4967238077463L299.4447993883123,320.02883588020296L301.8414978925409,351.17805847717005L304.23819639676947,326.18637248942383L306.6348949009981,359.1486719164603L309.0315934052267,301.9183110871417L311.4282919094553,336.221263071187L313.8249904136839,340.223275230327L316.22168891791256,305.7696838712452L318.61838742214115,354.42293163096144L321.01508592636975,354.094907762677L323.41178443059835,326.40799293594637L325.808482934827,315.20126438733456L328.2051814390556,352.63284719301305L330.6018799432842,340.7716227585609L332.9985784475128,296.818871509107L335.3952769517414,289.5247538704203L337.79197545597,346.3535906857588L340.18867396019857,341.8044760145105L342.5853724644272,310.27745037002967L344.9820709686558,298.4803897230249L347.3787694728844,357.59296492089356L349.775467977113,354.11374462937266L352.17216648134166,351.0201586125573L354.56886498557026,335.8360555869992L356.96556348979885,320.09477375249463L359.36226199402745,346.541381038937L361.7589604982561,289.2103127997659L364.1556590024847,307.16360695594926L366.5523575067133,350.15792307357054L368.9490560109419,220.28345731158512L371.3457545151705,360.18435802603847L373.7424530193991,357.10648181462557L376.1391515236277,314.5829383665229L378.53585002785627,300.82648497811834L380.9325485320849,350.6607871070167L383.3292470363135,364.0603432384589L385.7259455405421,348.2974775468112L388.1226440447707,307.4417076979067L390.51934254899936,296.14356264071245L392.91604105322796,324.0358988147003L395.31273955745655,357.41836214217363L397.7094380616852,334.5066107005086L400.1061365659138,302.36835032381794L402.5028350701424,310.72232771429054L404.899533574371,328.7262483172695L407.29623207859964,302.9970607387645L409.69293058282824,358.2478623433748L412.0896290870568,303.9304339232735L414.4863275912854,354.56374724792755L416.883026095514,311.8351347441488L419.2797245997426,314.7843582370033L421.6764231039712,339.55176201961353L424.0731216081998,348.40208289254576L426.46982011242847,326.89679687349116L428.86651861665706,331.6814923343501L431.26321712088566,286.18047388143094L433.65991562511425,296.3112332302542L436.0566141293429,324.2826392924633L438.4533126335715,328.5632143395058L440.8500111378001,339.9937174903302L443.2467096420287,325.5632583335733L445.64340814625734,351.5642521252464L448.04010665048594,330.2976657495856L450.4368051547145,350.02970409034594L452.8335036589431,357.22372041222303L455.2302021631717,357.21705717683267L457.6269006674003,344.3701259490053L460.0235991716289,343.4400913270077L462.4202976758575,350.0950750131038L464.81699618008616,328.99786638905556L467.21369468431476,309.025873287225L469.61039318854336,355.03082527527226L472.007091692772,355.55777140562276L474.4037901970006,307.7347284302701L476.8004887012292,340.1410511328951L479.1971872054578,294.4659627580563L481.59388570968645,353.7664179603658L483.99058421391504,294.4746702947726L486.38728271814364,301.53460368323505L488.7839812223722,353.17988530773556L491.18067972660083,358.41319316123224L493.5773782308294,338.0036539155721L495.974076735058,337.08800642718023L498.3707752392866,338.5866649150844L500.76747374351527,358.02665353504386L503.16417224774386,357.6063444248155L505.56087075197246,304.13876830521815L507.95756925620105,330.17093927047904L510.3542677604297,348.6872812365743L512.7509662646582,350.0384242540006L515.1476647688869,359.60608654785227L517.5443632731154,353.96074275416277L519.9410617773441,309.9235324391813L522.3377602815727,322.1818601964819L524.7344587858013,353.6768462474827L527.1311572900299,348.35013187991274L529.5278557942586,312.39423537311876L531.9245542984872,334.8016517430149L534.3212528027158,303.25405429050306L536.7179513069444,307.57496735493805L539.114649811173,347.00893131377757L541.5113483154016,291.96943520971615L543.9080468196303,161.75053687300365L546.3047453238587,352.33029312216246L548.7014438280873,355.77196216159444L551.098142332316,306.18839314837913L553.4948408365445,342.87267459641157L555.8915393407732,357.229160097283L558.2882378450017,357.34275961123546L560.6849363492304,287.20751874571937L563.081634853459,358.3491000846398L565.4783333576876,349.662930673519L567.8750318619162,323.5128203155798L570.2717303661449,362.10437239736376L572.6684288703734,310.2240939791534L575.0651273746021,301.13659248351604L577.4618258788306,325.63309540444095L579.8585243830593,324.8395327326021L582.2552228872879,349.54245831699893L584.6519213915165,232.59027756309277L587.0486198957451,357.1758681037926L589.4453183999738,326.1644647513108L591.8420169042023,316.25307320320064L594.238715408431,321.05377457116737L596.6354139126595,354.0776000182208L599.0321124168881,347.86554660248527L601.4288109211168,308.60322440531235L603.8255094253453,349.95303837119496L606.222207929574,346.83647006380926L608.6189064338026,321.78532887394266L611.0156049380312,312.69424132780154L613.4123034422598,329.4123683703167L615.8090019464885,353.94046767918405L618.205700450717,352.20565008789094L620.6023989549457,356.0069532731821L622.9990974591741,312.53329837103587L625.3957959634027,292.3805885269153L627.7924944676314,344.68235730544075L630.1891929718599,306.59503612318406L632.5858914760886,362.0118459808965L634.9825899803172,347.11669970757987L637.3792884845458,334.6374611376944L639.7759869887744,346.4134095437049L642.172685493003,315.47957221108163L644.5693839972316,355.62093135146785L646.9660825014603,349.4038688292716L649.3627810056888,352.5860353443062L651.7594795099175,316.9881782010523L654.1561780141461,320.8021095874309L656.5528765183747,328.4385435259698L658.9495750226033,360.47265186401415L661.3462735268319,262.28373538187896L663.7429720310605,305.31768493373033L666.1396705352892,226.79892721806348L668.5363690395177,350.5317183308382L670.9330675437463,330.15370855034706L673.329766047975,339.0623949206164L675.7264645522035,302.17143574495645L678.1231630564322,339.9233349357239L680.5198615606608,346.64017925570437L682.9165600648894,358.92072158572097L685.313258569118,317.0663440004844L687.7099570733466,355.803259291097L690.1066555775752,293.8590615911033L692.5033540818039,361.421636995153L694.9000525860324,323.9935985710816L697.2967510902611,314.4205104818022L699.6934495944897,310.5395351033285L702.0901480987181,350.78365353105625L704.4868466029468,311.30597511149784L706.8835451071753,336.07438652379193L709.280243611404,363.4301848293521L711.6769421156326,350.7994548817621L714.0736406198612,323.24646262632854L716.4703391240898,345.96543859953755L718.8670376283185,351.80634336429273L721.263736132547,333.56427238974015L723.6604346367757,211.83605572932547L726.0571331410042,341.9517667254849L728.4538316452329,358.70953793512774L730.8505301494615,270.87063937951183L733.2472286536901,361.69303030743566L735.6439271579187,321.20292901824865L738.0406256621474,358.98419846771975L740.4373241663759,336.7260400857998L742.8340226706046,307.3300956640574L745.2307211748332,347.2770340459149L747.6274196790617,322.3787091152638L750.0241181832904,345.5226447001116L752.4208166875189,309.80135923405953L754.8175151917476,355.7145083292095L757.2142136959762,305.612109781643L759.6109122002048,343.0139119531201L762.0076107044334,287.76608399250154L764.4043092086621,310.0642823960678L766.8010077128906,305.2604748012563L769.1977062171193,317.30840240949095L771.5944047213478,351.59618691513776L773.9911032255765,355.8543908154283L776.3878017298051,326.92174770375703L778.7845002340335,355.04045836657275L781.1811987382622,234.72349273841974L783.5778972424908,320.2096182825727L785.9745957467194,281.6592470663189L788.371294250948,309.8354418661717L790.7679927551766,266.49894076885755L793.1646912594052,318.6651214829119L795.5613897636339,307.93965858962383L797.9580882678624,313.1025611600251L800.3547867720911,306.2059092373188L802.7514852763197,347.5845883843694L805.1481837805483,333.43044452048105L807.5448822847769,352.56335357486967L809.9415807890056,355.288705238086L812.3382792932341,360.69067237040065L814.7349777974628,348.2640616170462L817.1316763016913,349.26749915731386L819.52837480592,299.19563002139563L821.9250733101486,336.3848046518741L824.3217718143771,358.9102810017102L826.7184703186058,350.0931228884281L829.1151688228344,322.2486112436062L831.511867327063,331.83619505816154L833.9085658312916,315.20634546734414L836.3052643355202,337.80175169604513L838.7019628397488,333.49552881173736L841.0986613439775,351.3352474451512L843.495359848206,364.84525203806976L845.8920583524347,353.3004170108661L848.2887568566633,335.4106868625565L850.6854553608919,314.4294251003081L853.0821538651205,352.8261845602276L855.478852369349,345.11398646593904L857.8755508735776,312.5375006161333L860.2722493778062,355.7620904211583L862.6689478820348,308.10487955311726L865.0656463862634,285.0925015140054L867.4623448904921,325.67572394845797L869.8590433947206,283.94163689182864L872.2557418989493,359.64232017891976L874.6524404031779,337.4837851841912L877.0491389074065,340.81602917550373L879.4458374116351,347.2756741246499L881.8425359158637,346.3679172100602L884.2392344200923,318.06527119835783L886.635932924321,343.83775907400235L889.0326314285495,331.13591768178736L891.4293299327782,351.5411170487215L893.8260284370068,334.88191866499574L896.2227269412354,286.7251646483061L898.619425445464,320.7247266581792L901.0161239496925,345.9208932862724L903.4128224539212,353.817565899717L905.8095209581498,314.0275399558899L908.2062194623784,358.07642703215095L910.602917966607,340.9344067229444L912.9996164708357,341.53873704524045L915.3963149750642,349.67455503300425L917.7930134792929,283.44638311415235L920.1897119835214,356.39461669688745L922.5864104877501,293.6518888874907L924.9831089919787,323.1867321569511L927.3798074962073,212.9067089880503L929.7765060004359,326.76645151384105L932.1732045046646,245.59060967738327L934.569903008893,360.51290717496005L936.9666015131216,361.4542776309006L939.3633000173503,357.58112464076186L941.7599985215788,298.68774930532567L944.1566970258075,348.24650259651594L946.553395530036,361.91162723355984L948.9500940342647,305.91495932285204L951.3467925384933,343.08741083612193L953.7434910427219,297.1791584676811L956.1401895469505,346.876600999412L958.5368880511792,317.71888397356753L960.9335865554077,357.2089443689148L963.3302850596364,355.07883415773875L965.7269835638649,294.33455673558115L968.1236820680936,330.51489202154715L970.5203805723222,360.9834961225251L972.9170790765507,353.5748130090989L975.3137775807794,340.36491664906407L977.710476085008,308.7809409870401L980.1071745892366,306.373458608252L982.5038730934652,324.00506888191836L984.9005715976938,350.74778418716136L987.2972701019224,315.9708459777762L989.6939686061511,191.16249477801688L992.0906671103796,364.5396166785776L994.4873656146083,349.11427504798826L996.8840641188369,358.34529621944876L999.2807626230655,345.92836843380144L1001.6774611272941,255.3012404811972L1004.0741596315228,338.7307610106452L1006.4708581357513,323.7267661089467L1008.86755663998,306.9592727880877L1011.2642551442085,291.49797563474885L1013.660953648437,353.94835699029244L1016.0576521526657,358.3305441673234L1018.4543506568942,298.2387202237209L1020.8510491611229,332.0426151962458" style="fill: none;" fill="none"></path></g></g></g></g></g></g><g transform="translate(61, 378)" clip-path="url(#clip_1)"><clipPath id="clip_1"><rect width="1050" height="22"></rect></clipPath><g><g><line x1="62.171647469680224" y1="0" x2="62.171647469680224" y2="5" style="visibility: inherit;" fill="rgb(0, 0, 0)" stroke="rgb(204, 204, 204)" stroke-width="1px"></line><line x1="158.0395876388245" y1="0" x2="158.0395876388245" y2="5" style="visibility: inherit;" fill="rgb(0, 0, 0)" stroke="rgb(204, 204, 204)" stroke-width="1px"></line><line x1="253.90752780796876" y1="0" x2="253.90752780796876" y2="5" style="visibility: inherit;" fill="rgb(0, 0, 0)" stroke="rgb(204, 204, 204)" stroke-width="1px"></line><line x1="349.775467977113" y1="0" x2="349.775467977113" y2="5" style="visibility: inherit;" fill="rgb(0, 0, 0)" stroke="rgb(204, 204, 204)" stroke-width="1px"></line><line x1="445.64340814625734" y1="0" x2="445.64340814625734" y2="5" style="visibility: inherit;" fill="rgb(0, 0, 0)" stroke="rgb(204, 204, 204)" stroke-width="1px"></line><line x1="541.5113483154016" y1="0" x2="541.5113483154016" y2="5" style="visibility: inherit;" fill="rgb(0, 0, 0)" stroke="rgb(204, 204, 204)" stroke-width="1px"></line><line x1="637.3792884845458" y1="0" x2="637.3792884845458" y2="5" style="visibility: inherit;" fill="rgb(0, 0, 0)" stroke="rgb(204, 204, 204)" stroke-width="1px"></line><line x1="733.2472286536901" y1="0" x2="733.2472286536901" y2="5" style="visibility: inherit;" fill="rgb(0, 0, 0)" stroke="rgb(204, 204, 204)" stroke-width="1px"></line><line x1="829.1151688228344" y1="0" x2="829.1151688228344" y2="5" style="visibility: inherit;" fill="rgb(0, 0, 0)" stroke="rgb(204, 204, 204)" stroke-width="1px"></line><line x1="924.9831089919787" y1="0" x2="924.9831089919787" y2="5" style="visibility: inherit;" fill="rgb(0, 0, 0)" stroke="rgb(204, 204, 204)" stroke-width="1px"></line><line x1="1020.8510491611229" y1="0" x2="1020.8510491611229" y2="5" style="visibility: inherit;" fill="rgb(0, 0, 0)" stroke="rgb(204, 204, 204)" stroke-width="1px"></line></g><g transform="translate(0, 8)"><text x="62.171647469680224" y="0" dx="0em" dy="0.95em" style="text-anchor: middle; visibility: inherit; font-family: Roboto, sans-serif; font-size: 12px; font-weight: 200;" fill="rgb(50, 49, 63)" stroke="none" stroke-width="1px">0</text><text x="158.0395876388245" y="0" dx="0em" dy="0.95em" style="text-anchor: middle; visibility: inherit; font-family: Roboto, sans-serif; font-size: 12px; font-weight: 200;" fill="rgb(50, 49, 63)" stroke="none" stroke-width="1px">20k</text><text x="253.90752780796876" y="0" dx="0em" dy="0.95em" style="text-anchor: middle; visibility: inherit; font-family: Roboto, sans-serif; font-size: 12px; font-weight: 200;" fill="rgb(50, 49, 63)" stroke="none" stroke-width="1px">40k</text><text x="349.775467977113" y="0" dx="0em" dy="0.95em" style="text-anchor: middle; visibility: inherit; font-family: Roboto, sans-serif; font-size: 12px; font-weight: 200;" fill="rgb(50, 49, 63)" stroke="none" stroke-width="1px">60k</text><text x="445.64340814625734" y="0" dx="0em" dy="0.95em" style="text-anchor: middle; visibility: inherit; font-family: Roboto, sans-serif; font-size: 12px; font-weight: 200;" fill="rgb(50, 49, 63)" stroke="none" stroke-width="1px">80k</text><text x="541.5113483154016" y="0" dx="0em" dy="0.95em" style="text-anchor: middle; visibility: inherit; font-family: Roboto, sans-serif; font-size: 12px; font-weight: 200;" fill="rgb(50, 49, 63)" stroke="none" stroke-width="1px">100k</text><text x="637.3792884845458" y="0" dx="0em" dy="0.95em" style="text-anchor: middle; visibility: inherit; font-family: Roboto, sans-serif; font-size: 12px; font-weight: 200;" fill="rgb(50, 49, 63)" stroke="none" stroke-width="1px">120k</text><text x="733.2472286536901" y="0" dx="0em" dy="0.95em" style="text-anchor: middle; visibility: inherit; font-family: Roboto, sans-serif; font-size: 12px; font-weight: 200;" fill="rgb(50, 49, 63)" stroke="none" stroke-width="1px">140k</text><text x="829.1151688228344" y="0" dx="0em" dy="0.95em" style="text-anchor: middle; visibility: inherit; font-family: Roboto, sans-serif; font-size: 12px; font-weight: 200;" fill="rgb(50, 49, 63)" stroke="none" stroke-width="1px">160k</text><text x="924.9831089919787" y="0" dx="0em" dy="0.95em" style="text-anchor: middle; visibility: inherit; font-family: Roboto, sans-serif; font-size: 12px; font-weight: 200;" fill="rgb(50, 49, 63)" stroke="none" stroke-width="1px">180k</text><text x="1020.8510491611229" y="0" dx="0em" dy="0.95em" style="text-anchor: middle; visibility: inherit; font-family: Roboto, sans-serif; font-size: 12px; font-weight: 200;" fill="rgb(50, 49, 63)" stroke="none" stroke-width="1px">200k</text></g><line x1="0" y1="0" x2="1050.646875" y2="0" fill="rgb(0, 0, 0)" stroke="rgb(204, 204, 204)" stroke-width="1px"></line></g></g></g></g></svg>