<svg viewBox="0 0 1112.5999755859375 400" xmlns="http://www.w3.org/2000/svg"><g><g><g><g><g><line x1="30.78125" y1="340.913662833702" x2="25.78125" y2="340.913662833702" style="visibility: inherit;" fill="rgb(0, 0, 0)" stroke="rgb(204, 204, 204)" stroke-width="1px"></line><line x1="30.78125" y1="282.786039195207" x2="25.78125" y2="282.786039195207" style="visibility: inherit;" fill="rgb(0, 0, 0)" stroke="rgb(204, 204, 204)" stroke-width="1px"></line><line x1="30.78125" y1="224.65841555671196" x2="25.78125" y2="224.65841555671196" style="visibility: inherit;" fill="rgb(0, 0, 0)" stroke="rgb(204, 204, 204)" stroke-width="1px"></line><line x1="30.78125" y1="166.53079191821698" x2="25.78125" y2="166.53079191821698" style="visibility: inherit;" fill="rgb(0, 0, 0)" stroke="rgb(204, 204, 204)" stroke-width="1px"></line><line x1="30.78125" y1="108.40316827972197" x2="25.78125" y2="108.40316827972197" style="visibility: inherit;" fill="rgb(0, 0, 0)" stroke="rgb(204, 204, 204)" stroke-width="1px"></line><line x1="30.78125" y1="50.27554464122697" x2="25.78125" y2="50.27554464122697" style="visibility: inherit;" fill="rgb(0, 0, 0)" stroke="rgb(204, 204, 204)" stroke-width="1px"></line></g><g transform="translate(20.78125, 0)"><text x="0" y="340.913662833702" dx="0em" dy="0.3em" style="text-anchor: end; visibility: inherit; font-family: Roboto, sans-serif; font-size: 12px; font-weight: 200;" fill="rgb(50, 49, 63)" stroke="none" stroke-width="1px">15</text><text x="0" y="282.786039195207" dx="0em" dy="0.3em" style="text-anchor: end; visibility: inherit; font-family: Roboto, sans-serif; font-size: 12px; font-weight: 200;" fill="rgb(50, 49, 63)" stroke="none" stroke-width="1px">20</text><text x="0" y="224.65841555671196" dx="0em" dy="0.3em" style="text-anchor: end; visibility: inherit; font-family: Roboto, sans-serif; font-size: 12px; font-weight: 200;" fill="rgb(50, 49, 63)" stroke="none" stroke-width="1px">25</text><text x="0" y="166.53079191821698" dx="0em" dy="0.3em" style="text-anchor: end; visibility: inherit; font-family: Roboto, sans-serif; font-size: 12px; font-weight: 200;" fill="rgb(50, 49, 63)" stroke="none" stroke-width="1px">30</text><text x="0" y="108.40316827972197" dx="0em" dy="0.3em" style="text-anchor: end; visibility: inherit; font-family: Roboto, sans-serif; font-size: 12px; font-weight: 200;" fill="rgb(50, 49, 63)" stroke="none" stroke-width="1px">35</text><text x="0" y="50.27554464122697" dx="0em" dy="0.3em" style="text-anchor: end; visibility: inherit; font-family: Roboto, sans-serif; font-size: 12px; font-weight: 200;" fill="rgb(50, 49, 63)" stroke="none" stroke-width="1px">40</text></g><line x1="30.78125" y1="0" x2="30.78125" y2="378" fill="rgb(0, 0, 0)" stroke="rgb(204, 204, 204)" stroke-width="1px"></line></g></g><g transform="translate(30, 0)" clip-path="url(#clip_0)"><clipPath id="clip_0"><rect width="1081" height="378"></rect></clipPath><g><g><g><line x1="34.95470565648572" y1="0" x2="34.95470565648572" y2="378" fill="rgb(0, 0, 0)" stroke="rgb(60, 60, 60)" stroke-width="1px" opacity="0.25"></line><line x1="122.0272102117332" y1="0" x2="122.0272102117332" y2="378" fill="rgb(0, 0, 0)" stroke="rgb(60, 60, 60)" stroke-width="1px" opacity="0.25"></line><line x1="209.0997147669807" y1="0" x2="209.0997147669807" y2="378" fill="rgb(0, 0, 0)" stroke="rgb(60, 60, 60)" stroke-width="1px" opacity="0.25"></line><line x1="296.17221932222816" y1="0" x2="296.17221932222816" y2="378" fill="rgb(0, 0, 0)" stroke="rgb(60, 60, 60)" stroke-width="1px" opacity="0.25"></line><line x1="383.2447238774757" y1="0" x2="383.2447238774757" y2="378" fill="rgb(0, 0, 0)" stroke="rgb(60, 60, 60)" stroke-width="1px" opacity="0.25"></line><line x1="470.31722843272314" y1="0" x2="470.31722843272314" y2="378" fill="rgb(0, 0, 0)" stroke="rgb(60, 60, 60)" stroke-width="1px" opacity="0.25"></line><line x1="557.3897329879707" y1="0" x2="557.3897329879707" y2="378" fill="rgb(0, 0, 0)" stroke="rgb(60, 60, 60)" stroke-width="1px" opacity="0.25"></line><line x1="644.4622375432182" y1="0" x2="644.4622375432182" y2="378" fill="rgb(0, 0, 0)" stroke="rgb(60, 60, 60)" stroke-width="1px" opacity="0.25"></line><line x1="731.5347420984656" y1="0" x2="731.5347420984656" y2="378" fill="rgb(0, 0, 0)" stroke="rgb(60, 60, 60)" stroke-width="1px" opacity="0.25"></line><line x1="818.6072466537132" y1="0" x2="818.6072466537132" y2="378" fill="rgb(0, 0, 0)" stroke="rgb(60, 60, 60)" stroke-width="1px" opacity="0.25"></line><line x1="905.6797512089606" y1="0" x2="905.6797512089606" y2="378" fill="rgb(0, 0, 0)" stroke="rgb(60, 60, 60)" stroke-width="1px" opacity="0.25"></line><line x1="992.7522557642081" y1="0" x2="992.7522557642081" y2="378" fill="rgb(0, 0, 0)" stroke="rgb(60, 60, 60)" stroke-width="1px" opacity="0.25"></line><line x1="1079.8247603194557" y1="0" x2="1079.8247603194557" y2="378" fill="rgb(0, 0, 0)" stroke="rgb(60, 60, 60)" stroke-width="1px" opacity="0.25"></line></g><g><line x1="0" y1="340.913662833702" x2="1081.81875" y2="340.913662833702" fill="rgb(0, 0, 0)" stroke="rgb(60, 60, 60)" stroke-width="1px" opacity="0.25"></line><line x1="0" y1="282.786039195207" x2="1081.81875" y2="282.786039195207" fill="rgb(0, 0, 0)" stroke="rgb(60, 60, 60)" stroke-width="1px" opacity="0.25"></line><line x1="0" y1="224.65841555671196" x2="1081.81875" y2="224.65841555671196" fill="rgb(0, 0, 0)" stroke="rgb(60, 60, 60)" stroke-width="1px" opacity="0.25"></line><line x1="0" y1="166.53079191821698" x2="1081.81875" y2="166.53079191821698" fill="rgb(0, 0, 0)" stroke="rgb(60, 60, 60)" stroke-width="1px" opacity="0.25"></line><line x1="0" y1="108.40316827972197" x2="1081.81875" y2="108.40316827972197" fill="rgb(0, 0, 0)" stroke="rgb(60, 60, 60)" stroke-width="1px" opacity="0.25"></line><line x1="0" y1="50.27554464122697" x2="1081.81875" y2="50.27554464122697" fill="rgb(0, 0, 0)" stroke="rgb(60, 60, 60)" stroke-width="1px" opacity="0.25"></line></g></g></g><g><g><line x1="0" y1="515.296533749187" x2="1081.81875" y2="515.296533749187" fill="rgb(0, 0, 0)" stroke="rgb(153, 153, 153)" stroke-width="1.5px"></line></g></g><g><g><line x1="122.0272102117332" y1="0" x2="122.0272102117332" y2="378" fill="rgb(0, 0, 0)" stroke="rgb(153, 153, 153)" stroke-width="1.5px"></line></g></g><g><g><g><g><g><path stroke="rgb(255, 112, 67)" stroke-width="2px" d="M122.0272102117332,379.1799100615979L124.2040228256144,356.173329555934L126.38083543949558,339.2068058924363L128.55764805337677,319.0310462056351L130.73446066725796,268.9271270477401L132.91127328113913,280.7447187205909L135.08808589502033,278.8362265897952L137.26489850890152,273.94801011924466L139.44171112278272,254.9412352130959L141.6185237366639,212.96847391149333L143.79533635054509,229.4521243648139L145.97214896442625,253.15765179514602L148.14896157830745,225.68586539913923L150.32577419218865,241.62324496984752L152.50258680606981,232.87288170538585L154.679399419951,206.03152916644726L156.8562120338322,219.9909118678697L159.0330246477134,194.54287599807856L161.20983726159457,197.16526983723492L163.38664987547577,183.7633370810453L165.56346248935694,167.99197546938686L167.74027510323813,191.14874933916678L169.91708771711933,196.9357484992398L172.09390033100053,188.11342815979708L174.27071294488172,199.53239628146116L176.44752555876286,159.1652703277006L178.62433817264406,184.45071800291723L180.80115078652526,199.78874470013028L182.97796340040645,176.82932361624393L185.15477601428765,202.13998843642278L187.33158862816882,213.5230222973982L189.50840124205,215.5285394236501L191.68521385593118,201.44273877088852L193.86202646981238,177.92055260971756L196.03883908369357,155.51628508870786L198.21565169757474,151.6420767186549L200.39246431145594,157.91253905961364L202.56927692533714,156.30642845619127L204.74608953921833,188.91105682368485L206.9229021530995,179.37022417231748L209.0997147669807,199.98000563380432L211.27652738086186,160.5826561986384L213.45333999474306,165.79322848648042L215.63015260862426,183.8084425441311L217.80696522250545,196.46571471622434L219.98377783638665,175.59812870940115L222.1605904502678,196.2482311298207L224.337403064149,177.40948045083957L226.51421567803018,153.6084893958466L228.69102829191138,173.7817806480738L230.86784090579258,186.2391102574213L233.04465351967374,149.71737348961562L235.22146613355494,135.8198873477213L237.39827874743614,153.78104100902954L239.5750913613173,166.5234785933391L241.7519039751985,183.0988257080156L243.92871658907967,163.7258428475731L246.10552920296087,193.30343003968986L248.28234181684206,209.18550086498655L250.45915443072326,174.5846782975957L252.63596704460446,152.35957015813614L254.8127796584856,139.34272775995007L256.9895922723668,177.4091680946317L259.166404886248,194.3491530005335L261.3432175001292,195.46846051634176L263.52003011401035,152.37803170131352L265.6968427278916,130.30187481822634L267.87365534177275,137.96160100983198L270.0504679556539,178.49388922123254L272.2272805695351,220.1172018404434L274.4040931834163,185.0488470306526L276.5809057972975,177.5850637283629L278.7577184111787,197.60178286303946L280.93453102505987,161.1510568331249L283.1113436389411,171.99189352205326L285.28815625282226,144.48505691956774L287.46496886670343,165.4115932048474L289.64178148058465,151.0973610530029L291.81859409446577,168.84354626349352L293.995406708347,137.40946020778915L296.17221932222816,106.99679972450502L298.3490319361093,136.66829621509103L300.52584454999055,155.3353830672627L302.7026571638717,150.01557934385295L304.87946977775294,174.80660086174015L307.0562823916341,130.87454461119L309.2330950055153,139.50718060360003L311.4099076193965,159.07904331446244L313.5867202332777,141.80958863616098L315.7635328471589,121.54752275396028L317.94034546104007,121.65956145021512L320.11715807492124,114.02533575358429L322.29397068880246,128.4141972035513L324.47078330268357,144.62673142337636L326.6475959165648,146.38696424454776L328.82440853044596,159.97497469600478L331.00122114432713,144.7518834233561L333.17803375820836,171.0759322966777L335.3548463720895,158.0705259877527L337.53165898597075,168.34251096092729L339.7084715998519,153.36823589436545L341.8852842137331,147.61758757189426L344.0620968276143,129.60084325316708L346.2389094414955,151.28578446831577L348.4157220553767,149.99381127548693L350.5925346692579,132.9757722424802L352.76934728313904,151.0818096799003L354.9461598970202,126.25850730030699L357.1229725109014,126.46092678932327L359.2997851247826,141.8453410822914L361.47659773866377,142.88582735524844L363.65341035254494,124.52113823725372L365.83022296642616,132.73280634042996L368.00703558030733,154.74829613393325L370.18384819418856,164.15287202009995L372.3606608080697,143.94644000162512L374.5374734219509,145.39925159112175L376.7142860358321,161.39809026590635L378.8910986497133,177.08490855030195L381.0679112635945,136.9668289075398L383.2447238774757,116.99526645017501L385.4215364913569,107.36851289975509L387.598349105238,127.0339484666897L389.7751617191192,137.45884309761348L391.9519743330004,123.03141153823958L394.1287869468816,165.36801711817404L396.3055995607628,174.50480950698648L398.48241217464397,160.4559200237677L400.65922478852514,172.40221828133951L402.83603740240636,134.91531475953352L405.01285001628753,113.24433531303009L407.18966263016875,139.25741379331092L409.3664752440499,153.8268824094021L411.5432878579311,131.70002457288618L413.7201004718123,88.3786977068268L415.8969130856934,103.37233330036614L418.07372569957465,133.78515933879913L420.2505383134558,162.0322501939167L422.427350927337,156.02610693924387L424.6041635412182,129.2572467220925L426.7809761550994,132.53195119679202L428.9577887689806,164.30755440202552L431.1346013828618,166.54360514172797L433.31141399674294,145.2692297088363L435.48822661062417,160.32733260971233L437.66503922450534,128.69645086342302L439.84185183838656,149.84246179001718L442.0186644522677,136.5701098480381L444.1954770661489,140.89603100953778L446.3722896800301,159.30927591494708L448.54910229391123,157.96015184676176L450.72591490779246,142.37181601756373L452.9027275216736,147.72918507737833L455.0795401355548,151.1062921933174L457.256352749436,168.8192628398026L459.4331653633172,177.8682260263164L461.6099779771984,150.8487467730969L463.7867905910796,162.3070444913529L465.96360320496075,145.32336367280521L468.140415818842,147.9676379801186L470.31722843272314,129.55234322865974L472.49404104660437,141.19887422379927L474.67085366048553,131.17115854940607L476.8476662743667,115.60648866608702L479.02447888824787,105.05972205735816L481.20129150212904,111.15440164340914L483.37810411601026,118.46295388569324L485.55491672989143,121.24526496926673L487.73172934377266,124.76079970513645L489.9085419576538,134.25565306413702L492.085354571535,116.4620017159464L494.2621671854162,107.68180598446408L496.4389797992974,133.24119691408785L498.6157924131786,141.16115128092946L500.7926050270598,168.10075608407263L502.96941764094095,140.91484314988813L505.14623025482217,158.52878542288403L507.32304286870334,163.16808173204046L509.49985548258456,127.34146582947005L511.6766680964657,103.1374919416809L513.8534807103468,112.25831629773558L516.0302933242281,117.97568204073418L518.2071059381093,128.53305938671275L520.3839185519905,110.52096443522053L522.5607311658716,90.98823104451559L524.7375437797527,118.78951229752222L526.914356393634,124.97886407866704L529.0911690075152,110.08249992441309L531.2679816213964,108.50204419032538L533.4447942352775,93.64103188598808L535.6216068491588,89.42586503932252L537.79841946304,112.44010191779218L539.9752320769211,129.45497639504322L542.1520446908023,117.94730523084006L544.3288573046835,119.28808678716418L546.5056699185646,147.0051682826364L548.6824825324459,147.09116515421485L550.8592951463271,156.09515881366576L553.0361077602082,177.80352599728351L555.2129203740894,160.71782348836746L557.3897329879707,186.1012535709156L559.5665456018518,213.5036365601933L561.743358215733,161.79327477006893L563.9201708296142,134.11390179751862L566.0969834434954,136.85161166903075L568.2737960573766,136.62520601179912L570.4506086712578,111.59565078518584L572.627421285139,103.2093059822047L574.8042338990202,134.77437988910816L576.9810465129015,117.44241150066141L579.1578591267826,116.28878308058938L581.3346717406638,123.0527758132761L583.511484354545,90.55480686670778L585.6882969684261,114.93329890463696L587.8651095823074,135.10990760977566L590.0419221961885,136.34924637996414L592.2187348100696,144.4761292884006L594.3955474239508,141.18038578702638L596.572360037832,178.01912030227223L598.7491726517133,151.07191891055305L600.9259852655944,156.20682754734122L603.1027978794756,160.77845499901417L605.2796104933568,163.20772359641109L607.4564231072379,141.55221922293518L609.6332357211191,129.36388342791076L611.8100483350004,146.61057459087885L613.9868609488816,133.0494619774484L616.1636735627627,121.03400662804168L618.3404861766439,139.11961596862375L620.5172987905252,155.0343627122143L622.6941114044063,151.66204563787164L624.8709240182875,134.84282651474172L627.0477366321687,131.6816411500895L629.2245492460498,115.43591458555163L631.4013618599311,119.0204024920454L633.5781744738123,144.09000584820149L635.7549870876935,139.477161118985L637.9317997015746,156.24167867711122L640.1086123154558,120.34226998951074L642.2854249293371,112.88321141148548L644.4622375432182,111.22076085893134L646.6390501570994,116.1063531147833L648.8158627709806,136.6922091037632L650.9926753848616,124.16463678824411L653.1694879987429,109.66350099054719L655.3463006126241,116.4444613962786L657.5231132265053,116.39812412648062L659.6999258403864,131.61438330734052L661.8767384542676,137.23275529384298L664.0535510681489,106.18608932220693L666.23036368203,130.58770706851053L668.4071762959112,147.35747243630902L670.5839889097924,179.77052760765284L672.7608015236735,154.94362406751486L674.9376141375548,145.0647147022731L677.114426751436,126.69483264830066L679.2912393653172,146.71405315262197L681.4680519791983,138.62735822525892L683.6448645930795,131.14652445675017L685.8216772069608,98.79100139507254L687.9984898208419,123.1984085761922L690.1753024347231,102.46330304239021L692.3521150486043,140.07095209282923L694.5289276624854,111.31354894927064L696.7057402763667,130.35187685455992L698.8825528902479,149.8231937134805L701.0593655041291,159.3114833233072L703.2361781180102,133.36446049501546L705.4129907318915,165.593551492632L707.5898033457727,155.85401408873798L709.7666159596538,108.26311678755498L711.9434285735349,95.90895714634635L714.1202411874161,119.37696541971562L716.2970538012974,117.70206761028766L718.4738664151785,101.38431046379442L720.6506790290597,108.49693071589147L722.8274916429409,141.5831686003156L725.004304256822,139.0680783257896L727.1811168707032,98.47845048881462L729.3579294845845,136.01168303523573L731.5347420984656,104.45783656863237L733.7115547123468,133.4285320665657L735.888367326228,115.78603159925842L738.0651799401093,107.13975668769017L740.2419925539904,137.49851126629719L742.4188051678716,118.97726730013348L744.5956177817528,130.76254369186415L746.7724303956339,128.7539469439741L748.9492430095152,128.54691725195008L751.1260556233964,114.74124351871238L753.3028682372775,145.79449521874315L755.4796808511587,146.85914236049348L757.65649346504,163.81117468210292L759.8333060789212,167.1577821274326L762.0101186928023,160.98386847156704L764.1869313066835,159.77814065041247L766.3637439205647,133.70185875788454L768.5405565344458,130.96695717037875L770.7173691483271,141.5050731623759L772.8941817622083,119.63418268289374L775.0709943760893,150.09710402987557L777.2478069899705,142.10344333767762L779.4246196038517,149.04747294841187L781.601432217733,157.45029961819546L783.7782448316141,163.30968141462628L785.9550574454953,146.5090425868842L788.1318700593765,151.33626250852967L790.3086826732576,153.64269700165528L792.4854952871389,163.9067726613461L794.6623079010201,143.70112640439953L796.8391205149012,151.59987382647728L799.0159331287824,131.59706238058118L801.1927457426636,114.77197836928372L803.3695583565449,104.25682957901925L805.546370970426,97.54456506375473L807.7231835843072,89.37066394946845L809.8999961981884,125.02054077594673L812.0768088120695,108.85709149494959L814.2536214259508,92.50898975411756L816.430434039832,100.79597035226303L818.6072466537132,103.05953349489995L820.7840592675943,120.17130754377725L822.9608718814756,148.57402025254166L825.1376844953568,136.04192439428024L827.3144971092379,132.2444277672245L829.4913097231191,109.93526208698343L831.6681223370003,77.61679314095362L833.8449349508815,96.91075577510318L836.0217475647626,109.49922241780939L838.1985601786438,135.23782428329213L840.375372792525,115.37442326380082L842.5521854064061,109.06463043681485L844.7289980202873,137.51601053899938L846.9058106341686,116.31637610856922L849.0826232480497,139.74510166164526L851.2594358619309,158.92269625990707L853.4362484758121,140.3050573207023L855.6130610896932,171.42515841705747L857.7898737035745,126.88333967229252L859.9666863174557,132.70278165809492L862.1434989313369,111.85197888466234L864.320311545218,106.71478972944192L866.4971241590993,108.74118975537519L868.6739367729805,131.60925914127282L870.8507493868616,126.17740534070067L873.0275620007428,125.0565516131408L875.204374614624,121.04546171569807L877.3811872285052,132.7477149534969L879.5579998423864,148.15812046982367L881.7348124562676,156.56741327580875L883.9116250701488,135.7832091620474L886.0884376840299,124.28166963862364L888.2652502979112,137.5030895193741L890.4420629117924,111.34622242883039L892.6188755256735,118.7117640165489L894.7956881395547,134.04687945677762L896.972500753436,111.86296117629232L899.149313367317,145.3892250070915L901.3261259811982,120.85510813696294L903.5029385950794,158.6584486544111L905.6797512089606,158.51474380971146L907.8565638228417,198.07038766699586L910.033376436723,183.05664297925273L912.2101890506042,186.53983941856416L914.3870016644853,139.79652211721012L916.5638142783665,106.55322893740946L918.7406268922477,98.30401815533976L920.917439506129,132.47587425672765L923.0942521200101,122.04625982260325L925.2710647338913,96.00202050005443L927.4478773477725,129.19745658526037L929.6246899616536,131.07070149988553L931.8015025755349,151.0028852028501L933.9783151894161,127.772285889927L936.1551278032972,143.05529718915662L938.3319404171784,111.61428086847151L940.5087530310597,107.03099385228658L942.6855656449409,131.46896344207462L944.862378258822,137.8756287596129L947.0391908727032,113.56502703353094L949.2160034865844,105.46187926975647L951.3928161004656,114.62902729659646L953.5696287143468,136.6639003054943L955.746441328228,152.7768365869633L957.9232539421091,164.70197525357815L960.1000665559902,144.4247510902565L962.2768791698714,135.5822530253737L964.4536917837527,160.1742436376272L966.6305043976338,108.8894913902101L968.807317011515,106.45697413153238L970.9841296253962,91.33988474472142L973.1609422392773,88.3949216970847L975.3377548531586,123.59532439697546L977.5145674670398,121.33658186251259L979.6913800809209,124.81319505678483L981.8681926948021,147.22827401844896L984.0450053086834,162.7552225143227L986.2218179225646,136.6817393274597L988.3986305364457,113.05829908740816L990.5754431503269,147.55474008041043L992.7522557642081,135.49996468796112" style="fill: none;" fill="none"></path></g></g></g></g><g opacity="0.2"><g><g><g><path stroke="rgb(255, 112, 67)" stroke-width="2px" d="M122.0272102117332,379.17991006159787L124.2040228256144,342.36938125253556L126.38083543949558,322.91894317547855L128.55764805337677,295.304352813957L130.73446066725796,203.51145019519248L132.91127328113913,297.09270233714585L135.08808589502033,276.10705230688325L137.26489850890152,266.82094357830385L139.44171112278272,226.90993410248421L141.6185237366639,150.6438150521067L143.79533635054509,254.02809454837973L145.97214896442625,288.58693850720465L148.14896157830745,184.56788595417677L150.32577419218865,265.4980913402113L152.50258680606981,219.75762253223473L154.679399419951,165.78843095943358L156.8562120338322,240.92407877707728L159.0330246477134,156.3772834469425L161.20983726159457,201.09846110066246L163.38664987547577,163.66166293650002L165.56346248935694,144.33579799085206L167.74027510323813,225.88314816032872L169.91708771711933,205.6161329851457L172.09390033100053,174.8800521594282L174.27071294488172,216.66076730281907L176.44752555876286,98.6147535444124L178.62433817264406,222.37882481721178L180.80115078652526,222.79576119846578L182.97796340040645,142.39021313928617L185.15477601428765,240.1059716778714L187.33158862816882,230.59756931412355L189.50840124205,218.5368147139971L191.68521385593118,180.31403947330793L193.86202646981238,142.63727505280704L196.03883908369357,121.90988477005627L198.21565169757474,145.830764263476L200.39246431145594,167.31823247403756L202.56927692533714,153.89726256596722L204.74608953921833,237.81799919332443L206.9229021530995,165.05897522715074L209.0997147669807,230.89467778470927L211.27652738086186,101.48663209328758L213.45333999474306,173.60908691448222L215.63015260862426,210.83126362280476L217.80696522250545,215.451622971075L219.98377783638665,144.29674970241996L222.1605904502678,227.22338475851822L224.337403064149,149.15135443342527L226.51421567803018,117.90700281415857L228.69102829191138,204.04171752600723L230.86784090579258,204.92510467129148L233.04465351967374,94.93476833817283L235.22146613355494,114.9736581349406L237.39827874743614,180.7227715009448L239.5750913613173,185.6371349697834L241.7519039751985,207.96184638001475L243.92871658907967,134.6663685569204L246.10552920296087,237.66981082785506L248.28234181684206,233.0086071029284L250.45915443072326,122.68344444651369L252.63596704460446,119.02190794894847L254.8127796584856,119.81746416267143L256.9895922723668,234.50882859665307L259.166404886248,219.75913035938603L261.3432175001292,197.14742179005395L263.52003011401035,87.74238847877135L265.6968427278916,97.18763949359546L267.87365534177275,149.45119029724052L270.0504679556539,239.29232153833323L272.2272805695351,282.5521707692597L274.4040931834163,132.4463148159665L276.5809057972975,166.3893887749283L278.7577184111787,227.62686156505433L280.93453102505987,106.47496778825305L283.1113436389411,188.2531485554458L285.28815625282226,103.22480201583943L287.46496886670343,196.80139763276685L289.64178148058465,129.62601282523616L291.81859409446577,195.46282407922948L293.995406708347,90.25833112423265L296.17221932222816,61.37780899957889L298.3490319361093,181.17554095097012L300.52584454999055,183.33601334552023L302.7026571638717,142.0358737587384L304.87946977775294,211.99313313857084L307.0562823916341,64.97646023536481L309.2330950055153,152.45613459221497L311.4099076193965,188.436837380756L313.5867202332777,115.90540661870891L315.7635328471589,91.15442393065923L317.94034546104007,121.82761949459743L320.11715807492124,102.57399720863809L322.29397068880246,149.99748937850177L324.47078330268357,168.94553275311387L326.6475959165648,149.02731347630487L328.82440853044596,180.35699037319034L331.00122114432713,121.91724651438304L333.17803375820836,210.5620056066601L335.3548463720895,138.56241652436503L337.53165898597075,183.75048842068915L339.7084715998519,130.9068232945228L341.8852842137331,138.99161508818747L344.0620968276143,102.57572677507633L346.2389094414955,183.8131962910389L348.4157220553767,148.05585148624365L350.5925346692579,107.44871369296992L352.76934728313904,178.24086583603042L354.9461598970202,89.02355373091709L357.1229725109014,126.76455602284767L359.2997851247826,164.92196252174367L361.47659773866377,144.4465567646841L363.65341035254494,96.9741045602616L365.83022296642616,145.0503084951944L368.00703558030733,187.77153082418812L370.18384819418856,178.25973584934997L372.3606608080697,113.63679197391272L374.5374734219509,147.57846897536675L376.7142860358321,185.3963482780833L378.8910986497133,200.6151359768953L381.0679112635945,76.78970944339659L383.2447238774757,87.03792276412786L385.4215364913569,92.92838257412501L387.598349105238,156.53210181709173L389.7751617191192,153.09618504399918L391.9519743330004,101.39026419917862L394.1287869468816,228.87292548807574L396.3055995607628,188.2099980902051L398.48241217464397,139.38258579893957L400.65922478852514,190.32166566769732L402.83603740240636,78.68495947682456L405.01285001628753,80.73786614327473L407.18966263016875,178.27703151373214L409.3664752440499,175.68108533353885L411.5432878579311,98.50973781811237L413.7201004718123,23.39670740773769L415.8969130856934,125.86278669067518L418.07372569957465,179.40439839644864L420.2505383134558,204.40288647659307L422.427350927337,147.01689205723454L424.6041635412182,89.10395639636553L426.7809761550994,137.44400790884137L428.9577887689806,211.97095920987576L431.1346013828618,169.89768125128168L433.31141399674294,113.35766655949878L435.48822661062417,182.9144869610263L437.66503922450534,81.25012824398905L439.84185183838656,181.56147817990842L442.0186644522677,116.66158193506935L444.1954770661489,147.38491275178717L446.3722896800301,186.9291432730611L448.54910229391123,155.93646574448383L450.72591490779246,118.98931227376666L452.9027275216736,155.76523866710022L455.0795401355548,156.17195286722583L457.256352749436,195.38871880953045L459.4331653633172,191.44167080608705L461.6099779771984,110.31952789326772L463.7867905910796,179.49449106873683L465.96360320496075,119.8478424449837L468.140415818842,151.93404944108875L470.31722843272314,101.92940110147144L472.49404104660437,158.66867071650853L474.67085366048553,116.12958503781643L476.8476662743667,92.25948384110848L479.02447888824787,89.2395721442648L481.20129150212904,120.29642102248567L483.37810411601026,129.42578224911938L485.55491672989143,125.41873159462699L487.73172934377266,130.03410180894087L489.9085419576538,148.49793310263797L492.085354571535,89.77152469366035L494.2621671854162,94.51151238724067L496.4389797992974,171.5802833085236L498.6157924131786,153.04108283119186L500.7926050270598,208.51016328878728L502.96941764094095,100.13597374861136L505.14623025482217,184.9496988323778L507.32304286870334,170.12702619577513L509.49985548258456,73.60154197561441L511.6766680964657,66.83153110999727L513.8534807103468,125.93955283181764L516.0302933242281,126.55173065523208L518.2071059381093,144.3691254056808L520.3839185519905,83.50282200798209L522.5607311658716,61.689130958458165L524.7375437797527,160.4914341770322L526.914356393634,134.26289175038426L529.0911690075152,87.73795369303228L531.2679816213964,106.13136058919372L533.4447942352775,71.34951342948222L535.6216068491588,83.10311476932415L537.79841946304,146.96145723549677L539.9752320769211,154.9772881109197L542.1520446908023,100.68579848453518L544.3288573046835,121.29925912165046L546.5056699185646,188.58079052584463L548.6824825324459,147.22016046158254L550.8592951463271,169.60114930284206L553.0361077602082,210.36607677271013L555.2129203740894,135.08926972499341L557.3897329879707,224.1763986947378L559.5665456018518,254.60721104410982L561.743358215733,84.22773208488245L563.9201708296142,92.59484233869323L566.0969834434954,140.95817647629892L568.2737960573766,136.28559752595172L570.4506086712578,74.05131794526595L572.627421285139,90.62978877773307L574.8042338990202,182.12199074946327L576.9810465129015,91.44445891799121L579.1578591267826,114.55834045048128L581.3346717406638,133.1987649123062L583.511484354545,41.80785344685524L585.6882969684261,151.50103696153073L587.8651095823074,165.37482066748382L590.0419221961885,138.20825453524682L592.2187348100696,156.66645365105535L594.3955474239508,136.2367705349651L596.572360037832,233.2772220751409L598.7491726517133,110.65111682297429L600.9259852655944,163.90919050252347L603.1027978794756,167.63589617652363L605.2796104933568,166.85162649250645L607.4564231072379,109.0689626627212L609.6332357211191,111.08137973537413L611.8100483350004,172.4806113353309L613.9868609488816,112.70779305730264L616.1636735627627,103.01082360393167L618.3404861766439,166.248029979497L620.5172987905252,178.9064828276001L622.6941114044063,146.60357002635777L624.8709240182875,109.61399783004687L627.0477366321687,126.9398631031112L629.2245492460498,91.06732473874487L631.4013618599311,124.39713435178615L633.5781744738123,181.69441088243556L635.7549870876935,132.5578940251603L637.9317997015746,181.38845501430052L640.1086123154558,66.49315695810996L642.2854249293371,101.69462354444765L644.4622375432182,108.72708503010007L646.6390501570994,123.43474149856122L648.8158627709806,167.57099308723303L650.9926753848616,105.37327831496549L653.1694879987429,87.91179729400193L655.3463006126241,126.61590200487571L657.5231132265053,116.32861822178367L659.6999258403864,154.43877207863036L661.8767384542676,145.66031327359673L664.0535510681489,59.61609036475285L666.23036368203,167.1901336879659L668.4071762959112,172.51212048800667L670.5839889097924,228.39011036466854L672.7608015236735,117.70326875730798L674.9376141375548,130.2463506544104L677.114426751436,99.14000956734205L679.2912393653172,176.74288390910394L681.4680519791983,126.49731583421428L683.6448645930795,119.925273803987L685.8216772069608,50.25771680255614L687.9984898208419,159.80951934787166L690.1753024347231,71.36064474168717L692.3521150486043,196.4824256684878L694.5289276624854,68.17744423393273L696.7057402763667,158.9093687124939L698.8825528902479,179.03016900186137L701.0593655041291,173.5439177380473L703.2361781180102,94.44392625257798L705.4129907318915,213.93718798905672L707.5898033457727,141.24470798289707L709.7666159596538,36.876770835780455L711.9434285735349,77.37771768453335L714.1202411874161,154.5789778297695L716.2970538012974,115.1897208961457L718.4738664151785,76.90767474405452L720.6506790290597,119.16586109403708L722.8274916429409,191.21252542695183L725.004304256822,135.29544291400052L727.1811168707032,37.59400873335231L729.3579294845845,192.31153185486733L731.5347420984656,57.12706686872734L733.7115547123468,176.88457531346563L735.888367326228,89.32228089829755L738.0651799401093,94.17034432033779L740.2419925539904,183.03664313420765L742.4188051678716,91.19540135088779L744.5956177817528,148.44045827946022L746.7724303956339,125.74105182213906L748.9492430095152,128.23637271391394L751.1260556233964,94.03273291885597L753.3028682372775,192.37437276878924L755.4796808511587,148.456113073119L757.65649346504,189.2392231645171L759.8333060789212,172.1776932954271L762.0101186928023,151.72299798776876L764.1869313066835,157.96954891868054L766.3637439205647,94.58743591909271L768.5405565344458,126.86460478912L770.7173691483271,157.3122471503716L772.8941817622083,86.82784696367042L775.0709943760893,195.79148605034834L777.2478069899705,130.11295229938065L779.4246196038517,159.46351736451325L781.601432217733,170.05453962287083L783.7782448316141,172.09875410927256L785.9550574454953,121.30808434527111L788.1318700593765,158.57709239099773L790.3086826732576,157.10234874134372L792.4854952871389,179.30288615088244L794.6623079010201,113.39265701897966L796.8391205149012,163.44799495959398L799.0159331287824,101.59284521173713L801.1927457426636,89.53435235233749L803.3695583565449,88.48410639362257L805.546370970426,87.47616829085788L807.7231835843072,77.10981227803912L809.8999961981884,178.49535601566416L812.0768088120695,84.61191757345385L814.2536214259508,67.9868371428696L816.430434039832,113.22644124948114L818.6072466537132,106.4548782088553L820.7840592675943,145.83896861709317L822.9608718814756,191.17808931568834L825.1376844953568,117.243780606888L827.3144971092379,126.54818282664087L829.4913097231191,76.47151356662184L831.6681223370003,29.13908972190894L833.8449349508815,125.85169972632761L836.0217475647626,128.3819223818686L838.1985601786438,173.84572708151634L840.375372792525,85.57932173456386L842.5521854064061,99.59994119633589L844.7289980202873,180.1930806922761L846.9058106341686,84.51692446292404L849.0826232480497,174.88818999125928L851.2594358619309,187.68908815729972L853.4362484758121,112.37859891189514L855.6130610896932,218.1053100615903L857.7898737035745,60.0706115551451L859.9666863174557,141.43194463679853L862.1434989313369,80.57577472451352L864.320311545218,99.00900599661138L866.4971241590993,111.7807897942751L868.6739367729805,165.91136322011923L870.8507493868616,118.02962463984251L873.0275620007428,123.37527102180096L875.204374614624,115.028826869534L877.3811872285052,150.30109481019514L879.5579998423864,171.2737287443138L881.7348124562676,169.18135248478632L883.9116250701488,104.60690299140529L886.0884376840299,107.02936035348809L888.2652502979112,157.33521934049972L890.4420629117924,72.11092179301473L892.6188755256735,129.76007639812678L894.7956881395547,157.0495526171207L896.972500753436,78.58708375556438L899.149313367317,195.67862075329026L901.3261259811982,84.05393283177023L903.5029385950794,215.36345943058328L905.6797512089606,158.299186542662L907.8565638228417,257.4038534529225L910.033376436723,160.53602594763805L912.2101890506042,191.76463407753124L914.3870016644853,69.68154616517906L916.5638142783665,56.68828916770864L918.7406268922477,85.93020198223519L920.917439506129,183.73365840880953L923.0942521200101,106.40183817141661L925.2710647338913,56.93566151623121L927.4478773477725,178.99061071306932L929.6246899616536,133.88056887182327L931.8015025755349,180.90116075729688L933.9783151894161,92.92638692054246L936.1551278032972,165.97981413800102L938.3319404171784,64.45275638744384L940.5087530310597,100.15606332800913L942.6855656449409,168.12591782675673L944.862378258822,147.48562673592033L947.0391908727032,77.09912444440808L949.2160034865844,93.30715762409477L951.3928161004656,128.3797493368565L953.5696287143468,169.71620981884092L955.746441328228,176.94624100916673L957.9232539421091,182.5896832535004L960.1000665559902,114.00891484527398L962.2768791698714,122.31850592804966L964.4536917837527,197.06222955600737L966.6305043976338,31.962363019084425L968.807317011515,102.80819824351582L970.9841296253962,68.66425066450503L973.1609422392773,83.97747712562952L975.3377548531586,176.39592844681164L977.5145674670398,117.94846806081846L979.6913800809209,130.0281148481932L981.8681926948021,180.8508924609451L984.0450053086834,186.04564525813333L986.2218179225646,97.57151454716511L988.3986305364457,77.6231387273308L990.5754431503269,199.29940156991387L992.7522557642081,117.4178015992872" style="fill: none;" fill="none"></path></g></g></g></g></g></g><g transform="translate(30, 378)" clip-path="url(#clip_1)"><clipPath id="clip_1"><rect width="1081" height="22"></rect></clipPath><g><g><line x1="34.95470565648572" y1="0" x2="34.95470565648572" y2="5" style="visibility: inherit;" fill="rgb(0, 0, 0)" stroke="rgb(204, 204, 204)" stroke-width="1px"></line><line x1="122.0272102117332" y1="0" x2="122.0272102117332" y2="5" style="visibility: inherit;" fill="rgb(0, 0, 0)" stroke="rgb(204, 204, 204)" stroke-width="1px"></line><line x1="209.0997147669807" y1="0" x2="209.0997147669807" y2="5" style="visibility: inherit;" fill="rgb(0, 0, 0)" stroke="rgb(204, 204, 204)" stroke-width="1px"></line><line x1="296.17221932222816" y1="0" x2="296.17221932222816" y2="5" style="visibility: inherit;" fill="rgb(0, 0, 0)" stroke="rgb(204, 204, 204)" stroke-width="1px"></line><line x1="383.2447238774757" y1="0" x2="383.2447238774757" y2="5" style="visibility: inherit;" fill="rgb(0, 0, 0)" stroke="rgb(204, 204, 204)" stroke-width="1px"></line><line x1="470.31722843272314" y1="0" x2="470.31722843272314" y2="5" style="visibility: inherit;" fill="rgb(0, 0, 0)" stroke="rgb(204, 204, 204)" stroke-width="1px"></line><line x1="557.3897329879707" y1="0" x2="557.3897329879707" y2="5" style="visibility: inherit;" fill="rgb(0, 0, 0)" stroke="rgb(204, 204, 204)" stroke-width="1px"></line><line x1="644.4622375432182" y1="0" x2="644.4622375432182" y2="5" style="visibility: inherit;" fill="rgb(0, 0, 0)" stroke="rgb(204, 204, 204)" stroke-width="1px"></line><line x1="731.5347420984656" y1="0" x2="731.5347420984656" y2="5" style="visibility: inherit;" fill="rgb(0, 0, 0)" stroke="rgb(204, 204, 204)" stroke-width="1px"></line><line x1="818.6072466537132" y1="0" x2="818.6072466537132" y2="5" style="visibility: inherit;" fill="rgb(0, 0, 0)" stroke="rgb(204, 204, 204)" stroke-width="1px"></line><line x1="905.6797512089606" y1="0" x2="905.6797512089606" y2="5" style="visibility: inherit;" fill="rgb(0, 0, 0)" stroke="rgb(204, 204, 204)" stroke-width="1px"></line><line x1="992.7522557642081" y1="0" x2="992.7522557642081" y2="5" style="visibility: inherit;" fill="rgb(0, 0, 0)" stroke="rgb(204, 204, 204)" stroke-width="1px"></line><line x1="1079.8247603194557" y1="0" x2="1079.8247603194557" y2="5" style="visibility: inherit;" fill="rgb(0, 0, 0)" stroke="rgb(204, 204, 204)" stroke-width="1px"></line></g><g transform="translate(0, 8)"><text x="34.95470565648572" y="0" dx="0em" dy="0.95em" style="text-anchor: middle; visibility: inherit; font-family: Roboto, sans-serif; font-size: 12px; font-weight: 200;" fill="rgb(50, 49, 63)" stroke="none" stroke-width="1px">-20k</text><text x="122.0272102117332" y="0" dx="0em" dy="0.95em" style="text-anchor: middle; visibility: inherit; font-family: Roboto, sans-serif; font-size: 12px; font-weight: 200;" fill="rgb(50, 49, 63)" stroke="none" stroke-width="1px">0</text><text x="209.0997147669807" y="0" dx="0em" dy="0.95em" style="text-anchor: middle; visibility: inherit; font-family: Roboto, sans-serif; font-size: 12px; font-weight: 200;" fill="rgb(50, 49, 63)" stroke="none" stroke-width="1px">20k</text><text x="296.17221932222816" y="0" dx="0em" dy="0.95em" style="text-anchor: middle; visibility: inherit; font-family: Roboto, sans-serif; font-size: 12px; font-weight: 200;" fill="rgb(50, 49, 63)" stroke="none" stroke-width="1px">40k</text><text x="383.2447238774757" y="0" dx="0em" dy="0.95em" style="text-anchor: middle; visibility: inherit; font-family: Roboto, sans-serif; font-size: 12px; font-weight: 200;" fill="rgb(50, 49, 63)" stroke="none" stroke-width="1px">60k</text><text x="470.31722843272314" y="0" dx="0em" dy="0.95em" style="text-anchor: middle; visibility: inherit; font-family: Roboto, sans-serif; font-size: 12px; font-weight: 200;" fill="rgb(50, 49, 63)" stroke="none" stroke-width="1px">80k</text><text x="557.3897329879707" y="0" dx="0em" dy="0.95em" style="text-anchor: middle; visibility: inherit; font-family: Roboto, sans-serif; font-size: 12px; font-weight: 200;" fill="rgb(50, 49, 63)" stroke="none" stroke-width="1px">100k</text><text x="644.4622375432182" y="0" dx="0em" dy="0.95em" style="text-anchor: middle; visibility: inherit; font-family: Roboto, sans-serif; font-size: 12px; font-weight: 200;" fill="rgb(50, 49, 63)" stroke="none" stroke-width="1px">120k</text><text x="731.5347420984656" y="0" dx="0em" dy="0.95em" style="text-anchor: middle; visibility: inherit; font-family: Roboto, sans-serif; font-size: 12px; font-weight: 200;" fill="rgb(50, 49, 63)" stroke="none" stroke-width="1px">140k</text><text x="818.6072466537132" y="0" dx="0em" dy="0.95em" style="text-anchor: middle; visibility: inherit; font-family: Roboto, sans-serif; font-size: 12px; font-weight: 200;" fill="rgb(50, 49, 63)" stroke="none" stroke-width="1px">160k</text><text x="905.6797512089606" y="0" dx="0em" dy="0.95em" style="text-anchor: middle; visibility: inherit; font-family: Roboto, sans-serif; font-size: 12px; font-weight: 200;" fill="rgb(50, 49, 63)" stroke="none" stroke-width="1px">180k</text><text x="992.7522557642081" y="0" dx="0em" dy="0.95em" style="text-anchor: middle; visibility: inherit; font-family: Roboto, sans-serif; font-size: 12px; font-weight: 200;" fill="rgb(50, 49, 63)" stroke="none" stroke-width="1px">200k</text><text x="1079.8247603194557" y="0" dx="0em" dy="0.95em" style="text-anchor: middle; visibility: hidden; font-family: Roboto, sans-serif; font-size: 12px; font-weight: 200;" fill="rgb(50, 49, 63)" stroke="none" stroke-width="1px">220k</text></g><line x1="0" y1="0" x2="1081.81875" y2="0" fill="rgb(0, 0, 0)" stroke="rgb(204, 204, 204)" stroke-width="1px"></line></g></g></g></g></svg>