<svg viewBox="0 0 887 400" xmlns="http://www.w3.org/2000/svg"><g><g><g><g><g><line x1="70" y1="377" x2="65" y2="377" style="visibility: inherit;" fill="rgb(0, 0, 0)" stroke="rgb(204, 204, 204)" stroke-width="1px"></line><line x1="70" y1="339.3" x2="65" y2="339.3" style="visibility: inherit;" fill="rgb(0, 0, 0)" stroke="rgb(204, 204, 204)" stroke-width="1px"></line><line x1="70" y1="301.59999999999997" x2="65" y2="301.59999999999997" style="visibility: inherit;" fill="rgb(0, 0, 0)" stroke="rgb(204, 204, 204)" stroke-width="1px"></line><line x1="70" y1="263.9" x2="65" y2="263.9" style="visibility: inherit;" fill="rgb(0, 0, 0)" stroke="rgb(204, 204, 204)" stroke-width="1px"></line><line x1="70" y1="226.19999999999996" x2="65" y2="226.19999999999996" style="visibility: inherit;" fill="rgb(0, 0, 0)" stroke="rgb(204, 204, 204)" stroke-width="1px"></line><line x1="70" y1="188.49999999999997" x2="65" y2="188.49999999999997" style="visibility: inherit;" fill="rgb(0, 0, 0)" stroke="rgb(204, 204, 204)" stroke-width="1px"></line><line x1="70" y1="150.79999999999995" x2="65" y2="150.79999999999995" style="visibility: inherit;" fill="rgb(0, 0, 0)" stroke="rgb(204, 204, 204)" stroke-width="1px"></line><line x1="70" y1="113.09999999999998" x2="65" y2="113.09999999999998" style="visibility: inherit;" fill="rgb(0, 0, 0)" stroke="rgb(204, 204, 204)" stroke-width="1px"></line><line x1="70" y1="75.39999999999993" x2="65" y2="75.39999999999993" style="visibility: inherit;" fill="rgb(0, 0, 0)" stroke="rgb(204, 204, 204)" stroke-width="1px"></line><line x1="70" y1="37.69999999999991" x2="65" y2="37.69999999999991" style="visibility: inherit;" fill="rgb(0, 0, 0)" stroke="rgb(204, 204, 204)" stroke-width="1px"></line><line x1="70" y1="0" x2="65" y2="0" style="visibility: inherit;" fill="rgb(0, 0, 0)" stroke="rgb(204, 204, 204)" stroke-width="1px"></line></g><g transform="translate(60, 0)"><text x="0" y="377" dx="0em" dy="0.3em" style="text-anchor: end; visibility: hidden; font-family: Roboto, sans-serif; font-size: 12px; font-weight: 200;" fill="rgb(33, 33, 33)" stroke="none" stroke-width="1px">5e-4</text><text x="0" y="339.3" dx="0em" dy="0.3em" style="text-anchor: end; visibility: inherit; font-family: Roboto, sans-serif; font-size: 12px; font-weight: 200;" fill="rgb(33, 33, 33)" stroke="none" stroke-width="1px">1e-3</text><text x="0" y="301.59999999999997" dx="0em" dy="0.3em" style="text-anchor: end; visibility: inherit; font-family: Roboto, sans-serif; font-size: 12px; font-weight: 200;" fill="rgb(33, 33, 33)" stroke="none" stroke-width="1px">1.5e-3</text><text x="0" y="263.9" dx="0em" dy="0.3em" style="text-anchor: end; visibility: inherit; font-family: Roboto, sans-serif; font-size: 12px; font-weight: 200;" fill="rgb(33, 33, 33)" stroke="none" stroke-width="1px">2e-3</text><text x="0" y="226.19999999999996" dx="0em" dy="0.3em" style="text-anchor: end; visibility: inherit; font-family: Roboto, sans-serif; font-size: 12px; font-weight: 200;" fill="rgb(33, 33, 33)" stroke="none" stroke-width="1px">2.5e-3</text><text x="0" y="188.49999999999997" dx="0em" dy="0.3em" style="text-anchor: end; visibility: inherit; font-family: Roboto, sans-serif; font-size: 12px; font-weight: 200;" fill="rgb(33, 33, 33)" stroke="none" stroke-width="1px">3e-3</text><text x="0" y="150.79999999999995" dx="0em" dy="0.3em" style="text-anchor: end; visibility: inherit; font-family: Roboto, sans-serif; font-size: 12px; font-weight: 200;" fill="rgb(33, 33, 33)" stroke="none" stroke-width="1px">3.5e-3</text><text x="0" y="113.09999999999998" dx="0em" dy="0.3em" style="text-anchor: end; visibility: inherit; font-family: Roboto, sans-serif; font-size: 12px; font-weight: 200;" fill="rgb(33, 33, 33)" stroke="none" stroke-width="1px">4e-3</text><text x="0" y="75.39999999999993" dx="0em" dy="0.3em" style="text-anchor: end; visibility: inherit; font-family: Roboto, sans-serif; font-size: 12px; font-weight: 200;" fill="rgb(33, 33, 33)" stroke="none" stroke-width="1px">4.5e-3</text><text x="0" y="37.69999999999991" dx="0em" dy="0.3em" style="text-anchor: end; visibility: inherit; font-family: Roboto, sans-serif; font-size: 12px; font-weight: 200;" fill="rgb(33, 33, 33)" stroke="none" stroke-width="1px">5e-3</text><text x="0" y="0" dx="0em" dy="0.3em" style="text-anchor: end; visibility: hidden; font-family: Roboto, sans-serif; font-size: 12px; font-weight: 200;" fill="rgb(33, 33, 33)" stroke="none" stroke-width="1px">5.5e-3</text></g><line x1="70" y1="0" x2="70" y2="377" fill="rgb(0, 0, 0)" stroke="rgb(204, 204, 204)" stroke-width="1px"></line></g></g><g transform="translate(70, 0)" clip-path="url(#clip_0)"><clipPath id="clip_0"><rect width="817" height="377"></rect></clipPath><g><g><g><line x1="0" y1="0" x2="0" y2="377" fill="rgb(0, 0, 0)" stroke="rgb(66, 66, 66)" stroke-width="1px" opacity="0.25"></line><line x1="68.08333333333333" y1="0" x2="68.08333333333333" y2="377" fill="rgb(0, 0, 0)" stroke="rgb(66, 66, 66)" stroke-width="1px" opacity="0.25"></line><line x1="136.16666666666666" y1="0" x2="136.16666666666666" y2="377" fill="rgb(0, 0, 0)" stroke="rgb(66, 66, 66)" stroke-width="1px" opacity="0.25"></line><line x1="204.25" y1="0" x2="204.25" y2="377" fill="rgb(0, 0, 0)" stroke="rgb(66, 66, 66)" stroke-width="1px" opacity="0.25"></line><line x1="272.3333333333333" y1="0" x2="272.3333333333333" y2="377" fill="rgb(0, 0, 0)" stroke="rgb(66, 66, 66)" stroke-width="1px" opacity="0.25"></line><line x1="340.4166666666667" y1="0" x2="340.4166666666667" y2="377" fill="rgb(0, 0, 0)" stroke="rgb(66, 66, 66)" stroke-width="1px" opacity="0.25"></line><line x1="408.5" y1="0" x2="408.5" y2="377" fill="rgb(0, 0, 0)" stroke="rgb(66, 66, 66)" stroke-width="1px" opacity="0.25"></line><line x1="476.58333333333337" y1="0" x2="476.58333333333337" y2="377" fill="rgb(0, 0, 0)" stroke="rgb(66, 66, 66)" stroke-width="1px" opacity="0.25"></line><line x1="544.6666666666666" y1="0" x2="544.6666666666666" y2="377" fill="rgb(0, 0, 0)" stroke="rgb(66, 66, 66)" stroke-width="1px" opacity="0.25"></line><line x1="612.75" y1="0" x2="612.75" y2="377" fill="rgb(0, 0, 0)" stroke="rgb(66, 66, 66)" stroke-width="1px" opacity="0.25"></line><line x1="680.8333333333334" y1="0" x2="680.8333333333334" y2="377" fill="rgb(0, 0, 0)" stroke="rgb(66, 66, 66)" stroke-width="1px" opacity="0.25"></line><line x1="748.9166666666666" y1="0" x2="748.9166666666666" y2="377" fill="rgb(0, 0, 0)" stroke="rgb(66, 66, 66)" stroke-width="1px" opacity="0.25"></line><line x1="817" y1="0" x2="817" y2="377" fill="rgb(0, 0, 0)" stroke="rgb(66, 66, 66)" stroke-width="1px" opacity="0.25"></line></g><g><line x1="0" y1="377" x2="817" y2="377" fill="rgb(0, 0, 0)" stroke="rgb(66, 66, 66)" stroke-width="1px" opacity="0.25"></line><line x1="0" y1="339.3" x2="817" y2="339.3" fill="rgb(0, 0, 0)" stroke="rgb(66, 66, 66)" stroke-width="1px" opacity="0.25"></line><line x1="0" y1="301.59999999999997" x2="817" y2="301.59999999999997" fill="rgb(0, 0, 0)" stroke="rgb(66, 66, 66)" stroke-width="1px" opacity="0.25"></line><line x1="0" y1="263.9" x2="817" y2="263.9" fill="rgb(0, 0, 0)" stroke="rgb(66, 66, 66)" stroke-width="1px" opacity="0.25"></line><line x1="0" y1="226.19999999999996" x2="817" y2="226.19999999999996" fill="rgb(0, 0, 0)" stroke="rgb(66, 66, 66)" stroke-width="1px" opacity="0.25"></line><line x1="0" y1="188.49999999999997" x2="817" y2="188.49999999999997" fill="rgb(0, 0, 0)" stroke="rgb(66, 66, 66)" stroke-width="1px" opacity="0.25"></line><line x1="0" y1="150.79999999999995" x2="817" y2="150.79999999999995" fill="rgb(0, 0, 0)" stroke="rgb(66, 66, 66)" stroke-width="1px" opacity="0.25"></line><line x1="0" y1="113.09999999999998" x2="817" y2="113.09999999999998" fill="rgb(0, 0, 0)" stroke="rgb(66, 66, 66)" stroke-width="1px" opacity="0.25"></line><line x1="0" y1="75.39999999999993" x2="817" y2="75.39999999999993" fill="rgb(0, 0, 0)" stroke="rgb(66, 66, 66)" stroke-width="1px" opacity="0.25"></line><line x1="0" y1="37.69999999999991" x2="817" y2="37.69999999999991" fill="rgb(0, 0, 0)" stroke="rgb(66, 66, 66)" stroke-width="1px" opacity="0.25"></line><line x1="0" y1="0" x2="817" y2="0" fill="rgb(0, 0, 0)" stroke="rgb(66, 66, 66)" stroke-width="1px" opacity="0.25"></line></g></g></g><g><g><line x1="0" y1="414.70000000000005" x2="817" y2="414.70000000000005" fill="rgb(0, 0, 0)" stroke="rgb(153, 153, 153)" stroke-width="1.5px"></line></g></g><g><g><line x1="68.08333333333333" y1="0" x2="68.08333333333333" y2="377" fill="rgb(0, 0, 0)" stroke="rgb(153, 153, 153)" stroke-width="1.5px"></line></g></g><g><g><g><g><g><path stroke="rgb(255, 112, 67)" stroke-width="2px" d="M81.7,-211.84375594732387L83.40208333333334,16.796059415749426L85.10416666666667,-34.454608970056945L91.91250000000001,-38.093125741901844L93.61458333333333,108.40438675806824L95.31666666666666,67.5316754602786L97.01875,164.26289628880417L98.72083333333333,198.44716680327247L100.42291666666667,234.32908981811184L102.125,263.3695515550085L103.82708333333333,181.3158373928251L105.52916666666668,189.6006774298223L107.23125,202.7741426957147L108.93333333333334,114.61026725545021L110.63541666666666,215.19127038980125L112.3375,144.23332897126747L114.03958333333334,119.56872800414374L115.74166666666666,217.11667032731307L117.44375,76.74955961865014L119.14583333333334,54.730866058511495L120.84791666666666,70.95759719819061L122.55,120.44837987797374L124.25208333333332,194.35753875753974L125.95416666666667,253.49156088739744L127.65625,293.72005392718734L129.35833333333332,290.1014114921614L131.06041666666667,265.83988715031165L132.76250000000002,156.21505645598532L134.46458333333334,218.90463704083805L136.16666666666666,147.73256109915621L137.86875,238.73368479164458L139.57083333333333,216.20425365230815L141.27291666666667,176.09008260217573L142.975,142.34478791271908L144.67708333333334,220.48968643558285L146.37916666666666,131.82355192813634L148.08124999999998,206.38405762892495L149.78333333333333,265.8195704322136L151.48541666666668,210.2640917069341L153.1875,154.78238878352116L154.88958333333332,239.6640557457528L156.59166666666667,267.26358635665946L158.29375000000002,233.05422850615358L159.99583333333334,221.9702543778146L161.69791666666666,147.12282260015314L163.4,200.9504796560511L165.10208333333333,9.18959284278553L166.80416666666667,28.6739479318443L168.50625,133.7270405770254L170.20833333333334,201.03064854210285L171.91041666666666,263.59245836494625L173.61249999999998,159.10123611574215L175.31458333333333,117.86194943418971L177.01666666666668,106.65021563369548L178.71875,197.0548234356853L180.42083333333332,259.40925561489405L182.12291666666667,280.4719262728199L183.82500000000002,175.37053676629685L185.52708333333334,-206.5235855997527L187.22916666666666,3.5395532330320343L188.93125,41.9479320681361L190.63333333333333,46.13224746681842L192.33541666666667,172.01622823650453L194.0375,180.33595461740978L195.73958333333334,256.97439206887714L197.44166666666666,176.1577994766797L199.14374999999998,236.79627634423767L200.84583333333333,214.36747641496535L202.54791666666668,265.11237738595264L204.25,316.1173108389988L205.95208333333332,278.89742902299844L207.65416666666667,201.08182155895875L209.35625,223.4759482904294L211.05833333333337,202.3356064852487L212.76041666666669,279.80386262125364L214.4625,283.28207032106275L216.16458333333333,239.13353141484828L217.86666666666667,289.1702063015516L219.56875,322.75237705701085L221.27083333333331,328.43541488986307L222.97291666666663,323.69720050612744L224.675,315.22379939649795L226.37708333333333,242.25728718977743L228.07916666666668,262.47414645718976L229.78125,224.07975752557778L231.48333333333332,248.44040608528533L233.18541666666667,172.0226607809858L234.8875,222.0096403629569L236.58958333333337,231.8868965641253L238.29166666666669,281.1205031091328L239.99375,275.91433395486206L241.69583333333333,318.6186344457634L243.39791666666667,264.6729462884646L245.1,279.9974656588006L246.80208333333331,294.7562375666897L248.50416666666663,255.71013216046694L250.20625,299.9258425160092L251.90833333333333,325.99921199944424L253.61041666666668,303.1496816724795L255.3125,273.85907297165744L257.01458333333335,308.326424527021L258.71666666666664,312.5159890582274L260.41875,253.9215282140738L262.12083333333334,208.62372552937666L263.8229166666667,260.4550672349268L265.52500000000003,285.2291667674145L267.2270833333333,256.26110815892577L268.9291666666667,222.4786345120666L270.63124999999997,284.3942909392802L272.3333333333333,316.7064702446737L274.03541666666666,331.7927166586654L275.7375,319.7337678727828L277.43958333333336,290.6130475282563L279.14166666666665,309.9097483082052L280.84375,241.7794852325878L282.54583333333335,225.86207389158375L284.24791666666664,276.08729925079564L285.95,125.65592733546147L287.65208333333334,229.9035211194064L289.3541666666667,288.1728578094247L291.05625000000003,264.0133102872135L292.7583333333333,230.3917688261367L294.4604166666667,279.50425596581533L296.16249999999997,327.6013613422573L297.8645833333333,334.5442651199466L299.56666666666666,281.9075896481971L301.26875,234.61759605454205L302.97083333333336,245.02275243697642L304.67291666666665,297.67800871192264L306.375,297.4165950236252L308.07708333333335,252.57741924584093L309.77916666666664,237.2885795966398L311.48125,253.14640905465848L313.18333333333334,226.88941361714103L314.8854166666667,287.9512725623843L316.58750000000003,249.07001510232067L318.2895833333333,296.1375504424088L319.9916666666667,264.97181138514946L321.69374999999997,250.37271963831472L323.3958333333333,276.04777460330234L325.09791666666666,303.75754752972574L326.8,290.48427477303954L328.50208333333336,289.17254827729647L330.20416666666665,225.12473263583655L331.90625,200.7809968980674L333.60833333333335,225.0638401000216L335.31041666666664,245.58489665983703L337.0125,273.78953844024886L338.71458333333334,270.64942976766315L340.4166666666667,304.9149541185185L342.11875000000003,295.90700007525885L343.8208333333333,317.93599009721163L345.5229166666667,341.15533785750677L347.22499999999997,355.0776825129924L348.9270833333333,345.5697992863469L350.62916666666666,338.5720276256479L352.33125,343.6258928468497L354.03333333333336,317.32643187094754L355.73541666666665,273.7793799689354L357.4375,311.6125552709962L359.13958333333335,335.0450819236302L360.84166666666664,282.61547105132126L362.54375,296.21272334966704L364.24583333333334,240.8682828415253L365.9479166666667,290.10797166947685L367.65000000000003,237.2175380583057L369.3520833333333,215.29881403299865L371.0541666666667,273.95082483628505L372.75624999999997,316.41798132353495L374.4583333333333,313.5225726317225L376.16041666666666,310.51228834947096L377.8625,310.7897261857846L379.56458333333336,337.98391002717517L381.26666666666665,353.7160579825366L382.96875,288.8185369138374L384.67083333333335,286.07295994055L386.37291666666664,310.16917446377414L388.075,326.5054185106458L389.77708333333334,349.60923591686645L391.4791666666667,355.6227163239322L393.18125000000003,298.0051802415551L394.8833333333333,280.47760397338277L396.5854166666667,313.74903139103L398.28749999999997,326.3060732945266L399.9895833333333,283.85025147166624L401.69166666666666,289.53014086927044L403.39375,249.07695487242975L405.09583333333336,230.8124764913442L406.79791666666665,274.6794481677784L408.5,224.47735631811457L410.20208333333335,13.310724065588888L411.90416666666664,151.57676951241464L413.60625,239.3214032365872L415.30833333333334,223.03136963883003L417.01041666666663,264.26008145534377L418.7125,308.957355551859L420.41458333333327,335.9336591960879L422.11666666666673,254.60931577351042L423.81875,304.7239662760353L425.52083333333337,322.716238982572L427.22291666666666,297.15469395076866L428.925,335.47220718891924L430.62708333333336,286.33275018457476L432.32916666666665,244.21458009406268L434.03125,253.0015503351351L435.73333333333335,257.1704298482514L437.43541666666664,294.01662251874365L439.1375,153.5238865528974L440.83958333333334,242.44154591583302L442.54166666666663,252.67650096691006L444.24375,245.03751084507317L445.94583333333327,247.12860719398145L447.64791666666673,294.296807577598L449.35,313.96101249341694L451.05208333333337,271.17251297166655L452.75416666666666,302.9887082830412L454.45625,317.74541166151124L456.15833333333336,291.7704391071174L457.86041666666665,263.54597394430476L459.5625,269.8547691363921L461.26458333333335,307.7418475008431L462.96666666666664,328.06215040770456L464.66875,345.53934360258154L466.37083333333334,295.58355512402875L468.07291666666663,237.59145339865935L469.775,275.51216197067174L471.47708333333327,245.31118698628947L473.17916666666673,304.237462081926L474.88125,318.88427161062776L476.58333333333337,310.32227617836014L478.28541666666666,321.5573647209168L479.9875,285.2906185339785L481.68958333333336,319.3397321449382L483.39166666666665,331.12552075787113L485.09375,342.62120995113986L486.79583333333335,300.0263642459496L488.49791666666664,279.7720254596701L490.2,278.2364760878164L491.90208333333334,321.8526698163139L493.60416666666663,211.50879514759697L495.30625,205.13324549553343L497.00833333333327,92.14205510352575L498.71041666666673,196.3749813879849L500.4125,230.5828704845352L502.11458333333337,263.49349035644195L503.81666666666666,231.94978301747832L505.51875,265.51061628505107L507.22083333333336,294.98565027293273L508.92291666666665,329.7445013158498L510.625,292.4090142019378L512.3270833333333,323.86426294041644L514.0291666666667,256.6154223829089L515.7312499999999,310.1994265082227L517.4333333333333,290.31304001690427L519.1354166666666,265.0715935755162L520.8375,244.53094475989872L522.5395833333333,288.1585846428593L524.2416666666667,259.44873296705003L525.94375,276.65873289800953L527.6458333333334,325.0179283798975L529.3479166666667,336.4727436806257L531.0500000000001,305.0382754957971L532.7520833333333,317.7641432802407L534.4541666666667,333.5203654734733L536.15625,317.61186134433393L537.8583333333333,138.82610965469863L539.5604166666667,212.4565728053414L541.2624999999999,279.93344289297016L542.9645833333333,198.29576632698868L544.6666666666666,275.58495525417027L546.36875,265.66444560705L548.0708333333333,312.24003142114503L549.7729166666667,309.2395161404224L551.475,266.56956429892847L553.1770833333334,296.5064482866321L554.8791666666667,279.8520469402429L556.5812500000001,302.0367828422878L558.2833333333333,265.68376082891785L559.9854166666667,307.70571906202775L561.6875,263.26074332898105L563.3895833333333,288.59407018210135L565.0916666666667,226.98214439011005L566.7937499999999,221.01652395431032L568.4958333333333,210.7583426349093L570.1979166666666,221.35385659666235L571.9,275.3820096552752L573.6020833333333,313.71914917281316L575.3041666666667,296.4959252896222L577.00625,325.2558755013607L578.7083333333334,175.23328086514843L580.4104166666667,204.0724254754458L582.1125000000001,167.7787263877555L583.8145833333333,185.17631257428908L585.5166666666667,135.36344697716345L587.21875,178.00318701307484L588.9208333333333,188.67525172034206L590.6229166666667,202.25655498042286L592.3249999999999,200.8168135783647L594.0270833333333,257.4823954757496L595.7291666666666,271.8030163596687L597.43125,306.9961724923546L599.1333333333333,331.9011653427926L600.8354166666667,354.3546006994857L602.5375,350.5497500429251L604.2395833333334,349.66193460246615L605.9416666666667,279.51354018521715L607.6437500000001,289.1291964220101L609.3458333333333,326.2161132975612L611.0479166666667,336.2096301804375L612.75,303.493078964674L614.4520833333333,297.192916416063L616.1541666666667,270.29207812305333L617.8562499999999,285.56632288832094L619.5583333333333,288.743860518343L621.2604166666666,315.453223769721L622.9625,350.26201304181313L624.6645833333333,355.0963213592553L626.3666666666667,333.12453388264976L628.06875,290.7708840289188L629.7708333333334,318.7423111359609L631.4729166666667,324.8027774059971L633.1750000000001,283.14745785335896L634.8770833333333,318.25009140556426L636.5791666666667,273.05310365325437L638.28125,213.94044081161152L639.9833333333333,234.89633389913874L641.6854166666667,189.44631382095122L643.3874999999999,267.4241492887314L645.0895833333333,283.4034917582557L646.7916666666666,297.6239683350614L648.49375,315.1371999884436L650.1958333333333,324.383070301848L651.8979166666667,290.5809797472283L653.6,306.1316196091637L655.3020833333334,297.80243418091027L657.0041666666667,321.17459170664694L658.7062500000001,312.0363413710615L660.4083333333333,239.60030061001896L662.1104166666667,243.4088005776424L663.8125,280.7245262815189L665.5145833333333,314.09282951592695L667.2166666666667,278.7931141881006L668.9187499999999,318.85514370240537L670.6208333333333,319.05954166278406L672.3229166666666,320.0223903664211L674.025,331.91145496615076L675.7270833333333,246.96682736485184L677.4291666666667,297.42112431624673L679.13125,240.4615037485906L680.8333333333334,247.3484873279898L682.5354166666667,98.15663126617481L684.2375000000001,166.94250381661837L685.9395833333333,95.35398101045715L687.6416666666667,212.1791403602043L689.34375,283.5830380825239L691.0458333333333,321.04047135434524L692.7479166666667,261.6345477095066L694.4499999999999,294.89330566724055L696.1520833333333,333.84739759391124L697.8541666666666,279.3668069161509L699.55625,298.35989498444104L701.2583333333333,245.92878438024343L702.9604166666667,283.56525198914784L704.6625,265.6087011670957L706.3645833333334,309.7384211346293L708.0666666666667,333.25472747283635L709.7687500000001,262.91078946097167L711.4708333333333,271.00651437433646L713.1729166666667,318.2249275746097L714.875,336.2555671398133L716.5770833333333,328.70802474174144L718.2791666666667,280.2678024721339L719.9812499999999,247.85650859219993L721.6833333333333,252.9232366203854L723.3854166666666,293.14409004764053L725.0875,268.92567935461574L726.7895833333333,80.87162435754988L728.4916666666667,209.08812375960974L730.19375,264.5719289496063L731.8958333333334,310.6962456082452L733.5979166666667,321.1073861147552L735.3000000000001,201.3537527296298L737.0020833333333,245.4949438760193L738.7041666666667,251.11936907959054L740.40625,231.18191520075243L742.1083333333333,197.72335889488602L743.8104166666667,264.47396998893555L745.5124999999999,310.6169602223528L747.2145833333333,254.75614885409428L748.9166666666666,268.237747505872" style="fill: none;" fill="none"></path></g></g></g></g><g opacity="0.2"><g><g><g><path stroke="rgb(255, 112, 67)" stroke-width="2px" d="M73.18958333333333,-416.5341166660191L74.89166666666667,195.4289157994091L76.59375,-646.9423308849337L79.99791666666667,-226.68610959053044L81.7,182.23829196095465L83.40208333333334,356.29953863127156L85.10416666666667,-110.86577175855642L86.80624999999999,-723.6022613823416L88.50833333333334,235.5008537534624L90.21041666666666,-252.98590006977324L91.91250000000001,139.24407704062756L93.61458333333333,328.0473341120407L95.31666666666666,6.2399044752120885L97.01875,309.335167485103L98.72083333333333,249.71836494542657L100.42291666666667,288.1486945904791L102.125,306.9286515124142L103.82708333333333,58.23796616196631L105.52916666666668,202.02777391560372L107.23125,222.53418454229828L108.93333333333334,-17.634919273853352L110.63541666666666,366.06234615929424L112.3375,37.79659840539097L114.03958333333334,82.57186441943044L115.74166666666666,363.43849395662545L117.44375,-133.80102886557583L119.14583333333334,21.702833019942037L120.84791666666666,95.29769067913288L122.55,194.6845479894429L124.25208333333332,305.2212717829272L125.95416666666667,342.1925915407948L127.65625,354.06279244953765L129.35833333333332,284.67344789560883L131.06041666666667,229.44760086275633L132.76250000000002,-8.222188974916985L134.46458333333334,312.93900770861654L136.16666666666666,40.974447329342354L137.86875,375.23537022089585L139.57083333333333,182.41010695956646L141.27291666666667,115.91882604435081L142.975,91.7268458873033L144.67708333333334,337.7070342076942L146.37916666666666,-1.1756498247385527L148.08124999999998,318.22481617592274L149.78333333333333,354.9728396351449L151.48541666666668,126.93087362013752L153.1875,71.5598343990743L154.88958333333332,366.9865561884828L156.59166666666667,308.66288227289914L158.29375000000002,181.74019173048436L159.99583333333334,205.34429318532344L161.69791666666666,34.851674933731545L163.4,281.69196523986756L165.10208333333333,-278.4517373770476L166.80416666666667,57.90048056542872L168.50625,291.3066795447841L170.20833333333334,301.98606048971413L171.91041666666666,357.4351730992086L173.61249999999998,2.364402741938821L175.31458333333333,56.003019411861885L177.01666666666668,89.83261493295426L178.71875,332.6617351386696L180.42083333333332,352.94090388370677L182.12291666666667,312.06593225970863L183.82500000000002,17.718452506512396L185.52708333333334,-779.3647691488268L187.22916666666666,318.63426148220896L188.93125,99.56050032079214L190.63333333333333,52.40872056484221L192.33541666666667,360.8421993910335L194.0375,192.81554418876763L195.73958333333334,371.9320482460782L197.44166666666666,54.93291058838366L199.14374999999998,327.75399164557456L200.84583333333333,180.72427652105688L202.54791666666668,341.22972884243353L204.25,392.62471101856795L205.95208333333332,223.06760629899796L207.65416666666667,84.35841036289925L209.35625,257.06713838763534L211.05833333333337,170.6250937774777L212.76041666666669,396.0062468252611L214.4625,288.4993818707764L216.16458333333333,172.91072305552657L217.86666666666667,364.22521863160654L219.56875,373.1256331901997L221.27083333333331,336.95997163914143L222.97291666666663,316.589878930524L224.675,302.5136977320537L226.37708333333333,132.8075188796967L228.07916666666668,292.79943535830824L229.78125,166.48817412815984L231.48333333333332,284.98137892484664L233.18541666666667,57.39604282453655L234.8875,296.99010973591356L236.58958333333337,246.70278086587783L238.29166666666669,354.9709129266441L239.99375,268.105080223456L241.69583333333333,382.6750851821155L243.39791666666667,183.7544140525162L245.1,302.9842447143048L246.80208333333331,316.8943954285234L248.50416666666663,197.14097405113276L250.20625,366.24940804932265L251.90833333333333,365.10926622459664L253.61041666666668,268.8753861820325L255.3125,229.92315992042418L257.01458333333335,360.0274518600665L258.71666666666664,318.80033585503696L260.41875,166.0298369478434L262.12083333333334,140.67702150233086L263.8229166666667,338.20207979325204L265.52500000000003,322.3903160661459L267.2270833333333,212.80902024619277L268.9291666666667,171.8049240417778L270.63124999999997,377.26777558010076L272.3333333333333,365.1747392027639L274.03541666666666,354.422086279653L275.7375,301.64534469395875L277.43958333333336,246.93196701146658L279.14166666666665,338.85479947812854L280.84375,139.58409061916169L282.54583333333335,201.98595688007768L284.24791666666664,351.4251372896135L285.95,-99.99113053753977L287.65208333333334,386.27491179532376L289.3541666666667,375.57686284445225L291.05625000000003,227.77398900389667L292.7583333333333,179.95945663452147L294.4604166666667,353.1729866753332L296.16249999999997,399.74701940692034L297.8645833333333,344.9586207864806L299.56666666666666,202.9525764405727L301.26875,163.68260566405948L302.97083333333336,260.630487010628L304.67291666666665,376.66089312434195L306.375,297.024474491179L308.07708333333335,185.3186555791646L309.77916666666664,214.35532012283798L311.48125,276.9331532416865L313.18333333333334,187.5039204608649L314.8854166666667,379.54406098024924L316.58750000000003,190.74812891222533L318.2895833333333,366.7388534525409L319.9916666666667,218.22320279926058L321.69374999999997,228.47408201806243L323.3958333333333,314.5603570507839L325.09791666666666,345.3222069193609L326.8,270.5743656380102L328.50208333333336,287.2049585336819L330.20416666666665,129.05300917364653L331.90625,164.26539329141374L333.60833333333335,261.4881049029529L335.31041666666664,276.36648149956017L337.0125,316.09650111086665L338.71458333333334,265.93926675878464L340.4166666666667,356.3132406448014L342.11875000000003,282.39506901036947L343.8208333333333,350.97947513014077L345.5229166666667,375.98435949794947L347.22499999999997,375.9611994962208L348.9270833333333,331.30797444637864L350.62916666666666,328.0753701345995L352.33125,351.20669067865236L354.03333333333336,277.87724040709435L355.73541666666665,208.45880211591717L357.4375,368.36231822408735L359.13958333333335,370.1938719025813L360.84166666666664,203.97105474285777L362.54375,316.6086017971858L364.24583333333334,157.85162207931276L365.9479166666667,363.9675049114041L367.65000000000003,157.88188764154907L369.3520833333333,182.42072799503802L371.0541666666667,361.92884104121475L372.75624999999997,380.1187160544098L374.4583333333333,309.17945959400384L376.16041666666666,305.9968619260937L377.8625,311.2058829402551L379.56458333333336,378.77518578926106L381.26666666666665,377.3142799155787L382.96875,191.4722553107887L384.67083333333335,281.9545944806188L386.37291666666664,346.3134962486103L388.075,351.0097845809534L389.77708333333334,384.2649620261975L391.4791666666667,364.6429369345307L393.18125000000003,211.57887611798938L394.8833333333333,254.1862395711243L396.5854166666667,363.6561725175008L398.28749999999997,345.1416361497715L399.9895833333333,220.1665187373757L401.69166666666666,298.04997496567665L403.39375,188.39717587716876L405.09583333333336,203.41575891971584L406.79791666666665,340.47990568242966L408.5,149.17421854361888L410.20208333333335,-303.4392243131996L411.90416666666664,358.9758376826532L413.60625,370.93835382284595L415.30833333333334,198.59631924219426L417.01041666666663,326.10314918011426L418.7125,376.0032666966319L420.41458333333327,376.39811466243117L422.11666666666673,132.62280063964423L423.81875,379.89594202982266L425.52083333333337,349.7046480423771L427.22291666666666,258.8123764030635L428.925,392.9484770461452L430.62708333333336,212.623564678058L432.32916666666665,181.03732495829462L434.03125,266.1820056967437L435.73333333333335,263.42374911792575L437.43541666666664,349.28591152448206L439.1375,-57.215217395871925L440.83958333333334,375.8180349602364L442.54166666666663,268.0289335435256L444.24375,233.57902566231783L445.94583333333327,250.26525171734392L447.64791666666673,365.0491081530228L449.35,343.45731986714526L451.05208333333337,206.9897636890411L452.75416666666666,350.7130012501031L454.45625,339.88046672921627L456.15833333333336,252.80798027552663L457.86041666666665,221.20927620008584L459.5625,279.3179619245231L461.26458333333335,364.57246504751964L462.96666666666664,358.5426047679968L464.66875,371.755133394897L466.37083333333334,220.64987240619953L468.07291666666663,150.60330081060525L469.775,332.3932248286903L471.47708333333327,200.009724509716L473.17916666666673,392.62687472538096L474.88125,340.8544859036803L476.58333333333337,297.4792830299586L478.28541666666666,338.4099975347519L479.9875,230.890499253571L481.68958333333336,370.4134025613777L483.39166666666665,348.80420367727055L485.09375,359.8647437410429L486.79583333333335,236.1340956881642L488.49791666666664,249.39051728025078L490.2,275.93315203003584L491.90208333333334,387.27696040906017L493.60416666666663,45.9929831445217L495.30625,195.56992101743813L497.00833333333327,-77.34473048448568L498.71041666666673,352.7243708146736L500.4125,281.8947041293606L502.11458333333337,312.859420164302L503.81666666666666,184.63422200903295L505.51875,315.8518661864102L507.22083333333336,339.19820125475525L508.92291666666665,381.8827778802254L510.625,236.40578353106972L512.3270833333333,371.0471360481344L514.0291666666667,155.7421615466475L515.7312499999999,390.5754326961935L517.4333333333333,260.48346027992665L519.1354166666666,227.2094239134341L520.8375,213.7199715364724L522.5395833333333,353.60004446730017L524.2416666666667,216.3839554533362L525.94375,302.4737327944487L527.6458333333334,397.55672160272957L529.3479166666667,353.65496663171797L531.0500000000001,257.88657321855425L532.7520833333333,336.85294495690613L534.4541666666667,357.1546987633221L536.15625,293.7491051506251L537.8583333333333,-129.35251787975434L539.5604166666667,322.90226753130554L541.2624999999999,381.1487480244134L542.9645833333333,75.83925147801637L544.6666666666666,391.5187386449427L546.36875,250.7836811363697L548.0708333333333,382.10341014228766L549.7729166666667,304.73874321933835L551.475,202.56463653668757L553.1770833333334,341.41177426818757L554.8791666666667,254.87044492065905L556.5812500000001,335.31388669535517L558.2833333333333,211.15422780886288L559.9854166666667,370.7386564116925L561.6875,196.59327972941097L563.3895833333333,326.5940604617819L565.0916666666667,134.564255702123L566.7937499999999,212.06809330061074L568.4958333333333,195.3710706558078L570.1979166666666,237.24712753929194L571.9,356.42423924319445L573.6020833333333,371.22485844912006L575.3041666666667,270.6610894648358L577.00625,368.39580081896855L578.7083333333334,-49.800611089170026L580.4104166666667,247.33114239089187L582.1125000000001,113.33817775622005L583.8145833333333,211.27269185408946L585.5166666666667,60.64414858147501L587.21875,241.96279706694182L588.9208333333333,204.68334878124293L590.6229166666667,222.62850987054404L592.3249999999999,198.6572014752775L594.0270833333333,342.48076832182704L595.7291666666666,293.28394768554716L597.43125,359.78590669138356L599.1333333333333,369.2586546184495L600.8354166666667,388.03475373452534L602.5375,344.8424740580842L604.2395833333334,348.33021144177764L605.9416666666667,174.29094855934378L607.6437500000001,303.55268077719955L609.3458333333333,381.84648861088795L611.0479166666667,351.19990550475194L612.75,254.41825214102863L614.4520833333333,287.74267259314655L616.1541666666667,229.94082068353887L617.8562499999999,308.4776900362223L619.5583333333333,293.5101669633761L621.2604166666666,355.51726864678784L622.9625,402.4751969499514L624.6645833333333,362.3477838354185L626.3666666666667,300.16685266774147L628.06875,227.2404092483222L629.7708333333334,360.6994517965242L631.4729166666667,333.89347681105136L633.1750000000001,220.66447852440174L634.8770833333333,370.90404173387213L636.5791666666667,205.2576220247894L638.28125,125.27144654914731L639.9833333333333,266.3301735304296L641.6854166666667,121.27128370366985L643.3874999999999,384.3909024904017L645.0895833333333,307.37250546254216L646.7916666666666,318.9546832002699L648.49375,341.40704746851696L650.1958333333333,338.25187577195464L651.8979166666667,239.87784391529854L653.6,329.45757940206676L655.3020833333334,285.30865603853016L657.0041666666667,356.23282799525185L658.7062500000001,298.3289658676833L660.4083333333333,130.94623946845527L662.1104166666667,249.12155052907764L663.8125,336.69811483733355L665.5145833333333,364.145284367539L667.2166666666667,225.84354119636114L668.9187499999999,378.94818797386256L670.6208333333333,319.366138603352L672.3229166666666,321.4666634218767L674.025,349.7450518657453L675.7270833333333,119.54988596290345L677.4291666666667,373.10256974333896L679.13125,155.02207289710637L680.8333333333334,257.6789626970887L682.5354166666667,-125.63115282654768L684.2375000000001,270.1213126422837L685.9395833333333,-12.02880319878464L691.0458333333333,377.2266212620773L692.7479166666667,172.52566224224861L694.4499999999999,344.7814426038414L696.1520833333333,392.27853548391727L697.8541666666666,197.64592089951034L699.55625,326.8495270868763L701.2583333333333,167.282118473947L702.9604166666667,340.0199534025043L704.6625,238.67387493401762L706.3645833333334,375.93300108592956L708.0666666666667,368.5291869801469L709.7687500000001,157.39488244317468L711.4708333333333,283.15010174438356L713.1729166666667,389.0525473750197L714.875,363.3015264876187L716.5770833333333,317.3867111446336L718.2791666666667,207.60746906772252L719.9812499999999,199.239567772299L721.6833333333333,260.5233286626637L723.3854166666666,353.4753701885231L725.0875,232.59806331507858L726.7895833333333,-201.2094581380487L728.4916666666667,401.4128728626995L730.19375,347.7976367346011L731.8958333333334,379.8827205962036L733.5979166666667,336.72409687452017L735.3000000000001,21.72330265194177L737.0020833333333,311.7067305956036L738.7041666666667,259.5560068849474L740.40625,201.27573438249524L742.1083333333333,147.53552443608638L743.8104166666667,364.59988663000985L745.5124999999999,379.83144557247874L747.2145833333333,170.9649318017065L748.9166666666666,288.4601454835385" style="fill: none;" fill="none"></path></g></g></g></g></g></g><g transform="translate(70, 377)" clip-path="url(#clip_1)"><clipPath id="clip_1"><rect width="817" height="23"></rect></clipPath><g><g><line x1="0" y1="0" x2="0" y2="5" style="visibility: inherit;" fill="rgb(0, 0, 0)" stroke="rgb(204, 204, 204)" stroke-width="1px"></line><line x1="68.08333333333333" y1="0" x2="68.08333333333333" y2="5" style="visibility: inherit;" fill="rgb(0, 0, 0)" stroke="rgb(204, 204, 204)" stroke-width="1px"></line><line x1="136.16666666666666" y1="0" x2="136.16666666666666" y2="5" style="visibility: inherit;" fill="rgb(0, 0, 0)" stroke="rgb(204, 204, 204)" stroke-width="1px"></line><line x1="204.25" y1="0" x2="204.25" y2="5" style="visibility: inherit;" fill="rgb(0, 0, 0)" stroke="rgb(204, 204, 204)" stroke-width="1px"></line><line x1="272.3333333333333" y1="0" x2="272.3333333333333" y2="5" style="visibility: inherit;" fill="rgb(0, 0, 0)" stroke="rgb(204, 204, 204)" stroke-width="1px"></line><line x1="340.4166666666667" y1="0" x2="340.4166666666667" y2="5" style="visibility: inherit;" fill="rgb(0, 0, 0)" stroke="rgb(204, 204, 204)" stroke-width="1px"></line><line x1="408.5" y1="0" x2="408.5" y2="5" style="visibility: inherit;" fill="rgb(0, 0, 0)" stroke="rgb(204, 204, 204)" stroke-width="1px"></line><line x1="476.58333333333337" y1="0" x2="476.58333333333337" y2="5" style="visibility: inherit;" fill="rgb(0, 0, 0)" stroke="rgb(204, 204, 204)" stroke-width="1px"></line><line x1="544.6666666666666" y1="0" x2="544.6666666666666" y2="5" style="visibility: inherit;" fill="rgb(0, 0, 0)" stroke="rgb(204, 204, 204)" stroke-width="1px"></line><line x1="612.75" y1="0" x2="612.75" y2="5" style="visibility: inherit;" fill="rgb(0, 0, 0)" stroke="rgb(204, 204, 204)" stroke-width="1px"></line><line x1="680.8333333333334" y1="0" x2="680.8333333333334" y2="5" style="visibility: inherit;" fill="rgb(0, 0, 0)" stroke="rgb(204, 204, 204)" stroke-width="1px"></line><line x1="748.9166666666666" y1="0" x2="748.9166666666666" y2="5" style="visibility: inherit;" fill="rgb(0, 0, 0)" stroke="rgb(204, 204, 204)" stroke-width="1px"></line><line x1="817" y1="0" x2="817" y2="5" style="visibility: inherit;" fill="rgb(0, 0, 0)" stroke="rgb(204, 204, 204)" stroke-width="1px"></line></g><g transform="translate(0, 8)"><text x="0" y="0" dx="0em" dy="0.95em" style="text-anchor: middle; visibility: hidden; font-family: Roboto, sans-serif; font-size: 12px; font-weight: 200;" fill="rgb(33, 33, 33)" stroke="none" stroke-width="1px">-20k</text><text x="68.08333333333333" y="0" dx="0em" dy="0.95em" style="text-anchor: middle; visibility: inherit; font-family: Roboto, sans-serif; font-size: 12px; font-weight: 200;" fill="rgb(33, 33, 33)" stroke="none" stroke-width="1px">0</text><text x="136.16666666666666" y="0" dx="0em" dy="0.95em" style="text-anchor: middle; visibility: inherit; font-family: Roboto, sans-serif; font-size: 12px; font-weight: 200;" fill="rgb(33, 33, 33)" stroke="none" stroke-width="1px">20k</text><text x="204.25" y="0" dx="0em" dy="0.95em" style="text-anchor: middle; visibility: inherit; font-family: Roboto, sans-serif; font-size: 12px; font-weight: 200;" fill="rgb(33, 33, 33)" stroke="none" stroke-width="1px">40k</text><text x="272.3333333333333" y="0" dx="0em" dy="0.95em" style="text-anchor: middle; visibility: inherit; font-family: Roboto, sans-serif; font-size: 12px; font-weight: 200;" fill="rgb(33, 33, 33)" stroke="none" stroke-width="1px">60k</text><text x="340.4166666666667" y="0" dx="0em" dy="0.95em" style="text-anchor: middle; visibility: inherit; font-family: Roboto, sans-serif; font-size: 12px; font-weight: 200;" fill="rgb(33, 33, 33)" stroke="none" stroke-width="1px">80k</text><text x="408.5" y="0" dx="0em" dy="0.95em" style="text-anchor: middle; visibility: inherit; font-family: Roboto, sans-serif; font-size: 12px; font-weight: 200;" fill="rgb(33, 33, 33)" stroke="none" stroke-width="1px">100k</text><text x="476.58333333333337" y="0" dx="0em" dy="0.95em" style="text-anchor: middle; visibility: inherit; font-family: Roboto, sans-serif; font-size: 12px; font-weight: 200;" fill="rgb(33, 33, 33)" stroke="none" stroke-width="1px">120k</text><text x="544.6666666666666" y="0" dx="0em" dy="0.95em" style="text-anchor: middle; visibility: inherit; font-family: Roboto, sans-serif; font-size: 12px; font-weight: 200;" fill="rgb(33, 33, 33)" stroke="none" stroke-width="1px">140k</text><text x="612.75" y="0" dx="0em" dy="0.95em" style="text-anchor: middle; visibility: inherit; font-family: Roboto, sans-serif; font-size: 12px; font-weight: 200;" fill="rgb(33, 33, 33)" stroke="none" stroke-width="1px">160k</text><text x="680.8333333333334" y="0" dx="0em" dy="0.95em" style="text-anchor: middle; visibility: inherit; font-family: Roboto, sans-serif; font-size: 12px; font-weight: 200;" fill="rgb(33, 33, 33)" stroke="none" stroke-width="1px">180k</text><text x="748.9166666666666" y="0" dx="0em" dy="0.95em" style="text-anchor: middle; visibility: inherit; font-family: Roboto, sans-serif; font-size: 12px; font-weight: 200;" fill="rgb(33, 33, 33)" stroke="none" stroke-width="1px">200k</text><text x="817" y="0" dx="0em" dy="0.95em" style="text-anchor: middle; visibility: hidden; font-family: Roboto, sans-serif; font-size: 12px; font-weight: 200;" fill="rgb(33, 33, 33)" stroke="none" stroke-width="1px">220k</text></g><line x1="0" y1="0" x2="817" y2="0" fill="rgb(0, 0, 0)" stroke="rgb(204, 204, 204)" stroke-width="1px"></line></g></g></g></g></svg>