<svg viewBox="0 0 1112.5999755859375 400" xmlns="http://www.w3.org/2000/svg"><g><g><g><g><g><line x1="51.5625" y1="372.9147303594705" x2="46.5625" y2="372.9147303594705" style="visibility: inherit;" fill="rgb(0, 0, 0)" stroke="rgb(204, 204, 204)" stroke-width="1px"></line><line x1="51.5625" y1="336.70919855663857" x2="46.5625" y2="336.70919855663857" style="visibility: inherit;" fill="rgb(0, 0, 0)" stroke="rgb(204, 204, 204)" stroke-width="1px"></line><line x1="51.5625" y1="300.5036667538067" x2="46.5625" y2="300.5036667538067" style="visibility: inherit;" fill="rgb(0, 0, 0)" stroke="rgb(204, 204, 204)" stroke-width="1px"></line><line x1="51.5625" y1="264.29813495097477" x2="46.5625" y2="264.29813495097477" style="visibility: inherit;" fill="rgb(0, 0, 0)" stroke="rgb(204, 204, 204)" stroke-width="1px"></line><line x1="51.5625" y1="228.0926031481429" x2="46.5625" y2="228.0926031481429" style="visibility: inherit;" fill="rgb(0, 0, 0)" stroke="rgb(204, 204, 204)" stroke-width="1px"></line><line x1="51.5625" y1="191.88707134531094" x2="46.5625" y2="191.88707134531094" style="visibility: inherit;" fill="rgb(0, 0, 0)" stroke="rgb(204, 204, 204)" stroke-width="1px"></line><line x1="51.5625" y1="155.68153954247907" x2="46.5625" y2="155.68153954247907" style="visibility: inherit;" fill="rgb(0, 0, 0)" stroke="rgb(204, 204, 204)" stroke-width="1px"></line><line x1="51.5625" y1="119.47600773964716" x2="46.5625" y2="119.47600773964716" style="visibility: inherit;" fill="rgb(0, 0, 0)" stroke="rgb(204, 204, 204)" stroke-width="1px"></line><line x1="51.5625" y1="83.2704759368152" x2="46.5625" y2="83.2704759368152" style="visibility: inherit;" fill="rgb(0, 0, 0)" stroke="rgb(204, 204, 204)" stroke-width="1px"></line><line x1="51.5625" y1="47.06494413398333" x2="46.5625" y2="47.06494413398333" style="visibility: inherit;" fill="rgb(0, 0, 0)" stroke="rgb(204, 204, 204)" stroke-width="1px"></line><line x1="51.5625" y1="10.859412331151377" x2="46.5625" y2="10.859412331151377" style="visibility: inherit;" fill="rgb(0, 0, 0)" stroke="rgb(204, 204, 204)" stroke-width="1px"></line></g><g transform="translate(41.5625, 0)"><text x="0" y="372.9147303594705" dx="0em" dy="0.3em" style="text-anchor: end; visibility: inherit; font-family: Roboto, sans-serif; font-size: 12px; font-weight: 200;" fill="rgb(50, 49, 63)" stroke="none" stroke-width="1px">0</text><text x="0" y="336.70919855663857" dx="0em" dy="0.3em" style="text-anchor: end; visibility: inherit; font-family: Roboto, sans-serif; font-size: 12px; font-weight: 200;" fill="rgb(50, 49, 63)" stroke="none" stroke-width="1px">1e-3</text><text x="0" y="300.5036667538067" dx="0em" dy="0.3em" style="text-anchor: end; visibility: inherit; font-family: Roboto, sans-serif; font-size: 12px; font-weight: 200;" fill="rgb(50, 49, 63)" stroke="none" stroke-width="1px">2e-3</text><text x="0" y="264.29813495097477" dx="0em" dy="0.3em" style="text-anchor: end; visibility: inherit; font-family: Roboto, sans-serif; font-size: 12px; font-weight: 200;" fill="rgb(50, 49, 63)" stroke="none" stroke-width="1px">3e-3</text><text x="0" y="228.0926031481429" dx="0em" dy="0.3em" style="text-anchor: end; visibility: inherit; font-family: Roboto, sans-serif; font-size: 12px; font-weight: 200;" fill="rgb(50, 49, 63)" stroke="none" stroke-width="1px">4e-3</text><text x="0" y="191.88707134531094" dx="0em" dy="0.3em" style="text-anchor: end; visibility: inherit; font-family: Roboto, sans-serif; font-size: 12px; font-weight: 200;" fill="rgb(50, 49, 63)" stroke="none" stroke-width="1px">5e-3</text><text x="0" y="155.68153954247907" dx="0em" dy="0.3em" style="text-anchor: end; visibility: inherit; font-family: Roboto, sans-serif; font-size: 12px; font-weight: 200;" fill="rgb(50, 49, 63)" stroke="none" stroke-width="1px">6e-3</text><text x="0" y="119.47600773964716" dx="0em" dy="0.3em" style="text-anchor: end; visibility: inherit; font-family: Roboto, sans-serif; font-size: 12px; font-weight: 200;" fill="rgb(50, 49, 63)" stroke="none" stroke-width="1px">7e-3</text><text x="0" y="83.2704759368152" dx="0em" dy="0.3em" style="text-anchor: end; visibility: inherit; font-family: Roboto, sans-serif; font-size: 12px; font-weight: 200;" fill="rgb(50, 49, 63)" stroke="none" stroke-width="1px">8e-3</text><text x="0" y="47.06494413398333" dx="0em" dy="0.3em" style="text-anchor: end; visibility: inherit; font-family: Roboto, sans-serif; font-size: 12px; font-weight: 200;" fill="rgb(50, 49, 63)" stroke="none" stroke-width="1px">9e-3</text><text x="0" y="10.859412331151377" dx="0em" dy="0.3em" style="text-anchor: end; visibility: inherit; font-family: Roboto, sans-serif; font-size: 12px; font-weight: 200;" fill="rgb(50, 49, 63)" stroke="none" stroke-width="1px">0.01</text></g><line x1="51.5625" y1="0" x2="51.5625" y2="378" fill="rgb(0, 0, 0)" stroke="rgb(204, 204, 204)" stroke-width="1px"></line></g></g><g transform="translate(51, 0)" clip-path="url(#clip_0)"><clipPath id="clip_0"><rect width="1061" height="378"></rect></clipPath><g><g><g><line x1="18.268368555718887" y1="0" x2="18.268368555718887" y2="378" fill="rgb(0, 0, 0)" stroke="rgb(60, 60, 60)" stroke-width="1px" opacity="0.25"></line><line x1="120.28804008595209" y1="0" x2="120.28804008595209" y2="378" fill="rgb(0, 0, 0)" stroke="rgb(60, 60, 60)" stroke-width="1px" opacity="0.25"></line><line x1="222.30771161618526" y1="0" x2="222.30771161618526" y2="378" fill="rgb(0, 0, 0)" stroke="rgb(60, 60, 60)" stroke-width="1px" opacity="0.25"></line><line x1="324.32738314641847" y1="0" x2="324.32738314641847" y2="378" fill="rgb(0, 0, 0)" stroke="rgb(60, 60, 60)" stroke-width="1px" opacity="0.25"></line><line x1="426.3470546766517" y1="0" x2="426.3470546766517" y2="378" fill="rgb(0, 0, 0)" stroke="rgb(60, 60, 60)" stroke-width="1px" opacity="0.25"></line><line x1="528.3667262068849" y1="0" x2="528.3667262068849" y2="378" fill="rgb(0, 0, 0)" stroke="rgb(60, 60, 60)" stroke-width="1px" opacity="0.25"></line><line x1="630.386397737118" y1="0" x2="630.386397737118" y2="378" fill="rgb(0, 0, 0)" stroke="rgb(60, 60, 60)" stroke-width="1px" opacity="0.25"></line><line x1="732.4060692673513" y1="0" x2="732.4060692673513" y2="378" fill="rgb(0, 0, 0)" stroke="rgb(60, 60, 60)" stroke-width="1px" opacity="0.25"></line><line x1="834.4257407975846" y1="0" x2="834.4257407975846" y2="378" fill="rgb(0, 0, 0)" stroke="rgb(60, 60, 60)" stroke-width="1px" opacity="0.25"></line><line x1="936.4454123278176" y1="0" x2="936.4454123278176" y2="378" fill="rgb(0, 0, 0)" stroke="rgb(60, 60, 60)" stroke-width="1px" opacity="0.25"></line><line x1="1038.4650838580508" y1="0" x2="1038.4650838580508" y2="378" fill="rgb(0, 0, 0)" stroke="rgb(60, 60, 60)" stroke-width="1px" opacity="0.25"></line></g><g><line x1="0" y1="372.9147303594705" x2="1061.0375" y2="372.9147303594705" fill="rgb(0, 0, 0)" stroke="rgb(60, 60, 60)" stroke-width="1px" opacity="0.25"></line><line x1="0" y1="336.70919855663857" x2="1061.0375" y2="336.70919855663857" fill="rgb(0, 0, 0)" stroke="rgb(60, 60, 60)" stroke-width="1px" opacity="0.25"></line><line x1="0" y1="300.5036667538067" x2="1061.0375" y2="300.5036667538067" fill="rgb(0, 0, 0)" stroke="rgb(60, 60, 60)" stroke-width="1px" opacity="0.25"></line><line x1="0" y1="264.29813495097477" x2="1061.0375" y2="264.29813495097477" fill="rgb(0, 0, 0)" stroke="rgb(60, 60, 60)" stroke-width="1px" opacity="0.25"></line><line x1="0" y1="228.0926031481429" x2="1061.0375" y2="228.0926031481429" fill="rgb(0, 0, 0)" stroke="rgb(60, 60, 60)" stroke-width="1px" opacity="0.25"></line><line x1="0" y1="191.88707134531094" x2="1061.0375" y2="191.88707134531094" fill="rgb(0, 0, 0)" stroke="rgb(60, 60, 60)" stroke-width="1px" opacity="0.25"></line><line x1="0" y1="155.68153954247907" x2="1061.0375" y2="155.68153954247907" fill="rgb(0, 0, 0)" stroke="rgb(60, 60, 60)" stroke-width="1px" opacity="0.25"></line><line x1="0" y1="119.47600773964716" x2="1061.0375" y2="119.47600773964716" fill="rgb(0, 0, 0)" stroke="rgb(60, 60, 60)" stroke-width="1px" opacity="0.25"></line><line x1="0" y1="83.2704759368152" x2="1061.0375" y2="83.2704759368152" fill="rgb(0, 0, 0)" stroke="rgb(60, 60, 60)" stroke-width="1px" opacity="0.25"></line><line x1="0" y1="47.06494413398333" x2="1061.0375" y2="47.06494413398333" fill="rgb(0, 0, 0)" stroke="rgb(60, 60, 60)" stroke-width="1px" opacity="0.25"></line><line x1="0" y1="10.859412331151377" x2="1061.0375" y2="10.859412331151377" fill="rgb(0, 0, 0)" stroke="rgb(60, 60, 60)" stroke-width="1px" opacity="0.25"></line></g></g></g><g><g><line x1="0" y1="372.9147303594705" x2="1061.0375" y2="372.9147303594705" fill="rgb(0, 0, 0)" stroke="rgb(153, 153, 153)" stroke-width="1.5px"></line></g></g><g><g><line x1="18.268368555718887" y1="0" x2="18.268368555718887" y2="378" fill="rgb(0, 0, 0)" stroke="rgb(153, 153, 153)" stroke-width="1.5px"></line></g></g><g><g><g><g><g><path stroke="rgb(255, 112, 67)" stroke-width="2px" d="M33.571319285253864,-56.06265469125131L36.1218110735097,11.094436055164945L38.67230286176552,108.92318234672845L41.222794650021356,204.5253455699809L43.77328643827719,189.89370919703777L46.323778226533015,100.45252689219609L48.87427001478884,188.85212853111454L51.424761803044674,159.6223318883296L53.97525359130051,203.3995089416931L56.52574537955634,256.9498690945447L59.07623716781216,240.12841987543933L61.62672895606799,281.4031760696022L64.17722074432382,289.28871232585425L66.72771253257966,309.0576643012789L69.27820432083548,325.2700433049513L71.82869610909133,297.40629502248555L74.37918789734715,296.2018474502543L76.92967968560296,309.80056074280753L79.4801714738588,295.95840958575997L82.03066326211463,322.96841343230966L84.58115505037046,299.1718809384491L87.1316468386263,284.5310049461927L89.68213862688212,310.9064272505569L92.23263041513795,273.52108072208665L94.78312220339379,261.76491949333223L97.33361399164961,265.6573251391227L99.88410577990545,289.53220190224783L102.43459756816127,313.86309597920257L104.98508935641709,331.4994054947675L107.53558114467293,338.4543233107258L110.08607293292876,337.52864229388666L112.63656472118458,340.40683653200455L115.18705650944042,293.9766107329847L117.73754829769625,311.48572200046374L120.28804008595209,284.23966805635996L122.83853187420792,315.71631339366417L125.38902366246373,321.93392268259555L127.93951545071957,307.50076718002646L130.4900072389754,295.5035532065836L133.04049902723122,317.14444108643056L135.59099081548706,291.26907916221944L138.1414826037429,313.6627588710649L140.6919743919987,331.83533835748085L143.24246618025455,317.8235628975386L145.7929579685104,308.8791511740022L148.3434497567662,330.98600257004694L150.89394154502205,342.5413111991477L153.44443333327789,335.5079299555351L155.9949251215337,329.32685136985987L158.54541690978954,313.86056928591165L161.09590869804538,329.7777238650732L163.64640048630116,287.7733087653388L166.196892274557,267.79661691723754L168.74738406281284,303.7671229783257L171.29787585106865,325.77452494369186L173.8483676393245,338.88920606746314L176.39885942758033,296.8365314819179L178.94935121583617,285.7062078381607L181.49984300409199,294.03182840791294L184.05033479234783,322.54329546659574L186.60082658060367,339.02444198468834L189.15131836885948,342.25483637751466L191.70181015711532,293.3243265484095L194.25230194537116,181.00761938798945L196.80279373362697,250.39739175089218L199.3532855218828,284.9626153971187L201.90377731013865,271.57339170913576L204.45426909839446,307.701851983431L207.0047608866503,311.518787925066L209.55525267490614,331.94391328771644L212.10574446316193,321.9558398227543L214.65623625141777,335.36689554019046L217.2067280396736,324.69973631128687L219.75721982792942,340.7886260423671L222.30771161618526,351.8346636834879L224.8582034044411,340.91113310799165L227.40869519269694,333.51080200855245L229.95918698095275,340.357089874682L232.5096787692086,317.7439608812733L235.06017055746443,337.87455914497986L237.61066234572024,340.9316970263345L240.16115413397608,331.37552144611885L242.71164592223192,342.677868729218L245.26213771048774,351.51825479660295L247.81262949874358,354.1022461244109L250.36312128699942,357.54692581853726L252.91361307525523,353.2559959472762L255.46410486351107,345.9278076995991L258.0145966517669,346.4831857936746L260.5650884400227,338.01152359118424L263.11558022827853,345.98759222931307L265.6660720165344,322.11821788449663L268.2165638047902,334.1142491217588L270.76705559304605,329.26614850568086L273.31754738130184,339.5739344987854L275.86803916955773,344.5166288811525L278.4185309578135,351.79541469563577L280.96902274606936,339.8495265451089L283.5195145343252,343.0313533372257L286.070006322581,350.49079211387203L288.6204981108369,341.19778889098166L291.17098989909266,350.76469840236126L293.7214816873485,353.0363876029607L296.27197347560434,346.95971251928904L298.8224652638602,347.9904297464977L301.37295705211596,354.3081991654957L303.92344884037186,352.28702493745556L306.47394062862764,338.4813032660939L309.0244324168835,333.9852641070203L311.5749242051393,344.4771726600573L314.12541599339517,345.9024621885509L316.67590778165095,335.6641680610721L319.22639956990685,322.11845018519534L321.77689135816263,339.9884416803815L324.32738314641847,350.15940715858994L326.8778749346743,355.89080505506564L329.42836672293015,350.8200476560981L331.97885851118593,348.5591826086247L334.52935029944183,354.31563881706L337.0798420876976,311.97158372214574L339.6303338759534,314.0996529304611L342.1808256642093,329.166811089934L344.7313174524651,323.46649606988836L347.2818092407209,340.7036129219375L349.83230102897676,350.9403846208893L352.3827928172326,341.45445466809775L354.9332846054884,336.6788184853616L357.4837763937443,347.40845195071574L360.03426818200006,356.7605512238045L362.5847599702559,356.75052498770526L365.13525175851174,344.52787192252407L367.6857435467676,325.22053652150834L370.23623533502337,334.45853520150547L372.78672712327926,346.7161753715553L375.33721891153505,349.0553558919166L377.8877106997909,322.9785661211136L380.4382024880467,327.47213494755704L382.98869427630257,340.5973030329205L385.5391860645584,333.49045844742665L388.0896778528142,346.5854943740509L390.64016964107003,337.6131143727337L393.19066142932587,346.3402494852467L395.7411532175817,347.05837875346305L398.2916450058375,335.7090768389995L400.8421367940934,338.85034281252894L403.3926285823492,346.8281014497704L405.943120370605,345.5614996696573L408.49361215886086,344.70690614643735L411.0441039471167,330.34142369004746L413.5945957353725,323.65087785394974L416.1450875236284,338.5995751077649L418.69557931188416,333.60392184170837L421.24607110014,343.5833871628149L423.79656288839584,344.46973931164126L426.3470546766517,351.81918170499824L428.89754646490746,347.86353957676283L431.44803825316336,352.54703498142806L433.99853004141914,357.367741028237L436.5490218296749,360.45329292438504L439.0995136179308,359.6417391857079L441.6500054061866,358.00603123286095L444.20049719444245,357.55448077194654L446.7509889826983,356.6694962069833L449.30148077095413,353.0349988649058L451.8519725592099,357.82046199018384L454.4024643474658,360.38006834637355L456.9529561357216,349.3884271983123L459.50344792397743,347.71231715134945L462.0539397122333,324.53256912791244L464.6044315004891,339.99746729317735L467.1549232887449,332.3064959656026L469.7054150770008,332.99841502558974L472.2559068652566,346.6662550945318L474.8063986535125,355.15541636780654L477.35689044176826,355.7775968531475L479.9073822300241,356.0718403434447L482.45787401827994,353.4720353424045L485.0083658065357,358.45239954308647L487.55885759479156,362.42176657454553L490.1093493830474,353.7694697046409L492.65984117130324,353.7843973442776L495.210332959559,358.3951023657686L497.7608247478149,359.82477704050837L500.3113165360707,362.8623510100569L502.86180832432655,364.1086424531689L505.4123001125824,357.8021955936177L507.9627919008382,352.3271563174864L510.513283689094,356.63164764673917L513.0637754773499,357.2324765836564L515.6142672656057,341.09217760390317L518.1647590538615,343.9418300247716L520.7152508421174,340.1407519573252L523.2657426303732,318.7442547628454L525.816234418629,332.6431389789715L528.3667262068849,303.3901524022052L530.9172179951407,248.32047136262264L533.4677097833966,295.32101665502665L536.0182015716523,323.00996229969405L538.5686933599081,334.24486130616737L541.119185148164,341.7572136989779L543.6696769364198,351.90096548007347L546.2201687246757,357.0857553761629L548.7706605129315,343.69554383123847L551.3211523011873,352.1101131313586L553.8716440894432,355.258510504461L556.4221358776989,354.83722431933256L558.9726276659547,360.8436170346868L561.5231194542107,354.9184958209039L564.0736112424665,347.9625875703265L566.6241030307223,349.6790438452253L569.1745948189781,347.0613253899718L571.725086607234,349.45477755896684L574.2755783954898,304.5172645608181L576.8260701837456,327.0880636083917L579.3765619720015,331.66930726984896L581.9270537602573,333.36478564252764L584.477545548513,334.6102274186447L587.0280373367689,345.2915605961574L589.5785291250247,351.51166375800096L592.1290209132807,343.77941213516635L594.6795127015364,350.44627669118154L597.2300044897922,355.31788607058013L599.7804962780481,347.9552938981744L602.3309880663039,339.4341310680475L604.8814798545596,343.06691371452206L607.4319716428156,350.31520330951116L609.9824634310714,352.7437704587119L612.5329552193273,357.56340836669193L615.083447007583,357.41740690021925L617.6339387958388,344.0608487988237L620.1844305840948,348.2130161311171L622.7349223723506,338.65635738555034L625.2854141606064,350.36290487054686L627.8359059488622,355.37377065519263L630.386397737118,357.78100140040567L632.9368895253738,357.666654124346L635.4873813136297,348.982204543829L638.0378731018856,354.24228635459286L640.5883648901414,358.65934472828695L643.1388566783971,357.79254192287624L645.689348466653,358.48335609508223L648.2398402549088,352.8580756690734L650.7903320431648,351.30191415696953L653.3408238314205,358.20451191898445L655.8913156196763,349.4160183636223L658.4418074079322,342.51185861126726L660.992299196188,305.3631185359835L663.5427909844437,326.8778150377072L666.0932827726997,338.2338817646743L668.6437745609555,348.29420150892634L671.1942663492115,340.41371803136724L673.7447581374672,346.8605750795324L676.295249925723,351.5285662157678L678.8457417139789,358.6353221132433L681.3962335022347,351.66998734922373L683.9467252904905,357.9689931164747L686.4972170787464,337.7370045168405L689.0477088670023,349.74355773144526L691.598200655258,346.558930131246L694.1486924435138,338.55092868068147L696.6991842317697,335.6561860481066L699.2496760200255,347.0861562178861L701.8001678082813,320.38249932717565L704.3506595965372,332.6187204506553L706.901151384793,347.6264620607294L709.4516431730489,355.2645682425304L712.0021349613046,350.89510369829105L714.5526267495604,354.46440477961244L717.1031185378164,359.3902881029159L719.6536103260722,359.13228314070597L722.204102114328,341.0327987477178L724.7545939025838,345.9844683254593L727.3050856908396,355.63002037703535L729.8555774790956,338.4118224214206L732.4060692673513,350.554278063732L734.9565610556072,341.71994409876436L737.507052843863,351.05947767261904L740.0575446321187,356.34689920418725L742.6080364203746,342.89168940946615L745.1585282086305,351.6439040543587L747.7090199968864,350.03116873747535L750.2595117851421,352.72847621627636L752.8100035733979,354.0197616750497L755.3604953616538,358.1324746858357L757.9109871499096,339.8832530377295L760.4614789381654,342.97164141481636L763.0119707264213,332.24148471756035L765.5624625146771,332.3147661925951L768.112954302933,337.7538117657233L770.6634460911887,339.59474875980175L773.2139378794445,349.4394076363168L775.7644296677005,352.2281394327785L778.3149214559563,348.43745051555345L780.865413244212,355.2412667938328L783.4159050324679,336.4566170094387L785.9663968207237,343.9997830170667L788.5168886089795,342.97523159788636L791.0673803972354,339.42196660056L793.6178721854913,336.6483563958755L796.1683639737471,345.2414696093601L798.7188557620028,343.9393641349022L801.2693475502587,343.5142370206389L803.8198393385145,336.623640223326L806.3703311267705,346.084702791259L808.9208229150262,343.19230829481376L811.471314703282,351.079490946148L814.0218064915379,356.66199635140157L816.5722982797937,360.0763790106652L819.1227900680495,362.18602171416137L821.6732818563054,364.013414836077L824.2237736445612,349.2190684838202L826.7742654328171,355.83850497221016L829.3247572210728,360.6122378276547L831.8752490093286,360.49447935585727L834.4257407975846,361.0562596469283L836.9762325858404,356.1868728532878L839.5267243740961,339.28165341165925L842.077216162352,347.27881778731484L844.6277079506078,350.97303232571653L847.1781997388636,357.31657590395014L849.7286915271195,362.6029891347391L852.2791833153753,360.2574094128302L854.8296751036312,358.5175451676658L857.3801668918869,347.5363897629655L859.9306586801428,354.7735928418971L862.4811504683986,358.1831403403201L865.0316422566545,345.0932257457339L867.5821340449103,353.36837119218086L870.1326258331661,344.0976523354943L872.683117621422,333.60366296681474L875.2336094096778,344.3732379209356L877.7841011979335,315.5675717686L880.3345929861895,336.7481490568073L882.8850847744453,342.40550145837324L885.435576562701,351.9700050331176L887.9860683509569,356.5457509306382L890.5365601392127,358.19681113195054L893.0870519274686,349.7783570271769L895.6375437157244,353.4912530525156L898.1880355039802,355.1000652440637L900.7385272922361,357.00404944464503L903.2890190804919,352.8673175385982L905.8395108687477,344.9776565420883L908.3900026570036,340.88968219437L910.9404944452594,349.4517410842241L913.4909862335153,354.3801924048656L916.041478021771,349.72318862599053L918.5919698100269,356.76799251922284L921.1424615982827,356.23564464248494L923.6929533865386,350.9045665065018L926.2434451747944,357.1713783728972L928.7939369630502,337.67241599254044L931.344428751306,348.9419347654474L933.8949205395618,320.4348319820292L936.4454123278176,329.1232958979774L938.9959041160736,259.04000360200257L941.5463959043294,291.7290494512863L944.0968876925851,300.3312354976543L946.647379480841,327.23766764500544L949.1978712690968,343.86413696501296L951.7483630573527,352.5499170183392L954.2988548456085,340.33434362799153L956.8493466338643,348.96480277504907L959.3998384221202,356.89234075499166L961.950330210376,344.7654978407596L964.5008219986317,348.4396661789179L967.0513137868876,338.9790345047608L969.6018055751435,349.18271233474985L972.1522973633994,344.3504941335643L974.7027891516551,353.858475112839L977.253280939911,357.59146233772213L979.8037727281668,348.77371234613736L982.3542645164225,348.4986650858707L984.9047563046785,355.8015207643825L987.4552480929343,359.25068826897564L990.0057398811902,357.91380372946685L992.5562316694459,348.4888245551469L995.1067234577017,340.4589417653137L997.6572152459577,333.53591118771044L1000.2077070342135,344.16997894310686L1002.7581988224692,349.63490749360943L1005.3086906107251,332.43382875777036L1007.8591823989809,347.6185407863197L1010.4096741872368,353.6377322899143L1012.9601659754926,359.2639910027674L1015.5106577637484,361.9011580841438L1018.0611495520043,348.6992990267019L1020.6116413402601,352.852721340375L1023.1621331285158,353.84926919318036L1025.7126249167718,342.2439571516009L1028.2631167050276,333.1967046392502L1030.8136084932835,345.3884981652059L1033.3641002815393,353.90971828205676L1035.914592069795,333.7974967367362L1038.4650838580508,343.96948453931833" style="fill: none;" fill="none"></path></g></g></g></g><g opacity="0.2"><g><g><g><path stroke="rgb(255, 112, 67)" stroke-width="2px" d="M25.919843920486375,-91.01746697215789L28.47033570874221,297.60105342224426L31.020827496998034,-107.74463432993217L33.571319285253864,55.72154334329833L36.1218110735097,109.01011907151108L38.67230286176552,253.20158087110494L41.222794650021356,346.4834160980001L43.77328643827719,168.07896250263724L46.323778226533015,-33.22251160068606L48.87427001478884,321.1628909524566L51.424761803044674,115.83490113866736L53.97525359130051,269.0138160934444L56.52574537955634,337.2376414609283L59.07623716781216,214.90336432033877L61.62672895606799,343.30483070471996L64.17722074432382,301.11581542815156L66.72771253257966,338.70928530390063L69.27820432083548,349.5877226850649L71.82869610909133,255.6115894672931L74.37918789734715,294.3951998716238L76.92967968560296,330.1984695919141L79.4801714738588,275.1952812342747L82.03066326211463,363.4833040168058L84.58115505037046,263.47714308646283L87.1316468386263,262.5697134350014L89.68213862688212,350.46953641161156L92.23263041513795,217.44308159169404L94.78312220339379,244.13068154867156L97.33361399164961,271.4959328333499L99.88410577990545,325.34451419675474L102.43459756816127,350.3594353518626L104.98508935641709,357.9538690101632L107.53558114467293,348.8866998553233L110.08607293292876,336.14012078294974L112.63656472118458,344.72412786246326L115.18705650944042,224.3312722930615L117.73754829769625,337.749388843169L120.28804008595209,243.37058719483608L122.83853187420792,362.9312813617517L125.38902366246373,331.26033661150444L127.93951545071957,285.851033932424L130.4900072389754,277.5077322495369L133.04049902723122,349.60577290282674L135.59099081548706,252.45603627832347L138.1414826037429,347.2532784330763L140.6919743919987,359.0942075864927L143.24246618025455,296.80589970790834L145.7929579685104,295.4625335888059L148.3434497567662,364.14627966395335L150.89394154502205,359.87427414274845L153.44443333327789,324.9578580901346L155.9949251215337,320.0552334913568L158.54541690978954,290.661146160004L161.09590869804538,353.6534557338065L163.64640048630116,224.7666861157515L166.196892274557,237.83157914508976L168.74738406281284,357.72288206995347L171.29787585106865,358.7856278917396L173.8483676393245,358.5612277531194L176.39885942758033,233.7575196036013L178.94935121583617,269.01072237252504L181.49984300409199,306.5202592625413L184.05033479234783,365.3104960546198L186.60082658060367,363.74616176182724L189.15131836885948,347.1004279667541L191.70181015711532,219.92856180475172L194.25230194537116,12.532558647359467L196.80279373362697,354.48205029524627L199.3532855218828,336.8104508664586L201.90377731013865,251.48955617716123L204.45426909839446,361.89454239487395L207.0047608866503,317.2441918375185L209.55525267490614,362.581601331692L212.10574446316193,306.9737296253111L214.65623625141777,355.4834791163447L217.2067280396736,308.6989974679314L219.75721982792942,364.9219606389875L222.30771161618526,368.40372014516913L224.8582034044411,324.52583724474715L227.40869519269694,322.41030535939365L229.95918698095275,350.62652167387637L232.5096787692086,283.8242673911603L235.06017055746443,368.07045654053974L237.61066234572024,345.51740384836654L240.16115413397608,317.04125807579527L242.71164592223192,359.6313896538668L245.26213771048774,364.77883389768033L247.81262949874358,357.9782331161229L250.36312128699942,362.7139453597267L252.91361307525523,346.8196011403846L255.46410486351107,334.9355253280835L258.0145966517669,347.3162529347878L260.5650884400227,325.3040302874488L263.11558022827853,357.9516951865063L265.6660720165344,286.314156367272L268.2165638047902,352.10829597765206L270.76705559304605,321.993997581564L273.31754738130184,355.0356134884421L275.86803916955773,351.9306704547032L278.4185309578135,362.7135934173606L280.96902274606936,321.9306943193188L283.5195145343252,347.8040935254009L286.070006322581,361.67995027884155L288.6204981108369,327.25828405664606L291.17098989909266,365.1150626694307L293.7214816873485,356.4439214038598L296.27197347560434,337.84469989378164L298.8224652638602,349.5365055873105L301.37295705211596,363.7848532939929L303.92344884037186,349.25526359539526L306.47394062862764,317.7727207590514L309.0244324168835,327.24120536841L311.5749242051393,360.2150354896128L314.12541599339517,348.0403964812912L316.67590778165095,320.3067268698539L319.22639956990685,301.7998733713803L321.77689135816263,366.79342892316083L324.32738314641847,365.4158553759025L326.8778749346743,364.4879018997792L329.42836672293015,343.21391155764684L331.97885851118593,345.16788503741475L334.52935029944183,362.95032312971284L337.0798420876976,248.45550107977436L339.6303338759534,317.2917567429341L342.1808256642093,351.7675483291433L344.7313174524651,314.91602353981995L347.2818092407209,366.5592882000112L349.83230102897676,366.29554216931706L352.3827928172326,327.2255597389104L354.9332846054884,329.51536421125735L357.4837763937443,363.50290214874695L360.03426818200006,370.78870013343754L362.5847599702559,356.73548563355644L365.13525175851174,326.19389232475237L367.6857435467676,296.25953341998473L370.23623533502337,348.31553322150114L372.78672712327926,365.1026356266301L375.33721891153505,352.5641266724584L377.8877106997909,283.8633814649092L380.4382024880467,334.21248818722216L382.98869427630257,360.28505516096567L385.5391860645584,322.83019156918584L388.0896778528142,366.2280482639872L390.64016964107003,324.15454437075795L393.19066142932587,359.43095215401627L395.7411532175817,348.1355726557875L398.2916450058375,318.6851239673042L400.8421367940934,343.5622417728231L403.3926285823492,358.7947394056325L405.943120370605,343.6615969994877L408.49361215886086,343.4250158616074L411.0441039471167,308.7932000054626L413.5945957353725,313.6150590998032L416.1450875236284,361.02262098848774L418.69557931188416,326.11044194262354L421.24607110014,358.5525851444748L423.79656288839584,345.7992675348807L426.3470546766517,362.84334529503366L428.89754646490746,341.93007638440974L431.44803825316336,359.5722780884259L433.99853004141914,364.5988000984504L436.5490218296749,365.08162076860714L439.0995136179308,358.42440857769213L441.6500054061866,355.55246930359056L444.20049719444245,356.87715508057494L446.7509889826983,355.34201935953837L449.30148077095413,347.5832528517895L451.8519725592099,364.998656678101L454.4024643474658,364.21947788065813L456.9529561357216,332.90096547622034L459.50344792397743,345.1981520809052L462.0539397122333,289.76294709275703L464.6044315004891,363.19481454107466L467.1549232887449,320.77003897424044L469.7054150770008,334.03629361557046L472.2559068652566,367.16801519794484L474.8063986535125,367.88915827771876L477.35689044176826,356.7108675811589L479.9073822300241,356.51320557889056L482.45787401827994,349.5723278408442L485.0083658065357,365.9229458441094L487.55885759479156,368.3758171217341L490.1093493830474,340.7910243997841L492.65984117130324,353.8067888037325L495.210332959559,365.3111598980051L497.7608247478149,361.96928905261797L500.3113165360707,367.41871196437967L502.86180832432655,365.978079617837L505.4123001125824,348.3425253042908L507.9627919008382,344.11459740328945L510.513283689094,363.0883846406183L513.0637754773499,358.1337199890323L515.6142672656057,316.88172913427326L518.1647590538615,348.21630865607426L520.7152508421174,334.4391348561557L523.2657426303732,286.6495089711257L525.816234418629,353.49146530316057L528.3667262068849,259.5106725370559L530.9172179951407,165.71594980324875L533.4677097833966,365.8218345936328L536.0182015716523,364.5433807666952L538.5686933599081,351.09720981587725L541.119185148164,353.0257422881938L543.6696769364198,367.11659315171676L546.2201687246757,364.86294022029705L548.7706605129315,323.6102265138518L551.3211523011873,364.7319670815389L553.8716440894432,359.9811065641146L556.4221358776989,354.20529504163983L558.9726276659547,369.8532061077182L561.5231194542107,346.03081400022944L564.0736112424665,337.5287251944603L566.6241030307223,352.2537282575735L569.1745948189781,343.13474770709155L571.725086607234,353.04495581245936L574.2755783954898,237.11099506359508L576.8260701837456,360.9442621797521L579.3765619720015,338.5411727620349L581.9270537602573,335.90800320154574L584.477545548513,336.47839008282017L587.0280373367689,361.3135603624265L589.5785291250247,360.8418185007664L592.1290209132807,332.1810347009144L594.6795127015364,360.44657352520426L597.2300044897922,362.6253001396781L599.7804962780481,336.9114056395658L602.3309880663039,326.6523868228572L604.8814798545596,348.5160876842339L607.4319716428156,361.18763770199484L609.9824634310714,356.38662118251295L612.5329552193273,364.79286522866204L615.083447007583,357.19840470051014L617.6339387958388,324.02601164673047L620.1844305840948,354.44126712955716L622.7349223723506,324.32136926720017L625.2854141606064,367.9227260980416L627.8359059488622,362.89006933216126L630.386397737118,361.3918475182253L632.9368895253738,357.4951332102564L635.4873813136297,335.95553017305366L638.0378731018856,362.1324090707385L640.5883648901414,365.28493228882814L643.1388566783971,356.49233771476L645.689348466653,359.51957735339136L648.2398402549088,344.42015503006013L650.7903320431648,348.96767188881375L653.3408238314205,368.55840856200683L655.8913156196763,336.233278030579L658.4418074079322,332.1556189827348L660.992299196188,249.64000842305796L663.5427909844437,359.14985979029257L666.0932827726997,355.2679818551251L668.6437745609555,363.3846811253043L671.1942663492115,328.5929928150286L673.7447581374672,356.53086065178024L676.295249925723,358.53055292012084L678.8457417139789,369.2954559594566L681.3962335022347,341.2219852031943L683.9467252904905,367.41750176735104L686.4972170787464,307.3890216173893L689.0477088670023,367.75338755335235L691.598200655258,341.78198873094715L694.1486924435138,326.5389265048347L696.6991842317697,331.31407209924424L699.2496760200255,364.23111147255537L701.8001678082813,280.32701399110994L704.3506595965372,350.9730521358747L706.901151384793,370.13807447584054L709.4516431730489,366.7217275152319L712.0021349613046,344.3409068819321L714.5526267495604,359.81835640159443L717.1031185378164,366.77911308787117L719.6536103260722,358.74527569739104L722.204102114328,313.88357215823544L724.7545939025838,353.4119726920716L727.3050856908396,370.0983484543995L729.8555774790956,312.5845254879984L732.4060692673513,368.76796152719913L734.9565610556072,328.4684431513129L737.507052843863,365.068778033401L740.0575446321187,364.2780315015396L742.6080364203746,322.7088747173845L745.1585282086305,364.7722260216976L747.7090199968864,347.6120657621503L750.2595117851421,356.7744374344779L752.8100035733979,355.9566898632097L755.3604953616538,364.30154420201467L757.9109871499096,312.5094205655703L760.4614789381654,347.60422398044665L763.0119707264213,316.1462496716763L765.5624625146771,332.42468840514715L768.112954302933,345.9123801254156L770.6634460911887,342.35615425091936L773.2139378794445,364.20639595108935L775.7644296677005,356.41123712747117L778.3149214559563,342.7514171397157L780.865413244212,365.4469912112519L783.4159050324679,308.2796423328474L785.9663968207237,355.31453202850884L788.5168886089795,341.4384044691158L791.0673803972354,334.0920691045705L793.6178721854913,332.48794108884874L796.1683639737471,358.13113942958694L798.7188557620028,341.9862059232152L801.2693475502587,342.876546349244L803.8198393385145,326.28774502735666L806.3703311267705,360.2762966431585L808.9208229150262,338.85371655014586L811.471314703282,362.9102649231492L814.0218064915379,365.0357544592821L816.5722982797937,365.1979529995607L819.1227900680495,365.35048576940557L821.6732818563054,366.7545045189505L824.2237736445612,327.0275489554349L826.7742654328171,365.7676597047951L829.3247572210728,367.77283711082157L831.8752490093286,360.31784164816116L834.4257407975846,361.8989300835348L836.9762325858404,348.88279266282706L839.5267243740961,313.92382424921635L842.077216162352,359.27456435079824L844.6277079506078,356.51435413331905L847.1781997388636,366.8318912713006L849.7286915271195,370.53260898092253L852.2791833153753,356.7390398299668L854.8296751036312,355.90774879991915L857.3801668918869,331.06465665591503L859.9306586801428,365.62939746029457L862.4811504683986,363.29746158795456L865.0316422566545,325.45835385385453L867.5821340449103,365.7810893618514L870.1326258331661,330.1915740504644L872.683117621422,317.86267891379543L875.2336094096778,360.52760035211696L877.7841011979335,272.35907254009646L880.3345929861895,368.51901498911826L882.8850847744453,350.8915300607222L885.435576562701,366.31676039523427L887.9860683509569,363.40936977691905L890.5365601392127,360.67340143391914L893.0870519274686,337.1506758700164L895.6375437157244,359.06059709052363L898.1880355039802,357.5132835313859L900.7385272922361,359.8600257455169L903.2890190804919,346.66221967952794L905.8395108687477,333.14316504732346L908.3900026570036,334.75772067279246L910.9404944452594,362.29482941900534L913.4909862335153,361.7728693858278L916.041478021771,342.7376829576779L918.5919698100269,367.3351983590712L921.1424615982827,355.4371228273782L923.6929533865386,342.9079493025271L926.2434451747944,366.57159617249033L928.7939369630502,308.42397242200536L931.344428751306,365.84621292480784L933.8949205395618,277.6741778069018L936.4454123278176,342.15599177189983L938.9959041160736,153.9150651580403L941.5463959043294,340.7626182252118L944.0968876925851,313.23451456720625L946.647379480841,367.5973158660321L949.1978712690968,368.8038409450243L951.7483630573527,365.5785870983286L954.2988548456085,322.01098354247006L956.8493466338643,361.91049149563537L959.3998384221202,368.78364772490556L961.950330210376,326.57523346941156L964.5008219986317,353.9509186861552L967.0513137868876,324.78808699352527L969.6018055751435,364.4882290797334L972.1522973633994,337.1021668317861L974.7027891516551,368.120446581751L977.253280939911,363.19094317504687L979.8037727281668,335.54708735876017L982.3542645164225,348.08609419547076L984.9047563046785,366.75580428215017L987.4552480929343,364.42443952586547L990.0057398811902,355.90847692020367L992.5562316694459,334.3513557936669L995.1067234577017,328.414117580564L997.6572152459577,323.1513653213056L1000.2077070342135,360.12108057620145L1002.7581988224692,357.8323003193633L1005.3086906107251,306.63221065401177L1007.8591823989809,370.3956088291438L1010.4096741872368,362.66651954530613L1012.9601659754926,367.7033790720471L1015.5106577637484,365.8569087062084L1018.0611495520043,328.89651044053903L1020.6116413402601,359.08285481088467L1023.1621331285158,355.3440909723883L1025.7126249167718,324.8359890892318L1028.2631167050276,319.6258258707241L1030.8136084932835,363.6761884541394L1033.3641002815393,366.691548457333L1035.914592069795,303.6291644187554L1038.4650838580508,359.2274662431916" style="fill: none;" fill="none"></path></g></g></g></g></g></g><g transform="translate(51, 378)" clip-path="url(#clip_1)"><clipPath id="clip_1"><rect width="1061" height="22"></rect></clipPath><g><g><line x1="18.268368555718887" y1="0" x2="18.268368555718887" y2="5" style="visibility: inherit;" fill="rgb(0, 0, 0)" stroke="rgb(204, 204, 204)" stroke-width="1px"></line><line x1="120.28804008595209" y1="0" x2="120.28804008595209" y2="5" style="visibility: inherit;" fill="rgb(0, 0, 0)" stroke="rgb(204, 204, 204)" stroke-width="1px"></line><line x1="222.30771161618526" y1="0" x2="222.30771161618526" y2="5" style="visibility: inherit;" fill="rgb(0, 0, 0)" stroke="rgb(204, 204, 204)" stroke-width="1px"></line><line x1="324.32738314641847" y1="0" x2="324.32738314641847" y2="5" style="visibility: inherit;" fill="rgb(0, 0, 0)" stroke="rgb(204, 204, 204)" stroke-width="1px"></line><line x1="426.3470546766517" y1="0" x2="426.3470546766517" y2="5" style="visibility: inherit;" fill="rgb(0, 0, 0)" stroke="rgb(204, 204, 204)" stroke-width="1px"></line><line x1="528.3667262068849" y1="0" x2="528.3667262068849" y2="5" style="visibility: inherit;" fill="rgb(0, 0, 0)" stroke="rgb(204, 204, 204)" stroke-width="1px"></line><line x1="630.386397737118" y1="0" x2="630.386397737118" y2="5" style="visibility: inherit;" fill="rgb(0, 0, 0)" stroke="rgb(204, 204, 204)" stroke-width="1px"></line><line x1="732.4060692673513" y1="0" x2="732.4060692673513" y2="5" style="visibility: inherit;" fill="rgb(0, 0, 0)" stroke="rgb(204, 204, 204)" stroke-width="1px"></line><line x1="834.4257407975846" y1="0" x2="834.4257407975846" y2="5" style="visibility: inherit;" fill="rgb(0, 0, 0)" stroke="rgb(204, 204, 204)" stroke-width="1px"></line><line x1="936.4454123278176" y1="0" x2="936.4454123278176" y2="5" style="visibility: inherit;" fill="rgb(0, 0, 0)" stroke="rgb(204, 204, 204)" stroke-width="1px"></line><line x1="1038.4650838580508" y1="0" x2="1038.4650838580508" y2="5" style="visibility: inherit;" fill="rgb(0, 0, 0)" stroke="rgb(204, 204, 204)" stroke-width="1px"></line></g><g transform="translate(0, 8)"><text x="18.268368555718887" y="0" dx="0em" dy="0.95em" style="text-anchor: middle; visibility: inherit; font-family: Roboto, sans-serif; font-size: 12px; font-weight: 200;" fill="rgb(50, 49, 63)" stroke="none" stroke-width="1px">0</text><text x="120.28804008595209" y="0" dx="0em" dy="0.95em" style="text-anchor: middle; visibility: inherit; font-family: Roboto, sans-serif; font-size: 12px; font-weight: 200;" fill="rgb(50, 49, 63)" stroke="none" stroke-width="1px">20k</text><text x="222.30771161618526" y="0" dx="0em" dy="0.95em" style="text-anchor: middle; visibility: inherit; font-family: Roboto, sans-serif; font-size: 12px; font-weight: 200;" fill="rgb(50, 49, 63)" stroke="none" stroke-width="1px">40k</text><text x="324.32738314641847" y="0" dx="0em" dy="0.95em" style="text-anchor: middle; visibility: inherit; font-family: Roboto, sans-serif; font-size: 12px; font-weight: 200;" fill="rgb(50, 49, 63)" stroke="none" stroke-width="1px">60k</text><text x="426.3470546766517" y="0" dx="0em" dy="0.95em" style="text-anchor: middle; visibility: inherit; font-family: Roboto, sans-serif; font-size: 12px; font-weight: 200;" fill="rgb(50, 49, 63)" stroke="none" stroke-width="1px">80k</text><text x="528.3667262068849" y="0" dx="0em" dy="0.95em" style="text-anchor: middle; visibility: inherit; font-family: Roboto, sans-serif; font-size: 12px; font-weight: 200;" fill="rgb(50, 49, 63)" stroke="none" stroke-width="1px">100k</text><text x="630.386397737118" y="0" dx="0em" dy="0.95em" style="text-anchor: middle; visibility: inherit; font-family: Roboto, sans-serif; font-size: 12px; font-weight: 200;" fill="rgb(50, 49, 63)" stroke="none" stroke-width="1px">120k</text><text x="732.4060692673513" y="0" dx="0em" dy="0.95em" style="text-anchor: middle; visibility: inherit; font-family: Roboto, sans-serif; font-size: 12px; font-weight: 200;" fill="rgb(50, 49, 63)" stroke="none" stroke-width="1px">140k</text><text x="834.4257407975846" y="0" dx="0em" dy="0.95em" style="text-anchor: middle; visibility: inherit; font-family: Roboto, sans-serif; font-size: 12px; font-weight: 200;" fill="rgb(50, 49, 63)" stroke="none" stroke-width="1px">160k</text><text x="936.4454123278176" y="0" dx="0em" dy="0.95em" style="text-anchor: middle; visibility: inherit; font-family: Roboto, sans-serif; font-size: 12px; font-weight: 200;" fill="rgb(50, 49, 63)" stroke="none" stroke-width="1px">180k</text><text x="1038.4650838580508" y="0" dx="0em" dy="0.95em" style="text-anchor: middle; visibility: inherit; font-family: Roboto, sans-serif; font-size: 12px; font-weight: 200;" fill="rgb(50, 49, 63)" stroke="none" stroke-width="1px">200k</text></g><line x1="0" y1="0" x2="1061.0375" y2="0" fill="rgb(0, 0, 0)" stroke="rgb(204, 204, 204)" stroke-width="1px"></line></g></g></g></g></svg>