<svg viewBox="0 0 887 400" xmlns="http://www.w3.org/2000/svg"><g><g><g><g><g><line x1="50" y1="377" x2="45" y2="377" style="visibility: inherit;" fill="rgb(0, 0, 0)" stroke="rgb(204, 204, 204)" stroke-width="1px"></line><line x1="50" y1="329.875" x2="45" y2="329.875" style="visibility: inherit;" fill="rgb(0, 0, 0)" stroke="rgb(204, 204, 204)" stroke-width="1px"></line><line x1="50" y1="282.75" x2="45" y2="282.75" style="visibility: inherit;" fill="rgb(0, 0, 0)" stroke="rgb(204, 204, 204)" stroke-width="1px"></line><line x1="50" y1="235.625" x2="45" y2="235.625" style="visibility: inherit;" fill="rgb(0, 0, 0)" stroke="rgb(204, 204, 204)" stroke-width="1px"></line><line x1="50" y1="188.5" x2="45" y2="188.5" style="visibility: inherit;" fill="rgb(0, 0, 0)" stroke="rgb(204, 204, 204)" stroke-width="1px"></line><line x1="50" y1="141.375" x2="45" y2="141.375" style="visibility: inherit;" fill="rgb(0, 0, 0)" stroke="rgb(204, 204, 204)" stroke-width="1px"></line><line x1="50" y1="94.25" x2="45" y2="94.25" style="visibility: inherit;" fill="rgb(0, 0, 0)" stroke="rgb(204, 204, 204)" stroke-width="1px"></line><line x1="50" y1="47.125" x2="45" y2="47.125" style="visibility: inherit;" fill="rgb(0, 0, 0)" stroke="rgb(204, 204, 204)" stroke-width="1px"></line><line x1="50" y1="0" x2="45" y2="0" style="visibility: inherit;" fill="rgb(0, 0, 0)" stroke="rgb(204, 204, 204)" stroke-width="1px"></line></g><g transform="translate(40, 0)"><text x="0" y="377" dx="0em" dy="0.3em" style="text-anchor: end; visibility: hidden; font-family: Roboto, sans-serif; font-size: 12px; font-weight: 200;" fill="rgb(33, 33, 33)" stroke="none" stroke-width="1px">1e-3</text><text x="0" y="329.875" dx="0em" dy="0.3em" style="text-anchor: end; visibility: inherit; font-family: Roboto, sans-serif; font-size: 12px; font-weight: 200;" fill="rgb(33, 33, 33)" stroke="none" stroke-width="1px">2e-3</text><text x="0" y="282.75" dx="0em" dy="0.3em" style="text-anchor: end; visibility: inherit; font-family: Roboto, sans-serif; font-size: 12px; font-weight: 200;" fill="rgb(33, 33, 33)" stroke="none" stroke-width="1px">3e-3</text><text x="0" y="235.625" dx="0em" dy="0.3em" style="text-anchor: end; visibility: inherit; font-family: Roboto, sans-serif; font-size: 12px; font-weight: 200;" fill="rgb(33, 33, 33)" stroke="none" stroke-width="1px">4e-3</text><text x="0" y="188.5" dx="0em" dy="0.3em" style="text-anchor: end; visibility: inherit; font-family: Roboto, sans-serif; font-size: 12px; font-weight: 200;" fill="rgb(33, 33, 33)" stroke="none" stroke-width="1px">5e-3</text><text x="0" y="141.375" dx="0em" dy="0.3em" style="text-anchor: end; visibility: inherit; font-family: Roboto, sans-serif; font-size: 12px; font-weight: 200;" fill="rgb(33, 33, 33)" stroke="none" stroke-width="1px">6e-3</text><text x="0" y="94.25" dx="0em" dy="0.3em" style="text-anchor: end; visibility: inherit; font-family: Roboto, sans-serif; font-size: 12px; font-weight: 200;" fill="rgb(33, 33, 33)" stroke="none" stroke-width="1px">7e-3</text><text x="0" y="47.125" dx="0em" dy="0.3em" style="text-anchor: end; visibility: inherit; font-family: Roboto, sans-serif; font-size: 12px; font-weight: 200;" fill="rgb(33, 33, 33)" stroke="none" stroke-width="1px">8e-3</text><text x="0" y="0" dx="0em" dy="0.3em" style="text-anchor: end; visibility: hidden; font-family: Roboto, sans-serif; font-size: 12px; font-weight: 200;" fill="rgb(33, 33, 33)" stroke="none" stroke-width="1px">9e-3</text></g><line x1="50" y1="0" x2="50" y2="377" fill="rgb(0, 0, 0)" stroke="rgb(204, 204, 204)" stroke-width="1px"></line></g></g><g transform="translate(50, 0)" clip-path="url(#clip_0)"><clipPath id="clip_0"><rect width="837" height="377"></rect></clipPath><g><g><g><line x1="0" y1="0" x2="0" y2="377" fill="rgb(0, 0, 0)" stroke="rgb(66, 66, 66)" stroke-width="1px" opacity="0.25"></line><line x1="69.75" y1="0" x2="69.75" y2="377" fill="rgb(0, 0, 0)" stroke="rgb(66, 66, 66)" stroke-width="1px" opacity="0.25"></line><line x1="139.5" y1="0" x2="139.5" y2="377" fill="rgb(0, 0, 0)" stroke="rgb(66, 66, 66)" stroke-width="1px" opacity="0.25"></line><line x1="209.25" y1="0" x2="209.25" y2="377" fill="rgb(0, 0, 0)" stroke="rgb(66, 66, 66)" stroke-width="1px" opacity="0.25"></line><line x1="279" y1="0" x2="279" y2="377" fill="rgb(0, 0, 0)" stroke="rgb(66, 66, 66)" stroke-width="1px" opacity="0.25"></line><line x1="348.75" y1="0" x2="348.75" y2="377" fill="rgb(0, 0, 0)" stroke="rgb(66, 66, 66)" stroke-width="1px" opacity="0.25"></line><line x1="418.5" y1="0" x2="418.5" y2="377" fill="rgb(0, 0, 0)" stroke="rgb(66, 66, 66)" stroke-width="1px" opacity="0.25"></line><line x1="488.25000000000006" y1="0" x2="488.25000000000006" y2="377" fill="rgb(0, 0, 0)" stroke="rgb(66, 66, 66)" stroke-width="1px" opacity="0.25"></line><line x1="558" y1="0" x2="558" y2="377" fill="rgb(0, 0, 0)" stroke="rgb(66, 66, 66)" stroke-width="1px" opacity="0.25"></line><line x1="627.75" y1="0" x2="627.75" y2="377" fill="rgb(0, 0, 0)" stroke="rgb(66, 66, 66)" stroke-width="1px" opacity="0.25"></line><line x1="697.5" y1="0" x2="697.5" y2="377" fill="rgb(0, 0, 0)" stroke="rgb(66, 66, 66)" stroke-width="1px" opacity="0.25"></line><line x1="767.25" y1="0" x2="767.25" y2="377" fill="rgb(0, 0, 0)" stroke="rgb(66, 66, 66)" stroke-width="1px" opacity="0.25"></line><line x1="837" y1="0" x2="837" y2="377" fill="rgb(0, 0, 0)" stroke="rgb(66, 66, 66)" stroke-width="1px" opacity="0.25"></line></g><g><line x1="0" y1="377" x2="837" y2="377" fill="rgb(0, 0, 0)" stroke="rgb(66, 66, 66)" stroke-width="1px" opacity="0.25"></line><line x1="0" y1="329.875" x2="837" y2="329.875" fill="rgb(0, 0, 0)" stroke="rgb(66, 66, 66)" stroke-width="1px" opacity="0.25"></line><line x1="0" y1="282.75" x2="837" y2="282.75" fill="rgb(0, 0, 0)" stroke="rgb(66, 66, 66)" stroke-width="1px" opacity="0.25"></line><line x1="0" y1="235.625" x2="837" y2="235.625" fill="rgb(0, 0, 0)" stroke="rgb(66, 66, 66)" stroke-width="1px" opacity="0.25"></line><line x1="0" y1="188.5" x2="837" y2="188.5" fill="rgb(0, 0, 0)" stroke="rgb(66, 66, 66)" stroke-width="1px" opacity="0.25"></line><line x1="0" y1="141.375" x2="837" y2="141.375" fill="rgb(0, 0, 0)" stroke="rgb(66, 66, 66)" stroke-width="1px" opacity="0.25"></line><line x1="0" y1="94.25" x2="837" y2="94.25" fill="rgb(0, 0, 0)" stroke="rgb(66, 66, 66)" stroke-width="1px" opacity="0.25"></line><line x1="0" y1="47.125" x2="837" y2="47.125" fill="rgb(0, 0, 0)" stroke="rgb(66, 66, 66)" stroke-width="1px" opacity="0.25"></line><line x1="0" y1="0" x2="837" y2="0" fill="rgb(0, 0, 0)" stroke="rgb(66, 66, 66)" stroke-width="1px" opacity="0.25"></line></g></g></g><g><g><line x1="0" y1="424.125" x2="837" y2="424.125" fill="rgb(0, 0, 0)" stroke="rgb(153, 153, 153)" stroke-width="1.5px"></line></g></g><g><g><line x1="69.75" y1="0" x2="69.75" y2="377" fill="rgb(0, 0, 0)" stroke="rgb(153, 153, 153)" stroke-width="1.5px"></line></g></g><g><g><g><g><g><path stroke="rgb(255, 112, 67)" stroke-width="2px" d="M94.16250000000001,-79.51115585928505L95.90625,81.75076158370125L97.65,34.31058402030756L99.39375,148.490678474837L101.1375,180.11963393539673L102.88125,228.277038325229L104.625,267.5293035516849L106.36874999999999,179.97836980555508L108.11250000000001,183.58868539910767L109.85625,209.52214297514348L111.6,136.40281507901827L113.34374999999999,234.42207695465473L115.0875,159.09987856846286L116.83125,124.62798899406556L118.575,219.92561602689915L120.31875,83.5355382636691L122.06250000000001,54.47207119934741L123.80625,69.68011853117308L125.55,131.687312514364L127.29374999999999,209.54954884392234L129.0375,269.4636752353497L130.78125,303.658981711774L132.525,300.1924670831064L134.26875,288.7752592821645L136.01250000000002,159.82630495890052L137.75625,221.7970971776156L139.5,141.85118817872365L141.24375,239.69678533192481L142.9875,233.70871188425082L144.73125,189.85119756163402L146.475,153.14485720130722L148.21875,230.15312821957065L149.9625,141.05750555572354L151.70624999999998,216.80536202714012L153.45,277.6059290504367L155.19375,224.6460753104078L156.9375,178.3279905200955L158.68125,260.15323910735253L160.425,292.44329657879905L162.16875000000002,261.90782797301307L163.9125,246.93506962914265L165.65625,180.0245680478127L167.4,234.38456988930287L169.14375,59.861197784367825L170.8875,46.037326342506276L172.63125,158.51460471475264L174.375,229.22412025610606L176.11875,285.395277440318L177.86249999999998,165.3526461193808L179.60625,125.09089778183964L181.35,128.9201631365736L183.09375,222.53347266729503L184.8375,282.95679819169584L186.58125,300.32563786136996L188.32500000000002,170.94947142185495L190.06875,-213.92540475781738L191.8125,7.681556444234968L193.55625,76.67677481486939L195.3,61.864594808307544L197.04375,187.5667718019298L198.7875,197.73471387795874L200.53125,272.2190138127771L202.275,208.70820087649628L204.01874999999998,264.06303548587715L205.7625,236.16069652209944L207.50625,288.8175053846088L209.25,335.0730748919699L210.99375,297.59261964939105L212.73749999999998,239.3256241971303L214.48125,262.2330546447254L216.22500000000002,219.58716589584154L217.96875000000003,294.20674495551026L219.7125,300.3597847475479L221.45625,260.3286633922231L223.2,306.31268237600904L224.94375,338.80815457014756L226.68749999999997,345.72336756147865L228.43124999999998,347.2455687588367L230.175,336.3646333609879L231.91875000000002,281.222219056516L233.6625,294.5806318824577L235.40625,259.55744880449544L237.15,285.1644776052566L238.89374999999998,206.33509381294738L240.6375,253.19095045156325L242.38125000000002,253.05396279226346L244.12500000000003,297.24154733842784L245.86875,300.421085375126L247.6125,336.58531558068796L249.35625,287.3205342344326L251.1,301.0398131027077L252.84374999999997,319.9732257363966L254.58749999999998,283.47366518491634L256.33125,323.56074194581754L258.075,342.8134221694127L259.81875,320.6230868526924L261.5625,303.65803638504093L263.30625,333.4233182729681L265.05,333.4110415692251L266.79375,278.8200259128285L268.5375,244.65686532801078L270.28125,290.7076868721772L272.02500000000003,308.0466509804795L273.76875,276.6154867663261L275.5125,237.8703739735053L277.25624999999997,299.8271828507997L279,333.2607907461929L280.74375,350.149663512781L282.4875,336.0127405175193L284.23125,314.86955755475157L285.975,334.4225786541562L287.71875,236.72627759737733L289.4625,229.54778685167707L291.20625,280.54991675998997L292.95,179.11079991473989L294.69375,266.7013192055571L296.4375,316.44380161053374L298.18125000000003,288.9972312911164L299.925,261.76781896137066L301.66875,306.42877520690706L303.41249999999997,348.66212649075334L305.15625,352.9883900530079L306.9,304.1815052632281L308.64375,249.49489463087397L310.3875,268.02226629609754L312.13125,316.8863047051302L313.875,319.7675890689006L315.61875,257.80163691132725L317.3625,254.0949260117603L319.10625,281.0897454960342L320.85,255.4288818394435L322.59375,310.6369993361772L324.33750000000003,274.6577933459247L326.08125,315.4342140883123L327.825,296.890343584972L329.56874999999997,272.99369200686806L331.3125,293.12926488385466L333.05625,320.8316984172925L334.8,310.88729795297695L336.54375,308.95513260883894L338.2875,250.22718344307125L340.03125,226.30395848334533L341.775,260.93790818731907L343.51875,267.26124491242496L345.2625,297.87838456073473L347.00625,297.0694899653551L348.75,328.05145049718215L350.49375000000003,317.2728273530621L352.2375,337.13696911020986L353.98125,357.9236764523546L355.72499999999997,370.6412859697754L357.46875,363.64254275428624L359.2125,357.13990364567485L360.95625,359.7108318631674L362.7,342.12177904275137L364.44375,310.1742244346936L366.1875,340.0486993043227L367.93125,358.02560285421606L369.675,310.95041198426054L371.41875,317.26707293569933L373.1625,252.5061152596691L374.90625,303.40998186778074L376.65000000000003,260.34291815190636L378.39375,247.54431959963068L380.1375,301.99183986952795L381.88124999999997,339.58327548589904L383.625,338.5834714932593L385.36875,337.0850297469222L387.1125,333.8745289381898L388.85625,357.35332067894245L390.6,372.3524280768435L392.34375,320.5296770604656L394.0875,318.83312153855445L395.83125,339.89453470572147L397.575,351.9655469412744L399.31875,370.35912895233275L401.0625,375.7397226998791L402.80625000000003,331.5203091476238L404.55,313.43928350035856L406.29375,339.8366381916747L408.03749999999997,348.46682634109084L409.78125,300.923778138109L411.525,308.1828071460041L413.26875,277.9520953063242L415.0125,238.68719099173384L416.75625,284.1947880891528L418.5,214.7428894155512L420.24375,11.08522960436579L421.9875,158.6772618991186L423.73125,249.55749725963096L425.47499999999997,253.99953433951242L427.21874999999994,289.54553156016885L428.9625,330.68440142814455L430.70624999999995,354.2930961965187L432.45000000000005,286.03673085662956L434.19375,328.3107610144156L435.93750000000006,343.6538722553458L437.68125000000003,327.12956299183037L439.425,358.89590899849077L441.16875,320.47162786042924L442.9125,285.0939896051436L444.65625,292.8199806833997L446.4,292.01831616385186L448.14375,318.16249344740976L449.8875,171.86401092183394L451.63124999999997,256.81562663582116L453.37499999999994,269.1754037905389L455.11875,266.60786979300326L456.86249999999995,269.53586479339407L458.60625000000005,312.9187798182068L460.35,333.30497360798853L462.09375000000006,296.49788567579174L463.83750000000003,325.0605760032319L465.58125,340.6243875466944L467.325,314.80690442403994L469.06875,286.07549440352L470.8125,294.74691020010266L472.55625,327.86068443332186L474.3,343.7218890380059L476.04375,360.9183599692643L477.78749999999997,329.5059593563824L479.53124999999994,275.8760454203143L481.275,304.9809340945064L483.01874999999995,273.6664042039918L484.76250000000005,325.73253073402145L486.50625,341.4089148081751L488.25000000000006,339.1909106727171L489.99375000000003,346.0640088492693L491.7375,312.09364121653135L493.48125,340.2208419324914L495.225,353.33618896593845L496.96875,359.3927660671968L498.7125,333.67014834027583L500.45625,313.68934375470786L502.2,310.70412844058666L503.94374999999997,346.94864715935006L505.68749999999994,266.5446448677478L507.43125,253.57349974684107L509.17499999999995,134.60133408507522L510.91875000000005,227.75036922013874L512.6625,263.91131785648236L514.40625,297.5749346739872L516.15,267.60291231024706L517.8937500000001,296.9696377645061L519.6375,321.46737283410323L521.38125,352.44178409013136L523.125,320.04104868113166L524.86875,347.8993426034466L526.6125,279.5349235728899L528.3562499999999,328.652617927327L530.1,312.0785287609305L531.84375,285.8794362991106L533.5875,269.27374318906976L535.33125,311.4182289497774L537.075,258.7171805316863L538.81875,285.4000542067346L540.5625,335.15857835547797L542.30625,352.25957052264806L544.0500000000001,326.92574700924274L545.79375,339.52520569819967L547.5375,355.78435820673224L549.28125,345.5057262494598L551.025,210.2064090454241L552.76875,262.6705224561079L554.5124999999999,317.3981825960172L556.25625,243.96348467614462L558,308.0738069743367L559.74375,290.3747507119076L561.4875,331.6407967624202L563.23125,336.64756416338184L564.975,292.46559200861304L566.71875,322.5679958520371L568.4625,310.0598619479821L570.2062500000001,327.43612871568524L571.95,306.3962263367206L573.69375,338.0130429244175L575.4375,286.48180760338215L577.18125,306.33497344090006L578.925,253.8611771995706L580.6687499999999,250.22805016351163L582.4125,250.89612560413727L584.15625,259.91448405294835L585.9,306.49585403149854L587.64375,334.08636968148073L589.3875,318.38790793185944L591.13125,345.2187003473326L592.875,227.00453664689567L594.61875,254.84716095533926L596.3625000000001,230.83004849855274L598.10625,237.07862106562288L599.85,202.33545990217848L601.59375,240.17006441182124L603.3375,245.14528885311248L605.08125,253.08026054453921L606.8249999999999,243.21164496884984L608.56875,290.9421206172425L610.3125,296.12777938935125L612.05625,328.38943380397274L613.8,351.221224386923L615.54375,369.69877062264067L617.2875,370.06664262939904L619.03125,371.890286362421L620.775,308.7912677653143L622.5187500000001,323.4168883813178L624.2625,352.80968643422364L626.00625,358.90236137425603L627.75,339.18573042660995L629.49375,328.9101491770002L631.2375,290.093349849111L632.9812499999999,310.04883504933935L634.725,316.84317321895776L636.46875,341.79325982769296L638.2125,370.42953089713194L639.95625,370.39797555699056L641.7,354.4010067543781L643.44375,313.63694175940884L645.1875,340.53900168414003L646.93125,348.76464981677066L648.6750000000001,305.6922824808288L650.41875,338.4023310944326L652.1625,298.0874811836638L653.90625,247.48312558161808L655.65,274.59819871637654L657.39375,208.6985716090556L659.1374999999999,285.0032894490484L660.88125,302.35396808200767L662.625,323.6908927800205L664.36875,340.5924381265273L666.1125,348.52012148532157L667.85625,316.43638403221075L669.6,330.98822772179386L671.34375,327.8765107207147L673.0875,344.96232771073414L674.8312500000001,333.8665635995992L676.575,278.32488527039754L678.31875,275.38430394045673L680.0625,309.850979950277L681.80625,337.12102645737934L683.55,308.99716328676715L685.2937499999999,343.205425382583L687.0375,342.64027040642156L688.78125,336.30313855346907L690.525,351.8906656871512L692.26875,273.4204861341953L694.0125,319.6227903112476L695.75625,246.91827321244506L697.5,262.53151798288957L699.24375,78.06642770530847L700.9875000000001,163.6055529146243L702.73125,130.05930923246433L704.475,238.09635403919296L706.21875,304.36474517273086L707.9625,339.0810233563538L709.70625,286.0525660385031L711.4499999999999,318.0726679646761L713.19375,352.73743327264685L714.9375,302.90281045134185L716.68125,319.5557732180227L718.425,274.47239966086113L720.16875,311.27626461331363L721.9125,293.7638241768662L723.65625,333.72045441505514L725.4,353.27699029533017L727.1437500000001,297.8348769515407L728.8875,302.53670344488484L730.63125,341.5535838163128L732.375,357.31215789215526L734.11875,350.8548604108852L735.8625,308.31219938836017L737.6062499999999,277.60346724300246L739.35,271.7591780250291L741.09375,310.7384821736731L742.8375,302.71510933366676L744.58125,162.79244705156836L746.325,262.6921342210911L748.06875,305.20407539536643L749.8125,341.3548946465157L751.55625,351.2943855645568L753.3000000000001,259.26486943553004L755.04375,292.25919554074926L756.7875,297.0715685277414L758.53125,269.505222701757L760.275,236.8177546489858L762.01875,294.4056822572899L763.7624999999999,334.33624103720683L765.50625,273.24522813778043L767.25,294.9110553367752" style="fill: none;" fill="none"></path></g></g></g></g><g opacity="0.2"><g><g><g><path stroke="rgb(255, 112, 67)" stroke-width="2px" d="M74.98125,-699.2489308081567L76.725,189.05254049832L78.46875,-865.0260901972651L81.95625,-320.2386844400316L83.7,123.01818355126306L85.44375,353.2217980050482L87.1875,-170.96718472521744L88.93124999999999,-815.9407553225756L90.675,244.76551122870296L92.41875,-327.7929617520421L94.16250000000001,116.72796307038516L95.90625,323.5299033499323L97.65,-36.82960723154238L99.39375,319.7318298430182L101.1375,227.5582487732172L102.88125,300.5087431324646L104.625,326.40554870385677L106.36874999999999,48.65485008712858L108.11250000000001,189.00408751005307L109.85625,248.42202213266864L111.6,26.724342935718596L113.34374999999999,381.4505517607322L115.0875,46.11677371803671L116.83125,72.92020755494013L118.575,362.87196879356634L120.31875,-121.04950300045303L122.06250000000001,10.876880240626633L123.80625,92.49218650301918L125.55,224.69809608673677L127.29374999999999,326.34289776114747L129.0375,359.3348622475751L130.78125,354.9519405446481L132.525,294.99269519373775L134.26875,271.6494476867374L136.01250000000002,-33.59712580777696L137.75625,314.7532852985896L139.5,21.932324840687215L141.24375,386.4651809440111L142.9875,224.7266017170623L144.73125,124.06492609670386L146.475,98.08534667035565L148.21875,345.6655347349588L149.9625,7.414071568287951L151.70624999999998,330.4271467300132L153.45,368.806779583334L155.19375,145.20629470143467L156.9375,108.85086333518848L158.68125,382.89111198764294L160.425,340.87838278582785L162.16875000000002,216.104625064414L163.9125,224.4759321133606L165.65625,79.65881567588076L167.4,315.92457265150733L169.14375,-201.92386037297538L170.8875,25.301519179716706L172.63125,327.23052227310836L174.375,335.28839356813114L176.11875,369.65201321663335L177.86249999999998,-14.71130086202166L179.60625,64.69827527552843L181.35,134.66406116867438L183.09375,362.9534369633766L184.8375,373.59178647829685L186.58125,326.37889736588113L188.32500000000002,-23.114778237417255L190.06875,-791.2377190273255L191.8125,340.0919982473133L193.55625,180.16960237082094L195.3,39.646324798464775L197.04375,376.1200372923631L198.7875,212.98662699200213L200.53125,383.94546371500473L202.275,113.44198147207499L204.01874999999998,347.0952873999486L205.7625,194.3071880764328L207.50625,367.8027186783729L209.25,404.4564291530114L210.99375,241.37193678552285L212.73749999999998,151.9251310187392L214.48125,296.5942003161181L216.22500000000002,155.6183327725157L217.96875000000003,406.13611354501336L219.7125,309.5893444356043L221.45625,200.28198135923594L223.2,375.28871085168794L224.94375,387.5513628613553L226.68749999999997,356.09618704847526L228.43124999999998,349.5288705548737L230.175,320.0432302642148L231.91875000000002,198.50859759980813L233.6625,314.6182511213701L235.40625,207.02267418755218L237.15,323.57502080639824L238.89374999999998,88.09101812448353L240.6375,323.47473540948704L242.38125000000002,252.84848130331375L244.12500000000003,363.5229241576744L245.86875,305.19039243017323L247.6125,390.8316608890309L249.35625,213.42336221504956L251.1,321.61873140512034L252.84374999999997,348.37334468693007L254.58749999999998,228.72432435769588L256.33125,383.6913570871693L258.075,371.6924425048055L259.81875,287.3375838776119L261.5625,278.2104606835637L263.30625,378.0712411048589L265.05,333.3926265136106L266.79375,196.93350242823362L268.5375,193.41212445078418L270.28125,359.7839191884268L272.02500000000003,334.05509714293294L273.76875,229.46874044509605L275.5125,179.7527047842741L277.25624999999997,392.7623961667414L279,383.41120258928277L280.74375,375.4829726626631L282.4875,314.80735602462664L284.23125,283.15478311059996L285.975,363.7521103032632L287.71875,90.18182601220906L289.4625,218.7800507331267L291.20625,357.05311162245926L292.95,26.95212464686483L294.69375,398.0870981417829L296.4375,391.0575252179988L298.18125000000003,247.82737581199035L299.925,220.92370046675205L301.66875,373.42020957521163L303.41249999999997,412.0121534165228L305.15625,359.47778539638966L306.9,230.9711780785583L308.64375,167.46497868234292L310.3875,295.8133237939328L312.13125,390.1823623186792L313.875,324.08951561455615L315.61875,164.8527086749673L317.3625,248.53485966240987L319.10625,321.581974722445L320.85,216.93758635455742L322.59375,393.4491755812778L324.33750000000003,220.68898436054587L326.08125,376.5988452018937L327.825,269.0745378299616L329.56874999999997,237.14871463971213L331.3125,323.33262419933453L333.05625,362.38534871744923L334.8,295.9706972565036L336.54375,306.05688459263183L338.2875,162.1352596944198L340.03125,190.4191210437566L341.775,312.88883274327964L343.51875,276.7462500000838L345.2625,343.80409403319936L347.00625,295.8561480722856L348.75,374.5243912949227L350.49375000000003,301.10489263688214L352.2375,366.9331817459315L353.98125,389.1037374655716L355.72499999999997,389.7177002459066L357.46875,353.14442793105263L359.2125,347.3859449827578L360.95625,363.56722418940626L362.7,315.7381998121273L364.44375,262.252892522607L366.1875,384.8604116087663L367.93125,384.9909581790562L369.675,240.33762567932718L371.41875,326.7420643628575L373.1625,155.36467874562368L374.90625,379.76578177994816L376.65000000000003,195.7423225780949L378.39375,228.34642177121714L380.1375,383.6631202743738L381.88124999999997,395.97042891045567L383.625,337.08376550429966L385.36875,334.83736712741666L387.1125,329.0587777250912L388.85625,392.5715082900715L390.6,394.8510891736951L392.34375,242.79555053589866L394.0875,316.2882882556878L395.83125,371.486654456472L397.575,370.0720652946038L399.31875,397.94950196892023L401.0625,383.8106133211986L402.80625000000003,265.1911888192408L404.55,286.31774502946064L406.29375,379.43267022864893L408.03749999999997,361.412108565215L409.78125,229.60920583363622L411.525,319.0713506578468L413.26875,232.6060275468044L415.0125,179.78983451984823L416.75625,352.45618373528123L418.5,110.5650414051488L420.24375,-294.4012601124122L423.73125,385.8778503003996L425.47499999999997,260.6625899593346L427.21874999999994,342.8645273911534L428.9625,392.39270623010816L430.70624999999995,389.70613834908L432.45000000000005,183.65218284679577L434.19375,391.7218062510947L435.93750000000006,366.66853911674116L437.68125000000003,302.3430990965571L439.425,406.5454280084814L441.16875,262.8352061533369L442.9125,232.0275322222151L444.65625,304.40896730078384L446.4,290.8158193845302L448.14375,357.3787593727466L449.8875,-47.58371286652974L451.63124999999997,384.24305020680185L453.37499999999994,287.7150695226155L455.11875,262.75656879669987L456.86249999999995,273.9278572939802L458.60625000000005,377.993152355426L460.35,363.8842642926611L462.09375000000006,241.28725377749652L463.83750000000003,367.90461149439216L465.58125,363.9701048618881L467.325,276.08067974005826L469.06875,242.97837937274016L470.8125,307.7540338949766L472.55625,377.53134578315075L474.3,367.51369594503194L476.04375,386.7130663661519L477.78749999999997,282.38735843705945L479.53124999999994,195.4311745162122L481.275,348.6382671057945L483.01874999999995,226.69460936821997L484.76250000000005,403.83172052906593L486.50625,364.9234909194056L488.25000000000006,335.8639044695301L489.99375000000003,356.3736561140977L491.7375,261.1380897674244L493.48125,382.4116430064314L495.225,373.00920951610897L496.96875,368.47763171908446L498.7125,295.0862217498943L500.45625,283.71813687635586L502.2,306.2263054694049L503.94374999999997,401.3154252374952L505.68749999999994,145.93864143034443L507.43125,234.11678206548095L509.17499999999995,-43.856914407573555L510.91875000000005,367.473921922734L512.6625,318.1527408109978L514.40625,348.0703599002445L516.15,222.64487876463681L517.8937500000001,341.0197259458946L519.6375,358.2139754384989L521.38125,398.90340097417356L523.125,271.4399455676321L524.86875,389.686783486919L526.6125,176.98829502705485L528.3562499999999,402.32915945898276L530.1,287.2173950113356L531.84375,246.58079760638066L533.5875,244.3652035240084L535.33125,374.6349575908389L537.075,179.6656079045497L538.81875,325.42436471930705L540.5625,409.79636457859306L542.30625,377.91105877340306L544.0500000000001,288.9250117391348L545.79375,358.42439373163506L547.5375,380.17308696953114L549.28125,330.0877783135511L551.025,7.257433239370626L552.76875,341.3666925721336L554.5124999999999,399.4896728058811L556.25625,133.81143779633567L558,404.2392904216249L559.74375,263.82616631826386L561.4875,393.53986583818914L563.23125,344.1577152648242L564.975,226.19263377645984L566.71875,367.7216016171733L568.4625,291.2976610918995L570.2062500000001,353.50052886724006L571.95,274.8363727682736L573.69375,385.4382678059628L575.4375,209.1849546218291L577.18125,336.1147221971769L578.925,175.15048283757642L580.6687499999999,244.7783596094232L582.4125,251.8982387650758L584.15625,273.44202172616497L585.9,376.36790899932384L587.64375,375.47214315645397L589.3875,294.84021530742757L591.13125,385.46488897054223L592.875,49.68329109624028L594.61875,296.61109741800465L596.3625000000001,194.8043798133731L598.10625,246.45147991622798L599.85,150.22071815701202L601.59375,296.9219711762853L603.3375,252.60812551504932L605.08125,264.9827180816792L606.8249999999999,228.4087216053158L608.56875,362.53783408983145L610.3125,303.9062675475143L612.05625,376.781915425905L613.8,385.46891026134836L615.54375,397.41508997621713L617.2875,370.6184506395366L619.03125,374.62575196195394L620.775,214.14273986965418L622.5187500000001,345.35531930532306L624.2625,396.8988835135824L626.00625,368.0413737843046L627.75,309.6107840051409L629.49375,313.49677730258554L631.2375,231.86815085727721L632.9812499999999,339.9820628496818L634.725,327.0346804733854L636.46875,379.2183897407958L638.2125,413.38393750129035L639.95625,370.35064254677854L641.7,330.40555355045944L643.44375,252.4908442669548L645.1875,380.89209157123696L646.93125,361.1031220157165L648.6750000000001,241.083731476916L650.41875,387.4674040148384L652.1625,237.61520631751046L653.90625,171.57659217854962L655.65,315.2708084185142L657.39375,109.84913094807416L659.1374999999999,399.4603662090376L660.88125,328.3799860314466L662.625,355.6962798270397L664.36875,365.94475614628755L666.1125,360.4116465235129L667.85625,268.31077785254456L669.6,352.81599325616844L671.34375,323.208935219096L673.0875,370.5910531957634L674.8312500000001,317.2229174328968L676.575,195.01236777659506L678.31875,270.9734319455456L680.0625,361.55099396500736L681.80625,378.02609621803276L683.55,266.811368530849L685.2937499999999,394.51781852630666L687.0375,341.7925379421795L688.78125,326.7974407740403L690.525,375.27195638767444L692.26875,155.71521680476144L694.0125,388.9262465768261L695.75625,137.8614975642413L697.5,285.95138513855636L699.24375,-198.63120771106324L700.9875000000001,291.9142407285981L702.73125,79.73994370922446L704.475,400.1519212492858L707.9625,391.1554406317882L709.70625,206.50988006172702L711.4499999999999,366.10282085393555L713.19375,404.73458123460296L714.9375,228.15087621938437L716.68125,344.53521736804396L718.425,206.8473393251188L720.16875,366.4820620419923L721.9125,267.49516352219507L723.65625,393.65539977233857L725.4,382.61179411574267L727.1437500000001,214.6717069358565L728.8875,309.58944318490103L730.63125,400.07890437345486L732.375,380.9500190059189L734.11875,341.1689141889801L735.8625,244.49820785457268L737.6062499999999,231.5403690249659L739.35,262.992744198069L741.09375,369.2074383966392L742.8375,290.6800500736572L744.58125,-47.091546371579085L746.325,412.54166497537517L748.06875,368.9719871567795L749.8125,395.5811235232395L751.55625,366.2036219416186L753.3000000000001,121.22059524198994L755.04375,341.75068469857797L756.7875,304.29012800822966L758.53125,228.15570396278054L760.275,187.78655256982893L762.01875,380.78757366974605L763.7624999999999,394.2320792070823L765.50625,181.6087087886408L767.25,327.40979613526724" style="fill: none;" fill="none"></path></g></g></g></g></g></g><g transform="translate(50, 377)" clip-path="url(#clip_1)"><clipPath id="clip_1"><rect width="837" height="23"></rect></clipPath><g><g><line x1="0" y1="0" x2="0" y2="5" style="visibility: inherit;" fill="rgb(0, 0, 0)" stroke="rgb(204, 204, 204)" stroke-width="1px"></line><line x1="69.75" y1="0" x2="69.75" y2="5" style="visibility: inherit;" fill="rgb(0, 0, 0)" stroke="rgb(204, 204, 204)" stroke-width="1px"></line><line x1="139.5" y1="0" x2="139.5" y2="5" style="visibility: inherit;" fill="rgb(0, 0, 0)" stroke="rgb(204, 204, 204)" stroke-width="1px"></line><line x1="209.25" y1="0" x2="209.25" y2="5" style="visibility: inherit;" fill="rgb(0, 0, 0)" stroke="rgb(204, 204, 204)" stroke-width="1px"></line><line x1="279" y1="0" x2="279" y2="5" style="visibility: inherit;" fill="rgb(0, 0, 0)" stroke="rgb(204, 204, 204)" stroke-width="1px"></line><line x1="348.75" y1="0" x2="348.75" y2="5" style="visibility: inherit;" fill="rgb(0, 0, 0)" stroke="rgb(204, 204, 204)" stroke-width="1px"></line><line x1="418.5" y1="0" x2="418.5" y2="5" style="visibility: inherit;" fill="rgb(0, 0, 0)" stroke="rgb(204, 204, 204)" stroke-width="1px"></line><line x1="488.25000000000006" y1="0" x2="488.25000000000006" y2="5" style="visibility: inherit;" fill="rgb(0, 0, 0)" stroke="rgb(204, 204, 204)" stroke-width="1px"></line><line x1="558" y1="0" x2="558" y2="5" style="visibility: inherit;" fill="rgb(0, 0, 0)" stroke="rgb(204, 204, 204)" stroke-width="1px"></line><line x1="627.75" y1="0" x2="627.75" y2="5" style="visibility: inherit;" fill="rgb(0, 0, 0)" stroke="rgb(204, 204, 204)" stroke-width="1px"></line><line x1="697.5" y1="0" x2="697.5" y2="5" style="visibility: inherit;" fill="rgb(0, 0, 0)" stroke="rgb(204, 204, 204)" stroke-width="1px"></line><line x1="767.25" y1="0" x2="767.25" y2="5" style="visibility: inherit;" fill="rgb(0, 0, 0)" stroke="rgb(204, 204, 204)" stroke-width="1px"></line><line x1="837" y1="0" x2="837" y2="5" style="visibility: inherit;" fill="rgb(0, 0, 0)" stroke="rgb(204, 204, 204)" stroke-width="1px"></line></g><g transform="translate(0, 8)"><text x="0" y="0" dx="0em" dy="0.95em" style="text-anchor: middle; visibility: hidden; font-family: Roboto, sans-serif; font-size: 12px; font-weight: 200;" fill="rgb(33, 33, 33)" stroke="none" stroke-width="1px">-20k</text><text x="69.75" y="0" dx="0em" dy="0.95em" style="text-anchor: middle; visibility: inherit; font-family: Roboto, sans-serif; font-size: 12px; font-weight: 200;" fill="rgb(33, 33, 33)" stroke="none" stroke-width="1px">0</text><text x="139.5" y="0" dx="0em" dy="0.95em" style="text-anchor: middle; visibility: inherit; font-family: Roboto, sans-serif; font-size: 12px; font-weight: 200;" fill="rgb(33, 33, 33)" stroke="none" stroke-width="1px">20k</text><text x="209.25" y="0" dx="0em" dy="0.95em" style="text-anchor: middle; visibility: inherit; font-family: Roboto, sans-serif; font-size: 12px; font-weight: 200;" fill="rgb(33, 33, 33)" stroke="none" stroke-width="1px">40k</text><text x="279" y="0" dx="0em" dy="0.95em" style="text-anchor: middle; visibility: inherit; font-family: Roboto, sans-serif; font-size: 12px; font-weight: 200;" fill="rgb(33, 33, 33)" stroke="none" stroke-width="1px">60k</text><text x="348.75" y="0" dx="0em" dy="0.95em" style="text-anchor: middle; visibility: inherit; font-family: Roboto, sans-serif; font-size: 12px; font-weight: 200;" fill="rgb(33, 33, 33)" stroke="none" stroke-width="1px">80k</text><text x="418.5" y="0" dx="0em" dy="0.95em" style="text-anchor: middle; visibility: inherit; font-family: Roboto, sans-serif; font-size: 12px; font-weight: 200;" fill="rgb(33, 33, 33)" stroke="none" stroke-width="1px">100k</text><text x="488.25000000000006" y="0" dx="0em" dy="0.95em" style="text-anchor: middle; visibility: inherit; font-family: Roboto, sans-serif; font-size: 12px; font-weight: 200;" fill="rgb(33, 33, 33)" stroke="none" stroke-width="1px">120k</text><text x="558" y="0" dx="0em" dy="0.95em" style="text-anchor: middle; visibility: inherit; font-family: Roboto, sans-serif; font-size: 12px; font-weight: 200;" fill="rgb(33, 33, 33)" stroke="none" stroke-width="1px">140k</text><text x="627.75" y="0" dx="0em" dy="0.95em" style="text-anchor: middle; visibility: inherit; font-family: Roboto, sans-serif; font-size: 12px; font-weight: 200;" fill="rgb(33, 33, 33)" stroke="none" stroke-width="1px">160k</text><text x="697.5" y="0" dx="0em" dy="0.95em" style="text-anchor: middle; visibility: inherit; font-family: Roboto, sans-serif; font-size: 12px; font-weight: 200;" fill="rgb(33, 33, 33)" stroke="none" stroke-width="1px">180k</text><text x="767.25" y="0" dx="0em" dy="0.95em" style="text-anchor: middle; visibility: inherit; font-family: Roboto, sans-serif; font-size: 12px; font-weight: 200;" fill="rgb(33, 33, 33)" stroke="none" stroke-width="1px">200k</text><text x="837" y="0" dx="0em" dy="0.95em" style="text-anchor: middle; visibility: hidden; font-family: Roboto, sans-serif; font-size: 12px; font-weight: 200;" fill="rgb(33, 33, 33)" stroke="none" stroke-width="1px">220k</text></g><line x1="0" y1="0" x2="837" y2="0" fill="rgb(0, 0, 0)" stroke="rgb(204, 204, 204)" stroke-width="1px"></line></g></g></g></g></svg>